<?xml version="1.0" encoding="iso-8859-1"?>
<!-- Generator: Adobe Illustrator 19.0.0, SVG Export Plug-In . SVG Version: 6.00 Build 0)  -->
<svg version="1.1" id="Capa_1" xmlns="http://www.w3.org/2000/svg" xmlns:xlink="http://www.w3.org/1999/xlink" x="0px" y="0px"
	 viewBox="0 0 512 512" style="enable-background:new 0 0 512 512;" xml:space="preserve">
<g>
	<path style="fill:#4BB9F5;" d="M58.666,58.661c-21.252,21.252-37.467,45.631-48.661,71.654l238.438,238.438
		c11.194-26.022,27.409-50.402,48.661-71.654c21.252-21.252,45.631-37.467,71.654-48.661L130.32,10
		C104.297,21.194,79.918,37.409,58.666,58.661z"/>
	<circle style="fill:#4BB9F5;" cx="272.04" cy="272.03" r="229.97"/>
</g>
<path style="fill:#6E6E6E;" d="M109.424,109.419c-21.252,21.252-37.467,45.631-48.661,71.654l187.681,187.681
	c11.194-26.022,27.409-50.402,48.661-71.654c21.252-21.252,45.631-37.467,71.654-48.661L181.077,60.758
	C155.055,71.952,130.676,88.167,109.424,109.419z"/>
<path style="fill:#FFFFFF;" d="M297.104,297.099c-21.177,21.177-37.348,45.459-48.538,71.377l-0.071,0.328l150.717,30.402
	L368.81,248.49l-0.227,0.026C342.626,259.708,318.309,275.895,297.104,297.099z"/>
<path style="fill:#6E6E6E;" d="M311.33,381.48l87.883,17.728l-17.728-87.883c-15.17,6.534-29.381,15.993-41.772,28.383
	C327.322,352.099,317.864,366.31,311.33,381.48z"/>
<path d="M428.177,117.091c1.955,1.974,4.529,2.962,7.104,2.962c2.544,0,5.089-0.964,7.038-2.896
	c3.924-3.887,3.953-10.218,0.065-14.142l-0.664-0.667c-3.906-3.904-10.236-3.904-14.143,0c-3.905,3.905-3.905,10.237,0,14.143
	L428.177,117.091z"/>
<path d="M473.511,141.588c-3.005-4.633-9.198-5.954-13.831-2.946c-4.634,3.006-5.952,9.199-2.946,13.832
	c56.077,86.432,43.815,202.128-29.156,275.099C386.031,469.119,330.792,492,272.036,492s-113.995-22.881-155.541-64.428
	c-41.547-41.546-64.428-96.785-64.428-155.541c0-25.295,4.251-49.935,12.397-73.115l176.908,176.907l0,0
	c1.389,1.41,3.177,2.387,5.146,2.784l62.786,12.665c0.024,0.005,0.048,0.01,0.072,0.014l87.859,17.723
	c0.658,0.132,1.32,0.197,1.978,0.197c2.625,0,5.177-1.035,7.071-2.929c2.368-2.369,3.394-5.766,2.731-9.049l-17.729-87.887
	c-0.005-0.025-0.01-0.05-0.015-0.075l-12.659-62.754c-0.397-1.969-1.358-3.688-2.68-5.029c-0.037-0.038-0.066-0.08-0.104-0.117
	L198.897,64.435c60.539-21.41,129.07-15.745,186.934,19.285c4.726,2.861,10.873,1.348,13.733-3.375
	c2.86-4.725,1.349-10.874-3.376-13.734c-45.104-27.307-98.954-39.02-151.636-32.979c-21.293,2.441-41.792,7.591-61.188,15.271
	L137.391,2.929c-2.896-2.895-7.262-3.733-11.022-2.115C98.424,12.834,73.267,29.918,51.595,51.59
	C29.924,73.261,12.84,98.418,0.819,126.363c-1.617,3.761-0.779,8.128,2.115,11.023l45.99,45.99
	c-11.056,27.839-16.856,57.8-16.856,88.656c0,64.098,24.961,124.359,70.285,169.683S207.938,512,272.036,512
	s124.359-24.961,169.684-70.285c39.09-39.09,63.629-90.858,69.098-145.769C516.21,241.798,502.961,186.98,473.511,141.588z
	 M361.503,262.839l8.624,42.752c-13.834,6.912-26.418,15.98-37.485,27.046c-11.066,11.067-20.135,23.651-27.047,37.485l-42.75-8.624
	c10.547-21.156,24.405-40.402,41.332-57.328C321.102,287.244,340.348,273.385,361.503,262.839z M326.026,374.243
	c5.576-10.025,12.524-19.229,20.759-27.464c8.233-8.234,17.438-15.182,27.463-20.758l12.185,60.407L326.026,374.243z
	 M351.594,245.417c-22.701,11.447-43.36,26.411-61.561,44.611c-18.199,18.2-33.164,38.859-44.611,61.562L72.667,178.835
	c10.711-22.875,25.437-43.954,43.828-62.345c18.546-18.546,39.692-33.191,62.348-43.824L351.594,245.417z M21.949,128.116
	c10.813-23.158,25.521-44.117,43.789-62.385s39.227-32.976,62.384-43.788l35.727,35.727c-22.463,11.355-43.152,26.334-61.495,44.677
	c-18.311,18.311-33.294,39.063-44.655,61.518L21.949,128.116z"/>
<path d="M117.887,176.925l62.347,62.347c1.953,1.953,4.512,2.929,7.071,2.929s5.118-0.976,7.071-2.929
	c3.905-3.905,3.905-10.237,0-14.143l-62.347-62.347c-3.906-3.905-10.236-3.905-14.143,0
	C113.982,166.688,113.982,173.02,117.887,176.925z"/>
<path d="M207.668,266.707c1.954,1.966,4.522,2.95,7.092,2.95c2.55,0,5.1-0.969,7.051-2.908c3.916-3.894,3.935-10.226,0.041-14.142
	l-0.083-0.083c-3.893-3.916-10.225-3.935-14.143-0.042c-3.916,3.894-3.935,10.226-0.041,14.142L207.668,266.707z"/>
<g>
</g>
<g>
</g>
<g>
</g>
<g>
</g>
<g>
</g>
<g>
</g>
<g>
</g>
<g>
</g>
<g>
</g>
<g>
</g>
<g>
</g>
<g>
</g>
<g>
</g>
<g>
</g>
<g>
</g>
</svg>
