<?xml version="1.0" encoding="iso-8859-1"?>
<!-- Generator: Adobe Illustrator 19.0.0, SVG Export Plug-In . SVG Version: 6.00 Build 0)  -->
<svg version="1.1" id="Capa_1" xmlns="http://www.w3.org/2000/svg" xmlns:xlink="http://www.w3.org/1999/xlink" x="0px" y="0px"
	 viewBox="0 0 512 512" style="enable-background:new 0 0 512 512;" xml:space="preserve">
<circle style="fill:#6E6E6E;" cx="256" cy="256" r="246"/>
<path style="fill:#FFFFFF;" d="M256,407c-68.107,0-128.056-45.88-145.785-111.57c-2.446-9.064,2.919-18.396,11.983-20.843
	c9.063-2.444,18.396,2.918,20.843,11.983C156.774,337.459,203.226,373,256,373c52.782,0,99.236-35.541,112.969-86.429
	c2.446-9.066,11.784-14.429,20.842-11.984c9.065,2.446,14.431,11.777,11.984,20.842C384.067,361.12,324.114,407,256,407z"/>
<path d="M256,512c-53.435,0-104.631-16.298-148.055-47.131c-4.503-3.198-5.562-9.44-2.363-13.943
	c3.196-4.502,9.437-5.562,13.943-2.364C159.546,476.979,206.738,492,256,492c130.131,0,236-105.869,236-236S386.131,20,256,20
	S20,125.869,20,256c0,53.03,17.177,103.121,49.674,144.858c3.393,4.358,2.61,10.641-1.747,14.034s-10.641,2.611-14.034-1.747
	C18.636,367.863,0,313.523,0,256c0-68.38,26.629-132.667,74.98-181.019C123.333,26.628,187.62,0,256,0s132.667,26.628,181.02,74.981
	C485.371,123.333,512,187.62,512,256s-26.629,132.667-74.98,181.019C388.667,485.372,324.38,512,256,512z"/>
<path d="M84.863,442.716c-2.502,0-5.006-0.933-6.947-2.808l-0.301-0.292c-3.972-3.837-4.081-10.168-0.244-14.14
	c3.837-3.973,10.168-4.082,14.141-0.245l0.301,0.292c3.972,3.837,4.081,10.168,0.244,14.14
	C90.095,441.695,87.48,442.716,84.863,442.716z"/>
<path d="M256,417c-72.616,0-136.535-48.92-155.439-118.964c-1.88-6.963-0.935-14.241,2.66-20.494s9.409-10.73,16.372-12.61
	c14.374-3.879,29.225,4.662,33.103,19.033C165.254,330.5,207.734,363,256,363c48.272,0,90.757-32.5,103.314-79.034
	c1.879-6.963,6.357-12.778,12.612-16.373c6.254-3.593,13.529-4.538,20.489-2.661c6.963,1.879,12.777,6.357,16.373,12.609
	c3.595,6.252,4.54,13.53,2.66,20.493C392.547,368.08,328.624,417,256,417z M126.625,284c-0.603,0-1.214,0.078-1.822,0.242
	c-3.726,1.005-5.939,4.855-4.934,8.583C136.424,354.161,192.403,397,256,397c63.604,0,119.588-42.839,136.141-104.177
	c0.487-1.805,0.242-3.692-0.69-5.313s-2.439-2.782-4.245-3.269c-1.803-0.488-3.69-0.242-5.312,0.691
	c-1.622,0.932-2.783,2.439-3.271,4.244C363.716,344.418,313.291,383,256,383c-57.285,0-107.705-38.582-122.613-93.824
	C132.545,286.058,129.712,284,126.625,284z"/>
<path d="M256.584,64.845c-0.009,0-0.018,0-0.026,0L256,64.844c-5.522,0-10-4.477-10-10s4.478-10,10-10l0.608,0.001
	c5.522,0.014,9.988,4.502,9.975,10.025C266.569,60.384,262.095,64.845,256.584,64.845z"/>
<path d="M384.354,111.114c-2.249,0-4.513-0.755-6.379-2.304c-24.926-20.68-54.847-34.749-86.527-40.688
	c-5.429-1.017-9.005-6.243-7.987-11.671s6.248-9.003,11.671-7.986c35.016,6.563,68.078,22.107,95.613,44.952
	c4.251,3.526,4.838,9.831,1.312,14.082C390.078,109.882,387.227,111.114,384.354,111.114z"/>
<g>
</g>
<g>
</g>
<g>
</g>
<g>
</g>
<g>
</g>
<g>
</g>
<g>
</g>
<g>
</g>
<g>
</g>
<g>
</g>
<g>
</g>
<g>
</g>
<g>
</g>
<g>
</g>
<g>
</g>
</svg>
