<?xml version="1.0" encoding="iso-8859-1"?>
<!-- Generator: Adobe Illustrator 19.0.0, SVG Export Plug-In . SVG Version: 6.00 Build 0)  -->
<svg version="1.1" id="Capa_1" xmlns="http://www.w3.org/2000/svg" xmlns:xlink="http://www.w3.org/1999/xlink" x="0px" y="0px"
	 viewBox="0 0 512.002 512.002" style="enable-background:new 0 0 512.002 512.002;" xml:space="preserve">
<path style="fill:#F0F0FA;" d="M10,151.185h85.979v88.005c0,0,14.987-29.99,52.308-29.99s40.734,30.323,40.734,40.653
	c0,10.33,0,64.331,0,64.331h19l0.006,39.973H10.006L10,314.184h17.994V193.206H10V151.185z"/>
<path style="fill:#FFFFFF;" d="M123.961,313.165c0,0,0-21.256,0-34.918c0-18.438-25.991-18.431-25.991,7.56s0,27.359,0,27.359
	h25.991V313.165z"/>
<g>
	<polygon style="fill:#F0F0FA;" points="297.998,313.165 297.998,212.185 212.181,212.185 212.181,253.184 228.999,253.184 
		228.999,314.184 208.02,314.184 208.026,354.157 314.004,354.157 313.998,313.165 	"/>
	<rect x="244.089" y="166.189" style="fill:#F0F0FA;" width="53.912" height="46"/>
</g>
<path style="fill:#E6AA46;" d="M480.839,205.952l7.497-54.398H348.884l-19.493,103.797l50.983,7.595c0,0,8.497-12.426,22.492-9.594
	c13.995,2.832,18.744,16.994,16.994,31.989c-1.749,14.995-9.747,31.989-25.491,31.989s-16.912-10.14-14.745-17.494
	c2.749-9.33,1.901-34-23.643-34c-24.117,0-36.087,15.007-36.087,36.499c0,21.492,23.505,58.48,84.222,58.48
	s95.683-36.045,97.716-72.309c1.999-35.655-13.824-73.642-64.892-73.642c-26.077-1-45.737,8.664-45.737,8.664l4.332-17.577
	L480.839,205.952L480.839,205.952z"/>
<path d="M27.99,266.179c2.64,0,5.21-1.06,7.069-2.92c1.87-1.87,2.94-4.45,2.94-7.07c0-2.64-1.07-5.21-2.94-7.08
	c-1.859-1.859-4.43-2.92-7.069-2.92c-2.631,0-5.211,1.061-7.07,2.92c-1.86,1.87-2.93,4.44-2.93,7.08c0,2.63,1.069,5.2,2.93,7.07
	C22.779,265.12,25.359,266.179,27.99,266.179z"/>
<path d="M492.024,225.973c-3.657-3.868-7.719-7.211-12.173-10.021h0.987c4.995,0,9.225-3.687,9.906-8.635l7.497-54.398
	c0.395-2.863-0.469-5.757-2.368-7.936c-1.898-2.179-4.647-3.43-7.538-3.43H348.884c-4.812,0-8.94,3.426-9.828,8.154l-19.493,103.798
	c-0.502,2.671,0.105,5.431,1.682,7.645c1.263,1.774,3.061,3.075,5.107,3.729c-1.706,1.306-3.299,2.748-4.771,4.325
	c-7.646,8.195-11.688,19.651-11.688,33.131c0,0.275,0.023,0.554,0.028,0.83h-1.923V166.186c0-5.522-4.478-10-10-10h-53.912
	c-5.522,0-10,4.478-10,10v36h-21.906c-5.522,0-10,4.478-10,10v41c0,5.522,4.478,10,10,10h6.818v41H199.02v-54.331
	c0-6.279-1.023-18.459-7.88-29.482c-6.008-9.658-18.318-21.171-42.854-21.171c-18.667,0-32.533,6.419-42.308,13.802v-61.817
	c0-5.522-4.478-10-10-10H10c-5.522,0-10,4.478-10,10v42.021c0,5.522,4.478,10,10,10h7.994v15.979c0,5.522,4.478,10,10,10
	s10-4.478,10-10v-25.979c0-5.522-4.478-10-10-10H20v-22.021h65.979v78.006c0,4.639,3.189,8.668,7.704,9.732
	c4.52,1.069,9.169-1.115,11.241-5.263c0.122-0.244,12.579-24.46,43.362-24.46c25.401,0,30.733,16.669,30.733,30.653v64.331
	c0,5.522,4.478,10,10,10h9.002l0.001,10l0.001,9.973h-79.009l-0.003-20.992h4.949c5.522,0,10-4.478,10-10v-34.918
	c0-13.113-9.169-23.002-21.328-23.002c-12.256,0-24.663,10.497-24.663,30.562v27.358c0,5.522,4.478,10,10,10h1.042l0.003,20.992
	H20.005l-0.003-19.973h7.992c5.522,0,10-4.478,10-10v-23c0-5.522-4.478-10-10-10s-10,4.478-10,10v13H10
	c-2.652,0-5.196,1.054-7.071,2.93C1.053,308.989,0,311.533,0,314.186l0.006,39.973c0.001,5.521,4.478,9.998,10,9.998h303.998
	c2.652,0,5.196-1.054,7.071-2.93c1.876-1.875,2.929-4.419,2.929-7.071l-0.002-16.024c2.569,3.158,5.434,6.179,8.602,8.987
	c12.198,10.811,34.507,23.696,71.512,23.696c15.839,0,30.709-2.308,44.196-6.857c5.233-1.766,8.045-7.439,6.279-12.672
	c-1.766-5.233-7.438-8.045-12.672-6.279c-11.425,3.854-24.144,5.809-37.804,5.809c-30.734,0-48.639-10.149-58.247-18.664
	c-11.791-10.449-15.975-22.593-15.975-29.816c0-12.089,4.525-26.499,26.087-26.499c8.221,0,10.799,3.447,11.646,4.58
	c3.697,4.944,3.391,13.247,2.404,16.594c-2.377,8.069-1.353,15.634,2.886,21.301c3.077,4.115,9.297,9.02,21.452,9.02
	c21.181,0,33.054-20.507,35.424-40.831c2.623-22.492-7.167-39.351-24.943-42.949c-12.402-2.506-22.349,3.003-28.367,8.706
	l-35.347-5.265l16.045-85.438h119.683l-4.741,34.398h-76.588c-4.602,0-8.608,3.14-9.71,7.607l-4.331,17.577
	c-0.928,3.763,0.417,7.715,3.428,10.155c3.012,2.439,7.176,2.914,10.664,1.226c0.177-0.085,17.924-8.524,40.972-7.659
	c0.127,0.006,0.255,0.008,0.383,0.008c17.594,0,31.237,4.995,40.553,14.848c14.013,14.82,15.009,36.582,14.355,48.233
	c-0.211,3.766-0.854,7.561-1.908,11.279c-1.508,5.313,1.578,10.843,6.891,12.35c5.321,1.509,10.844-1.577,12.35-6.891
	c1.456-5.132,2.343-10.387,2.637-15.618C513.255,263.4,506.226,240.992,492.024,225.973z M107.97,285.806
	c0-7.285,2.727-10.562,4.663-10.562c1.232,0,1.328,2.298,1.328,3.002v24.918h-5.991C107.97,303.164,107.97,285.806,107.97,285.806z
	 M254.087,176.185h33.912v26h-33.912V176.185z M218.024,344.157l-0.001-10l-0.001-9.973h10.977c5.522,0,10-4.478,10-10v-61
	c0-5.522-4.478-10-10-10h-6.818v-21h65.818v90.979c0,5.522,4.478,10,10,10h6.001l0.004,20.992L218.024,344.157L218.024,344.157z
	 M388.599,268.636c0.508-0.683,5.353-6.882,12.283-5.484c10.424,2.11,9.559,16.63,9.046,21.03
	c-0.934,8.006-5.388,23.147-15.559,23.147c-3.634,0-5.19-0.751-5.423-0.979c-0.167-0.304-0.33-1.653,0.271-3.689
	c2.464-8.364,2.225-21.148-3.55-31.149C386.811,270.802,387.811,269.838,388.599,268.636z"/>
<path d="M473.669,326.017c-0.013,0.013-0.093,0.092-0.105,0.104l-0.028,0.028c-3.941,3.865-4.009,10.197-0.146,14.141
	c1.96,2.001,4.552,3.005,7.146,3.005c2.521,0,5.042-0.948,6.986-2.85l0.134-0.132c3.947-3.862,4.018-10.193,0.155-14.142
	C483.949,322.226,477.617,322.156,473.669,326.017z"/>
<g>
</g>
<g>
</g>
<g>
</g>
<g>
</g>
<g>
</g>
<g>
</g>
<g>
</g>
<g>
</g>
<g>
</g>
<g>
</g>
<g>
</g>
<g>
</g>
<g>
</g>
<g>
</g>
<g>
</g>
</svg>
