<?xml version="1.0" encoding="iso-8859-1"?>
<!-- Generator: Adobe Illustrator 19.0.0, SVG Export Plug-In . SVG Version: 6.00 Build 0)  -->
<svg version="1.1" id="Capa_1" xmlns="http://www.w3.org/2000/svg" xmlns:xlink="http://www.w3.org/1999/xlink" x="0px" y="0px"
	 viewBox="0 0 512 512" style="enable-background:new 0 0 512 512;" xml:space="preserve">
<path style="fill:#4BB9F5;" d="M485.384,286.428c1.458-11.184,2.12-22.618,1.914-34.246
	C485.1,128.064,384.316,27.258,260.199,25.038c-11.595-0.207-22.996,0.447-34.149,1.893c-7.736,1.003-15.618-0.291-22.649-3.671
	c-17.829-8.571-37.829-13.344-58.954-13.259C70.741,10.298,10.425,70.509,10.005,144.215c-0.121,21.218,4.659,41.305,13.267,59.204
	c3.317,6.897,4.437,14.644,3.428,22.231c-1.335,10.038-2.03,20.279-2.03,30.683c0,127.761,103.571,231.332,231.332,231.332
	c10.493,0,20.821-0.707,30.942-2.065c7.538-1.011,15.239,0.086,22.106,3.356c17.879,8.513,37.924,13.214,59.086,13.04
	c73.436-0.604,133.378-60.648,133.863-134.084c0.139-21.03-4.537-40.951-12.983-58.736
	C485.658,302.102,484.372,294.193,485.384,286.428z"/>
<path style="fill:#FFFFFF;" d="M274.69,411.998c-67.106,3.487-98.555-11.395-127.346-38.352
	c-32.169-30.192-19.23-64.589,7.008-66.387c26.131-1.689,41.838,29.761,55.891,38.46c13.911,8.698,66.964,28.502,95.071-3.522
	c30.444-34.937-20.38-52.909-57.582-58.408c-53.195-7.871-120.481-36.627-115.126-93.345c5.177-56.755,48.02-85.797,93.238-89.858
	c57.546-5.211,95.034,8.698,124.652,33.967c34.254,29.329,15.743,61.93-6.04,64.59c-21.746,2.66-46.186-48.02-94.206-48.882
	c-49.423-0.683-82.814,51.542-21.746,66.279c61.068,14.881,126.341,21.063,149.955,76.809
	C402.038,349.241,341.941,408.476,274.69,411.998L274.69,411.998z"/>
<path d="M419.429,102.885c-2.537,0-5.071-0.964-7.016-2.899c-0.021-0.021-0.057-0.056-0.069-0.068
	c-3.905-3.905-3.905-10.237,0-14.143c3.906-3.905,10.236-3.905,14.143,0c3.905,3.905,3.932,10.263,0.026,14.168
	C424.554,101.902,421.991,102.885,419.429,102.885z"/>
<path d="M366.975,512c-21.758,0-42.687-4.713-62.224-14.016c-5.021-2.391-10.715-3.246-16.477-2.474
	c-10.652,1.429-21.51,2.154-32.272,2.154c-64.462,0-125.066-25.103-170.647-70.685C39.773,381.397,14.67,320.793,14.67,256.331
	c0-10.673,0.712-21.44,2.116-32.001c0.772-5.803-0.102-11.535-2.526-16.578c-9.587-19.933-14.383-41.329-14.256-63.596
	C0.456,64.989,65.235,0.32,144.408,0.001c0.201,0,0.405-0.001,0.607-0.001c21.953,0,43.05,4.792,62.719,14.248
	c5.331,2.563,11.219,3.519,17.03,2.767c11.747-1.523,23.724-2.188,35.613-1.975c46.488,0.832,91.461,15.019,130.057,41.028
	c4.579,3.087,5.79,9.301,2.704,13.881c-3.088,4.581-9.302,5.79-13.882,2.704C343.87,48.806,302.639,35.799,260.02,35.036
	c-10.91-0.196-21.905,0.415-32.684,1.812c-9.659,1.253-19.437-0.33-28.268-4.575c-17.099-8.22-35.469-12.392-54.581-12.272
	C76.236,20.276,20.393,76.024,20.004,144.272c-0.109,19.201,4.021,37.643,12.279,54.813c4.12,8.565,5.616,18.208,4.328,27.884
	c-1.288,9.689-1.941,19.569-1.941,29.363c0,122.043,99.289,221.333,221.332,221.333c9.876,0,19.839-0.665,29.612-1.976
	c9.616-1.289,19.205,0.176,27.735,4.239c17.149,8.165,35.507,12.218,54.704,12.068c67.895-0.558,123.497-56.252,123.945-124.15
	c0.126-19.03-3.917-37.326-12.016-54.38c-4.213-8.871-5.774-18.667-4.516-28.329c1.408-10.805,2.024-21.833,1.832-32.778
	c-0.753-42.488-13.682-83.614-37.386-118.933c-3.078-4.585-1.855-10.798,2.729-13.876c4.586-3.078,10.799-1.855,13.876,2.73
	c25.855,38.521,39.955,83.379,40.776,129.725c0.211,11.925-0.461,23.942-1.996,35.717c-0.761,5.839,0.19,11.774,2.75,17.164
	c9.401,19.798,14.095,41.025,13.949,63.092c-0.521,78.765-65.021,143.371-143.781,144.018C367.804,511.998,367.389,512,366.975,512z
	"/>
<path d="M256.133,422.502c-58.751,0-88.413-16.077-115.624-41.557c-19.133-17.957-26.528-39.946-19.793-58.828
	c5.092-14.275,17.719-23.791,32.952-24.834c22.636-1.465,38.259,15.683,49.687,28.2c4.547,4.98,8.842,9.685,12.151,11.733
	c13.413,8.387,59.62,24.216,82.292-1.616c5.773-6.626,7.893-12.224,6.272-16.61c-3.854-10.44-27.623-20.848-57.801-25.308
	c-18.65-2.76-54.311-10.318-83.62-29.938c-28.926-19.362-42.758-45.034-40-74.24c2.64-28.933,14.736-53.592,34.979-71.28
	c17.729-15.491,41.637-25.292,67.319-27.598c55.186-4.995,97.136,6.544,132.037,36.319c18.716,16.024,26.255,35.761,20.697,54.161
	c-4.511,14.938-17.377,26.175-32.016,27.962c-13.54,1.66-24.969-8.218-38.193-19.654c-15.567-13.463-33.213-28.722-57.404-29.156
	c-25.479-0.35-43.063,15.071-44.476,26.283c-1.565,12.423,17.141,18.319,25.255,20.277c8.515,2.075,17.263,4.012,25.723,5.886
	c53.486,11.846,108.793,24.095,131.095,76.744c10.05,23.822,7.398,49.996-7.459,73.714c-20.98,33.492-62.193,56.581-104.994,58.822
	c-0.002,0-0.003,0-0.005,0C268.527,422.332,262.172,422.502,256.133,422.502z M156.339,317.195c-0.444,0-0.892,0.015-1.343,0.043
	c-7.242,0.497-13.029,4.833-15.442,11.599c-3.98,11.157,1.49,25.182,14.634,37.518c26.842,25.134,55.084,39.028,119.983,35.657
	c35.93-1.884,71.732-21.763,89.087-49.467c7.993-12.759,15.52-32.712,5.986-55.309c-18.273-43.139-66.228-53.76-116.997-65.004
	c-8.562-1.896-17.414-3.857-26.111-5.976c-41.154-9.932-41.316-34.821-40.386-42.213c1.465-11.627,9.339-23.052,21.603-31.344
	c12.18-8.235,27.508-12.655,43.034-12.437c31.477,0.565,53.84,19.905,70.169,34.026c8.407,7.27,17.896,15.486,22.686,14.929
	c6.786-0.829,13.075-6.542,15.296-13.893c3.206-10.617-1.96-22.399-14.546-33.175c-30.938-26.394-67.1-36.143-117.246-31.604
	c-37.442,3.363-79.214,26.356-84.181,80.808c-2.057,21.78,8.445,40.533,31.21,55.771c19.029,12.738,46.52,22.496,75.421,26.773
	c18.937,2.799,64.022,12.121,73.638,38.167c2.987,8.091,3.68,21.026-9.98,36.703c-14.232,16.215-35.483,23.259-61.491,20.402
	c-18.738-2.06-37.198-9.205-46.42-14.972c-5.638-3.489-10.845-9.192-16.356-15.23C178.807,328.258,168.708,317.195,156.339,317.195z
	"/>
<path d="M58.407,154.185c-0.005,0-0.01,0-0.015,0c-5.518-0.008-9.985-4.453-9.985-9.97l0.003-0.346
	c0.105-5.455,4.563-9.806,9.994-9.806c0.066,0,0.132,0,0.198,0.002c5.506,0.107,9.886,4.644,9.805,10.144
	C68.378,149.71,63.909,154.185,58.407,154.185z"/>
<path d="M66.383,118.55c-1.411,0-2.845-0.3-4.209-0.935c-5.008-2.329-7.181-8.276-4.852-13.284
	c15.75-33.875,49.934-55.861,87.085-56.011c0.014,0,0.027,0,0.041,0c5.504,0,9.977,4.45,9.999,9.96
	c0.022,5.522-4.437,10.018-9.96,10.04c-29.437,0.118-56.532,17.563-69.03,44.443C73.764,116.407,70.154,118.55,66.383,118.55z"/>
<g>
</g>
<g>
</g>
<g>
</g>
<g>
</g>
<g>
</g>
<g>
</g>
<g>
</g>
<g>
</g>
<g>
</g>
<g>
</g>
<g>
</g>
<g>
</g>
<g>
</g>
<g>
</g>
<g>
</g>
</svg>
