<?xml version="1.0" encoding="iso-8859-1"?>
<!-- Generator: Adobe Illustrator 19.0.0, SVG Export Plug-In . SVG Version: 6.00 Build 0)  -->
<svg version="1.1" id="Capa_1" xmlns="http://www.w3.org/2000/svg" xmlns:xlink="http://www.w3.org/1999/xlink" x="0px" y="0px"
	 viewBox="0 0 511.998 511.998" style="enable-background:new 0 0 511.998 511.998;" xml:space="preserve">
<path style="fill:#FF5A5A;" d="M458.135,399.839c0,0-4.109,31.553-32.871,31.553c-20.046,0-34.546-17.743-47.522-37.769
	c50.921-39.388,83.589-100.264,83.589-168.59C461.33,106.273,362.655,10,240.933,10S20.535,106.273,20.535,225.033
	s98.675,215.033,220.398,215.033c19.63,0,38.655-2.517,56.769-7.216c17.949,29.819,39.511,55.638,73.232,65.197
	c57.981,16.436,98.157-21.914,110.484-50.22c9.479-21.766,10.044-47.988,10.044-47.988H458.135z M240.933,395.781
	c-88.228,0-118.131-76.447-118.131-170.748S152.705,54.285,240.933,54.285s118.131,76.447,118.131,170.748
	c0,41.024-5.663,78.664-19.322,108.106c-16.147-23.603-38.204-47.69-72.444-53.777c-61.634-10.957-95.418,18.718-95.418,18.718
	l12.783,27.393c0,0,40.176-17.349,72.134,33.784c6.333,10.133,12.245,21.023,18.129,32.105
	C264.706,394.252,253.403,395.781,240.933,395.781z"/>
<path d="M398.314,511.998c-9.235,0-19.29-1.264-30.107-4.33c-36.605-10.376-59.367-38.304-75.209-63.389
	c-17.02,3.842-34.5,5.786-52.065,5.786c-61.495,0-119.321-23.377-162.828-65.824c-43.572-42.512-67.569-99.053-67.569-159.208
	c0-42.441,12.161-83.782,35.17-119.554c2.987-4.645,9.173-5.991,13.819-3.001c4.646,2.987,5.989,9.175,3.001,13.819
	c-20.928,32.538-31.99,70.139-31.99,108.735c0,113.056,94.384,205.032,210.397,205.032c18.365,0,36.62-2.319,54.259-6.895
	c4.283-1.113,8.794,0.727,11.078,4.522c21.179,35.183,41.333,53.346,67.393,60.732c51.693,14.652,87.285-18.637,98.589-44.592
	c5.087-11.682,7.381-25.044,8.405-33.995h-14.624c-4.569,14.02-16.536,31.553-40.769,31.553c-25.034,0-41.668-20.346-55.915-42.332
	c-2.827-4.363-1.839-10.166,2.274-13.348c50.655-39.181,79.707-97.746,79.707-160.679C451.33,111.978,356.946,20,240.932,20
	c-46.363,0-90.328,14.405-127.143,41.657c-4.438,3.285-10.702,2.352-13.987-2.087c-3.286-4.439-2.352-10.701,2.087-13.987
	C142.174,15.763,190.254,0,240.932,0c61.495,0,119.322,23.377,162.828,65.824c43.572,42.512,67.569,99.054,67.569,159.209
	c0,66.088-29.103,127.758-80.181,170.624c9.891,14.119,20.91,25.734,34.114,25.734c19.753,0,22.833-21.911,22.955-22.844
	c0.648-4.982,4.893-8.709,9.916-8.709h33.328c2.689,0,5.266,1.083,7.146,3.006c1.882,1.922,2.909,4.521,2.852,7.21
	c-0.025,1.151-0.725,28.461-10.874,51.765c-7.951,18.26-23.735,35.648-42.222,46.517
	C436.647,505.225,419.684,511.997,398.314,511.998z M240.932,405.781c-45.034,0-78.925-18.462-100.73-54.873
	c-18.182-30.361-27.4-72.712-27.4-125.875c0-53.164,9.219-95.515,27.4-125.875c21.806-36.412,55.696-54.874,100.73-54.874
	s78.925,18.462,100.73,54.874c18.183,30.361,27.401,72.712,27.401,125.875c0,45.562-6.813,83.35-20.25,112.313
	c-1.513,3.262-4.661,5.46-8.244,5.758c-3.581,0.291-7.05-1.352-9.08-4.319c-13.728-20.064-33.628-43.833-65.942-49.578
	c-42.099-7.482-69.625,5.127-81.085,12.187l5.703,12.223c5.13-0.938,12.036-1.492,20.028-0.321
	c14.898,2.181,36.548,11.005,55.084,40.662c6.816,10.907,13.113,22.606,18.48,32.716c1.418,2.67,1.552,5.837,0.364,8.616
	c-1.187,2.78-3.567,4.874-6.476,5.696C266.391,404.168,254.039,405.781,240.932,405.781z M240.932,64.284
	c-38.041,0-65.378,14.769-83.571,45.149c-16.297,27.212-24.56,66.105-24.56,115.6c0,49.493,8.263,88.387,24.56,115.599
	c18.193,30.381,45.53,45.149,83.571,45.149c6.57,0,12.889-0.463,18.895-1.38c-3.943-7.203-7.655-13.678-11.51-19.845
	c-27.09-43.344-59.365-30.044-59.689-29.903c-4.963,2.146-10.737-0.049-13.025-4.952l-12.783-27.393
	c-1.879-4.026-0.876-8.81,2.462-11.741c1.526-1.341,38.155-32.715,103.768-21.052c31.414,5.585,53.051,24.83,68.013,43.23
	c7.972-23.896,12.003-53.305,12.003-87.713c0-49.493-8.263-88.387-24.56-115.6C306.31,79.053,278.974,64.284,240.932,64.284z
	 M78.266,89.914c-2.446,0-4.896-0.889-6.819-2.688c-4.031-3.773-4.263-10.077-0.49-14.11l0.086-0.091
	c3.773-4.033,10.102-4.245,14.135-0.472s4.244,10.102,0.471,14.135c-0.001,0.001-0.046,0.048-0.047,0.05
	C83.628,88.845,80.949,89.914,78.266,89.914z"/>
<path d="M411.548,178.14c-4.12,0-7.975-2.565-9.427-6.665c-0.016-0.044-0.044-0.124-0.054-0.151
	c-1.824-5.213,0.922-10.918,6.135-12.742c5.215-1.825,10.919,0.923,12.742,6.135c0.013,0.035,0.03,0.082,0.042,0.117
	c1.824,5.213-0.922,10.918-6.135,12.742C413.759,177.958,412.643,178.14,411.548,178.14z"/>
<path d="M405.521,306.872c-1.407,0-2.837-0.298-4.199-0.93c-5.011-2.322-7.189-8.268-4.866-13.278
	c9.869-21.291,14.874-44.045,14.874-67.631c0-5.521-0.286-11.089-0.85-16.552c-0.566-5.493,3.427-10.406,8.921-10.974
	c5.5-0.57,10.407,3.428,10.974,8.921c0.634,6.142,0.955,12.401,0.955,18.604c0,26.512-5.629,52.097-16.729,76.043
	C412.909,304.725,409.296,306.872,405.521,306.872z"/>
<g>
</g>
<g>
</g>
<g>
</g>
<g>
</g>
<g>
</g>
<g>
</g>
<g>
</g>
<g>
</g>
<g>
</g>
<g>
</g>
<g>
</g>
<g>
</g>
<g>
</g>
<g>
</g>
<g>
</g>
</svg>
