<?xml version="1.0" encoding="iso-8859-1"?>
<!-- Generator: Adobe Illustrator 19.0.0, SVG Export Plug-In . SVG Version: 6.00 Build 0)  -->
<svg version="1.1" id="Capa_1" xmlns="http://www.w3.org/2000/svg" xmlns:xlink="http://www.w3.org/1999/xlink" x="0px" y="0px"
	 viewBox="0 0 512 512" style="enable-background:new 0 0 512 512;" xml:space="preserve">
<path style="fill:#059BE6;" d="M446,502H66c-30.928,0-56-25.072-56-56V66c0-30.928,25.072-56,56-56h380c30.928,0,56,25.072,56,56
	v380C502,476.928,476.928,502,446,502z"/>
<path d="M446,512H66c-36.393,0-66-29.607-66-66V66C0,29.607,29.607,0,66,0h380c36.393,0,66,29.607,66,66v380
	C512,482.393,482.393,512,446,512z M66,20c-25.364,0-46,20.636-46,46v380c0,25.364,20.636,46,46,46h380c25.364,0,46-20.636,46-46V66
	c0-25.364-20.636-46-46-46H66z"/>
<path style="fill:#FFFFFF;" d="M366.333,84.167v119.431C346.977,181.401,320.781,167,283.287,167
	c-72.375,0-131.046,62.382-131.046,139.333s58.671,139.333,131.046,139.333c31.52,0,60.439-11.836,83.046-31.55V443H445V67
	L366.333,84.167z M299.083,372c-37.141,0-67.25-30.109-67.25-67.25s30.109-67.25,67.25-67.25s67.25,30.109,67.25,67.25
	S336.224,372,299.083,372z"/>
<path d="M283.287,455.666c-77.773,0-141.047-66.99-141.047-149.333S205.514,157,283.287,157c28.69,0,52.786,7.678,73.046,23.368
	V84.166c0-4.701,3.274-8.768,7.868-9.771l78.667-17.166c2.959-0.646,6.047,0.084,8.404,1.982C453.629,61.111,455,63.974,455,67v151
	c0,5.522-4.478,10-10,10s-10-4.478-10-10V79.417l-58.667,12.802v111.379c0,4.169-2.587,7.901-6.49,9.364
	c-3.904,1.464-8.306,0.352-11.047-2.792C339.333,187.85,314.634,177,283.287,177c-66.745,0-121.047,58.019-121.047,129.333
	s54.302,129.333,121.047,129.333c27.806,0,54.965-10.33,76.474-29.087c2.955-2.575,7.144-3.191,10.712-1.565
	c3.569,1.623,5.86,5.182,5.86,9.103V433H435V304.738c0-5.522,4.478-10,10-10s10,4.478,10,10V443c0,5.522-4.478,10-10,10h-78.667
	c-5.522,0-10-4.478-10-10v-8.918C334.43,448.103,309.111,455.666,283.287,455.666z M299.083,382c-42.596,0-77.25-34.654-77.25-77.25
	s34.654-77.25,77.25-77.25s77.25,34.654,77.25,77.25S341.679,382,299.083,382z M299.083,247.5c-31.567,0-57.25,25.683-57.25,57.25
	S267.516,362,299.083,362s57.25-25.683,57.25-57.25S330.65,247.5,299.083,247.5z"/>
<path d="M58,329.5c-5.522,0-10-4.478-10-10V238c0-5.522,4.478-10,10-10s10,4.478,10,10v81.5C68,325.023,63.522,329.5,58,329.5z"/>
<path d="M58,202.618c-5.522,0-10-4.478-10-10V192.5c0-5.522,4.478-10,10-10s10,4.478,10,10v0.118
	C68,198.141,63.522,202.618,58,202.618z"/>
<path d="M445,272.253c-5.522,0-10-4.478-10-10v-0.254c0-5.522,4.478-10,10-10s10,4.478,10,10v0.254
	C455,267.776,450.522,272.253,445,272.253z"/>
<g>
</g>
<g>
</g>
<g>
</g>
<g>
</g>
<g>
</g>
<g>
</g>
<g>
</g>
<g>
</g>
<g>
</g>
<g>
</g>
<g>
</g>
<g>
</g>
<g>
</g>
<g>
</g>
<g>
</g>
</svg>
