<?xml version="1.0" encoding="iso-8859-1"?>
<!-- Generator: Adobe Illustrator 19.0.0, SVG Export Plug-In . SVG Version: 6.00 Build 0)  -->
<svg version="1.1" id="Capa_1" xmlns="http://www.w3.org/2000/svg" xmlns:xlink="http://www.w3.org/1999/xlink" x="0px" y="0px"
	 viewBox="0 0 512 512" style="enable-background:new 0 0 512 512;" xml:space="preserve">
<path style="fill:#FF5A5A;" d="M474.699,339.737L343.157,64.874C326.959,31.026,293.538,10,255.938,10
	c-37.524,0-70.897,21.026-87.096,54.874L37.301,339.737c-16.907,35.328-14.537,76.204,6.341,109.342S100.367,502,139.533,502
	c20.077,0,39.852-5.354,57.187-15.485c21.058-12.307,40.379-27.391,57.428-44.834l1.853-1.896l1.853,1.896
	c17.049,17.443,36.37,32.527,57.428,44.834C332.615,496.645,352.39,502,372.467,502c39.166,0,75.014-19.783,95.892-52.921
	S491.606,375.065,474.699,339.737z M255.938,231.505c21.981,0,39.864,19.134,39.864,42.653c0,37.374-23.195,73.725-39.868,95.028
	c-17.877-23.016-39.737-59.519-39.737-95.028C216.197,250.638,234.025,231.505,255.938,231.505z M427.746,423.492
	C415.711,442.594,395.045,454,372.467,454c-11.574,0-22.975-3.087-32.968-8.927c-17.351-10.141-33.271-22.569-47.318-36.943
	l-3.253-3.329c20.98-25.507,54.875-75.283,54.875-130.643c0-49.986-39.416-90.653-87.864-90.653
	c-48.381,0-87.741,40.667-87.741,90.653c0,55.36,33.895,105.136,54.875,130.643l-3.253,3.329
	c-14.048,14.374-29.968,26.803-47.318,36.943c-9.993,5.84-21.394,8.927-32.968,8.927c-22.578,0-43.244-11.405-55.279-30.508
	c-12.036-19.104-13.403-42.668-3.656-63.034L212.14,85.594C220.409,68.315,236.782,58,255.938,58
	c19.233,0,35.652,10.315,43.922,27.595l131.542,274.863C441.149,380.824,439.782,404.388,427.746,423.492z"/>
<path d="M372.467,512c-21.849,0-43.368-5.827-62.232-16.852c-19.677-11.5-37.89-25.338-54.234-41.198
	c-16.345,15.86-34.559,29.699-54.234,41.198C182.901,506.173,161.382,512,139.533,512C96.911,512,57.9,490.471,35.18,454.41
	c-22.72-36.062-25.3-80.544-6.9-118.989l58.797-122.859c2.385-4.983,8.354-7.088,13.337-4.704c4.982,2.385,7.088,8.355,4.704,13.337
	L46.321,344.054c-15.416,32.212-13.255,69.48,5.781,99.695C71.138,473.962,103.822,492,139.533,492
	c18.306,0,36.336-4.882,52.141-14.119c20.286-11.855,38.899-26.387,55.322-43.19l1.851-1.894c1.882-1.927,4.461-3.013,7.153-3.013
	c2.692,0,5.271,1.086,7.153,3.013l1.853,1.896c16.421,16.801,35.034,31.332,55.32,43.188C336.131,487.118,354.161,492,372.467,492
	c35.711,0,68.396-18.038,87.431-48.251c19.036-30.215,21.197-67.483,5.781-99.695L334.137,69.19
	C319.616,38.849,289.652,20,255.938,20c-33.638,0-63.555,18.849-78.075,49.19l-34.024,71.052c-2.386,4.981-8.358,7.084-13.339,4.7
	c-4.98-2.386-7.085-8.357-4.7-13.339l34.023-71.049C177.698,23.204,214.527,0,255.938,0c41.486,0,78.363,23.204,96.239,60.558
	L483.72,335.421c18.399,38.445,15.819,82.928-6.9,118.989C454.1,490.471,415.089,512,372.467,512z M372.467,464
	c-13.346,0-26.49-3.56-38.014-10.293c-18.124-10.593-34.753-23.575-49.424-38.588l-3.254-3.33
	c-3.566-3.649-3.813-9.399-0.571-13.341c19.645-23.883,52.599-71.788,52.599-124.29c0-44.473-34.93-80.653-77.864-80.653
	c-42.866,0-77.741,36.181-77.741,80.653c0,52.502,32.954,100.407,52.599,124.29c3.241,3.941,2.995,9.691-0.571,13.341l-3.253,3.329
	c-14.672,15.014-31.301,27.996-49.425,38.589C166.023,460.44,152.879,464,139.533,464c-26.034,0-49.862-13.15-63.74-35.178
	c-13.879-22.027-15.454-49.198-4.216-72.682L203.119,81.278C213.092,60.44,232.837,48,255.938,48
	c23.179,0,42.97,12.44,52.942,33.277l131.542,274.864c5.09,10.636,7.653,22.429,7.413,34.104c-0.114,5.522-4.701,9.89-10.204,9.792
	c-5.521-0.114-9.905-4.683-9.792-10.204c0.177-8.564-1.711-17.229-5.458-25.059L290.84,89.911C284.273,76.191,271.227,68,255.938,68
	c-15.211,0-28.212,8.191-34.778,21.912L89.618,364.774c-8.256,17.249-7.098,37.207,3.097,53.387
	C102.908,434.341,120.41,444,139.533,444c9.803,0,19.458-2.614,27.922-7.561c15.378-8.987,29.577-19.854,42.264-32.34
	c-21.454-27.692-51.521-76.114-51.521-129.941c0-55.5,43.847-100.653,97.741-100.653c53.963,0,97.864,45.153,97.864,100.653
	c0,53.827-30.067,102.249-51.521,129.941c12.687,12.485,26.886,23.353,42.264,32.34c8.464,4.946,18.119,7.561,27.922,7.561
	c7.961,0,15.63-1.636,22.793-4.862c5.034-2.266,10.956-0.025,13.225,5.012c2.268,5.035,0.024,10.956-5.012,13.225
	C393.711,461.771,383.279,464,372.467,464z M427.399,434.022c-1.855,0-3.731-0.516-5.407-1.596c-4.643-2.991-5.98-9.18-2.988-13.822
	l0.28-0.441c2.944-4.674,9.117-6.074,13.791-3.133c4.674,2.943,6.076,9.118,3.133,13.791l-0.394,0.617
	C433.903,432.405,430.685,434.022,427.399,434.022z M255.935,379.187c-0.006,0-0.012,0-0.019,0
	c-3.082-0.006-5.988-1.432-7.879-3.866c-15.626-20.118-41.84-60.013-41.84-101.162c0-29.033,22.313-52.653,49.741-52.653
	c27.495,0,49.864,23.62,49.864,52.653c0,39.29-22.836,76.715-41.993,101.191C261.914,377.771,259.009,379.187,255.935,379.187z
	 M255.938,241.505c-16.399,0-29.741,14.648-29.741,32.653c0,29.517,17.214,59.903,29.784,78.153
	c13.585-19.46,29.821-48.853,29.821-78.153C285.803,256.153,272.405,241.505,255.938,241.505z M116.418,184.439
	c-5.522,0-10.005-4.478-10.005-10s4.473-10,9.995-10h0.01c5.523,0,10,4.478,10,10S121.941,184.439,116.418,184.439z"/>
<g>
</g>
<g>
</g>
<g>
</g>
<g>
</g>
<g>
</g>
<g>
</g>
<g>
</g>
<g>
</g>
<g>
</g>
<g>
</g>
<g>
</g>
<g>
</g>
<g>
</g>
<g>
</g>
<g>
</g>
</svg>
