<?xml version="1.0" encoding="iso-8859-1"?>
<!-- Generator: Adobe Illustrator 19.0.0, SVG Export Plug-In . SVG Version: 6.00 Build 0)  -->
<svg version="1.1" id="Capa_1" xmlns="http://www.w3.org/2000/svg" xmlns:xlink="http://www.w3.org/1999/xlink" x="0px" y="0px"
	 viewBox="0 0 512.001 512.001" style="enable-background:new 0 0 512.001 512.001;" xml:space="preserve">
<g>
	<polygon style="fill:#6E6E6E;" points="163.001,10 113.001,293 359.001,10 	"/>
	<polygon style="fill:#6E6E6E;" points="264.334,200.957 156.001,317 227.001,317 160.001,502 399.001,200.957 	"/>
</g>
<path d="M140.06,149.815c-2.63,0-5.21-1.07-7.069-2.931c-1.86-1.859-2.931-4.439-2.931-7.069s1.07-5.21,2.931-7.07
	c1.859-1.86,4.439-2.93,7.069-2.93c2.641,0,5.21,1.069,7.08,2.93c1.86,1.86,2.92,4.44,2.92,7.07s-1.06,5.21-2.92,7.069
	C145.27,148.745,142.69,149.815,140.06,149.815z"/>
<path d="M112.997,303.001c-1.455,0-2.925-0.318-4.303-0.976c-4.056-1.936-6.323-6.34-5.541-10.766l18.802-106.419
	c0.961-5.438,6.139-9.067,11.588-8.107c5.438,0.961,9.068,6.148,8.107,11.588l-12.524,70.885L337.059,20h-165.67l-13.976,79.103
	c-0.962,5.437-6.144,9.062-11.588,8.107c-5.438-0.961-9.068-6.149-8.107-11.588L153.153,8.26c0.845-4.777,4.996-8.26,9.848-8.26h196
	c3.918,0,7.475,2.288,9.1,5.853s1.018,7.751-1.553,10.708l-246,283C118.601,301.8,115.826,303,112.997,303.001z"/>
<path d="M159.995,512.001c-1.659,0-3.335-0.413-4.869-1.27c-4.279-2.39-6.196-7.528-4.527-12.137L212.744,327h-56.743
	c-3.982,0-7.585-2.362-9.172-6.015s-0.855-7.898,1.862-10.81l108.333-116.043c1.891-2.025,4.538-3.176,7.31-3.176h134.667
	c3.837,0,7.336,2.196,9.005,5.651s1.213,7.562-1.173,10.566L331.154,302.5c-3.433,4.325-9.725,5.048-14.05,1.614
	s-5.048-9.725-1.614-14.05l62.804-79.107H268.679L179.017,307h47.984c3.26,0,6.315,1.589,8.187,4.258s2.326,6.082,1.216,9.147
	l-46.135,127.387l73.943-93.139c3.434-4.325,9.724-5.049,14.05-1.614c4.325,3.434,5.048,9.725,1.614,14.05L167.833,508.218
	C165.878,510.68,162.964,512.001,159.995,512.001z"/>
<path d="M298.221,337.905c-2.64,0-5.21-1.07-7.08-2.93c-1.859-1.87-2.92-4.44-2.92-7.07s1.061-5.21,2.92-7.07
	c1.87-1.859,4.44-2.93,7.08-2.93c2.63,0,5.21,1.07,7.07,2.93c1.859,1.86,2.93,4.44,2.93,7.07s-1.07,5.2-2.93,7.07
	C303.431,336.835,300.85,337.905,298.221,337.905z"/>
<g>
</g>
<g>
</g>
<g>
</g>
<g>
</g>
<g>
</g>
<g>
</g>
<g>
</g>
<g>
</g>
<g>
</g>
<g>
</g>
<g>
</g>
<g>
</g>
<g>
</g>
<g>
</g>
<g>
</g>
</svg>
