<?xml version="1.0" encoding="iso-8859-1"?>
<!-- Generator: Adobe Illustrator 19.0.0, SVG Export Plug-In . SVG Version: 6.00 Build 0)  -->
<svg version="1.1" id="Capa_1" xmlns="http://www.w3.org/2000/svg" xmlns:xlink="http://www.w3.org/1999/xlink" x="0px" y="0px"
	 viewBox="0 0 512 512" style="enable-background:new 0 0 512 512;" xml:space="preserve">
<path style="fill:#FF5A5A;" d="M453.081,242.84c0-23.608-15.787-43.516-37.375-49.779c0.137-2.073,0.213-4.163,0.213-6.27
	c0-51.884-42.061-93.945-93.945-93.945c-11.425,0-22.372,2.042-32.5,5.776c-16.851-11.627-37.278-18.442-59.3-18.442
	c-45.351,0-83.953,28.879-98.432,69.248c-34.948,4.003-62.095,33.667-62.095,69.687c0,14.02,4.129,27.069,11.213,38.028
	c-15.239,14.06-24.791,34.192-24.791,56.561c0,38.542,28.336,70.464,65.312,76.075c0.922,44.208,37.022,79.768,81.451,79.768
	c19.123,0,36.693-6.604,50.595-17.632c10.95,9.824,25.419,15.806,41.288,15.806c28.465,0,52.424-19.234,59.63-45.409
	c1.596,0.084,3.203,0.13,4.82,0.13c49.919,0,90.387-40.468,90.387-90.387c0-18.333-5.474-35.38-14.854-49.627
	C445.936,272.917,453.081,258.716,453.081,242.84z"/>
<path style="fill:#FFFFFF;" d="M184.117,340.883c-7.627,18.078-17.53,29.494-42.669,20.172
	c-25.139-9.321-25.422-28.529-19.49-47.454s28.058-90.671,35.967-110.632s27.87-36.532,46.795-32.578
	c18.925,3.955,29.941,15.536,38.415,13.558c8.474-1.977,19.49-20.055,37.285-19.773s19.349,14.829,28.247,15.536
	s16.665-12.993,41.805-4.519c25.139,8.474,23.727,35.308,16.101,53.668s-27.682,64.967-32.766,77.678
	c-5.084,12.711-6.591,30.412,4.143,34.649s24.48,3.107,31.071,7.721c4.882,3.417,11.299,20.432-5.555,24.575
	c-18.238,4.483-54.516,1.949-69.204-24.575c-11.864-20.62-0.565-41.24,3.107-48.867s28.23-58.76,31.354-66.662
	c4.802-12.146-15.219-22.832-22.845-8.991c-9.879,17.929-48.179,96.501-52.684,104.666c-4.851,8.792-11.261,13.433-22.486,10.814
	c-7.918-1.847-12.132-12.208-8.474-23.727c3.383-10.65,25.591-64.801,29.006-73.83c4.808-12.711-17.674-24.389-25.64-5.62
	C218.714,252.917,186.484,335.271,184.117,340.883z"/>
<path d="M347.138,385.292c-21.65,0-48.355-7.654-61.585-31.468c-13.84-24.142-2.181-47.935,2.21-56.897l0.595-1.222
	c7.207-14.967,28.378-59.209,31.063-65.997c-0.27-0.475-1.394-1.435-2.827-1.56c-0.711-0.07-1.369,0.002-2.157,1.43
	c-4.332,7.861-14.553,28.717-24.438,48.886c-17.281,35.26-25.758,52.349-28.827,56.71c-3.945,5.604-14.424,20.489-33.586,14.198
	c-6.448-2.118-11.578-6.591-14.447-12.594c-3.386-7.085-3.479-15.67-0.261-24.174c2.072-5.476,8.857-22.648,15.418-39.257
	c6.153-15.573,11.965-30.283,13.587-34.572c-0.091-0.489-1.372-1.74-3.048-1.891c-0.585-0.051-2.367-0.21-4.033,3.717
	c-4.358,10.268-19.063,47.53-29.801,74.738c-6.882,17.438-10.817,27.402-11.672,29.431c-10.753,25.488-29.25,34.168-54.978,25.794
	c-15.159-4.934-38.685-19.284-25.938-59.954c0.744-2.373,2.042-6.534,3.548-11.362c1.642-5.263,3.53-11.315,5.216-16.707
	c1.648-5.271,7.259-8.206,12.529-6.559c5.271,1.648,8.208,7.258,6.559,12.529c-1.685,5.387-3.571,11.435-5.212,16.692
	c-1.509,4.838-2.81,9.009-3.556,11.388c-7.676,24.49,1.732,31.273,13.043,34.955c15.923,5.181,23.584,1.511,30.36-14.55
	c0.807-1.912,5.76-14.465,11.496-28.999c10.777-27.309,25.537-64.709,29.995-75.211c6.635-15.635,20.736-18.313,31.032-14.182
	c11.428,4.584,17.211,16.552,13.166,27.246c-1.674,4.426-7.512,19.202-13.692,34.846c-6.536,16.541-13.293,33.646-15.313,38.985
	c-1.231,3.253-1.381,6.42-0.4,8.472c0.529,1.106,1.344,1.79,2.643,2.216c3.438,1.13,5.342,1.317,10.989-6.707
	c2.6-3.76,16.832-32.798,27.224-54.001c10.448-21.318,20.316-41.455,24.88-49.736c5.934-10.77,18.364-14.761,29.56-9.488
	c10.779,5.075,15.633,16.271,11.542,26.62c-3.508,8.871-30.497,64.941-31.644,67.323c-0.198,0.413-0.418,0.862-0.655,1.346
	c-3.698,7.547-11.392,23.251-2.793,38.195c0.027,0.048,0.054,0.095,0.08,0.143c12.392,22.378,45.066,22.904,58.069,19.709
	c1.409-0.347,2.996-0.98,3.219-1.721c0.434-1.437-0.542-4.1-1.308-5.132c-1.898-1.028-6.956-1.764-10.705-2.309
	c-5.614-0.816-11.976-1.741-18.008-4.122c-5.368-2.119-9.48-6.192-11.89-11.781c-4.674-10.837-1.962-25.641,2.134-35.883
	c2.946-7.365,10.781-25.792,18.357-43.613c5.764-13.556,11.208-26.36,14.459-34.188c3.632-8.745,6.071-21.271,2.021-30.195
	c-2.195-4.837-6.146-8.16-12.081-10.16c-13.031-4.394-19.237-1.45-25.24,1.395c-4.017,1.902-8.571,4.064-14.162,3.617
	c-7.491-0.595-12.016-5.445-15.32-8.986c-3.606-3.866-5.989-6.42-12.294-6.52c-7.524-0.162-13.929,5.249-20.119,10.443
	c-4.781,4.011-9.297,7.8-14.737,9.068c-7.902,1.843-15.028-1.783-22.573-5.624c-5.738-2.92-12.242-6.229-20.159-7.883
	c-13.793-2.881-29.466,11.36-35.453,26.472c-1.081,2.729-1.986,5.176-3.026,8.181c-1.807,5.219-7.5,7.987-12.721,6.18
	c-5.219-1.807-7.986-7.502-6.18-12.721c1.141-3.296,2.137-5.989,3.332-9.006c9.145-23.077,33.395-43.861,58.138-38.683
	c10.523,2.198,18.627,6.322,25.138,9.636c3.128,1.592,7.365,3.748,9.013,3.924c1.337-0.643,4.229-3.067,6.372-4.866
	c7.726-6.48,18.303-15.332,33.291-15.119c14.81,0.235,22.191,8.146,26.601,12.874c0.813,0.872,1.87,2.005,2.545,2.575
	c0.913-0.293,2.518-1.054,3.747-1.636c7.297-3.459,19.51-9.249,40.193-2.273c11.156,3.76,19.422,10.969,23.905,20.848
	c8.199,18.067,1.498,38.28-1.764,46.132c-3.283,7.904-8.743,20.746-14.523,34.342c-7.535,17.723-15.327,36.05-18.193,43.215
	c-3.071,7.678-4.077,16.506-2.339,20.534c0.393,0.911,0.691,1.028,0.869,1.099c3.869,1.527,8.786,2.242,13.542,2.934
	c7.249,1.054,14.096,2.049,19.593,5.896c5.907,4.135,11.123,14.797,9.25,24.813c-1.645,8.795-8.261,15.234-18.152,17.666
	C360.551,384.498,354.105,385.291,347.138,385.292z"/>
<path d="M142.61,257.888c-1.001,0-2.02-0.151-3.025-0.471c-5.265-1.669-8.179-7.29-6.51-12.555l0.202-0.633
	c1.688-5.259,7.321-8.152,12.579-6.465c5.258,1.688,8.152,7.32,6.464,12.578l-0.181,0.564
	C150.79,255.167,146.853,257.888,142.61,257.888z"/>
<g>
	<circle style="fill:#FF5A5A;" cx="28.23" cy="247.83" r="18.229"/>
	<circle style="fill:#FF5A5A;" cx="300.53" cy="39.577" r="20"/>
	<circle style="fill:#FF5A5A;" cx="397.4" cy="472.42" r="20"/>
	<circle style="fill:#FF5A5A;" cx="466.1" cy="160.19" r="20"/>
</g>
<path d="M202.831,479.545c-24.1,0-46.844-9.293-64.043-26.168c-15.231-14.942-24.61-34.346-26.884-55.312
	c-17.225-4.308-32.84-13.863-44.6-27.425c-13.693-15.792-21.235-36.013-21.235-56.938c0-21.49,8.058-42.274,22.336-58.162
	c-5.749-11.241-8.758-23.687-8.758-36.426c0-38.686,27.484-71.491,64.87-78.688C142.248,98.17,183.968,70.18,230.174,70.18
	c21.633,0,42.514,6.001,60.708,17.4c10.032-3.145,20.468-4.735,31.093-4.735c57.099,0,103.592,46.28,103.943,103.298
	c22.222,9.707,37.164,32.008,37.164,56.696c0,15.33-5.657,29.944-15.75,41.217c8.016,14.686,12.219,31.119,12.219,47.997
	c0,2.481-0.092,4.99-0.273,7.455c-0.404,5.508-5.191,9.628-10.706,9.241c-5.508-0.405-9.645-5.198-9.24-10.706
	c0.146-1.98,0.219-3.995,0.219-5.99c0-15.746-4.567-31.005-13.207-44.128c-2.782-4.227-1.969-9.865,1.894-13.134
	c9.434-7.98,14.844-19.627,14.844-31.952c0-18.502-12.403-35.022-30.161-40.174c-4.509-1.309-7.501-5.577-7.192-10.263
	c0.127-1.929,0.192-3.817,0.192-5.612c0-46.287-37.658-83.945-83.945-83.945c-9.986,0-19.756,1.735-29.041,5.159
	c-3.053,1.126-6.462,0.694-9.139-1.152c-15.808-10.906-34.35-16.672-53.621-16.672c-39.81,0-75.584,25.167-89.02,62.624
	c-1.285,3.583-4.493,6.126-8.275,6.559c-30.348,3.477-53.233,29.164-53.233,59.752c0,11.6,3.323,22.872,9.61,32.599
	c2.641,4.086,1.959,9.479-1.617,12.778c-13.709,12.649-21.572,30.587-21.572,49.211c0,32.819,24.424,61.274,56.812,66.188
	c4.81,0.729,8.396,4.814,8.498,9.678c0.805,38.585,32.859,69.977,71.453,69.977c16.279,0,31.625-5.349,44.38-15.467
	c3.817-3.028,9.264-2.864,12.893,0.391c9.523,8.544,21.815,13.25,34.609,13.25c23.263,0,43.819-15.652,49.989-38.063
	c1.246-4.525,5.481-7.58,10.16-7.332c1.486,0.077,2.933,0.116,4.301,0.116c16.557,0,32.453-4.99,45.97-14.432
	c4.526-3.163,10.761-2.056,13.924,2.472c3.163,4.528,2.056,10.762-2.472,13.925c-16.258,11.355-35.264,17.56-55.1,18.009
	c-10.751,27.026-37.182,45.306-66.773,45.306c-14.987,0-29.478-4.66-41.574-13.252C238.208,474.357,220.973,479.545,202.831,479.545
	z M437.473,387.207c-1.705,0-3.432-0.437-5.012-1.354c-4.776-2.772-6.399-8.893-3.626-13.669l0.117-0.202
	c2.734-4.799,8.841-6.474,13.639-3.737c4.798,2.734,6.472,8.842,3.737,13.64l-0.197,0.343
	C444.274,385.421,440.92,387.207,437.473,387.207z"/>
<path d="M502,233.168h-0.134c-5.523,0-10-4.478-10-10s4.477-10,10-10H502c5.523,0,10,4.478,10,10S507.523,233.168,502,233.168z"/>
<path d="M157.794,40.156h-0.134c-5.523,0-10-4.478-10-10s4.477-10,10-10h0.134c5.523,0,10,4.478,10,10
	S163.317,40.156,157.794,40.156z"/>
<path d="M91.915,424.037h-0.134c-5.523,0-10-4.478-10-10s4.477-10,10-10h0.134c5.523,0,10,4.478,10,10
	S97.438,424.037,91.915,424.037z"/>
<path d="M251.218,499.633h-0.134c-5.523,0-10-4.478-10-10s4.477-10,10-10h0.134c5.523,0,10,4.478,10,10
	S256.741,499.633,251.218,499.633z"/>
<path d="M479.102,298.021h-0.134c-5.523,0-10-4.478-10-10s4.477-10,10-10h0.134c5.523,0,10,4.478,10,10
	S484.625,298.021,479.102,298.021z"/>
<path d="M112.525,124.641h-0.134c-5.523,0-10-4.478-10-10s4.477-10,10-10h0.134c5.523,0,10,4.478,10,10
	S118.048,124.641,112.525,124.641z"/>
<path d="M28.229,276.061C12.664,276.061,0,263.397,0,247.832s12.664-28.229,28.229-28.229s28.229,12.663,28.229,28.229
	S43.794,276.061,28.229,276.061z M28.229,239.603c-4.538,0-8.229,3.691-8.229,8.229c0,4.538,3.691,8.229,8.229,8.229
	s8.229-3.691,8.229-8.229C36.458,243.294,32.767,239.603,28.229,239.603z"/>
<path d="M300.53,69.578c-16.542,0-30-13.458-30-30s13.458-30,30-30s30,13.458,30,30S317.072,69.578,300.53,69.578z M300.53,29.578
	c-5.514,0-10,4.486-10,10s4.486,10,10,10s10-4.486,10-10S306.044,29.578,300.53,29.578z"/>
<path d="M397.397,502.422c-16.542,0-30-13.458-30-30s13.458-30,30-30s30,13.458,30,30S413.939,502.422,397.397,502.422z
	 M397.397,462.422c-5.514,0-10,4.486-10,10s4.486,10,10,10s10-4.486,10-10S402.911,462.422,397.397,462.422z"/>
<path d="M466.1,190.193c-16.542,0-30-13.458-30-30s13.458-30,30-30s30,13.458,30,30S482.642,190.193,466.1,190.193z M466.1,150.193
	c-5.514,0-10,4.486-10,10s4.486,10,10,10s10-4.486,10-10S471.614,150.193,466.1,150.193z"/>
<g>
</g>
<g>
</g>
<g>
</g>
<g>
</g>
<g>
</g>
<g>
</g>
<g>
</g>
<g>
</g>
<g>
</g>
<g>
</g>
<g>
</g>
<g>
</g>
<g>
</g>
<g>
</g>
<g>
</g>
</svg>
