<?xml version="1.0" encoding="iso-8859-1"?>
<!-- Generator: Adobe Illustrator 19.0.0, SVG Export Plug-In . SVG Version: 6.00 Build 0)  -->
<svg version="1.1" id="Capa_1" xmlns="http://www.w3.org/2000/svg" xmlns:xlink="http://www.w3.org/1999/xlink" x="0px" y="0px"
	 viewBox="0 0 512 512" style="enable-background:new 0 0 512 512;" xml:space="preserve">
<circle style="fill:#6E6E6E;" cx="256" cy="256" r="246"/>
<polygon style="fill:#FFFFFF;" points="409.553,246.413 385.244,171.597 294.333,201.135 294.333,107 215.667,107 215.667,202.588 
	126.138,173.499 101.829,248.315 192.739,277.854 137.408,354.011 201.05,400.251 257.236,322.918 312.568,399.075 376.21,352.836 
	320.025,275.503 "/>
<path d="M201.042,410.252c-2.038,0-4.095-0.621-5.87-1.911l-63.643-46.239c-4.468-3.246-5.458-9.5-2.212-13.968l47.242-65.022
	l-77.82-25.285c-2.522-0.819-4.616-2.607-5.82-4.971s-1.42-5.107-0.601-7.63l24.309-74.816c0.82-2.522,2.608-4.616,4.971-5.82
	c2.363-1.203,5.107-1.42,7.63-0.601l76.438,24.837V107c0-5.522,4.477-10,10-10h78.667c5.523,0,10,4.478,10,10v80.372l77.82-25.286
	c2.523-0.818,5.268-0.602,7.63,0.601c2.363,1.204,4.151,3.298,4.971,5.82l24.31,74.816c0.819,2.522,0.604,5.267-0.601,7.63
	s-3.297,4.151-5.82,4.971l-76.439,24.836l48.096,66.198c1.559,2.146,2.202,4.822,1.787,7.442c-0.415,2.619-1.854,4.967-3.999,6.525
	l-63.643,46.239c-2.146,1.559-4.821,2.202-7.442,1.787c-2.62-0.415-4.967-1.854-6.526-3.999l-47.241-65.022l-48.096,66.198
	C207.184,408.822,204.134,410.252,201.042,410.252z M151.375,351.8l47.462,34.483l50.308-69.243c1.882-2.59,4.889-4.122,8.09-4.122
	s6.208,1.532,8.09,4.122l49.454,68.067l47.462-34.483l-50.308-69.243c-1.881-2.59-2.41-5.924-1.42-8.968
	c0.989-3.045,3.376-5.432,6.42-6.421l80.019-25.999l-18.129-55.796l-81.399,26.449c-3.045,0.987-6.378,0.462-8.968-1.421
	c-2.589-1.881-4.122-4.889-4.122-8.09V117h-58.667v85.589c0,3.201-1.533,6.209-4.122,8.09s-5.923,2.409-8.968,1.421l-80.018-26
	l-18.129,55.795l81.4,26.448c3.044,0.989,5.431,3.376,6.42,6.421c0.989,3.044,0.461,6.378-1.42,8.968L151.375,351.8z"/>
<path d="M430.284,439.612c-2.623,0-5.241-1.025-7.204-3.063c-3.794-3.94-3.713-10.188,0.153-14.028
	c0.051-0.052,0.106-0.106,0.152-0.15c3.978-3.831,10.308-3.712,14.14,0.267c3.794,3.94,3.713,10.188-0.153,14.028
	c-0.051,0.052-0.106,0.106-0.152,0.15C435.28,438.684,432.78,439.612,430.284,439.612z"/>
<path d="M256,512c-68.38,0-132.667-26.629-181.019-74.98C26.628,388.667,0,324.38,0,256S26.628,123.333,74.981,74.98
	C123.333,26.629,187.62,0,256,0s132.667,26.629,181.019,74.98C485.372,123.333,512,187.62,512,256
	c0,52.269-15.651,102.541-45.26,145.383c-3.14,4.544-9.37,5.682-13.912,2.541c-4.543-3.141-5.681-9.369-2.541-13.912
	C477.576,350.527,492,304.187,492,256c0-130.131-105.869-236-236-236S20,125.869,20,256s105.869,236,236,236
	c46.29,0,91.102-13.393,129.59-38.73c4.614-3.037,10.814-1.759,13.851,2.854c3.037,4.613,1.759,10.814-2.854,13.852
	C354.824,497.468,306.21,512,256,512z"/>
<path d="M192.16,74.03c-4.186,0-8.104-2.628-9.507-6.803c-1.757-5.226,1.003-10.873,6.225-12.643c0.016-0.006,0.12-0.04,0.136-0.046
	c5.239-1.744,10.902,1.086,12.649,6.325s-1.085,10.902-6.325,12.649C194.286,73.864,193.214,74.03,192.16,74.03z"/>
<path d="M90.451,149.775c-1.988,0-3.995-0.591-5.745-1.821c-4.517-3.178-5.603-9.416-2.426-13.933
	c18.448-26.229,43.001-48.291,71.004-63.804c4.83-2.677,10.917-0.931,13.593,3.901c2.676,4.831,0.929,10.917-3.902,13.593
	c-25.372,14.056-47.619,34.048-64.337,57.815C96.692,148.296,93.596,149.775,90.451,149.775z"/>
<g>
</g>
<g>
</g>
<g>
</g>
<g>
</g>
<g>
</g>
<g>
</g>
<g>
</g>
<g>
</g>
<g>
</g>
<g>
</g>
<g>
</g>
<g>
</g>
<g>
</g>
<g>
</g>
<g>
</g>
</svg>
