<?xml version="1.0" encoding="iso-8859-1"?>
<!-- Generator: Adobe Illustrator 19.0.0, SVG Export Plug-In . SVG Version: 6.00 Build 0)  -->
<svg version="1.1" id="Capa_1" xmlns="http://www.w3.org/2000/svg" xmlns:xlink="http://www.w3.org/1999/xlink" x="0px" y="0px"
	 viewBox="0 0 512 512" style="enable-background:new 0 0 512 512;" xml:space="preserve">
<circle style="fill:#DC4B4B;" cx="256" cy="256" r="246"/>
<path style="fill:#FFFFFF;" d="M273.958,415h-14.666C184.141,415,123,353.859,123,278.708V118.333c0-13.255,10.745-24,24-24
	s24,10.745,24,24v160.375C171,327.392,210.607,367,259.292,367h14.666c48.685,0,88.292-39.607,88.292-88.292
	c0-43.284-35.215-78.499-78.499-78.499h-24.906c-13.255,0-24-10.745-24-24s10.745-24,24-24h24.906
	c69.752,0,126.499,56.747,126.499,126.499C410.25,353.859,349.109,415,273.958,415z"/>
<path d="M256,512c-68.38,0-132.667-26.629-181.019-74.98C26.628,388.667,0,324.38,0,256S26.628,123.333,74.981,74.98
	C123.333,26.629,187.62,0,256,0s132.667,26.629,181.019,74.98C485.372,123.333,512,187.62,512,256s-26.628,132.667-74.981,181.02
	C388.667,485.371,324.38,512,256,512z M256,20C125.869,20,20,125.869,20,256s105.869,236,236,236s236-105.869,236-236
	S386.131,20,256,20z"/>
<path d="M273.958,425h-14.666C178.626,425,113,359.374,113,278.708v-32.042c0-5.522,4.477-10,10-10c5.523,0,10,4.478,10,10v32.042
	C133,348.346,189.654,405,259.292,405h14.666c69.638,0,126.292-56.654,126.292-126.292c0-64.237-52.261-116.499-116.499-116.499
	h-24.906c-7.72,0-14,6.28-14,14s6.28,14,14,14h24.906c48.798,0,88.499,39.7,88.499,88.499c0,54.198-44.094,98.292-98.292,98.292
	h-14.666C205.094,377,161,332.906,161,278.708V118.333c0-7.72-6.28-14-14-14s-14,6.28-14,14v50.334c0,5.522-4.477,10-10,10
	s-10-4.478-10-10v-50.334c0-18.748,15.252-34,34-34s34,15.252,34,34v160.375c0,43.17,35.122,78.292,78.292,78.292h14.666
	c43.17,0,78.292-35.122,78.292-78.292c0-37.771-30.729-68.499-68.499-68.499h-24.906c-18.748,0-34-15.252-34-34s15.252-34,34-34
	h24.906c75.266,0,136.499,61.233,136.499,136.499C420.25,359.374,354.624,425,273.958,425z"/>
<path d="M123,219.005c-2.63,0-5.21-1.069-7.07-2.939c-1.86-1.851-2.93-4.431-2.93-7.07c0-2.63,1.07-5.21,2.93-7.07
	c1.86-1.859,4.44-2.93,7.07-2.93s5.21,1.07,7.07,2.93c1.86,1.87,2.93,4.44,2.93,7.07s-1.07,5.21-2.93,7.07
	C128.21,217.936,125.63,219.005,123,219.005z"/>
<path d="M427.72,159.556c-3.343,0-6.609-1.675-8.503-4.724c-15.796-25.427-37.64-47.122-63.171-62.741
	c-4.711-2.882-6.194-9.038-3.312-13.749c2.883-4.71,9.038-6.191,13.749-3.312c28.178,17.239,52.288,41.185,69.722,69.247
	c2.915,4.691,1.474,10.857-3.217,13.771C431.346,159.069,429.521,159.556,427.72,159.556z M324.097,75.769
	c-1.122,0-2.262-0.19-3.378-0.591l-0.457-0.163c-5.198-1.866-7.899-7.593-6.034-12.791c1.866-5.197,7.593-7.897,12.791-6.033
	l0.458,0.163c5.198,1.866,7.899,7.593,6.033,12.791C332.044,73.226,328.198,75.769,324.097,75.769z"/>
<g>
</g>
<g>
</g>
<g>
</g>
<g>
</g>
<g>
</g>
<g>
</g>
<g>
</g>
<g>
</g>
<g>
</g>
<g>
</g>
<g>
</g>
<g>
</g>
<g>
</g>
<g>
</g>
<g>
</g>
</svg>
