<?xml version="1.0" encoding="iso-8859-1"?>
<!-- Generator: Adobe Illustrator 19.0.0, SVG Export Plug-In . SVG Version: 6.00 Build 0)  -->
<svg version="1.1" id="Capa_1" xmlns="http://www.w3.org/2000/svg" xmlns:xlink="http://www.w3.org/1999/xlink" x="0px" y="0px"
	 viewBox="0 0 512 512" style="enable-background:new 0 0 512 512;" xml:space="preserve">
<path style="fill:#6E87F5;" d="M420,502H92c-45.287,0-82-36.713-82-82V92c0-45.287,36.713-82,82-82h328c45.287,0,82,36.713,82,82
	v328C502,465.287,465.287,502,420,502z"/>
<g>
	<path style="fill:#FFFFFF;" d="M354.5,239.5H300l-61.667,163.75h51.25l8.5-27.75h57.083l8.333,27.75h53.167L354.5,239.5z
		 M309.125,340.125l17.812-57.875l17.813,57.875H309.125z"/>
	<path style="fill:#FFFFFF;" d="M502,92v78H10V92c0-45.287,36.713-82,82-82h328C465.287,10,502,46.712,502,92z"/>
</g>
<path style="fill:#F5B955;" d="M140,170V10H92c-45.287,0-82,36.713-82,82v78H140z"/>
<g>
	<polygon style="fill:#6E6E6E;" points="340.067,170 247.651,92.25 340.067,14.333 261.667,14.333 169.25,92.25 261.667,170 	"/>
	<path style="fill:#6E6E6E;" d="M393.651,92.25l76.872-64.811c-7.205-5.647-15.375-10.109-24.227-13.105h-38.629L315.25,92.25
		L407.667,170h78.401L393.651,92.25z"/>
	<path style="fill:#6E6E6E;" d="M502,123.673V92c0-9.575-1.657-18.758-4.673-27.301L464.649,92.25L502,123.673z"/>
	<polygon style="fill:#6E6E6E;" points="191.746,14.333 140,14.333 140,57.96 	"/>
	<polygon style="fill:#6E6E6E;" points="191.746,170 140,126.466 140,170 	"/>
</g>
<polygon style="fill:#FFFFFF;" points="249,275.5 249,239.5 124,239.5 124,403.25 175.25,403.25 175.25,343.5 238.75,343.5 
	238.75,307.5 175,307.5 175,275.5 "/>
<path d="M506.882,61.741c-0.006-0.019-0.014-0.036-0.019-0.055c-5.816-16.617-16.27-31.072-29.806-41.805
	c-0.26-0.225-0.528-0.434-0.805-0.628C460.688,7.191,441.169,0,420,0H92C41.271,0,0,41.271,0,92v328c0,50.729,41.271,92,92,92h328
	c50.729,0,92-41.271,92-92V92C512,81.404,510.193,71.223,506.882,61.741z M492,92v10.192l-11.827-9.95l11.217-9.458
	C491.778,85.805,492,88.876,492,92z M485.313,61.748l-27.11,22.856c-2.255,1.901-3.556,4.701-3.554,7.65
	c0.001,2.95,1.305,5.748,3.563,7.647L492,128.328V160h-2.286l-80.541-67.758l61.212-51.608
	C476.551,46.682,481.628,53.826,485.313,61.748z M453.805,28.453l-66.6,56.151c-2.255,1.901-3.556,4.701-3.554,7.65
	c0.001,2.95,1.305,5.748,3.563,7.647L458.647,160h-47.334l-80.54-67.758l83.339-70.264c0.699-0.59,1.288-1.26,1.783-1.979H420
	C432.212,20,443.718,23.066,453.805,28.453z M343.714,160l-80.541-67.758l83.339-70.264c0.699-0.59,1.288-1.26,1.783-1.979h37.135
	l-76.627,64.604c-2.255,1.901-3.556,4.701-3.554,7.65c0.001,2.95,1.305,5.748,3.562,7.647l71.435,60.1H343.714z M265.313,160
	l-80.54-67.758l83.339-70.264c0.699-0.59,1.288-1.26,1.783-1.979h47.937l-76.627,64.604c-2.255,1.901-3.556,4.701-3.554,7.65
	c0.001,2.95,1.305,5.748,3.563,7.647l71.434,60.1H265.313z M195.394,160L150,121.81V62.609l48.192-40.63
	c0.699-0.59,1.288-1.26,1.783-1.979h39.456l-76.627,64.604c-2.255,1.901-3.556,4.701-3.554,7.65c0.001,2.95,1.305,5.748,3.562,7.647
	L234.246,160H195.394z M169.51,20L150,36.449V20H169.51z M150,147.947L164.326,160H150V147.947z M92,20h38v140H20V92
	C20,52.299,52.299,20,92,20z M420,492H92c-39.701,0-72-32.299-72-72V180h472v240C492,459.701,459.701,492,420,492z"/>
<path d="M84,79c5.523,0,10-4.478,10-10s-4.477-10-10-10h-0.094c-5.523,0-9.953,4.478-9.953,10S78.477,79,84,79z"/>
<path d="M84,137c5.523,0,10-4.478,10-10s-4.477-10-10-10h-0.094c-5.523,0-9.953,4.478-9.953,10S78.477,137,84,137z"/>
<path d="M248.75,343.5v-36c0-5.522-4.477-10-10-10H185v-12h64c5.523,0,10-4.478,10-10v-36c0-5.522-4.477-10-10-10H124
	c-5.523,0-10,4.478-10,10v163.75c0,5.522,4.477,10,10,10h51.25c5.523,0,10-4.478,10-10V353.5h53.5
	C244.273,353.5,248.75,349.022,248.75,343.5z M228.75,333.5h-53.5c-5.523,0-10,4.478-10,10v49.75H134V249.5h105v16h-64
	c-5.523,0-10,4.478-10,10v32c0,5.522,4.477,10,10,10h53.75V333.5z"/>
<path d="M405.922,346.773c-1.96-5.163-7.732-7.76-12.898-5.8c-5.163,1.96-7.76,7.734-5.8,12.897l14.95,39.379h-31.236l-6.194-20.626
	c-1.27-4.229-5.163-7.124-9.578-7.124h-57.083c-4.395,0-8.274,2.869-9.562,7.071l-6.334,20.679h-29.403L306.92,249.5h40.68
	l13.781,36.299c1.96,5.163,7.733,7.76,12.898,5.8c5.163-1.96,7.76-7.734,5.8-12.897l-16.23-42.75
	c-1.475-3.884-5.196-6.451-9.349-6.451H300c-4.164,0-7.891,2.579-9.358,6.476l-61.667,163.75c-1.157,3.072-0.732,6.516,1.135,9.215
	s4.941,4.31,8.223,4.31h51.25c4.395,0,8.274-2.869,9.562-7.071l6.334-20.679h42.25l6.194,20.626c1.27,4.229,5.163,7.124,9.578,7.124
	h53.167c3.287,0,6.364-1.615,8.231-4.32c1.867-2.706,2.285-6.156,1.118-9.229L405.922,346.773z"/>
<path d="M373.75,316.545c0,2.63,1.07,5.2,2.93,7.07c1.86,1.86,4.44,2.93,7.07,2.93s5.21-1.069,7.07-2.93s2.93-4.44,2.93-7.07
	c0-2.64-1.07-5.21-2.93-7.069c-1.86-1.87-4.44-2.931-7.07-2.931s-5.21,1.061-7.07,2.931
	C374.82,311.335,373.75,313.905,373.75,316.545z"/>
<path d="M326.937,272.25c-4.39,0-8.266,2.863-9.558,7.059l-17.813,57.875c-0.934,3.033-0.372,6.329,1.514,8.882
	c1.885,2.553,4.87,4.06,8.044,4.06h35.625c3.174,0,6.159-1.507,8.044-4.06c1.886-2.553,2.447-5.849,1.514-8.882l-17.813-57.875
	C335.204,275.113,331.327,272.25,326.937,272.25z M322.666,330.125l4.272-13.88l4.272,13.88H322.666z"/>
<path d="M54,309.736c-5.523,0-10,4.478-10,10v83.5c0,5.522,4.477,10,10,10s10-4.478,10-10v-83.5
	C64,314.214,59.523,309.736,54,309.736z"/>
<path d="M54,266.236c-5.523,0-10,4.478-10,10v0.118c0,5.522,4.477,10,10,10s10-4.478,10-10v-0.118
	C64,270.714,59.523,266.236,54,266.236z"/>
<g>
</g>
<g>
</g>
<g>
</g>
<g>
</g>
<g>
</g>
<g>
</g>
<g>
</g>
<g>
</g>
<g>
</g>
<g>
</g>
<g>
</g>
<g>
</g>
<g>
</g>
<g>
</g>
<g>
</g>
</svg>
