<?xml version="1.0" encoding="iso-8859-1"?>
<!-- Generator: Adobe Illustrator 19.0.0, SVG Export Plug-In . SVG Version: 6.00 Build 0)  -->
<svg version="1.1" id="Capa_1" xmlns="http://www.w3.org/2000/svg" xmlns:xlink="http://www.w3.org/1999/xlink" x="0px" y="0px"
	 viewBox="0 0 512 512" style="enable-background:new 0 0 512 512;" xml:space="preserve">
<path style="fill:#FF5A5A;" d="M466,292c0-115.98-82.5-231-196.346-282c5.013,89.667-0.321,119.667-30.154,155.5
	c-14.02,16.84-38.25,39.25-68,42.5c-23.167-22-22.584-55.729-24.5-80c-5.333,0-101,59-101,164c0,115.98,94.02,210,210,210
	S466,407.98,466,292z"/>
<path d="M373.468,92.322c-2.588,0-5.174-0.998-7.132-2.989l0,0c-0.007-0.008-0.077-0.078-0.083-0.085
	c-3.869-3.941-3.81-10.273,0.132-14.142c3.942-3.867,10.273-3.809,14.142,0.132l0.078,0.079c3.869,3.941,3.81,10.273-0.132,14.142
	C378.526,91.369,375.996,92.322,373.468,92.322z"/>
<path d="M256,512c-58.764,0-114.011-22.884-155.563-64.437C58.884,406.011,36,350.764,36,292c0-57.988,27.734-101.608,51-127.989
	c13.795-15.643,27.208-26.687,36.031-33.197C140.394,118,145.366,118,147,118c5.218,0,9.559,4.012,9.969,9.213
	c0.219,2.778,0.407,5.679,0.6,8.67c1.358,21.05,2.887,44.727,17.554,61.469c25.569-4.887,46.293-25.759,56.692-38.25
	c27.55-33.091,32.756-60.856,27.854-148.543c-0.195-3.484,1.44-6.818,4.315-8.797c2.874-1.978,6.572-2.315,9.757-0.888
	c26.727,11.972,52.132,27.521,75.51,46.214c4.313,3.449,5.014,9.742,1.565,14.056c-3.45,4.313-9.742,5.015-14.055,1.564
	c-17.655-14.117-36.527-26.33-56.271-36.427c3.329,74.79-2.249,108.314-33.306,145.617c-12.961,15.567-39.887,42.25-74.599,46.042
	c-2.927,0.32-5.84-0.664-7.972-2.689c-21.03-19.971-24.842-48.07-26.502-70.67c-9.968,7.025-24.708,19.141-38.866,35.845
	C79.517,203.702,56,241.953,56,292c0,110.28,89.72,200,200,200s200-89.72,200-200c0-57.792-21.755-118.164-61.259-169.997
	c-3.348-4.393-2.5-10.667,1.892-14.015c4.393-3.348,10.667-2.5,14.015,1.892C452.791,165.176,476,229.854,476,292
	c0,58.764-22.884,114.011-64.437,155.563C370.011,489.117,314.764,512,256,512z"/>
<path d="M168.459,444.398c-1.789,0-3.601-0.479-5.235-1.486c-31.376-19.329-56.475-48.644-70.67-82.546
	c-2.133-5.094,0.268-10.953,5.362-13.086s10.953,0.267,13.086,5.361c12.594,30.077,34.866,56.088,62.711,73.241
	c4.703,2.897,6.166,9.058,3.27,13.76C175.093,442.709,171.815,444.398,168.459,444.398z"/>
<path d="M91.119,329.531c-4.854,0-9.109-3.539-9.871-8.477c-0.852-5.414,2.818-10.514,8.235-11.417
	c5.445-0.907,10.6,2.773,11.508,8.221c0.009,0.053,0.022,0.135,0.03,0.188c0.819,5.462-2.944,10.554-8.406,11.373
	C92.112,329.495,91.612,329.531,91.119,329.531z"/>
<g>
</g>
<g>
</g>
<g>
</g>
<g>
</g>
<g>
</g>
<g>
</g>
<g>
</g>
<g>
</g>
<g>
</g>
<g>
</g>
<g>
</g>
<g>
</g>
<g>
</g>
<g>
</g>
<g>
</g>
</svg>
