<?xml version="1.0" encoding="iso-8859-1"?>
<!-- Generator: Adobe Illustrator 19.0.0, SVG Export Plug-In . SVG Version: 6.00 Build 0)  -->
<svg version="1.1" id="Capa_1" xmlns="http://www.w3.org/2000/svg" xmlns:xlink="http://www.w3.org/1999/xlink" x="0px" y="0px"
	 viewBox="0 0 512 512" style="enable-background:new 0 0 512 512;" xml:space="preserve">
<path style="fill:#6E6E6E;" d="M14.02,338h55c0,0,4.667,47.25,65.25,47.25c29.333,0,55.75-9.917,55.75-35.583
	c0-55.667-162.372-28-174-122.667c-4.25-34.599,11-95.333,112-95.333c107.333,0,108,91.333,108,91.333h-39.21
	c-8.241,0-15.903-4.409-19.887-11.624c-13.565-24.564-28.554-31.71-57.608-31.71c-25.901,0-45.962,13.529-45.962,36.667
	c0,50.667,170.719,16,170.719,125.771c0,57.562-37.988,91.897-115.261,91.897C73.124,434.002,14.02,409,14.02,338"/>
<path style="fill:#4BB9F5;" d="M265.482,405l133,97l-58.5-186.5l158-116.516h-191L241.982,10l-36,108c0,0,66.5,25,66.5,120
	c33.5,0,105,0,105,0l-85,62.5l31,98l-44-34C279.482,364.5,278.315,385,265.482,405z"/>
<path d="M130.331,443.997c-5.499,0-9.971-4.443-9.999-9.949c-0.028-5.522,4.427-10.022,9.949-10.051l1.097-0.008
	c0.035-0.001,0.07-0.001,0.104-0.001c5.476,0,9.941,4.41,9.997,9.897c0.057,5.522-4.374,10.046-9.896,10.102l-1.2,0.01
	C130.365,443.997,130.349,443.997,130.331,443.997z M172.294,439.565c-4.56,0.001-8.678-3.138-9.739-7.77
	c-1.232-5.384,2.133-10.747,7.516-11.98c42.469-9.725,64.002-35.87,64.002-77.711c0-57.433-54.074-70.073-101.783-81.227
	c-35.45-8.288-68.936-16.116-68.936-44.545c0-27.477,23.012-46.666,55.961-46.666c33.531,0,51.518,9.994,66.362,36.875
	c2.2,3.983,6.466,6.458,11.133,6.458h28.136c-3.765-21.861-20.709-71.333-96.926-71.333c-40.047,0-69.001,9.775-86.057,29.055
	c-18.055,20.408-17.217,45.303-16.018,55.06c5.712,46.502,55.537,59.917,99.497,71.753c18.43,4.962,35.836,9.648,49.085,16.501
	c16.915,8.749,25.492,20.737,25.492,35.632c0,15.678-7.618,28.184-22.03,36.164c-11.127,6.162-26.245,9.419-43.72,9.419
	c-35.462,0-54.041-15.051-63.383-27.678c-5.279-7.136-8.229-14.223-9.863-19.572h-36.55c3.935,42.22,32.753,60.757,57.205,68.888
	c5.241,1.743,8.076,7.404,6.334,12.645c-1.743,5.241-7.407,8.073-12.645,6.334C29.358,420.566,4.02,385.811,4.02,338
	c0-5.522,4.478-10,10-10h55c5.143,0,9.446,3.899,9.951,9.017c0.004,0.024,1.202,9.867,8.512,19.347
	c9.665,12.532,25.406,18.887,46.787,18.887c13.756,0,45.75-2.493,45.75-25.583c0-15.601-22.583-22.807-59.776-32.82
	C72.664,304.037,13.45,288.095,6.095,228.22c-1.528-12.444-2.553-44.251,20.89-70.749c21.016-23.758,55.009-35.804,101.035-35.804
	c60.146,0,89.125,27.491,102.845,50.554c14.799,24.877,15.147,49.663,15.155,50.706c0.02,2.665-1.025,5.228-2.903,7.118
	c-1.877,1.892-4.432,2.955-7.097,2.955h-39.21c-11.947,0-22.921-6.434-28.641-16.79c-11.371-20.589-22.329-26.543-48.854-26.543
	c-16.589,0-35.961,6.983-35.961,26.666c0,2.396,0,7.381,12.335,13.101c10.214,4.736,25.242,8.249,41.154,11.969
	c49.473,11.566,117.229,27.406,117.229,100.702c0,25.233-6.755,46.406-20.077,62.933c-13.553,16.812-33.559,28.343-59.46,34.274
	C173.784,439.483,173.032,439.565,172.294,439.565z"/>
<path d="M398.482,512c-2.069,0-4.138-0.641-5.893-1.921l-133-97c-4.275-3.117-5.381-9.026-2.523-13.479
	c11.148-17.375,12.423-35.521,12.435-35.702c0.235-3.691,2.49-6.969,5.861-8.492c3.369-1.522,7.308-1.08,10.234,1.182l18.713,14.46
	l-21.361-67.531c-1.292-4.083,0.16-8.535,3.61-11.072L347.001,248h-74.52c-5.522,0-10-4.478-10-10
	c0-36.373-10.069-66.016-29.928-88.104c-14.844-16.51-29.984-22.493-30.136-22.552c-4.979-1.927-7.611-7.441-5.924-12.506l36-108
	c1.356-4.067,5.153-6.817,9.439-6.838c0.017,0,0.032,0,0.048,0c4.268,0,8.067,2.709,9.456,6.747l62.68,182.237h33.529
	c5.522,0,10,4.478,10,10s-4.478,10-10,10H306.98c-4.27,0-8.067-2.71-9.456-6.747l-55.395-161.06l-23.905,71.714
	c7.169,4.033,17.818,11.213,28.376,22.724c15.299,16.679,33.344,45.938,35.637,92.385h95.244c4.321,0,8.154,2.776,9.502,6.883
	c1.347,4.106-0.097,8.613-3.578,11.174l-79.229,58.257l28.84,91.171c1.319,4.168-0.224,8.711-3.809,11.214
	c-3.585,2.504-8.381,2.388-11.84-0.285l-31.091-24.024c-1.618,5.85-4.044,12.707-7.671,19.806l101.253,73.847l-49.419-157.548
	c-1.277-4.073,0.172-8.508,3.606-11.041l133.526-98.468h-43.926c-5.522,0-10-4.478-10-10s4.478-10,10-10h74.335
	c4.319,0,8.15,2.773,9.5,6.876c1.349,4.104-0.089,8.608-3.564,11.172l-152.258,112.28l56.365,179.692
	c1.292,4.119-0.205,8.603-3.713,11.118C402.568,511.375,400.525,512,398.482,512z"/>
<path d="M385.982,208.979c-2.63,0-5.21-1.06-7.07-2.92c-1.86-1.87-2.93-4.45-2.93-7.08s1.069-5.21,2.93-7.069
	c1.86-1.86,4.44-2.931,7.07-2.931s5.21,1.07,7.069,2.931c1.86,1.859,2.931,4.439,2.931,7.069c0,2.641-1.07,5.21-2.931,7.08
	C391.192,207.92,388.611,208.979,385.982,208.979z"/>
<g>
</g>
<g>
</g>
<g>
</g>
<g>
</g>
<g>
</g>
<g>
</g>
<g>
</g>
<g>
</g>
<g>
</g>
<g>
</g>
<g>
</g>
<g>
</g>
<g>
</g>
<g>
</g>
<g>
</g>
</svg>
