<?xml version="1.0" encoding="iso-8859-1"?>
<!-- Generator: Adobe Illustrator 19.0.0, SVG Export Plug-In . SVG Version: 6.00 Build 0)  -->
<svg version="1.1" id="Capa_1" xmlns="http://www.w3.org/2000/svg" xmlns:xlink="http://www.w3.org/1999/xlink" x="0px" y="0px"
	 viewBox="0 0 512.002 512.002" style="enable-background:new 0 0 512.002 512.002;" xml:space="preserve">
<path style="fill:#F5B955;" d="M256.094,484.133h10.607c11.239,0,22.238-3.255,31.667-9.371l50.425-32.706
	c11.305-7.333,24.987-10.066,38.242-7.639l31.509,5.77c5.005,0.917,9.91-2.038,11.439-6.892l5.643-17.913
	c1.666-5.287,6.262-9.116,11.76-9.82c26.791-3.431,43.592-12.351,52.358-18.483c3.538-2.475,2.776-7.916-1.297-9.349l-5.364-1.888
	c-44.162-15.543-80.412-47.876-100.883-89.981l0,0c-1.404-2.887-2.133-6.056-2.133-9.266l0,0c0-8.497,5.075-16.173,12.894-19.5
	l37.629-16.012c9.007-3.833,13.279-14.177,9.601-23.248l0,0c-3.386-8.352-12.755-12.55-21.241-9.515
	c-10.398,3.718-23.67,8.467-31.477,11.275c-4.079,1.467-8.629,0.637-11.951-2.191L385.4,217.3c-2.623-2.234-4.134-5.506-4.133-8.951
	l0.019-68.437c0.017-61.874-50.137-112.041-112.01-112.041h-13.367h0.186h-13.367c-61.874,0-112.027,50.167-112.01,112.041
	l0.019,68.437c0.001,3.445-1.51,6.717-4.133,8.951l-0.122,0.104c-3.322,2.829-7.872,3.659-11.951,2.191
	c-7.807-2.808-21.079-7.557-31.477-11.275c-8.487-3.034-17.855,1.163-21.241,9.515l0,0c-3.677,9.071,0.595,19.416,9.601,23.248
	l37.629,16.012c7.819,3.327,12.894,11.003,12.894,19.5l0,0c0,3.21-0.729,6.379-2.133,9.266l0,0
	c-20.471,42.105-56.721,74.438-100.883,89.981l-5.364,1.888c-4.072,1.433-4.834,6.875-1.297,9.349
	c8.766,6.132,25.566,15.052,52.358,18.483c5.498,0.704,10.095,4.532,11.76,9.82l5.643,17.913c1.529,4.854,6.433,7.808,11.439,6.892
	l31.509-5.77c13.255-2.427,26.936,0.306,38.242,7.639l50.425,32.706c9.429,6.116,20.428,9.371,31.667,9.371h10.607H256.094z"/>
<path d="M349.105,71.309c-2.58,0-5.158-0.992-7.114-2.971l-0.061-0.062c-3.882-3.929-3.874-10.291,0.055-14.173
	c3.927-3.881,10.229-3.875,14.111,0.054l0.121,0.123c3.882,3.929,3.844,10.26-0.084,14.142
	C354.186,70.347,351.646,71.309,349.105,71.309z"/>
<path d="M266.701,494.133h-21.4c-13.201,0-26.033-3.797-37.108-10.981l-50.426-32.707c-9.202-5.968-20.211-8.169-30.999-6.191
	l-31.509,5.77c-9.95,1.821-19.74-4.079-22.778-13.724l-5.643-17.913c-0.49-1.556-1.861-2.697-3.492-2.906
	c-28.262-3.619-46.498-12.987-56.82-20.208c-4.717-3.3-7.163-8.896-6.382-14.603c0.783-5.717,4.649-10.458,10.092-12.373
	l5.363-1.888c41.951-14.765,75.764-44.924,95.209-84.921c0.737-1.515,1.126-3.208,1.126-4.894c0-4.496-2.673-8.538-6.81-10.298
	l-37.628-16.012c-13.935-5.93-20.643-22.172-14.954-36.207c5.418-13.364,20.296-20.03,33.875-15.175
	c10.404,3.72,23.684,8.472,31.495,11.282c0.712,0.256,1.491,0.109,2.082-0.395l0.119-0.101c0.396-0.337,0.62-0.823,0.62-1.338
	l-0.019-68.437c-0.009-32.597,12.678-63.244,35.724-86.296c23.046-23.053,53.69-35.748,86.286-35.748h26.549
	c19.106,0,37.406,4.295,54.391,12.767c4.942,2.465,6.95,8.47,4.485,13.412c-2.465,4.942-8.471,6.949-13.412,4.485
	c-14.187-7.076-29.483-10.664-45.464-10.664h-26.549c-27.253,0-52.874,10.614-72.142,29.888
	c-19.268,19.273-29.875,44.897-29.868,72.15l0.019,68.437c0.002,6.388-2.786,12.426-7.649,16.567l-0.118,0.101
	c-6.031,5.135-14.392,6.665-21.823,3.992c-7.803-2.807-21.067-7.554-31.459-11.27c-3.45-1.231-7.23,0.461-8.607,3.857
	c-1.617,3.988,0.289,8.604,4.25,10.289l37.628,16.012c11.529,4.906,18.979,16.172,18.979,28.702c0,4.698-1.085,9.415-3.14,13.639
	c-21.148,43.499-57.479,76.6-102.597,93.599c8.525,4.461,21.572,9.492,39.688,11.812c9.341,1.196,17.203,7.765,20.028,16.734
	l5.643,17.913c0.014,0.043,0.057,0.07,0.1,0.061l31.508-5.77c15.828-2.899,31.981,0.327,45.484,9.085l50.426,32.707
	c7.827,5.077,16.896,7.76,26.225,7.76h21.4c9.329,0,18.398-2.684,26.226-7.76l50.425-32.707
	c13.503-8.758,29.658-11.983,45.485-9.085l31.509,5.77c0.042,0.01,0.086-0.018,0.1-0.06l5.643-17.914
	c2.826-8.969,10.687-15.538,20.028-16.734c18.116-2.32,31.162-7.351,39.688-11.811c-45.118-17-81.449-50.101-102.598-93.6
	c-2.054-4.224-3.139-8.94-3.139-13.639c0-12.53,7.45-23.795,18.979-28.702l37.628-16.012c3.96-1.685,5.867-6.301,4.25-10.29
	c-1.376-3.395-5.158-5.091-8.607-3.856c-10.392,3.716-23.657,8.462-31.459,11.269c-7.432,2.674-15.792,1.145-21.819-3.988
	l-0.126-0.108c-4.858-4.138-7.646-10.176-7.645-16.563l0.019-68.437c0.004-15.438-3.35-30.266-9.97-44.071
	c-2.388-4.98-0.287-10.953,4.693-13.341c4.979-2.387,10.953-0.286,13.341,4.693c7.925,16.528,11.941,34.267,11.936,52.725
	l-0.019,68.437c0,0.515,0.224,1.001,0.616,1.334l0.127,0.108c0.588,0.5,1.366,0.648,2.079,0.391
	c7.811-2.809,21.091-7.562,31.495-11.281c13.578-4.854,28.457,1.811,33.875,15.174c5.69,14.035-1.018,30.277-14.953,36.207
	l-37.628,16.012c-4.137,1.76-6.81,5.803-6.81,10.298c0,1.686,0.39,3.378,1.126,4.894c19.446,39.997,53.259,70.156,95.209,84.921
	l5.365,1.888c5.442,1.915,9.309,6.656,10.091,12.373c0.781,5.707-1.665,11.303-6.383,14.604
	c-10.321,7.221-28.558,16.589-56.819,20.208c-1.631,0.209-3.002,1.35-3.492,2.905l-5.643,17.914
	c-3.039,9.645-12.832,15.544-22.778,13.724l-31.509-5.77c-10.786-1.974-21.796,0.224-30.999,6.192l-50.425,32.706
	C292.734,490.336,279.902,494.133,266.701,494.133z"/>
<path d="M101.237,394.226c-2.926,0-5.825-1.278-7.801-3.736c-3.46-4.305-2.775-10.599,1.53-14.059
	c2.899-2.331,5.784-4.773,8.574-7.262c12.753-11.375,24.105-24.198,33.74-38.112c3.144-4.54,9.374-5.672,13.915-2.528
	c4.54,3.144,5.672,9.374,2.528,13.915c-10.533,15.21-22.938,29.224-36.87,41.651c-3.044,2.715-6.192,5.381-9.357,7.925
	C105.648,393.504,103.435,394.226,101.237,394.226z"/>
<path d="M162.924,316.901c-1.461,0-2.943-0.322-4.344-1.001c-4.955-2.403-7.043-8.342-4.66-13.307
	c0.012-0.024,0.041-0.085,0.053-0.11c2.423-4.945,8.398-7.016,13.353-4.616c4.955,2.403,7.043,8.342,4.66,13.307
	c-0.012,0.024-0.041,0.085-0.053,0.11C170.195,314.831,166.629,316.901,162.924,316.901z"/>
<g>
</g>
<g>
</g>
<g>
</g>
<g>
</g>
<g>
</g>
<g>
</g>
<g>
</g>
<g>
</g>
<g>
</g>
<g>
</g>
<g>
</g>
<g>
</g>
<g>
</g>
<g>
</g>
<g>
</g>
</svg>
