<?xml version="1.0" encoding="iso-8859-1"?>
<!-- Generator: Adobe Illustrator 19.0.0, SVG Export Plug-In . SVG Version: 6.00 Build 0)  -->
<svg version="1.1" id="Capa_1" xmlns="http://www.w3.org/2000/svg" xmlns:xlink="http://www.w3.org/1999/xlink" x="0px" y="0px"
	 viewBox="0 0 512.003 512.003" style="enable-background:new 0 0 512.003 512.003;" xml:space="preserve">
<polygon style="fill:#7DD787;" points="502,208.896 256,57.763 167.021,112.428 167.021,57.763 92.436,57.763 92.436,158.25 
	10,208.896 52.527,276.284 92.436,250.887 92.436,454.242 423.49,454.242 423.49,253.385 459.474,276.284 "/>
<path d="M370.641,138.2c-1.783,0-3.59-0.477-5.222-1.479l-0.794-0.487c-4.707-2.889-6.181-9.047-3.291-13.754
	c2.889-4.706,9.045-6.183,13.754-3.291l0.794,0.487c4.707,2.889,6.181,9.047,3.291,13.754
	C377.285,136.506,374.003,138.2,370.641,138.2z"/>
<path d="M423.489,464.241H92.437c-5.522,0-10-4.478-10-10V269.104l-24.541,15.617c-2.244,1.428-4.965,1.9-7.557,1.321
	c-2.595-0.582-4.851-2.173-6.27-4.421L1.543,214.233c-1.427-2.261-1.889-4.998-1.283-7.602s2.229-4.856,4.506-6.256l77.671-47.718
	V57.763c0-5.522,4.478-10,10-10h74.585c5.522,0,10,4.478,10,10v36.785l73.744-45.306c3.211-1.973,7.258-1.973,10.469,0
	l68.597,42.144c4.706,2.892,6.177,9.05,3.286,13.755c-2.89,4.706-9.047,6.178-13.755,3.286L256,69.499l-83.744,51.449
	c-3.085,1.897-6.956,1.975-10.115,0.207c-3.161-1.768-5.119-5.106-5.119-8.728V67.763h-54.585v90.487
	c0,3.476-1.805,6.701-4.766,8.521l-73.813,45.348l31.768,50.34l31.441-20.008c3.082-1.96,6.983-2.086,10.182-0.329
	c3.199,1.756,5.188,5.116,5.188,8.766v193.354H413.49V253.385c0-3.649,1.988-7.01,5.188-8.766c3.2-1.756,7.102-1.631,10.182,0.329
	l27.516,17.51l31.768-50.34l-88.994-54.675c-4.706-2.891-6.177-9.05-3.286-13.755s9.049-6.177,13.755-3.286l97.618,59.973
	c2.277,1.399,3.9,3.652,4.506,6.256c0.605,2.604,0.144,5.341-1.283,7.602l-42.526,67.389c-1.419,2.248-3.675,3.839-6.27,4.421
	c-2.593,0.58-5.313,0.106-7.557-1.321l-20.618-13.12v182.64C433.489,459.764,429.012,464.241,423.489,464.241z"/>
<path d="M140.438,402.531c-5.522,0-10-4.478-10-10v-73.279c0-5.522,4.478-10,10-10s10,4.478,10,10v73.278
	C150.438,398.053,145.96,402.531,140.438,402.531z"/>
<path d="M140.438,285.87c-5.522,0-10-4.478-10-10v-0.118c0-5.522,4.478-10,10-10s10,4.478,10,10v0.118
	C150.438,281.393,145.96,285.87,140.438,285.87z"/>
<g>
</g>
<g>
</g>
<g>
</g>
<g>
</g>
<g>
</g>
<g>
</g>
<g>
</g>
<g>
</g>
<g>
</g>
<g>
</g>
<g>
</g>
<g>
</g>
<g>
</g>
<g>
</g>
<g>
</g>
</svg>
