<?xml version="1.0" encoding="iso-8859-1"?>
<!-- Generator: Adobe Illustrator 19.0.0, SVG Export Plug-In . SVG Version: 6.00 Build 0)  -->
<svg version="1.1" id="Capa_1" xmlns="http://www.w3.org/2000/svg" xmlns:xlink="http://www.w3.org/1999/xlink" x="0px" y="0px"
	 viewBox="0 0 512.003 512.003" style="enable-background:new 0 0 512.003 512.003;" xml:space="preserve">
<polygon style="fill:#FF5A5A;" points="502.001,200.597 314.424,200.597 256.001,21.13 197.578,200.597 10.001,200.597 
	161.584,311.166 103.083,490.872 256.828,380.001 408.919,490.872 350.31,310.834 "/>
<path d="M138.02,393.561c-2.64,0-5.21-1.06-7.08-2.93c-1.859-1.86-2.93-4.44-2.93-7.07s1.07-5.21,2.93-7.069
	c1.86-1.86,4.44-2.931,7.08-2.931c2.63,0,5.2,1.07,7.07,2.931c1.86,1.859,2.92,4.439,2.92,7.069s-1.06,5.21-2.92,7.07
	C143.221,392.501,140.65,393.561,138.02,393.561z"/>
<path d="M150.664,354.719c-1.026,0-2.069-0.159-3.098-0.494c-5.251-1.71-8.123-7.353-6.413-12.604l8.676-26.65L4.107,208.676
	c-3.497-2.551-4.956-7.063-3.614-11.179c1.342-4.115,5.179-6.9,9.508-6.9h180.316l56.175-172.563
	c1.34-4.117,5.179-6.904,9.509-6.904c4.33,0,8.169,2.787,9.509,6.904l56.175,172.563h24.316c5.522,0,10,4.478,10,10s-4.478,10-10,10
	h-31.577c-4.33,0-8.168-2.787-9.509-6.904L256.001,53.436l-48.914,150.257c-1.341,4.117-5.179,6.904-9.509,6.904H40.679
	l126.799,92.49c3.496,2.55,4.955,7.06,3.615,11.175l-10.922,33.55C158.796,352.034,154.877,354.718,150.664,354.719z"/>
<path d="M394.001,210.601c-2.63,0-5.21-1.069-7.07-2.93c-1.86-1.87-2.93-4.44-2.93-7.07c0-2.64,1.069-5.21,2.93-7.069
	c1.86-1.87,4.44-2.931,7.07-2.931s5.21,1.061,7.069,2.931c1.86,1.859,2.931,4.43,2.931,7.069c0,2.63-1.07,5.2-2.931,7.07
	C399.211,209.531,396.631,210.601,394.001,210.601z"/>
<path d="M103.083,500.872c-2.069,0-4.139-0.641-5.895-1.922c-3.495-2.551-4.954-7.06-3.614-11.174l23.284-71.527
	c1.709-5.251,7.353-8.124,12.604-6.413c5.251,1.709,8.123,7.353,6.413,12.604l-13.806,42.41l128.908-92.961
	c3.509-2.528,8.245-2.517,11.74,0.03l127.13,92.675L340.802,313.93c-1.342-4.121,0.124-8.638,3.63-11.186l126.799-92.147h-36.563
	c-5.522,0-10-4.478-10-10s4.478-10,10-10h67.333c4.332,0,8.172,2.789,9.511,6.909c1.339,4.12-0.128,8.634-3.632,11.181
	L362.069,314.65l56.358,173.126c1.343,4.123-0.126,8.642-3.635,11.188c-3.512,2.547-8.263,2.541-11.765-0.012L256.796,392.353
	l-147.863,106.63C107.186,500.242,105.134,500.872,103.083,500.872z"/>
<g>
</g>
<g>
</g>
<g>
</g>
<g>
</g>
<g>
</g>
<g>
</g>
<g>
</g>
<g>
</g>
<g>
</g>
<g>
</g>
<g>
</g>
<g>
</g>
<g>
</g>
<g>
</g>
<g>
</g>
</svg>
