<?xml version="1.0" encoding="iso-8859-1"?>
<!-- Generator: Adobe Illustrator 19.0.0, SVG Export Plug-In . SVG Version: 6.00 Build 0)  -->
<svg version="1.1" id="Capa_1" xmlns="http://www.w3.org/2000/svg" xmlns:xlink="http://www.w3.org/1999/xlink" x="0px" y="0px"
	 viewBox="0 0 512 512" style="enable-background:new 0 0 512 512;" xml:space="preserve">
<g>
	<polygon style="fill:#878791;" points="36.89,202.271 10,159.027 105.028,159.027 	"/>
	<polygon style="fill:#878791;" points="475.09,202.271 501.98,159.027 406.952,159.027 	"/>
</g>
<circle style="fill:#FF9155;" cx="132.995" cy="279.019" r="19.999"/>
<circle style="fill:#46C8BE;" cx="378.985" cy="279.019" r="19.999"/>
<path style="fill:#F5B955;" d="M132.995,156.027c60.086,0,110.1,43.088,120.849,100.05l3.846,2.508
	c9.735-58.2,60.331-102.558,121.295-102.558c9.555,0,18.855,1.09,27.784,3.151l0.183-0.151c-83.442-65.393-218.481-65.393-301.923,0
	l0.22,0.143C114.165,157.114,123.453,156.027,132.995,156.027z"/>
<g>
	<path style="fill:#878791;" d="M255.601,269.215c0.255,3.236,0.389,6.506,0.389,9.808c0-3.302,0.134-6.572,0.389-9.808H255.601z"/>
	<path style="fill:#878791;" d="M255.99,279.022c0,28.752-9.868,55.199-26.399,76.142l26.526,39.198l26.41-39.027
		C265.914,334.365,255.99,307.854,255.99,279.022z"/>
</g>
<path d="M132.995,309.021c-16.541,0-29.999-13.457-29.999-29.999c0-16.541,13.457-29.999,29.999-29.999s29.999,13.457,29.999,29.999
	C162.994,295.564,149.536,309.021,132.995,309.021z M132.995,269.023c-5.514,0-10,4.486-10,10s4.486,10,10,10
	c5.514,0,10-4.486,10-10S138.509,269.023,132.995,269.023z"/>
<path d="M132.995,345.02c-36.392,0-65.997-29.606-65.997-65.997s29.606-65.997,65.997-65.997s65.997,29.606,65.997,65.997
	S169.386,345.02,132.995,345.02z M132.995,233.024c-25.363,0-45.998,20.635-45.998,45.998c0,25.363,20.635,45.998,45.998,45.998
	s45.998-20.635,45.998-45.998C178.993,253.659,158.358,233.024,132.995,233.024z"/>
<path d="M378.985,309.021c-16.541,0-29.999-13.457-29.999-29.999c0-16.541,13.457-29.999,29.999-29.999
	c16.541,0,29.999,13.457,29.999,29.999C408.984,295.564,395.527,309.021,378.985,309.021z M378.985,269.023c-5.514,0-10,4.486-10,10
	s4.486,10,10,10s10-4.486,10-10S384.499,269.023,378.985,269.023z"/>
<path d="M378.985,345.02c-36.392,0-65.997-29.606-65.997-65.997s29.606-65.997,65.997-65.997s65.997,29.606,65.997,65.997
	S415.377,345.02,378.985,345.02z M378.985,233.024c-25.363,0-45.998,20.635-45.998,45.998c0,25.363,20.635,45.998,45.998,45.998
	c25.363,0,45.998-20.635,45.998-45.998C424.983,253.659,404.348,233.024,378.985,233.024z"/>
<path d="M465.957,375.994c-2.56,0-5.118-0.977-7.071-2.929c-3.905-3.905-3.905-10.237,0-14.142c0.271-0.271,0.541-0.544,0.809-0.817
	c3.866-3.943,10.197-4.007,14.141-0.142c3.944,3.866,4.007,10.198,0.142,14.141c-0.314,0.32-0.631,0.642-0.949,0.96
	C471.075,375.017,468.516,375.994,465.957,375.994z"/>
<path d="M509.85,255.254c-3.52-19.469-11.257-37.647-22.641-53.536l23.263-37.412c1.917-3.083,2.013-6.964,0.249-10.138
	c-1.765-3.174-5.11-5.143-8.741-5.143h-91.627c-31.172-23.613-69.852-39.452-112.114-45.868c-5.456-0.828-10.559,2.925-11.388,8.386
	c-0.829,5.46,2.926,10.559,8.386,11.388c26.455,4.017,51.316,12.018,73.489,23.487c-31.658,2.399-61.097,15.877-83.783,38.562
	c-12.625,12.625-22.395,27.341-28.995,43.366c-18.723-45.261-61.733-78.022-112.697-81.928
	c22.169-11.467,47.026-19.468,73.476-23.486c5.46-0.829,9.214-5.928,8.385-11.389c-0.83-5.46-5.939-9.216-11.389-8.385
	c-42.255,6.419-80.931,22.256-112.098,45.866H10c-3.631,0-6.977,1.969-8.741,5.143c-1.764,3.174-1.668,7.055,0.249,10.138
	l23.293,37.461C9.197,223.559,0,250.236,0,279.022c0,73.334,59.661,132.995,132.995,132.995c37.458,0,71.343-15.571,95.537-40.574
	l19.302,28.524c1.86,2.749,4.963,4.396,8.282,4.396c3.319,0,6.422-1.646,8.282-4.396l19.163-28.318
	c0.459,0.473,0.915,0.948,1.382,1.416c25.437,25.437,59.652,38.895,94.295,38.894c18.897,0,37.927-4.006,55.722-12.259
	c5.011-2.324,7.188-8.27,4.865-13.278s-8.269-7.188-13.278-4.865c-42.835,19.863-94.058,10.77-127.461-22.635
	c-2.947-2.947-5.703-6.031-8.279-9.232c-0.291-0.427-0.616-0.835-0.976-1.218c-15.459-19.763-23.841-43.962-23.841-69.45
	c0-30.183,11.754-58.558,33.097-79.899c21.342-21.343,49.717-33.097,79.899-33.097c30.182,0,58.559,11.754,79.9,33.097
	c2.953,2.953,5.708,6.039,8.28,9.232c0.15,0.195,0.303,0.388,0.469,0.573c25.841,32.511,31.875,76.416,14.972,115.24
	c-2.204,5.063,0.113,10.955,5.178,13.159c5.063,2.203,10.955-0.112,13.159-5.178C511.487,307.932,514.567,281.342,509.85,255.254z
	 M27.992,169.027H58.32c-7.192,4.898-13.878,10.484-19.969,16.659L27.992,169.027z M132.995,392.018
	c-62.307,0-112.996-50.689-112.996-112.996s50.689-112.996,112.996-112.996S245.99,216.716,245.99,279.022
	S195.301,392.018,132.995,392.018z M270.243,355.645l-14.126,20.875l-14.3-21.132c5.608-7.968,10.361-16.575,14.131-25.691
	C259.705,338.82,264.49,347.517,270.243,355.645z M453.793,169.027h30.194l-10.329,16.609c-0.213-0.216-0.417-0.44-0.631-0.655
	C467.058,179.011,460.615,173.687,453.793,169.027z"/>
<path d="M255.99,119.982l0.533,0.001c0.017,0,0.034,0,0.051,0c5.499,0,9.972-4.444,9.999-9.95c0.027-5.522-4.427-10.021-9.95-10.05
	l-0.633-0.001c-5.522,0-10,4.478-10,10S250.468,119.982,255.99,119.982z"/>
<g>
</g>
<g>
</g>
<g>
</g>
<g>
</g>
<g>
</g>
<g>
</g>
<g>
</g>
<g>
</g>
<g>
</g>
<g>
</g>
<g>
</g>
<g>
</g>
<g>
</g>
<g>
</g>
<g>
</g>
</svg>
