<?xml version="1.0" encoding="iso-8859-1"?>
<!-- Generator: Adobe Illustrator 19.0.0, SVG Export Plug-In . SVG Version: 6.00 Build 0)  -->
<svg version="1.1" id="Capa_1" xmlns="http://www.w3.org/2000/svg" xmlns:xlink="http://www.w3.org/1999/xlink" x="0px" y="0px"
	 viewBox="0 0 512.001 512.001" style="enable-background:new 0 0 512.001 512.001;" xml:space="preserve">
<path style="fill:#4BB9F5;" d="M502,290.867c0-40.816-85.072-118.669-190.015-118.669s-190.015,76.341-190.015,118.669
	s85.072,118.669,190.015,118.669S502,331.682,502,290.867z"/>
<circle style="fill:#FFFFFF;" cx="358.405" cy="287.864" r="72.001"/>
<circle style="fill:#878791;" cx="358.405" cy="287.864" r="33"/>
<path style="fill:#4BB9F5;" d="M14.778,190.455c-3.513-0.724-6.119,3.274-4.025,6.186c18.865,26.222,30.052,58.854,30.052,94.225
	s-11.187,68.003-30.052,94.225c-2.095,2.911,0.512,6.91,4.025,6.186c61.96-12.775,107.191-52.892,107.191-100.411
	C121.971,243.347,76.739,203.23,14.778,190.455z"/>
<path style="fill:#878791;" d="M359.084,171.432c0,0-9.378-50.41-77.425-68.801c-3.594-0.971-6.805,2.546-5.5,6.033
	c4.918,13.136,9.557,33.249,0.356,63.535"/>
<path d="M358.404,330.867c-23.71,0-43.001-19.29-43.001-43.001s19.29-43.001,43.001-43.001s43.001,19.29,43.001,43.001
	S382.114,330.867,358.404,330.867z M358.404,264.866c-12.683,0-23,10.317-23,23s10.317,23,23,23s23-10.317,23-23
	S371.086,264.866,358.404,264.866z"/>
<path d="M358.404,369.868l-0.803-0.003c-5.522-0.045-9.964-4.559-9.919-10.081c0.045-5.495,4.514-9.919,9.998-9.919
	c0.028,0,0.056,0,0.083,0l0.641,0.003c5.522,0,10,4.478,10,10C368.404,365.39,363.926,369.868,358.404,369.868z"/>
<path d="M317.79,357.335c-1.945,0-3.911-0.566-5.638-1.748c-22.386-15.314-35.75-40.632-35.75-67.722
	c0-45.216,36.786-82.001,82.001-82.001s82.001,36.786,82.001,82.001c0,24.206-10.617,47.053-29.128,62.681
	c-4.22,3.563-10.529,3.031-14.092-1.189c-3.563-4.221-3.03-10.529,1.189-14.092c14.001-11.82,22.03-29.096,22.03-47.399
	c0-34.187-27.813-62.001-62.001-62.001s-62.001,27.813-62.001,62.001c0,20.483,10.109,39.631,27.043,51.216
	c4.559,3.118,5.726,9.341,2.606,13.899C324.116,355.812,320.98,357.335,317.79,357.335z"/>
<path d="M199.806,211.752c-3.531,0-6.959-1.856-8.778-5.156c-2.664-4.833-0.949-10.89,3.881-13.559
	c0.006-0.004,0.091-0.051,0.097-0.054l0.089-0.049c4.82-2.694,10.913-0.967,13.606,3.854c2.693,4.822,0.967,10.914-3.854,13.606
	l-0.201,0.111C203.111,211.352,201.447,211.752,199.806,211.752z"/>
<path d="M452.159,208.089c-16.503-11.79-45.371-29.076-83.289-38.717c-0.888-4.424-12.905-57.019-84.601-76.396
	c-5.305-1.438-10.896,0.203-14.597,4.271c-3.699,4.064-4.802,9.782-2.878,14.921c4.008,10.707,8.371,27.855,0.969,54.317
	c-13.549,2.627-26.998,6.448-40.258,11.47c-5.165,1.956-7.766,7.729-5.81,12.894c1.956,5.164,7.728,7.766,12.894,5.81
	c25.333-9.596,51.373-14.461,77.396-14.461c60.493,0,106.505,26.417,128.549,42.165c35.36,25.262,51.467,52.182,51.467,66.503
	c0,14.321-16.105,41.242-51.467,66.503c-22.043,15.747-68.056,42.166-128.549,42.166c-60.791,0-106.65-26.075-128.577-41.62
	c-35.341-25.053-51.438-52.318-51.438-67.049c0-15.251,15.313-37.828,39.012-57.518c4.248-3.529,4.83-9.834,1.301-14.082
	s-9.833-4.831-14.082-1.301c-14.454,12.009-25.999,24.816-33.937,37.32c-5.643-12.56-14.325-24.357-25.875-35.005
	c-20.835-19.209-49.049-32.908-81.59-39.618c-5.671-1.171-11.372,1.221-14.528,6.088c-3.154,4.862-3.011,11.037,0.366,15.731
	c18.429,25.616,28.17,56.181,28.17,88.385c0,32.205-9.741,62.77-28.171,88.387c-3.375,4.692-3.519,10.866-0.367,15.728
	c2.625,4.049,7.01,6.384,11.674,6.384c0.944,0,1.901-0.097,2.856-0.293c32.541-6.71,60.755-20.409,81.59-39.619
	c11.555-10.653,20.24-22.456,25.883-35.023c28.453,44.8,102.905,93.105,187.714,93.105c66.071,0,116.184-28.752,140.174-45.892
	c36.353-25.97,59.842-58.462,59.842-82.777S488.512,234.059,452.159,208.089z M311.985,162.199c-7.623,0-15.244,0.393-22.847,1.152
	c4.435-20.668,2.703-36.388-0.369-48.074c37.681,13.111,52.347,36.855,57.691,49.553
	C335.536,163.163,324.029,162.199,311.985,162.199z M27.408,377.835c15.352-26.111,23.398-55.877,23.398-86.969
	c0-31.091-8.048-60.857-23.398-86.968c50.476,14.826,84.563,49.206,84.563,86.968S77.882,363.009,27.408,377.835z"/>
<g>
</g>
<g>
</g>
<g>
</g>
<g>
</g>
<g>
</g>
<g>
</g>
<g>
</g>
<g>
</g>
<g>
</g>
<g>
</g>
<g>
</g>
<g>
</g>
<g>
</g>
<g>
</g>
<g>
</g>
</svg>
