<?xml version="1.0" encoding="iso-8859-1"?>
<!-- Generator: Adobe Illustrator 19.0.0, SVG Export Plug-In . SVG Version: 6.00 Build 0)  -->
<svg version="1.1" id="Capa_1" xmlns="http://www.w3.org/2000/svg" xmlns:xlink="http://www.w3.org/1999/xlink" x="0px" y="0px"
	 viewBox="0 0 512 512" style="enable-background:new 0 0 512 512;" xml:space="preserve">
<path style="fill:#DC4B4B;" d="M403.625,56.352C361.2,27.328,305.296,9.999,254.082,9.999c-47.447,0-94.75,11.676-133.198,32.878
	c-45.198,24.925-76.16,61.245-89.54,105.035c-11.335,37.097-10.007,79.943,3.841,123.905c9.909,31.462,22.786,52.926,24.221,55.27
	l68.026-41.659l0.085,0.138c-0.363-0.605-36.156-61.092-19.885-114.345c9.094-29.761,33.175-48.235,51.773-58.493
	c26.851-14.807,60.474-22.961,94.677-22.961c35.229,0,75.272,12.422,104.501,32.42c33.129,22.664,49.926,52.015,49.926,87.234
	c0,38.933-19.255,61.339-35.408,73.279c-27.955,20.661-69.017,27.299-105.646,17.318V145.483h-87.747v257.715
	c0,6.662-3.264,12.901-8.737,16.7l0,0c-6.374,4.425-14.71,4.836-21.489,1.06l-35.457-19.755v81.432l38.976,14.185
	c23.905,8.7,50.442,6.296,72.395-6.558l0,0c23.209-13.589,38.665-37.313,41.719-64.034l0.34-2.977v-41.697
	c11.475,1.891,23.059,2.827,34.593,2.827c42.957-0.002,85.208-12.946,118.471-37.533c43.697-32.3,67.76-81.106,67.76-137.426
	C488.279,148.062,458.216,93.7,403.625,56.352z"/>
<path d="M403.996,66.612c-1.958,0-3.936-0.573-5.67-1.77l-0.306-0.21c-4.574-3.096-5.771-9.313-2.676-13.886
	c3.096-4.573,9.312-5.771,13.886-2.676l0.453,0.31c4.546,3.137,5.689,9.364,2.552,13.909
	C410.295,65.103,407.172,66.612,403.996,66.612z"/>
<path d="M182.273,512c-11.004,0-22.059-1.913-32.69-5.782l-38.977-14.185c-3.951-1.438-6.58-5.193-6.58-9.396v-81.433
	c0-3.545,1.877-6.826,4.934-8.622c3.057-1.795,6.837-1.838,9.932-0.113l35.457,19.755c3.418,1.902,7.705,1.691,10.92-0.539
	c2.779-1.93,4.439-5.102,4.439-8.486V145.483c0-5.522,4.477-9.999,9.999-9.999h87.746c5.523,0,9.999,4.478,9.999,9.999v146.641
	c31.73,6.456,66.218-0.104,89.703-17.463c14.302-10.571,31.352-30.472,31.352-65.237c0-31.721-15.333-58.294-45.574-78.981
	c-27.654-18.921-65.533-30.674-98.855-30.674c-32.543,0-64.453,7.713-89.848,21.718c-16.98,9.364-38.925,26.101-47.04,52.658
	c-14.852,48.608,18.568,105.725,18.908,106.297c2.809,4.729,1.276,10.849-3.438,13.685c-0.486,0.292-0.987,0.539-1.498,0.74
	l-66.539,40.749c-2.262,1.384-4.983,1.814-7.561,1.194c-2.579-0.62-4.806-2.24-6.191-4.502c-1.502-2.455-14.972-24.919-25.23-57.487
	c-14.457-45.898-15.794-90.793-3.866-129.831c14.155-46.327,46.756-84.666,94.275-110.87C155.956,12.117,204.974,0,254.082,0
	c38.825,0,80.764,9.603,118.093,27.041c5.004,2.338,7.165,8.289,4.828,13.292s-8.289,7.163-13.291,4.828
	c-34.735-16.225-73.668-25.162-109.629-25.162c-45.787,0-91.375,11.234-128.368,31.635c-42.875,23.644-72.201,57.947-84.807,99.201
	c-10.742,35.156-9.423,75.953,3.815,117.98c6.195,19.668,13.552,35.217,18.327,44.317l51.169-31.336
	c-9.699-19.698-29.831-68.714-16.149-113.494c10.073-32.967,36.289-53.178,56.508-64.328c28.304-15.607,63.642-24.204,99.506-24.204
	c37.139,0,79.345,13.092,110.147,34.167c36.018,24.64,54.28,56.767,54.28,95.487c0,43.102-21.46,68.012-39.463,81.32
	c-30.517,22.555-74.283,29.807-114.22,18.924c-4.352-1.187-7.371-5.138-7.371-9.647V155.483h-67.747v247.716
	c0,9.936-4.873,19.25-13.034,24.915c-9.438,6.553-22.021,7.171-32.057,1.581l-20.592-11.473v57.413l32.396,11.789
	c21.177,7.709,44.476,5.598,63.923-5.791c20.384-11.935,34.154-33.071,36.836-56.54l0.276-2.411v-41.126
	c0-2.937,1.291-5.725,3.529-7.624c2.239-1.9,5.202-2.72,8.097-2.243c10.839,1.787,21.926,2.693,32.948,2.693
	c0.006,0,0.011,0,0.017,0c41.533-0.002,81.496-12.636,112.528-35.574c41.081-30.367,63.705-76.316,63.705-129.385
	c0-45.466-17.424-86.985-50.388-120.073c-3.897-3.912-3.886-10.243,0.026-14.141c3.914-3.897,10.244-3.887,14.141,0.026
	c36.779,36.916,56.219,83.317,56.219,134.187c0,59.572-25.505,111.233-71.816,145.467c-34.449,25.464-78.633,39.489-124.414,39.491
	c-0.006,0-0.012,0-0.018,0c-8.195,0-16.421-0.456-24.576-1.359v30.229c0,0.38-0.021,0.759-0.065,1.136l-0.34,2.977
	c-3.393,29.688-20.813,56.429-46.601,71.527C215.611,507.58,198.999,512,182.273,512z"/>
<path d="M223.668,300.943c-5.523,0-9.999-4.478-9.999-9.999v-81.497c0-5.522,4.477-9.999,9.999-9.999s9.999,4.478,9.999,9.999
	v81.497C233.668,296.465,229.191,300.943,223.668,300.943z"/>
<path d="M223.668,346.44c-5.523,0-9.999-4.478-9.999-9.999v-0.118c0-5.522,4.477-9.999,9.999-9.999s9.999,4.478,9.999,9.999v0.118
	C233.668,341.962,229.191,346.44,223.668,346.44z"/>
<g>
</g>
<g>
</g>
<g>
</g>
<g>
</g>
<g>
</g>
<g>
</g>
<g>
</g>
<g>
</g>
<g>
</g>
<g>
</g>
<g>
</g>
<g>
</g>
<g>
</g>
<g>
</g>
<g>
</g>
</svg>
