<?xml version="1.0" encoding="iso-8859-1"?>
<!-- Generator: Adobe Illustrator 19.0.0, SVG Export Plug-In . SVG Version: 6.00 Build 0)  -->
<svg version="1.1" id="Capa_1" xmlns="http://www.w3.org/2000/svg" xmlns:xlink="http://www.w3.org/1999/xlink" x="0px" y="0px"
	 viewBox="0 0 512 512" style="enable-background:new 0 0 512 512;" xml:space="preserve">
<path style="fill:#FF9155;" d="M430.28,366.238l-14.538,57.064c-7.145,28.044-32.399,47.671-61.339,47.671H228.368
	c-17.899,0-32.408-14.509-32.408-32.408v-164.72h105.619c17.084,0,31.743,12.175,34.877,28.969l8.602,46.08h30.687V163.106h-30.687
	l-8.602,46.08c-3.135,16.794-17.794,28.969-34.878,28.969H195.959V73.435c0.001-17.899,14.51-32.408,32.409-32.408h126.033
	c28.94,0,54.194,19.627,61.339,47.671l14.539,57.064h27.435l8.421-135.755H45.863v23.682l33.95,6.729
	c23.306,4.619,40.098,25.066,40.098,48.825v333.515c0,23.759-16.792,44.206-40.098,48.825l-33.95,6.728v23.682h420.273
	l-8.421-135.755H430.28z"/>
<path d="M195.96,148.427c-2.632,0-5.213-1.062-7.075-2.933c-1.861-1.86-2.932-4.442-2.932-7.074c0-2.632,1.071-5.213,2.932-7.075
	s4.443-2.932,7.075-2.932s5.213,1.07,7.075,2.932s2.932,4.443,2.932,7.075c0,2.632-1.071,5.213-2.932,7.074
	C201.174,147.366,198.592,148.427,195.96,148.427z"/>
<path d="M466.136,512H45.863c-5.527,0-10.007-4.481-10.007-10.006v-23.682c0-4.776,3.376-8.887,8.061-9.816l33.95-6.729
	c18.563-3.679,32.037-20.084,32.037-39.008V89.243c0-18.924-13.474-35.33-32.037-39.008l-33.95-6.729
	c-4.685-0.93-8.061-5.039-8.061-9.816V10.007C35.856,4.481,40.336,0,45.863,0h420.273c2.762,0,5.4,1.142,7.292,3.153
	c1.892,2.011,2.867,4.717,2.696,7.473l-8.422,135.755c-0.327,5.275-4.702,9.387-9.987,9.387H430.28
	c-4.575,0-8.568-3.103-9.696-7.536l-14.538-57.064c-6.021-23.631-27.258-40.135-51.643-40.135H228.368
	c-12.352,0-22.402,10.05-22.402,22.402v20.293c0,5.526-4.48,10.007-10.007,10.007c-5.527,0-10.007-4.481-10.007-10.007V73.435
	c0-23.387,19.027-42.415,42.415-42.415h126.034c33.543,0,62.754,22.702,71.036,55.207l12.618,49.528h10.253l7.181-115.742H55.869
	v5.458l25.89,5.131c27.905,5.531,48.158,30.194,48.158,58.641v333.515c0,28.447-20.254,53.11-48.158,58.641l-25.89,5.131v5.458
	h399.62l-7.18-115.743h-10.253l-12.618,49.528c-8.281,32.505-37.493,55.207-71.036,55.207H228.368
	c-23.387,0-42.415-19.027-42.415-42.416V273.845c0-5.526,4.48-10.007,10.007-10.007h105.619c21.891,0,40.696,15.619,44.713,37.139
	l7.077,37.91h12.368V173.113h-12.368l-7.077,37.91c-4.017,21.52-22.822,37.139-44.713,37.139H195.96
	c-5.527,0-10.007-4.481-10.007-10.007v-55.64c0-5.526,4.48-10.007,10.007-10.007c5.527,0,10.007,4.481,10.007,10.007v45.634h95.611
	c12.26,0,22.791-8.747,25.041-20.799l8.602-46.08c0.884-4.736,5.018-8.17,9.836-8.17h30.687c5.527,0,10.007,4.481,10.007,10.007
	v185.788c0,5.526-4.48,10.007-10.007,10.007h-30.687c-4.818,0-8.953-3.434-9.836-8.17l-8.602-46.08
	c-2.249-12.052-12.78-20.799-25.04-20.799h-95.612v154.713c0,12.353,10.049,22.403,22.402,22.403h126.034
	c24.386,0,45.622-16.504,51.643-40.134l14.538-57.064c1.13-4.434,5.122-7.536,9.696-7.536h27.435c5.285,0,9.66,4.111,9.987,9.387
	l8.422,135.755c0.171,2.756-0.805,5.461-2.696,7.473C471.538,510.86,468.898,512,466.136,512z"/>
<path d="M160.271,387.752c-5.527,0-10.007-4.481-10.007-10.007v-81.553c0-5.526,4.48-10.007,10.007-10.007
	s10.007,4.481,10.007,10.007v81.553C170.278,383.271,165.798,387.752,160.271,387.752z"/>
<path d="M160.271,433.282c-5.527,0-10.007-4.481-10.007-10.007v-0.118c0-5.526,4.48-10.007,10.007-10.007
	s10.007,4.481,10.007,10.007v0.118C170.278,428.801,165.798,433.282,160.271,433.282z"/>
<g>
</g>
<g>
</g>
<g>
</g>
<g>
</g>
<g>
</g>
<g>
</g>
<g>
</g>
<g>
</g>
<g>
</g>
<g>
</g>
<g>
</g>
<g>
</g>
<g>
</g>
<g>
</g>
<g>
</g>
</svg>
