<?xml version="1.0" encoding="iso-8859-1"?>
<!-- Generator: Adobe Illustrator 19.0.0, SVG Export Plug-In . SVG Version: 6.00 Build 0)  -->
<svg version="1.1" id="Capa_1" xmlns="http://www.w3.org/2000/svg" xmlns:xlink="http://www.w3.org/1999/xlink" x="0px" y="0px"
	 viewBox="0 0 512 512" style="enable-background:new 0 0 512 512;" xml:space="preserve">
<path style="fill:#6E6E6E;" d="M482,502H30c-11.046,0-20-8.954-20-20V30c0-11.046,8.954-20,20-20h452c11.046,0,20,8.954,20,20v452
	C502,493.046,493.046,502,482,502z"/>
<g>
	<polygon style="fill:#FFFFFF;" points="273.996,302.998 193,128 92,128 140.5,182 238.333,390 239.917,390 	"/>
	<polyline style="fill:#FFFFFF;" points="323,182.395 323,356.333 293.667,390 425,390 395.667,357.667 395.667,158.333 
		427.167,126.833 343,126.833 	"/>
	<polygon style="fill:#FFFFFF;" points="92,390 191.667,390 140.5,329 	"/>
</g>
<path d="M482,512H30c-16.542,0-30-13.458-30-30V30C0,13.458,13.458,0,30,0h452c16.542,0,30,13.458,30,30v452
	C512,498.542,498.542,512,482,512z M30,20c-5.514,0-10,4.486-10,10v452c0,5.514,4.486,10,10,10h452c5.514,0,10-4.486,10-10V30
	c0-5.514-4.486-10-10-10H30z"/>
<path d="M395.67,269c-2.64,0-5.21-1.07-7.07-2.931c-1.87-1.859-2.93-4.439-2.93-7.069s1.06-5.21,2.93-7.07
	c1.86-1.86,4.43-2.93,7.07-2.93c2.63,0,5.21,1.069,7.07,2.93s2.93,4.44,2.93,7.07s-1.07,5.21-2.93,7.069
	C400.88,267.93,398.3,269,395.67,269z"/>
<path d="M405.667,353.807v-43.474c0-5.522-4.477-10-10-10s-10,4.478-10,10v47.334c0,2.484,0.925,4.879,2.594,6.719L402.426,380
	h-86.783l14.897-17.098c1.586-1.821,2.46-4.154,2.46-6.569V182.396c0-0.708-0.076-1.398-0.216-2.064l17.039-43.499h53.202
	l-14.429,14.429c-1.875,1.876-2.929,4.419-2.929,7.071V203c0,5.522,4.477,10,10,10s10-4.478,10-10v-40.524l28.571-28.571
	c2.86-2.86,3.715-7.161,2.167-10.898c-1.548-3.736-5.194-6.173-9.239-6.173H343c-4.21,0-7.805,2.605-9.28,6.288
	c-0.01,0.024-0.021,0.04-0.031,0.065l-60.431,154.278l-71.184-153.667C200.437,120.262,196.896,118,193,118H92
	c-3.947,0-7.525,2.322-9.133,5.927s-0.944,7.818,1.693,10.755l45.94,51.15v139.677l-46.328,58.268
	c-2.389,3.005-2.847,7.111-1.179,10.569C84.662,397.803,88.162,400,92,400h99.667c3.886,0,7.42-2.251,9.063-5.773
	c1.643-3.521,1.096-7.676-1.401-10.653L150.5,325.361v-98.605l78.785,167.5c1.649,3.506,5.174,5.744,9.049,5.744h1.583
	c4.115,0,7.81-2.521,9.311-6.353L313,230.84v121.748l-26.873,30.843c-2.575,2.956-3.186,7.144-1.563,10.711
	c1.624,3.568,5.182,5.858,9.102,5.858H425c3.957,0,7.541-2.332,9.143-5.95c1.603-3.617,0.921-7.839-1.737-10.769L405.667,353.807z
	 M170.227,380h-57.5l27.98-35.192L170.227,380z M238.359,366.559l-88.81-188.814c-0.415-0.883-0.957-1.7-1.609-2.426L114.423,138
	h72.188l76.065,164.203c0.155,0.335,0.326,0.657,0.512,0.966L238.359,366.559z"/>
<path d="M319.5,68H238c-5.523,0-10-4.478-10-10s4.477-10,10-10h81.5c5.523,0,10,4.478,10,10S325.023,68,319.5,68z"/>
<path d="M192.618,68H192.5c-5.523,0-10-4.478-10-10s4.477-10,10-10h0.118c5.523,0,10,4.478,10,10S198.141,68,192.618,68z"/>
<g>
</g>
<g>
</g>
<g>
</g>
<g>
</g>
<g>
</g>
<g>
</g>
<g>
</g>
<g>
</g>
<g>
</g>
<g>
</g>
<g>
</g>
<g>
</g>
<g>
</g>
<g>
</g>
<g>
</g>
</svg>
