<?xml version="1.0" encoding="iso-8859-1"?>
<!-- Generator: Adobe Illustrator 19.0.0, SVG Export Plug-In . SVG Version: 6.00 Build 0)  -->
<svg version="1.1" id="Capa_1" xmlns="http://www.w3.org/2000/svg" xmlns:xlink="http://www.w3.org/1999/xlink" x="0px" y="0px"
	 viewBox="0 0 512 512" style="enable-background:new 0 0 512 512;" xml:space="preserve">
<g>
	<path style="fill:#6E87F5;" d="M256,154.887c-26.073-26.028-62.145-42.137-102-42.137c-79.529,0-144,64.135-144,143.25
		s64.471,143.25,144,143.25c39.855,0,75.927-16.109,102-42.137c-25.954-25.909-42-61.646-42-101.113S230.046,180.796,256,154.887z"
		/>
	<path style="fill:#6E87F5;" d="M358,112.75c-39.855,0-75.927,16.109-102,42.137c25.954,25.909,42,61.646,42,101.113
		s-16.046,75.204-42,101.113c26.073,26.028,62.145,42.137,102,42.137c79.529,0,144-64.135,144-143.25S437.529,112.75,358,112.75z"/>
</g>
<g>
	<path style="fill:#FFFFFF;" d="M172.875,229.575v-115.6c-6.178-0.805-12.477-1.225-18.875-1.225c-7.177,0-14.229,0.53-21.125,1.539
		v115.287c0,55.605-34.515,104.289-83.699,124.631c10.25,10.823,22.174,20.057,35.361,27.296c15.4-8.767,29.51-19.913,41.808-33.195
		c10.56-11.404,19.442-24.021,26.529-37.505c7.088,13.484,15.97,26.101,26.529,37.505c12.593,13.6,27.088,24.954,42.92,33.814
		c12.438-6.683,23.779-15.129,33.676-25.009c-1.77-1.767-3.489-3.583-5.164-5.439C204.726,330.021,172.875,282.992,172.875,229.575z
		"/>
	<path style="fill:#FFFFFF;" d="M339.409,229.575v-115.6c6.178-0.805,12.477-1.225,18.875-1.225c7.177,0,14.229,0.53,21.125,1.539
		v115.287c0,55.605,34.515,104.289,83.699,124.631c-10.25,10.823-22.174,20.057-35.361,27.296
		c-15.4-8.767-29.51-19.913-41.808-33.195c-10.56-11.404-19.442-24.021-26.529-37.505c-7.088,13.484-15.97,26.101-26.529,37.505
		c-12.593,13.6-27.088,24.954-42.92,33.814c-12.438-6.683-23.779-15.129-33.676-25.009c1.77-1.767,3.489-3.583,5.164-5.439
		C307.558,330.021,339.409,282.992,339.409,229.575z"/>
</g>
<path style="fill:#FF5A5A;" d="M256,154.887c-25.954,25.909-42,61.646-42,101.113s16.046,75.204,42,101.113
	c25.954-25.909,42-61.646,42-101.113S281.954,180.796,256,154.887z"/>
<path d="M52.113,164.831c-2.708,0-5.304-1.115-7.125-2.937c-3.466-3.466-4.378-9.739,0.095-14.239
	c4.474-4.5,10.752-3.625,14.238-0.181c3.486,3.445,4.436,9.713-0.009,14.239c-0.028,0.028-0.057,0.058-0.085,0.086
	C57.091,163.922,54.557,164.831,52.113,164.831z"/>
<path d="M397.072,305.916c-3.472,0-6.846-1.811-8.692-5.041l-0.366-0.646c-2.712-4.812-1.011-10.91,3.8-13.622
	s10.91-1.011,13.622,3.8l0.309,0.546c2.74,4.795,1.074,10.903-3.721,13.644C400.459,305.491,398.754,305.916,397.072,305.916z"/>
<path d="M358,102.75c-37.975,0-73.83,13.589-102,38.444c-28.171-24.854-64.026-38.444-102-38.444
	c-24.685,0-48.269,5.64-70.096,16.762c-4.921,2.508-6.877,8.529-4.37,13.45s8.531,6.874,13.45,4.37
	c9.595-4.889,19.584-8.556,29.891-10.992v103.235c0,47.495-28.302,91.822-71.089,112.486C31.972,318.826,20,288.78,20,256
	c0-23.71,6.338-46.987,18.33-67.315c2.806-4.757,1.224-10.889-3.533-13.694c-4.758-2.806-10.888-1.225-13.694,3.532
	C7.297,201.928,0,228.719,0,256c0,84.502,69.084,153.25,154,153.25c37.975,0,73.83-13.589,102-38.444
	c28.171,24.855,64.026,38.444,102,38.444c84.916,0,154-68.748,154-153.25S442.917,102.75,358,102.75z M329.409,125.78v103.795
	c0,31.259-11.994,60.947-32.437,83.559C304.204,295.207,308,275.892,308,256c0-37.375-13.373-72.72-37.85-100.621
	C287.255,140.566,307.547,130.481,329.409,125.78z M214.792,312.546c-20.124-22.538-31.917-51.979-31.917-82.97V125.84
	c21.754,4.727,41.944,14.79,58.975,29.539C217.373,183.28,204,218.625,204,256C204,275.675,207.714,294.784,214.792,312.546z
	 M154,389.25c-17.192,0-33.636-3.24-48.752-9.131c10.277-7.322,19.799-15.69,28.435-25.017c7.086-7.652,13.506-15.879,19.192-24.584
	c5.686,8.705,12.106,16.932,19.192,24.584c8.872,9.582,18.68,18.15,29.286,25.615C186.422,386.318,170.441,389.25,154,389.25z
	 M222.44,370.603c-13.183-7.969-25.178-17.728-35.699-29.089c-9.863-10.651-18.279-22.55-25.015-35.363
	c-1.729-3.288-5.137-5.348-8.852-5.348s-7.124,2.06-8.852,5.348c-6.736,12.813-15.152,24.712-25.015,35.363
	c-10.208,11.024-21.8,20.545-34.507,28.376c-6.318-3.827-12.293-8.161-17.871-12.941c20.372-11.025,37.857-26.782,51.101-46.199
	c16.449-24.116,25.144-52.186,25.144-81.174V123.205c3.678-0.296,7.386-0.454,11.125-0.454c2.975,0,5.933,0.105,8.875,0.295v106.53
	c0,53.554,30.288,103.121,77.695,128.132C234.853,362.536,228.788,366.838,222.44,370.603z M256,342.426
	c-20.707-24.091-32-54.406-32-86.426s11.293-62.335,32-86.426c20.707,24.091,32,54.406,32,86.426S276.707,318.335,256,342.426z
	 M358,389.25c-16.373,0-32.29-2.908-47.167-8.464c10.644-7.481,20.484-16.073,29.384-25.685c7.086-7.652,13.506-15.88,19.192-24.584
	c5.685,8.703,12.105,16.932,19.192,24.584c8.609,9.297,18.098,17.641,28.338,24.947C391.771,385.986,375.262,389.25,358,389.25z
	 M460.284,341.98c-12.904-6.235-24.583-14.608-34.788-24.968c-3.875-3.935-10.207-3.982-14.142-0.106
	c-3.935,3.875-3.982,10.207-0.107,14.142c10.195,10.35,21.667,18.99,34.229,25.813c-5.567,4.781-11.531,9.114-17.838,12.944
	c-12.651-7.814-24.193-17.307-34.363-28.29c-9.864-10.653-18.281-22.552-25.015-35.363c-1.728-3.288-5.137-5.348-8.852-5.348
	s-7.123,2.06-8.852,5.348c-6.735,12.813-15.151,24.711-25.015,35.363c-10.558,11.402-22.603,21.188-35.841,29.173
	c-6.358-3.761-12.434-8.06-18.16-12.886c47.507-24.982,77.868-74.605,77.868-128.225V123.028c2.848-0.178,5.712-0.278,8.591-0.278
	c3.843,0,7.647,0.171,11.409,0.488v106.337c0,8.186,0.706,16.414,2.098,24.457c0.842,4.865,5.067,8.297,9.842,8.297
	c0.566,0,1.14-0.049,1.717-0.148c5.442-0.941,9.09-6.117,8.148-11.559c-1.197-6.92-1.805-14.001-1.805-21.047V126.456
	C448.193,140.55,492,193.28,492,256C492,288.741,480.057,318.756,460.284,341.98z"/>
<g>
</g>
<g>
</g>
<g>
</g>
<g>
</g>
<g>
</g>
<g>
</g>
<g>
</g>
<g>
</g>
<g>
</g>
<g>
</g>
<g>
</g>
<g>
</g>
<g>
</g>
<g>
</g>
<g>
</g>
</svg>
