<?xml version="1.0" encoding="iso-8859-1"?>
<!-- Generator: Adobe Illustrator 19.0.0, SVG Export Plug-In . SVG Version: 6.00 Build 0)  -->
<svg version="1.1" id="Capa_1" xmlns="http://www.w3.org/2000/svg" xmlns:xlink="http://www.w3.org/1999/xlink" x="0px" y="0px"
	 viewBox="0 0 512 512" style="enable-background:new 0 0 512 512;" xml:space="preserve">
<g>
	<polygon style="fill:#A5DC69;" points="424.268,502 313.268,304 478.506,10 373.875,10 208.637,304 319.637,502 	"/>
	<polygon style="fill:#A5DC69;" points="424.268,502 313.268,304 478.506,10 373.875,10 208.637,304 319.637,502 	"/>
</g>
<polygon style="fill:#6E87F5;" points="116.812,208 33.494,357.167 132.639,357.167 221.443,208 158.827,105.167 59.681,105.167 "/>
<path d="M424.269,512H319.637c-3.618,0-6.954-1.954-8.723-5.11l-111-198c-1.705-3.041-1.703-6.75,0.005-9.789l165.238-294
	C366.929,1.95,370.262,0,373.876,0h104.631c3.552,0,6.837,1.884,8.631,4.95c1.793,3.065,1.827,6.853,0.086,9.949L424.32,126.822
	c-2.706,4.815-8.802,6.522-13.617,3.818c-4.814-2.706-6.524-8.803-3.818-13.617L461.415,20h-81.688L220.105,304.006L325.496,492
	h81.703L304.546,308.89c-1.705-3.041-1.703-6.75,0.005-9.789l60.111-106.952c2.706-4.813,8.802-6.522,13.617-3.818
	c4.814,2.706,6.524,8.803,3.818,13.617l-57.36,102.059L432.991,497.11c1.736,3.097,1.7,6.881-0.094,9.944S427.818,512,424.269,512z"
	/>
<path d="M396.16,166.52c-2.64,0-5.21-1.06-7.08-2.93c-1.86-1.86-2.93-4.44-2.93-7.07s1.07-5.2,2.93-7.069
	c1.86-1.86,4.44-2.931,7.08-2.931c2.63,0,5.21,1.07,7.07,2.931c1.86,1.859,2.92,4.439,2.92,7.069c0,2.641-1.06,5.21-2.92,7.07
	C401.36,165.46,398.79,166.52,396.16,166.52z"/>
<path d="M229.984,202.799L167.368,99.966c-1.814-2.98-5.052-4.799-8.541-4.799H59.681c-3.543,0-6.822,1.875-8.619,4.929
	s-1.844,6.83-0.123,9.928l54.426,97.964L24.763,352.291c-1.73,3.097-1.689,6.878,0.106,9.938s5.077,4.938,8.625,4.938h99.146
	c3.525,0,6.79-1.855,8.593-4.885l88.804-149.167C231.931,209.933,231.911,205.963,229.984,202.799z M126.955,347.167h-24.096
	l33.338-59.619c2.695-4.82,0.973-10.913-3.848-13.609c-4.82-2.694-10.914-0.972-13.608,3.848l-38.797,69.381H50.533l75.009-134.291
	c1.689-3.023,1.693-6.705,0.011-9.732l-48.877-87.977h76.532l56.563,92.892L126.955,347.167z"/>
<path d="M145.5,260.3c-2.63,0-5.21-1.06-7.07-2.92c-1.86-1.87-2.93-4.44-2.93-7.08c0-2.63,1.07-5.21,2.93-7.07
	c1.86-1.859,4.43-2.93,7.07-2.93c2.63,0,5.21,1.07,7.07,2.93c1.86,1.86,2.93,4.44,2.93,7.07c0,2.64-1.07,5.21-2.93,7.08
	C150.71,259.24,148.13,260.3,145.5,260.3z"/>
<g>
</g>
<g>
</g>
<g>
</g>
<g>
</g>
<g>
</g>
<g>
</g>
<g>
</g>
<g>
</g>
<g>
</g>
<g>
</g>
<g>
</g>
<g>
</g>
<g>
</g>
<g>
</g>
<g>
</g>
</svg>
