<?xml version="1.0" encoding="iso-8859-1"?>
<!-- Generator: Adobe Illustrator 19.0.0, SVG Export Plug-In . SVG Version: 6.00 Build 0)  -->
<svg version="1.1" id="Capa_1" xmlns="http://www.w3.org/2000/svg" xmlns:xlink="http://www.w3.org/1999/xlink" x="0px" y="0px"
	 viewBox="0 0 512 512" style="enable-background:new 0 0 512 512;" xml:space="preserve">
<path style="fill:#78D2FA;" d="M400.25,181.835L400.25,181.835h-42v89c0,8.837-7.163,16-16,16s-16-7.163-16-16v-89h-42v42.938
	c-13.039-38.812-49.712-66.771-92.917-66.771c-24.761,0-47.373,9.187-64.625,24.333H10v48h25.941v100.625h48V230.335h12.795
	c-2.215,8.181-3.403,16.785-3.403,25.667c0,54.124,43.876,98,98,98c44.034,0,81.283-29.043,93.641-69.017
	c4.388,27.684,28.357,48.85,57.275,48.85l0,0c32.032,0,58-25.967,58-58v-45.5h27.809v100.625h48V230.335H502v-48.5H400.25z
	 M191.333,309.002c-29.271,0-53-23.729-53-53s23.729-53,53-53s53,23.729,53,53S220.604,309.002,191.333,309.002z"/>
<path d="M192.328,363.997c-5.469,0-9.934-4.4-9.997-9.883c-0.064-5.522,4.359-10.052,9.882-10.116l0.914-0.015
	c5.503-0.114,10.089,4.271,10.203,9.793c0.113,5.521-4.271,10.09-9.793,10.203l-1.09,0.017
	C192.407,363.997,192.367,363.997,192.328,363.997z M153.184,356.302c-1.3,0-2.62-0.255-3.892-0.793
	c-24.815-10.496-44.193-29.476-55.351-52.736v28.187c0,5.522-4.478,10-10,10h-48c-5.522,0-10-4.478-10-10v-90.625H10
	c-5.522,0-10-4.478-10-10v-48c0-5.522,4.478-10,10-10h113.045c19.243-15.718,43.343-24.333,68.288-24.333
	c32.727,0,62.818,14.673,82.917,38.731v-4.898c0-5.522,4.478-10,10-10h42c5.522,0,10,4.478,10,10v89c0,3.309,2.691,6,6,6
	s6-2.691,6-6v-89c0-5.522,4.478-10,10-10h42c5.522,0,10,4.478,10,10s-4.478,10-10,10h-32v79c0,14.337-11.663,26-26,26
	s-26-11.663-26-26v-79h-22v32.938c0,4.9-3.551,9.078-8.387,9.869c-4.834,0.791-9.531-2.04-11.093-6.685
	c-12.048-35.861-45.579-59.955-83.438-59.955c-21.372,0-41.98,7.759-58.027,21.848c-1.824,1.602-4.17,2.485-6.598,2.485H20v28
	h15.941c5.522,0,10,4.478,10,10v90.625h28v-90.625c0-5.522,4.478-10,10-10h12.795c3.113,0,6.049,1.45,7.941,3.923
	s2.524,5.685,1.711,8.69c-2.027,7.49-3.056,15.247-3.056,23.054c0,35.448,21.098,67.277,53.75,81.088
	c5.087,2.151,7.466,8.019,5.314,13.105C160.784,354.01,157.08,356.302,153.184,356.302z M235.11,353.709
	c-3.669,0-7.2-2.025-8.952-5.529c-2.47-4.94-0.468-10.947,4.472-13.417c21.415-10.708,37.741-29.928,44.791-52.732
	c1.372-4.442,5.596-7.363,10.267-7.021c4.638,0.331,8.436,3.816,9.164,8.409c3.712,23.419,23.646,40.416,47.398,40.416
	c26.467,0,48-21.533,48-48v-45.5c0-5.522,4.478-10,10-10h27.809c5.522,0,10,4.478,10,10v90.625h28v-90.625c0-5.522,4.478-10,10-10
	H492v-28.5h-16.5c-5.522,0-10-4.478-10-10s4.478-10,10-10H502c5.522,0,10,4.478,10,10v48.5c0,5.522-4.478,10-10,10h-15.941v90.625
	c0,5.522-4.478,10-10,10h-48c-5.522,0-10-4.478-10-10v-90.625h-7.809v35.5c0,37.495-30.505,68-68,68
	c-16.286,0-32.042-5.849-44.365-16.469c-5.431-4.68-10.048-10.152-13.721-16.183c-10.521,17.63-25.991,32.169-44.589,41.469
	C238.14,353.37,236.613,353.709,235.11,353.709z M191.333,319.002c-34.738,0-63-28.262-63-63c0-34.738,28.262-63,63-63
	s63,28.262,63,63C254.333,290.74,226.071,319.002,191.333,319.002z M191.333,213.001c-23.71,0-43,19.29-43,43s19.29,43,43,43
	s43-19.29,43-43C234.333,232.292,215.043,213.001,191.333,213.001z"/>
<g>
</g>
<g>
</g>
<g>
</g>
<g>
</g>
<g>
</g>
<g>
</g>
<g>
</g>
<g>
</g>
<g>
</g>
<g>
</g>
<g>
</g>
<g>
</g>
<g>
</g>
<g>
</g>
<g>
</g>
</svg>
