<?xml version="1.0" encoding="iso-8859-1"?>
<!-- Generator: Adobe Illustrator 19.0.0, SVG Export Plug-In . SVG Version: 6.00 Build 0)  -->
<svg version="1.1" id="Capa_1" xmlns="http://www.w3.org/2000/svg" xmlns:xlink="http://www.w3.org/1999/xlink" x="0px" y="0px"
	 viewBox="0 0 512.001 512.001" style="enable-background:new 0 0 512.001 512.001;" xml:space="preserve">
<path style="fill:#4BB9F5;" d="M493.691,226.401L387.186,50.834c-2.174-3.585-6.063-5.774-10.257-5.774H297.09
	c-9.212,0-14.884,10.073-10.105,17.95l87.965,145.004H207.166l-95.35-157.18c-2.174-3.585-6.063-5.774-10.257-5.774H22.035
	c-9.351,0-15.107,10.224-10.257,18.219l98.955,163.122c11.035,18.191,11.035,41.009,0,59.199L11.778,448.722
	c-4.85,7.995,0.906,18.219,10.257,18.219h79.524c4.193,0,8.082-2.189,10.257-5.774l95.351-157.18h167.784l-87.801,144.735
	c-4.85,7.995,0.906,18.219,10.257,18.219h79.524c4.193,0,8.082-2.189,10.257-5.774L493.691,285.6
	C504.726,267.409,504.726,244.591,493.691,226.401z"/>
<path d="M376.929,476.938h-79.524c-8.052,0-15.216-4.188-19.166-11.205c-3.95-7.015-3.814-15.313,0.361-22.196l78.591-129.554
	H212.795l-92.432,152.367c-3.963,6.53-11.168,10.587-18.805,10.587H22.035c-8.052,0-15.216-4.188-19.166-11.205
	c-3.95-7.015-3.814-15.313,0.361-22.196l98.955-163.122c9.135-15.06,9.135-33.769,0-48.83l-29.632-48.844
	c-2.863-4.721-1.358-10.869,3.362-13.732c4.724-2.864,10.87-1.358,13.732,3.362l29.632,48.844c13.016,21.456,13.016,48.114,0,69.57
	L20.325,453.908c-0.402,0.663-0.413,1.343-0.033,2.018c0.381,0.676,0.967,1.019,1.743,1.019h79.524c0.694,0,1.35-0.369,1.71-0.964
	l95.351-157.179c1.812-2.987,5.054-4.812,8.548-4.812h167.784c3.61,0,6.94,1.946,8.712,5.093c1.77,3.146,1.709,7.003-0.164,10.09
	l-87.801,144.735c-0.402,0.663-0.413,1.343-0.033,2.018c0.381,0.676,0.967,1.019,1.743,1.019h79.524c0.694,0,1.35-0.369,1.71-0.964
	l106.504-175.565c9.135-15.06,9.135-33.769,0-48.83L378.638,56.02c-0.36-0.594-1.016-0.963-1.71-0.963h-79.838
	c-0.707,0-1.242,0.313-1.589,0.929c-0.347,0.616-0.337,1.235,0.03,1.838l87.964,145.005c1.872,3.087,1.935,6.943,0.164,10.09
	c-1.771,3.145-5.102,5.093-8.712,5.093H207.167c-3.494,0-6.735-1.824-8.548-4.812L103.268,56.02c-0.36-0.594-1.016-0.963-1.71-0.963
	H22.035c-0.776,0-1.362,0.343-1.743,1.019c-0.38,0.676-0.369,1.355,0.033,2.018l31.086,51.245
	c2.863,4.721,1.358,10.869-3.362,13.732c-4.722,2.865-10.869,1.359-13.732-3.362L3.23,68.463
	c-4.175-6.883-4.311-15.182-0.361-22.196c3.95-7.017,11.114-11.205,19.166-11.205h79.524c7.637,0,14.842,4.057,18.805,10.586
	l92.432,152.368h144.397L278.439,68.194c-4.143-6.827-4.276-15.059-0.358-22.017c3.918-6.96,11.024-11.115,19.012-11.115h79.838
	c7.637,0,14.842,4.057,18.805,10.586l106.504,175.567c13.016,21.456,13.016,48.114,0,69.57L395.734,466.351
	C391.771,472.882,384.566,476.938,376.929,476.938z"/>
<path d="M62.694,157.217c-2.629,0-5.209-1.069-7.067-2.929c-1.859-1.859-2.93-4.439-2.93-7.068c0-2.639,1.07-5.209,2.93-7.067
	c1.858-1.869,4.438-2.93,7.067-2.93c2.64,0,5.209,1.061,7.068,2.93c1.859,1.858,2.929,4.429,2.929,7.067
	c0,2.629-1.069,5.209-2.929,7.068C67.902,156.148,65.335,157.217,62.694,157.217z"/>
<path d="M310.56,265.998h-83.477c-5.52,0-9.997-4.477-9.997-9.997s4.477-9.997,9.997-9.997h83.477c5.52,0,9.997,4.477,9.997,9.997
	S316.081,265.998,310.56,265.998z"/>
<path d="M354.047,265.998h-0.118c-5.52,0-9.997-4.477-9.997-9.997s4.477-9.997,9.997-9.997h0.118c5.52,0,9.997,4.477,9.997,9.997
	S359.569,265.998,354.047,265.998z"/>
<g>
</g>
<g>
</g>
<g>
</g>
<g>
</g>
<g>
</g>
<g>
</g>
<g>
</g>
<g>
</g>
<g>
</g>
<g>
</g>
<g>
</g>
<g>
</g>
<g>
</g>
<g>
</g>
<g>
</g>
</svg>
