<?xml version="1.0" encoding="iso-8859-1"?>
<!-- Generator: Adobe Illustrator 19.0.0, SVG Export Plug-In . SVG Version: 6.00 Build 0)  -->
<svg version="1.1" id="Capa_1" xmlns="http://www.w3.org/2000/svg" xmlns:xlink="http://www.w3.org/1999/xlink" x="0px" y="0px"
	 viewBox="0 0 512 512" style="enable-background:new 0 0 512 512;" xml:space="preserve">
<g>
	<path style="fill:#FF5A5A;" d="M258.682,225.433l-9.598-187.899c-0.946-18.521-18.794-31.407-36.672-26.477l-86.89,23.96
		c-15.495,4.272-22.365,22.375-13.609,35.852l108.493,166.977C232.011,255.704,259.77,246.702,258.682,225.433z"/>
	<path style="fill:#FF5A5A;" d="M293.574,252.438l62.777-87.259c9.853-13.697,30.301-13.501,39.89,0.383l41.901,60.664
		c9.873,14.295,2.144,34.039-14.81,37.833l-106.367,23.799C296.593,292.418,281.382,269.385,293.574,252.438z"/>
	<path style="fill:#FF5A5A;" d="M297.076,360.983l57.831,94.05c7.919,12.879,26.149,14.167,35.799,2.529l47.763-57.595
		c10.428-12.576,4.973-31.702-10.52-36.885l-104.726-35.027C303.405,321.427,286.13,343.182,297.076,360.983z"/>
	<path style="fill:#FF5A5A;" d="M256.194,478.874V369.203c0-19.474-24.254-28.406-36.883-13.584l-72.708,85.329
		c-9.016,10.581-4.928,26.893,8.012,31.972l70.01,27.478C239.792,506.351,256.194,495.169,256.194,478.874z"/>
	<path style="fill:#FF5A5A;" d="M104.086,241.18l102.381,41.531c17.08,6.928,16.322,31.365-1.155,37.222l-108.655,36.41
		c-14.003,4.692-28.483-5.727-28.483-20.495v-70.481C68.174,246.848,86.924,234.219,104.086,241.18z"/>
</g>
<path d="M237.675,257.377c-10.183,0-19.797-5.07-25.652-14.083l-27.656-42.565c-3.009-4.631-1.693-10.824,2.938-13.835
	c4.633-3.009,10.825-1.693,13.835,2.938l27.656,42.565c4.198,6.46,10.569,5.002,12.425,4.401c1.854-0.601,7.869-3.16,7.476-10.855
	l-9.598-187.9c-0.295-5.783-3.157-11.044-7.853-14.436c-4.695-3.39-10.591-4.45-16.174-2.911l-86.89,23.96
	c-4.276,1.179-7.633,4.234-9.207,8.382c-1.574,4.148-1.09,8.66,1.327,12.381l31.601,48.636c3.009,4.631,1.693,10.824-2.938,13.835
	c-4.633,3.008-10.825,1.694-13.835-2.938l-31.601-48.636c-5.93-9.126-7.116-20.198-3.254-30.374
	c3.862-10.177,12.096-17.674,22.59-20.567l86.89-23.96c11.458-3.156,23.561-0.98,33.197,5.978
	c9.638,6.958,15.515,17.759,16.121,29.63l9.598,187.9c0.722,14.121-7.83,26.539-21.281,30.901
	C244.163,256.871,240.889,257.377,237.675,257.377z"/>
<path d="M169.174,168.98c-3.28,0-6.493-1.611-8.406-4.57l-0.138-0.213c-3-4.637-1.672-10.828,2.966-13.828
	c4.636-3.001,10.829-1.671,13.828,2.966l0.138,0.213c3,4.637,1.672,10.828-2.966,13.828
	C172.917,168.462,171.035,168.98,169.174,168.98z"/>
<path d="M311.874,298.428c-10.815,0-20.984-5.351-27.161-14.704c-7.549-11.432-7.258-26.005,0.742-37.126c0.001,0,0.001,0,0.001,0
	l62.777-87.259c6.523-9.067,17.1-14.397,28.258-14.311c11.17,0.107,21.63,5.658,27.978,14.85l41.902,60.664
	c6.528,9.454,7.927,21.485,3.738,32.184c-4.188,10.698-13.383,18.583-24.594,21.092l-106.366,23.8
	C316.717,298.163,314.279,298.428,311.874,298.428z M301.691,258.278c-4.747,6.6-1.421,12.709-0.288,14.424
	c1.132,1.715,5.446,7.173,13.379,5.398l106.366-23.8c4.782-1.07,8.55-4.301,10.336-8.864c1.787-4.563,1.214-9.493-1.571-13.526
	l-41.901-60.663c-2.697-3.905-6.966-6.171-11.714-6.217c-0.048-0.001-0.097-0.001-0.146-0.001c-4.688,0-8.94,2.178-11.685,5.991
	L301.691,258.278z"/>
<path d="M373.801,475.55c-0.779,0-1.562-0.027-2.349-0.083c-10.443-0.737-19.58-6.276-25.064-15.195l-57.831-94.05l0,0
	c-7.217-11.737-6.343-26.293,2.226-37.084c8.566-10.789,22.547-14.939,35.613-10.566l104.726,35.026
	c10.406,3.48,18.416,11.857,21.426,22.41c3.01,10.552,0.625,21.896-6.38,30.342l-47.763,57.595
	C392.225,471.398,383.36,475.55,373.801,475.55z M305.594,355.745l57.831,94.05c2.064,3.357,5.504,5.443,9.436,5.721
	c3.946,0.271,7.631-1.304,10.147-4.338l47.763-57.595c2.832-3.415,3.759-7.821,2.542-12.089c-1.217-4.267-4.328-7.521-8.536-8.928
	l-104.726-35.026c-7.627-2.552-12.343,2.446-13.607,4.037C305.18,343.169,301.382,348.897,305.594,355.745L305.594,355.745z"/>
<path d="M256.193,435.115c-2.63,0-5.21-1.06-7.069-2.93c-1.86-1.86-2.931-4.43-2.931-7.07c0-2.63,1.07-5.21,2.931-7.069
	c1.859-1.86,4.439-2.931,7.069-2.931c2.63,0,5.21,1.07,7.07,2.931c1.86,1.869,2.93,4.439,2.93,7.069c0,2.63-1.069,5.21-2.93,7.07
	C261.404,434.056,258.823,435.115,256.193,435.115z"/>
<path d="M233.075,512c-4.085,0-8.19-0.757-12.105-2.293l-70.01-27.478c-9.079-3.563-15.915-11.338-18.286-20.8
	c-2.372-9.461-0.011-19.543,6.315-26.967l72.709-85.328c8.5-9.979,21.941-13.498,34.244-8.969
	c12.302,4.53,20.251,15.929,20.251,29.038v9.811c0,5.522-4.478,10-10,10c-5.522,0-10-4.478-10-10v-9.811
	c0-7.081-5.481-9.65-7.161-10.269c-1.682-0.619-7.517-2.219-12.109,3.171l-72.709,85.328c-2.174,2.552-2.953,5.881-2.139,9.133
	c0.815,3.252,3.072,5.819,6.192,7.044l70.01,27.478c4.103,1.607,8.544,1.108,12.187-1.373c3.642-2.482,5.73-6.434,5.73-10.841
	v-13.328c0-5.522,4.478-10,10-10c5.522,0,10,4.478,10,10v13.328c0,10.961-5.407,21.192-14.465,27.367
	C246.148,510.048,239.637,512,233.075,512z"/>
<path d="M89.688,367.498c-6.496,0.001-12.87-2.033-18.364-5.986c-8.356-6.014-13.15-15.367-13.15-25.663v-70.481
	c0-12.03,5.957-23.225,15.936-29.944c9.977-6.717,22.589-8.03,33.736-3.509h-0.001l102.382,41.53
	c11.701,4.746,19.01,15.969,18.618,28.59c-0.392,12.621-8.381,23.368-20.355,27.38l-108.656,36.41
	C96.491,366.946,93.072,367.498,89.688,367.498z M94.223,249.238c-3.127,0-6.211,0.936-8.941,2.774
	c-4.517,3.042-7.106,7.909-7.106,13.355v70.481c0,3.782,1.761,7.219,4.831,9.428c3.07,2.21,6.889,2.785,10.473,1.585l108.656-36.41
	c6.035-2.022,6.667-7.428,6.718-9.036c0.05-1.608-0.246-7.043-6.145-9.436l-102.382-41.53c0,0,0,0-0.001,0
	C98.331,249.639,96.268,249.238,94.223,249.238z"/>
<g>
</g>
<g>
</g>
<g>
</g>
<g>
</g>
<g>
</g>
<g>
</g>
<g>
</g>
<g>
</g>
<g>
</g>
<g>
</g>
<g>
</g>
<g>
</g>
<g>
</g>
<g>
</g>
<g>
</g>
</svg>
