<?xml version="1.0" encoding="iso-8859-1"?>
<!-- Generator: Adobe Illustrator 19.0.0, SVG Export Plug-In . SVG Version: 6.00 Build 0)  -->
<svg version="1.1" id="Capa_1" xmlns="http://www.w3.org/2000/svg" xmlns:xlink="http://www.w3.org/1999/xlink" x="0px" y="0px"
	 viewBox="0 0 512.002 512.002" style="enable-background:new 0 0 512.002 512.002;" xml:space="preserve">
<g>
	<path style="fill:#6E6E6E;" d="M111.825,308.027c26.832,0,47.702,11.554,64.099,29.068c3.726,3.727,1.864,8.572-1.864,12.299
		l-18.221,19.789c-3.726,4.1-7.826,2.237-11.18-1.118c-8.199-7.825-15.693-13.576-31.718-13.576
		c-26.832,0-42.127,23.939-42.127,43.352c0,22.852,14.923,44.809,41.755,44.809c19.006,0,29.068-7.542,36.522-16.114
		c2.609-2.982,7.826-3.727,10.807-1.118l16.77,14.162c4.1,3.725,5.963,7.825,2.981,12.297c-14.534,22.733-37.639,36.15-68.198,36.15
		c-50.31,0-90.931-38.385-90.931-90.186C20.521,347.157,60.768,308.027,111.825,308.027z"/>
	<path style="fill:#6E6E6E;" d="M206.058,320.983c0-5.263,4.454-8.907,8.906-8.907h14.575c4.049,0,6.883,2.024,7.692,5.263
		l6.883,17.813c7.692-8.905,24.291-27.125,57.084-27.125c27.125,0,40.485,9.717,55.869,28.341
		c8.097-8.503,26.721-28.341,60.324-28.341c59.918,0,74.088,38.055,74.088,86.639v79.691c0,4.858-4.049,8.907-9.312,8.907h-32.389
		c-4.858,0-8.906-4.049-8.906-8.907v-80.906c0-24.292-8.907-39.271-32.389-39.271c-27.125,0-34.007,19.433-34.007,19.433
		s0,9.312,0,17.813v82.93c0,4.858-4.454,8.907-8.906,8.907h-33.198c-5.263,0-8.907-4.049-8.907-8.907v-80.905
		c0-24.292-6.882-39.271-30.769-39.271c-23.076,0-31.578,16.194-36.031,29.15v91.026c0,4.858-4.454,8.907-8.907,8.907h-32.793
		c-4.453,0-8.906-4.049-8.906-8.907L206.058,320.983L206.058,320.983z"/>
</g>
<path d="M111.452,498.027c-27.178,0-52.507-10.127-71.322-28.516c-19.094-18.662-29.609-44.115-29.609-71.671
	c0-55.97,44.498-99.813,101.304-99.813c27.31,0,51.301,10.813,71.306,32.134c7.043,7.188,6.291,17.883-1.837,26.143l-18.097,19.652
	c-4.055,4.461-8.569,5.494-11.635,5.566c-4.905,0.12-9.553-2.001-13.88-6.294c-7.01-6.684-12.205-10.739-24.739-10.739
	c-20.962,0-32.127,19.369-32.127,33.352c0,16.766,9.937,34.81,31.754,34.81c15.778,0,23.251-6.092,28.977-12.676
	c2.897-3.313,7.139-5.502,11.654-6.026c4.893-0.571,9.689,0.843,13.201,3.873l16.719,14.118c0.093,0.078,0.185,0.158,0.274,0.24
	c12.239,11.123,6.748,21.937,4.642,25.146C170.986,483.951,144.504,498.027,111.452,498.027z M111.824,318.027
	c-45.591,0-81.304,35.059-81.304,79.813c0,44.965,35.55,80.187,80.932,80.187c25.466,0,45.867-10.532,59.083-30.476
	c-0.136-0.141-0.293-0.295-0.475-0.464l-14.772-12.474c-7.452,8.145-19.876,18.036-42.719,18.036
	c-15.362,0-29.058-6.167-38.563-17.364c-8.507-10.021-13.191-23.319-13.191-37.445c0-12.552,4.882-25.471,13.395-35.446
	c9.853-11.547,23.608-17.905,38.732-17.905c19.219,0,28.964,7.243,37.753,15.518l16.009-17.386c0.093-0.101,0.188-0.2,0.284-0.297
	c0.018-0.017,0.034-0.034,0.051-0.051C151.105,325.962,133.021,318.027,111.824,318.027z"/>
<path d="M482.167,493.263h-32.389c-10.425,0-18.906-8.481-18.906-18.907v-80.905c0-24.294-8.95-29.271-22.389-29.271
	c-16.148,0-22.268,8.387-24.007,11.568v98.607c0,10.249-8.658,18.907-18.906,18.907h-33.198c-10.603,0-18.907-8.305-18.907-18.907
	v-80.904c0-24.606-7.299-29.271-20.769-29.271c-12.971,0-20.599,6.073-26.031,20.872v89.304c0,10.249-8.658,18.907-18.907,18.907
	h-32.794c-10.248,0-18.906-8.658-18.906-18.907V320.983c0-10.426,8.481-18.907,18.906-18.907h14.575
	c8.35,0,15.019,4.73,17.198,12.119l1.124,2.91c10.649-9.101,27.72-19.078,53.337-19.078c26.597,0,41.979,8.582,56.344,23.743
	c11.206-10.315,30.381-23.743,59.849-23.743c31.134,0,53.903,9.866,67.676,29.323c11.197,15.82,16.413,37.21,16.413,67.315v79.69
	C501.479,484.782,492.816,493.263,482.167,493.263z M450.872,473.263h30.607v-78.598c0-54.435-18.567-76.639-64.089-76.639
	c-29.057,0-45.154,16.91-52.892,25.037l-0.189,0.199c-1.972,2.071-4.732,3.203-7.595,3.099c-2.857-0.102-5.536-1.421-7.357-3.625
	c-13.83-16.742-24.563-24.71-48.159-24.71c-29.079,0-43.4,16.581-49.516,23.661c-2.297,2.658-5.821,3.919-9.278,3.316
	c-3.46-0.601-6.353-2.973-7.618-6.248l-6.444-16.681h-12.284v151.188h30.607v-89.933c0-1.105,0.184-2.204,0.543-3.25
	c8.186-23.821,23.49-35.9,45.488-35.9c40.769,0,40.769,37.085,40.769,49.271v79.812h31.012v-99.649c0-1.138,0.194-2.267,0.574-3.339
	c0.377-1.065,9.63-26.095,43.433-26.095c15.831,0,42.389,6.401,42.389,49.271v79.813H450.872z"/>
<g>
	<polygon style="fill:#6E87F5;" points="146.47,190.048 10,130.524 255.879,23.976 502,131.269 365.407,191.621 	"/>
	<path style="fill:#6E87F5;" d="M214.266,141.802c0,0-34.778,2.563-63.333,28.555c0-0.282-8.587,55.569-12.54,81.299
		c-0.982,6.392,4.392,11.956,10.815,11.206l17.833-2.082c0,0,59.672-13.545,88.959-13.545s88.959,13.545,88.959,13.545l17.833,2.082
		c6.423,0.75,11.797-4.815,10.815-11.206c-3.954-25.73-12.54-81.581-12.54-81.299c-28.555-25.992-63.333-28.555-63.333-28.555
		H214.266z"/>
</g>
<path d="M147.586,80.908c-3.859,0-7.536-2.248-9.174-6.013c-2.204-5.064,0.114-10.956,5.179-13.16l0.339-0.146
	c5.062-2.205,10.956,0.114,13.159,5.179c2.204,5.064-0.114,10.956-5.179,13.16l-0.339,0.146
	C150.272,80.64,148.918,80.908,147.586,80.908z"/>
<path d="M146.465,200.05c-1.335,0-2.691-0.27-3.993-0.837L6.002,139.69c-3.649-1.592-6.007-5.196-6.002-9.178
	c0.005-3.981,2.371-7.581,6.023-9.164l100.491-43.546c5.065-2.193,10.956,0.132,13.151,5.199c2.195,5.068-0.132,10.956-5.199,13.152
	l-79.386,34.4l115.387,50.327c5.063,2.208,7.376,8.102,5.168,13.164C153.995,197.806,150.321,200.05,146.465,200.05z"/>
<path d="M505.996,122.102L259.875,14.809c-2.542-1.108-5.43-1.111-7.972-0.009l-74.122,32.119
	c-5.067,2.196-7.395,8.084-5.199,13.151c2.196,5.068,8.081,7.393,13.152,5.2l70.133-30.392l221.25,96.451l-104.789,46.3
	c-0.416-2.68-0.754-4.86-0.991-6.38l-0.29-1.839c-0.476-2.986-1.721-5.051-3.253-6.444l0.005-0.006
	c-30.754-27.994-67.769-31.018-69.33-31.132c-5.505-0.415-10.302,3.73-10.707,9.238c-0.406,5.508,3.729,10.302,9.238,10.707
	c0.303,0.022,29.584,2.411,54.757,23.713c1.683,10.806,6.983,45.254,11.924,77.41l-17.037-1.988
	c-6.411-1.44-61.735-13.675-90.644-13.675s-84.232,12.234-90.644,13.675l-17.037,1.987c4.939-32.149,10.24-66.599,11.924-77.407
	c24.897-21.043,54.272-23.674,54.781-23.717c5.496-0.418,9.619-5.206,9.214-10.705c-0.405-5.509-5.223-9.652-10.707-9.238
	c-1.562,0.114-38.576,3.138-69.33,31.132l0.005,0.006c-1.531,1.394-2.777,3.459-3.253,6.444l-0.29,1.839
	c-0.246,1.575-0.6,3.854-1.036,6.668c-0.869,5.618-2.066,13.377-3.385,21.938c-2.638,17.119-5.762,37.446-7.733,50.279
	c-0.946,6.156,0.99,12.257,5.313,16.739c3.775,3.915,8.851,6.056,14.197,6.056c0.777,0,1.562-0.045,2.348-0.137l17.834-2.081
	c0.354-0.041,0.706-0.102,1.054-0.181c0.587-0.133,58.923-13.298,86.746-13.298s86.159,13.165,86.746,13.298
	c0.348,0.079,0.699,0.14,1.054,0.181l17.833,2.081c6.194,0.724,12.221-1.435,16.546-5.919c4.322-4.482,6.259-10.583,5.313-16.738
	c-1.972-12.834-5.096-33.161-7.733-50.28c-0.091-0.594-0.181-1.173-0.271-1.758l53.598-23.682c1.557,3.499,5.058,5.943,9.135,5.943
	c5.522,0,10-4.478,10-10v-4.397l57.821-25.547c3.631-1.604,5.969-5.202,5.959-9.171C511.99,127.276,509.634,123.688,505.996,122.102
	z"/>
<path d="M438.22,280.14c-5.522,0-10-4.478-10-10v-34.703c0-5.522,4.478-10,10-10s10,4.478,10,10v34.703
	C448.22,275.662,443.742,280.14,438.22,280.14z"/>
<path d="M438.22,212.361c-2.63,0-5.21-1.06-7.07-2.93c-1.859-1.86-2.93-4.43-2.93-7.07c0-2.63,1.07-5.21,2.93-7.069
	c1.86-1.86,4.431-2.92,7.07-2.92c2.63,0,5.21,1.06,7.07,2.92c1.859,1.859,2.93,4.439,2.93,7.069c0,2.631-1.07,5.21-2.93,7.07
	C443.43,211.301,440.85,212.361,438.22,212.361z"/>
<g>
</g>
<g>
</g>
<g>
</g>
<g>
</g>
<g>
</g>
<g>
</g>
<g>
</g>
<g>
</g>
<g>
</g>
<g>
</g>
<g>
</g>
<g>
</g>
<g>
</g>
<g>
</g>
<g>
</g>
</svg>
