<?xml version="1.0" encoding="iso-8859-1"?>
<!-- Generator: Adobe Illustrator 19.0.0, SVG Export Plug-In . SVG Version: 6.00 Build 0)  -->
<svg version="1.1" id="Capa_1" xmlns="http://www.w3.org/2000/svg" xmlns:xlink="http://www.w3.org/1999/xlink" x="0px" y="0px"
	 viewBox="0 0 512 512" style="enable-background:new 0 0 512 512;" xml:space="preserve">
<polygon style="fill:#A5DC69;" points="433.141,68 433.141,10 328.859,10 285.657,85 78.859,85 78.859,205 216.532,205 78.859,444 
	78.859,502 183.141,502 227.496,425 433.141,425 433.141,305 296.62,305 "/>
<path d="M372.126,153.889c-2.757,4.785-1.112,10.899,3.674,13.656c4.784,2.758,10.9,1.111,13.656-3.674l52.35-90.88
	c0.875-1.518,1.335-3.239,1.335-4.991V10c0-5.522-4.478-10-10-10H328.859c-3.576,0-6.88,1.91-8.665,5.009L279.876,75H78.859
	c-5.522,0-10,4.478-10,10v120c0,5.522,4.478,10,10,10h120.372L70.194,439.009c-0.875,1.518-1.335,3.239-1.335,4.991v58
	c0,5.522,4.478,10,10,10H183.14c3.576,0,6.88-1.91,8.665-5.009L233.275,435H433.14c5.522,0,10-4.478,10-10V305
	c0-5.522-4.478-10-10-10H313.92l34.345-59.623c2.757-4.785,1.112-10.899-3.674-13.656c-4.785-2.759-10.9-1.111-13.656,3.674
	l-42.98,74.614c-1.782,3.094-1.779,6.904,0.007,9.995c1.787,3.092,5.087,4.996,8.658,4.996h126.521v100H227.495
	c-3.576,0-6.88,1.91-8.665,5.009L177.36,492H88.859v-45.326l136.338-236.683c1.782-3.094,1.779-6.904-0.007-9.995
	c-1.787-3.092-5.087-4.996-8.658-4.996H88.859v-52.25h83.397c5.522,0,10-4.478,10-10s-4.478-10-10-10H88.859V95h196.797
	c3.576,0,6.88-1.91,8.665-5.009L334.64,20h88.501v45.326L372.126,153.889z"/>
<path d="M353.45,186.99c-1.86,1.859-2.931,4.439-2.931,7.069s1.07,5.21,2.931,7.07c1.869,1.86,4.449,2.93,7.069,2.93
	c2.641,0,5.21-1.069,7.08-2.93c1.86-1.86,2.931-4.44,2.931-7.07s-1.07-5.21-2.931-7.069c-1.87-1.86-4.439-2.931-7.08-2.931
	C357.89,184.06,355.319,185.13,353.45,186.99z"/>
<path d="M215.639,122.75c-5.522,0-10,4.478-10,10s4.478,10,10,10h0.118c5.522,0,10-4.478,10-10s-4.478-10-10-10H215.639z"/>
<g>
</g>
<g>
</g>
<g>
</g>
<g>
</g>
<g>
</g>
<g>
</g>
<g>
</g>
<g>
</g>
<g>
</g>
<g>
</g>
<g>
</g>
<g>
</g>
<g>
</g>
<g>
</g>
<g>
</g>
</svg>
