<?xml version="1.0" encoding="iso-8859-1"?>
<!-- Generator: Adobe Illustrator 19.0.0, SVG Export Plug-In . SVG Version: 6.00 Build 0)  -->
<svg version="1.1" id="Capa_1" xmlns="http://www.w3.org/2000/svg" xmlns:xlink="http://www.w3.org/1999/xlink" x="0px" y="0px"
	 viewBox="0 0 512 512" style="enable-background:new 0 0 512 512;" xml:space="preserve">
<path style="fill:#FF8C8C;" d="M398.181,10.01H113.802c-20.735,0-37.544,16.809-37.544,37.544v430.465
	c0,21.956,27.095,32.324,41.752,15.976l136.761-152.537h82.831c17.409,0,32.534-11.968,36.538-28.91l60.577-256.359
	C440.289,32.613,422.405,10.01,398.181,10.01z M332.773,278.675c-2.041,8.636-9.75,14.736-18.624,14.736H254.77
	c-13.653,0-26.661,5.808-35.775,15.973l-94.689,105.612V74.534c0-9.099,7.376-16.475,16.475-16.475h219.938
	c12.347,0,21.464,11.521,18.624,23.538l-13.585,57.491c-1.317,5.574-6.292,9.511-12.02,9.511H242.369
	c-15.272,0-28.181,11.974-28.601,27.24c-0.434,15.839,12.276,28.816,28.017,28.816h92.869c7.969,0,13.852,7.435,12.02,15.191
	L332.773,278.675z"/>
<path d="M100.3,512c-4.088,0-8.229-0.745-12.239-2.279c-13.25-5.07-21.813-17.514-21.813-31.702V47.555
	C66.248,21.334,87.581,0,113.802,0h284.379c14.625,0,28.217,6.578,37.293,18.047c9.074,11.469,12.35,26.21,8.987,40.443
	l-13.73,58.105c-1.271,5.38-6.665,8.709-12.044,7.44c-5.38-1.272-8.711-6.664-7.44-12.044l13.73-58.105
	c1.947-8.24,0.051-16.776-5.204-23.418c-5.254-6.64-13.124-10.449-21.592-10.449H113.802c-15.182,0-27.534,12.352-27.534,27.535
	v430.464c0,8.889,6.848,12.2,8.947,13.003c2.098,0.804,9.408,2.909,15.341-3.709l136.761-152.538
	c1.899-2.117,4.609-3.327,7.454-3.327h82.831c12.827,0,23.846-8.719,26.796-21.202l23.848-100.92
	c1.272-5.38,6.659-8.712,12.044-7.44c5.38,1.272,8.711,6.664,7.44,12.044l-23.848,100.92c-5.094,21.56-24.125,36.618-46.28,36.618
	h-78.362l-133.777,149.21C118.859,508.044,109.719,511.999,100.3,512z M124.303,425.005c-1.199,0-2.41-0.215-3.575-0.661
	c-3.875-1.482-6.432-5.201-6.432-9.349v-95.426c0-5.528,4.482-10.01,10.01-10.01c5.529,0,10.01,4.483,10.01,10.01v69.266
	l77.226-86.135c10.998-12.266,26.755-19.3,43.229-19.3h59.379c4.251,0,7.904-2.89,8.882-7.028l13.902-58.83
	c0.215-0.911-0.122-1.586-0.442-1.99c-0.32-0.405-0.899-0.889-1.836-0.889h-92.869c-10.357,0-20.04-4.089-27.264-11.514
	c-7.222-7.423-11.043-17.22-10.76-27.588c0.56-20.389,17.878-36.975,38.607-36.975h111.369c1.09,0,2.027-0.741,2.278-1.803
	l13.585-57.491c0.646-2.732,0.017-5.561-1.725-7.762c-1.742-2.201-4.35-3.463-7.157-3.463H140.781c-3.565,0-6.465,2.9-6.465,6.466
	V212.96c0,5.528-4.482,10.01-10.01,10.01s-10.01-4.483-10.01-10.01V74.534c0-14.605,11.881-26.486,26.485-26.486h219.938
	c8.964,0,17.295,4.031,22.857,11.061c5.562,7.03,7.57,16.065,5.508,24.789l-13.585,57.491
	c-2.396,10.138-11.344,17.218-21.762,17.218H242.369c-9.988,0-18.329,7.853-18.595,17.505c-0.134,4.917,1.675,9.561,5.096,13.076
	c3.422,3.518,8.009,5.454,12.915,5.454h92.869c6.877,0,13.268,3.093,17.536,8.486c4.267,5.393,5.808,12.325,4.226,19.018
	l-13.902,58.83c-3.123,13.214-14.787,22.444-28.365,22.444h-59.379c-10.794,0-21.117,4.609-28.323,12.646L131.76,421.679
	C129.823,423.837,127.094,425.005,124.303,425.005z M408.542,177.015c-5.528,0-10.015-4.483-10.015-10.01s4.477-10.01,10.005-10.01
	h0.01c5.529,0,10.01,4.483,10.01,10.01S414.07,177.015,408.542,177.015z"/>
<g>
</g>
<g>
</g>
<g>
</g>
<g>
</g>
<g>
</g>
<g>
</g>
<g>
</g>
<g>
</g>
<g>
</g>
<g>
</g>
<g>
</g>
<g>
</g>
<g>
</g>
<g>
</g>
<g>
</g>
</svg>
