<?xml version="1.0" encoding="iso-8859-1"?>
<!-- Generator: Adobe Illustrator 19.0.0, SVG Export Plug-In . SVG Version: 6.00 Build 0)  -->
<svg version="1.1" id="Capa_1" xmlns="http://www.w3.org/2000/svg" xmlns:xlink="http://www.w3.org/1999/xlink" x="0px" y="0px"
	 viewBox="0 0 512 512" style="enable-background:new 0 0 512 512;" xml:space="preserve">
<path style="fill:#6E6E6E;" d="M386.415,256l51.39-51.39c44.52-44.521,44.52-116.7,0-161.221c-44.52-44.52-116.701-44.52-161.221,0
	l-27.399,27.399C231.123,34.746,193.848,10,150.788,10l0,0c-60.751,0-110,49.249-110,110v272c0,60.751,49.249,110,110,110l0,0
	c43.06,0,80.335-24.746,98.397-60.789l27.399,27.399c44.52,44.52,116.701,44.52,161.221,0c44.52-44.521,44.52-116.7,0-161.221
	L386.415,256z"/>
<path d="M438.204,53.79c-2.578,0-5.154-0.99-7.11-2.968l-0.347-0.349c-3.913-3.898-3.924-10.229-0.026-14.142
	s10.23-3.924,14.142-0.026l0.45,0.452c3.884,3.927,3.849,10.259-0.078,14.143C443.286,52.827,440.744,53.79,438.204,53.79z"/>
<path d="M357.194,512c-33.122,0-64.261-12.898-87.682-36.318l-18.161-18.162C229.333,491.434,191.916,512,150.788,512
	c-66.168,0-120-53.832-120-120V120c0-66.168,53.832-120,120-120c41.128,0,78.545,20.566,100.564,54.479l18.161-18.161
	c37.124-37.124,93.871-46.852,141.208-24.205c4.982,2.383,7.089,8.354,4.706,13.336c-2.383,4.983-8.354,7.089-13.336,4.705
	c-39.702-18.992-87.295-10.832-118.435,20.307l-27.4,27.399c-2.272,2.271-5.499,3.313-8.668,2.801
	c-3.172-0.514-5.904-2.52-7.343-5.392C223.161,41.178,188.883,20,150.788,20c-55.14,0-100,44.859-100,100v272
	c0,55.141,44.86,100,100,100c38.095,0,72.373-21.178,89.456-55.27c1.439-2.872,4.171-4.878,7.343-5.392
	c3.172-0.513,6.396,0.528,8.668,2.801l27.4,27.399C303.298,481.183,329.414,492,357.194,492s53.896-10.817,73.539-30.461
	c40.549-40.55,40.549-106.528,0-147.078l-51.39-51.39c-3.905-3.905-3.905-10.237,0-14.143l51.39-51.39
	c30.324-30.324,38.954-75.361,21.986-114.738c-2.186-5.071,0.154-10.955,5.226-13.141c5.075-2.185,10.956,0.155,13.141,5.227
	c9.713,22.541,12.508,47.264,8.082,71.496c-4.533,24.817-16.392,47.397-34.292,65.299L400.557,256l44.319,44.318
	c48.347,48.348,48.347,127.016,0,175.363C421.455,499.102,390.316,512,357.194,512z"/>
<path d="M88.866,329.5c-5.523,0-10-4.478-10-10V236c0-5.522,4.477-10,10-10s10,4.478,10,10v83.5
	C98.866,325.022,94.389,329.5,88.866,329.5z"/>
<path d="M88.866,202.618c-5.523,0-10-4.478-10-10V192.5c0-5.522,4.477-10,10-10s10,4.478,10,10v0.118
	C98.866,198.141,94.389,202.618,88.866,202.618z"/>
<g>
</g>
<g>
</g>
<g>
</g>
<g>
</g>
<g>
</g>
<g>
</g>
<g>
</g>
<g>
</g>
<g>
</g>
<g>
</g>
<g>
</g>
<g>
</g>
<g>
</g>
<g>
</g>
<g>
</g>
</svg>
