<?xml version="1.0" encoding="iso-8859-1"?>
<!-- Generator: Adobe Illustrator 19.0.0, SVG Export Plug-In . SVG Version: 6.00 Build 0)  -->
<svg version="1.1" id="Capa_1" xmlns="http://www.w3.org/2000/svg" xmlns:xlink="http://www.w3.org/1999/xlink" x="0px" y="0px"
	 viewBox="0 0 512 512" style="enable-background:new 0 0 512 512;" xml:space="preserve">
<circle style="fill:#FFFFFF;" cx="256" cy="256" r="246"/>
<circle style="fill:#BEBEBE;" cx="256" cy="256" r="246"/>
<g>
	<circle style="fill:#FFFFFF;" cx="256" cy="256" r="202"/>
	<circle style="fill:#FFFFFF;" cx="256.13" cy="256" r="28"/>
	<circle style="fill:#FFFFFF;" cx="166.98" cy="256" r="28"/>
	<circle style="fill:#FFFFFF;" cx="345.02" cy="256" r="28"/>
	<circle style="fill:#FFFFFF;" cx="256" cy="166.98" r="28"/>
	<circle style="fill:#FFFFFF;" cx="256" cy="345.02" r="28"/>
</g>
<path d="M256,512c-68.38,0-132.667-26.629-181.019-74.98C26.628,388.667,0,324.38,0,256c0-51.914,15.456-101.904,44.698-144.565
	c3.123-4.556,9.347-5.717,13.902-2.595s5.717,9.347,2.595,13.901C34.245,162.06,20,208.14,20,256c0,130.131,105.869,236,236,236
	s236-105.869,236-236S386.131,20,256,20c-43.11,0-85.286,11.729-121.968,33.918c-4.725,2.857-10.874,1.345-13.732-3.381
	c-2.859-4.726-1.345-10.874,3.38-13.732C163.485,12.727,209.241,0,256,0c68.38,0,132.667,26.629,181.019,74.98
	C485.372,123.333,512,187.62,512,256s-26.628,132.667-74.981,181.02C388.667,485.371,324.38,512,256,512z"/>
<path d="M82.97,91.138c-2.503,0-5.008-0.934-6.949-2.811c-3.971-3.838-4.078-10.169-0.24-14.14l0.266-0.267
	c3.937-3.871,10.27-3.819,14.142,0.12c3.865,3.933,3.818,10.25-0.102,14.123C88.133,90.143,85.553,91.138,82.97,91.138z"/>
<g>
	<circle style="fill:#BEBEBE;" cx="256.13" cy="256" r="28"/>
	<circle style="fill:#BEBEBE;" cx="166.98" cy="256" r="28"/>
	<circle style="fill:#BEBEBE;" cx="345.02" cy="256" r="28"/>
	<circle style="fill:#BEBEBE;" cx="256" cy="166.98" r="28"/>
	<circle style="fill:#BEBEBE;" cx="256" cy="345.02" r="28"/>
</g>
<path d="M398.71,408.961c-2.54,0-5.08-0.961-7.029-2.888c-3.928-3.883-3.965-10.214-0.083-14.142l0.208-0.208
	c3.93-3.883,10.261-3.845,14.142,0.083c3.882,3.929,3.845,10.26-0.083,14.142l-0.042,0.042
	C403.867,407.97,401.289,408.961,398.71,408.961z"/>
<path d="M256,468c-116.897,0-212-95.103-212-212S139.103,44,256,44s212,95.103,212,212c0,39.664-11.025,78.346-31.882,111.862
	c-2.918,4.69-9.085,6.125-13.774,3.207s-6.125-9.085-3.207-13.773C438.02,326.953,448,291.926,448,256c0-105.869-86.131-192-192-192
	S64,150.131,64,256s86.131,192,192,192c37.95,0,74.642-11.051,106.109-31.959c4.6-3.058,10.807-1.805,13.863,2.795
	c3.057,4.601,1.805,10.807-2.795,13.863C338.419,455.793,297.9,468,256,468z"/>
<path d="M256.127,294c-20.953,0-38-17.047-38-38s17.047-38,38-38s38,17.047,38,38S277.08,294,256.127,294z M256.127,238
	c-9.925,0-18,8.075-18,18c0,9.925,8.075,18,18,18c9.925,0,18-8.075,18-18S266.052,238,256.127,238z"/>
<path d="M166.979,294c-20.953,0-38-17.047-38-38s17.047-38,38-38s38,17.047,38,38S187.932,294,166.979,294z M166.979,238
	c-9.925,0-18,8.075-18,18c0,9.925,8.075,18,18,18s18-8.075,18-18S176.904,238,166.979,238z"/>
<path d="M345.021,294c-20.953,0-38-17.047-38-38s17.047-38,38-38s38,17.047,38,38S365.974,294,345.021,294z M345.021,238
	c-9.925,0-18,8.075-18,18c0,9.925,8.075,18,18,18s18-8.075,18-18S354.946,238,345.021,238z"/>
<path d="M256,204.979c-20.953,0-38-17.047-38-38s17.047-38,38-38s38,17.047,38,38S276.953,204.979,256,204.979z M256,148.979
	c-9.925,0-18,8.075-18,18s8.075,18,18,18c9.925,0,18-8.075,18-18S265.925,148.979,256,148.979z"/>
<path d="M256,383.021c-20.953,0-38-17.047-38-38s17.047-38,38-38s38,17.047,38,38S276.953,383.021,256,383.021z M256,327.021
	c-9.925,0-18,8.075-18,18s8.075,18,18,18c9.925,0,18-8.075,18-18S265.925,327.021,256,327.021z"/>
<g>
</g>
<g>
</g>
<g>
</g>
<g>
</g>
<g>
</g>
<g>
</g>
<g>
</g>
<g>
</g>
<g>
</g>
<g>
</g>
<g>
</g>
<g>
</g>
<g>
</g>
<g>
</g>
<g>
</g>
</svg>
