<?xml version="1.0" encoding="iso-8859-1"?>
<!-- Generator: Adobe Illustrator 19.0.0, SVG Export Plug-In . SVG Version: 6.00 Build 0)  -->
<svg version="1.1" id="Capa_1" xmlns="http://www.w3.org/2000/svg" xmlns:xlink="http://www.w3.org/1999/xlink" x="0px" y="0px"
	 viewBox="0 0 511.999 511.999" style="enable-background:new 0 0 511.999 511.999;" xml:space="preserve">
<g>
	<path style="fill:#78D2FA;" d="M230.748,265.184c10.568-19.935-3.882-43.951-26.446-43.951h-57.074
		c-22.102,0-40.019-17.917-40.019-40.019l0,0c0-22.102,17.917-40.019,40.019-40.019h310.564c2.454,0,4.827-0.878,6.691-2.476l0,0
		c5.379-4.613,4.584-13.157-1.552-16.701L280.011,16.409c-14.858-8.579-33.164-8.579-48.023,0L60.515,115.41
		c-14.858,8.579-24.011,24.432-24.011,41.589V355c0,17.157,9.153,33.01,24.011,41.589l62.769,36.24
		c7.778,4.49,17.729,1.63,21.934-6.305L230.748,265.184z"/>
	<path style="fill:#78D2FA;" d="M382.636,221.233c-23.38,0-44.847,12.917-55.798,33.574L206.879,481.092l25.109,14.497
		c14.858,8.579,33.164,8.579,48.023,0l171.474-99.001c14.858-8.579,24.011-24.432,24.011-41.589V224.91
		c0-2.031-1.646-3.677-3.677-3.677H382.636z"/>
</g>
<path d="M149.551,74.012c-3.457,0-6.819-1.794-8.671-5.003c-2.761-4.784-1.121-10.9,3.663-13.661l0.269-0.155
	c4.783-2.76,10.9-1.121,13.661,3.662c2.761,4.784,1.121,10.9-3.663,13.661l-0.269,0.155
	C152.967,73.579,151.247,74.012,149.551,74.012z"/>
<path d="M131.159,444.969c-4.471,0-8.883-1.174-12.875-3.479l-62.77-36.24C37.618,394.918,26.502,375.663,26.502,355V156.999
	c0-20.663,11.117-39.918,29.012-50.25L109.293,75.7c4.783-2.762,10.9-1.123,13.661,3.66c2.762,4.783,1.123,10.9-3.66,13.661
	L65.515,124.07c-11.726,6.771-19.011,19.388-19.011,32.928V355c0,13.54,7.285,26.157,19.011,32.928l62.769,36.24
	c1.388,0.802,3.002,1,4.543,0.556c1.541-0.442,2.803-1.467,3.554-2.883L221.911,260.5c3.305-6.234,3.106-13.564-0.531-19.61
	c-3.637-6.046-10.022-9.655-17.078-9.655h-57.074c-27.582,0-50.02-22.439-50.02-50.021c0-27.581,22.439-50.02,50.02-50.02h310.564
	c0.065,0,0.129-0.023,0.18-0.067c0.063-0.054,0.108-0.093,0.095-0.233c-0.013-0.143-0.065-0.172-0.137-0.214L275.01,25.071
	c-11.727-6.771-26.295-6.771-38.021,0L186.188,54.4c-4.784,2.762-10.9,1.122-13.661-3.66c-2.762-4.783-1.123-10.9,3.66-13.661
	l50.801-29.329c17.894-10.332,40.128-10.332,58.024,0l182.92,105.609c5.688,3.283,9.445,9.147,10.052,15.686
	c0.607,6.538-2.005,12.992-6.99,17.268c-3.674,3.15-8.362,4.886-13.201,4.886H147.229c-16.552,0-30.018,13.466-30.018,30.018
	c0,16.553,13.466,30.019,30.018,30.019h57.074c14.137,0,26.929,7.232,34.216,19.346c7.289,12.112,7.687,26.801,1.064,39.29
	l-85.528,161.338c-3.317,6.258-8.894,10.782-15.701,12.738C135.976,444.631,133.559,444.969,131.159,444.969z"/>
<path d="M256,511.999c-10.033,0-20.064-2.583-29.012-7.75l-25.109-14.496c-4.661-2.69-6.357-8.59-3.835-13.345l119.958-226.285
	c12.716-23.988,37.483-38.891,64.634-38.891h89.184c7.543,0,13.678,6.137,13.678,13.678V355c0,20.663-11.117,39.918-29.012,50.25
	l-171.475,99C276.066,509.415,266.031,511.999,256,511.999z M220.233,477.254l16.756,9.674c11.726,6.77,26.295,6.77,38.021,0
	l171.475-99c11.726-6.772,19.011-19.388,19.011-32.928V231.234h-82.86c-19.728,0-37.723,10.827-46.963,28.257L220.233,477.254z"/>
<path d="M431.493,414.515c-5.524,0-10.001-4.478-10.001-10.001v-70.507c0-5.523,4.477-10.001,10.001-10.001
	s10.001,4.478,10.001,10.001v70.507C441.494,410.036,437.016,414.515,431.493,414.515z"/>
<path d="M431.493,308.24c-5.524,0-10.001-4.478-10.001-10.001v-0.118c0-5.523,4.477-10.001,10.001-10.001
	s10.001,4.478,10.001,10.001v0.118C441.494,303.763,437.016,308.24,431.493,308.24z"/>
<g>
</g>
<g>
</g>
<g>
</g>
<g>
</g>
<g>
</g>
<g>
</g>
<g>
</g>
<g>
</g>
<g>
</g>
<g>
</g>
<g>
</g>
<g>
</g>
<g>
</g>
<g>
</g>
<g>
</g>
</svg>
