<?xml version="1.0" encoding="iso-8859-1"?>
<!-- Generator: Adobe Illustrator 19.0.0, SVG Export Plug-In . SVG Version: 6.00 Build 0)  -->
<svg version="1.1" id="Capa_1" xmlns="http://www.w3.org/2000/svg" xmlns:xlink="http://www.w3.org/1999/xlink" x="0px" y="0px"
	 viewBox="0 0 512 512" style="enable-background:new 0 0 512 512;" xml:space="preserve">
<circle style="fill:#6E87F5;" cx="256" cy="256" r="246"/>
<path style="fill:#FFFFFF;" d="M408.976,216.976C408.976,132.49,340.486,64,256,64s-152.976,68.49-152.976,152.976
	S217.175,448,256,448S408.976,301.462,408.976,216.976z"/>
<path style="fill:#FF5A5A;" d="M256.099,124.878c-8.401,0-16.54,1.112-24.286,3.187c12.863,5.739,21.834,18.631,21.834,33.626
	c0,20.331-16.482,36.813-36.813,36.813c-19.617,0-35.646-15.346-36.748-34.687c-11.101,15.394-17.646,34.291-17.646,54.72
	c0,51.726,41.932,93.659,93.659,93.659s93.659-41.932,93.659-93.659S307.825,124.878,256.099,124.878z"/>
<path d="M82.99,440.882c-2.541,0-5.083-0.962-7.032-2.891l-0.269-0.267c-3.927-3.884-3.961-10.215-0.077-14.142
	c3.883-3.928,10.215-3.963,14.142-0.077l0.269,0.267c3.927,3.884,3.961,10.215,0.077,14.142
	C88.144,439.892,85.567,440.882,82.99,440.882z"/>
<path d="M256,512c-53.485,0-104.721-16.326-148.169-47.213c-4.501-3.2-5.557-9.443-2.356-13.944s9.444-5.557,13.944-2.356
	C159.462,476.953,206.691,492,256,492c130.131,0,236-105.869,236-236S386.131,20,256,20S20,125.869,20,256
	c0,49.016,14.884,96.015,43.042,135.915c3.185,4.512,2.108,10.751-2.404,13.936c-4.512,3.186-10.751,2.108-13.937-2.404
	C16.149,360.154,0,309.168,0,256c0-68.38,26.628-132.667,74.981-181.02C123.333,26.629,187.62,0,256,0s132.667,26.629,181.019,74.98
	C485.372,123.333,512,187.62,512,256s-26.628,132.667-74.981,181.02C388.667,485.371,324.38,512,256,512z"/>
<path d="M256,458c-27.245,0-70.472-47.435-99.21-88.054c-39.928-56.436-63.765-113.62-63.765-152.971
	C93.024,127.11,166.135,54,256,54s162.976,73.11,162.976,162.976c0,39.351-23.837,96.535-63.765,152.971
	C326.472,410.565,283.245,458,256,458z M256,74c-78.837,0-142.976,64.139-142.976,142.976c0,35.368,22.464,88.235,60.092,141.419
	C211.964,413.303,244.97,438,256,438s44.036-24.697,82.884-79.605c37.627-53.184,60.092-106.051,60.092-141.419
	C398.976,138.139,334.837,74,256,74z"/>
<path d="M256.099,322.195c-57.158,0-103.659-46.501-103.659-103.659c0-21.902,6.755-42.847,19.535-60.568
	c2.477-3.436,6.848-4.938,10.912-3.751s6.942,4.804,7.183,9.031c0.807,14.162,12.563,25.256,26.764,25.256
	c14.785,0,26.813-12.028,26.813-26.813c0-10.568-6.245-20.183-15.909-24.495c-3.867-1.726-6.229-5.699-5.894-9.921
	s3.292-7.775,7.382-8.871c8.74-2.34,17.781-3.526,26.873-3.526c57.158,0,103.659,46.501,103.659,103.658
	c0,10.505-1.568,20.875-4.662,30.822c-1.64,5.273-7.244,8.22-12.519,6.579c-5.273-1.64-8.219-7.245-6.579-12.519
	c2.495-8.022,3.76-16.394,3.76-24.883c0-46.129-37.529-83.658-83.659-83.658c-0.302,0-0.604,0.002-0.906,0.005
	c5.391,7.713,8.453,17.026,8.453,26.809c0,25.813-21,46.813-46.813,46.813c-16.001,0-30.224-8.069-38.679-20.442
	c-3.768,9.62-5.714,19.909-5.714,30.475c0,46.13,37.529,83.659,83.659,83.659c8.59,0,17.057-1.295,25.164-3.848
	c5.269-1.657,10.882,1.266,12.542,6.534c1.659,5.268-1.267,10.883-6.534,12.542C277.217,320.59,266.73,322.195,256.099,322.195z"/>
<path d="M321.961,295.126c-2.58,0-5.158-0.991-7.114-2.972c-3.881-3.929-3.843-10.261,0.085-14.143l0.293-0.292
	c3.89-3.92,10.221-3.946,14.142-0.057s3.946,10.222,0.057,14.143l-0.436,0.435C327.041,294.165,324.5,295.126,321.961,295.126z"/>
<g>
</g>
<g>
</g>
<g>
</g>
<g>
</g>
<g>
</g>
<g>
</g>
<g>
</g>
<g>
</g>
<g>
</g>
<g>
</g>
<g>
</g>
<g>
</g>
<g>
</g>
<g>
</g>
<g>
</g>
</svg>
