<?xml version="1.0" encoding="iso-8859-1"?>
<!-- Generator: Adobe Illustrator 19.0.0, SVG Export Plug-In . SVG Version: 6.00 Build 0)  -->
<svg version="1.1" id="Capa_1" xmlns="http://www.w3.org/2000/svg" xmlns:xlink="http://www.w3.org/1999/xlink" x="0px" y="0px"
	 viewBox="0 0 512 512" style="enable-background:new 0 0 512 512;" xml:space="preserve">
<circle style="fill:#EB5F37;" cx="256" cy="256" r="246"/>
<g>
	<path style="fill:#FFFFFF;" d="M256,148c-35.346,0-64,28.654-64,64v44v47c0,11.046-8.954,20-20,20l0,0c-11.046,0-20-8.954-20-20
		v-40h-44v37c0,35.346,28.654,64,64,64l0,0c35.346,0,64-28.654,64-64v-44v-47c0-11.046,8.954-20,20-20l0,0c11.046,0,20,8.954,20,20
		v17l16.5,7l27.5-7v-14C320,176.654,291.346,148,256,148L256,148z"/>
	<path style="fill:#FFFFFF;" d="M360,263v40c0,11.046-8.954,20-20,20s-20-8.954-20-20v-40l-27.5,7l-16.5-7v37
		c0,35.346,28.654,64,64,64l0,0c35.346,0,64-28.654,64-64v-37H360z"/>
</g>
<path d="M256,512c-68.38,0-132.667-26.629-181.02-74.98C26.629,388.667,0,324.38,0,256S26.629,123.333,74.98,74.981
	C123.333,26.628,187.62,0,256,0s132.667,26.628,181.02,74.981C485.371,123.333,512,187.62,512,256s-26.629,132.667-74.98,181.02
	C388.667,485.371,324.38,512,256,512z M256,20C125.869,20,20,125.869,20,256s105.869,236,236,236s236-105.869,236-236
	S386.131,20,256,20z"/>
<path d="M133.116,360.844c-2.121,0-4.259-0.673-6.073-2.062C108.586,344.647,98,323.223,98,300v-37c0-5.522,4.478-10,10-10h44
	c5.522,0,10,4.478,10,10v40c0,5.514,4.486,10,10,10s10-4.486,10-10v-91c0-40.804,33.196-74,74-74s74,33.196,74,74v14
	c0,4.573-3.102,8.563-7.533,9.691l-27.5,7c-2.12,0.54-4.357,0.369-6.372-0.485l-16.5-7C268.399,233.638,266,230.014,266,226v-17
	c0-5.514-4.486-10-10-10s-10,4.486-10,10v91c0,23.089-10.487,44.438-28.773,58.574c-4.37,3.376-10.651,2.574-14.027-1.795
	c-3.378-4.369-2.574-10.649,1.795-14.027C218.344,332.432,226,316.849,226,300v-91c0-16.542,13.458-30,30-30s30,13.458,30,30v10.38
	l7.301,3.097l16.699-4.25V212c0-29.776-24.225-54-54-54s-54,24.224-54,54v91c0,16.542-13.458,30-30,30s-30-13.458-30-30v-30h-24v27
	c0,16.947,7.729,32.584,21.203,42.903c4.385,3.358,5.217,9.635,1.859,14.02C139.094,359.493,136.122,360.844,133.116,360.844z"/>
<path d="M172,374c-5.522,0-10-4.478-10-10s4.478-10,10-10c0.285,0,0.569-0.003,0.854-0.007c0.05-0.001,0.1-0.001,0.149-0.001
	c5.455,0,9.916,4.381,9.996,9.854c0.081,5.522-4.33,10.064-9.853,10.146C172.765,373.997,172.383,374,172,374z"/>
<path d="M340,374c-40.804,0-74-33.196-74-74v-37c0-3.354,1.683-6.486,4.479-8.338c2.798-1.852,6.338-2.177,9.426-0.868l13.396,5.684
	l24.232-6.168c2.991-0.762,6.165-0.099,8.604,1.796C328.574,257,330,259.913,330,263v40c0,5.514,4.486,10,10,10s10-4.486,10-10v-40
	c0-5.522,4.478-10,10-10h44c5.522,0,10,4.478,10,10v37C414,340.804,380.804,374,340,374z M286,278.105V300c0,29.775,24.225,54,54,54
	s54-24.225,54-54v-27h-24v30c0,16.542-13.458,30-30,30s-30-13.458-30-30v-27.136l-15.033,3.827c-2.12,0.539-4.357,0.369-6.372-0.485
	L286,278.105z"/>
<path d="M256.584,64.845c0,0-0.018,0-0.026,0L256,64.844c-5.522,0-10-4.477-10-10s4.478-10,10-10l0.608,0.001
	c5.522,0.014,9.988,4.502,9.975,10.025C266.569,60.384,262.095,64.845,256.584,64.845z"/>
<path d="M384.354,111.114c-2.249,0-4.513-0.755-6.379-2.304c-24.926-20.68-54.847-34.749-86.527-40.688
	c-5.429-1.017-9.005-6.243-7.987-11.671c1.018-5.429,6.25-9.002,11.671-7.986c35.016,6.563,68.078,22.107,95.613,44.952
	c4.251,3.526,4.838,9.831,1.312,14.082C390.078,109.882,387.227,111.114,384.354,111.114z"/>
<g>
</g>
<g>
</g>
<g>
</g>
<g>
</g>
<g>
</g>
<g>
</g>
<g>
</g>
<g>
</g>
<g>
</g>
<g>
</g>
<g>
</g>
<g>
</g>
<g>
</g>
<g>
</g>
<g>
</g>
</svg>
