<?xml version="1.0" encoding="iso-8859-1"?>
<!-- Generator: Adobe Illustrator 19.0.0, SVG Export Plug-In . SVG Version: 6.00 Build 0)  -->
<svg version="1.1" id="Capa_1" xmlns="http://www.w3.org/2000/svg" xmlns:xlink="http://www.w3.org/1999/xlink" x="0px" y="0px"
	 viewBox="0 0 512 512" style="enable-background:new 0 0 512 512;" xml:space="preserve">
<path style="fill:#FF5A5A;" d="M491.719,135.652c-5.658-21.512-22.33-38.455-43.498-44.205
	C409.853,80.999,295.348,80.999,256,80.999s-153.853,0-192.221,10.448c-21.168,5.75-37.84,22.693-43.498,44.205
	C10,174.644,10,255.999,10,255.999s0,81.354,10.281,120.347c5.658,21.512,22.33,38.455,43.498,44.205
	C102.147,430.999,198,430.999,256,430.999s153.853,0,192.221-10.448c21.168-5.75,37.84-22.693,43.498-44.205
	C502,337.353,502,255.999,502,255.999S502,174.644,491.719,135.652z"/>
<path d="M258.503,91.003c-0.009,0-0.018,0-0.027,0l-0.725-0.002c-5.515-0.015-9.975-4.491-9.973-10.003c0-0.008,0-0.016,0-0.024
	c0.015-5.514,4.49-9.973,10-9.973c0.01,0,0.018,0,0.028,0l0.724,0.002c5.515,0.015,9.975,4.491,9.973,10.003
	c0,0.008,0,0.016,0,0.024C268.488,86.544,264.013,91.003,258.503,91.003z"/>
<path d="M256,440.999c-6.336,0-155.641-0.123-194.849-10.8c-24.607-6.684-43.976-26.345-50.542-51.31
	C0.121,339.107,0,259.374,0,255.999s0.121-83.108,10.611-122.896c6.564-24.959,25.933-44.621,50.546-51.306
	c25.901-7.053,98.771-9.571,155.34-10.44c5.508-0.048,10.068,4.323,10.153,9.845c0.084,5.522-4.323,10.068-9.845,10.152
	c-78.34,1.205-131.752,4.664-150.399,9.742c-17.736,4.818-31.703,19.033-36.455,37.1C20.12,175.484,20,255.198,20,255.999
	c0,0.8,0.12,80.514,9.95,117.797c4.753,18.073,18.72,32.288,36.45,37.104c36.654,9.981,188.075,10.099,189.6,10.099
	s152.946-0.117,189.594-10.097c17.736-4.818,31.703-19.033,36.455-37.1C491.88,336.513,492,256.799,492,255.998
	c0-0.8-0.12-80.514-9.95-117.797c-4.753-18.073-18.72-32.288-36.45-37.104c-18.247-4.969-70.125-8.404-146.085-9.674
	c-5.522-0.092-9.924-4.644-9.832-10.166s4.676-9.907,10.166-9.832c54.88,0.917,125.625,3.462,151,10.373
	c24.607,6.684,43.976,26.345,50.542,51.31C511.879,172.891,512,252.624,512,255.999s-0.121,83.108-10.611,122.896
	c-6.564,24.959-25.933,44.621-50.546,51.306C411.641,440.876,262.336,440.999,256,440.999z"/>
<polygon style="fill:#FFFFFF;" points="208.084,185.521 332.084,257.521 208.084,329.521 "/>
<path d="M58,331.021c-5.523,0-10-4.477-10-10v-81.5c0-5.523,4.477-10,10-10s10,4.477,10,10v81.5
	C68,326.544,63.523,331.021,58,331.021z"/>
<path d="M58,204.139c-5.523,0-10-4.477-10-10v-0.118c0-5.523,4.477-10,10-10s10,4.477,10,10v0.118
	C68,199.662,63.523,204.139,58,204.139z"/>
<path d="M208.084,339.521c-1.723,0-3.445-0.444-4.989-1.333c-3.1-1.785-5.011-5.089-5.011-8.667v-144
	c0-3.577,1.911-6.882,5.011-8.667c3.1-1.785,6.917-1.778,10.011,0.019l124,72c3.082,1.79,4.979,5.084,4.979,8.648
	s-1.896,6.858-4.979,8.648l-124,72C211.554,339.071,209.819,339.521,208.084,339.521z M218.084,202.891v109.26l94.085-54.63
	L218.084,202.891z"/>
<g>
</g>
<g>
</g>
<g>
</g>
<g>
</g>
<g>
</g>
<g>
</g>
<g>
</g>
<g>
</g>
<g>
</g>
<g>
</g>
<g>
</g>
<g>
</g>
<g>
</g>
<g>
</g>
<g>
</g>
</svg>
