<?xml version="1.0" encoding="iso-8859-1"?>
<!-- Generator: Adobe Illustrator 19.0.0, SVG Export Plug-In . SVG Version: 6.00 Build 0)  -->
<svg version="1.1" id="Capa_1" xmlns="http://www.w3.org/2000/svg" xmlns:xlink="http://www.w3.org/1999/xlink" x="0px" y="0px"
	 viewBox="0 0 512 512" style="enable-background:new 0 0 512 512;" xml:space="preserve">
<path style="fill:#FF5A5A;" d="M500,190.667c0,0,1.667-70.667-94.333-70.667S303,173.667,303,201.667s11.668,63.266,78.5,75
	c65.5,11.5,62.5,28.5,62.5,42c0,11-8.736,27.5-56.5,27.5s-77.5-12-100-84.5S248.333,120,141.667,120S10,194.014,10,260.667
	S43.667,392,128,392c68.667,0,99-29.333,99-29.333L209,314c0,0-30.667,31.333-70,31.333S69,314,69,262s19.333-97.333,73.333-97.333
	c48.667,0,68.667,40.5,89.791,119.312C250.445,352.328,294,392,389,392c76,0,113-32.667,113-74.667s-13.5-68.667-70.5-82.167
	s-72.5-15.5-72.5-42s27-30,40.5-30s40.5,4.512,44.5,34C444,197.667,500,190.667,500,190.667z"/>
<path d="M45.774,163.653c-2.534,0-5.068-0.957-7.016-2.875c-3.936-3.875-3.985-10.206-0.11-14.142l0.162-0.163
	c3.894-3.915,10.254-3.964,14.169-0.073c3.916,3.891,3.97,10.187,0.082,14.105c-0.003,0.003-0.069,0.07-0.072,0.073l-0.089,0.09
	C50.943,162.656,48.359,163.653,45.774,163.653z"/>
<path d="M495.06,356.652c-1.548,0-3.118-0.36-4.588-1.12c-4.905-2.538-6.824-8.572-4.286-13.478
	c3.858-7.456,5.814-15.772,5.814-24.721c0-37.331-10.009-59.932-62.805-72.436c-3.322-0.787-6.504-1.535-9.549-2.25
	c-26.005-6.113-41.701-9.802-52.516-15.863c-12.538-7.028-18.13-17.396-18.13-33.617c0-15.219,7.366-27.257,20.742-33.895
	c10.167-5.046,21.794-6.105,29.758-6.105c20.989,0,44.476,8.936,52.302,33.241c8.564-0.961,22.81-2.674,37.204-4.452
	c-1.549-7.795-5.504-19.659-15.604-29.88C458.928,137.427,436.139,130,405.667,130C322.606,130,313,170.902,313,201.667
	c0,22.675,7.28,54.099,70.229,65.15c30.264,5.313,49.271,12.229,59.818,21.764c11.131,10.061,11.029,21.144,10.962,28.477
	c-0.005,0.542-0.01,1.078-0.01,1.609c0,10.459-5.237,19.752-14.747,26.165c-11.308,7.627-28.236,11.335-51.753,11.335
	c-21.033,0-45.257-2.024-65.442-17.039c-18.616-13.848-32.633-37.52-44.108-74.497c-0.935-3.011-1.858-6.016-2.779-9.01
	c-10.413-33.852-20.249-65.827-39.303-88.821c-20.804-25.106-50.736-36.8-94.2-36.8c-20.36,0-38.427,2.862-53.696,8.507
	c-5.184,1.916-10.934-0.732-12.848-5.912c-1.915-5.18,0.732-10.932,5.912-12.847C98.533,113.28,118.933,110,141.667,110
	c49.194,0,85.045,14.405,109.6,44.038c21.599,26.064,32.004,59.891,43.02,95.702c0.916,2.979,1.835,5.968,2.765,8.962
	c10.157,32.729,21.896,53.186,36.943,64.378c12.496,9.295,27.998,13.086,53.506,13.086c29.117,0,46.5-6.542,46.5-17.5
	c0-0.591,0.005-1.188,0.011-1.792c0.059-6.365-0.104-9.597-4.374-13.458c-7.421-6.708-24.198-12.395-49.866-16.9
	c-32.362-5.682-56.022-17.431-70.324-34.919C298.533,238.251,293,221.452,293,201.667c0-15.406,1.819-38.141,17.555-57.618
	C328.808,121.456,360.808,110,405.667,110c36.229,0,63.91,9.535,82.276,28.339c22.486,23.022,22.082,51.368,22.054,52.563
	c-0.116,4.952-3.842,9.073-8.757,9.687c0,0-13.898,1.737-27.857,3.42c-8.121,0.979-14.619,1.742-19.313,2.267
	c-2.705,0.303-4.971,0.544-6.576,0.696c-3.333,0.314-6.774,0.642-10.108-2.303c-1.812-1.599-2.974-3.792-3.295-6.159l0,0
	c-2.991-22.052-22.956-25.344-34.591-25.344c-13.914,0-30.5,3.47-30.5,20c0,15.757,4.129,18.001,55.223,30.011
	c3.056,0.718,6.248,1.469,9.582,2.258c30.04,7.115,49.815,17.924,62.236,34.017c11.037,14.3,15.959,32.15,15.959,57.881
	c0,12.178-2.709,23.588-8.051,33.912C502.171,354.681,498.678,356.652,495.06,356.652z"/>
<path d="M470.125,383.035c-3.325,0-6.577-1.657-8.478-4.681c-2.938-4.677-1.528-10.85,3.147-13.788l0.225-0.143
	c4.641-2.999,10.829-1.665,13.826,2.973c2.997,4.64,1.666,10.829-2.973,13.826l-0.438,0.279
	C473.782,382.54,471.942,383.035,470.125,383.035z"/>
<path d="M389,402c-92.508,0-145.425-36.68-166.534-115.433c-22.706-84.709-42.178-111.9-80.133-111.9
	c-21.898,0-37.772,8.051-48.53,24.614C84.119,214.19,79,235.878,79,262c0,43.863,24.112,73.334,60,73.334
	c34.503,0,62.588-28.06,62.867-28.343c2.402-2.435,5.892-3.481,9.231-2.76c3.344,0.721,6.094,3.092,7.28,6.3l18,48.667
	c1.376,3.72,0.424,7.9-2.428,10.657C232.595,371.168,199.885,402,128,402c-41.909,0-75.981-15.406-98.534-44.552
	C10.465,332.89,0,298.519,0,260.667c0-31.695,5.407-59.121,16.072-81.517c2.374-4.986,8.343-7.103,13.327-4.729
	c4.987,2.375,7.104,8.342,4.729,13.328C24.754,207.437,20,231.97,20,260.667C20,319.323,48.372,382,128,382
	c48.269,0,76.384-15.36,87.084-22.723l-10.492-28.369c-13.394,10.155-37.258,24.426-65.592,24.426c-47.103,0-80-38.38-80-93.334
	c0-29.998,6.234-55.454,18.03-73.613c14.328-22.06,36.909-33.72,65.303-33.72c26.786,0,47.546,11.265,63.467,34.439
	c13.101,19.069,23.526,45.806,35.984,92.284C260.435,350.97,305.838,382,389,382c16.159,0,30.903-1.546,43.821-4.596
	c5.378-1.271,10.761,2.06,12.03,7.435c1.269,5.376-2.06,10.762-7.435,12.03C422.994,400.273,406.704,402,389,402z"/>
<g>
</g>
<g>
</g>
<g>
</g>
<g>
</g>
<g>
</g>
<g>
</g>
<g>
</g>
<g>
</g>
<g>
</g>
<g>
</g>
<g>
</g>
<g>
</g>
<g>
</g>
<g>
</g>
<g>
</g>
</svg>
