<?xml version="1.0" encoding="iso-8859-1"?>
<!-- Generator: Adobe Illustrator 19.0.0, SVG Export Plug-In . SVG Version: 6.00 Build 0)  -->
<svg version="1.1" id="Capa_1" xmlns="http://www.w3.org/2000/svg" xmlns:xlink="http://www.w3.org/1999/xlink" x="0px" y="0px"
	 viewBox="0 0 512 512" style="enable-background:new 0 0 512 512;" xml:space="preserve">
<g>
	<ellipse style="fill:#F0F0FA;" cx="256" cy="312.27" rx="216" ry="148"/>
	<circle style="fill:#F0F0FA;" cx="423" cy="91.73" r="40"/>
	<path style="fill:#F0F0FA;" d="M103.623,207.382c-9.939-8.903-23.063-14.323-37.456-14.323c-31.02,0-56.167,25.147-56.167,56.167
		c0,21.901,12.543,40.86,30.829,50.123C45.355,263.516,68.502,231.336,103.623,207.382z"/>
	<path style="fill:#F0F0FA;" d="M445.833,193.059c-14.394,0-27.517,5.42-37.456,14.323c35.121,23.954,58.268,56.134,62.794,91.966
		C489.457,290.086,502,271.126,502,249.226C502,218.206,476.853,193.059,445.833,193.059z"/>
</g>
<g>
	<circle style="fill:#FF6E37;" cx="330.97" cy="284.89" r="32"/>
	<circle style="fill:#FF6E37;" cx="183.78" cy="284.89" r="32"/>
</g>
<path d="M403.922,430.131c-3.272,0-6.479-1.604-8.395-4.551c-3.01-4.631-1.695-10.825,2.935-13.835l0.235-0.152
	c4.632-3.011,10.826-1.694,13.835,2.935c3.01,4.631,1.695,10.825-2.935,13.835l-0.235,0.152
	C407.68,429.608,405.789,430.131,403.922,430.131z"/>
<path d="M349.508,87.63c-0.796,0-1.604-0.096-2.412-0.296c-0.271-0.067-0.542-0.132-0.813-0.195
	c-5.378-1.256-8.719-6.635-7.462-12.013c1.256-5.378,6.634-8.72,12.013-7.462c0.356,0.083,0.714,0.169,1.07,0.258
	c5.36,1.328,8.63,6.75,7.303,12.11C358.079,84.585,353.997,87.63,349.508,87.63z"/>
<path d="M423,141.726c-27.57,0-50-22.43-50-50s22.43-50,50-50s50,22.43,50,50S450.57,141.726,423,141.726z M423,61.726
	c-16.542,0-30,13.458-30,30s13.458,30,30,30s30-13.458,30-30S439.542,61.726,423,61.726z"/>
<path d="M512,249.226c0-36.484-29.683-66.167-66.167-66.167c-13.682,0-26.907,4.233-37.988,12.018
	c-36.751-23.282-82.841-37.263-132.168-40.207l9.053-29.071c4.563-14.655,14.58-26.626,28.206-33.71
	c4.9-2.547,6.808-8.584,4.261-13.485c-2.547-4.9-8.584-6.808-13.485-4.26c-18.395,9.562-31.917,25.724-38.077,45.509l-10.722,34.43
	c-56.276,0.184-109.424,14.609-150.757,40.794c-11.081-7.785-24.307-12.018-37.988-12.018C29.683,183.059,0,212.741,0,249.226
	c0,22.729,11.432,43.444,30.252,55.571C30.09,307.279,30,309.771,30,312.274c0,42.931,24.012,83.026,67.612,112.9
	c42.445,29.083,98.694,45.1,158.388,45.1c42.418,0,83.739-8.212,119.497-23.747c5.064-2.201,7.387-8.092,5.187-13.157
	c-2.201-5.065-8.093-7.388-13.157-5.187c-33.263,14.452-71.827,22.091-111.526,22.091c-55.698,0-107.934-14.773-147.083-41.598
	C70.924,382.643,50,348.408,50,312.274s20.924-70.371,58.917-96.403c39.149-26.825,91.385-41.598,147.083-41.598
	s107.934,14.773,147.083,41.598C441.076,241.904,462,276.14,462,312.274c0,26.926-11.722,53.072-33.896,75.611
	c-3.874,3.938-3.822,10.269,0.114,14.142c3.939,3.876,10.27,3.821,14.142-0.114c25.933-26.359,39.64-57.356,39.64-89.639
	c0-2.503-0.09-4.995-0.252-7.478C500.568,292.67,512,271.955,512,249.226z M20,249.226c0-25.457,20.71-46.167,46.167-46.167
	c7.047,0,13.924,1.605,20.152,4.63c-26.952,21.31-44.835,46.95-52.323,74.667C25.155,273.806,20,261.969,20,249.226z
	 M478.004,282.357c-7.488-27.717-25.372-53.358-52.323-74.667c6.229-3.026,13.105-4.63,20.152-4.63
	c25.457,0,46.167,20.71,46.167,46.167C492,261.969,486.845,273.806,478.004,282.357z"/>
<path d="M330.968,326.892c-23.159,0-42-18.841-42-42s18.841-42,42-42s42,18.841,42,42S354.127,326.892,330.968,326.892z
	 M330.968,262.892c-12.131,0-22,9.869-22,22s9.869,22,22,22s22-9.869,22-22S343.099,262.892,330.968,262.892z"/>
<path d="M183.776,326.892c-23.159,0-42-18.841-42-42s18.841-42,42-42s42,18.841,42,42S206.936,326.892,183.776,326.892z
	 M183.776,262.892c-12.131,0-22,9.869-22,22s9.869,22,22,22s22-9.869,22-22S195.907,262.892,183.776,262.892z"/>
<path d="M255.995,408.457c-30.006,0-58.643-9.253-82.835-26.77c-4.474-3.238-5.475-9.49-2.235-13.964
	c3.238-4.475,9.491-5.474,13.964-2.235c42.66,30.887,99.923,30.807,142.495-0.198c4.462-3.248,10.717-2.271,13.971,2.197
	c3.251,4.464,2.268,10.719-2.197,13.971c-24.199,17.623-52.89,26.96-82.97,26.999C256.125,408.457,256.058,408.457,255.995,408.457z
	"/>
<g>
</g>
<g>
</g>
<g>
</g>
<g>
</g>
<g>
</g>
<g>
</g>
<g>
</g>
<g>
</g>
<g>
</g>
<g>
</g>
<g>
</g>
<g>
</g>
<g>
</g>
<g>
</g>
<g>
</g>
</svg>
