<?xml version="1.0" encoding="iso-8859-1"?>
<!-- Generator: Adobe Illustrator 19.0.0, SVG Export Plug-In . SVG Version: 6.00 Build 0)  -->
<svg version="1.1" id="Capa_1" xmlns="http://www.w3.org/2000/svg" xmlns:xlink="http://www.w3.org/1999/xlink" x="0px" y="0px"
	 viewBox="0 0 512 512" style="enable-background:new 0 0 512 512;" xml:space="preserve">
<path style="fill:#FAA5D2;" d="M380.439,47.172c-46.432,0-94.571,24.203-124.44,61.902c-29.869-37.699-78.007-61.902-124.44-61.902
	C56.702,47.172,10,112.74,10,187.598c0,133.686,140.442,222.348,245.998,277.225c0-0.093,0.002-0.184,0.002-0.277
	c0,0.093,0.002,0.184,0.002,0.277C361.558,409.946,502,321.284,502,187.598C502,112.74,455.297,47.172,380.439,47.172z"/>
<polygon style="fill:#FFFFFF;" points="349.328,136.124 309.408,276.386 284.592,190.234 227.585,190.234 202.77,276.386 
	162.849,136.124 109.262,136.124 172.56,355.508 232.98,355.508 256.089,276.698 279.197,355.508 339.618,355.508 402.916,136.124 
	"/>
<path d="M256.012,474.828c-1.586,0-3.174-0.377-4.627-1.133C143.469,417.592,0,326.895,0,187.598
	c0-39.856,12.417-77.008,34.964-104.611c24.133-29.544,58.438-45.815,96.596-45.815c45.631,0,92.278,21.398,124.44,56.5
	c32.161-35.101,78.809-56.5,124.439-56.5c38.158,0,72.464,16.271,96.597,45.815C499.583,110.59,512,147.741,512,187.598
	c0,31.957-7.747,63.364-23.026,93.349c-2.508,4.923-8.532,6.879-13.45,4.37c-4.921-2.508-6.877-8.529-4.37-13.45
	C484.986,244.72,492,216.368,492,187.598c0-64.813-38.32-130.426-111.561-130.426c-42.864,0-88.633,22.811-116.602,58.112
	c-1.896,2.394-4.783,3.79-7.838,3.79s-5.941-1.396-7.838-3.79c-27.97-35.302-73.739-58.112-116.603-58.112
	C58.32,57.172,20,122.784,20,187.598c0,126.508,133.285,212.091,236,265.946c48.392-25.358,116.218-64.224,166.205-115.366
	c3.859-3.949,10.188-4.023,14.142-0.161c3.949,3.86,4.021,10.191,0.161,14.142c-53.49,54.727-125.753,95.457-175.58,121.375
	C259.406,474.396,257.711,474.828,256.012,474.828z"/>
<path d="M459.689,319.47c-2.56,0-5.118-0.977-7.071-2.929c-3.617-3.618-3.884-9.317-0.8-13.241
	c3.063-3.931,8.647-5.045,13.026-2.419c4.736,2.842,6.271,8.984,3.431,13.72c-0.421,0.701-0.937,1.362-1.515,1.94
	C464.808,318.493,462.249,319.47,459.689,319.47z"/>
<path d="M141.857,259.11c-2.63,0-5.21-1.06-7.069-2.93c-1.86-1.86-2.931-4.43-2.931-7.07c0-2.63,1.07-5.21,2.931-7.06
	c1.859-1.87,4.439-2.94,7.069-2.94c2.641,0,5.221,1.07,7.08,2.94c1.86,1.86,2.92,4.43,2.92,7.06c0,2.641-1.06,5.21-2.92,7.07
	C147.078,258.05,144.498,259.11,141.857,259.11z"/>
<path d="M410.907,130.113c-1.889-2.511-4.849-3.988-7.991-3.988h-53.588c-4.469,0-8.395,2.965-9.618,7.263l-30.36,106.671
	l-15.148-52.592c-1.233-4.283-5.152-7.232-9.609-7.232h-57.007c-4.457,0-8.376,2.949-9.609,7.232l-15.148,52.592l-30.36-106.671
	c-1.224-4.298-5.149-7.263-9.618-7.263h-53.587c-3.143,0-6.103,1.477-7.991,3.988c-1.89,2.511-2.488,5.765-1.617,8.784
	l21.481,74.453c1.532,5.308,7.071,8.367,12.381,6.836c5.306-1.531,8.366-7.074,6.836-12.38l-17.797-61.681H155.3l37.854,132.999
	c1.222,4.292,5.14,7.256,9.603,7.263c0.005,0,0.011,0,0.016,0c4.456,0,8.376-2.949,9.609-7.232l22.732-78.92h41.954l41.997,145.274
	h-32.376l-21.002-71.624c-1.249-4.26-5.156-7.187-9.596-7.187s-8.347,2.927-9.596,7.187l-21.002,71.624h-45.409l-17.672-61.25
	c-1.532-5.306-7.074-8.363-12.381-6.836c-5.306,1.531-8.366,7.074-6.836,12.381l19.758,68.478c1.235,4.28,5.153,7.228,9.608,7.228
	h60.421c4.439,0,8.347-2.927,9.596-7.187l13.513-46.083l13.513,46.083c1.249,4.26,5.156,7.187,9.596,7.187h60.421
	c4.455,0,8.373-2.947,9.608-7.228l63.298-219.384C413.396,135.877,412.797,132.624,410.907,130.113z M356.879,146.124h32.744
	l-8.296,28.752h-32.632L356.879,146.124z M335.989,332.015l-16.104-55.909l23.119-81.229h32.553L335.989,332.015z"/>
<g>
</g>
<g>
</g>
<g>
</g>
<g>
</g>
<g>
</g>
<g>
</g>
<g>
</g>
<g>
</g>
<g>
</g>
<g>
</g>
<g>
</g>
<g>
</g>
<g>
</g>
<g>
</g>
<g>
</g>
</svg>
