<?xml version="1.0" encoding="iso-8859-1"?>
<!-- Generator: Adobe Illustrator 19.0.0, SVG Export Plug-In . SVG Version: 6.00 Build 0)  -->
<svg version="1.1" id="Capa_1" xmlns="http://www.w3.org/2000/svg" xmlns:xlink="http://www.w3.org/1999/xlink" x="0px" y="0px"
	 viewBox="0 0 512 512" style="enable-background:new 0 0 512 512;" xml:space="preserve">
<path style="fill:#FF5A5A;" d="M256,10C120.138,10,10,120.138,10,256c0,100.957,60.824,187.693,147.818,225.606
	c0.227-23.688,3.008-47.285,8.311-70.379l25.533-107.438c1.365-5.742,1.55-11.701,0.546-17.516l-3.395-19.656
	c-0.392-2.267-0.588-4.564-0.588-6.864v-5.124c0-18.221,5.346-36.042,15.375-51.254l0,0c6.503-9.864,17.525-15.801,29.339-15.803
	c0.228,0,0.457,0,0.687,0c15.723-0.003,29.433,10.701,33.287,26.115l0.278,1.111c2.382,9.527,2.35,19.498-0.094,29.01
	l-18.573,72.283c-5.558,21.632,10.446,43.104,32.779,43.367c0.18,0.002,0.36,0.003,0.541,0.003
	c46.013,0,81.381-48.516,81.381-118.553c0-61.982-44.543-105.319-108.139-105.319c-73.658,0-116.898,55.246-116.898,112.348
	c0,18.802,6.123,38.753,14.474,52.31c2.87,4.66,3.547,10.336,1.743,15.503l-5.661,16.22c-2.954,8.463-13.54,11.312-20.294,5.419
	c-23.49-20.498-37.597-58.702-37.597-90.421c0-81.663,59.335-156.66,171.054-156.66c89.808,0,159.602,63.995,159.602,149.521
	c0,89.219-56.262,161.026-134.343,161.026c-20.634,0-42.954-11.581-54.511-23.012l-7.198,28.012
	c-7.408,28.831-18.25,56.67-32.292,82.917l-2.392,4.47C211.549,498.94,233.416,502,256,502c135.862,0,246-110.138,246-246
	S391.862,10,256,10z"/>
<path d="M157.816,491.606c-1.354,0-2.715-0.275-3.994-0.833C60.379,450.05,0,357.896,0,256c0-68.38,26.629-132.667,74.98-181.019
	C123.333,26.629,187.62,0,256,0s132.667,26.629,181.02,74.981C485.371,123.333,512,187.62,512,256
	c0,35.409-7.097,69.698-21.093,101.916c-13.518,31.115-32.814,58.874-57.354,82.505c-3.979,3.831-10.308,3.711-14.14-0.267
	c-3.831-3.979-3.712-10.309,0.267-14.14C466.316,381.105,492,320.727,492,256c0-130.131-105.869-236-236-236S20,125.869,20,256
	c0,88.938,49.897,169.826,128.32,210.048c1.064-19.215,3.765-38.344,8.063-57.06l25.55-107.513c1.058-4.45,1.199-8.993,0.421-13.503
	l-3.396-19.654c-0.486-2.819-0.733-5.702-0.733-8.566v-5.125c0-20.237,5.888-39.864,17.025-56.758
	c8.378-12.708,22.467-20.296,37.687-20.299h0.688c0.003,0,0.006,0,0.009,0c20.347,0,38.02,13.853,42.979,33.69l0.277,1.107
	c2.778,11.11,2.739,22.841-0.109,33.928l-18.572,72.282c-1.916,7.457-0.324,15.246,4.368,21.37
	c4.563,5.956,11.431,9.422,18.844,9.51l0.423,0.002c19.13,0,36.797-10.207,49.749-28.74c13.949-19.963,21.632-48.307,21.632-79.812
	c0-56.123-40.356-95.319-98.139-95.319c-69.433,0-106.897,52.732-106.897,102.348c0,15.783,5.098,34.256,12.988,47.066
	c4.486,7.285,5.46,16.048,2.671,24.042l-5.661,16.221c-2.488,7.13-8.335,12.541-15.64,14.475
	c-7.277,1.928-15.006,0.127-20.671-4.815c-24.153-21.078-41.022-61.358-41.022-97.956c0-37.997,12.413-74.565,34.953-102.97
	c24.435-30.793,59.718-51.407,102.033-59.614c5.42-1.057,10.67,2.491,11.722,7.913c1.051,5.422-2.491,10.669-7.913,11.721
	c-73.38,14.231-120.795,70.343-120.795,142.95c0,30.749,14.371,65.607,34.172,82.887c0.863,0.753,1.783,0.717,2.403,0.551
	c0.523-0.138,1.462-0.547,1.875-1.73l5.661-16.22c0.798-2.287,0.5-4.826-0.817-6.965c-9.844-15.98-15.959-38.034-15.959-57.554
	c0-31.353,12.245-62.15,33.597-84.495c23.661-24.763,55.925-37.853,93.301-37.853c33.384,0,63.533,11.454,84.894,32.251
	c21.438,20.873,33.245,50.374,33.245,83.068c0,74.488-38.432,128.552-91.381,128.552l-0.649-0.004
	c-13.604-0.16-26.172-6.482-34.494-17.345c-8.451-11.03-11.316-25.067-7.862-38.511l18.572-72.282
	c2.023-7.875,2.051-16.207,0.079-24.096l-0.277-1.107c-2.73-10.92-12.427-18.544-23.579-18.544c-0.003,0-0.003,0-0.005,0h-0.688
	c-8.477,0.001-16.324,4.229-20.991,11.308c-8.978,13.617-13.723,29.437-13.723,45.75v5.125c0,1.728,0.148,3.464,0.442,5.162
	l3.396,19.655c1.24,7.191,1.015,14.435-0.671,21.53l-25.534,107.439c-5.108,22.253-7.82,45.212-8.04,68.163
	c-0.032,3.355-1.745,6.471-4.561,8.296C161.612,491.063,159.72,491.606,157.816,491.606z"/>
<path d="M391.064,471.646c-3.247,0-6.433-1.579-8.355-4.493c-3.042-4.609-1.771-10.813,2.839-13.854l0.723-0.478
	c4.612-3.042,10.813-1.77,13.854,2.839c3.042,4.609,1.771,10.813-2.839,13.854l-0.723,0.478
	C394.867,471.11,392.955,471.646,391.064,471.646z"/>
<path d="M256,512c-22.989,0-45.824-3.066-67.871-9.115c-2.934-0.805-5.341-2.9-6.542-5.695s-1.064-5.984,0.37-8.666l2.392-4.47
	c13.65-25.516,24.223-52.664,31.424-80.688l7.197-28.012c0.892-3.469,3.569-6.196,7.021-7.15c3.452-0.953,7.151,0.012,9.696,2.529
	c9.862,9.754,29.854,20.121,47.479,20.121c70.888,0,124.344-64.927,124.344-151.025c0-64.201-43.541-118.258-108.348-134.515
	c-5.356-1.344-8.609-6.776-7.266-12.133s6.776-8.611,12.133-7.266c35.793,8.979,66.456,28.07,88.675,55.209
	c22.77,27.813,34.806,61.945,34.806,98.704c0,45.95-14.26,88.675-40.153,120.305c-26.776,32.708-63.778,50.721-104.19,50.721
	c-17.601,0-35.382-7.048-48.641-15.676l-3.382,13.164c-6.953,27.061-16.885,53.346-29.559,78.246C222.095,490.183,239,492,256,492
	c29.06,0,57.428-5.217,84.316-15.505c5.155-1.971,10.938,0.607,12.913,5.767c1.974,5.158-0.608,10.939-5.767,12.913
	C318.284,506.339,287.512,512,256,512z"/>
<path d="M263.508,100.314c-0.031,0-0.063,0-0.094,0c-0.502-0.004-1.004-0.006-1.507-0.006c-5.522,0-10-4.477-10-10s4.478-10,10-10
	c0.563,0,1.128,0.002,1.69,0.007c5.522,0.051,9.958,4.569,9.908,10.091C273.455,95.897,268.987,100.314,263.508,100.314z"/>
<g>
</g>
<g>
</g>
<g>
</g>
<g>
</g>
<g>
</g>
<g>
</g>
<g>
</g>
<g>
</g>
<g>
</g>
<g>
</g>
<g>
</g>
<g>
</g>
<g>
</g>
<g>
</g>
<g>
</g>
</svg>
