<?xml version="1.0" encoding="iso-8859-1"?>
<!-- Generator: Adobe Illustrator 19.0.0, SVG Export Plug-In . SVG Version: 6.00 Build 0)  -->
<svg version="1.1" id="Capa_1" xmlns="http://www.w3.org/2000/svg" xmlns:xlink="http://www.w3.org/1999/xlink" x="0px" y="0px"
	 viewBox="0 0 512.001 512.001" style="enable-background:new 0 0 512.001 512.001;" xml:space="preserve">
<path style="fill:#6E6E6E;" d="M258.135,200.728c-13.328-4.62-27.638-7.138-42.537-7.138c-71.699,0-129.823,58.124-129.823,129.823
	s58.124,129.823,129.823,129.823s129.823-58.124,129.823-129.823c0-18.833-4.016-36.727-11.229-52.88l45.249-18.256
	c9.478,21.798,14.744,45.851,14.744,71.137c0,98.631-79.956,178.587-178.587,178.587S37.01,422.045,37.01,323.414
	s79.956-178.587,178.587-178.587c19.244,0,37.771,3.056,55.138,8.688L258.135,200.728z"/>
<path style="fill:#F5B955;" d="M342.776,174.169c0,0-25.917-42.698-1.473-80.121c23.243-35.585,53.585-25.263,82.025-43.03
	c21.051-13.151,26.445-33.617,26.445-33.617s39.137,68.121,19.848,127.424c-9.544,29.343-30.768,58.141-70.954,58.141
	C373.513,202.967,350.016,183.519,342.776,174.169z"/>
<path d="M81.006,216.027c-2.312,0-4.633-0.797-6.523-2.424c-4.185-3.604-4.653-9.921-1.049-14.106l0.189-0.217
	c3.666-4.13,9.986-4.507,14.117-0.843c4.131,3.666,4.508,9.986,0.843,14.117C86.606,214.849,83.814,216.027,81.006,216.027z"/>
<path d="M300.536,151.288c-4.714,0-8.911-3.348-9.815-8.149C276.596,68.217,231.748,17.157,231.297,16.65
	c-3.672-4.125-3.305-10.446,0.82-14.119c4.125-3.671,10.446-3.306,14.119,0.82c1.993,2.239,48.998,55.767,64.139,136.083
	c1.023,5.427-2.547,10.656-7.974,11.679C301.774,151.231,301.15,151.288,300.536,151.288z"/>
<path d="M388.612,248.29c-2.161-4.97-7.887-7.313-12.913-5.287l-45.249,18.256c-2.518,1.016-4.515,3.012-5.531,5.53
	c-1.017,2.518-0.965,5.341,0.142,7.82c6.874,15.395,10.36,31.814,10.36,48.804c0,57.88-41.252,106.304-95.898,117.422
	c38.438-33.46,63.814-77.83,75.561-132.322c11.465-53.183,7.339-104.317,1.86-137.849c-0.891-5.451-6.03-9.151-11.482-8.256
	c-5.451,0.891-9.147,6.031-8.256,11.482c9.164,56.077,18.377,194.3-93.003,268.802c-60.745-5.758-108.428-57.051-108.428-119.278
	c0-66.071,53.752-119.824,119.823-119.824c13.446,0,26.656,2.216,39.262,6.586c2.628,0.911,5.512,0.688,7.966-0.616
	c2.454-1.303,4.255-3.569,4.972-6.253l12.601-47.214c1.371-5.138-1.519-10.45-6.577-12.091c-18.774-6.089-38.363-9.176-58.223-9.176
	c-37,0-72.823,10.712-103.598,30.979c-4.612,3.038-5.889,9.239-2.852,13.852c3.038,4.614,9.239,5.889,13.852,2.852
	c27.5-18.11,59.52-27.683,92.598-27.683c14.577,0,28.987,1.858,42.961,5.533l-7.418,27.797c-11.559-3.033-23.471-4.566-35.542-4.566
	c-77.099,0-139.823,62.725-139.823,139.824S138.502,463.237,215.6,463.237s139.823-62.725,139.823-139.823
	c0-16.324-2.762-32.206-8.223-47.345l26.695-10.771c6.833,18.567,10.292,38.072,10.292,58.115C384.188,416.372,308.56,492,215.6,492
	S47.01,416.373,47.01,323.414c0-23.034,4.559-45.354,13.55-66.337c2.175-5.077-0.177-10.955-5.253-13.13s-10.955,0.177-13.13,5.253
	c-10.063,23.487-15.167,48.456-15.167,74.214c0,103.987,84.6,188.587,188.588,188.587s188.587-84.6,188.587-188.587
	C404.185,297.333,398.945,272.057,388.612,248.29z"/>
<path d="M398.668,212.967c-31.422,0-57.233-24.198-63.798-32.675c-0.231-0.299-0.446-0.611-0.642-0.934
	c-1.192-1.963-28.868-48.567-1.297-90.779c16.684-25.542,37.408-30.69,55.693-35.233c10.335-2.568,20.098-4.993,29.406-10.808
	c17.208-10.75,22.03-27.519,22.074-27.685c1.034-3.922,4.334-6.832,8.355-7.365c4.017-0.537,7.965,1.414,9.986,4.932
	c1.688,2.938,41.115,72.694,20.687,135.499c-5.874,18.058-15.084,33.361-26.635,44.256
	C437.869,205.972,419.758,212.967,398.668,212.967z M351.063,168.526c7.11,8.793,27.702,24.441,47.606,24.441
	c37.011,0,53.842-27.861,61.444-51.234c12.05-37.048-1.039-78.832-10.678-101.829c-4.708,6.591-11.417,13.729-20.807,19.596
	c-12.002,7.498-24.316,10.557-35.181,13.256c-17.534,4.356-31.384,7.797-43.771,26.761
	C330.159,129.396,348.596,164.16,351.063,168.526z"/>
<path d="M436.65,107.432c-1.472,0-2.966-0.327-4.378-1.015c-4.963-2.422-7.024-8.409-4.602-13.373l0.087-0.179
	c2.387-4.981,8.358-7.083,13.339-4.698c4.981,2.386,7.084,8.358,4.698,13.339l-0.149,0.309
	C443.911,105.367,440.353,107.432,436.65,107.432z"/>
<path d="M342.777,184.172c-4.074,0-7.902-2.509-9.388-6.556c-1.903-5.183,0.754-10.926,5.935-12.832
	c0.542-0.201,41.675-15.64,69.974-45.707c3.784-4.022,10.114-4.215,14.135-0.428c4.022,3.785,4.213,10.114,0.428,14.135
	c-31.659,33.637-75.776,50.088-77.639,50.772C345.086,183.974,343.922,184.172,342.777,184.172z"/>
<g>
</g>
<g>
</g>
<g>
</g>
<g>
</g>
<g>
</g>
<g>
</g>
<g>
</g>
<g>
</g>
<g>
</g>
<g>
</g>
<g>
</g>
<g>
</g>
<g>
</g>
<g>
</g>
<g>
</g>
</svg>
