<?xml version="1.0" encoding="iso-8859-1"?>
<!-- Generator: Adobe Illustrator 19.0.0, SVG Export Plug-In . SVG Version: 6.00 Build 0)  -->
<svg version="1.1" id="Capa_1" xmlns="http://www.w3.org/2000/svg" xmlns:xlink="http://www.w3.org/1999/xlink" x="0px" y="0px"
	 viewBox="0 0 512 512" style="enable-background:new 0 0 512 512;" xml:space="preserve">
<path style="fill:#059BE6;" d="M446,502H66c-30.928,0-56-25.072-56-56V66c0-30.928,25.072-56,56-56h380c30.928,0,56,25.072,56,56
	v380C502,476.928,476.928,502,446,502z"/>
<g>
	<polygon style="fill:#FFFFFD;" points="294.167,124.542 87.167,124.542 87.167,196.542 154.667,196.542 154.667,403.458 
		226.667,403.458 226.667,196.542 294.167,196.542 	"/>
	<rect x="333.54" y="124.54" style="fill:#FFFFFD;" width="72" height="169.25"/>
	<rect x="333.54" y="331.46" style="fill:#FFFFFD;" width="72" height="72"/>
</g>
<path d="M226.667,413.458h-72c-5.523,0-10-4.478-10-10V206.542h-57.5c-5.523,0-10-4.477-10-10v-72c0-5.523,4.477-10,10-10H154.5
	c5.523,0,10,4.477,10,10c0,5.523-4.477,10-10,10H97.167v52h57.5c5.523,0,10,4.477,10,10v196.917h52V196.542c0-5.523,4.477-10,10-10
	h57.5v-52H242c-5.523,0-10-4.477-10-10s4.477-10,10-10h52.167c5.523,0,10,4.477,10,10v72c0,5.523-4.477,10-10,10h-57.5v196.917
	C236.667,408.98,232.189,413.458,226.667,413.458z"/>
<path d="M197,134.54c-2.63,0-5.21-1.07-7.07-2.93c-1.86-1.86-2.93-4.43-2.93-7.07c0-2.63,1.07-5.21,2.93-7.07
	c1.86-1.86,4.44-2.93,7.07-2.93s5.21,1.07,7.07,2.93s2.93,4.44,2.93,7.07s-1.07,5.21-2.93,7.07S199.63,134.54,197,134.54z"/>
<path d="M405.542,303.792h-72c-5.523,0-10-4.478-10-10v-169.25c0-5.523,4.477-10,10-10h72c5.523,0,10,4.477,10,10v169.25
	C415.542,299.314,411.064,303.792,405.542,303.792z M343.542,283.792h52v-149.25h-52V283.792z"/>
<path d="M405.542,413.458h-72c-5.523,0-10-4.478-10-10v-72c0-5.522,4.477-10,10-10h72c5.523,0,10,4.478,10,10v72
	C415.542,408.98,411.064,413.458,405.542,413.458z M343.542,393.458h52v-52h-52V393.458z"/>
<path d="M58,423c-5.523,0-10-4.478-10-10v-81.5c0-5.522,4.477-10,10-10s10,4.478,10,10V413C68,418.522,63.523,423,58,423z"/>
<path d="M58,296.118c-5.523,0-10-4.478-10-10V286c0-5.522,4.477-10,10-10s10,4.478,10,10v0.118
	C68,291.641,63.523,296.118,58,296.118z"/>
<path d="M446,512H66c-36.393,0-66-29.607-66-66V66C0,29.607,29.607,0,66,0h380c36.393,0,66,29.607,66,66v380
	C512,482.393,482.393,512,446,512z M66,20c-25.364,0-46,20.636-46,46v380c0,25.364,20.636,46,46,46h380c25.364,0,46-20.636,46-46V66
	c0-25.364-20.636-46-46-46H66z"/>
<g>
</g>
<g>
</g>
<g>
</g>
<g>
</g>
<g>
</g>
<g>
</g>
<g>
</g>
<g>
</g>
<g>
</g>
<g>
</g>
<g>
</g>
<g>
</g>
<g>
</g>
<g>
</g>
<g>
</g>
</svg>
