<?xml version="1.0" encoding="iso-8859-1"?>
<!-- Generator: Adobe Illustrator 19.0.0, SVG Export Plug-In . SVG Version: 6.00 Build 0)  -->
<svg version="1.1" id="Capa_1" xmlns="http://www.w3.org/2000/svg" xmlns:xlink="http://www.w3.org/1999/xlink" x="0px" y="0px"
	 viewBox="0 0 512 512" style="enable-background:new 0 0 512 512;" xml:space="preserve">
<g>
	<path style="fill:#FF5A5A;" d="M493.25,233.298h-38.548V194.75c0-4.832-3.916-8.75-8.751-8.75h-27.904
		c-4.834,0-8.75,3.918-8.75,8.75v38.548h-38.548c-4.832,0-8.75,3.917-8.75,8.751v27.904c0,4.834,3.918,8.751,8.75,8.751h38.547
		v38.547c0,4.833,3.917,8.75,8.751,8.75h27.904c4.834,0,8.751-3.917,8.751-8.75v-38.547h38.548c4.832,0,8.75-3.917,8.75-8.751
		v-27.904C502,237.215,498.082,233.298,493.25,233.298z"/>
	<path style="fill:#FF5A5A;" d="M321.434,242.712c-0.963-7.236-7.724-13.16-15.026-13.16H185.552
		c-7.301,0-13.276,5.974-13.276,13.277v28.583c0,7.302,5.974,13.277,13.276,13.277h59.675c6.875,0,11.537,4.701,9.256,10.663
		c-7.47,16.739-19.573,30.949-34.651,41.066l0,0l0,0l0,0c-15.4,10.332-33.89,16.413-53.83,16.413
		c-41.271,0-76.414-25.863-90.352-62.229h0.001c-4.123-10.761-6.478-22.392-6.478-34.601c0-12.339,2.396-24.095,6.606-34.947
		l-0.001-0.001c14.03-36.181,49.084-61.88,90.221-61.88c20.099,0,38.719,6.176,54.174,16.679l0.458,0.302
		c6.18,3.888,14.323,3.747,19.309-1.59l23.588-25.165c4.984-5.336,4.013-12.896-2.158-16.8l-0.313-0.286
		C234.739,112.053,201.78,100,165.999,100c-59.747,0-111.625,33.603-137.829,82.925l0.001,0.001
		C16.588,204.729,10,229.591,10,256.001c0,26.531,6.643,51.504,18.324,73.378h-0.001C54.582,378.539,106.374,412,165.999,412
		c38.721,0,74.117-14.138,101.391-37.492h0.001C300.801,345.893,322,303.436,322,256C322,246.974,321.434,242.712,321.434,242.712z"
		/>
</g>
<path d="M445.951,336.001h-27.904c-10.339,0-18.751-8.411-18.751-18.75v-28.548h-28.547c-10.339,0-18.75-8.412-18.75-18.751v-27.904
	c0-10.339,8.411-18.751,18.75-18.751h28.548V194.75c0-10.339,8.411-18.75,18.75-18.75h27.904c10.339,0,18.751,8.411,18.751,18.75
	v28.548h28.548c10.339,0,18.75,8.412,18.75,18.751v27.904c0,10.339-8.411,18.751-18.75,18.751h-28.548v28.548
	C464.702,327.59,456.291,336.001,445.951,336.001z M419.296,316.001h25.406v-37.298c0-5.522,4.477-10,10-10H492v-25.406h-37.298
	c-5.523,0-10-4.477-10-10V196h-25.405v37.298c0,5.523-4.477,10-10,10h-37.298v25.406h37.297c5.523,0,10,4.478,10,10V316.001z"/>
<path d="M166.002,362.83c-22.038,0-43.191-6.671-61.171-19.293c-17.543-12.314-30.862-29.382-38.518-49.357
	c-4.738-12.369-7.14-25.215-7.14-38.18c0-13.131,2.45-26.105,7.283-38.563c7.706-19.875,21.033-36.85,38.538-49.087
	c17.945-12.545,39.04-19.177,61.005-19.177c21.374,0,42.027,6.351,59.735,18.368l0.294,0.194c2.05,1.257,5.035,1.681,6.603,0.002
	l23.6-25.178c0.426-0.457,0.489-0.767,0.481-0.825c-0.008-0.057-0.146-0.342-0.689-0.685c-0.495-0.313-0.961-0.669-1.395-1.064
	C229,120.366,198.364,110,165.999,110C111.866,110,62.436,139.741,37,187.617c-11.122,20.938-17,44.586-17,68.384
	c0,23.92,5.929,47.664,17.145,68.667c1.889,3.537,3.954,7.046,6.139,10.43c2.996,4.64,1.664,10.83-2.976,13.825
	c-4.641,2.996-10.83,1.664-13.826-2.976c-2.482-3.845-4.831-7.834-6.979-11.857C6.744,310.198,0,283.196,0,256.001
	c0-27.059,6.688-53.95,19.339-77.767C48.253,123.809,104.45,90,165.999,90c36.955,0,71.934,11.892,101.157,34.389
	c0.119,0.091,0.236,0.186,0.35,0.282c5.02,3.474,8.298,8.715,9.043,14.516c0.784,6.1-1.299,12.31-5.714,17.037l-23.601,25.179
	c-7.939,8.5-21.373,9.859-31.93,3.215c-0.062-0.039-0.123-0.078-0.183-0.117l-0.458-0.303c-0.038-0.025-0.076-0.05-0.113-0.075
	c-14.392-9.781-31.182-14.95-48.553-14.95c-36.071,0-67.825,21.783-80.897,55.495c-3.934,10.145-5.929,20.687-5.929,31.333
	c0,10.511,1.957,20.949,5.817,31.024c12.792,33.379,45.349,55.807,81.012,55.807c17.22,0,33.907-5.089,48.259-14.717
	c12.626-8.472,22.756-19.974,29.477-33.425h-58.187c-12.834,0-23.275-10.441-23.275-23.276v-28.583
	c0-12.835,10.441-23.277,23.275-23.277h23.256c5.523,0,10,4.477,10,10s-4.477,10-10,10h-23.256c-1.775,0-3.275,1.501-3.275,3.277
	v28.583c0,1.776,1.5,3.276,3.275,3.276h59.675c7.056,0,13.372,3.059,16.896,8.181c3.203,4.655,3.822,10.508,1.699,16.058
	c-0.064,0.169-0.134,0.336-0.208,0.501c-8.192,18.355-21.405,34.018-38.211,45.294C207.744,356.569,187.204,362.83,166.002,362.83z"
	/>
<path d="M244.5,239.55c-2.63,0-5.21-1.07-7.07-2.93c-1.86-1.86-2.93-4.44-2.93-7.07s1.07-5.21,2.93-7.07
	c1.86-1.86,4.44-2.93,7.07-2.93s5.21,1.07,7.07,2.93c1.86,1.86,2.93,4.44,2.93,7.07s-1.07,5.21-2.93,7.07
	C249.71,238.48,247.13,239.55,244.5,239.55z"/>
<path d="M165.999,422c-26.354,0-51.555-5.999-74.905-17.831c-4.926-2.496-6.896-8.514-4.4-13.439c2.497-4.927,8.514-6.896,13.44-4.4
	c20.522,10.398,42.682,15.67,65.865,15.67c34.765,0,68.463-12.461,94.887-35.088C293.37,339.093,312,298.666,312,256
	c0-8.057-0.479-11.971-0.483-12.009c-0.295-2.22-2.828-4.439-5.108-4.439H286.5c-5.523,0-10-4.477-10-10s4.477-10,10-10h19.909
	c12.354,0,23.308,9.593,24.938,21.84C331.415,241.9,332,246.585,332,256c0,48.515-21.178,94.478-58.104,126.103
	C243.849,407.831,205.531,422,165.999,422z"/>
<path d="M60.836,381.208c-2.41,0-4.827-0.866-6.746-2.621c-0.441-0.403-0.88-0.81-1.318-1.218
	c-4.039-3.767-4.259-10.095-0.492-14.133c3.768-4.039,10.095-4.259,14.134-0.492c0.39,0.363,0.781,0.725,1.174,1.085
	c4.075,3.728,4.357,10.053,0.63,14.128C66.246,380.114,63.545,381.208,60.836,381.208z"/>
<g>
</g>
<g>
</g>
<g>
</g>
<g>
</g>
<g>
</g>
<g>
</g>
<g>
</g>
<g>
</g>
<g>
</g>
<g>
</g>
<g>
</g>
<g>
</g>
<g>
</g>
<g>
</g>
<g>
</g>
</svg>
