<?xml version="1.0" encoding="iso-8859-1"?>
<!-- Generator: Adobe Illustrator 19.0.0, SVG Export Plug-In . SVG Version: 6.00 Build 0)  -->
<svg version="1.1" id="Capa_1" xmlns="http://www.w3.org/2000/svg" xmlns:xlink="http://www.w3.org/1999/xlink" x="0px" y="0px"
	 viewBox="0 0 512 512" style="enable-background:new 0 0 512 512;" xml:space="preserve">
<path style="fill:#878791;" d="M255.417,10C127.653,10,22.648,107.402,10.583,232h166.834v-44c0-5.523,4.477-10,10-10h136
	c5.523,0,10,4.477,10,10v136c0,5.523-4.477,10-10,10h-136c-5.523,0-10-4.477-10-10v-44H10.583
	c12.065,124.598,117.07,222,244.834,222c135.862,0,246-110.138,246-246S391.279,10,255.417,10z"/>
<path d="M255.417,512c-64.022,0-125.301-23.756-172.546-66.891C35.937,402.259,6.73,343.965,0.63,280.964
	c-0.271-2.807,0.654-5.598,2.55-7.686C5.075,271.19,7.763,270,10.583,270h42.333c5.523,0,10,4.478,10,10s-4.477,10-10,10H21.851
	c16.587,115.915,115.124,202,233.566,202c130.131,0,236-105.869,236-236s-105.869-236-236-236C136.974,20,38.438,106.085,21.851,222
	h145.566v-34c0-11.028,8.972-20,20-20h136c11.028,0,20,8.972,20,20v136c0,11.028-8.972,20-20,20h-136c-11.028,0-20-8.972-20-20v-34
	h-35c-5.523,0-10-4.478-10-10s4.477-10,10-10h45c5.523,0,10,4.478,10,10v44h136V188h-136v44c0,5.523-4.477,10-10,10H10.583
	c-2.82,0-5.509-1.19-7.404-3.278c-1.896-2.088-2.821-4.879-2.55-7.686C6.73,168.035,35.937,109.741,82.87,66.891
	C130.116,23.755,191.394,0,255.417,0c68.38,0,132.667,26.628,181.02,74.981c48.352,48.352,74.98,112.639,74.98,181.019
	s-26.628,132.667-74.98,181.02C388.084,485.371,323.797,512,255.417,512z"/>
<path d="M93.917,290c-2.63,0-5.21-1.07-7.07-2.931c-1.86-1.859-2.93-4.439-2.93-7.069s1.07-5.21,2.93-7.07
	c1.86-1.86,4.44-2.93,7.07-2.93s5.21,1.069,7.07,2.93s2.93,4.44,2.93,7.07s-1.07,5.21-2.93,7.069
	C99.127,288.93,96.547,290,93.917,290z"/>
<path d="M256.001,64.845c-0.009,0-0.017,0-0.025,0l-0.559-0.001c-5.523,0-10-4.477-10-10s4.477-10,10-10l0.608,0.001
	c5.523,0.014,9.989,4.502,9.975,10.025C265.987,60.384,261.512,64.845,256.001,64.845z"/>
<path d="M383.771,111.114c-2.25,0-4.513-0.755-6.38-2.304c-24.925-20.68-54.846-34.749-86.528-40.688
	c-5.428-1.017-9.004-6.243-7.986-11.671c1.017-5.429,6.242-9.002,11.671-7.986c35.015,6.563,68.078,22.107,95.614,44.952
	c4.25,3.526,4.837,9.831,1.311,14.082C389.495,109.882,386.643,111.114,383.771,111.114z"/>
<g>
</g>
<g>
</g>
<g>
</g>
<g>
</g>
<g>
</g>
<g>
</g>
<g>
</g>
<g>
</g>
<g>
</g>
<g>
</g>
<g>
</g>
<g>
</g>
<g>
</g>
<g>
</g>
<g>
</g>
</svg>
