<?xml version="1.0" encoding="iso-8859-1"?>
<!-- Generator: Adobe Illustrator 19.0.0, SVG Export Plug-In . SVG Version: 6.00 Build 0)  -->
<svg version="1.1" id="Capa_1" xmlns="http://www.w3.org/2000/svg" xmlns:xlink="http://www.w3.org/1999/xlink" x="0px" y="0px"
	 viewBox="0 0 511.998 511.998" style="enable-background:new 0 0 511.998 511.998;" xml:space="preserve">
<g>
	<path style="fill:#F5B955;" d="M422.155,207.636c-1.719,0-3.468-0.279-5.186-0.867c-8.364-2.865-12.823-11.965-9.959-20.33
		c1.049-3.063,1.58-6.281,1.58-9.567c0-16.272-13.238-29.51-29.51-29.51c-2.319,0-4.621,0.267-6.842,0.794
		c-8.601,2.04-17.228-3.281-19.269-11.883c-2.039-8.602,3.281-17.228,11.883-19.269c4.638-1.099,9.425-1.657,14.228-1.657
		c33.926,0,61.525,27.6,61.525,61.525c0,6.821-1.112,13.53-3.307,19.938C435.024,203.455,428.808,207.636,422.155,207.636z"/>
	<path style="fill:#F5B955;" d="M480.847,221.439c-1.646,0-3.32-0.255-4.969-0.794c-8.404-2.743-12.995-11.779-10.252-20.184
		c2.891-8.858,4.356-18.127,4.356-27.551c0-48.92-39.799-88.719-88.719-88.719c-5.938,0-11.869,0.588-17.628,1.747
		c-8.662,1.741-17.107-3.865-18.853-12.532c-1.745-8.667,3.866-17.107,12.532-18.853c7.834-1.578,15.891-2.377,23.948-2.377
		c66.574,0,120.734,54.161,120.734,120.734c0,12.802-1.996,25.413-5.935,37.482C493.858,217.147,487.586,221.439,480.847,221.439z"
		/>
</g>
<path style="fill:#FF5A5A;" d="M434.528,308.258c-1.379-28.134-25.801-51.592-62.097-60.639c-4.783-1.192-7.259-6.433-5.102-10.864
	c7.191-14.771,13.985-39.171-5.883-55.983c-23.786-20.126-71.608-5.268-107.559,7.583c-4.005,1.431-7.946-2.206-6.891-6.326
	c18.715-73.15-27.29-70.334-47.043-66.428C100.755,135.215,9.323,254.95,10.005,327.031
	c0.706,74.646,87.693,138.035,212.312,132.451C340.018,454.207,438.183,382.818,434.528,308.258z"/>
<ellipse transform="matrix(-0.0968 -0.9953 0.9953 -0.0968 -92.5509 561.7515)" style="fill:#FFFFFF;" cx="208.608" cy="322.869" rx="98.39" ry="149.14"/>
<path style="fill:#6E6E6E;" d="M273.616,307.397c-9.887-33.348-52.129-51.652-94.347-40.884
	c-42.219,10.768-68.429,46.53-58.542,79.878s52.129,51.652,94.347,40.884S283.503,340.744,273.616,307.397z"/>
<path d="M190.641,400.374c-13.596,0-26.858-2.629-38.843-7.822c-20.583-8.92-35.024-24.304-40.661-43.32
	c-4.824-16.27-2.551-33.911,6.4-49.675c11.656-20.528,33.256-36.105,59.26-42.738c22.556-5.751,45.905-4.186,65.746,4.414
	c20.583,8.919,35.024,24.304,40.661,43.32c4.824,16.27,2.551,33.911-6.4,49.675c-11.656,20.528-33.256,36.105-59.26,42.738
	C208.614,399.244,199.555,400.374,190.641,400.374z M203.773,273.412c-7.187,0-14.607,0.899-22.031,2.793
	c-20.762,5.296-37.823,17.408-46.809,33.232c-6.331,11.149-7.928,22.945-4.617,34.111c8.363,28.206,45.276,43.473,82.287,34.036
	c20.762-5.296,37.823-17.408,46.807-33.232c6.331-11.149,7.928-22.945,4.617-34.111C257.341,287.692,232.41,273.412,203.773,273.412
	z"/>
<path d="M196.109,431.871c-33.245,0-64.709-7.132-90.393-20.706c-32.905-17.392-52.613-43.278-55.493-72.889
	c-2.881-29.613,11.468-58.813,40.404-82.219c27.742-22.442,65.915-37.028,107.491-41.071c41.57-4.044,81.845,2.911,113.392,19.584
	c32.905,17.392,52.613,43.278,55.493,72.89c1.307,13.443-0.95,26.885-6.711,39.953c-2.228,5.055-8.133,7.345-13.187,5.117
	c-5.055-2.228-7.345-8.133-5.118-13.188c4.359-9.888,6.077-19.963,5.105-29.947c-2.208-22.701-18.165-42.993-44.93-57.14
	c-28.124-14.864-64.385-21.03-102.108-17.36c-37.722,3.669-72.117,16.708-96.848,36.713c-23.537,19.04-35.283,42.029-33.075,64.73
	c2.208,22.701,18.165,42.993,44.93,57.14c28.124,14.864,64.388,21.028,102.108,17.359c25.664-2.497,50.309-9.494,71.272-20.236
	c4.916-2.521,10.943-0.575,13.463,4.34c2.52,4.916,0.576,10.943-4.34,13.463c-23.181,11.879-50.311,19.607-78.457,22.345
	C211.381,431.499,203.699,431.871,196.109,431.871z"/>
<path d="M330.008,383.237c-2.629,0-5.252-1.029-7.216-3.075c-3.809-3.968-3.697-10.26,0.235-14.091
	c3.912-3.87,10.229-3.864,14.122,0.033c3.902,3.906,3.909,10.227,0.005,14.131l-0.219,0.215
	C334.995,382.313,332.499,383.237,330.008,383.237z"/>
<path d="M79.801,198c-2.482,0-4.967-0.917-6.904-2.768c-3.996-3.814-4.143-10.145-0.329-14.141l0.308-0.322
	c3.814-3.996,10.145-4.144,14.141-0.329c3.996,3.814,4.143,10.145,0.329,14.141l-0.308,0.322C85.073,196.963,82.439,198,79.801,198z
	"/>
<path d="M207.222,469.824c-68.17,0.001-128.435-20.43-167.08-57.035c-25.961-24.59-39.841-54.211-40.138-85.663
	c-0.32-33.851,17.405-76.84,48.631-117.944c3.342-4.399,9.615-5.256,14.015-1.914c4.398,3.342,5.255,9.616,1.914,14.015
	c-28.176,37.09-44.833,76.586-44.558,105.653c0.245,25.896,11.964,50.561,33.891,71.328c37.638,35.65,98.859,54.332,167.972,51.224
	c69.625-3.119,136.31-30.797,174.03-72.232c19.862-21.817,29.765-45.508,28.637-68.509c-1.141-23.269-22.544-43.453-54.526-51.424
	c-5.231-1.304-9.535-4.845-11.808-9.714c-2.266-4.855-2.217-10.407,0.133-15.234c6.47-13.29,11.141-31.705-3.352-43.969
	c-21.244-17.975-74.843,1.184-97.731,9.366c-5.332,1.905-11.244,0.722-15.427-3.09c-4.198-3.826-5.93-9.625-4.521-15.134
	c6.14-24.002,5.355-40.948-2.27-49.008c-8.104-8.565-24.243-6.891-33.141-5.131c-29.267,5.787-60.009,21.447-88.903,45.288
	c-4.261,3.514-10.565,2.912-14.081-1.349c-3.516-4.261-2.912-10.565,1.349-14.081c31.443-25.943,65.245-43.054,97.753-49.482
	c22.672-4.483,40.497-0.677,51.552,11.006c11.598,12.258,14.638,32.18,9.067,59.295c42.622-14.668,84.443-23.963,109.273-2.952
	c18.113,15.326,21.552,39.077,9.603,65.47c39.266,10.665,65.46,37.588,67.009,69.162c1.394,28.432-10.302,57.117-33.825,82.955
	c-41.171,45.225-113.181,75.4-187.927,78.749C217.545,469.707,212.358,469.824,207.222,469.824z"/>
<path style="fill:#FFFFFF;" d="M194.696,327.754c-5.328-8.524-18.396-10.73-29.187-4.927c-10.791,5.802-15.22,17.417-9.892,25.94
	c5.328,8.524,18.396,10.73,29.187,4.927C195.595,347.891,200.024,336.277,194.696,327.754z"/>
<path d="M172.098,366.979c-10.237,0.001-19.729-4.536-24.963-12.912c-3.708-5.931-4.729-13.045-2.876-20.029
	c2.191-8.26,8.211-15.558,16.512-20.022c15.584-8.379,34.212-4.674,42.405,8.436l0,0c3.708,5.932,4.729,13.045,2.876,20.029
	c-2.192,8.262-8.211,15.559-16.512,20.022C183.912,365.528,177.885,366.979,172.098,366.979z M178.157,329.569
	c-2.479,0-5.231,0.624-7.913,2.065c-3.397,1.826-5.883,4.644-6.65,7.534c-0.432,1.626-0.262,3.072,0.503,4.296
	c2.214,3.543,9.316,4.997,15.969,1.419c3.397-1.826,5.883-4.643,6.65-7.534c0.432-1.625,0.263-3.071-0.502-4.295l0,0
	C184.893,330.94,181.827,329.569,178.157,329.569z"/>
<path d="M422.155,217.638c-2.867,0-5.703-0.474-8.43-1.408c-6.57-2.25-11.873-6.925-14.929-13.164
	c-3.057-6.239-3.5-13.295-1.249-19.868c0.691-2.018,1.041-4.147,1.041-6.326c0-10.757-8.752-19.508-19.509-19.508
	c-1.543,0-3.069,0.176-4.533,0.523c-6.761,1.603-13.74,0.479-19.653-3.169c-5.914-3.647-10.053-9.378-11.656-16.138
	c-3.308-13.955,5.353-28,19.307-31.308c5.395-1.279,10.958-1.927,16.536-1.927c39.441,0,71.528,32.088,71.528,71.528
	c0,7.927-1.294,15.725-3.847,23.179C443.159,210.571,433.27,217.638,422.155,217.638z M379.08,137.36
	c21.787,0,39.513,17.726,39.513,39.512c0,4.39-0.713,8.699-2.12,12.808c-0.52,1.517-0.417,3.147,0.289,4.587
	c0.705,1.44,1.93,2.52,3.448,3.04c0.637,0.218,1.291,0.329,1.946,0.329c2.566,0,4.848-1.633,5.68-4.064
	c1.836-5.363,2.769-10.981,2.769-16.698c0-28.41-23.114-51.523-51.523-51.523c-4.027,0-8.038,0.467-11.92,1.387
	c-3.222,0.764-5.222,4.007-4.458,7.229c0.37,1.56,1.326,2.885,2.692,3.727c1.365,0.842,2.979,1.103,4.536,0.732
	C372.904,137.718,375.984,137.36,379.08,137.36z"/>
<path d="M480.847,231.441c-2.739,0-5.455-0.433-8.073-1.288c-6.603-2.154-11.973-6.752-15.12-12.947
	c-3.147-6.194-3.693-13.243-1.537-19.848c2.564-7.855,3.863-16.08,3.863-24.448c0-43.405-35.312-78.717-78.717-78.717
	c-5.276,0-10.543,0.521-15.652,1.55c-14.061,2.825-27.804-6.308-30.632-20.363c-1.372-6.809-0.009-13.746,3.837-19.532
	c3.846-5.785,9.715-9.727,16.524-11.099c8.481-1.708,17.202-2.575,25.923-2.575c72.088,0,130.736,58.648,130.736,130.736
	c0,13.859-2.163,27.515-6.429,40.585C502.068,224.229,492.133,231.441,480.847,231.441z M381.263,74.189
	c54.435,0,98.721,44.286,98.721,98.721c0,10.479-1.631,20.792-4.849,30.653c-0.498,1.525-0.372,3.153,0.354,4.583
	c0.727,1.43,1.966,2.493,3.492,2.99c0.611,0.2,1.239,0.301,1.866,0.301c2.604,0,4.897-1.666,5.706-4.147
	c3.611-11.065,5.442-22.632,5.442-34.38c0-61.057-49.674-110.731-110.731-110.731c-7.397,0-14.79,0.733-21.972,2.18
	c-1.572,0.316-2.928,1.227-3.816,2.564c-0.888,1.335-1.203,2.938-0.886,4.509c0.652,3.247,3.828,5.353,7.076,4.702
	C368.069,74.843,374.663,74.189,381.263,74.189z"/>
<path d="M208.636,325.917c-3.05,0-6.061-1.39-8.025-4.022c-3.304-4.427-2.391-10.694,2.035-13.997l0.685-0.511
	c4.428-3.305,10.695-2.391,13.998,2.035c3.304,4.427,2.391,10.694-2.035,13.997l-0.685,0.511
	C212.813,325.27,210.716,325.917,208.636,325.917z"/>
<g>
</g>
<g>
</g>
<g>
</g>
<g>
</g>
<g>
</g>
<g>
</g>
<g>
</g>
<g>
</g>
<g>
</g>
<g>
</g>
<g>
</g>
<g>
</g>
<g>
</g>
<g>
</g>
<g>
</g>
</svg>
