<?xml version="1.0" encoding="iso-8859-1"?>
<!-- Generator: Adobe Illustrator 19.0.0, SVG Export Plug-In . SVG Version: 6.00 Build 0)  -->
<svg version="1.1" id="Capa_1" xmlns="http://www.w3.org/2000/svg" xmlns:xlink="http://www.w3.org/1999/xlink" x="0px" y="0px"
	 viewBox="0 0 512 512" style="enable-background:new 0 0 512 512;" xml:space="preserve">
<path style="fill:#6E87F5;" d="M414,10H98c-48.601,0-88,39.399-88,88v316c0,48.601,39.399,88,88,88h158c0-0.128,0-104.876,0-196.5
	h-59v-71.006h59v-52.008c0-33.259,15.455-84.938,84.206-84.938h74.517v69.66c0,0-49.552,0-56.742,0
	c-7.639,0-17.982,3.59-17.982,19.316v47.521h75.172L407.98,305.5H340c0,90.727,0,196.372,0,196.5h74c48.601,0,88-39.399,88-88V98
	C502,49.399,462.601,10,414,10z"/>
<path d="M256,395.493c-5.523,0-10-4.477-10-10v-0.08c0-0.013,0-0.027,0-0.04s0-0.027,0-0.04c0-5.523,4.477-10,10-10
	c5.523,0,10,4.477,10,10c0,0.013,0,0.027,0,0.04s0,0.026,0,0.04s0,0.026,0,0.04s0,0.026,0,0.04
	C266,391.016,261.523,395.493,256,395.493z"/>
<path d="M414,512h-74c-5.523,0-10-4.477-10-10V305.5c0-5.523,4.477-10,10-10h58.937l5.178-51.455H340c-5.523,0-10-4.477-10-10
	v-47.521c0-21.638,15.073-29.316,27.981-29.316h46.742v-49.66h-64.517c-66.976,0-74.207,52.406-74.207,74.938v52.007
	c0,5.523-4.477,10-10,10h-49V295.5h49c5.523,0,10,4.477,10,10V344c0,5.523-4.477,10-10,10s-10-4.477-10-10v-28.5h-49
	c-5.523,0-10-4.477-10-10v-71.006c0-5.523,4.477-10,10-10h49v-42.007c0-13.38,2.37-39.076,18.243-60.834
	c11.349-15.558,33.741-34.104,75.964-34.104h74.517c5.523,0,10,4.477,10,10v69.66c0,5.523-4.477,10-10,10h-56.742
	c-5.818,0-7.981,2.525-7.981,9.316v37.521h65.172c2.826,0,5.521,1.196,7.417,3.292c1.896,2.096,2.816,4.896,2.533,7.709
	l-7.191,71.455c-0.514,5.109-4.814,8.999-9.95,8.999H350V492h64c43.009,0,78-34.991,78-78V98c0-43.009-34.991-78-78-78H98
	c-43.009,0-78,34.991-78,78v316c0,43.009,34.991,78,78,78h148v-67.5c0-5.523,4.477-10,10-10c5.523,0,10,4.477,10,10V502
	c0,5.523-4.477,10-10,10H98c-54.038,0-98-43.962-98-98V98C0,43.962,43.962,0,98,0h316c54.038,0,98,43.962,98,98v316
	C512,468.038,468.038,512,414,512z"/>
<path d="M58,206c-5.523,0-10-4.477-10-10v-83.5c0-5.523,4.477-10,10-10s10,4.477,10,10V196C68,201.523,63.523,206,58,206z"/>
<path d="M58,249.5c-5.523,0-10-4.477-10-10v-0.118c0-5.523,4.477-10,10-10s10,4.477,10,10v0.118C68,245.023,63.523,249.5,58,249.5z"
	/>
<g>
</g>
<g>
</g>
<g>
</g>
<g>
</g>
<g>
</g>
<g>
</g>
<g>
</g>
<g>
</g>
<g>
</g>
<g>
</g>
<g>
</g>
<g>
</g>
<g>
</g>
<g>
</g>
<g>
</g>
</svg>
