<?xml version="1.0" encoding="iso-8859-1"?>
<!-- Generator: Adobe Illustrator 19.0.0, SVG Export Plug-In . SVG Version: 6.00 Build 0)  -->
<svg version="1.1" id="Capa_1" xmlns="http://www.w3.org/2000/svg" xmlns:xlink="http://www.w3.org/1999/xlink" x="0px" y="0px"
	 viewBox="0 0 512 512" style="enable-background:new 0 0 512 512;" xml:space="preserve">
<path style="fill:#2D82C8;" d="M446,502H66c-30.928,0-56-25.072-56-56V66c0-30.928,25.072-56,56-56h380c30.928,0,56,25.072,56,56
	v380C502,476.928,476.928,502,446,502z"/>
<path style="fill:#FFFFFF;" d="M94.397,163h43.393c6.754,0,12.723,4.371,14.765,10.81c4.356,13.733,12.998,38.213,25.111,59.524
	c9.837,17.306,21.765,31.824,30.56,41.433c4.41,4.818,12.44,1.682,12.44-4.85v-62.622c0-9.187-2.882-18.143-8.24-25.605
	l-4.246-5.914c-0.985-1.372-1.514-3.018-1.514-4.706l0,0c0-4.457,3.613-8.07,8.07-8.07h60.68c5.477,0,9.917,4.44,9.917,9.917v80.28
	c0,5.211,5.39,8.676,10.131,6.512l4.127-1.884c0.71-0.324,1.351-0.783,1.886-1.352l0,0c20.861-22.151,37.773-47.713,50.001-75.575
	l4.538-10.34c2.015-4.591,6.556-7.553,11.57-7.548l42.844,0.05c8.037,0.009,13.166,8.578,9.378,15.666l-19.794,37.037
	c-2.56,4.791-5.409,9.422-8.529,13.868l-23.164,33.008c-4.112,5.86-3.319,13.846,1.865,18.783l16.964,16.154
	c13.129,12.502,24.572,26.663,34.038,42.124l5.075,8.289c4.738,7.739-0.831,17.678-9.905,17.678h-36.989
	c-7.482,0-14.646-3.026-19.862-8.39l-36.986-38.031c-7.326-7.533-16.701-12.749-26.964-15.002l0,0
	c-5.252-1.153-10.224,2.846-10.224,8.223v37.366c0,8.745-7.089,15.833-15.833,15.833l0,0c-31.024,0-61.185-10.212-85.827-29.06l0,0
	c-43.658-33.392-75.312-80.039-90.217-132.943l-8.094-28.731C83.674,168.943,88.175,163,94.397,163z"/>
<path d="M416.358,375.667h-36.989c-10.122,0-19.974-4.162-27.03-11.417l-36.986-38.03c-5.518-5.674-12.405-9.707-20.02-11.74v35.354
	c0,14.244-11.589,25.833-25.833,25.833c-33.029,0-65.667-11.051-91.902-31.117c-9.924-7.59-19.389-15.96-28.132-24.878
	c-3.866-3.943-3.804-10.275,0.14-14.142c3.945-3.867,10.276-3.802,14.142,0.14c8.081,8.242,16.829,15.979,26.001,22.994
	c22.767,17.413,51.09,27.003,79.752,27.003c3.217,0,5.833-2.617,5.833-5.833v-37.366c0-5.607,2.506-10.838,6.876-14.353
	c4.37-3.515,10.02-4.84,15.493-3.637c12.211,2.68,23.272,8.835,31.988,17.797l36.986,38.03c3.313,3.407,7.939,5.361,12.692,5.361
	h36.989c0.233,0,0.945,0,1.407-0.825s0.091-1.432-0.031-1.631l-5.074-8.289c-9.009-14.713-19.912-28.207-32.406-40.104
	l-16.964-16.154c-8.839-8.417-10.166-21.778-3.154-31.77l23.164-33.008c2.878-4.102,5.535-8.421,7.896-12.838l19.794-37.036
	c0.068-0.129,0.173-0.323-0.016-0.638c-0.188-0.314-0.409-0.315-0.555-0.315l-42.845-0.049h-0.003c-1.039,0-1.98,0.614-2.397,1.566
	l-4.538,10.34c-12.722,28.985-30.176,55.367-51.878,78.413c-1.431,1.519-3.118,2.728-5.018,3.594l-4.123,1.882
	c-5.338,2.437-11.469,1.998-16.403-1.175c-4.935-3.172-7.881-8.567-7.881-14.434V173h-56.835l2.053,2.858
	c6.617,9.217,10.116,20.088,10.116,31.437v62.622c0,7.137-4.3,13.42-10.954,16.005c-6.646,2.584-14.05,0.853-18.862-4.404
	c-8.784-9.596-21.443-24.888-31.877-43.244c-12.717-22.371-21.717-48.098-25.95-61.441c-0.727-2.293-2.83-3.833-5.233-3.833H95.206
	l7.875,27.951c4.586,16.277,10.889,32.123,18.734,47.098c2.563,4.892,0.676,10.936-4.217,13.499
	c-4.894,2.563-10.936,0.674-13.498-4.217c-8.489-16.202-15.309-33.346-20.27-50.957l-8.095-28.73
	c-1.661-5.897-0.492-12.079,3.205-16.962C82.64,155.8,88.272,153,94.396,153h43.394c11.159,0,20.923,7.148,24.298,17.786
	c3.995,12.595,12.461,36.826,24.272,57.606c7.713,13.569,16.824,25.371,24.307,34.062v-55.159c0-7.138-2.2-13.975-6.363-19.772
	l-4.246-5.915c-2.218-3.088-3.391-6.733-3.391-10.538c0-9.964,8.105-18.07,18.069-18.07h60.681c10.981,0,19.916,8.935,19.916,19.917
	v75.487c19.606-21.09,35.41-45.144,46.988-71.525l4.538-10.34c3.607-8.22,11.736-13.529,20.712-13.529c0.009,0,0.017,0,0.026,0
	l42.845,0.049c7.318,0.008,13.933,3.763,17.691,10.042c3.76,6.28,3.944,13.883,0.494,20.337l-19.794,37.037
	c-2.74,5.126-5.822,10.139-9.163,14.899l-23.164,33.008c-1.279,1.823-1.037,4.261,0.575,5.797l16.965,16.154
	c13.752,13.096,25.754,27.948,35.67,44.145l5.074,8.289c4.079,6.662,4.241,15.035,0.423,21.85
	C431.396,371.433,424.171,375.667,416.358,375.667z"/>
<path d="M131.938,293.381c-3.114,0-6.183-1.45-8.136-4.174l8.127-5.827l-8.17,5.768c-0.004-0.006-0.064-0.089-0.068-0.096
	c-3.218-4.488-2.188-10.735,2.3-13.954c4.489-3.219,10.735-2.188,13.954,2.3l0.111,0.155c3.218,4.488,2.188,10.735-2.3,13.954
	C135.991,292.772,133.954,293.381,131.938,293.381z"/>
<path d="M204.864,464h-81.5c-5.522,0-10-4.477-10-10s4.478-10,10-10h81.5c5.522,0,10,4.477,10,10S210.387,464,204.864,464z"/>
<path d="M250.364,464h-0.119c-5.522,0-10-4.477-10-10s4.478-10,10-10h0.119c5.522,0,10,4.477,10,10S255.887,464,250.364,464z"/>
<path d="M446,512H66c-36.393,0-66-29.607-66-66V66C0,29.607,29.607,0,66,0h380c36.393,0,66,29.607,66,66v380
	C512,482.393,482.393,512,446,512z M66,20c-25.364,0-46,20.636-46,46v380c0,25.364,20.636,46,46,46h380c25.364,0,46-20.636,46-46V66
	c0-25.364-20.636-46-46-46H66z"/>
<g>
</g>
<g>
</g>
<g>
</g>
<g>
</g>
<g>
</g>
<g>
</g>
<g>
</g>
<g>
</g>
<g>
</g>
<g>
</g>
<g>
</g>
<g>
</g>
<g>
</g>
<g>
</g>
<g>
</g>
</svg>
