<?xml version="1.0" encoding="iso-8859-1"?>
<!-- Generator: Adobe Illustrator 19.0.0, SVG Export Plug-In . SVG Version: 6.00 Build 0)  -->
<svg version="1.1" id="Capa_1" xmlns="http://www.w3.org/2000/svg" xmlns:xlink="http://www.w3.org/1999/xlink" x="0px" y="0px"
	 viewBox="0 0 512 512" style="enable-background:new 0 0 512 512;" xml:space="preserve">
<path style="fill:#5A55E1;" d="M446,502H66c-30.928,0-56-25.072-56-56V66c0-30.928,25.072-56,56-56h380c30.928,0,56,25.072,56,56
	v380C502,476.928,476.928,502,446,502z"/>
<path style="fill:#FF6E37;" d="M322.252,142c-26.814,0-50.706,12.454-66.252,31.878C240.454,154.454,216.562,142,189.748,142
	c-46.852,0-84.833,37.981-84.833,84.833c0,71.5,96.679,172.167,150.679,172.167c0.139,0,0.269-0.015,0.407-0.017
	c0.138,0.002,0.268,0.017,0.407,0.017c54,0,150.679-100.667,150.679-172.167C407.086,179.981,369.104,142,322.252,142z"/>
<path d="M256.407,409c-0.138,0-0.273-0.002-0.408-0.007c-0.135,0.005-0.27,0.007-0.406,0.007
	c-34.126,0-75.581-32.313-102.998-62.554c-36.118-39.837-57.681-84.553-57.681-119.612c0-52.292,42.542-94.833,94.834-94.833
	c25.036,0,48.613,9.717,66.252,26.995C273.639,141.717,297.216,132,322.252,132c52.292,0,94.834,42.542,94.834,94.833
	c0,41.324-27.762,82.768-44.311,103.794c-3.416,4.339-9.703,5.09-14.043,1.673c-4.34-3.416-5.089-9.703-1.674-14.042
	c25.438-32.321,40.027-65.644,40.027-91.425c0-41.263-33.57-74.833-74.834-74.833c-22.837,0-44.139,10.251-58.444,28.126
	c-1.898,2.371-4.771,3.751-7.808,3.751s-5.909-1.38-7.808-3.751C233.887,162.251,212.585,152,189.748,152
	c-41.264,0-74.834,33.57-74.834,74.833c0,29.777,20.116,70.462,52.498,106.179c30.27,33.388,65.587,55.853,87.98,55.987
	c0.158-0.008,0.311-0.013,0.466-0.016c0.094-0.001,0.189-0.001,0.283,0c0.158,0.002,0.313,0.008,0.467,0.016
	c12.303-0.074,28.865-6.887,46.672-19.204c4.54-3.142,10.771-2.006,13.913,2.535c3.142,4.542,2.006,10.771-2.536,13.913
	C293.136,401.131,272.993,409,256.407,409z"/>
<path d="M338.285,363.845c-2.634,0-5.264-1.034-7.229-3.088c-3.816-3.992-3.676-10.322,0.316-14.139l0.282-0.272
	c3.982-3.827,10.312-3.702,14.14,0.28c3.827,3.982,3.701,10.312-0.28,14.139l-0.319,0.307
	C343.259,362.925,340.77,363.845,338.285,363.845z"/>
<path d="M58,214.864c-5.522,0-10-4.477-10-10v-81.5c0-5.523,4.478-10,10-10s10,4.477,10,10v81.5
	C68,210.387,63.522,214.864,58,214.864z"/>
<path d="M58,260.364c-5.522,0-10-4.477-10-10v-0.118c0-5.523,4.478-10,10-10s10,4.477,10,10v0.118
	C68,255.887,63.522,260.364,58,260.364z"/>
<path d="M446,512H66c-36.393,0-66-29.607-66-66V66C0,29.607,29.607,0,66,0h380c36.393,0,66,29.607,66,66v380
	C512,482.393,482.393,512,446,512z M66,20c-25.364,0-46,20.636-46,46v380c0,25.364,20.636,46,46,46h380c25.364,0,46-20.636,46-46V66
	c0-25.364-20.636-46-46-46H66z"/>
<g>
</g>
<g>
</g>
<g>
</g>
<g>
</g>
<g>
</g>
<g>
</g>
<g>
</g>
<g>
</g>
<g>
</g>
<g>
</g>
<g>
</g>
<g>
</g>
<g>
</g>
<g>
</g>
<g>
</g>
</svg>
