<?xml version="1.0" encoding="iso-8859-1"?>
<!-- Generator: Adobe Illustrator 19.0.0, SVG Export Plug-In . SVG Version: 6.00 Build 0)  -->
<svg version="1.1" id="Capa_1" xmlns="http://www.w3.org/2000/svg" xmlns:xlink="http://www.w3.org/1999/xlink" x="0px" y="0px"
	 viewBox="0 0 512 512" style="enable-background:new 0 0 512 512;" xml:space="preserve">
<circle style="fill:#D764A5;" cx="256" cy="256" r="246"/>
<path d="M256,512c-68.38,0-132.667-26.628-181.02-74.98C26.629,388.667,0,324.38,0,256S26.629,123.333,74.98,74.98
	C123.333,26.628,187.62,0,256,0s132.667,26.628,181.02,74.98C485.371,123.333,512,187.62,512,256
	c0,51.713-15.346,101.542-44.379,144.1c-3.112,4.562-9.335,5.738-13.896,2.625c-4.563-3.112-5.737-9.334-2.625-13.896
	C477.856,349.607,492,303.675,492,256c0-130.131-105.869-236-236-236S20,125.869,20,256s105.869,236,236,236
	c48.307,0,94.742-14.49,134.286-41.902c4.54-3.147,10.77-2.017,13.916,2.521c3.146,4.539,2.018,10.769-2.521,13.916
	C358.773,496.278,308.397,512,256,512z"/>
<path d="M429.761,440.136c-2.56,0-5.118-0.976-7.071-2.929c-3.905-3.905-3.905-10.237,0-14.143l0.188-0.188
	c3.906-3.905,10.236-3.905,14.143,0c3.905,3.905,3.905,10.237,0,14.143l-0.188,0.188C434.879,439.16,432.32,440.136,429.761,440.136
	z"/>
<g>
	<path style="fill:#FAA5D2;" d="M286.247,168.129c38.023-15.379,75.205-36.966,105.306-67.238C355.327,69.206,307.909,50,256,50
		c-14.422,0-28.496,1.488-42.082,4.308c15.237,20.113,34.732,48.064,55.268,83.233C275.066,147.612,280.748,157.817,286.247,168.129
		z"/>
	<path style="fill:#FAA5D2;" d="M175.273,198.267c22.427-3.644,47.321-8.961,72.782-16.697c-4.347-8.032-8.617-15.618-12.757-22.734
		c-23.975-41.203-46.691-72.261-61.982-91.554C115.168,92.795,71.07,144.386,55.815,207.263
		C83.534,207.47,127.043,206.103,175.273,198.267z"/>
	<path style="fill:#FAA5D2;" d="M269.336,259.167c4.684-1.644,9.333-3.153,13.952-4.562c-5.515-12.924-11.122-25.208-16.721-36.821
		c-26.697,8.473-55.38,15.214-85.813,20.116c-47.626,7.67-90.29,9.438-119.479,9.438c-3.948,0-7.644-0.033-11.078-0.087
		C50.076,250.153,50,253.068,50,256c0,51.364,18.803,98.333,49.895,134.411c7.221-10.05,16.552-21.998,28.028-34.688
		C156.279,324.367,203.832,282.162,269.336,259.167z"/>
	<path style="fill:#FAA5D2;" d="M282.586,296.909c-80.378,28.217-131.381,89.642-153.421,121.419
		C164.131,445.688,208.16,462,256,462c29.739,0,58-6.312,83.533-17.653c-9.656-56.31-24.537-107.486-41.333-152.448
		C293.045,293.402,287.837,295.066,282.586,296.909z"/>
	<path style="fill:#FAA5D2;" d="M318.126,198.139c-4.494,2.037-9.077,4.005-13.724,5.921c6.456,13.51,12.578,27.178,18.355,40.971
		c57.371-10.424,106.754-4.544,139.061,2.628c-1.762-44.214-17.452-84.839-42.813-117.611
		C391.749,157.258,357.941,180.092,318.126,198.139z"/>
	<path style="fill:#FAA5D2;" d="M337.711,283.157c16.77,45.765,29.708,92.689,38.645,140.031
		c43.602-31.444,74.408-79.516,83.124-134.931c-9.295-2.279-20.72-4.583-33.85-6.256
		C403.205,279.144,372.575,277.803,337.711,283.157z"/>
</g>
<path d="M286.251,178.131c-3.597,0-7.042-1.948-8.828-5.296c-5.528-10.368-11.205-20.546-16.873-30.251
	c-17.167-29.401-35.538-57.07-54.603-82.237c-2.071-2.734-2.597-6.339-1.393-9.551c1.205-3.211,3.972-5.582,7.331-6.278
	C226.325,41.52,241.167,40,256,40c52.313,0,102.791,18.952,142.137,53.364c2.079,1.819,3.313,4.418,3.41,7.18
	c0.096,2.761-0.955,5.439-2.903,7.399c-28.159,28.318-64.713,51.687-108.646,69.457
	C288.772,177.895,287.502,178.131,286.251,178.131z M231.686,61.499c16.043,22.154,31.521,45.97,46.136,71
	c4.328,7.412,8.66,15.09,12.929,22.914c33.783-14.562,62.563-32.667,85.786-53.964C342.198,74.646,299.81,60,256,60
	C247.87,60,239.737,60.502,231.686,61.499z"/>
<path d="M61.001,217.283c-1.809,0-3.563-0.007-5.261-0.02c-3.054-0.022-5.93-1.44-7.809-3.848c-1.879-2.407-2.555-5.542-1.834-8.51
	c15.765-64.978,61.821-119.849,123.201-146.781c4.163-1.827,9.032-0.615,11.854,2.946c15.151,19.117,38.344,50.724,62.789,92.736
	c4.352,7.478,8.694,15.217,12.908,23.003c1.429,2.641,1.596,5.783,0.455,8.561c-1.142,2.777-3.47,4.895-6.343,5.767
	c-23.287,7.077-48.213,12.796-74.086,17l0,0C131.015,215.589,89.367,217.283,61.001,217.283z M170.322,79.685
	c-48.325,23.553-85.264,66.501-101.341,117.553c27.141-0.306,64.239-2.269,104.688-8.841c20.635-3.353,40.628-7.698,59.599-12.948
	c-2.191-3.911-4.401-7.781-6.612-11.582C205.284,127.135,184.931,98.604,170.322,79.685z"/>
<path d="M99.895,400.411c-2.901,0-5.67-1.262-7.574-3.472C58.581,357.791,40,307.738,40,256c0-2.846,0.067-5.844,0.206-9.167
	c0.224-5.363,4.64-9.583,9.988-9.583c0.054,0,0.107,0,0.162,0.001c3.59,0.057,7.264,0.086,10.919,0.086
	c27.407,0,70.106-1.615,117.889-9.31c29.741-4.791,58.13-11.444,84.377-19.775c4.742-1.506,9.871,0.706,12.033,5.188
	c5.893,12.222,11.583,24.751,16.911,37.24c1.114,2.611,1.066,5.572-0.132,8.146s-3.434,4.517-6.149,5.344
	c-4.773,1.455-9.207,2.905-13.556,4.431c-17.149,6.021-34.11,13.812-50.414,23.157c-4.794,2.746-10.903,1.088-13.648-3.703
	c-2.746-4.792-1.089-10.902,3.703-13.649c17.358-9.951,35.438-18.252,53.734-24.676c1.224-0.43,2.453-0.854,3.693-1.273
	c-2.747-6.219-5.576-12.425-8.464-18.571c-24.813,7.433-51.313,13.441-78.909,17.886c-49.088,7.906-92.932,9.565-121.068,9.565
	c-0.424,0-0.847,0-1.271-0.001c0.289,42.264,14.233,83.223,39.564,116.758c6.603-8.581,13.613-16.981,20.937-25.079
	c8.377-9.263,17.29-18.229,26.49-26.648c4.074-3.729,10.398-3.449,14.128,0.626c3.729,4.074,3.448,10.4-0.626,14.128
	c-8.737,7.996-17.202,16.511-25.158,25.309c-9.781,10.816-18.975,22.193-27.323,33.814c-1.787,2.489-4.618,4.021-7.68,4.156
	C100.189,400.408,100.042,400.411,99.895,400.411z"/>
<path d="M186.671,312.879c-3.104,0-6.164-1.441-8.119-4.15c-3.23-4.479-2.219-10.729,2.26-13.96l0.363-0.263
	c4.472-3.242,10.725-2.247,13.967,2.225c3.242,4.471,2.246,10.724-2.225,13.966l-0.404,0.292
	C190.743,312.265,188.697,312.879,186.671,312.879z"/>
<path d="M256,472c-48.719,0-94.709-15.836-132.997-45.796c-4.174-3.266-5.075-9.22-2.055-13.575
	c23.822-34.347,76.07-96.28,158.325-125.156c5.259-1.846,10.685-3.588,16.126-5.175c5.023-1.465,10.335,1.194,12.169,6.101
	c18.852,50.469,32.922,102.369,41.82,154.257c0.773,4.511-1.614,8.971-5.797,10.829C315.934,465.771,286.463,472,256,472z
	 M143.003,416.17C176.136,439.643,215.003,452,256,452c25.027,0,49.312-4.63,72.297-13.772
	c-8.183-45.026-20.343-90.014-36.213-133.976c-2.082,0.679-4.147,1.377-6.186,2.093l0,0
	C214.853,331.285,167.508,382.929,143.003,416.17z"/>
<path d="M461.817,257.659c-0.723,0-1.448-0.078-2.167-0.238c-30.625-6.798-78.925-12.76-135.105-2.551
	c-4.62,0.837-9.198-1.646-11.012-5.976c-5.697-13.602-11.806-27.236-18.154-40.523c-1.185-2.479-1.297-5.335-0.312-7.899
	s2.982-4.61,5.521-5.657c4.832-1.993,9.218-3.884,13.408-5.784h0.001c38.614-17.502,71.566-39.729,97.941-66.06
	c2.032-2.029,4.856-3.088,7.703-2.903c2.865,0.183,5.514,1.589,7.271,3.859c27.577,35.637,43.103,78.285,44.896,123.333
	c0.123,3.1-1.199,6.082-3.58,8.072C466.413,256.85,464.139,257.659,461.817,257.659z M385.572,229.397
	c25.118,0,47.296,2.582,65.33,5.861c-3.397-32.437-14.737-63.189-33.225-90.075c-26.542,24.518-58.589,45.368-95.424,62.063h0.001
	c-1.438,0.651-2.894,1.301-4.381,1.953c3.781,8.149,7.46,16.392,11.003,24.647C348.94,230.665,367.979,229.397,385.572,229.397z"/>
<path d="M376.355,433.188c-1.251,0-2.509-0.234-3.705-0.712c-3.178-1.268-5.485-4.071-6.12-7.433
	c-8.831-46.773-21.686-93.354-38.209-138.445c-1.031-2.815-0.745-5.945,0.78-8.527c1.524-2.582,4.128-4.343,7.092-4.798
	c30.104-4.623,60.621-5.025,90.7-1.192c11.888,1.514,23.652,3.689,34.968,6.463c5.046,1.238,8.304,6.133,7.497,11.266
	c-4.497,28.596-14.547,55.575-29.868,80.186c-14.987,24.073-34.261,44.698-57.284,61.302
	C380.477,432.546,378.425,433.188,376.355,433.188z M351.304,291.44c13.067,37.256,23.695,75.433,31.69,113.828
	c33.026-28.201,56.119-67.016,64.932-109.386c-7.716-1.621-15.604-2.948-23.56-3.961
	C400.524,288.883,375.502,288.732,351.304,291.44z"/>
<g>
</g>
<g>
</g>
<g>
</g>
<g>
</g>
<g>
</g>
<g>
</g>
<g>
</g>
<g>
</g>
<g>
</g>
<g>
</g>
<g>
</g>
<g>
</g>
<g>
</g>
<g>
</g>
<g>
</g>
</svg>
