<?xml version="1.0" encoding="iso-8859-1"?>
<!-- Generator: Adobe Illustrator 19.0.0, SVG Export Plug-In . SVG Version: 6.00 Build 0)  -->
<svg version="1.1" id="Capa_1" xmlns="http://www.w3.org/2000/svg" xmlns:xlink="http://www.w3.org/1999/xlink" x="0px" y="0px"
	 viewBox="0 0 512 512" style="enable-background:new 0 0 512 512;" xml:space="preserve">
<rect x="10" y="256" style="fill:#6E6E6E;" width="246" height="246"/>
<rect x="256" y="256" style="fill:#BEBEBE;" width="246" height="246"/>
<rect x="10" y="10" style="fill:#FFFFFF;" width="246" height="246"/>
<rect x="256" y="10" style="fill:#6E87F5;" width="246" height="246"/>
<path d="M134.5,246c-2.63,0-5.21,1.07-7.07,2.93c-1.86,1.86-2.93,4.44-2.93,7.07s1.069,5.21,2.93,7.07s4.44,2.93,7.07,2.93
	s5.21-1.07,7.069-2.93c1.86-1.86,2.931-4.44,2.931-7.07s-1.07-5.21-2.931-7.07C139.71,247.07,137.13,246,134.5,246z"/>
<path d="M502,0H10C4.478,0,0,4.477,0,10v492c0,5.523,4.478,10,10,10h492c5.522,0,10-4.477,10-10V10C512,4.477,507.522,0,502,0z
	 M492,48h-77.5c-5.522,0-10,4.477-10,10s4.478,10,10,10H492v178H266V20h226V48z M20,266h75.5c5.522,0,10-4.477,10-10
	s-4.478-10-10-10H20V20h226v226h-74c-5.522,0-10,4.477-10,10c0,5.523,4.478,10,10,10h74v226H20V266z M492,492H266V266h226V492z"/>
<path d="M372,68h0.118c5.522,0,10-4.477,10-10s-4.478-10-10-10H372c-5.522,0-10,4.477-10,10S366.478,68,372,68z"/>
<g>
</g>
<g>
</g>
<g>
</g>
<g>
</g>
<g>
</g>
<g>
</g>
<g>
</g>
<g>
</g>
<g>
</g>
<g>
</g>
<g>
</g>
<g>
</g>
<g>
</g>
<g>
</g>
<g>
</g>
</svg>
