<?xml version="1.0" encoding="iso-8859-1"?>
<!-- Generator: Adobe Illustrator 19.0.0, SVG Export Plug-In . SVG Version: 6.00 Build 0)  -->
<svg version="1.1" id="Capa_1" xmlns="http://www.w3.org/2000/svg" xmlns:xlink="http://www.w3.org/1999/xlink" x="0px" y="0px"
	 viewBox="0 0 512 512" style="enable-background:new 0 0 512 512;" xml:space="preserve">
<path style="fill:#F5B955;" d="M501.857,300.558c-1.998-29.039-25.851-52.374-54.925-53.779
	c-11.112-0.541-21.573,2.057-30.593,6.974c-1.2-57.835-48.421-104.352-106.54-104.352c-17.199,0-33.436,4.093-47.815,11.33
	c-0.003,0.002-0.006,0.005-0.006,0.009v201.86h182.072C477.404,362.599,504.182,334.414,501.857,300.558L501.857,300.558z"/>
<path d="M444.05,372.599H261.978c-5.523,0-9.999-4.477-9.999-9.999V160.738c0-3.802,2.158-7.264,5.53-8.95
	c16.336-8.219,33.929-12.387,52.29-12.387c30.713,0,59.7,11.844,81.618,33.35c18.468,18.121,30.184,41.389,33.771,66.621
	c7.168-2.065,14.679-2.947,22.23-2.582c16.51,0.799,32.181,7.678,44.125,19.37c11.949,11.697,19.155,27.221,20.29,43.71v0.001
	c1.309,19.067-5.124,37.229-18.111,51.141C480.914,364.731,462.808,372.599,444.05,372.599z M271.977,352.6H444.05
	c13.432,0,25.882-5.411,35.055-15.236c9.164-9.815,13.702-22.644,12.777-36.121l0,0c-1.637-23.788-21.593-43.325-45.433-44.479
	c-8.86-0.429-17.615,1.563-25.325,5.767c-3.065,1.67-6.781,1.622-9.801-0.129c-3.021-1.751-4.909-4.952-4.982-8.442
	c-1.082-52.141-44.391-94.56-96.543-94.56c-13.177,0-25.871,2.589-37.821,7.703L271.977,352.6L271.977,352.6z"/>
<path d="M225.981,365.798c-5.523,0-9.999-4.477-9.999-9.999V173.814c0-5.523,4.477-9.999,9.999-9.999
	c5.523,0,9.999,4.477,9.999,9.999v181.985C235.98,361.321,231.504,365.798,225.981,365.798z"/>
<path d="M189.984,365.798c-5.523,0-9.999-4.477-9.999-9.999V202.436c0-5.523,4.477-9.999,9.999-9.999
	c5.523,0,9.999,4.477,9.999,9.999v153.363C199.983,361.321,195.507,365.798,189.984,365.798z"/>
<path d="M153.987,365.798c-5.523,0-9.999-4.477-9.999-9.999v-167.5c0-5.523,4.477-9.999,9.999-9.999
	c5.523,0,9.999,4.477,9.999,9.999v167.5C163.986,361.321,159.51,365.798,153.987,365.798z"/>
<path d="M117.99,365.798c-5.523,0-9.999-4.477-9.999-9.999V179.314c0-5.523,4.477-9.999,9.999-9.999s9.999,4.477,9.999,9.999
	v176.485C127.989,361.321,123.513,365.798,117.99,365.798z"/>
<path d="M81.993,365.798c-5.523,0-9.999-4.477-9.999-9.999V226.31c0-5.523,4.477-9.999,9.999-9.999s9.999,4.477,9.999,9.999v129.489
	C91.992,361.321,87.516,365.798,81.993,365.798z"/>
<path d="M45.996,355.299c-5.523,0-9.999-4.477-9.999-9.999v-62.636c0-5.523,4.477-9.999,9.999-9.999s9.999,4.477,9.999,9.999V345.3
	C55.995,350.822,51.519,355.299,45.996,355.299z"/>
<path d="M45.996,250.31c-2.63,0-5.21-1.07-7.069-2.93s-2.93-4.44-2.93-7.069c0-2.64,1.07-5.21,2.93-7.069
	c1.86-1.86,4.44-2.93,7.069-2.93s5.21,1.07,7.069,2.93c1.86,1.86,2.93,4.43,2.93,7.069c0,2.63-1.07,5.21-2.93,7.069
	C51.206,249.24,48.626,250.31,45.996,250.31z"/>
<path d="M9.999,342.288c-5.523,0-9.999-4.477-9.999-9.999v-76.29C0,250.477,4.477,246,9.999,246s9.999,4.477,9.999,9.999v76.29
	C19.998,337.811,15.522,342.288,9.999,342.288z"/>
<path d="M310.058,204.817c-0.02,0-0.038,0-0.058,0h-0.203c-5.523,0-9.999-4.477-9.999-9.999s4.477-9.999,9.999-9.999h0.316
	c5.522,0.031,9.974,4.534,9.942,10.056C320.025,200.376,315.554,204.817,310.058,204.817z"/>
<path d="M369.965,263.751c-5.427,0-9.88-4.341-9.993-9.791c-0.313-15.097-7.317-29.115-19.215-38.458
	c-4.343-3.411-5.1-9.696-1.688-14.04c3.411-4.343,9.696-5.1,14.04-1.688c16.631,13.06,26.42,32.659,26.859,53.771
	c0.114,5.521-4.269,10.09-9.79,10.205C370.106,263.751,370.035,263.751,369.965,263.751z"/>
<g>
</g>
<g>
</g>
<g>
</g>
<g>
</g>
<g>
</g>
<g>
</g>
<g>
</g>
<g>
</g>
<g>
</g>
<g>
</g>
<g>
</g>
<g>
</g>
<g>
</g>
<g>
</g>
<g>
</g>
</svg>
