<?xml version="1.0" encoding="iso-8859-1"?>
<!-- Generator: Adobe Illustrator 19.0.0, SVG Export Plug-In . SVG Version: 6.00 Build 0)  -->
<svg version="1.1" id="Capa_1" xmlns="http://www.w3.org/2000/svg" xmlns:xlink="http://www.w3.org/1999/xlink" x="0px" y="0px"
	 viewBox="0 0 512 512" style="enable-background:new 0 0 512 512;" xml:space="preserve">
<path style="fill:#6E87F5;" d="M183.416,390.575V217.943H120.64V113.579l0,0c56.393,0,102.109-45.716,102.109-102.109V10h81.51
	v103.579h76.899v104.364h-76.899v138.89c0,21.972,12.554,38.45,32.956,38.45c13.34,0,26.679-4.708,30.603-9.416l23.541,91.023
	c-14.91,14.125-44.728,25.11-89.455,25.11C225.005,502,183.416,463.55,183.416,390.575z"/>
<path d="M301.904,512c-23.326,0-43.945-3.437-61.283-10.214c-5.144-2.01-7.684-7.81-5.673-12.954
	c2.01-5.143,7.811-7.683,12.954-5.673c15.008,5.867,33.177,8.841,54.002,8.841c45.063,0,67.927-11.216,78.188-18.737l-18.665-72.172
	c-7.6,2.771-16.525,4.191-24.212,4.191c-25.292,0-42.957-19.923-42.957-48.45v-138.89c0-5.523,4.477-10,10-10h66.899v-84.364
	h-66.899c-5.523,0-10-4.477-10-10V20h-61.831c-4.125,54.539-47.444,98.312-101.787,103.137v84.806h52.776c5.523,0,10,4.477,10,10
	v172.632c0,17.281,2.489,32.618,7.398,45.586c1.956,5.165-0.646,10.938-5.812,12.893c-5.165,1.956-10.938-0.647-12.893-5.812
	c-5.769-15.238-8.694-32.958-8.694-52.667V227.943H120.64c-5.523,0-10-4.477-10-10V113.579c0-5.523,4.477-10,10-10
	c50.789,0,92.108-41.32,92.108-92.108V10c0-5.523,4.477-10,10-10h81.51c5.523,0,10,4.477,10,10v93.579h66.899
	c5.523,0,10,4.477,10,10v104.364c0,5.523-4.477,10-10,10h-66.899v128.89c0,13.124,6.012,28.45,22.957,28.45
	c11.101,0,21.009-3.893,22.989-5.894c2.401-2.881,6.179-4.139,9.839-3.316c3.66,0.822,6.518,3.66,7.458,7.291l23.541,91.023
	c0.911,3.522-0.163,7.262-2.804,9.764C379.278,502.109,345.067,512,301.904,512z M211.702,481.609c-2.553,0-5.104-0.973-7.054-2.923
	l-0.146-0.147c-3.871-3.939-3.816-10.271,0.123-14.142s10.27-3.816,14.142,0.123c3.905,3.905,3.917,10.249,0.012,14.154
	C216.824,480.63,214.263,481.609,211.702,481.609z"/>
<path d="M257.25,364.558c-5.523,0-10-4.477-10-10v-81.5c0-5.523,4.477-10,10-10s10,4.477,10,10v81.5
	C267.25,360.081,262.773,364.558,257.25,364.558z"/>
<path d="M257.25,237.676c-5.523,0-10-4.477-10-10v-0.118c0-5.523,4.477-10,10-10s10,4.477,10,10v0.118
	C267.25,233.199,262.773,237.676,257.25,237.676z"/>
<g>
</g>
<g>
</g>
<g>
</g>
<g>
</g>
<g>
</g>
<g>
</g>
<g>
</g>
<g>
</g>
<g>
</g>
<g>
</g>
<g>
</g>
<g>
</g>
<g>
</g>
<g>
</g>
<g>
</g>
</svg>
