<?xml version="1.0" encoding="iso-8859-1"?>
<!-- Generator: Adobe Illustrator 19.0.0, SVG Export Plug-In . SVG Version: 6.00 Build 0)  -->
<svg version="1.1" id="Capa_1" xmlns="http://www.w3.org/2000/svg" xmlns:xlink="http://www.w3.org/1999/xlink" x="0px" y="0px"
	 viewBox="0 0 512 512" style="enable-background:new 0 0 512 512;" xml:space="preserve">
<g>
	<path style="fill:#5A55E1;" d="M414,270.06L414,270.06c48.601,0,88,39.399,88,88V430H326v-71.94
		C326,309.459,365.399,270.06,414,270.06z"/>
	<path style="fill:#5A55E1;" d="M242,278.06L242,278.06c46.392,0,84,37.608,84,84V430H158v-67.94
		C158,315.668,195.608,278.06,242,278.06z"/>
	<path style="fill:#5A55E1;" d="M84,292.346L84,292.346c40.869,0,74,33.131,74,74V430H10v-63.654
		C10,325.477,43.131,292.346,84,292.346z"/>
	<circle style="fill:#5A55E1;" cx="414" cy="160" r="78"/>
	<circle style="fill:#5A55E1;" cx="242" cy="180.24" r="66"/>
	<circle style="fill:#5A55E1;" cx="80.5" cy="204.43" r="56"/>
</g>
<path d="M414,260.061c-39.597,0-73.783,23.608-89.226,57.487c-15.895-29.439-47.036-49.487-82.774-49.487
	c-38.123,0-71.016,22.813-85.75,55.504c-14.654-24.654-41.548-41.219-72.25-41.219c-46.318,0-84,37.682-84,84V430
	c0,5.523,4.477,10,10,10h492c5.523,0,10-4.477,10-10v-71.94C512,304.023,468.038,260.061,414,260.061z M20,366.346
	c0-35.29,28.71-64,64-64s64,28.71,64,64V420H20V366.346z M168,366.346v-4.286c0-40.804,33.196-74,74-74l0,0
	c40.804,0,74,33.196,74,74V420H168V366.346z M492,420H336v-57.94v-4c0-43.009,34.99-78,78-78s78,34.99,78,78V420z"/>
<path d="M414,248c48.523,0,88-39.477,88-88c0-23.308-9.022-45.274-25.403-61.852c-16.367-16.563-38.195-25.847-61.459-26.141
	C414.759,72.002,414.38,72,414,72c-48.523,0-88,39.477-88,88S365.477,248,414,248z M414,92c0.292,0,0.584,0.001,0.88,0.005
	C451.89,92.473,482,122.976,482,160c0,37.495-30.505,68-68,68s-68-30.505-68-68S376.505,92,414,92z"/>
<path d="M195.331,143.569c2.55,0,5.101-0.969,7.052-2.91l0.247-0.245c3.927-3.883,3.962-10.215,0.078-14.142
	c-3.883-3.927-10.215-3.962-14.142-0.078l-0.287,0.284c-3.916,3.894-3.933,10.226-0.039,14.142
	C190.195,142.585,192.763,143.569,195.331,143.569z"/>
<path d="M242,256.202c19.462,0,38.924-7.408,53.741-22.224c29.632-29.632,29.632-77.848,0-107.48
	c-16.036-16.035-38.194-24.03-60.794-21.934c-5.5,0.51-9.544,5.382-9.034,10.881c0.509,5.5,5.377,9.538,10.88,9.034
	c16.66-1.547,32.99,4.345,44.806,16.161c21.834,21.834,21.834,57.362,0,79.196c-21.835,21.833-57.363,21.834-79.196,0
	c-10.257-10.258-16.078-23.891-16.389-38.388c-0.118-5.521-4.692-9.909-10.212-9.783c-5.521,0.119-9.901,4.691-9.783,10.212
	c0.422,19.676,8.321,38.179,22.242,52.1C203.076,248.794,222.538,256.202,242,256.202z"/>
<path d="M80.5,270.429c36.393,0,66-29.607,66-66s-29.607-66-66-66s-66,29.607-66,66S44.107,270.429,80.5,270.429z M80.5,158.429
	c25.364,0,46,20.636,46,46c0,25.364-20.636,46-46,46s-46-20.636-46-46C34.5,179.065,55.135,158.429,80.5,158.429z"/>
<path d="M440.327,320.717c-4.092,3.709-4.402,10.033-0.693,14.125c5.772,6.369,8.952,14.614,8.952,23.218v16.606
	c0,5.523,4.477,10,10,10s10-4.477,10-10V358.06c0-13.579-5.02-26.595-14.133-36.649
	C450.742,317.318,444.418,317.007,440.327,320.717z"/>
<path d="M414.618,303.479L414,303.476c-5.523,0-10,4.477-10,10s4.477,10,10,10l0.384,0.002c0.04,0,0.08,0,0.12,0
	c5.468,0,9.933-4.4,9.997-9.883C424.565,308.073,420.141,303.544,414.618,303.479z"/>
<g>
</g>
<g>
</g>
<g>
</g>
<g>
</g>
<g>
</g>
<g>
</g>
<g>
</g>
<g>
</g>
<g>
</g>
<g>
</g>
<g>
</g>
<g>
</g>
<g>
</g>
<g>
</g>
<g>
</g>
</svg>
