<?xml version="1.0" encoding="iso-8859-1"?>
<!-- Generator: Adobe Illustrator 19.0.0, SVG Export Plug-In . SVG Version: 6.00 Build 0)  -->
<svg version="1.1" id="Capa_1" xmlns="http://www.w3.org/2000/svg" xmlns:xlink="http://www.w3.org/1999/xlink" x="0px" y="0px"
	 viewBox="0 0 512 512" style="enable-background:new 0 0 512 512;" xml:space="preserve">
<circle style="fill:#7DD787;" cx="256" cy="256" r="246"/>
<g>
	<path style="fill:#FFFFFF;" d="M382.775,293.97c-3.413,5.834-9.553,9.092-15.858,9.092c-3.145,0-6.33-0.812-9.242-2.508
		c-48.208-28.177-103.906-32.702-142.147-31.544c-42.364,1.292-73.426,9.656-73.736,9.738c-9.765,2.664-19.855-3.077-22.535-12.842
		c-2.678-9.765,3.052-19.85,12.811-22.54c1.397-0.383,34.828-9.464,81.314-10.995c27.386-0.906,53.742,1.004,78.34,5.668
		c31.157,5.912,59.571,16.287,84.469,30.835C384.937,273.985,387.885,285.219,382.775,293.97L382.775,293.97z M400.473,239.592
		c-3.858,0-7.763-0.988-11.332-3.077c-114.616-66.982-263.294-27.164-264.784-26.749c-11.984,3.299-24.37-3.735-27.669-15.719
		c-3.301-11.982,3.734-24.37,15.718-27.669c1.717-0.475,42.72-11.61,99.741-13.493c33.592-1.107,65.922,1.235,96.095,6.956
		c38.21,7.25,73.069,19.973,103.605,37.817c10.731,6.273,14.347,20.052,8.073,30.784
		C415.741,235.599,408.211,239.592,400.473,239.592L400.473,239.592z"/>
	<path style="fill:#FFFFFF;" d="M353.978,353.773c-2.881,4.924-8.063,7.675-13.386,7.675c-2.652,0-5.342-0.683-7.799-2.12
		c-40.703-23.786-87.722-27.609-120.006-26.626c-35.765,1.086-61.986,8.145-62.25,8.218c-8.243,2.255-16.762-2.596-19.022-10.84
		c-2.26-8.245,2.571-16.758,10.815-19.028c1.18-0.327,29.403-7.992,68.648-9.284c23.113-0.765,45.369,0.847,66.134,4.789
		c26.299,4.986,50.293,13.742,71.311,26.025C355.809,336.903,358.297,346.388,353.978,353.773L353.978,353.773z"/>
</g>
<path d="M256,512c-68.38,0-132.667-26.628-181.019-74.981C26.628,388.667,0,324.38,0,256c0-51.13,15.028-100.49,43.461-142.745
	c3.083-4.582,9.297-5.797,13.879-2.714s5.797,9.297,2.714,13.879C33.851,163.363,20,208.862,20,256c0,130.131,105.869,236,236,236
	s236-105.869,236-236S386.131,20,256,20c-50.354,0-98.401,15.636-138.946,45.217c-4.462,3.255-10.718,2.277-13.973-2.185
	s-2.277-10.717,2.185-13.973C149.257,16.965,201.38,0,256,0c68.38,0,132.667,26.628,181.019,74.981
	C485.372,123.333,512,187.62,512,256s-26.628,132.667-74.981,181.019C388.667,485.372,324.38,512,256,512z"/>
<path d="M76.346,97.911c-2.434,0-4.872-0.878-6.789-2.661c-4.044-3.761-4.307-10.054-0.545-14.098l0.208-0.222
	c3.802-4.005,10.132-4.169,14.138-0.366c4.005,3.803,4.169,10.132,0.366,14.138C81.745,96.829,79.047,97.911,76.346,97.911z"/>
<path d="M366.917,313.062c-4.997,0-9.933-1.337-14.275-3.867c-46.16-26.979-99.869-31.313-136.811-30.188
	c-40.402,1.232-70.2,9.068-71.449,9.401c-15.02,4.099-30.638-4.803-34.768-19.854c-4.13-15.056,4.75-30.68,19.797-34.827
	c3.67-1.005,37.044-9.814,83.643-11.349c28.108-0.929,55.204,1.035,80.532,5.838c32.271,6.123,61.76,16.898,87.65,32.025
	c13.491,7.881,18.056,25.274,10.175,38.771c-0.001,0.002-0.003,0.005-0.005,0.008C386.338,307.681,376.955,313.062,366.917,313.062z
	 M226.148,258.85c38.798,0,90.778,6.304,136.574,33.071c1.295,0.755,2.711,1.141,4.195,1.141c2.961,0,5.729-1.585,7.225-4.138
	c2.318-3.975,0.975-9.094-2.995-11.414c-23.917-13.975-51.266-23.948-81.289-29.645c-23.884-4.529-49.506-6.381-76.145-5.499
	c-45.075,1.484-77.641,10.272-79.005,10.646c-4.41,1.216-7.023,5.816-5.807,10.25c1.216,4.431,5.818,7.054,10.259,5.84
	c1.408-0.376,33.375-8.784,76.063-10.086C218.727,258.909,222.378,258.85,226.148,258.85z M400.474,249.592
	c-5.748,0-11.414-1.538-16.384-4.447c-110.595-64.631-255.623-26.136-257.075-25.74c-8.375,2.306-17.141,1.214-24.688-3.073
	c-7.549-4.288-12.975-11.26-15.28-19.631c-2.306-8.369-1.214-17.136,3.073-24.684c4.288-7.549,11.26-12.976,19.631-15.281
	c1.744-0.483,43.671-11.918,102.066-13.847c34.319-1.126,67.387,1.267,98.288,7.126c39.34,7.465,75.269,20.589,106.788,39.008
	c7.497,4.382,12.838,11.42,15.041,19.816c2.203,8.398,1.002,17.152-3.381,24.648C422.754,243.42,411.994,249.592,400.474,249.592z
	 M228.318,187.616c50.624,0,111.749,8.637,165.869,40.266c1.942,1.136,4.055,1.711,6.287,1.711c4.438,0,8.58-2.373,10.81-6.193
	c1.689-2.889,2.151-6.255,1.304-9.485c-0.847-3.23-2.902-5.938-5.787-7.624c-29.543-17.265-63.331-29.587-100.423-36.625
	c-29.458-5.586-61.054-7.87-93.901-6.787c-56.043,1.851-95.742,12.677-97.405,13.137c-3.232,0.89-5.913,2.976-7.562,5.879
	c-1.649,2.903-2.068,6.276-1.181,9.497s2.974,5.903,5.876,7.551c2.903,1.65,6.276,2.069,9.498,1.182
	C122.519,199.897,167.953,187.616,228.318,187.616z"/>
<path d="M340.592,371.449c-4.503,0-8.946-1.206-12.847-3.488c-38.651-22.587-83.681-26.202-114.653-25.263
	c-34.26,1.041-59.681,7.805-59.934,7.874c-13.528,3.703-27.574-4.301-31.287-17.847c-3.712-13.541,4.274-27.587,17.804-31.312
	c1.202-0.333,30.338-8.299,70.973-9.638c23.845-0.79,46.833,0.879,68.328,4.959c27.424,5.2,52.487,14.356,74.491,27.216
	c5.88,3.438,10.069,8.958,11.795,15.542c1.727,6.587,0.785,13.452-2.653,19.33v0.001
	C358.052,366.611,349.616,371.449,340.592,371.449z M221.783,322.565c32.946,0,77.1,5.364,116.056,28.13
	c0.856,0.5,1.781,0.753,2.753,0.753c1.978,0,3.755-1.019,4.754-2.724l0,0c0.74-1.265,0.942-2.743,0.571-4.16
	c-0.372-1.418-1.275-2.608-2.542-3.349c-20.027-11.704-42.948-20.059-68.126-24.833c-20.053-3.806-41.567-5.362-63.94-4.62
	c-38.275,1.26-66.031,8.849-66.307,8.926c-2.927,0.806-4.642,3.831-3.843,6.747c0.799,2.915,3.822,4.636,6.739,3.838
	c0.263-0.072,27.503-7.442,64.585-8.568C215.467,322.617,218.572,322.565,221.783,322.565z"/>
<path d="M256,467.177c-5.523,0-10-4.477-10-10s4.477-10,10-10h0.471c0.01,0,0.02,0,0.03,0c5.51,0,9.983,4.458,10,9.971
	c0.016,5.523-4.448,10.013-9.971,10.029H256z"/>
<path d="M293.191,463.746c-4.72,0-8.919-3.356-9.818-8.164c-1.015-5.429,2.563-10.652,7.992-11.667
	c28.314-5.294,55.539-17.224,78.73-34.501c4.429-3.298,10.694-2.383,13.994,2.045c3.299,4.429,2.384,10.694-2.045,13.994
	c-25.623,19.088-55.708,32.27-87.002,38.121C294.419,463.69,293.801,463.746,293.191,463.746z"/>
<g>
</g>
<g>
</g>
<g>
</g>
<g>
</g>
<g>
</g>
<g>
</g>
<g>
</g>
<g>
</g>
<g>
</g>
<g>
</g>
<g>
</g>
<g>
</g>
<g>
</g>
<g>
</g>
<g>
</g>
</svg>
