<?xml version="1.0" encoding="iso-8859-1"?>
<!-- Generator: Adobe Illustrator 19.0.0, SVG Export Plug-In . SVG Version: 6.00 Build 0)  -->
<svg version="1.1" id="Capa_1" xmlns="http://www.w3.org/2000/svg" xmlns:xlink="http://www.w3.org/1999/xlink" x="0px" y="0px"
	 viewBox="0 0 512 512" style="enable-background:new 0 0 512 512;" xml:space="preserve">
<circle style="fill:#6E87F5;" cx="121.961" cy="256.002" r="112.01"/>
<circle style="fill:#E68CBE;" cx="389.994" cy="256.002" r="112.01"/>
<path d="M121.965,377.954c-31.244,0-62.488-11.893-86.274-35.679C2.284,308.869-8.853,258.586,7.319,214.177
	c1.89-5.189,7.631-7.864,12.819-5.976c5.189,1.89,7.866,7.629,5.976,12.819c-13.522,37.135-4.211,79.178,23.721,107.11
	c39.773,39.773,104.489,39.772,144.262,0c39.773-39.773,39.773-104.489,0-144.261c-30.134-30.134-76.352-38.357-115.007-20.463
	c-5.012,2.321-10.957,0.138-13.277-4.874c-2.32-5.012-0.138-10.957,4.874-13.277c46.235-21.404,101.514-11.569,137.554,24.47
	c47.571,47.572,47.571,124.977,0,172.549C184.454,366.061,153.209,377.954,121.965,377.954z"/>
<path d="M42.763,186.798c-2.555,0-5.109-0.973-7.063-2.919c-3.911-3.9-3.919-10.233-0.02-14.144l0.591-0.587
	c3.931-3.879,10.264-3.836,14.143,0.098c3.878,3.932,3.834,10.264-0.098,14.143l-0.473,0.471
	C47.89,185.818,45.326,186.798,42.763,186.798z"/>
<path d="M389.99,378.011c-67.277,0-122.01-54.734-122.01-122.01s54.734-122.01,122.01-122.01S512,188.723,512,256
	S457.266,378.011,389.99,378.011z M389.99,153.991c-56.248,0-102.009,45.761-102.009,102.009s45.761,102.009,102.009,102.009
	S491.998,312.248,491.998,256S446.237,153.991,389.99,153.991z"/>
<path d="M458.327,266.001c-5.523,0-10.001-4.477-10.001-10.001c0-19.89-9.988-38.221-26.719-49.035
	c-4.638-2.999-5.969-9.19-2.97-13.828c2.999-4.638,9.19-5.967,13.828-2.97c22.456,14.515,35.862,39.126,35.862,65.834
	C468.328,261.524,463.851,266.001,458.327,266.001z"/>
<path d="M390.428,197.664c-0.023,0-0.046,0-0.068,0l-0.37-0.001c-5.523,0-10.001-4.477-10.001-10.001
	c0-5.523,4.477-10.001,10.001-10.001l0.504,0.001c5.523,0.037,9.971,4.544,9.934,10.068
	C400.391,193.231,395.92,197.664,390.428,197.664z"/>
<g>
</g>
<g>
</g>
<g>
</g>
<g>
</g>
<g>
</g>
<g>
</g>
<g>
</g>
<g>
</g>
<g>
</g>
<g>
</g>
<g>
</g>
<g>
</g>
<g>
</g>
<g>
</g>
<g>
</g>
</svg>
