<?xml version="1.0" encoding="iso-8859-1"?>
<!-- Generator: Adobe Illustrator 19.0.0, SVG Export Plug-In . SVG Version: 6.00 Build 0)  -->
<svg version="1.1" id="Capa_1" xmlns="http://www.w3.org/2000/svg" xmlns:xlink="http://www.w3.org/1999/xlink" x="0px" y="0px"
	 viewBox="0 0 512 512" style="enable-background:new 0 0 512 512;" xml:space="preserve">
<g>
	<path style="fill:#059BE6;" d="M10,408V104h142.568c57.883,0,87.508,36.918,87.508,77.481c0,37.829-23.701,63.808-52.415,69.733
		C220.477,256.228,246,287.677,246,325.506c0,46.032-30.081,82.495-88.42,82.495H10V408z M173.989,192.875
		c0-18.687-13.673-31.904-35.551-31.904H74.72v63.808h63.718C160.316,224.779,173.989,212.474,173.989,192.875z M179.913,316.39
		c0-19.142-13.673-34.638-38.741-34.638H74.72v69.278h66.452C165.328,351.029,179.913,338.267,179.913,316.39z"/>
	<rect x="331.85" y="112.001" style="fill:#059BE6;" width="122" height="32"/>
	<path style="fill:#059BE6;" d="M431.906,344.606c-2.736,4.962-6.007,8.902-9.821,11.81c-6.6,5.033-14.74,7.549-24.42,7.549
		c-14.228,0-26.107-4.856-35.64-14.574c-9.535-9.715-14.52-23.309-14.959-40.786h154.878c0.881-45.152-8.727-78.667-28.819-100.546
		c-20.095-21.877-47.519-32.817-82.28-32.817c-30.947,0-56.539,10.452-76.779,31.349c-20.24,20.901-30.359,49.802-30.359,86.708
		c0,30.897,7.7,56.479,23.099,76.747C326.311,395.35,356.378,408,397.005,408c25.665,0,47.042-5.626,64.13-16.881
		c12.101-7.969,21.905-18.518,29.409-31.645c2.719-4.756,5.003-9.739,6.912-14.868H431.906z M361.146,234.376
		c8.799-9.364,19.944-14.05,33.439-14.05c12.612,0,23.32,4.439,32.12,13.315c8.799,8.88,13.419,21.845,13.86,38.898h-92.399
		C348.018,256.465,352.347,243.743,361.146,234.376z"/>
</g>
<path d="M157.58,418H10c-5.522,0-10-4.477-10-10V104c0-5.523,4.478-10,10-10h142.567c29.729,0,54.78,9.12,72.447,26.375
	c16.161,15.784,25.062,37.485,25.062,61.106c0,20.22-6.091,38.566-17.613,53.055c-5.006,6.295-10.947,11.69-17.545,16.013
	C239.496,265.02,256,293.545,256,325.506c0,26.313-8.73,48.986-25.248,65.567C213.203,408.689,187.9,418,157.58,418z M20,398h137.58
	c48.371,0,78.42-27.778,78.42-72.495c0-32.376-21.431-60.064-49.85-64.406c-4.785-0.731-8.36-4.786-8.486-9.626
	c-0.125-4.84,3.234-9.075,7.977-10.053c22.118-4.564,44.436-24.868,44.436-59.939c0-33.589-23.967-67.481-77.509-67.481H20V398z
	 M141.173,361.029H74.721c-5.522,0-10-4.477-10-10v-69.278c0-5.523,4.478-10,10-10h66.452c28.697,0,48.74,18.356,48.74,44.639
	c0,13.639-4.727,25.049-13.668,32.998C167.677,357.004,155.55,361.029,141.173,361.029z M84.721,341.029h56.452
	c13.111,0,28.74-4.275,28.74-24.639c0-15.198-11.013-24.639-28.74-24.639H84.721V341.029z M138.438,234.779H74.721
	c-5.522,0-10-4.477-10-10v-63.808c0-5.523,4.478-10,10-10h63.718c26.819,0,45.551,17.231,45.551,41.904
	C183.989,217.939,165.684,234.779,138.438,234.779z M84.721,214.779h53.718c7.683,0,25.551-2.134,25.551-21.904
	c0-13.511-9.79-21.904-25.551-21.904H84.721V214.779z"/>
<path d="M453.854,154h-122c-5.522,0-10-4.477-10-10v-32c0-5.523,4.478-10,10-10h122c5.522,0,10,4.477,10,10v32
	C463.854,149.523,459.376,154,453.854,154z M341.854,134h102v-12h-102V134z"/>
<path d="M397.006,418c-43.702,0-76.714-14.08-98.119-41.849c-9.061-11.924-15.736-25.621-19.887-40.765
	c-1.46-5.326,1.675-10.828,7.002-12.287c5.323-1.459,10.827,1.675,12.287,7.002c3.471,12.667,9.016,24.072,16.48,33.896
	c17.623,22.863,44.537,34.004,82.236,34.004c23.558,0,43.284-5.125,58.629-15.232c10.694-7.042,19.5-16.517,26.175-28.163h-44.375
	c-2.726,3.86-5.834,7.131-9.284,9.762c-8.353,6.368-18.609,9.597-30.484,9.597c-16.949,0-31.342-5.912-42.778-17.571
	c-11.319-11.532-17.315-27.527-17.818-47.537c-0.067-2.695,0.956-5.303,2.838-7.233c1.882-1.93,4.464-3.019,7.159-3.019h144.896
	c-0.64-37.37-9.438-65.527-26.202-83.783c-18.284-19.905-42.789-29.581-74.914-29.581c-28.383,0-51.147,9.259-69.597,28.306
	c-11.506,11.883-19.497,26.947-23.749,44.772c-1.281,5.373-6.672,8.688-12.048,7.407c-5.372-1.282-8.688-6.675-7.406-12.047
	c5.096-21.364,14.798-39.547,28.837-54.045c22.104-22.821,50.354-34.393,83.963-34.393c37.509,0,67.669,12.13,89.644,36.053
	c21.8,23.738,32.382,59.908,31.453,107.506c-0.106,5.446-4.551,9.805-9.998,9.805h-143.97c1.612,9.957,5.31,17.792,11.188,23.781
	c7.643,7.792,16.966,11.578,28.503,11.578c7.497,0,13.502-1.799,18.356-5.501c2.675-2.04,5.073-4.963,7.127-8.688
	c1.759-3.19,5.114-5.171,8.757-5.171h65.551c3.275,0,6.344,1.604,8.212,4.294c1.869,2.69,2.303,6.125,1.16,9.194
	c-2.155,5.79-4.713,11.289-7.603,16.343c-8.255,14.442-19.221,26.229-32.591,35.034C447.969,411.766,424.542,418,397.006,418z
	 M283.707,303.469c-5.522,0-10-4.477-10-10v-0.17c0-5.523,4.478-10,10-10s10,4.477,10,10v0.17
	C293.707,298.992,289.229,303.469,283.707,303.469z M440.565,282.539h-92.399c-5.487,0-9.949-4.421-10-9.908
	c-0.171-18.662,5.108-33.836,15.692-45.102v-0.001c10.727-11.415,24.429-17.202,40.728-17.202c15.319,0,28.515,5.476,39.222,16.275
	c10.611,10.709,16.248,26.078,16.755,45.68c0.069,2.696-0.953,5.306-2.835,7.237C445.845,281.45,443.263,282.539,440.565,282.539z
	 M358.781,262.539h70.861c-1.53-9.335-4.892-16.664-10.04-21.859c-6.906-6.966-15.091-10.354-25.017-10.354
	c-10.707,0-19.262,3.564-26.152,10.897C363.233,246.76,360.042,253.786,358.781,262.539z"/>
<path d="M42,340.5c-5.522,0-10-4.477-10-10V249c0-5.523,4.478-10,10-10s10,4.477,10,10v81.5C52,336.023,47.522,340.5,42,340.5z"/>
<path d="M42,213.618c-5.522,0-10-4.477-10-10V203.5c0-5.523,4.478-10,10-10s10,4.477,10,10v0.118
	C52,209.141,47.522,213.618,42,213.618z"/>
<g>
</g>
<g>
</g>
<g>
</g>
<g>
</g>
<g>
</g>
<g>
</g>
<g>
</g>
<g>
</g>
<g>
</g>
<g>
</g>
<g>
</g>
<g>
</g>
<g>
</g>
<g>
</g>
<g>
</g>
</svg>
