<?xml version="1.0" encoding="iso-8859-1"?>
<!-- Generator: Adobe Illustrator 19.0.0, SVG Export Plug-In . SVG Version: 6.00 Build 0)  -->
<svg version="1.1" id="Capa_1" xmlns="http://www.w3.org/2000/svg" xmlns:xlink="http://www.w3.org/1999/xlink" x="0px" y="0px"
	 viewBox="0 0 512 512" style="enable-background:new 0 0 512 512;" xml:space="preserve">
<path style="fill:#E68CBE;" d="M362,502H150c-77.32,0-140-62.68-140-140V150C10,72.68,72.68,10,150,10h212
	c77.32,0,140,62.68,140,140v212C502,439.32,439.32,502,362,502z"/>
<path style="fill:#FFFFFF;" d="M362,458H150c-53.019,0-96-42.981-96-96V150c0-53.019,42.981-96,96-96h212c53.019,0,96,42.981,96,96
	v212C458,415.019,415.019,458,362,458z"/>
<circle style="fill:#FF5A5A;" cx="256" cy="256" r="128"/>
<circle style="fill:#FFFFFF;" cx="256" cy="256" r="80"/>
<circle style="fill:#FF5A5A;" cx="387.25" cy="124.75" r="28"/>
<path d="M362,512H150C67.29,512,0,444.71,0,362V150C0,67.29,67.29,0,150,0h212c82.71,0,150,67.29,150,150v212
	C512,444.71,444.71,512,362,512z M150,20C78.318,20,20,78.318,20,150v212c0,71.682,58.318,130,130,130h212
	c71.682,0,130-58.318,130-130V150c0-71.682-58.318-130-130-130H150z"/>
<path d="M362,468h-60.333c-5.523,0-10-4.477-10-10s4.477-10,10-10H362c47.42,0,86-38.58,86-86V150c0-47.42-38.58-86-86-86H150
	c-47.42,0-86,38.58-86,86v212c0,47.42,38.58,86,86,86h61c5.523,0,10,4.477,10,10s-4.477,10-10,10h-61c-58.449,0-106-47.551-106-106
	V150C44,91.551,91.551,44,150,44h212c58.449,0,106,47.551,106,106v212C468,420.449,420.449,468,362,468z"/>
<path d="M256,468c-2.63,0-5.21-1.07-7.07-2.93S246,460.63,246,458s1.07-5.21,2.93-7.07c1.86-1.86,4.44-2.93,7.07-2.93
	s5.21,1.07,7.07,2.93c1.86,1.86,2.93,4.44,2.93,7.07s-1.07,5.21-2.93,7.07S258.63,468,256,468z"/>
<path d="M168.117,172.939c-2.657,0-5.308-1.052-7.275-3.137c-3.791-4.017-3.607-10.346,0.41-14.136l0.443-0.417
	c4.031-3.775,10.358-3.569,14.135,0.461c3.776,4.03,3.569,10.359-0.461,14.135l-0.391,0.367
	C173.046,172.035,170.579,172.939,168.117,172.939z"/>
<path d="M256,394c-76.093,0-138-61.907-138-138c0-23.875,6.197-47.408,17.921-68.054c2.728-4.803,8.831-6.484,13.634-3.758
	c4.803,2.728,6.485,8.832,3.758,13.634C143.295,215.463,138,235.581,138,256c0,65.065,52.935,118,118,118s118-52.935,118-118
	s-52.935-118-118-118c-19.055,0-37.238,4.398-54.043,13.073c-4.907,2.532-10.939,0.608-13.473-4.299
	c-2.533-4.908-0.608-10.94,4.299-13.473C212.176,123.291,234.036,118,256,118c76.093,0,138,61.907,138,138S332.093,394,256,394z"/>
<path d="M256,346c-49.626,0-90-40.374-90-90s40.374-90,90-90s90,40.374,90,90S305.626,346,256,346z M256,186
	c-38.598,0-70,31.402-70,70s31.402,70,70,70s70-31.402,70-70S294.598,186,256,186z"/>
<path d="M387.25,162.75c-20.953,0-38-17.047-38-38s17.047-38,38-38s38,17.047,38,38S408.203,162.75,387.25,162.75z M387.25,106.75
	c-9.925,0-18,8.075-18,18s8.075,18,18,18s18-8.075,18-18S397.175,106.75,387.25,106.75z"/>
<g>
</g>
<g>
</g>
<g>
</g>
<g>
</g>
<g>
</g>
<g>
</g>
<g>
</g>
<g>
</g>
<g>
</g>
<g>
</g>
<g>
</g>
<g>
</g>
<g>
</g>
<g>
</g>
<g>
</g>
</svg>
