<?xml version="1.0" encoding="UTF-8"?>
<svg width="64px" height="64px" viewBox="0 0 64 64" version="1.1" xmlns="http://www.w3.org/2000/svg" xmlns:xlink="http://www.w3.org/1999/xlink">
    <title>left</title>
    <g id="left" stroke="none" stroke-width="1" fill="none" fill-rule="evenodd">
        <g id="556670" transform="translate(32.000000, 32.000000) scale(-1, 1) translate(-32.000000, -32.000000) " fill-rule="nonzero">
            <path d="M61.334175,35.0523807 L34.2103109,62.17877 C33.7894596,62.5996212 33.2171019,62.8374864 32.6211765,62.8374864 L3.57132855,62.8374864 C1.5692549,62.8374864 0.56577714,60.4172549 1.98219417,59.003363 C10.2776777,50.6999675 29.1713745,31.798527 29.1713745,31.798527 C29.1713745,31.798527 10.2751526,12.9021368 1.98219417,4.59874127 C0.5656088,3.18484935 1.5692549,0.764617886 3.57132855,0.764617886 L32.6213448,0.764617886 C33.2172702,0.764617886 33.7896279,1.00248302 34.2104792,1.42316595 L46.5205471,13.7332339 L61.3343434,28.544505 C63.1296949,30.3427183 63.1296949,33.2541674 61.334175,35.0523807 Z" id="Path" fill="#FFCE00"></path>
            <path d="M44.3459244,35.0523807 L17.2220603,62.17877 C16.801209,62.5996212 16.2288513,62.8374864 15.6329259,62.8374864 L3.57132855,62.8374864 C1.5692549,62.8374864 0.56577714,60.4172549 1.98219417,59.003363 C10.2776777,50.6999675 29.1713745,31.798527 29.1713745,31.798527 C29.1713745,31.798527 10.2751526,12.9021368 1.98219417,4.59874127 C0.5656088,3.18484935 1.5692549,0.764617886 3.57132855,0.764617886 L15.6330942,0.764617886 C16.2290196,0.764617886 16.8013773,1.00248302 17.2222286,1.42316595 L44.3460928,28.5443367 C46.1414443,30.3427183 46.1414443,33.2541674 44.3459244,35.0523807 Z" id="Path" fill="#FFA81E"></path>
            <path d="M44.3459244,35.0523807 L17.2220603,62.17877 C16.801209,62.5996212 16.2288513,62.8374864 15.6329259,62.8374864 L8.56582305,62.8374864 C9.16174845,62.8374864 9.73410617,62.5996212 10.1549574,62.17877 L38.0629517,34.2682506 C39.8584715,32.4700373 39.8584715,31.1266801 38.0629517,29.3286351 L10.1549574,1.42333429 C9.73410617,1.00248302 9.16174845,0.764786227 8.56582305,0.764786227 L15.6329259,0.764786227 C16.2288513,0.764786227 16.801209,1.00265136 17.2220603,1.42333429 L44.3459244,28.544505 C46.1414443,30.3427183 46.1414443,33.2541674 44.3459244,35.0523807 Z" id="Path" fill="#FF9900"></path>
        </g>
    </g>
</svg>