<?xml version="1.0" encoding="iso-8859-1"?>
<!-- Generator: Adobe Illustrator 19.0.0, SVG Export Plug-In . SVG Version: 6.00 Build 0)  -->
<svg version="1.1" id="Capa_1" xmlns="http://www.w3.org/2000/svg" xmlns:xlink="http://www.w3.org/1999/xlink" x="0px" y="0px"
	 viewBox="0 0 512.003 512.003" style="enable-background:new 0 0 512.003 512.003;" xml:space="preserve">
<path style="fill:#FDB62F;" d="M8.536,450.798L8.536,450.798c0.009-4.668,1.212-9.25,3.499-13.312L232.536,48.281
	c4.915-8.764,14.191-14.182,24.235-14.165l0,0c10.061,0.026,19.337,5.427,24.32,14.165l218.88,389.291
	c2.295,4.028,3.507,8.585,3.499,13.227l0,0c0,14.942-12.109,27.051-27.051,27.051H35.587C20.653,477.849,8.536,465.74,8.536,450.798
	z"/>
<path style="fill:#FFA230;" d="M499.971,437.571L361.389,191.129c-45.73,122.513-134.238,224.35-249.173,286.72h364.203
	c14.942,0,27.051-12.109,27.051-27.051l0,0C503.478,446.156,502.275,441.599,499.971,437.571z"/>
<g>
	<path style="fill:#DE4C3C;" d="M196.269,349.849h-17.067v25.6h-14.933l14.933-66.389l-17.067-3.755l-17.067,76.8
		c-0.572,2.551,0.06,5.222,1.707,7.253c1.664,2.057,4.181,3.217,6.827,3.157h25.6v17.067h17.067v-17.067h8.533v-17.067h-8.533
		V349.849z"/>
	<path style="fill:#DE4C3C;" d="M256.003,307.182c-18.85,0-34.133,15.283-34.133,34.133v34.133c0,18.85,15.283,34.133,34.133,34.133
		s34.133-15.283,34.133-34.133v-34.133C290.136,322.465,274.853,307.182,256.003,307.182z M273.069,375.449
		c0,9.429-7.637,17.067-17.067,17.067c-9.429,0-17.067-7.637-17.067-17.067v-34.133c0-9.429,7.637-17.067,17.067-17.067
		c9.429,0,17.067,7.637,17.067,17.067V375.449z"/>
	<path style="fill:#DE4C3C;" d="M366.936,375.449h-8.533v-25.6h-17.067v25.6h-14.933l14.933-66.389l-17.067-3.755l-17.067,76.8
		c-0.572,2.551,0.06,5.222,1.707,7.253c1.664,2.057,4.181,3.217,6.827,3.157h25.6v17.067h17.067v-17.067h8.533V375.449z"/>
	<rect x="247.469" y="145.049" style="fill:#DE4C3C;" width="17.067" height="85.333"/>
	<rect x="247.469" y="247.449" style="fill:#DE4C3C;" width="17.067" height="17.067"/>
</g>
<path d="M288.515,44.099c-9.924-17.51-32.154-23.654-49.664-13.739c-5.734,3.251-10.487,7.996-13.739,13.739L4.611,433.305
	c-2.927,5.222-4.506,11.085-4.608,17.067c-0.239,19.652,15.505,35.772,35.157,36.011c0.145,0,0.29,0,0.427,0h440.832
	c19.601,0.051,35.541-15.804,35.584-35.413c0.017-6.161-1.57-12.22-4.608-17.579L288.515,44.099z M476.419,469.315H35.587
	c-10.223-0.017-18.5-8.32-18.492-18.543c0.009-3.157,0.819-6.263,2.364-9.02L239.96,52.462c5.222-9.284,16.981-12.578,26.266-7.356
	c3.081,1.732,5.623,4.275,7.356,7.356l218.965,389.291c4.992,8.926,1.809,20.207-7.108,25.199
	C482.682,468.496,479.576,469.307,476.419,469.315z"/>
<path d="M196.269,349.849h-17.067v25.6h-14.933l14.933-66.389l-17.067-3.755l-17.067,76.8c-0.572,2.551,0.06,5.222,1.707,7.253
	c1.664,2.057,4.181,3.217,6.827,3.157h25.6v17.067h17.067v-17.067h8.533v-17.067h-8.533V349.849z"/>
<path d="M256.003,307.182c-18.85,0-34.133,15.283-34.133,34.133v34.133c0,18.85,15.283,34.133,34.133,34.133
	s34.133-15.283,34.133-34.133v-34.133C290.136,322.465,274.853,307.182,256.003,307.182z M273.069,375.449
	c0,9.429-7.637,17.067-17.067,17.067c-9.429,0-17.067-7.637-17.067-17.067v-34.133c0-9.429,7.637-17.067,17.067-17.067
	c9.429,0,17.067,7.637,17.067,17.067V375.449z"/>
<path d="M358.403,349.849h-17.067v25.6h-14.933l14.933-66.389l-17.067-3.755l-17.067,76.8c-0.572,2.551,0.06,5.222,1.707,7.253
	c1.664,2.057,4.181,3.217,6.827,3.157h25.6v17.067h17.067v-17.067h8.533v-17.067h-8.533V349.849z"/>
<rect x="247.469" y="145.049" width="17.067" height="85.333"/>
<rect x="247.469" y="247.449" width="17.067" height="17.067"/>
<g>
</g>
<g>
</g>
<g>
</g>
<g>
</g>
<g>
</g>
<g>
</g>
<g>
</g>
<g>
</g>
<g>
</g>
<g>
</g>
<g>
</g>
<g>
</g>
<g>
</g>
<g>
</g>
<g>
</g>
</svg>
