<?xml version="1.0" encoding="iso-8859-1"?>
<!-- Generator: Adobe Illustrator 19.0.0, SVG Export Plug-In . SVG Version: 6.00 Build 0)  -->
<svg version="1.1" id="Capa_1" xmlns="http://www.w3.org/2000/svg" xmlns:xlink="http://www.w3.org/1999/xlink" x="0px" y="0px"
	 viewBox="0 0 511.999 511.999" style="enable-background:new 0 0 511.999 511.999;" xml:space="preserve">
<circle style="fill:#72D8FF;" cx="256" cy="255.86" r="246"/>
<path style="fill:#FFFFFF;" d="M347.998,223.999h-60v-60c0-17.673-14.327-32-32-32l0,0c-17.673,0-32,14.327-32,32v60h-60
	c-17.673,0-32,14.327-32,32l0,0c0,17.673,14.327,32,32,32h60v60c0,17.673,14.327,32,32,32l0,0c17.673,0,32-14.327,32-32v-60h60
	c17.673,0,32-14.327,32-32l0,0C379.998,238.326,365.671,223.999,347.998,223.999z"/>
<path d="M255.998,511.999c-68.38,0-132.667-26.629-181.02-74.98C31.794,393.834,5.435,336.56,0.757,275.75
	c-4.627-60.148,12.099-120.113,47.096-168.851c3.222-4.485,9.469-5.511,13.956-2.29c4.486,3.222,5.511,9.47,2.29,13.956
	C-3.54,212.757,6.983,340.738,89.121,422.876c44.574,44.575,103.839,69.123,166.877,69.123s122.303-24.548,166.877-69.123
	c44.575-44.574,69.123-103.839,69.123-166.877S467.45,133.696,422.875,89.122C341.121,7.369,213.513-3.423,119.448,63.466
	c-4.501,3.202-10.744,2.146-13.944-2.354c-3.201-4.501-2.146-10.744,2.354-13.944C156.572,12.525,216.403-3.948,276.311,0.802
	c60.594,4.795,117.667,31.139,160.706,74.178c48.352,48.353,74.98,112.64,74.98,181.02s-26.629,132.667-74.98,181.02
	C388.665,485.37,324.378,511.999,255.998,511.999z"/>
<path d="M81.954,92.146c-2.567,0-5.135-0.982-7.089-2.947c-3.896-3.915-3.879-10.247,0.036-14.142l0.19-0.189
	c3.915-3.896,10.245-3.881,14.142,0.036c3.896,3.915,3.879,10.247-0.036,14.142l-0.19,0.189
	C87.056,91.177,84.505,92.146,81.954,92.146z"/>
<path d="M255.998,389.999c-23.159,0-42-18.841-42-42v-50h-50c-23.159,0-42-18.841-42-42s18.841-42,42-42h50v-50
	c0-23.159,18.841-42,42-42s42,18.841,42,42v50h50c23.159,0,42,18.841,42,42s-18.841,42-42,42h-50v50
	C297.998,371.158,279.157,389.999,255.998,389.999z M163.998,233.999c-12.131,0-22,9.869-22,22c0,12.131,9.869,22,22,22h60
	c5.522,0,10,4.478,10,10v60c0,12.131,9.869,22,22,22c12.131,0,22-9.869,22-22v-60c0-5.522,4.478-10,10-10h60
	c12.131,0,22-9.869,22-22c0-12.131-9.869-22-22-22h-60c-5.522,0-10-4.478-10-10v-60c0-12.131-9.869-22-22-22
	c-12.131,0-22,9.869-22,22v60c0,5.522-4.478,10-10,10H163.998z"/>
<path d="M255.998,463.976c-47.983,0-94.802-16.731-131.833-47.113c-36.52-29.963-61.971-71.776-71.666-117.738
	c-1.14-5.403,2.317-10.708,7.722-11.849c5.404-1.137,10.709,2.317,11.849,7.722c18.208,86.324,95.561,148.979,183.929,148.979
	c5.522,0,10,4.478,10,10S261.52,463.976,255.998,463.976z"/>
<path d="M58.019,266.135c-5.586,0-9.976-4.429-9.999-10.094c-0.024-5.672,4.341-10.143,9.938-10.178c0.021,0,0.044,0,0.065,0
	c5.564,0,9.951,4.403,9.998,10.053c0,0.027,0,0.056,0,0.083c0,5.672-4.384,10.124-9.979,10.136
	C58.034,266.135,58.026,266.135,58.019,266.135z"/>
<g>
</g>
<g>
</g>
<g>
</g>
<g>
</g>
<g>
</g>
<g>
</g>
<g>
</g>
<g>
</g>
<g>
</g>
<g>
</g>
<g>
</g>
<g>
</g>
<g>
</g>
<g>
</g>
<g>
</g>
</svg>
