<?xml version="1.0" encoding="UTF-8"?>
<svg width="512px" height="512px" viewBox="0 0 512 512" version="1.1" xmlns="http://www.w3.org/2000/svg" xmlns:xlink="http://www.w3.org/1999/xlink">
    <!-- Generator: Sketch 54.1 (76490) - https://sketchapp.com -->
    <title>Artboard</title>
    <desc>Created with Sketch.</desc>
    <defs>
        <filter x="-10.4%" y="-12.0%" width="120.8%" height="124.0%" filterUnits="objectBoundingBox" id="filter-1">
            <feOffset dx="0" dy="5" in="SourceAlpha" result="shadowOffsetOuter1"></feOffset>
            <feGaussianBlur stdDeviation="5" in="shadowOffsetOuter1" result="shadowBlurOuter1"></feGaussianBlur>
            <feColorMatrix values="0 0 0 0 0   0 0 0 0 0   0 0 0 0 0  0 0 0 0.1 0" type="matrix" in="shadowBlurOuter1" result="shadowMatrixOuter1"></feColorMatrix>
            <feMerge>
                <feMergeNode in="shadowMatrixOuter1"></feMergeNode>
                <feMergeNode in="SourceGraphic"></feMergeNode>
            </feMerge>
        </filter>
    </defs>
    <g id="Artboard" stroke="none" stroke-width="1" fill="none" fill-rule="evenodd">
        <rect fill="#F2F2F2" x="0" y="0" width="512" height="512"></rect>
        <g id="pictures_1204563_easyicon.net" filter="url(#filter-1)" transform="translate(115.000000, 133.000000)" fill-rule="nonzero">
            <path d="M9.27198757,57.5259757 L222.822127,0.420730936 C229.460767,-1.35009195 236.542171,2.63383806 238.312662,9.2742834 L280.580264,166.202012 C282.350755,172.841895 278.367571,179.703763 271.506987,181.474024 L57.9574098,238.579269 C51.3187695,240.350092 44.2373659,236.366162 42.4668746,229.725717 L0.420654506,72.7979884 C-1.34983686,66.1581051 2.6333473,59.2967986 9.27198757,57.5259757 Z" id="Path" fill="#FFFFFF"></path>
            <path d="M27.2517114,70.1250463 L213.827462,20.3076586 C218.911615,18.9792324 224.217478,22.0790809 225.764951,27.1712876 L260.692828,157.140054 C262.019153,162.232261 258.924207,167.546528 253.840054,168.874954 L67.2637417,218.692341 C62.1795881,220.020768 56.8737255,216.920919 55.3262524,211.828712 L20.3989369,81.8599461 C18.8514638,76.7671772 21.94641,71.4534725 27.2517114,70.1250463 Z" id="Path" fill="#208DB2"></path>
            <path d="M48.5816643,56 L270.418336,56 C277.481756,56 283,61.7508875 283,68.6075853 L283,233.392415 C283,240.470387 277.260936,246 270.418336,246 L48.5816643,246 C41.5182443,246 36,240.249113 36,233.392415 L36,68.6081469 C36,61.7508875 41.7390637,56 48.5816643,56 Z" id="Path" fill="#FFFFFF"></path>
            <path d="M62.7522154,73 L256.247785,73 C261.567072,73 266,77.4286196 266,82.7427383 L266,218.257262 C266,223.57138 261.567072,228 256.247785,228 L62.7522154,228 C57.4329275,228 53,223.57138 53,218.257262 L53,82.7427383 C53,77.4286196 57.2111967,73 62.7522154,73 Z" id="Path" fill="#A3E0F5"></path>
            <path d="M53,82.8152539 L53,130.553672 C55.1920508,130.776836 57.3846582,131 59.576709,131 C87.4187598,131 110,108.023164 110,79.6920898 C110,77.461582 109.780684,75.2305078 109.561367,73 L62.6460254,73 C57.1653418,73 53,77.461582 53,82.8152539 Z" id="Path" fill="#EFC75E"></path>
            <path d="M69.1369219,182 C63.6107095,182 58.0844971,182.43827 53,183.095119 L53,218.361952 C53,223.618968 57.4210822,228 62.7261563,228 L136.336585,228 C136.778862,226.028341 137,224.276373 137,222.304714 C136.999439,199.961841 106.71584,182 69.1369219,182 Z" id="Path" fill="#3DB39E"></path>
            <path d="M223.869459,162 C163.112885,162 113.664914,191.479747 113,228 L256.243614,228 C261.565177,228 266,223.599963 266,218.320142 L266,167.060294 C252.917355,163.980212 238.726146,162 223.869459,162 Z" id="Path" fill="#4BC2AD"></path>
        </g>
    </g>
</svg>