<?xml version="1.0" encoding="UTF-8"?>
<svg width="128px" height="128px" viewBox="0 0 128 128" version="1.1" xmlns="http://www.w3.org/2000/svg" xmlns:xlink="http://www.w3.org/1999/xlink">
    <!-- Generator: Sketch 60 (88103) - https://sketch.com -->
    <title>img</title>
    <desc>Created with Sketch.</desc>
    <g id="page1" stroke="none" stroke-width="1" fill="none" fill-rule="evenodd">
        <g id="d570170f4f12e1ee829ca0e85a7dffeb77343a" fill-rule="nonzero">
            <rect id="rect" fill="#F2F2F2" x="0" y="0" width="128" height="128"></rect>
            <g id="pictures_1204563_easyicon.net" transform="translate(28.750000, 33.250000)">
                <path d="M2.31799689,14.3814939 L55.7055317,0.105182734 C57.3651917,-0.337522988 59.1355427,0.658459515 59.5781655,2.31857085 L70.145066,41.550503 C70.5876887,43.2104738 69.5918927,44.9259408 67.8767467,45.368506 L14.4893524,59.6448173 C12.8296924,60.087523 11.0593415,59.0915405 10.6167186,57.4314293 L0.105163626,18.1994971 C-0.337459215,16.5395263 0.658336825,14.8241997 2.31799689,14.3814939 Z" id="Path" fill="#FFFFFF"></path>
                <path d="M6.81292785,17.5312616 L53.4568655,5.07691465 C54.7279037,4.7448081 56.0543695,5.51977023 56.4412377,6.7928219 L65.173207,39.2850135 C65.5047883,40.5580653 64.7310517,41.886632 63.4600135,42.2187385 L16.8159354,54.6730853 C15.544897,55.005192 14.2184314,54.2302298 13.8315631,52.957178 L5.09973422,20.4649865 C4.71286595,19.1917943 5.4866025,17.8633681 6.81292785,17.5312616 Z" id="Path" fill="#208DB2"></path>
                <path d="M12.1454161,14 L67.604584,14 C69.370439,14 70.75,15.4377219 70.75,17.1518963 L70.75,58.3481038 C70.75,60.1175968 69.315234,61.5 67.604584,61.5 L12.1454161,61.5 C10.3795611,61.5 9,60.0622783 9,58.3481038 L9,17.1520367 C9,15.4377219 10.4347659,14 12.1454161,14 Z" id="Path" fill="#FFFFFF"></path>
                <path d="M15.6880538,18.25 L64.0619463,18.25 C65.391768,18.25 66.5,19.3571549 66.5,20.6856846 L66.5,54.5643155 C66.5,55.892845 65.391768,57 64.0619463,57 L15.6880538,57 C14.3582319,57 13.25,55.892845 13.25,54.5643155 L13.25,20.6856846 C13.25,19.3571549 14.3027992,18.25 15.6880538,18.25 Z" id="Path" fill="#A3E0F5"></path>
                <path d="M13.25,20.7038135 L13.25,32.638418 C13.7980127,32.694209 14.3461645,32.75 14.8941773,32.75 C21.85469,32.75 27.5,27.005791 27.5,19.9230225 C27.5,19.3653955 27.445171,18.8076269 27.3903418,18.25 L15.6615063,18.25 C14.2913355,18.25 13.25,19.3653955 13.25,20.7038135 Z" id="Path" fill="#EFC75E"></path>
                <path d="M17.2842305,45.5 C15.9026774,45.5 14.5211243,45.6095675 13.25,45.7737798 L13.25,54.590488 C13.25,55.904742 14.3552706,57 15.6815391,57 L34.0841463,57 C34.1947155,56.5070853 34.25,56.0690933 34.25,55.5761785 C34.25,49.9904602 26.67896,45.5 17.2842305,45.5 Z" id="Path" fill="#3DB39E"></path>
                <path d="M55.9673648,40.5 C40.7782213,40.5 28.4162285,47.8699368 28.25,57 L64.0609035,57 C65.3912943,57 66.5,55.8999908 66.5,54.5800355 L66.5,41.7650735 C63.2293387,40.995053 59.6815365,40.5 55.9673648,40.5 Z" id="Path" fill="#4BC2AD"></path>
            </g>
        </g>
    </g>
</svg>
