<?xml version="1.0" encoding="UTF-8"?>
<svg width="32px" height="32px" viewBox="0 0 32 32" version="1.1" xmlns="http://www.w3.org/2000/svg" xmlns:xlink="http://www.w3.org/1999/xlink">
    <title>github@1x</title>
    <defs>
        <path d="M2.71528535,5.94115629 C2.71528535,5.94115629 -0.477791854,9.28223799 0.076986188,14.7182991 C0.631764256,20.1553152 4.07406191,24.6412831 15.5534801,24.6412831 C27.0319433,24.6412831 29.9194629,18.649489 29.9872585,13.7214174 C30.0550541,8.79525551 27.8359418,6.5981052 26.7941813,5.85044386 C26.7941813,5.85044386 26.8008654,2.31361433 26.4666617,0.44493846 C26.4666617,0.44493846 24.7001567,0.235822454 20.8854607,2.42151436 C20.8854607,2.42151436 15.6776128,1.91256995 8.73763522,2.48358076 C8.73763522,2.48358076 5.82242449,0.535650888 2.88525178,0.0257515927 C2.88525178,0.0257515927 2.3982693,3.09278629 2.71528535,5.94115629 Z" id="path-1"></path>
        <filter x="-5.0%" y="-6.1%" width="110.0%" height="112.2%" filterUnits="objectBoundingBox" id="filter-2">
            <feGaussianBlur stdDeviation="1.5" in="SourceAlpha" result="shadowBlurInner1"></feGaussianBlur>
            <feOffset dx="0" dy="0" in="shadowBlurInner1" result="shadowOffsetInner1"></feOffset>
            <feComposite in="shadowOffsetInner1" in2="SourceAlpha" operator="arithmetic" k2="-1" k3="1" result="shadowInnerInner1"></feComposite>
            <feColorMatrix values="0 0 0 0 1   0 0 0 0 1   0 0 0 0 1  0 0 0 0.9 0" type="matrix" in="shadowInnerInner1"></feColorMatrix>
        </filter>
    </defs>
    <g id="github" stroke="none" stroke-width="1" fill="none" fill-rule="evenodd">
        <g id="1" transform="translate(1.000000, 4.000000)" fill-rule="nonzero">
            <g id="Path">
                <use fill="#333333" xlink:href="#path-1"></use>
                <use fill="black" fill-opacity="1" filter="url(#filter-2)" xlink:href="#path-1"></use>
            </g>
            <path d="M7.85533757,11.32279 L22.0981425,11.32279 C22.0981425,11.32279 26.1344417,10.8692279 26.1344417,17.4721373 C26.1668333,23.2834614 15.4980977,22.9081984 15.4980977,22.9081984 C15.4980977,22.9081984 3.81433794,23.3722641 3.80761089,16.9221335 C3.79237598,11.0974413 7.85533757,11.32279 7.85533757,11.32279 Z" id="Path" fill="#E2B89F"></path>
            <path d="M20.7995226,13.9735024 C21.7152406,13.9735024 22.4581276,15.1670869 22.4581276,16.6347184 C22.4581276,18.1052145 21.7152406,19.2968892 20.7995226,19.2968892 C19.8847594,19.2968892 19.1418715,18.1052145 19.1418715,16.6347184 C19.1409176,15.1670869 19.8847594,13.9735024 20.7995226,13.9735024 L20.7995226,13.9735024 Z" id="Path" fill="#9C584F"></path>
            <path d="M20.7995226,19.774323 C19.6021186,19.774323 18.6644386,18.3954942 18.6644386,16.6347184 C18.6644386,14.8748974 19.6021186,13.4960686 20.7995226,13.4960686 C21.9978814,13.4960686 22.9355614,14.8748974 22.9355614,16.6347184 C22.9355614,18.3954942 21.9969265,19.774323 20.7995226,19.774323 Z M20.7995226,14.4509362 C20.240925,14.4509362 19.6193062,15.3475569 19.6193062,16.6347184 C19.6193062,17.9228348 20.240925,18.8194554 20.7995226,18.8194554 C21.3581201,18.8194554 21.9806938,17.9228348 21.9806938,16.6347184 C21.9806938,15.3475569 21.3581201,14.4509362 20.7995226,14.4509362 Z" id="Shape" fill="#FFFFFF"></path>
            <path d="M9.34111151,13.9735024 C10.2568295,13.9735024 10.9997165,15.1670869 10.9997165,16.6347184 C10.9997165,18.1052145 10.2568296,19.2968892 9.34111151,19.2968892 C8.42634836,19.2968892 7.68346047,18.1052145 7.68346047,16.6347184 C7.68250653,15.1670869 8.42634836,13.9735024 9.34111151,13.9735024 Z" id="Path" fill="#9C584F"></path>
            <path d="M9.34111151,19.774323 C8.14370757,19.774323 7.2060276,18.3954942 7.2060276,16.6347184 C7.2060276,14.8748974 8.14370757,13.4960686 9.34111151,13.4960686 C10.5385155,13.4960686 11.4771503,14.8748974 11.4771503,16.6347184 C11.4771503,18.3954942 10.5385155,19.774323 9.34111151,19.774323 Z M9.34111151,14.4509362 C8.78251397,14.4509362 8.1608952,15.3475569 8.1608952,16.6347184 C8.1608952,17.9228348 8.78251399,18.8194554 9.34111151,18.8194554 C9.89970903,18.8194554 10.5222827,17.9228348 10.5222827,16.6347184 C10.5222827,15.3475569 9.89970909,14.4509362 9.34111151,14.4509362 Z" id="Shape" fill="#FFFFFF"></path>
            <path d="M14.4105036,19.8115628 C14.4105036,19.8115628 14.8869825,18.4575606 15.4694517,19.7265796 C15.4694517,19.7265796 15.0330772,20.0101753 15.1973144,20.6776278 L16.5608654,21.1989855 L13.4766431,21.1989855 L14.6988736,20.6499366 C14.6988736,20.6499366 14.8745692,19.6415964 14.4105036,19.8115628 L14.4105036,19.8115628 Z" id="Path" fill="#9C584F"></path>
        </g>
    </g>
</svg>