<svg id="Capa_1" enable-background="new 0 0 496.185 496.185" height="512" viewBox="0 0 496.185 496.185" width="512" xmlns="http://www.w3.org/2000/svg"><g><path d="m318.309 70.618h-140.432c-4.77.005-9.136 2.684-11.3 6.935l-27.438 53.895h217.967l-27.497-53.895c-2.164-4.252-6.53-6.931-11.3-6.935z" fill="#575b6d"/><path d="m56.707 99.45h42.672c3.262 0 5.907 2.645 5.907 5.907v15.252h-54.486v-15.252c0-3.263 2.645-5.907 5.907-5.907z" fill="#575b6d"/><path d="m23.628 119.817h448.93c13.049 0 23.628 10.579 23.628 23.628v258.495c0 13.049-10.579 23.628-23.628 23.628h-448.93c-13.049 0-23.628-10.579-23.628-23.628v-258.495c0-13.049 10.579-23.628 23.628-23.628z" fill="#dbd8dd"/><path d="m0 216.089h496.185v113.201h-496.185z" fill="#62667c"/><path d="m371.336 272.725c-.02 68.065-55.213 123.227-123.278 123.208-68.065-.02-123.227-55.213-123.208-123.278.02-68.065 55.213-123.227 123.278-123.208h.006c68.055.013 123.215 55.193 123.202 123.249z" fill="#575b6d"/><path d="m248.134 383.226c-61.054.026-110.57-49.447-110.596-110.502-.026-61.054 49.447-110.57 110.502-110.596 61.054-.026 110.57 49.447 110.596 110.502v.094c-.095 60.99-49.513 110.408-110.502 110.502z" fill="#62667c"/><path d="m248.14 366.297c-51.705.026-93.641-41.868-93.667-93.572-.026-51.705 41.868-93.641 93.572-93.667 51.705-.026 93.641 41.868 93.667 93.572v.094c-.084 51.644-41.929 93.489-93.572 93.573z" fill="#69b0ee"/><path d="m248.14 328.215c-30.666.026-55.547-24.812-55.573-55.478s24.812-55.547 55.478-55.573 55.547 24.812 55.573 55.478v.083c-.058 30.617-24.861 55.425-55.478 55.49z" fill="#419be9"/><circle cx="280.091" cy="231.766" fill="#eeefee" r="19.706"/><path d="m403.399 149.44h47.776c2.584 0 4.678 2.095 4.678 4.678v19.209c0 2.584-2.095 4.678-4.678 4.678h-47.776c-2.584 0-4.678-2.095-4.678-4.678v-19.209c-.001-2.583 2.094-4.678 4.678-4.678z" fill="#bbbbcd"/></g></svg>