<?xml version="1.0" encoding="UTF-8"?>
<svg width="40px" height="40px" viewBox="0 0 40 40" version="1.1" xmlns="http://www.w3.org/2000/svg" xmlns:xlink="http://www.w3.org/1999/xlink">
    <title>Artboard@1x</title>
    <g id="Artboard" stroke="none" stroke-width="1" fill="none" fill-rule="evenodd">
        <g id="1017466" transform="translate(3.000000, 3.000000)" fill-rule="nonzero">
            <path d="M22.6774023,22.6772031 L25.9034844,17.788707 L22.6774023,16.9575 C22.254793,15.6896719 21.5362109,14.4921016 20.5219219,13.4778125 C19.5216445,12.4775352 18.3383516,11.7449414 17.0422344,11.322332 L16.9999336,11.3646328 L13.0694805,11.2096406 L11.3225313,11.322332 C10.0264805,11.7449414 8.84312109,12.4775352 7.84284375,13.4778125 L2.62025781,18.7003984 C-0.873507812,22.1941641 -0.873507812,27.8724297 2.62025781,31.3661953 C6.21263672,34.9585742 11.8901055,34.7754922 15.2993359,31.3661953 L20.5219219,26.1568906 C21.5363438,25.1424687 22.2548594,23.9450977 22.6774023,22.6772031 Z M11.7774141,27.8441406 C10.1995352,29.4220195 7.67789062,29.3797852 6.14224609,27.8441406 C4.59258984,26.2944844 4.59258984,23.7586289 6.14224609,22.2089727 L11.3225313,17.0419688 L14.1542266,19.8454414 L17,22.6348359 L11.7774141,27.8441406 Z" id="Shape" fill="#4A696F"></path>
            <path d="M20.5219883,26.1568242 L15.2994023,31.3661289 C11.8901055,34.7754258 6.21270312,34.9585078 2.62032422,31.3661289 L6.14224609,27.8441406 C7.67789062,29.3797852 10.1995352,29.4220195 11.7774141,27.8441406 L17,22.6349023 L14.154293,19.8454414 L20.5219883,13.4777461 C21.5362773,14.4920352 22.2548594,15.6895391 22.6774687,16.9574336 L25.9035508,17.7886406 L22.6774687,22.6771367 C22.2548594,23.9450977 21.5363438,25.1424687 20.5219883,26.1568242 Z" id="Path" fill="#384949"></path>
            <path d="M27.5658984,28.9744414 L26.1570898,27.5656328 C25.76775,27.176293 25.76775,26.5461641 26.1570898,26.1568242 C26.5464297,25.7675508 27.1765586,25.7674844 27.5658984,26.1568242 L28.974707,27.5656328 C29.3640469,27.9549727 29.3640469,28.5851016 28.974707,28.9744414 C28.5853008,29.3637813 27.9552383,29.3637813 27.5658984,28.9744414 Z" id="Path" fill="#D2C5C2"></path>
            <path d="M6.43410156,7.84264453 L5.02522656,6.43383594 C4.63588672,6.04449609 4.63588672,5.41436719 5.02522656,5.02509375 C5.41456641,4.63582031 6.04469531,4.63575391 6.43396875,5.02509375 L7.84271094,6.43383594 C8.23205078,6.82317578 8.23205078,7.45330469 7.84271094,7.84257812 C7.45337109,8.23185156 6.823375,8.23191797 6.43410156,7.84264453 Z" id="Path" fill="#DFD7D5"></path>
            <path d="M29.5084805,20.351125 C29.6508555,19.8193437 30.1970469,19.5043125 30.7287617,19.6466875 L32.6534805,20.1625977 C33.1852617,20.30225 33.4988984,20.8511641 33.357918,21.3828789 C33.215543,21.9146602 32.6693516,22.2296914 32.1376367,22.0873164 L30.212918,21.5714062 C29.6846562,21.4300273 29.3659727,20.8860273 29.5084805,20.351125 Z" id="Path" fill="#D2C5C2"></path>
            <path d="M0.642082031,12.6165234 C0.784457031,12.0847422 1.33064844,11.7697109 1.86236328,11.9120859 L3.78708203,12.4280625 C4.31680469,12.5669844 4.63316406,13.1159648 4.49151953,13.6483438 C4.34914453,14.180125 3.80295313,14.4951563 3.27123828,14.3527812 L1.34651953,13.8368047 C0.818257813,13.6954258 0.499507813,13.1514258 0.642082031,12.6165234 Z" id="Path" fill="#DFD7D5"></path>
            <path d="M20.1628633,32.6532148 L19.6468867,30.7284961 C19.5045117,30.1967148 19.819543,29.6505898 20.3513242,29.5082148 C20.8831055,29.3658398 21.4285664,29.6788125 21.5716055,30.2126523 L22.0875156,32.1373711 C22.2298906,32.6691523 21.9148594,33.2152773 21.3830781,33.3576523 C20.8483086,33.5001602 20.3042422,33.1814766 20.1628633,32.6532148 Z" id="Path" fill="#D2C5C2"></path>
            <path d="M12.4282617,3.78688281 L11.9122852,1.86216406 C11.7699102,1.33038281 12.0849414,0.784257812 12.6167227,0.641882812 C13.1485039,0.500902344 13.695293,0.812480469 13.8370039,1.34632031 L14.3529805,3.27103906 C14.4953555,3.80282031 14.1803242,4.34894531 13.648543,4.49132031 C13.113707,4.63369531 12.569707,4.31501172 12.4282617,3.78688281 Z" id="Path" fill="#DFD7D5"></path>
            <path d="M31.3796094,2.63333984 C27.8858438,-0.860425781 22.208375,-0.874570313 18.7005313,2.63333984 L13.4779453,7.84264453 C12.4636563,8.85693359 11.7451406,10.0543711 11.3224648,11.322332 C10.7025625,13.1819727 10.7026289,15.1823945 11.3225313,17.0420352 C11.7451406,18.3098633 12.4636563,19.5075 13.4779453,20.5217891 C14.4641445,21.5079883 15.6475039,22.2404492 16.9576992,22.6772031 L16.9999336,22.6349688 C18.5496563,21.0852461 18.5495898,18.549457 16.9999336,16.9998008 C15.4502773,15.4501445 15.4502773,12.9142891 16.9999336,11.3646328 L22.2225195,6.15532813 C22.9833359,5.39451172 23.9694688,5.000125 25.0402031,5.000125 C25.068293,4.97203516 25.3077539,4.98604688 25.3641992,5.01420313 C26.1249492,5.01413672 27.1250938,5.42266797 27.8576875,6.15532813 C29.4073438,7.70498438 29.4074102,10.2407734 27.8576875,11.7904961 L22.6774688,16.9574336 C23.2973711,18.8170742 23.2973711,20.8175625 22.6774688,22.6772031 C23.959375,22.2405156 25.1710234,21.5079219 26.1571563,20.5217227 L31.3797422,15.312418 C34.8735078,11.8185859 34.873375,6.12710547 31.3796094,2.63333984 Z" id="Path" fill="#FFD400"></path>
            <g id="Group" transform="translate(13.414062, 2.589844)" fill="#FF9F00">
                <path d="M3.5859375,20.0449922 L3.54370313,20.0872266 C2.23357422,19.6505391 1.05008203,18.9180117 0.0639492187,17.9318125 L3.5859375,14.4098242 C5.13559375,15.9595469 5.13566016,18.4953359 3.5859375,20.0449922 Z" id="Path"></path>
                <path d="M17.9655469,12.7226406 L12.7429609,17.9319453 C11.7568281,18.9181445 10.5452461,19.6507383 9.26327344,20.0874258 C9.88317578,18.2277852 9.88317578,16.2272969 9.26327344,14.3676563 L14.4434922,9.20071875 C15.9932148,7.65099609 15.9931484,5.11520703 14.4434922,3.56555078 L17.9654805,0.0435625 C21.4593125,3.53726172 21.4594453,9.22874219 17.9655469,12.7226406 Z" id="Path"></path>
            </g>
        </g>
    </g>
</svg>