<?xml version="1.0" encoding="iso-8859-1"?>
<!-- Generator: Adobe Illustrator 19.0.0, SVG Export Plug-In . SVG Version: 6.00 Build 0)  -->
<svg version="1.1" id="Capa_1" xmlns="http://www.w3.org/2000/svg" xmlns:xlink="http://www.w3.org/1999/xlink" x="0px" y="0px"
	 viewBox="0 0 512 512" style="enable-background:new 0 0 512 512;" xml:space="preserve">
<path style="fill:#4CAF50;" d="M365.397,156.629C341.568,88.448,269.739,42.667,186.667,42.667C83.733,42.667,0,114.432,0,202.667
	c0.866,48.885,25.414,94.306,65.835,121.813l-22.037,44.075c-2.685,5.244-0.611,11.671,4.633,14.356
	c3.26,1.669,7.149,1.549,10.3-0.319l56.448-32.277c15.314,5.409,31.197,9.045,47.339,10.837c5.852,0.674,11.143-3.523,11.818-9.375
	c0.141-1.223,0.069-2.461-0.212-3.659c-2.225-9.209-3.384-18.643-3.456-28.117c0-82.325,81.344-149.333,181.333-149.333l3.136,0.149
	c3.467-0.034,6.724-1.663,8.832-4.416C366.014,163.573,366.548,159.924,365.397,156.629z"/>
<g>
	<path style="fill:#FAFAFA;" d="M117.333,106.667c-17.673,0-32,14.327-32,32s14.327,32,32,32s32-14.327,32-32
		S135.006,106.667,117.333,106.667z"/>
	<path style="fill:#FAFAFA;" d="M245.333,106.667c-17.673,0-32,14.327-32,32s14.327,32,32,32s32-14.327,32-32
		S263.006,106.667,245.333,106.667z"/>
</g>
<path style="fill:#4CAF50;" d="M512,320c0-70.592-71.765-128-160-128s-160,57.408-160,128s71.765,128,160,128
	c16.552-0.006,33.038-2.099,49.067-6.229l52.885,26.432c5.268,2.637,11.676,0.505,14.313-4.763c1.366-2.728,1.498-5.91,0.364-8.741
	l-14.485-36.267C488.763,397.446,510.505,360.455,512,320z"/>
<g>
	<path style="fill:#FAFAFA;" d="M298.667,256c-11.782,0-21.333,9.551-21.333,21.333c0,11.782,9.551,21.333,21.333,21.333
		c11.782,0,21.333-9.551,21.333-21.333C320,265.551,310.449,256,298.667,256z"/>
	<path style="fill:#FAFAFA;" d="M405.333,256C393.551,256,384,265.551,384,277.333c0,11.782,9.551,21.333,21.333,21.333
		s21.333-9.551,21.333-21.333C426.667,265.551,417.115,256,405.333,256z"/>
</g>
<g>
</g>
<g>
</g>
<g>
</g>
<g>
</g>
<g>
</g>
<g>
</g>
<g>
</g>
<g>
</g>
<g>
</g>
<g>
</g>
<g>
</g>
<g>
</g>
<g>
</g>
<g>
</g>
<g>
</g>
</svg>
