<svg xmlns="http://www.w3.org/2000/svg" width="48" height="48" viewBox="0 0 48 48"><path fill="#1565c0" d="M36.094 31.35c-1.695-1.5-3.754-3.225-6.66-7.35-1.865-2.647-3.512-4-5.934-4-2.664 0-4.117 1.25-5.552 3.279-2.1 2.971-2.925 3.971-5.088 5.675-.786.619-4.861 3.172-4.86 7.671C8.001 41.875 11.753 44 15.155 44c4.469 0 5.439-1 8.345-1 3.633 0 5.57 1 8.476 1C37.789 44 39 39.625 39 36.872 39 34.25 37.789 32.85 36.094 31.35zM11.389 24.885c3.124-.694 3.616-3.739 3.611-5.732-.002-.696-.064-1.263-.096-1.558-.198-1.678-2.027-4.55-4.551-4.594-.12-.002-.242.002-.365.013-3.412.314-3.911 5.412-3.911 5.412-.056.287-.082.613-.078.963.031 2.263 1.356 5.527 4.274 5.61C10.623 25.008 10.994 24.973 11.389 24.885M19.503 16C21.99 16 24 13.315 24 9.998 24 6.681 21.99 4 19.503 4 17.015 4 15 6.681 15 9.998 15 13.315 17.015 16 19.503 16M29.522 16.964c.221.031.436.041.645.033 2.696-.103 4.416-3.276 4.781-5.723.037-.241.054-.486.052-.733-.015-2.441-1.831-5.012-3.799-5.49-2.177-.532-4.893 3.173-5.138 5.59-.037.37-.059.739-.063 1.103C25.975 14.296 26.841 16.599 29.522 16.964M41.984 21.142c0-1.281-1.004-5.142-4.742-5.142C33.496 16 33 19.644 33 22.219c0 2.41.187 5.752 4.578 5.781.087.001.176 0 .267-.002 4.027-.094 4.183-4.203 4.152-6.138C41.993 21.561 41.984 21.315 41.984 21.142"/><path fill="#fff" d="M24 31v7.5c0 0 0 1.875 2.625 2.5H33V31h-2.625v7.5h-2.75c0 0-.875-.125-1-.75V31H24zM20 27v4h-3c-2.125.375-4 2.25-3.999 4.875C13.001 35.917 13 35.958 13 36c0 2.75 1.875 4.625 4 5h5.625V27H20zM20 38.75h-2.375c-.75 0-2-1.125-2-2.75s1.25-2.75 2-2.75H20V38.75z"/></svg>