<?xml version="1.0" standalone="no"?>
<!DOCTYPE svg PUBLIC "-//W3C//DTD SVG 20010904//EN"
 "http://www.w3.org/TR/2001/REC-SVG-20010904/DTD/svg10.dtd">
<svg version="1.0" xmlns="http://www.w3.org/2000/svg"
 width="512.000000pt" height="512.000000pt" viewBox="0 0 512.000000 512.000000"
 preserveAspectRatio="xMidYMid meet">
<metadata>
Created by potrace 1.11, written by Peter Selinger 2001-2013
</metadata>
<g transform="translate(0.000000,512.000000) scale(0.100000,-0.100000)"
fill="#000000" stroke="none">
<path d="M1220 4428 c-367 -70 -639 -317 -732 -666 -22 -83 -30 -271 -15 -371
14 -99 75 -254 142 -361 12 -19 33 -55 47 -80 14 -25 67 -117 118 -205 51 -88
110 -189 130 -225 30 -54 230 -399 260 -450 72 -120 260 -453 260 -461 0 -5 5
-9 10 -9 6 0 10 -4 10 -10 0 -5 36 -70 80 -146 44 -75 80 -138 80 -139 0 -2
27 -49 60 -104 33 -56 60 -103 60 -106 0 -5 102 -168 110 -175 3 -3 22 -26 43
-52 92 -115 285 -234 452 -279 117 -32 327 -32 444 -1 163 44 307 126 417 237
83 84 111 126 292 445 67 119 422 734 459 795 7 11 15 26 19 34 4 8 36 64 72
125 36 61 74 127 84 146 11 19 37 64 58 100 21 36 47 81 58 100 11 19 61 107
112 195 245 423 254 442 284 575 103 451 -158 909 -599 1053 -138 46 -332 55
-469 23 -218 -51 -425 -191 -545 -369 -21 -30 -131 -218 -246 -416 -114 -199
-210 -361 -214 -361 -4 0 -27 35 -51 78 -43 75 -238 414 -348 602 -82 141
-153 224 -262 307 -98 74 -231 137 -335 157 -16 4 -41 9 -55 12 -42 10 -242
11 -290 2z"/>
</g>
</svg>
