<svg id="bold" enable-background="new 0 0 32 32" height="512" viewBox="0 0 32 32" width="512" xmlns="http://www.w3.org/2000/svg"><path d="m26 32h-20c-3.314 0-6-2.686-6-6v-20c0-3.314 2.686-6 6-6h20c3.314 0 6 2.686 6 6v20c0 3.314-2.686 6-6 6z" fill="#fff9dd"/><path d="m13.75 15.75h1.25v3.25c0 .552.448 1 1 1s1-.448 1-1v-3.25h1.25c.666 0 1.001-.809.53-1.28l-2.25-2.25c-.146-.147-.338-.22-.53-.22s-.384.073-.53.22l-2.25 2.25c-.471.471-.136 1.28.53 1.28z" fill="#ffe777"/><path d="m19 24h-6c-1.103 0-2-.897-2-2v-1c0-.552.448-1 1-1s1 .448 1 1v1h6v-1c0-.552.448-1 1-1s1 .448 1 1v1c0 1.103-.897 2-2 2z" fill="#ffe777"/><path d="m25 5h-18c-1.654 0-3 1.346-3 3v16c0 1.654 1.346 3 3 3h18c1.654 0 3-1.346 3-3v-16c0-1.654-1.346-3-3-3zm0 20h-18c-.551 0-1-.448-1-1v-14h20v14c0 .552-.449 1-1 1z" fill="#ffd200"/></svg>