<svg id="bold" enable-background="new 0 0 32 32" height="512" viewBox="0 0 32 32" width="512" xmlns="http://www.w3.org/2000/svg"><path d="m26 32h-20c-3.314 0-6-2.686-6-6v-20c0-3.314 2.686-6 6-6h20c3.314 0 6 2.686 6 6v20c0 3.314-2.686 6-6 6z" fill="#ffe6e2"/><path d="m18.25 19.25h-1.25v-3.25c0-.552-.448-1-1-1s-1 .448-1 1v3.25h-1.25c-.666 0-1.001.809-.53 1.28l2.25 2.25c.146.147.338.22.53.22s.384-.073.53-.22l2.25-2.25c.471-.471.136-1.28-.53-1.28z" fill="#fd907e"/><path d="m19 27h-6c-1.103 0-2-.897-2-2v-1c0-.552.448-1 1-1s1 .448 1 1v1h6v-1c0-.552.448-1 1-1s1 .448 1 1v1c0 1.103-.897 2-2 2z" fill="#fd907e"/><path d="m22.673 8.927c-1.312-2.399-3.884-3.927-6.673-3.927-3.545 0-6.62 2.465-7.397 5.829-2.584.272-4.603 2.442-4.603 5.071 0 2.812 2.312 5.1 5.152 5.1h2.04c-.254-.648-.261-1.381.017-2.053.329-.792.994-1.369 1.791-1.593v-1.354c0-1.654 1.346-3 3-3s3 1.346 3 3v1.354c.797.224 1.462.801 1.791 1.593.279.672.271 1.405.017 2.053h1.062c3.38 0 6.13-2.722 6.13-6.067 0-3.066-2.307-5.625-5.327-6.006z" fill="#fc573b"/></svg>