<svg id="bold" enable-background="new 0 0 32 32" height="512" viewBox="0 0 32 32" width="512" xmlns="http://www.w3.org/2000/svg"><path d="m26 32h-20c-3.314 0-6-2.686-6-6v-20c0-3.314 2.686-6 6-6h20c3.314 0 6 2.686 6 6v20c0 3.314-2.686 6-6 6z" fill="#ffe6e2"/><path d="m18.25 8.25h-1.25v-3.25c0-.552-.448-1-1-1s-1 .448-1 1v3.25h-1.25c-.666 0-1.001.809-.53 1.28l2.25 2.25c.146.147.338.22.53.22s.384-.073.53-.22l2.25-2.25c.471-.471.136-1.28-.53-1.28z" fill="#fd907e"/><path d="m19 16h-6c-1.103 0-2-.897-2-2v-1c0-.552.448-1 1-1s1 .448 1 1v1h6v-1c0-.552.448-1 1-1s1 .448 1 1v1c0 1.103-.897 2-2 2z" fill="#fd907e"/><path d="m26.25 8h-5.442c.257.658.247 1.368 0 2h5.192v11h-20v-11h5.192c-.248-.632-.258-1.342 0-2h-5.442c-.965 0-1.75.785-1.75 1.75v13.5c0 .965.785 1.75 1.75 1.75h7.658c-.118.501-.429 1.314-1.262 2.146-.143.143-.186.358-.108.545.077.187.26.309.462.309h7c.202 0 .385-.122.462-.309s.034-.402-.108-.545c-.831-.831-1.151-1.644-1.275-2.146h7.671c.965 0 1.75-.785 1.75-1.75v-13.5c0-.965-.785-1.75-1.75-1.75z" fill="#fc573b"/></svg>