<svg id="bold" enable-background="new 0 0 32 32" height="512" viewBox="0 0 32 32" width="512" xmlns="http://www.w3.org/2000/svg"><path d="m26 32h-20c-3.314 0-6-2.686-6-6v-20c0-3.314 2.686-6 6-6h20c3.314 0 6 2.686 6 6v20c0 3.314-2.686 6-6 6z" fill="#e3f8fa"/><path d="m13.75 7.75h1.25v3.25c0 .552.448 1 1 1s1-.448 1-1v-3.25h1.25c.666 0 1.001-.809.53-1.28l-2.25-2.25c-.146-.147-.338-.22-.53-.22s-.384.073-.53.22l-2.25 2.25c-.471.471-.136 1.28.53 1.28z" fill="#8ce1eb"/><path d="m19 16h-6c-1.103 0-2-.897-2-2v-1c0-.552.448-1 1-1s1 .448 1 1v1h6v-1c0-.552.448-1 1-1s1 .448 1 1v1c0 1.103-.897 2-2 2z" fill="#8ce1eb"/><path d="m26.25 8h-5.442c-.007.018-.01.036-.018.053-.328.792-.993 1.369-1.79 1.593v.354h7v11h-20v-11h7v-.354c-.797-.224-1.462-.801-1.791-1.593-.007-.017-.01-.035-.017-.053h-5.442c-.965 0-1.75.785-1.75 1.75v13.5c0 .965.785 1.75 1.75 1.75h7.658c-.118.501-.429 1.314-1.262 2.146-.313.314-.091.854.354.854h7c.445 0 .668-.538.354-.854-.831-.831-1.151-1.644-1.275-2.146h7.671c.965 0 1.75-.785 1.75-1.75v-13.5c0-.965-.785-1.75-1.75-1.75z" fill="#26c6da"/></svg>