<svg id="bold" enable-background="new 0 0 32 32" height="512" viewBox="0 0 32 32" width="512" xmlns="http://www.w3.org/2000/svg"><path d="m26 32h-20c-3.314 0-6-2.686-6-6v-20c0-3.314 2.686-6 6-6h20c3.314 0 6 2.686 6 6v20c0 3.314-2.686 6-6 6z" fill="#ffe6e2"/><path d="m14.75 9.01h2.5c.689 0 1.25.561 1.25 1.25v5.75h2.75c.659 0 .997.792.542 1.268l-5.25 5.5c-.283.296-.802.296-1.085 0l-5.25-5.5c-.455-.476-.116-1.268.542-1.268h2.75v-5.75c.001-.689.562-1.25 1.251-1.25z" fill="#fc573b"/><g fill="#fd907e"><path d="m7 10c-.552 0-1-.448-1-1v-2c0-1.654 1.346-3 3-3h2c.552 0 1 .448 1 1s-.448 1-1 1h-2c-.551 0-1 .449-1 1v2c0 .552-.448 1-1 1z"/><path d="m11 28h-2c-1.654 0-3-1.346-3-3v-2c0-.552.448-1 1-1s1 .448 1 1v2c0 .551.449 1 1 1h2c.552 0 1 .448 1 1s-.448 1-1 1z"/><path d="m25 10c-.552 0-1-.448-1-1v-2c0-.551-.449-1-1-1h-2c-.552 0-1-.448-1-1s.448-1 1-1h2c1.654 0 3 1.346 3 3v2c0 .552-.448 1-1 1z"/><path d="m23 28h-2c-.552 0-1-.448-1-1s.448-1 1-1h2c.551 0 1-.449 1-1v-2c0-.552.448-1 1-1s1 .448 1 1v2c0 1.654-1.346 3-3 3z"/></g></svg>