<svg id="bold" enable-background="new 0 0 32 32" height="512" viewBox="0 0 32 32" width="512" xmlns="http://www.w3.org/2000/svg"><path d="m26 32h-20c-3.314 0-6-2.686-6-6v-20c0-3.314 2.686-6 6-6h20c3.314 0 6 2.686 6 6v20c0 3.314-2.686 6-6 6z" fill="#f5e6fe"/><path d="m25.023 28h-2.036c-.553 0-1-.448-1-1s.447-1 1-1h2.013c.553 0 1.012.448 1.012 1s-.436 1-.989 1zm-6.062 0h-2.013c-.553 0-1-.448-1-1s.447-1 1-1h2.013c.553 0 1 .448 1 1s-.447 1-1 1zm-6.039 0h-2.014c-.553 0-1-.448-1-1s.447-1 1-1h2.014c.553 0 1 .448 1 1s-.447 1-1 1zm-6.038-.003c-.02 0-.039 0-.059-.001-1.03-.06-1.945-.635-2.449-1.539-.269-.482-.095-1.091.388-1.36.485-.27 1.091-.095 1.36.387.168.303.474.495.816.515.552.032.973.505.94 1.056-.029.531-.471.942-.996.942zm20.116-2.904c-.553 0-1-.448-1-1v-2.013c0-.552.447-1 1-1s1 .448 1 1v2.013c0 .553-.447 1-1 1zm-22-2.107c-.553 0-1-.448-1-1v-2.013c0-.552.447-1 1-1s1 .448 1 1v2.013c0 .553-.447 1-1 1zm22-3.932c-.553 0-1-.448-1-1v-2.013c0-.552.447-1 1-1s1 .448 1 1v2.013c0 .552-.447 1-1 1zm-22-2.107c-.553 0-1-.448-1-1v-2.013c0-.552.447-1 1-1s1 .448 1 1v2.013c0 .553-.447 1-1 1zm22-3.932c-.553 0-1-.448-1-1v-2.013c0-.552.447-1 1-1s1 .448 1 1v2.013c0 .552-.447 1-1 1zm-22-2.107c-.553 0-1-.448-1-1v-2.013c0-.552.447-1 1-1s1 .448 1 1v2.013c0 .552-.447 1-1 1zm20.873-4.396c-.17-.302-.477-.492-.819-.51-.552-.029-.976-.499-.947-1.05.029-.552.502-.981 1.051-.947 1.031.054 1.949.624 2.458 1.525.271.481.102 1.091-.38 1.362-.481.27-1.091.102-1.363-.38zm-4.794-.512h-2.013c-.553 0-1-.448-1-1s.447-1 1-1h2.013c.553 0 1 .448 1 1s-.447 1-1 1zm-6.039 0h-2.013c-.553 0-1-.448-1-1s.447-1 1-1h2.013c.553 0 1 .448 1 1s-.447 1-1 1zm-6.039 0h-2.001c-.553 0-1.007-.448-1.007-1s.441-1 .994-1h2.014c.553 0 1 .448 1 1s-.447 1-1 1z" fill="#be63f9"/><path d="m21.854 12.646-3.5-3.5c-.094-.093-.221-.146-.354-.146h-6.5c-.827 0-1.5.673-1.5 1.5v11c0 .827.673 1.5 1.5 1.5h9c.827 0 1.5-.673 1.5-1.5v-8.5c0-.133-.053-.26-.146-.354z" fill="#d9a4fc"/></svg>