<svg id="bold" enable-background="new 0 0 32 32" height="512" viewBox="0 0 32 32" width="512" xmlns="http://www.w3.org/2000/svg"><path d="m26 32h-20c-3.314 0-6-2.686-6-6v-20c0-3.314 2.686-6 6-6h20c3.314 0 6 2.686 6 6v20c0 3.314-2.686 6-6 6z" fill="#e3f8fa"/><path d="m16 22c-.205 0-.401-.084-.542-.232l-5.25-5.5c-.455-.476-.117-1.268.542-1.268h2.75v-5.75c0-.689.561-1.25 1.25-1.25h2.5c.689 0 1.25.561 1.25 1.25v5.75h2.75c.659 0 .997.792.542 1.268l-5.25 5.5c-.141.148-.337.232-.542.232z" fill="#26c6da"/><path d="m25 28h-18c-1.654 0-3-1.346-3-3v-5c0-1.654 1.346-3 3-3h1.5c.552 0 1 .448 1 1s-.448 1-1 1h-1.5c-.551 0-1 .449-1 1v5c0 .551.449 1 1 1h18c.551 0 1-.449 1-1v-5c0-.551-.449-1-1-1h-1.5c-.552 0-1-.448-1-1s.448-1 1-1h1.5c1.654 0 3 1.346 3 3v5c0 1.654-1.346 3-3 3z" fill="#8ce1eb"/></svg>