<svg id="bold" enable-background="new 0 0 32 32" height="512" viewBox="0 0 32 32" width="512" xmlns="http://www.w3.org/2000/svg"><path d="m26 32h-20c-3.314 0-6-2.686-6-6v-20c0-3.314 2.686-6 6-6h20c3.314 0 6 2.686 6 6v20c0 3.314-2.686 6-6 6z" fill="#ffe6e2"/><path d="m16 20c-.205 0-.401-.084-.543-.232l-5.25-5.5c-.455-.477-.114-1.268.543-1.268h2.75v-1.25c0-4.273 3.477-7.75 7.75-7.75.414 0 .75.336.75.75s-.336.75-.75.75c-1.517 0-2.75 1.233-2.75 2.75v4.75h2.75c.657 0 .998.791.543 1.268l-5.25 5.5c-.142.148-.338.232-.543.232z" fill="#fc573b"/><path d="m25 22h-18c-1.654 0-3 1.346-3 3s1.346 3 3 3h18c1.654 0 3-1.346 3-3s-1.346-3-3-3z" fill="#fd907e"/></svg>