<svg id="bold" enable-background="new 0 0 32 32" height="512" viewBox="0 0 32 32" width="512" xmlns="http://www.w3.org/2000/svg"><path d="m26 32h-20c-3.314 0-6-2.686-6-6v-20c0-3.314 2.686-6 6-6h20c3.314 0 6 2.686 6 6v20c0 3.314-2.686 6-6 6z" fill="#ffe6e2"/><path d="m13.75 11.75h1.25v3.25c0 .552.448 1 1 1s1-.448 1-1v-3.25h1.25c.666 0 1.001-.809.53-1.28l-2.25-2.25c-.146-.147-.338-.22-.53-.22s-.384.073-.53.22l-2.25 2.25c-.471.471-.136 1.28.53 1.28z" fill="#fd907e"/><path d="m19 20h-6c-1.103 0-2-.897-2-2v-1c0-.552.448-1 1-1s1 .448 1 1v1h6v-1c0-.552.448-1 1-1s1 .448 1 1v1c0 1.103-.897 2-2 2z" fill="#fd907e"/><path d="m21 4h-10c-1.654 0-3 1.346-3 3v18c0 1.654 1.346 3 3 3h10c1.654 0 3-1.346 3-3v-18c0-1.654-1.346-3-3-3zm-10 2h10c.551 0 1 .448 1 1v17h-12v-17c0-.552.449-1 1-1z" fill="#fc573b"/></svg>