<svg id="bold" enable-background="new 0 0 32 32" height="512" viewBox="0 0 32 32" width="512" xmlns="http://www.w3.org/2000/svg"><path d="m26 32h-20c-3.314 0-6-2.686-6-6v-20c0-3.314 2.686-6 6-6h20c3.314 0 6 2.686 6 6v20c0 3.314-2.686 6-6 6z" fill="#f5e6fe"/><path d="m15 18.73v9.27l-7-3.75v-9.24z" fill="#be63f9"/><path d="m24 15.01v9.24l-7 3.75v-9.27z" fill="#be63f9"/><path d="m18.25 9.25h-1.25v-4.25c0-.552-.448-1-1-1s-1 .448-1 1v4.25h-1.25c-.666 0-1.001.809-.53 1.28l2.25 2.25c.146.147.338.22.53.22s.384-.073.53-.22l2.25-2.25c.471-.471.136-1.28-.53-1.28z" fill="#d9a4fc"/><path d="m20.788 11.044c-.136.329-.331.638-.594.901l-2.25 2.25c-.519.519-1.21.805-1.944.805s-1.425-.286-1.944-.806l-2.25-2.25c-.263-.263-.458-.571-.594-.901l-3.212 1.707 8 4.25 8-4.25z" fill="#be63f9"/></svg>