<svg id="bold" enable-background="new 0 0 32 32" height="512" viewBox="0 0 32 32" width="512" xmlns="http://www.w3.org/2000/svg"><path d="m26 32h-20c-3.314 0-6-2.686-6-6v-20c0-3.314 2.686-6 6-6h20c3.314 0 6 2.686 6 6v20c0 3.314-2.686 6-6 6z" fill="#e3f8fa"/><path d="m15 18.73v9.27l-7-3.75v-9.24z" fill="#26c6da"/><path d="m24 15.01v9.24l-7 3.75v-9.27z" fill="#26c6da"/><path d="m16.53 4.22c-.293-.293-.768-.293-1.061 0l-2.25 2.25c-.471.471-.136 1.28.53 1.28h1.251v4.25c0 .552.448 1 1 1s1-.448 1-1v-4.25h1.25c.666 0 1.001-.809.53-1.28z" fill="#8ce1eb"/><path d="m19 10.094v1.906c0 1.654-1.346 3-3 3s-3-1.346-3-3v-1.906l-5 2.656 8 4.25 8-4.25z" fill="#26c6da"/></svg>