<svg id="bold" enable-background="new 0 0 32 32" height="512" viewBox="0 0 32 32" width="512" xmlns="http://www.w3.org/2000/svg"><path d="m26 32h-20c-3.314 0-6-2.686-6-6v-20c0-3.314 2.686-6 6-6h20c3.314 0 6 2.686 6 6v20c0 3.314-2.686 6-6 6z" fill="#f5e6fe"/><g fill="#be63f9"><path d="m23.5 21h-15c-1.93 0-3.5 1.57-3.5 3.5s1.57 3.5 3.5 3.5h15c1.93 0 3.5-1.57 3.5-3.5s-1.57-3.5-3.5-3.5zm-14 5c-.828 0-1.5-.672-1.5-1.5s.672-1.5 1.5-1.5 1.5.672 1.5 1.5-.672 1.5-1.5 1.5zm5 0c-.828 0-1.5-.672-1.5-1.5s.672-1.5 1.5-1.5 1.5.672 1.5 1.5-.672 1.5-1.5 1.5z"/><path d="m24.937 23.715-1.724-14.831c-.062-.528-.428-.884-1.213-.884-.553 0-1-.448-1-1s.447-1 1-1c1.895 0 3.033 1.222 3.199 2.654l1.724 14.831c.063.548-.329 1.045-.878 1.108-.535.067-1.044-.321-1.108-.878z"/><path d="m5.955 24.593c-.549-.063-.941-.56-.878-1.108l1.724-14.831c.163-1.404 1.273-2.654 3.199-2.654.553 0 1 .448 1 1s-.447 1-1 1c-.785 0-1.151.356-1.213.884l-1.724 14.831c-.064.557-.573.945-1.108.878z"/></g><path d="m13.75 7.75h1.25v3.25c0 .552.447 1 1 1s1-.448 1-1v-3.25h1.25c.669 0 1.002-.81.53-1.28l-2.25-2.25c-.146-.147-.338-.22-.53-.22s-.384.073-.53.22l-2.25 2.25c-.472.47-.139 1.28.53 1.28z" fill="#d9a4fc"/><path d="m19 16h-6c-1.103 0-2-.897-2-2v-1c0-.552.447-1 1-1s1 .448 1 1v1h6v-1c0-.552.447-1 1-1s1 .448 1 1v1c0 1.103-.897 2-2 2z" fill="#d9a4fc"/></svg>