<svg id="bold" enable-background="new 0 0 32 32" height="512" viewBox="0 0 32 32" width="512" xmlns="http://www.w3.org/2000/svg"><path d="m26 32h-20c-3.314 0-6-2.686-6-6v-20c0-3.314 2.686-6 6-6h20c3.314 0 6 2.686 6 6v20c0 3.314-2.686 6-6 6z" fill="#fff9dd"/><path d="m17.25 23h-2.5c-.689 0-1.25-.561-1.25-1.25v-5.75h-2.75c-.659 0-.997-.792-.542-1.268l5.25-5.5c.283-.296.802-.296 1.085 0l5.25 5.5c.454.476.116 1.268-.543 1.268h-2.75v5.75c0 .689-.561 1.25-1.25 1.25z" fill="#ffd200"/><g fill="#ffe777"><path d="m7 10c-.552 0-1-.448-1-1v-2c0-1.654 1.346-3 3-3h2c.552 0 1 .448 1 1s-.448 1-1 1h-2c-.551 0-1 .449-1 1v2c0 .552-.448 1-1 1z"/><path d="m11 28h-2c-1.654 0-3-1.346-3-3v-2c0-.552.448-1 1-1s1 .448 1 1v2c0 .551.449 1 1 1h2c.552 0 1 .448 1 1s-.448 1-1 1z"/><path d="m25 10c-.552 0-1-.448-1-1v-2c0-.551-.449-1-1-1h-2c-.552 0-1-.448-1-1s.448-1 1-1h2c1.654 0 3 1.346 3 3v2c0 .552-.448 1-1 1z"/><path d="m23 28h-2c-.552 0-1-.448-1-1s.448-1 1-1h2c.551 0 1-.449 1-1v-2c0-.552.448-1 1-1s1 .448 1 1v2c0 1.654-1.346 3-3 3z"/></g></svg>