<svg id="bold" enable-background="new 0 0 32 32" height="512" viewBox="0 0 32 32" width="512" xmlns="http://www.w3.org/2000/svg"><path d="m26 32h-20c-3.314 0-6-2.686-6-6v-20c0-3.314 2.686-6 6-6h20c3.314 0 6 2.686 6 6v20c0 3.314-2.686 6-6 6z" fill="#f5e6fe"/><path d="m17.25 22h-2.5c-.689 0-1.25-.561-1.25-1.25v-5.75h-2.75c-.657 0-.998-.791-.543-1.268l5.25-5.5c.283-.296.803-.296 1.086 0l5.25 5.5c.455.477.114 1.268-.543 1.268h-2.75v5.75c0 .689-.561 1.25-1.25 1.25z" fill="#be63f9"/><path d="m25 28h-18c-1.654 0-3-1.346-3-3v-5c0-1.654 1.346-3 3-3h1.5c.552 0 1 .448 1 1s-.448 1-1 1h-1.5c-.551 0-1 .449-1 1v5c0 .551.449 1 1 1h18c.551 0 1-.449 1-1v-5c0-.551-.449-1-1-1h-1.5c-.552 0-1-.448-1-1s.448-1 1-1h1.5c1.654 0 3 1.346 3 3v5c0 1.654-1.346 3-3 3z" fill="#d9a4fc"/></svg>