<svg id="bold" enable-background="new 0 0 32 32" height="512" viewBox="0 0 32 32" width="512" xmlns="http://www.w3.org/2000/svg"><path d="m26 32h-20c-3.314 0-6-2.686-6-6v-20c0-3.314 2.686-6 6-6h20c3.314 0 6 2.686 6 6v20c0 3.314-2.686 6-6 6z" fill="#fff9dd"/><path d="m10.75 22c-.414 0-.75-.336-.75-.75s.336-.75.75-.75c1.517 0 2.75-1.233 2.75-2.75v-4.75h-2.75c-.657 0-.998-.791-.543-1.268l5.25-5.5c.283-.296.803-.296 1.086 0l5.25 5.5c.455.477.114 1.268-.543 1.268h-2.75v1.25c0 4.273-3.477 7.75-7.75 7.75z" fill="#ffd200"/><path d="m25 28h-18c-1.654 0-3-1.346-3-3v-7.5c0-1.654 1.346-3 3-3h3.5c.553 0 1 .448 1 1s-.447 1-1 1h-3.5c-.552 0-1 .449-1 1v7.5c0 .551.448 1 1 1h18c.552 0 1-.449 1-1v-7.5c0-.551-.448-1-1-1h-3.5c-.553 0-1-.448-1-1s.447-1 1-1h3.5c1.654 0 3 1.346 3 3v7.5c0 1.654-1.346 3-3 3z" fill="#ffe777"/></svg>