<svg id="bold" enable-background="new 0 0 32 32" height="512" viewBox="0 0 32 32" width="512" xmlns="http://www.w3.org/2000/svg"><path d="m26 32h-20c-3.314 0-6-2.686-6-6v-20c0-3.314 2.686-6 6-6h20c3.314 0 6 2.686 6 6v20c0 3.314-2.686 6-6 6z" fill="#f5e6fe"/><path d="m16 26c-5.514 0-10-4.486-10-10s4.486-10 10-10 10 4.486 10 10-4.486 10-10 10zm0 2c6.617 0 12-5.383 12-12s-5.383-12-12-12-12 5.383-12 12 5.383 12 12 12z" fill="#be63f9"/><g fill="#d9a4fc"><path d="m12.22 11.481 3.25-3.25c.146-.146.338-.22.53-.22s.384.073.53.22l3.25 3.25c.471.47.138 1.28-.53 1.28h-2.25v4.25c0 .552-.447 1-1 1s-1-.448-1-1v-4.25h-2.25c-.669 0-1.002-.81-.53-1.28z"/><path d="m22 21.002c0 .552-.447 1-1 1h-10c-.553 0-1-.448-1-1s.447-1 1-1h10c.553 0 1 .448 1 1z"/></g></svg>