<svg id="bold" enable-background="new 0 0 32 32" height="512" viewBox="0 0 32 32" width="512" xmlns="http://www.w3.org/2000/svg"><path d="m26 32h-20c-3.314 0-6-2.686-6-6v-20c0-3.314 2.686-6 6-6h20c3.314 0 6 2.686 6 6v20c0 3.314-2.686 6-6 6z" fill="#f5e6fe"/><path d="m25.25 6c.414 0 .75.336.75.75v18.5c0 .414-.336.75-.75.75h-18.5c-.414 0-.75-.336-.75-.75v-18.5c0-.414.336-.75.75-.75zm0-2h-18.5c-1.517 0-2.75 1.233-2.75 2.75v18.5c0 1.517 1.233 2.75 2.75 2.75h18.5c1.517 0 2.75-1.233 2.75-2.75v-18.5c0-1.517-1.233-2.75-2.75-2.75z" fill="#d9a4fc"/><path d="m21.25 16h-2.75v5.75c0 .689-.561 1.25-1.25 1.25h-2.5c-.689 0-1.25-.561-1.25-1.25v-5.75h-2.75c-.659 0-.997-.792-.542-1.268l5.25-5.5c.283-.296.802-.296 1.085 0l5.25 5.5c.454.476.116 1.268-.543 1.268z" fill="#be63f9"/></svg>