<svg id="Capa_1" enable-background="new 0 0 512 512" height="512" viewBox="0 0 512 512" width="512" xmlns="http://www.w3.org/2000/svg"><g><g><g><g><g><g><g><g><path d="m138.836 419.109v40.933c0 11.119 12.698 17.381 21.428 10.568l151.761-118.443c6.86-5.354 6.86-15.782 0-21.135l-29.291-22.86" fill="#ccf5fc"/></g></g></g><g><g><g><path d="m138.836 223.156v62.974h-128.836v110.938h128.836v22.041l143.899-110.938-122.471-95.583c-8.73-6.814-21.428-.551-21.428 10.568z" fill="#66e0f7"/></g></g></g></g></g></g><g><g><g><g><g><g><g><g><path d="m390.223 92.892v-40.934c0-11.119-12.698-17.381-21.428-10.568l-151.762 118.444c-6.86 5.354-6.86 15.782 0 21.135l29.291 22.86" fill="#66e0f7"/></g></g></g><g><g><g><path d="m246.324 203.83 122.471 95.583c8.73 6.814 21.428.551 21.428-10.568v-62.975h111.777v-110.937h-111.777v-22.041" fill="#ccf5fc"/></g></g></g></g></g></g></g></g></g><g><path d="m318.179 323.149-151.762-118.444c-7.058-5.509-16.436-6.493-24.477-2.569-8.083 3.944-13.104 11.999-13.104 21.02v52.975h-118.836c-5.523 0-10 4.477-10 10v110.938c0 5.522 4.477 10 10 10h118.836v52.975c0 9.021 5.021 17.075 13.104 21.02 3.266 1.594 6.752 2.378 10.214 2.378 5.062 0 10.071-1.676 14.262-4.947l151.762-118.443c5.714-4.46 8.992-11.185 8.992-18.45.001-7.269-3.276-13.993-8.991-18.453zm-298.179 63.919v-90.938h118.836c5.523 0 10-4.478 10-10v-62.975c0-1.854 1.176-2.704 1.876-3.046.824-.401 2.082-.665 3.399.361l112.308 87.651-117.583 90.65v-1.705c0-5.523-4.477-10-10-10h-118.836zm285.874-42.785-151.762 118.444c-1.316 1.026-2.576.763-3.399.361-.701-.342-1.876-1.192-1.876-3.046v-36.016l133.862-103.2 23.175 18.088c1.129.881 1.297 2.061 1.297 2.685s-.169 1.804-1.297 2.684z"/><path d="m502 104.933h-101.777v-52.975c0-9.021-5.021-17.075-13.104-21.019-8.041-3.925-17.418-2.941-24.476 2.569l-151.762 118.442c-5.715 4.46-8.993 11.186-8.993 18.451 0 7.266 3.278 13.991 8.993 18.45l151.761 118.443c4.192 3.272 9.201 4.947 14.263 4.947 3.462 0 6.949-.784 10.214-2.378 8.083-3.944 13.104-11.999 13.104-21.02v-52.973h101.777c5.523 0 10-4.478 10-10v-110.937c0-5.523-4.477-10-10-10zm-10 110.937h-101.777c-5.523 0-10 4.478-10 10v62.975c0 1.854-1.176 2.704-1.876 3.046-.823.403-2.082.667-3.399-.361l-114.473-89.341 30.85-22.961c4.43-3.298 5.349-9.563 2.051-13.993-3.297-4.43-9.562-5.348-13.993-2.052l-35.26 26.243-20.937-16.341c-1.129-.881-1.297-2.06-1.297-2.684s.168-1.803 1.297-2.685l151.762-118.442c1.315-1.027 2.575-.765 3.399-.361.701.342 1.876 1.192 1.876 3.046v36.173l-28.311 21.071c-4.43 3.298-5.349 9.563-2.051 13.993 1.963 2.637 4.977 4.03 8.03 4.03 2.076 0 4.17-.645 5.963-1.979l16.37-12.184v1.869c0 5.522 4.477 10 10 10h101.776z"/><path d="m331 140.28c-1.607-3.855-5.551-6.38-9.735-6.154-3.944.213-7.459 2.757-8.856 6.456-1.526 4.044-.199 8.789 3.229 11.429 3.248 2.502 7.741 2.753 11.263.668 4.202-2.487 5.973-7.897 4.099-12.399z"/></g></g></svg>