<svg id="Capa_1" enable-background="new 0 0 512.003 512.003" height="512" viewBox="0 0 512.003 512.003" width="512" xmlns="http://www.w3.org/2000/svg"><g><g><g><g><g><g><g><g><g><path d="m426.77 194.849 28.944 28.944c7.862 7.862 21.269 3.311 22.625-7.68l23.56-191.064c1.065-8.636-6.309-16.01-14.945-14.945l-36.876 4.547" fill="#66e0f7"/></g></g></g><g><g><g><path d="m450.078 14.652-154.188 19.013c-10.991 1.355-15.542 14.763-7.68 22.625l44.53 44.53-90.153 90.153 78.445 78.445 90.153-90.153 15.585 15.585" fill="#ccf5fc"/></g></g></g></g></g></g></g><g><g><g><g><g><g><g><g><path d="m85.233 317.156-28.944-28.944c-7.862-7.862-21.269-3.311-22.625 7.68l-23.56 191.064c-1.065 8.636 6.309 16.01 14.945 14.945l36.876-4.547" fill="#ccf5fc"/></g></g></g><g><g><g><g><path d="m61.926 497.353 154.187-19.012c10.991-1.355 15.542-14.762 7.68-22.625l-44.53-44.53 90.153-90.153-78.445-78.445-90.153 90.153-15.585-15.585z" fill="#66e0f7"/></g></g></g></g></g></g></g></g></g></g><g><g><g><g><path d="m438.962 120.232c-4.068 0-7.793-2.558-9.29-6.331-1.538-3.877-.446-8.446 2.696-11.195 3.186-2.788 7.926-3.251 11.591-1.136 3.664 2.114 5.645 6.457 4.813 10.613-.924 4.611-5.101 8.049-9.81 8.049z"/></g></g></g><path d="m505.136 6.87c-5.138-5.138-12.21-7.58-19.406-6.69l-191.064 23.56c-8.886 1.096-16.213 7.031-19.124 15.491-2.926 8.505-.782 17.751 5.597 24.13l37.458 37.458-83.082 83.082c-3.905 3.905-3.905 10.237 0 14.143l78.444 78.445c1.875 1.875 4.419 2.929 7.071 2.929s5.196-1.054 7.071-2.929l83.083-83.082 37.458 37.458c4.493 4.492 10.406 6.884 16.483 6.884 2.551 0 5.132-.422 7.647-1.287 8.46-2.91 14.396-10.238 15.491-19.124l23.56-191.063c.888-7.196-1.549-14.269-6.687-19.405zm-13.162 16.957-23.56 191.063c-.205 1.657-1.281 2.361-2.148 2.659-.737.253-2.171.483-3.481-.827l-25.579-25.579 5.12-34.917c.801-5.465-2.979-10.544-8.443-11.346-5.463-.797-10.543 2.979-11.345 8.444l-2.96 20.19-1.322-1.322c-3.905-3.903-10.237-3.904-14.142 0l-83.083 83.082-64.302-64.303 83.083-83.082c1.875-1.876 2.929-4.419 2.929-7.071s-1.054-5.195-2.929-7.071l-44.529-44.529c-1.311-1.311-1.081-2.743-.827-3.481.298-.866 1.001-1.943 2.659-2.148l144.119-17.771-5.579 38.05c-.801 5.464 2.979 10.543 8.443 11.345.492.072.98.106 1.463.106 4.88 0 9.152-3.578 9.881-8.551l6.376-43.489 26.358-3.25c1.417-.177 2.374.538 2.817.982.442.442 1.157 1.395.981 2.816z"/><path d="m198.043 235.516c-1.876-1.875-4.419-2.929-7.071-2.929s-5.196 1.054-7.071 2.929l-83.083 83.082-37.458-37.458c-6.378-6.378-15.624-8.521-24.13-5.597-8.459 2.91-14.396 10.238-15.491 19.124l-23.56 191.064c-.887 7.194 1.55 14.268 6.688 19.404 4.443 4.444 10.335 6.868 16.501 6.868.963 0 1.933-.059 2.904-.179l191.064-23.56c8.886-1.096 16.213-7.031 19.124-15.491 2.926-8.505.782-17.751-5.597-24.13l-37.458-37.458 83.082-83.082c3.905-3.905 3.905-10.237 0-14.143zm-174.217 256.459c-1.42.171-2.376-.539-2.817-.982-.441-.441-1.156-1.395-.981-2.815l23.56-191.064c.205-1.657 1.281-2.361 2.148-2.659.737-.253 2.171-.484 3.481.827l25.467 25.467-21.681 167.628zm148.366-87.86c-1.875 1.876-2.929 4.419-2.929 7.071s1.054 5.195 2.929 7.071l44.529 44.529c1.311 1.311 1.081 2.743.827 3.481-.298.866-1.001 1.943-2.659 2.147l-141.392 17.436 19.045-147.243 1.205 1.205c3.906 3.905 10.238 3.905 14.142 0l83.083-83.082 64.302 64.303z"/></g></g></svg>