<svg id="Capa_1" enable-background="new 0 0 512.001 512.001" height="512" viewBox="0 0 512.001 512.001" width="512" xmlns="http://www.w3.org/2000/svg"><g><g><g><g><g><g><g><g><path d="m64.331 301.889h-40.933c-11.119 0-17.381 12.698-10.568 21.428l118.443 151.762c5.354 6.86 15.782 6.86 21.135 0l22.86-29.291" fill="#ccf5fc"/></g></g></g><g><g><g><g><path d="m260.284 301.889h-62.974v-270.112h-110.938v270.112h-22.041l110.938 143.899 95.583-122.471c6.813-8.73.551-21.428-10.568-21.428z" fill="#66e0f7"/></g></g></g></g></g></g></g><g><g><g><g><g><g><g><path d="m447.67 210.112h40.933c11.119 0 17.381-12.698 10.568-21.428l-118.443-151.762c-5.354-6.86-15.782-6.86-21.135 0l-22.86 29.291" fill="#66e0f7"/></g></g></g><g><g><g><path d="m336.732 66.213-95.583 122.471c-6.813 8.73-.551 21.428 10.568 21.428h62.974v270.112h110.938v-270.112h22.041" fill="#ccf5fc"/></g></g></g></g></g></g></g></g><g><path d="m507.053 182.532-118.442-151.762c-4.46-5.716-11.186-8.993-18.452-8.993-7.266.001-13.99 3.278-18.449 8.993l-118.445 151.761c-5.508 7.058-6.492 16.437-2.568 24.477 3.945 8.083 11.999 13.105 21.02 13.105h52.975v260.111c0 5.522 4.478 10 10 10h110.938c5.522 0 10-4.478 10-10v-260.112h52.975c9.022 0 17.076-5.022 21.021-13.105 3.921-8.041 2.936-17.419-2.573-24.475zm-15.403 15.703c-.342.701-1.192 1.877-3.047 1.877h-36.173l-21.071-28.312c-3.298-4.431-9.565-5.348-13.993-2.052-4.431 3.298-5.349 9.563-2.052 13.993l12.184 16.37h-1.869c-5.522 0-10 4.478-10 10v260.111h-90.938v-260.11c0-5.522-4.478-10-10-10h-62.975c-1.854 0-2.704-1.176-3.046-1.877-.402-.824-.666-2.082.361-3.399l89.341-114.473 22.96 30.85c1.963 2.637 4.978 4.03 8.03 4.03 2.076 0 4.17-.645 5.963-1.979 4.431-3.298 5.349-9.563 2.052-13.993l-26.243-35.26 16.34-20.936c.881-1.129 2.06-1.298 2.684-1.298s1.804.169 2.685 1.298l118.443 151.763c1.029 1.316.765 2.574.364 3.397z"/><path d="m405.69 137.831c-1.611-3.869-5.577-6.388-9.77-6.161-4.101.222-7.722 3.019-8.979 6.925-1.283 3.985.117 8.439 3.43 10.991 3.307 2.548 7.996 2.726 11.501.472 4.008-2.577 5.652-7.827 3.818-12.227z"/><path d="m281.304 304.994c-3.945-8.083-11.999-13.104-21.02-13.104h-52.974v-260.112c0-5.522-4.478-10-10-10h-110.937c-5.523 0-10 4.478-10 10v260.111h-52.975c-9.021 0-17.076 5.021-21.021 13.105-3.924 8.04-2.938 17.418 2.57 24.475l118.443 151.762c4.46 5.716 11.186 8.993 18.452 8.993 7.266-.001 13.99-3.278 18.449-8.993l118.445-151.761c5.508-7.057 6.492-16.436 2.568-24.476zm-136.779 163.932c-.881 1.129-2.06 1.298-2.684 1.298s-1.804-.169-2.684-1.298l-118.444-151.762c-1.027-1.316-.764-2.574-.362-3.397.342-.701 1.192-1.877 3.047-1.877h36.016l103.199 133.862zm118.444-151.761-87.651 112.308-90.65-117.584h1.705c5.522 0 10-4.478 10-10v-260.111h90.937v260.111c0 5.522 4.478 10 10 10h62.975c1.854 0 2.704 1.176 3.046 1.877.402.824.666 2.082-.362 3.399z"/></g></g></svg>