<svg id="Capa_1" enable-background="new 0 0 511.959 511.959" height="512" viewBox="0 0 511.959 511.959" width="512" xmlns="http://www.w3.org/2000/svg"><g><g><g><g><path d="m274.612 357.516-37.137 37.097 49.069 49.119c11.296 11.307 29.619 11.278 40.879-.065l117.081-117.887-69.317-69.835" fill="#66e0f7"/></g></g><g><g><g><g><g><g><g><g><g><path clip-rule="evenodd" d="m444.504 325.78 49.112-49.474c11.181-11.267 11.18-29.455-.002-40.721l-166.123-167.292c-11.286-11.371-29.662-11.37-40.947.002l-48.845 49.205z" fill="#ccf5fc" fill-rule="evenodd"/></g></g></g></g></g></g></g></g><g><g><g><g><path clip-rule="evenodd" d="m217.029 325.78 49.112-49.474c11.181-11.267 11.18-29.455-.002-40.721l-166.123-167.292c-11.286-11.371-29.662-11.37-40.947.002l-48.845 49.205z" fill="#66e0f7" fill-rule="evenodd"/></g></g></g><g><g><g><g><g><path d="m10 394.613 49.069 49.119c11.296 11.307 29.619 11.278 40.879-.065l117.081-117.887-69.317-69.835z" fill="#ccf5fc"/></g></g></g></g></g></g></g></g><g><g><g><g><path d="m306.71 335.419c-4.171 0-8.016-2.696-9.415-6.631-1.379-3.88-.204-8.326 2.946-10.991 3.283-2.777 8.091-3.122 11.746-.864 3.499 2.162 5.329 6.415 4.523 10.446-.923 4.618-5.092 8.04-9.8 8.04z"/></g></g></g><path d="m273.234 228.539-166.121-167.291c-7.351-7.406-17.143-11.484-27.572-11.483-10.43 0-20.222 4.08-27.569 11.484l-48.845 49.206c-3.871 3.899-3.871 10.192.001 14.091l130.479 131.41-130.703 131.611c-3.881 3.908-3.871 10.218.022 14.114l49.069 49.119c7.342 7.349 17.098 11.394 27.479 11.394.021 0 .043 0 .063-.001 10.405-.017 20.174-4.094 27.506-11.479l166.194-167.364c14.997-15.111 14.997-39.699-.003-54.811zm-180.382 208.083c-3.559 3.585-8.298 5.564-13.346 5.572h-.03c-5.035 0-9.77-1.963-13.332-5.529l-42.029-42.072 123.585-124.444 55.237 55.631zm166.191-167.361-42.014 42.324-192.714-194.086 41.853-42.16c3.565-3.594 8.316-5.573 13.375-5.573 5.059-.001 9.81 1.979 13.378 5.574l166.121 167.29c7.286 7.342 7.287 19.289.001 26.631z"/><path d="m500.709 228.539-166.121-167.291c-7.35-7.405-17.142-11.483-27.571-11.483-10.431 0-20.222 4.079-27.57 11.484l-48.845 49.205c-3.871 3.899-3.871 10.192.001 14.091l130.952 131.885-30.083 30.083c-3.905 3.905-3.905 10.237 0 14.142 1.953 1.953 4.512 2.929 7.071 2.929 2.56 0 5.118-.977 7.071-2.929l30.032-30.032 54.765 55.156-110.085 110.843c-3.559 3.585-8.298 5.564-13.346 5.572h-.03c-5.035 0-9.77-1.963-13.332-5.529l-42.001-42.044 30.063-30.03c3.907-3.903 3.91-10.235.008-14.142-3.903-3.907-10.235-3.911-14.143-.007l-37.138 37.098c-1.876 1.874-2.932 4.418-2.933 7.069-.001 2.652 1.051 5.197 2.926 7.073l49.07 49.118c7.342 7.349 17.098 11.394 27.479 11.394.021 0 .043 0 .064-.001 10.405-.017 20.174-4.094 27.506-11.479l166.195-167.364c14.995-15.112 14.994-39.699-.005-54.811zm-14.19 40.722-42.014 42.324-192.716-194.086 41.853-42.16c3.566-3.594 8.316-5.573 13.376-5.573 5.059-.001 9.809 1.979 13.377 5.574l166.121 167.29c7.287 7.342 7.288 19.289.003 26.631z"/></g></g></svg>