<svg id="Capa_1" enable-background="new 0 0 512.001 512.001" height="512" viewBox="0 0 512.001 512.001" width="512" xmlns="http://www.w3.org/2000/svg"><g><g><g><g><g><path d="m354.68 502.001-152.926-151.94 54.246-53.886 90.326 89.743c5.347 5.313 8.354 12.539 8.354 20.076z" fill="#ffee80"/></g></g></g><g><g><g><path d="m201.754 350.061 26.958 26.779 27.288 27.107-98.68 98.053v-96.012c0-7.537 3.007-14.763 8.353-20.075z" fill="#fff2a0"/></g></g></g><g><g><g><g><path d="m201.754 161.94 26.958-26.779 27.288-27.107-98.68-98.053v96.012c0 7.537 3.007 14.763 8.353 20.075z" fill="#fff2a0"/></g></g></g><g><g><g><g><path d="m337.778 134.677 8.613-8.604c5.307-5.307 8.289-12.506 8.289-20.012v-96.06l-152.926 151.939 54.891 53.877 21.161-21.161" fill="#ffee80"/></g></g></g></g></g><g><g><g><g><path d="m10 354.68 151.94-152.926 53.886 54.246-89.743 90.326c-5.313 5.347-12.539 8.354-20.076 8.354z" fill="#ffee80"/></g></g></g><g><g><g><path d="m161.94 201.755-26.779 26.958-27.107 27.288-98.053-98.68h96.012c7.537 0 14.763 3.007 20.075 8.353z" fill="#fff2a0"/></g></g></g></g><g><g><g><g><path d="m502 157.321-151.94 152.926-53.886-54.246 89.743-90.326c5.313-5.347 12.539-8.354 20.076-8.354z" fill="#ffee80"/></g></g></g><g><g><g><g><g><path d="m350.061 310.247 26.779-26.958 27.107-27.288 98.053 98.68h-96.012c-7.537 0-14.763-3.007-20.075-8.353z" fill="#fff2a0"/></g></g></g></g></g></g></g><g><g><g><g><path d="m307.98 174.48c-4.115 0-7.911-2.62-9.36-6.476-1.488-3.959-.262-8.572 3.016-11.252 3.235-2.645 7.895-2.985 11.481-.842 3.576 2.138 5.492 6.438 4.663 10.529-.935 4.619-5.081 8.041-9.8 8.041z"/></g></g></g><path d="m263.049 289.081c-3.899-3.874-10.195-3.874-14.096-.001l-90.329 89.739c-7.184 7.139-11.304 17.041-11.304 27.169v96.013c0 4.039 2.43 7.682 6.159 9.232 1.241.517 2.545.768 3.839.768 2.591 0 5.139-1.008 7.05-2.906l91.626-91.045 91.636 91.045c1.911 1.899 4.459 2.906 7.051 2.906 1.293 0 2.598-.251 3.839-.768 3.729-1.552 6.158-5.193 6.158-9.232v-96.006c0-10.129-4.121-20.032-11.306-27.171zm-95.728 188.885v-71.979c0-4.839 1.969-9.571 5.401-12.981l29.033-28.848 40.052 39.794zm177.359.002-128.736-127.907 40.056-39.791 83.278 82.741c3.433 3.411 5.402 8.144 5.402 12.983z"/><path d="m249.641 222.955c1.946 1.91 4.476 2.863 7.004 2.863 2.561 0 5.12-.978 7.072-2.929l21.161-21.161c3.905-3.905 3.905-10.237 0-14.142-3.905-3.904-10.238-3.904-14.142 0l-14.156 14.156-40.594-39.844 128.694-127.865v72.027c0 4.889-1.903 9.484-5.357 12.938l-8.613 8.604c-3.907 3.902-3.911 10.234-.007 14.142 3.903 3.907 10.235 3.91 14.142.007l8.616-8.607c7.234-7.232 11.219-16.852 11.219-27.083v-96.06c0-4.039-2.429-7.681-6.158-9.232-3.73-1.553-8.026-.708-10.89 2.139l-91.636 91.045-91.627-91.046c-2.865-2.847-7.162-3.691-10.89-2.139-3.729 1.551-6.159 5.193-6.159 9.232v96.013c0 10.128 4.12 20.03 11.304 27.169zm-82.32-188.92 74.487 74.014-40.052 39.794-29.033-28.848c-3.433-3.41-5.401-8.143-5.401-12.981v-71.979z"/><path d="m222.921 248.953-89.739-90.328c-7.138-7.184-17.041-11.304-27.169-11.304h-96.012c-4.039 0-7.681 2.43-9.233 6.158-1.551 3.73-.707 8.025 2.139 10.891l91.044 91.627-91.044 91.635c-2.847 2.865-3.69 7.161-2.139 10.89s5.194 6.158 9.232 6.158h96.006c10.129 0 20.031-4.12 27.17-11.306l89.744-90.326c3.875-3.899 3.875-10.195.001-14.095zm-188.886-81.632h71.979c4.839 0 9.571 1.969 12.981 5.401l28.849 29.033-39.795 40.053zm84.954 171.957c-3.411 3.434-8.143 5.402-12.982 5.402h-71.974l127.907-128.736 39.79 40.056z"/><path d="m418.049 256.005 91.045-91.636c2.847-2.864 3.69-7.161 2.139-10.89s-5.194-6.158-9.232-6.158h-96.006c-10.129 0-20.031 4.12-27.17 11.306l-89.744 90.326c-3.874 3.899-3.875 10.195-.001 14.096l89.739 90.328c7.138 7.184 17.041 11.304 27.169 11.304h96.012c4.039 0 7.681-2.43 9.233-6.158 1.551-3.729.707-8.025-2.139-10.891zm-25.037-83.282c3.411-3.434 8.143-5.402 12.982-5.402h71.974l-127.908 128.736-39.79-40.056zm12.976 171.957c-4.839 0-9.571-1.969-12.981-5.401l-28.849-29.033 39.795-40.053 74.014 74.487z"/></g></g></svg>