<svg id="Capa_1" enable-background="new 0 0 512 512" height="512" viewBox="0 0 512 512" width="512" xmlns="http://www.w3.org/2000/svg"><g><g><g><g><g><path d="m150.454 281.852 163.567 162.512-58.021 57.636-96.611-95.988c-5.719-5.682-8.935-13.411-8.935-21.473z" fill="#ffee80"/></g></g></g><g><g><g><path d="m314.021 444.365-28.834-28.643-29.187-28.994 105.547-104.876v102.693c0 8.062-3.216 15.79-8.934 21.472z" fill="#fff2a0"/></g></g></g><g><g><g><g><path d="m314.021 67.627-28.834 28.643-29.187 28.993 105.547 104.876v-102.694c0-8.062-3.216-15.79-8.934-21.472z" fill="#fff2a0"/></g></g></g><g><g><g><g><g><path d="m168.532 96.788-9.212 9.203c-5.677 5.677-8.866 13.376-8.866 21.404v102.744l163.567-162.512-58.711-57.627-22.633 22.633" fill="#ffee80"/></g></g></g></g></g></g></g><g><g><g><g><path d="m200.41 74.911c-4.118 0-7.9-2.632-9.357-6.475-1.477-3.895-.31-8.469 2.881-11.157 3.294-2.775 8.084-3.122 11.749-.864 3.576 2.203 5.393 6.58 4.473 10.673-1.011 4.501-5.119 7.823-9.746 7.823z"/></g></g></g><path d="m365.389 272.621c-3.728-1.55-8.025-.707-10.891 2.139l-98.494 97.867-98.503-97.868c-2.866-2.849-7.163-3.689-10.89-2.139-3.729 1.552-6.158 5.193-6.158 9.232v102.687c0 10.649 4.333 21.061 11.888 28.567l96.611 95.988c1.95 1.938 4.499 2.906 7.048 2.906s5.098-.969 7.048-2.905l96.612-95.983c7.555-7.505 11.887-17.917 11.887-28.566v-102.693c0-4.039-2.43-7.681-6.158-9.232zm-109.388 215.284-89.564-88.986c-3.803-3.778-5.983-9.02-5.983-14.38v-78.654l139.378 138.481zm95.546-103.36c0 5.36-2.181 10.602-5.983 14.379l-31.544 31.344-43.827-43.545 81.354-80.837z"/><path d="m359.661 98.879-97.346-96.015c-3.916-3.844-10.195-3.815-14.076.065l-22.634 22.634c-3.905 3.905-3.905 10.237 0 14.143 3.906 3.904 10.236 3.904 14.143 0l15.628-15.629 44.413 43.592-139.336 138.438v-78.712c0-5.414 2.108-10.505 5.934-14.329l9.213-9.203c3.907-3.903 3.91-10.235.008-14.143-3.903-3.906-10.235-3.912-14.143-.008l-9.217 9.207c-7.606 7.606-11.795 17.719-11.795 28.476v102.744c0 4.039 2.43 7.681 6.158 9.232 1.242.517 2.546.768 3.84.768 2.591 0 5.139-1.008 7.05-2.906l98.503-97.868 98.494 97.867c1.912 1.899 4.459 2.906 7.051 2.906 1.294 0 2.599-.251 3.84-.768 3.729-1.552 6.158-5.193 6.158-9.232v-102.692c0-10.649-4.332-21.061-11.886-28.567zm-8.114 107.226-81.354-80.837 43.827-43.545 31.544 31.343c3.803 3.778 5.983 9.02 5.983 14.379z"/></g></g></svg>