<svg id="Capa_1" enable-background="new 0 0 512 512" height="512" viewBox="0 0 512 512" width="512" xmlns="http://www.w3.org/2000/svg"><g><g><g><g><g><path d="m10.239 388.508 56.011.186 56.696.188-.654-204.828-100.073 99.963c-7.856 7.848-12.254 18.501-12.219 29.599z" fill="#fff2a0"/></g></g></g><g><g><g><g><path d="m296.292 10.247 1.028 317.411-112.707-.374-.607-187.479c-.036-11.098 4.362-21.752 12.218-29.6z" fill="#ffee80"/></g></g></g><g><g><g><path d="m297.32 327.658-.186-55.949-.189-56.633 205.055.653-100.074 99.963c-7.856 7.847-18.521 12.24-29.631 12.205z" fill="#fff2a0"/></g></g></g></g><g><g><g><g><path d="m163.639 501.753h34.742c11.064 0 21.675-4.39 29.498-12.205l100.124-100.013-317.763-1.027 1.057 113.245h61.726" fill="#ffee80"/></g></g></g></g></g><g><path d="m511.246 211.919c-1.539-3.735-5.174-6.178-9.214-6.19l-195.109-.621-.631-194.893c-.013-4.038-2.453-7.672-6.185-9.212-3.732-1.538-8.025-.685-10.882 2.169l-100.067 99.957c-9.673 9.662-15.196 23.042-15.152 36.708l.607 187.48c.018 5.497 4.47 9.949 9.967 9.968l187.683.612h.164c13.615 0 26.936-5.509 36.567-15.129l100.074-99.964c2.858-2.856 3.717-7.15 2.178-10.885zm-317.24-72.146c-.027-8.373 3.357-16.571 9.286-22.493l83.078-82.986.917 283.332-92.705-.308zm200.854 168.844c-5.908 5.901-14.078 9.279-22.432 9.279h-.1l-65.04-.207-.3-92.581 170.928.544z"/><path d="m328.034 379.535-195.12-.631-.622-194.883c-.013-4.037-2.453-7.671-6.186-9.212-3.733-1.539-8.025-.685-10.882 2.169l-100.072 99.964c-9.673 9.662-15.195 23.04-15.152 36.706l1.297 188.199c.051 5.485 4.513 9.906 9.999 9.906h61.726c5.523 0 10-4.478 10-10s-4.477-10-10-10h-51.818l-.87-93.211 283.585.915-83.108 83.016c-5.991 5.984-13.957 9.28-22.431 9.28h-34.742c-5.523 0-10 4.478-10 10s4.477 10 10 10h34.742c13.811 0 26.797-5.373 36.565-15.13l100.124-100.013c2.858-2.855 3.717-7.15 2.179-10.885-1.539-3.735-5.174-6.177-9.214-6.19zm-298.748-88.442 83.083-82.992.544 170.739-92.706-.3-.207-64.956c-.026-8.373 3.358-16.57 9.286-22.491z"/><path d="m127.54 497.93c-1.638-3.929-5.691-6.456-9.949-6.148-4.153.301-7.75 3.224-8.896 7.225-1.15 4.015.391 8.44 3.787 10.875 3.348 2.4 7.95 2.468 11.378.188 3.918-2.606 5.489-7.803 3.68-12.14z"/></g></g></svg>