<svg id="Capa_1" enable-background="new 0 0 512 512" height="512" viewBox="0 0 512 512" width="512" xmlns="http://www.w3.org/2000/svg"><g><g><g><g><g><path d="m501.761 123.492-56.011-.186-56.696-.188.654 204.828 100.074-99.963c7.856-7.847 12.254-18.501 12.218-29.598z" fill="#fff2a0"/></g></g></g><g><g><g><g><path d="m215.709 501.753-1.028-317.411 112.707.374.607 187.479c.036 11.098-4.362 21.753-12.218 29.6z" fill="#ffee80"/></g></g></g><g><g><g><path d="m214.681 184.342.186 55.949.189 56.633-205.056-.653 100.074-99.963c7.856-7.847 18.521-12.24 29.631-12.205z" fill="#fff2a0"/></g></g></g></g><g><g><g><g><path d="m348.362 10.248h-34.742c-11.064 0-21.675 4.39-29.498 12.205l-100.123 100.012 317.762 1.027-1.057-113.245h-61.726" fill="#ffee80"/></g></g></g></g></g><g><g><g><g><g><path d="m393.7 20.25c-4.121 0-7.907-2.635-9.36-6.483-1.449-3.839-.339-8.336 2.763-11.034 3.207-2.789 7.894-3.264 11.587-1.147 3.561 2.042 5.556 6.242 4.87 10.292-.806 4.757-5.016 8.372-9.86 8.372z"/></g></g></g><path d="m510.703 10.154c-.051-5.485-4.513-9.906-10-9.906h-61.726c-5.523 0-10 4.477-10 10 0 5.522 4.477 10 10 10h51.819l.87 93.211-283.585-.916 83.107-83.016c5.991-5.984 13.957-9.28 22.431-9.28h34.742c5.523 0 10-4.478 10-10 0-5.523-4.477-10-10-10h-34.741c-13.811 0-26.797 5.373-36.565 15.13l-100.124 100.013c-2.858 2.855-3.717 7.149-2.179 10.885 1.539 3.735 5.174 6.178 9.214 6.19l195.12.631.622 194.883c.013 4.037 2.453 7.671 6.186 9.212 1.234.509 2.528.756 3.812.756 2.601 0 5.157-1.015 7.07-2.925l100.073-99.964c9.672-9.661 15.195-23.039 15.152-36.705zm-27.989 210.753-83.083 82.993-.544-170.739 92.706.3.207 64.955c.027 8.373-3.358 16.571-9.286 22.491z"/><path d="m327.421 174.716-187.683-.612h-.164c-13.615 0-26.936 5.509-36.567 15.129l-100.074 99.964c-2.858 2.855-3.717 7.149-2.179 10.885 1.539 3.735 5.174 6.178 9.214 6.19l195.109.621.631 194.893c.013 4.038 2.453 7.672 6.186 9.212 1.233.509 2.528.756 3.813.756 2.601 0 5.157-1.015 7.069-2.925l100.067-99.957c9.673-9.662 15.196-23.042 15.152-36.708l-.607-187.48c-.019-5.497-4.47-9.949-9.967-9.968zm-293.336 111.632 83.056-82.965c5.931-5.925 14.162-9.339 22.533-9.279l65.04.207.3 92.581zm274.624 108.373-83.078 82.986-.917-283.332 92.705.308.575 177.545c.028 8.373-3.357 16.571-9.285 22.493z"/></g></g></g></svg>