<svg id="Capa_1" enable-background="new 0 0 512 512" height="512" viewBox="0 0 512 512" width="512" xmlns="http://www.w3.org/2000/svg"><g><g><g><g><g><path d="m430.887 327.6-35.346-35.582-35.779-36.018-129.42 130.248h126.727c9.948 0 19.486-3.968 26.498-11.025z" fill="#fff2a0"/></g></g></g><g><g><g><g><path d="m10 386.248 200.546-201.848 71.125 71.6-118.452 119.222c-7.012 7.058-16.55 11.026-26.499 11.026z" fill="#ffee80"/></g></g></g><g><g><g><path d="m210.546 184.4-35.346 35.582-35.779 36.018-129.42-130.248h126.727c9.948 0 19.486 3.968 26.498 11.025z" fill="#fff2a0"/></g></g></g></g><g><g><g><g><path d="m402.15 155.298-18.605-18.605c-7.005-7.005-16.507-10.941-26.414-10.941h-126.79l200.546 201.848 71.113-72.452-35.917-35.917" fill="#ffee80"/></g></g></g></g></g><g><path d="m288.766 248.952-118.446-119.225c-8.825-8.882-21.069-13.976-33.592-13.976h-126.727c-4.039 0-7.681 2.43-9.232 6.158-1.552 3.729-.708 8.025 2.139 10.891l122.41 123.194-122.411 123.206c-2.847 2.864-3.691 7.161-2.139 10.89s5.193 6.158 9.232 6.158h126.72c12.523 0 24.766-5.095 33.593-13.979l118.452-119.222c3.875-3.899 3.875-10.195.001-14.095zm-254.732-113.2h102.693c7.234 0 14.307 2.942 19.404 8.073l40.317 40.576-57.035 57.405zm122.091 232.421c-5.099 5.132-12.172 8.075-19.405 8.075h-102.688l176.514-177.658 57.029 57.409z"/><path d="m509.072 248.077-35.917-35.918c-3.904-3.902-10.234-3.904-14.143 0-3.905 3.905-3.905 10.237 0 14.143l28.912 28.912-57.079 58.153-176.472-177.615h102.758c7.307 0 14.176 2.846 19.343 8.012l18.605 18.605c3.906 3.904 10.236 3.904 14.143 0 3.905-3.905 3.905-10.237 0-14.143l-18.607-18.605c-8.944-8.943-20.836-13.869-33.484-13.869h-126.79c-4.039 0-7.681 2.43-9.232 6.158-1.552 3.729-.708 8.025 2.139 10.89l122.411 123.206-122.41 123.194c-2.847 2.865-3.69 7.161-2.139 10.891 1.552 3.729 5.193 6.158 9.232 6.158h126.727c12.522 0 24.767-5.094 33.592-13.975l118.477-120.119c3.842-3.917 3.812-10.198-.066-14.078zm-132.599 120.098c-5.098 5.131-12.17 8.073-19.404 8.073h-102.694l105.38-106.054 57.035 57.405z"/><path d="m425.01 191.22c1.624 3.895 5.647 6.432 9.87 6.159 4.124-.267 7.723-3.143 8.93-7.087 1.224-3.999-.266-8.508-3.659-10.966-3.28-2.376-7.736-2.541-11.183-.421-4.128 2.537-5.785 7.855-3.958 12.315z"/></g></g></svg>