<svg id="Capa_1" enable-background="new 0 0 512 512" height="512" viewBox="0 0 512 512" width="512" xmlns="http://www.w3.org/2000/svg"><g><g><g><g><g><g><g><path d="m502 349.392v49.321c0 13.397-15.3 20.943-25.819 12.733l-182.858-142.713c-8.265-6.451-8.265-19.016 0-25.466l35.293-27.544" fill="#ccf5fc"/></g></g></g><g><g><g><path d="m328.616 215.723 147.565-115.168c10.519-8.21 25.819-.664 25.819 12.733v236.104" fill="#66e0f7"/></g></g></g></g></g><g><g><g><g><g><g><path d="m10 162.608v-49.321c0-13.397 15.3-20.943 25.819-12.733l182.858 142.712c8.265 6.451 8.265 19.016 0 25.466l-35.293 27.544" fill="#ccf5fc"/></g></g></g><g><g><g><path d="m183.384 296.277-147.565 115.168c-10.519 8.21-25.819.665-25.819-12.733v-236.104" fill="#66e0f7"/></g></g></g></g></g></g></g><g><g><g><g><path d="m412.53 290.74c-4.24 0-8.097-2.788-9.461-6.79-1.327-3.895-.062-8.328 3.12-10.939 3.271-2.684 8.021-3.01 11.617-.767 3.492 2.178 5.346 6.402 4.533 10.445-.926 4.613-5.096 8.051-9.809 8.051z"/></g></g></g><path d="m497.36 89.802c-8.977-4.38-19.451-3.282-27.332 2.87l-182.857 142.712c-6.385 4.982-10.047 12.497-10.047 20.616s3.662 15.634 10.047 20.616l182.857 142.712c4.681 3.653 10.274 5.524 15.927 5.524 3.866 0 7.76-.875 11.405-2.654 9.03-4.407 14.64-13.406 14.64-23.486v-285.424c0-10.08-5.609-19.079-14.64-23.486zm-8.772 314.423c-1.001.488-3.613 1.4-6.255-.662l-182.857-142.712c-2.046-1.598-2.352-3.725-2.352-4.851s.306-3.253 2.352-4.85l29.395-22.941 41.502 32.347c1.826 1.423 3.991 2.112 6.141 2.112 2.977 0 5.923-1.323 7.895-3.852 3.395-4.356 2.616-10.64-1.74-14.035l-37.541-29.259 137.207-107.083c2.642-2.065 5.254-1.152 6.255-.663 1.026.501 3.412 2.04 3.412 5.513v216.709l-37.85-29.5c-4.355-3.393-10.64-2.615-14.035 1.74-3.395 4.357-2.616 10.64 1.74 14.035l50.143 39.082v43.357c0 3.473-2.386 5.012-3.412 5.513z"/><path d="m224.829 235.384-182.857-142.712c-7.882-6.151-18.355-7.251-27.332-2.87-9.03 4.407-14.64 13.406-14.64 23.486v285.424c0 10.08 5.61 19.079 14.64 23.486 3.646 1.779 7.539 2.654 11.405 2.654 5.652 0 11.247-1.871 15.927-5.523l182.858-142.713c6.384-4.983 10.046-12.497 10.046-20.616s-3.662-15.633-10.047-20.616zm-195.163 168.179c-2.643 2.063-5.256 1.15-6.254.662-1.026-.501-3.412-2.04-3.412-5.513v-216.709l146.874 114.475zm182.858-142.713-29.394 22.94-163.13-127.145v-43.357c0-3.473 2.386-5.012 3.412-5.513 1-.489 3.611-1.401 6.255.662l182.857 142.712c2.046 1.598 2.352 3.725 2.352 4.851s-.306 3.253-2.352 4.85z"/></g></g></svg>