<svg id="Capa_1" enable-background="new 0 0 512 512" height="512" viewBox="0 0 512 512" width="512" xmlns="http://www.w3.org/2000/svg"><g><g><g><g><g><g><g><path d="m287.124 349.392v49.321c0 13.397 15.3 20.943 25.819 12.733l182.858-142.712c8.265-6.451 8.265-19.016 0-25.466l-35.293-27.544" fill="#ccf5fc"/></g></g></g><g><g><g><path d="m460.509 215.723-147.566-115.168c-10.519-8.21-25.819-.664-25.819 12.733v236.104" fill="#66e0f7"/></g></g></g></g></g><g><g><g><g><g><g><path d="m224.876 162.609v-49.321c0-13.397-15.3-20.943-25.819-12.733l-182.858 142.712c-8.265 6.451-8.265 19.016 0 25.466l35.293 27.544" fill="#ccf5fc"/></g></g></g><g><g><g><path d="m51.492 296.278 147.565 115.168c10.519 8.21 25.819.664 25.819-12.733v-236.104" fill="#66e0f7"/></g></g></g></g></g></g></g><g><g><g><g><path d="m376.59 290.741c-4.192 0-7.984-2.712-9.407-6.636-1.403-3.869-.192-8.328 2.938-10.987 3.273-2.781 8.095-3.143 11.745-.873 3.5 2.176 5.322 6.41 4.523 10.445-.913 4.613-5.092 8.051-9.799 8.051z"/></g></g></g><path d="m501.953 235.384-182.856-142.712c-7.882-6.151-18.355-7.252-27.332-2.87-9.03 4.407-14.641 13.406-14.641 23.486v285.424c0 10.08 5.61 19.079 14.641 23.486 3.647 1.779 7.538 2.655 11.404 2.654 5.652 0 11.247-1.871 15.927-5.524l182.857-142.712c6.385-4.982 10.047-12.497 10.047-20.616s-3.662-15.633-10.047-20.616zm-12.305 25.467-182.858 142.712c-2.643 2.064-5.255 1.149-6.254.662-1.026-.501-3.412-2.04-3.412-5.513v-43.357l50.145-39.083c4.356-3.396 5.135-9.679 1.74-14.035-3.395-4.355-9.68-5.133-14.035-1.74l-37.85 29.5v-216.709c0-3.473 2.386-5.012 3.412-5.513 1-.487 3.61-1.4 6.255.663l137.207 107.083-37.54 29.26c-4.356 3.396-5.135 9.679-1.74 14.035 1.973 2.529 4.918 3.852 7.895 3.852 2.149 0 4.314-.689 6.141-2.112l41.502-32.348 29.393 22.94c2.046 1.598 2.352 3.725 2.352 4.851s-.307 3.254-2.353 4.852z"/><path d="m220.235 89.802c-8.977-4.381-19.45-3.282-27.331 2.87l-182.857 142.712c-6.385 4.983-10.047 12.497-10.047 20.616s3.662 15.634 10.047 20.616l182.856 142.712c4.681 3.653 10.275 5.524 15.928 5.524 3.865 0 7.759-.875 11.404-2.654 9.03-4.407 14.641-13.406 14.641-23.486v-285.424c0-10.08-5.61-19.079-14.641-23.486zm-200.235 166.198c0-1.126.306-3.253 2.352-4.851l182.858-142.711c2.641-2.063 5.254-1.151 6.254-.662 1.026.501 3.412 2.04 3.412 5.513v43.357l-163.131 127.145-29.393-22.94c-2.046-1.598-2.352-3.725-2.352-4.851zm191.464 148.225c-.998.488-3.609 1.401-6.255-.663l-137.207-107.083 146.874-114.475v216.709c0 3.472-2.386 5.011-3.412 5.512z"/></g></g></svg>