<svg id="Capa_1" enable-background="new 0 0 512 512" height="512" viewBox="0 0 512 512" width="512" xmlns="http://www.w3.org/2000/svg"><g><g><g><g><g><path d="m217.891 379.483v65.212c0 17.714 20.23 27.69 34.138 16.836l241.775-188.694c10.928-8.529 10.928-25.142 0-33.671l-46.664-36.419" fill="#ccf5fc"/></g></g></g><g><g><g><path d="m447.14 202.746-195.111-152.276c-13.908-10.855-34.138-.878-34.138 16.836v312.177" fill="#66e0f7"/></g></g></g><g><g><g><path d="m217.891 186.077-173.753-135.607c-13.908-10.855-34.138-.878-34.138 16.836v377.389c0 17.714 20.23 27.69 34.138 16.836l173.753-135.606z" fill="#ccf5fc"/></g></g></g></g><g><path d="m499.956 231.282-241.774-188.696c-9.442-7.369-21.989-8.688-32.743-3.438-10.824 5.282-17.547 16.072-17.547 28.157v98.282l-157.601-123.001c-9.443-7.369-21.989-8.688-32.743-3.438-10.824 5.283-17.548 16.073-17.548 28.158v377.389c0 12.085 6.724 22.875 17.547 28.157 4.369 2.132 9.031 3.181 13.662 3.181 6.771 0 13.474-2.243 19.081-6.619l157.601-123v98.281c0 12.085 6.724 22.875 17.547 28.157 4.369 2.132 9.031 3.181 13.662 3.181 6.771-.001 13.474-2.243 19.081-6.619l241.775-188.694c7.654-5.975 12.044-14.984 12.044-24.72 0-9.735-4.39-18.745-12.044-24.718zm-461.97 222.365c-3.418 2.67-7.78 3.13-11.666 1.231-3.957-1.932-6.32-5.738-6.32-10.184v-377.388c0-4.445 2.362-8.252 6.32-10.184 1.585-.774 3.247-1.155 4.894-1.155 2.392 0 4.747.807 6.772 2.386l169.905 132.605v130.086zm449.665-188.695-241.774 188.695c-3.419 2.669-7.78 3.129-11.666 1.231-3.958-1.932-6.32-5.738-6.32-10.184v-58.901l78.64-61.293c4.356-3.396 5.135-9.679 1.74-14.035-3.395-4.355-9.679-5.134-14.035-1.74l-66.345 51.71v-293.129c0-4.445 2.362-8.252 6.32-10.184 3.887-1.899 8.248-1.438 11.666 1.231l184.672 144.128-65.003 50.664c-4.356 3.395-5.135 9.679-1.74 14.035 1.972 2.529 4.917 3.853 7.894 3.853 2.149 0 4.314-.689 6.141-2.112l68.965-53.752 40.845 31.878c2.764 2.157 4.349 5.421 4.349 8.953s-1.585 6.796-4.349 8.952z"/><g><g><g><g><path d="m336.18 298.71c-4.169 0-8.008-2.702-9.405-6.631-1.377-3.873-.211-8.327 2.937-10.991 3.289-2.783 8.086-3.127 11.745-.864 3.503 2.166 5.34 6.406 4.533 10.446-.921 4.612-5.11 8.04-9.81 8.04z"/></g></g></g></g></g></g></svg>