<svg id="Capa_1" enable-background="new 0 0 512 512" height="512" viewBox="0 0 512 512" width="512" xmlns="http://www.w3.org/2000/svg"><g><g><g><g><g><g><path clip-rule="evenodd" d="m10.907 403.419.397 67.695c.093 15.414 12.683 27.929 28.189 28.02l230.301 1.296c15.65.092 28.315-12.5 28.221-28.057l-.395-67.327z" fill="#ff7d97" fill-rule="evenodd"/></g></g></g><g><g><g><path d="m10.907 403.419 96.118.561-1.072-189.779-67.821-.179c-15.613-.041-28.221 12.533-28.13 28.054z" fill="#ff9eb1"/></g></g></g></g><g><g><g><g><path clip-rule="evenodd" d="m501.094 108.58-.397-67.695c-.093-15.414-12.683-27.929-28.189-28.02l-230.301-1.295c-15.65-.092-28.315 12.5-28.221 28.057l.395 67.327z" fill="#ff7d97" fill-rule="evenodd"/></g></g></g><g><g><g><g><path d="m501.094 165.447v-56.867l-96.118-.561 1.072 189.779 67.821.179c15.106.04 27.4-11.731 28.099-26.552.023-.497.034-14.559.031-15.063" fill="#ff9eb1"/></g></g></g></g></g><g><g><g><g><path d="m405.412 185.188-.436-77.153-77.54-.44-110.328 109.513 77.784 77.784z" fill="#ffbecb"/></g></g></g><g><g><g><g><path d="m107.024 403.965 77.541.439 110.327-109.512-77.784-77.784-110.52 109.704z" fill="#ffdfe5"/></g></g></g></g></g></g><g><g><g><g><path d="m501.09 221.149c-4.294 0-8.2-2.86-9.51-6.941-1.255-3.911.064-8.338 3.299-10.887 3.379-2.662 8.186-2.862 11.771-.481 3.425 2.274 5.122 6.588 4.18 10.585-1.053 4.467-5.146 7.724-9.74 7.724z"/></g></g></g><path d="m512 256.302c-.032-5.52-4.554-9.948-10.049-9.936-5.52.027-9.973 4.526-9.951 10.046.003.744-.008 13.112-.026 14.662-.513 9.496-8.403 16.901-18.028 16.901h-.05l-57.904-.152-.958-169.732 76.061.431v46.924c0 5.522 4.477 10 10 10s10-4.478 10-10l-.397-124.622c-.125-20.808-17.23-37.836-38.133-37.959l-230.3-1.295c-10.247-.057-19.955 3.899-27.204 11.148-7.204 7.205-11.137 16.783-11.076 26.968l.395 67.326c.032 5.477 4.465 9.91 9.943 9.941l88.981.505-186.85 185.47-.501-88.783c-.031-5.49-4.483-9.929-9.974-9.943l-67.821-.179h-.104c-10.23 0-19.823 3.973-27.018 11.191-7.175 7.198-11.094 16.759-11.034 26.918l1.303 229.042c.125 20.808 17.23 37.836 38.133 37.959l230.299 1.296c.078 0 .154.001.232.001 10.207 0 19.778-3.955 26.972-11.149 7.204-7.205 11.137-16.783 11.076-26.968l-.395-67.326c-.032-5.478-4.465-9.91-9.943-9.941l-88.981-.505 186.85-185.471.501 88.784c.031 5.49 4.483 9.929 9.974 9.943l67.821.179h.104c20.368 0 37.055-15.829 38.011-36.082.043-.932.041-15.46.041-15.592zm-288.014-216.735c-.029-4.799 1.824-9.312 5.219-12.707 3.414-3.414 7.966-5.29 12.835-5.29h.111l230.299 1.296c10.002.059 18.188 8.169 18.248 18.078l.338 57.577-266.713-1.51zm-198.786 189.767c3.415-3.426 7.978-5.311 12.855-5.311h.05l57.904.152.958 169.732-76.116-.432-.85-151.458c-.029-4.787 1.818-9.292 5.199-12.683zm262.815 243.098c.029 4.799-1.824 9.313-5.219 12.707-3.414 3.414-7.966 5.29-12.835 5.29h-.111l-230.299-1.296c-10.002-.059-18.188-8.169-18.248-18.078l-.338-57.577 266.713 1.51zm-171.047-78.411-.356-63.069 100.47-99.728 63.642 63.641-100.256 99.516zm177.95-113.246-63.642-63.641 100.256-99.516 63.5.36.356 63.068z"/></g></g></svg>