<svg id="Capa_1" enable-background="new 0 0 512 512" height="512" viewBox="0 0 512 512" width="512" xmlns="http://www.w3.org/2000/svg"><g><g><g><g><g><g><g><g><g><g><path clip-rule="evenodd" d="m330.313 440.316-52.668 52.688c-11.994 11.995-31.357 11.994-43.35-.002l-178.092-178.221c-12.105-12.108-12.104-31.823.002-43.93l52.382-52.402z" fill="#ff7d97" fill-rule="evenodd"/></g></g></g><g><g><g><path d="m330.313 440.316-74.344-74.366 147.621-147.741 52.29 52.643c12.037 12.119 12.006 31.776-.069 43.856" fill="#ff9eb1"/></g></g></g></g></g></g></g></g><g><g><g><path d="m255.982 365.938-59.965-60.003v-124.572c0-32.898 13.069-64.449 36.331-87.712l83.648-83.651v295.874z" fill="#ffbecb"/></g></g></g><g><g><g><g><g><path d="m315.996 10h139.815v119.982h-139.815z" fill="#ff9eb1"/></g></g></g></g></g></g><g><g><g><g><path d="m392.976 368.301c-4.181 0-7.997 2.709-9.405 6.636-1.387 3.866-.204 8.329 2.936 10.986 3.283 2.778 8.093 3.124 11.746.864 3.498-2.164 5.345-6.401 4.533-10.436-.929-4.615-5.095-8.05-9.81-8.05z"/></g></g></g><path d="m465.811 129.983v-119.983c0-5.523-4.477-10-10-10 0 0-140.694 0-140.761 0-3.576 0-6.07 2.874-6.131 2.934l-83.643 83.646c-25.317 25.317-39.259 58.978-39.259 94.783v100.419l-70.357-70.402c-1.875-1.876-4.42-2.931-7.073-2.931s-5.197 1.054-7.073 2.93l-52.382 52.402c-16.007 16.009-16.008 42.059-.001 58.07l178.09 178.22c7.691 7.693 17.9 11.929 28.748 11.929s21.057-4.234 28.747-11.925l83.066-83.428c3.883-3.928 3.847-10.259-.081-14.142-1.949-1.927-4.49-2.889-7.03-2.889-2.579 0-5.156.991-7.112 2.97l-23.28 23.549-60.16-60.199 133.45-133.56 45.216 45.521c8.157 8.212 8.136 21.553-.047 29.739-.024.025-.048.049-.072.074l-31.042 31.396c-3.883 3.927-3.847 10.259.08 14.142 3.927 3.884 10.258 3.848 14.142-.08l31.076-31.43c.014-.014.027-.028.041-.042 15.872-15.964 15.887-41.91.012-57.892l-52.289-52.643c-1.874-1.886-4.421-2.949-7.08-2.953h-.015c-2.653 0-5.198 1.055-7.074 2.932l-70.521 70.578v-141.735h129.816c5.522 0 9.999-4.477 9.999-10zm-149.638 310.334-45.6 45.618c-3.911 3.911-9.097 6.066-14.603 6.065-5.505 0-10.691-2.155-14.603-6.068l-178.09-178.22c-8.213-8.215-8.212-21.578 0-29.791l45.31-45.327zm-76.754-339.595 66.577-66.579v267.592l-50.014 50.055-49.964-49.996v-120.431c-.001-30.462 11.861-59.101 33.401-80.641zm206.392 19.261h-119.815v-99.983h119.816v99.983z"/></g></g></svg>