<svg id="Capa_1" enable-background="new 0 0 512 512" height="512" viewBox="0 0 512 512" width="512" xmlns="http://www.w3.org/2000/svg"><g><g><g><g><g><g><g><g><g><g><path clip-rule="evenodd" d="m330.313 71.684-52.668-52.688c-11.994-11.995-31.357-11.994-43.35.002l-178.092 178.221c-12.105 12.108-12.104 31.823.002 43.93l52.382 52.402z" fill="#ff7d97" fill-rule="evenodd"/></g></g></g><g><g><g><path d="m330.313 71.684-74.344 74.366 147.621 147.741 52.29-52.643c12.037-12.119 12.006-31.776-.069-43.856" fill="#ff9eb1"/></g></g></g></g></g></g></g></g><g><g><g><path d="m255.982 146.063-59.965 60.003v124.571c0 32.898 13.068 64.449 36.331 87.712l83.648 83.651v-295.874z" fill="#ffbecb"/></g></g></g><g><g><g><g><g><path d="m315.996 382.018h139.815v119.982h-139.815z" fill="#ff9eb1"/></g></g></g></g></g></g><g><g><g><g><path d="m392.976 143.7c-4.181 0-7.997-2.709-9.405-6.636-1.387-3.866-.204-8.329 2.936-10.986 3.283-2.778 8.093-3.124 11.746-.864 3.498 2.164 5.345 6.401 4.533 10.436-.929 4.614-5.094 8.05-9.81 8.05z"/></g></g></g><path d="m455.811 372.018h-129.815v-141.737l70.521 70.578c1.875 1.877 4.42 2.932 7.074 2.932h.015c2.659-.004 5.207-1.066 7.08-2.953l52.29-52.643c15.875-15.982 15.86-41.928-.012-57.892-.014-.014-.027-.028-.041-.042l-31.076-31.43c-3.883-3.928-10.215-3.964-14.142-.08-3.927 3.883-3.963 10.214-.08 14.142l31.042 31.396c.024.025.048.049.072.074 8.183 8.186 8.204 21.526.047 29.739l-45.216 45.521-133.45-133.56 60.16-60.199 23.28 23.549c1.956 1.979 4.533 2.97 7.112 2.97 2.54 0 5.081-.962 7.03-2.889 3.928-3.882 3.964-10.214.081-14.142l-83.066-83.428c-7.691-7.69-17.9-11.924-28.748-11.924s-21.057 4.236-28.748 11.929l-178.09 178.22c-16.007 16.011-16.006 42.061.001 58.07l52.382 52.402c1.876 1.876 4.42 2.93 7.073 2.93s5.197-1.055 7.073-2.931l70.357-70.402v100.419c0 35.804 13.942 69.465 39.259 94.783l83.643 83.646c.06.06 2.555 2.935 6.131 2.935h140.761c5.523 0 10-4.477 10-10v-119.983c0-5.523-4.477-10-10-10zm-347.225-92.612-45.31-45.327c-8.212-8.212-8.212-21.576 0-29.79l178.09-178.22c3.913-3.914 9.099-6.069 14.604-6.069s10.691 2.154 14.602 6.065l45.6 45.618zm97.431 51.231v-120.431l49.964-49.996 50.014 50.055v267.592l-66.577-66.579c-21.539-21.54-33.401-50.178-33.401-80.641zm239.794 161.363h-119.815v-99.982h119.815z"/></g></g></svg>