<svg id="Capa_1" enable-background="new 0 0 512 512" height="512" viewBox="0 0 512 512" width="512" xmlns="http://www.w3.org/2000/svg"><g><g><g><g><g><g><g><g><g><g><path clip-rule="evenodd" d="m71.684 330.313-52.688-52.668c-11.995-11.994-11.994-31.357.002-43.35l178.221-178.092c12.108-12.105 31.823-12.104 43.93.002l52.402 52.382z" fill="#ff7d97" fill-rule="evenodd"/></g></g></g><g><g><g><path d="m71.684 330.313 74.366-74.344 147.741 147.621-52.643 52.29c-12.119 12.037-31.776 12.006-43.856-.069" fill="#ff9eb1"/></g></g></g></g></g></g></g></g><g><g><g><path d="m146.063 255.982 60.003-59.965h124.571c32.898 0 64.449 13.069 87.712 36.331l83.651 83.648h-295.874z" fill="#ffbecb"/></g></g></g><g><g><g><g><g><path d="m382.018 315.996h119.982v139.815h-119.982z" fill="#ff9eb1"/></g></g></g></g></g></g><g><g><g><g><path d="m143.7 392.976c0-4.181-2.709-7.997-6.636-9.405-3.866-1.387-8.329-.204-10.986 2.936-2.778 3.283-3.124 8.093-.864 11.746 2.164 3.498 6.401 5.345 10.436 4.533 4.614-.929 8.05-5.095 8.05-9.81z"/></g></g></g><path d="m382.017 465.811h119.983c5.523 0 10-4.477 10-10 0 0 0-140.694 0-140.761 0-3.576-2.874-6.07-2.934-6.131l-83.646-83.643c-25.317-25.317-58.979-39.259-94.783-39.259h-100.419l70.402-70.357c1.876-1.875 2.931-4.42 2.931-7.073s-1.054-5.197-2.93-7.073l-52.402-52.382c-16.009-16.007-42.059-16.008-58.07-.001l-178.22 178.09c-7.693 7.692-11.929 17.901-11.929 28.748 0 10.848 4.234 21.057 11.925 28.747l83.428 83.066c3.928 3.883 10.259 3.847 14.142-.081 1.927-1.949 2.889-4.49 2.889-7.03 0-2.579-.991-5.156-2.97-7.112l-23.549-23.28 60.199-60.16 133.56 133.45-45.521 45.216c-8.212 8.157-21.553 8.136-29.739-.047-.025-.024-.049-.048-.074-.072l-31.396-31.043c-3.927-3.883-10.259-3.847-14.142.08-3.884 3.927-3.848 10.258.08 14.142l31.43 31.076c.014.014.028.027.042.041 15.964 15.872 41.91 15.887 57.892.012l52.643-52.29c1.886-1.874 2.949-4.421 2.953-7.08v-.015c0-2.653-1.055-5.198-2.932-7.074l-70.578-70.521h141.736v129.815c-.001 5.525 4.477 10.002 9.999 10.002zm-310.333-149.638-45.618-45.6c-3.912-3.911-6.066-9.097-6.066-14.603 0-5.505 2.155-10.691 6.068-14.603l178.22-178.09c8.215-8.213 21.578-8.212 29.791-.001l45.327 45.31zm339.594-76.754 66.579 66.577h-267.592l-50.055-50.014 49.996-49.964h120.431c30.463-.001 59.101 11.861 80.641 33.401zm-19.261 206.392v-119.815h99.983v119.815z"/></g></g></svg>