<svg id="Capa_1" enable-background="new 0 0 512 512" height="512" viewBox="0 0 512 512" width="512" xmlns="http://www.w3.org/2000/svg"><g><g><g><g><g><g><g><g><g><g><path clip-rule="evenodd" d="m440.316 330.313 52.688-52.668c11.995-11.994 11.994-31.356-.002-43.35l-178.221-178.092c-12.108-12.105-31.823-12.104-43.93.002l-52.402 52.382z" fill="#ff7d97" fill-rule="evenodd"/></g></g></g><g><g><g><path d="m440.316 330.313-74.366-74.344-147.741 147.621 52.643 52.29c12.119 12.037 31.776 12.006 43.856-.069" fill="#ff9eb1"/></g></g></g></g></g></g></g></g><g><g><g><path d="m365.938 255.982-60.003-59.965h-124.572c-32.898 0-64.449 13.069-87.712 36.331l-83.651 83.648h295.875z" fill="#ffbecb"/></g></g></g><g><g><g><g><g><path d="m10 315.996h119.982v139.815h-119.982z" fill="#ff9eb1"/></g></g></g></g></g></g><g><g><g><g><path d="m368.301 392.976c0-4.181 2.709-7.997 6.636-9.405 3.866-1.387 8.329-.204 10.986 2.936 2.778 3.283 3.124 8.093.864 11.746-2.164 3.498-6.401 5.345-10.436 4.533-4.615-.929-8.05-5.095-8.05-9.81z"/></g></g></g><path d="m139.983 455.811v-129.815h141.736l-70.578 70.521c-1.877 1.876-2.932 4.42-2.932 7.074v.015c.004 2.659 1.066 5.206 2.953 7.08l52.643 52.289c15.983 15.875 41.928 15.86 57.892-.012.014-.014.028-.027.042-.041l31.43-31.076c3.928-3.883 3.964-10.215.08-14.142-3.883-3.927-10.214-3.963-14.142-.08l-31.396 31.043c-.025.024-.049.047-.074.072-8.185 8.183-21.526 8.204-29.739.047l-45.522-45.216 133.56-133.45 60.199 60.16-23.549 23.28c-1.979 1.956-2.97 4.533-2.97 7.112 0 2.54.962 5.081 2.889 7.03 3.882 3.928 10.214 3.964 14.142.081l83.428-83.066c7.691-7.69 11.925-17.899 11.925-28.747s-4.236-21.057-11.929-28.748l-178.22-178.09c-16.011-16.007-42.061-16.006-58.07.001l-52.402 52.382c-1.876 1.876-2.93 4.42-2.93 7.073s1.055 5.197 2.931 7.073l70.402 70.357h-100.419c-35.804 0-69.465 13.942-94.783 39.259l-83.646 83.642c-.06.061-2.934 2.556-2.934 6.131v140.761c0 5.523 4.477 10 10 10h119.982c5.524 0 10.001-4.477 10.001-10zm92.612-347.225 45.327-45.31c8.212-8.212 21.576-8.212 29.791 0l178.22 178.09c3.913 3.912 6.068 9.098 6.068 14.603s-2.154 10.691-6.065 14.603l-45.618 45.6zm-51.232 97.431h120.431l49.996 49.964-50.055 50.014h-267.592l66.579-66.577c21.54-21.539 50.179-33.401 80.641-33.401zm-161.363 239.794v-119.815h99.982v119.815z"/></g></g></svg>