<svg id="Capa_1" enable-background="new 0 0 512 512" height="512" viewBox="0 0 512 512" width="512" xmlns="http://www.w3.org/2000/svg"><g><g><g><g><g><g><path clip-rule="evenodd" d="m147.861 429.006.297 50.936c.069 11.598 9.491 21.015 21.094 21.083l172.338.975c11.711.069 21.189-9.405 21.119-21.111l-.295-50.659z" fill="#ffee80" fill-rule="evenodd"/></g></g></g><g><g><g><g><path d="m147.861 429.006 71.926.422-.802-142.796-50.752-.135c-11.683-.031-21.119 9.431-21.05 21.109" fill="#fff2a0"/></g></g></g><g><g><g><path d="m219.787 429.416 58.025.331 93.732-93.691-58.38-58.355-93.703 93.662z" fill="#fff7bf"/></g></g></g></g></g><g><g><g><g><path clip-rule="evenodd" d="m364.14 82.994-.297-50.936c-.069-11.598-9.491-21.015-21.094-21.083l-172.339-.975c-11.711-.069-21.189 9.405-21.119 21.111l.295 50.659z" fill="#ffee80" fill-rule="evenodd"/></g></g></g><g><g><g><path d="m364.14 82.994-71.927-.422.802 142.796 50.752.135c11.683.031 21.119-9.431 21.05-21.109z" fill="#fff2a0"/></g></g></g><g><g><g><g><path d="m292.213 82.584-58.025-.331-93.731 93.691 58.38 58.355 93.702-93.662z" fill="#fff7bf"/></g></g></g></g></g></g><g><path d="m381.543 336.056c0-2.653-1.054-5.197-2.931-7.073l-58.38-58.355c-3.904-3.903-10.234-3.903-14.139 0l-76.767 76.735-.341-60.787c-.031-5.491-4.483-9.929-9.974-9.944l-50.752-.135h-.085c-8.307 0-16.104 3.232-21.959 9.107-5.874 5.892-9.082 13.727-9.033 22.06.032 5.503 4.503 9.941 9.999 9.941h.06c5.522-.033 9.974-4.536 9.941-10.059-.018-2.959 1.118-5.738 3.197-7.824 2.075-2.082 4.843-3.227 7.796-3.227h.03l40.834.108.69 122.753-51.87-.296v-21.825c0-5.523-4.477-10-10-10s-10 4.477-10 10l.297 82.763c.102 17.006 14.024 30.923 31.038 31.024l172.338.978h.188c8.288 0 16.067-3.218 21.922-9.073 5.897-5.897 9.116-13.745 9.067-22.098l-.296-50.659c-.032-5.478-4.465-9.91-9.943-9.941l-60.645-.346 76.788-76.755c1.877-1.875 2.93-4.42 2.93-7.072zm-28.834 144.891c.018 2.967-1.122 5.751-3.21 7.838-2.074 2.074-4.836 3.214-7.785 3.214-.023 0-.045 0-.067 0l-172.336-.975c-6.114-.036-11.117-5.035-11.153-11.142l-.238-40.818 194.552 1.107zm-79.014-61.224-43.963-.251-.247-43.989 83.679-83.643 44.234 44.215z"/><g><g><g><g><path d="m147.86 361.83c-4.192 0-7.983-2.713-9.406-6.636-1.403-3.866-.19-8.328 2.938-10.987 3.271-2.781 8.098-3.142 11.745-.873 3.495 2.174 5.327 6.41 4.533 10.446-.907 4.613-5.116 8.05-9.81 8.05z"/></g></g></g></g><path d="m373.843 31.999c-.102-17.006-14.024-30.923-31.038-31.024l-172.336-.974c-.063 0-.125-.001-.188-.001-8.288 0-16.067 3.218-21.922 9.073-5.896 5.897-9.117 13.745-9.067 22.097l.295 50.659c.032 5.478 4.465 9.911 9.943 9.942l60.646.346-76.788 76.755c-1.876 1.876-2.931 4.42-2.931 7.073s1.054 5.197 2.931 7.073l58.38 58.354c1.952 1.952 4.511 2.927 7.069 2.927 2.559 0 5.117-.976 7.069-2.927l76.768-76.735.342 60.788c.031 5.491 4.483 9.929 9.974 9.944l50.752.135h.084c8.308 0 16.103-3.232 21.96-9.107 5.873-5.893 9.081-13.727 9.032-22.058zm-214.552-.947c-.018-2.966 1.122-5.75 3.209-7.838 2.091-2.09 4.914-3.237 7.853-3.214l172.337.975c6.113.036 11.117 5.035 11.153 11.142l.238 40.818-194.552-1.107zm123.225 105.465-83.679 83.643-44.235-44.215 83.703-83.667 43.964.251zm69.104 75.759c-2.075 2.081-4.843 3.227-7.796 3.227h-.03l-40.834-.108-.69-122.753 51.926.296.622 111.515c.017 2.959-1.119 5.737-3.198 7.823z"/></g></g></svg>