<svg id="Capa_1" enable-background="new 0 0 512.001 512.001" height="512" viewBox="0 0 512.001 512.001" width="512" xmlns="http://www.w3.org/2000/svg"><g><g><g><g><g><g><g><g><g><path clip-rule="evenodd" d="m84.543 63.252-52.018.302c-11.844.071-21.461 9.688-21.531 21.533l-.994 155.941c-.07 11.955 9.606 21.63 21.56 21.559l51.736-.301z" fill="#ff7d97" fill-rule="evenodd"/></g></g></g><g><g><g><path d="m84.543 63.252-.43 73.424 125.847-.817.137-51.808c.031-11.926-9.631-21.558-21.558-21.489" fill="#ff9eb1"/></g></g></g></g></g></g></g><g><g><g><g><g><g><path clip-rule="evenodd" d="m501.31 137.104-.302-52.018c-.071-11.844-9.688-21.461-21.533-21.531l-155.941-.993c-11.955-.07-21.63 9.606-21.559 21.56l.301 51.736z" fill="#ff7d97" fill-rule="evenodd"/></g></g></g><g><g><g><path d="m501.31 137.104-73.424-.43.817 125.847 51.808.137c11.926.031 21.558-9.631 21.489-21.558z" fill="#ff9eb1"/></g></g></g></g></g></g><g><g><g><g><path d="m428.218 195.973-.332-59.287-59.233-.337-112.618 112.619-112.624-112.625-59.286.332-.337 59.233 130.073 130.073v123.458h84.278v-123.388z" fill="#ffbecb"/></g></g></g></g></g><g><g><g><g><path d="m143.38 73.25c-4.172 0-8.016-2.695-9.415-6.631-1.375-3.867-.211-8.338 2.939-10.991 3.295-2.774 8.086-3.121 11.752-.864 3.499 2.155 5.336 6.422 4.524 10.446-.932 4.616-5.087 8.04-9.8 8.04z"/></g></g></g><path d="m511.007 85.026c-.102-17.252-14.222-31.369-31.469-31.471l-155.946-.993h-.19c-8.404 0-16.292 3.263-22.229 9.2-5.983 5.982-9.249 13.944-9.198 22.419l.301 51.735c.032 5.476 4.462 9.907 9.938 9.941l42.523.266-88.701 88.702-88.689-88.69 42.679-.277c5.487-.036 9.92-4.486 9.935-9.974l.136-51.809c.023-8.454-3.257-16.392-9.234-22.351-5.978-5.958-13.909-9.173-22.382-9.164-5.523.032-9.974 4.535-9.942 10.059.032 5.503 4.503 9.941 9.999 9.941h.059c3.088-.055 5.975 1.164 8.145 3.329 2.171 2.164 3.362 5.052 3.354 8.133l-.11 41.899-105.815.689.313-53.358h3.538c5.522 0 10-4.477 10-10 .001-5.522-4.477-10-9.999-10l-65.559.302c-17.251.103-31.369 14.222-31.471 31.47l-.992 155.946c-.05 8.475 3.218 16.437 9.2 22.419 5.937 5.937 13.823 9.198 22.224 9.198h.194l51.736-.301c5.476-.032 9.907-4.462 9.942-9.938l.266-42.524 110.298 110.299v119.315c0 5.522 4.477 10 10 10h84.279c5.522 0 10-4.478 10-10v-119.244l110.286-110.286.277 42.677c.036 5.487 4.486 9.921 9.974 9.935l51.809.137h.085c8.424 0 16.329-3.278 22.268-9.235 5.958-5.977 9.212-13.925 9.163-22.389zm-199.032-.963c-.018-3.089 1.168-5.986 3.341-8.159 2.156-2.157 5.026-3.342 8.084-3.342h.07l155.946.993c6.354.037 11.554 5.236 11.591 11.589l.244 41.896-179.033-1.12zm-280.474 168.524h-.071c-3.061 0-5.932-1.185-8.088-3.341-2.173-2.173-3.36-5.07-3.342-8.154l.993-155.946c.037-6.354 5.237-11.555 11.589-11.592l41.897-.243-1.121 179.033zm259.567 66.393c-1.875 1.876-2.929 4.419-2.929 7.071v113.388h-64.279v-113.458c0-2.652-1.054-5.195-2.929-7.071l-127.119-127.121.257-45.17 45.223-.253 109.672 109.673c1.875 1.875 4.419 2.929 7.071 2.929s5.195-1.054 7.071-2.929l109.665-109.667 45.17.258.253 45.224zm197.604-69.677c-2.157 2.164-5.034 3.354-8.103 3.354h-.031l-41.899-.11-.686-105.815 53.424.314.623 94.113c.019 3.081-1.164 5.973-3.328 8.144z"/></g></g></svg>