<svg id="Capa_1" enable-background="new 0 0 511.928 511.928" height="512" viewBox="0 0 511.928 511.928" width="512" xmlns="http://www.w3.org/2000/svg"><g><g><g><g><g><g><g><g><g><path clip-rule="evenodd" d="m52.777 144.73-36.569 36.996c-8.325 8.425-8.325 22.026.001 30.451l109.565 110.969c8.404 8.503 22.087 8.502 30.49-.001l36.37-36.795z" fill="#ff7d97" fill-rule="evenodd"/></g></g></g><g><g><g><path d="m52.777 144.73 51.614 52.222 88.41-89.565-36.537-36.73c-8.411-8.455-22.054-8.434-30.439.049" fill="#ff9eb1"/></g></g></g></g></g></g></g><g><g><g><g><g><g><g><path clip-rule="evenodd" d="m459.152 249.123 36.569-36.996c8.325-8.425 8.325-22.026-.001-30.451l-109.566-110.969c-8.404-8.503-22.087-8.502-30.49.001l-36.37 36.795z" fill="#ff7d97" fill-rule="evenodd"/></g></g></g><g><g><g><path d="m459.152 249.123-51.614-52.222-88.41 89.565 36.537 36.73c8.411 8.455 22.054 8.434 30.439-.049z" fill="#ff9eb1"/></g></g></g></g></g></g></g><g><g><g><g><path d="m407.529 196.909-41.646-42.122h-219.796l-41.687 42.157 41.645 42.122h75.862v208.498l68.114.034v-208.532h75.821z" fill="#ffbecb"/></g></g></g></g></g><g><g><g><g><path d="m94.375 113.124c-4.241 0-8.096-2.768-9.46-6.78-1.321-3.883-.066-8.347 3.116-10.948 3.286-2.686 8.02-2.983 11.627-.758 3.495 2.157 5.343 6.423 4.527 10.446-.938 4.622-5.089 8.04-9.81 8.04z"/></g></g></g><path d="m502.835 174.649-109.569-110.971c-5.958-6.028-13.898-9.349-22.358-9.348-8.46 0-16.4 3.32-22.355 9.348l-36.37 36.795c-3.849 3.894-3.851 10.161-.003 14.057l29.881 30.258h-172.125l29.983-30.374c3.854-3.905 3.843-10.188-.027-14.078l-36.538-36.729c-5.95-5.983-13.862-9.275-22.283-9.275h-.051c-8.439.014-16.361 3.332-22.307 9.346-3.882 3.928-3.846 10.26.082 14.143 3.927 3.88 10.259 3.845 14.143-.082 2.166-2.191 5.048-3.401 8.113-3.406h.019c3.059 0 5.937 1.2 8.105 3.38l29.55 29.705-74.337 75.307-37.509-37.95 2.503-2.502c3.905-3.905 3.905-10.236 0-14.143-3.904-3.903-10.234-3.905-14.143 0l-46.144 46.57c-12.126 12.273-12.125 32.238-.001 44.506l109.569 110.973c5.957 6.028 13.897 9.348 22.357 9.348 8.461-.001 16.4-3.321 22.356-9.349l36.37-36.795c3.849-3.895 3.851-10.161.003-14.057l-29.881-30.258h42.04v198.499c0 5.521 4.475 9.997 9.995 10l68.113.033h.005c2.651 0 5.194-1.053 7.069-2.927 1.876-1.876 2.931-4.42 2.931-7.073v-198.534h41.973l-29.983 30.375c-3.854 3.905-3.843 10.188.027 14.078l36.538 36.729c5.95 5.983 13.862 9.275 22.283 9.275h.051c8.44-.014 16.361-3.332 22.313-9.352l109.612-111.017c12.124-12.27 12.123-32.237 0-44.505zm-353.684 141.467c-2.171 2.196-5.059 3.406-8.132 3.407-3.073 0-5.961-1.21-8.128-3.403l-109.569-110.972c-4.467-4.519-4.467-11.873-.002-16.391l29.454-29.798 125.803 127.388zm140.87-87.05c-5.522 0-10 4.477-10 10v198.527l-48.113-.023v-198.504c0-5.523-4.478-10-10-10h-71.687l-31.758-32.121 31.799-32.157h211.445l31.758 32.121-31.799 32.157zm88.971 87.051c-2.166 2.191-5.048 3.401-8.113 3.406h-.019c-3.059 0-5.937-1.2-8.105-3.38l-29.55-29.705 74.337-75.308 37.555 37.998zm109.617-111.02-29.454 29.798-125.803-127.389 29.426-29.77c2.171-2.196 5.058-3.406 8.131-3.406s5.962 1.209 8.129 3.403l109.569 110.972c4.466 4.52 4.467 11.873.002 16.392z"/></g></g></svg>