<svg id="Capa_1" enable-background="new 0 0 512 512" height="512" viewBox="0 0 512 512" width="512" xmlns="http://www.w3.org/2000/svg"><g><g><g><g><path clip-rule="evenodd" d="m349.861 343.511 61.639-62.027c14.033-14.126 14.032-36.929-.002-51.053l-208.497-209.74c-14.165-14.256-37.229-14.255-51.392.002l-61.304 61.69z" fill="#66e0f7" fill-rule="evenodd"/></g></g><g><g><g><g><g><path d="m132.392 387.519-42.368 42.291 61.586 61.582c14.177 14.176 37.174 14.139 51.306-.082l146.946-147.799-86.999-87.555-63.378 63.374" fill="#ccf5fc"/></g></g></g></g></g></g><g><g><g><g><path d="m167.613 361.2c-4.182 0-8.004-2.701-9.415-6.636-1.389-3.873-.195-8.327 2.947-10.986 3.283-2.779 8.09-3.123 11.745-.864 3.505 2.166 5.322 6.403 4.523 10.436-.915 4.622-5.089 8.05-9.8 8.05z"/></g></g></g><path d="m418.589 223.381-208.495-209.738c-8.741-8.798-20.386-13.643-32.79-13.643-12.403 0-24.048 4.846-32.79 13.644l-61.304 61.69c-3.876 3.9-3.876 10.199.001 14.099l165.515 166.517-56.313 56.309c-3.905 3.905-3.906 10.237-.001 14.142 3.905 3.906 10.238 3.905 14.142 0l56.271-56.267 72.935 73.376-139.938 140.751c-4.948 4.979-11.539 7.728-18.559 7.739h-.043c-7.003 0-13.587-2.727-18.54-7.68l-54.508-54.504 35.284-35.219c3.909-3.902 3.915-10.233.013-14.142-3.901-3.909-10.233-3.915-14.142-.013l-42.369 42.29c-1.878 1.875-2.935 4.419-2.936 7.073s1.053 5.199 2.929 7.076l61.586 61.582c8.733 8.731 20.337 13.537 32.682 13.537h.075c12.374-.02 23.992-4.864 32.712-13.639l208.587-209.829c17.846-17.963 17.844-47.189-.004-65.151zm-14.183 51.054-54.545 54.889-245.458-246.941 54.299-54.642c4.96-4.991 11.566-7.741 18.603-7.741s13.643 2.749 18.604 7.741l208.495 209.739c10.123 10.188 10.124 26.767.002 36.955z"/></g></g></svg>