<svg id="Capa_1" enable-background="new 0 0 511.932 511.932" height="512" viewBox="0 0 511.932 511.932" width="512" xmlns="http://www.w3.org/2000/svg"><g><g><g><g><g><g><g><path clip-rule="evenodd" d="m308.162 57.76-36.996-36.569c-8.425-8.325-22.026-8.325-30.451.001l-110.969 109.566c-8.503 8.404-8.502 22.087.001 30.49l36.795 36.37z" fill="#ff7d97" fill-rule="evenodd"/></g></g></g><g><g><g><g><path d="m308.162 57.76-52.222 51.614 89.565 88.41 36.73-36.537c8.455-8.411 8.434-22.054-.049-30.438" fill="#ff9eb1"/></g></g></g><g><g><g><path d="m298.105 151.07-42.156-41.687-42.122 41.646v345.919h84.278z" fill="#ffdfe5"/></g></g></g></g></g></g><g><g><g><g><g><g><path clip-rule="evenodd" d="m49.346 314.158-33.637 34.032c-7.658 7.75-7.657 20.262.001 28.011l100.781 102.079c7.73 7.822 20.316 7.821 28.045-.001l33.454-33.847z" fill="#ff7d97" fill-rule="evenodd"/></g></g></g><g><g><g><path d="m135.175 323.409-38.345 38.78 38.306 38.747h78.691v-77.527z" fill="#ffdfe5"/></g></g></g></g><g><g><g><path d="m49.346 314.158 47.476 48.039 81.321-82.39-33.608-33.788c-7.736-7.778-20.286-7.758-27.998.045l-58.423 59.326-13.514 13.514" fill="#ff9eb1"/></g></g></g></g></g><g><g><g><g><g><g><path clip-rule="evenodd" d="m462.586 410.187 33.637-34.032c7.658-7.75 7.657-20.262-.001-28.011l-100.781-102.079c-7.73-7.822-20.316-7.821-28.045.001l-33.454 33.847z" fill="#ff7d97" fill-rule="evenodd"/></g></g></g><g><g><g><path d="m376.758 400.936 38.344-38.779-38.306-38.748h-78.691v77.527z" fill="#ffdfe5"/></g></g></g></g><g><g><g><g><g><path d="m462.586 410.187-47.476-48.039-81.321 82.389 33.608 33.788c7.736 7.778 20.286 7.758 27.998-.045l58.423-59.326 13.514-13.514" fill="#ff9eb1"/></g></g></g></g></g></g></g></g><g><g><g><g><path d="m349.766 109.368c-4.112 0-7.91-2.639-9.36-6.483-1.493-3.956-.26-8.579 3.017-11.255 3.241-2.648 7.886-2.98 11.479-.842 3.581 2.131 5.49 6.442 4.665 10.529-.932 4.608-5.088 8.051-9.801 8.051z"/></g></g></g><path d="m503.338 341.119-100.784-102.084c-5.632-5.699-13.138-8.837-21.136-8.836s-15.504 3.139-21.135 8.838l-33.453 33.848c-3.849 3.894-3.851 10.16-.003 14.056l26.138 26.47h-44.86v-138.492l30.374 29.982c1.948 1.923 4.486 2.883 7.025 2.883 2.551 0 5.102-.971 7.053-2.91l36.73-36.538c5.994-5.963 9.288-13.895 9.274-22.335s-3.333-16.361-9.346-22.305c-3.929-3.882-10.261-3.847-14.143.083-3.882 3.928-3.846 10.259.082 14.142 2.191 2.166 3.401 5.047 3.406 8.113s-1.195 5.951-3.38 8.124l-29.705 29.549-75.305-74.337 37.951-37.509 2.502 2.502c1.953 1.953 4.512 2.929 7.071 2.929s5.118-.977 7.071-2.929c3.905-3.905 3.905-10.237 0-14.142l-46.571-46.144c-12.271-12.126-32.238-12.125-44.505-.002l-110.972 109.571c-6.028 5.957-9.348 13.898-9.348 22.358s3.321 16.399 9.348 22.355l36.795 36.371c1.948 1.925 4.489 2.888 7.03 2.888 2.54 0 5.079-.962 7.027-2.885l30.257-29.881v138.558h-44.799l26.233-26.578c3.855-3.905 3.842-10.187-.027-14.077l-33.608-33.788c-5.625-5.655-13.104-8.768-21.065-8.768h-.049c-7.979.013-15.468 3.15-21.099 8.849l-100.816 102.114c-11.461 11.599-11.46 30.471-.002 42.066l100.784 102.082c5.631 5.699 13.138 8.837 21.136 8.837s15.504-3.139 21.134-8.837l33.454-33.848c3.849-3.895 3.851-10.16.003-14.056l-26.139-26.47h44.86v86.012c0 5.523 4.477 10 10 10h84.279c5.522 0 10-4.477 10-10v-86.012h44.799l-26.233 26.578c-3.854 3.905-3.842 10.187.027 14.077l33.607 33.787c5.625 5.656 13.104 8.769 21.065 8.769h.048c7.98-.013 15.468-3.15 21.1-8.849l100.816-102.114c11.463-11.599 11.462-30.471.004-42.065zm-336.792-157.559-29.77-29.425c-2.197-2.171-3.407-5.059-3.407-8.132s1.21-5.962 3.403-8.129l110.973-109.569c2.26-2.233 5.229-3.35 8.197-3.35s5.936 1.116 8.194 3.348l29.798 29.454zm-42.896 69.534c1.841-1.863 4.289-2.891 6.893-2.895h.016c2.599 0 5.044 1.02 6.887 2.873l26.62 26.763-67.248 68.131-33.372-33.767zm13.773 218.157c-1.845 1.867-4.299 2.895-6.909 2.896-2.611 0-5.064-1.028-6.906-2.892l-100.785-102.083c-3.802-3.847-3.802-10.106-.001-13.952l26.521-26.833 114.59 116.042zm1.889-80.315-28.42-28.747 28.457-28.779h64.477v57.526zm148.794 96.012h-64.279v-331.744l32.122-31.758 32.157 31.799zm20-153.538h64.515l28.42 28.747-28.458 28.78h-64.477zm80.176 137.842c-1.841 1.863-4.289 2.891-6.893 2.895h-.016c-2.599 0-5.044-1.02-6.887-2.873l-26.62-26.763 67.249-68.131 33.37 33.767zm100.829-102.127-26.521 26.833-114.59-116.042 26.51-26.822c1.845-1.868 4.299-2.896 6.91-2.896 2.61 0 5.064 1.028 6.906 2.892l100.783 102.083c3.801 3.847 3.802 10.107.002 13.952z"/></g></g></svg>