<svg id="Capa_1" enable-background="new 0 0 511.964 511.964" height="512" viewBox="0 0 511.964 511.964" width="512" xmlns="http://www.w3.org/2000/svg"><g><g><g><g><g><g><g><path clip-rule="evenodd" d="m459.188 395.498 36.569-36.996c8.325-8.425 8.325-22.026-.001-30.451l-109.566-110.969c-8.404-8.503-22.087-8.502-30.49.001l-36.37 36.795z" fill="#ffee80" fill-rule="evenodd"/></g></g></g><g><g><g><g><path d="m459.188 395.498-51.614-52.222-88.41 89.565 36.537 36.731c8.411 8.455 22.054 8.434 30.438-.049" fill="#fff2a0"/></g></g></g><g><g><g><path d="m365.878 385.441 41.687-42.156-41.646-42.122h-355.919v84.278z" fill="#fff7bf"/></g></g></g></g></g></g><g><g><g><g><g><g><path clip-rule="evenodd" d="m236.973 78.841-36.998-36.568c-8.426-8.325-22.027-8.324-30.452.001l-110.972 109.562c-8.503 8.403-8.503 22.086.001 30.489l36.797 36.369z" fill="#ffee80" fill-rule="evenodd"/></g></g></g><g><g><g><path d="m226.916 172.148-42.158-41.686-42.124 41.644v129.057h84.282z" fill="#fff7bf"/></g></g></g></g><g><g><g><g><g><path d="m236.973 78.841-52.224 51.612 89.568 88.407 36.732-36.536c8.456-8.411 8.434-22.054-.049-30.438z" fill="#fff2a0"/></g></g></g></g></g></g></g></g><g><g><g><g><path d="m417.59 447.099c-4.121 0-7.911-2.629-9.36-6.482-1.446-3.846-.342-8.324 2.759-11.034 3.198-2.795 7.907-3.26 11.592-1.147 3.568 2.047 5.541 6.236 4.869 10.291-.791 4.761-5.028 8.372-9.86 8.372z"/></g></g></g><path d="m502.871 321.025-109.569-110.972c-5.957-6.028-13.897-9.348-22.357-9.348-8.46.001-16.4 3.32-22.356 9.348l-36.37 36.796c-3.849 3.895-3.851 10.161-.003 14.057l29.881 30.258h-105.18v-95.168l30.377 29.983c1.947 1.923 4.485 2.883 7.024 2.883 2.551 0 5.102-.971 7.052-2.91l36.731-36.536c5.995-5.962 9.289-13.894 9.275-22.333-.013-8.44-3.332-16.362-9.353-22.313l-111.019-109.61c-12.271-12.125-32.24-12.125-44.506-.001l-110.977 109.564c-6.028 5.958-9.349 13.898-9.348 22.358 0 8.46 3.32 16.4 9.349 22.355l36.797 36.369c1.947 1.925 4.488 2.888 7.029 2.888 2.539 0 5.079-.962 7.026-2.885l30.26-29.881v95.235h-122.634c-5.523 0-10 4.478-10 10v84.278c0 5.522 4.477 10 10 10h332.028l-29.982 30.374c-3.854 3.905-3.843 10.188.027 14.078l36.538 36.729c5.95 5.983 13.862 9.275 22.283 9.275h.051c8.439-.014 16.361-3.332 22.307-9.346 3.882-3.928 3.846-10.26-.082-14.143-3.928-3.881-10.26-3.847-14.143.082-2.166 2.191-5.048 3.401-8.113 3.406h-.019c-3.059 0-5.936-1.2-8.105-3.38l-29.55-29.705 74.337-75.307 37.509 37.95-2.503 2.502c-3.905 3.905-3.905 10.236 0 14.143 1.953 1.952 4.512 2.929 7.071 2.929s5.118-.977 7.071-2.929l46.143-46.57c12.128-12.269 12.127-32.235.003-44.503zm-195.495-153.913c.005 3.066-1.195 5.949-3.379 8.122l-29.707 29.549-75.311-74.334 38-37.555 66.991 66.104c2.192 2.167 3.401 5.049 3.406 8.114zm-212.024 37.525-29.772-29.425c-2.196-2.171-3.406-5.058-3.406-8.131s1.209-5.962 3.402-8.129l110.977-109.565c2.261-2.233 5.229-3.351 8.198-3.351 2.968 0 5.936 1.116 8.195 3.349l29.799 29.452zm57.283-28.355 32.122-31.758 32.159 31.799v114.84h-64.281zm-132.635 134.881h341.743l31.759 32.121-31.799 32.157h-341.703zm468.645 40.308-29.454 29.798-125.803-127.387 29.426-29.77c2.171-2.197 5.059-3.407 8.132-3.407s5.961 1.21 8.128 3.403l109.569 110.973c4.466 4.519 4.466 11.873.002 16.39z"/></g></g></svg>