<svg id="Capa_1" enable-background="new 0 0 511.964 511.964" height="512" viewBox="0 0 511.964 511.964" width="512" xmlns="http://www.w3.org/2000/svg"><g><g><g><g><g><g><g><path clip-rule="evenodd" d="m395.498 52.776-36.996-36.569c-8.425-8.325-22.026-8.325-30.451.001l-110.969 109.566c-8.503 8.404-8.502 22.087.001 30.49l36.795 36.37z" fill="#ffee80" fill-rule="evenodd"/></g></g></g><g><g><g><g><path d="m395.498 52.776-52.222 51.614 89.565 88.41 36.731-36.537c8.455-8.411 8.434-22.054-.049-30.438" fill="#fff2a0"/></g></g></g><g><g><g><path d="m385.441 146.086-42.157-41.687-42.122 41.646v355.919h84.279z" fill="#fff7bf"/></g></g></g></g></g></g><g><g><g><g><g><g><path clip-rule="evenodd" d="m78.841 274.99-36.568 36.998c-8.325 8.426-8.324 22.027.001 30.452l109.561 110.973c8.403 8.503 22.086 8.503 30.489-.001l36.369-36.797z" fill="#ffee80" fill-rule="evenodd"/></g></g></g><g><g><g><path d="m172.148 285.048-41.686 42.158 41.644 42.123h129.056v-84.281z" fill="#fff7bf"/></g></g></g></g><g><g><g><g><g><path d="m78.841 274.99 51.612 52.224 88.407-89.568-36.536-36.732c-8.411-8.456-22.054-8.434-30.438.049z" fill="#fff2a0"/></g></g></g></g></g></g></g></g><g><g><g><g><path d="m437.104 104.384c-4.056 0-7.808-2.559-9.301-6.324-1.534-3.868-.446-8.462 2.7-11.202 3.2-2.788 7.912-3.247 11.592-1.137 3.65 2.094 5.613 6.402 4.82 10.534-.892 4.643-5.069 8.129-9.811 8.129z"/></g></g></g><path d="m476.552 118.712c-3.928-3.881-10.26-3.847-14.143.082-3.882 3.928-3.846 10.26.082 14.143 2.192 2.166 3.402 5.048 3.406 8.114.005 3.065-1.195 5.949-3.38 8.122l-29.705 29.55-75.307-74.337 37.95-37.508 2.502 2.502c1.953 1.952 4.512 2.929 7.071 2.929s5.118-.976 7.071-2.929c3.905-3.905 3.905-10.236 0-14.143l-46.569-46.143c-12.272-12.126-32.239-12.124-44.505-.001l-110.973 109.569c-6.028 5.957-9.348 13.898-9.348 22.358s3.321 16.4 9.349 22.355l36.795 36.37c1.948 1.925 4.488 2.888 7.03 2.888 2.54 0 5.079-.962 7.026-2.885l30.258-29.881v105.18h-95.168l29.983-30.377c3.855-3.904 3.842-10.187-.027-14.076l-36.536-36.732c-5.95-5.982-13.862-9.275-22.283-9.275h-.051c-8.44.013-16.362 3.332-22.312 9.353l-109.608 111.02c-12.125 12.271-12.124 32.238-.001 44.506l109.565 110.977c5.958 6.028 13.898 9.349 22.359 9.348 8.459 0 16.399-3.32 22.354-9.349l36.369-36.797c3.849-3.894 3.851-10.159.003-14.056l-29.881-30.26h95.235v122.635c0 5.523 4.478 10 10 10h84.278c5.522 0 10-4.477 10-10v-332.029l30.374 29.982c1.948 1.922 4.486 2.883 7.025 2.883 2.551 0 5.102-.971 7.053-2.91l36.73-36.538c5.994-5.962 9.289-13.893 9.275-22.332-.013-8.44-3.332-16.363-9.346-22.308zm-222.67 59.864-29.77-29.426c-2.197-2.171-3.406-5.059-3.407-8.131 0-3.073 1.209-5.962 3.403-8.129l110.972-109.569c2.261-2.233 5.229-3.351 8.197-3.351s5.935 1.116 8.193 3.349l29.799 29.454zm-94.883 29.417c2.166-2.191 5.047-3.4 8.113-3.405h.019c3.059 0 5.936 1.199 8.104 3.379l29.548 29.707-74.333 75.31-37.554-38zm16.212 238.391c-2.17 2.196-5.058 3.406-8.13 3.406s-5.961-1.209-8.128-3.402l-109.566-110.977c-4.467-4.52-4.467-11.874-.002-16.394l29.452-29.799 125.799 127.393zm1.071-87.055-31.758-32.122 31.799-32.159h114.839v64.281zm199.159 132.635h-64.278v-341.744l32.121-31.759 32.157 31.799z"/></g></g></svg>