<svg id="Capa_1" enable-background="new 0 0 512.001 512.001" height="512" viewBox="0 0 512.001 512.001" width="512" xmlns="http://www.w3.org/2000/svg"><g><g><g><g><g><g><g><path clip-rule="evenodd" d="m501.308 84.606-.303-52.06c-.071-11.854-9.697-21.479-21.551-21.549l-156.066-.996c-11.964-.07-21.647 9.613-21.575 21.577l.302 51.777z" fill="#ffee80" fill-rule="evenodd"/></g></g></g><g><g><g><g><path d="m501.308 84.606-73.482-.432.82 125.948 51.85.138c11.936.032 21.575-9.639 21.506-21.575" fill="#fff2a0"/></g></g></g><g><g><g><path d="m428.158 143.521-.333-59.334-59.28-.338-76.973 76.973 59.642 59.643z" fill="#fff7bf"/></g></g></g></g></g></g><g><g><g><g><g><path clip-rule="evenodd" d="m10.693 427.395.303 52.06c.071 11.854 9.697 21.479 21.55 21.549l156.068.996c11.964.07 21.647-9.613 21.575-21.577l-.302-51.777z" fill="#ffee80" fill-rule="evenodd"/></g></g></g><g><g><g><path d="m83.843 368.481.333 59.334 59.28.338 76.973-76.974-59.642-59.642z" fill="#fff7bf"/></g></g></g></g><g><g><g><path d="m10.693 427.395 73.482.432-.819-125.948-51.85-.138c-11.936-.032-21.575 9.639-21.506 21.575z" fill="#fff2a0"/></g></g></g></g><g><g><g><g><g><g><path clip-rule="evenodd" d="m427.395 501.308 52.06-.303c11.854-.071 21.479-9.697 21.548-21.551l.997-156.067c.07-11.964-9.613-21.647-21.577-21.575l-51.777.302z" fill="#ffee80" fill-rule="evenodd"/></g></g></g><g><g><g><path d="m368.481 428.159 59.333-.333.339-59.281-76.974-76.973-59.643 59.643z" fill="#fff7bf"/></g></g></g></g><g><g><g><path d="m427.395 501.308.432-73.482-125.948.819-.138 51.85c-.032 11.936 9.639 21.575 21.575 21.506z" fill="#fff2a0"/></g></g></g></g><g><g><g><g><g><path clip-rule="evenodd" d="m84.606 10.694-52.06.303c-11.854.071-21.479 9.697-21.549 21.551l-.996 156.066c-.07 11.964 9.613 21.647 21.577 21.575l51.777-.302z" fill="#ffee80" fill-rule="evenodd"/></g></g></g><g><g><g><path d="m143.521 83.843-59.334.333-.338 59.28 76.973 76.974 59.643-59.643z" fill="#fff7bf"/></g></g></g></g><g><g><g><g><g><path d="m84.606 10.694-.432 73.482 125.948-.819.138-51.85c.032-11.936-9.639-21.575-21.575-21.506z" fill="#fff2a0"/></g></g></g></g></g></g></g></g><g><g><g><g><path d="m501.31 153.491c-4.176 0-8.008-2.711-9.415-6.636-1.391-3.879-.194-8.326 2.947-10.991 3.282-2.785 8.082-3.126 11.741-.869 3.469 2.14 5.322 6.369 4.547 10.37-.901 4.644-5.075 8.126-9.82 8.126z"/></g></g></g><path d="m344.143 227.536c1.953 1.952 4.512 2.929 7.071 2.929 2.56 0 5.118-.977 7.071-2.929l60.081-60.081.278 42.733c.036 5.486 4.486 9.92 9.974 9.935l51.85.138h.085c8.428 0 16.337-3.279 22.278-9.24 5.962-5.98 9.218-13.934 9.169-22.394-.032-5.522-4.545-10.013-10.058-9.941-5.523.032-9.975 4.535-9.942 10.058.019 3.087-1.166 5.983-3.333 8.158-2.161 2.167-5.042 3.359-8.115 3.359h-.031l-41.94-.111-.69-105.915 53.417.314v3.55c0 5.522 4.478 10 10 10s10-4.478 10-10l-.303-65.612c-.103-17.261-14.231-31.386-31.487-31.487l-156.072-.999h-.19c-8.409 0-16.302 3.265-22.241 9.206-5.985 5.986-9.253 13.952-9.202 22.431l.302 51.777c.032 5.476 4.462 9.907 9.938 9.941l42.577.267-60.127 60.127c-3.905 3.905-3.905 10.237 0 14.143zm-32.331-196.018c-.019-3.093 1.169-5.994 3.345-8.171 2.177-2.177 5.125-3.375 8.167-3.347l156.071.997c6.363.037 11.571 5.244 11.609 11.606l.244 41.938-179.192-1.124zm60.852 62.354 45.218.259.254 45.271-66.921 66.921-45.5-45.5z"/><path d="m167.858 284.466c-3.906-3.904-10.236-3.904-14.143 0l-60.081 60.081-.278-42.733c-.036-5.486-4.486-9.92-9.974-9.935l-51.85-.138h-.085c-8.428 0-16.337 3.279-22.278 9.24-5.962 5.98-9.218 13.934-9.169 22.401l.996 156.134c.103 17.261 14.231 31.386 31.487 31.487l156.071.997h.19c8.409 0 16.302-3.265 22.241-9.206 5.985-5.986 9.253-13.952 9.202-22.431l-.302-51.777c-.032-5.476-4.462-9.907-9.938-9.941l-42.577-.267 60.127-60.127c3.905-3.905 3.905-10.237 0-14.143zm-144.524 30.634c2.161-2.167 5.042-3.359 8.115-3.359h.031l41.94.111.69 105.915-53.483-.314-.627-94.195c-.018-3.086 1.167-5.983 3.334-8.158zm176.855 165.383c.019 3.093-1.169 5.994-3.345 8.171-2.177 2.177-5.103 3.381-8.167 3.347l-156.071-.997c-6.363-.037-11.571-5.244-11.609-11.606l-.244-41.938 179.192 1.124zm-60.852-62.353-45.218-.259-.253-45.271 66.921-66.921 45.5 45.5z"/><path d="m480.56 291.812h-.196l-51.777.302c-5.475.032-9.907 4.462-9.941 9.938l-.267 42.577-60.127-60.127c-3.906-3.904-10.236-3.904-14.143 0l-59.643 59.643c-3.905 3.905-3.905 10.237 0 14.143l60.081 60.081-42.733.278c-5.486.036-9.92 4.486-9.935 9.974l-.138 51.85c-.022 8.46 3.26 16.402 9.24 22.363 5.936 5.917 13.814 9.169 22.213 9.169h.188l156.134-.996c17.261-.104 31.386-14.231 31.487-31.487l.997-156.071c.05-8.48-3.22-16.446-9.206-22.432-5.939-5.942-13.829-9.205-22.234-9.205zm-129.381 13.903 66.95 66.949-.259 45.218-45.271.254-66.921-66.921zm-27.921 186.286c-3.092-.013-5.984-1.165-8.158-3.333-2.175-2.168-3.367-5.061-3.359-8.146l.111-41.94 105.915-.691-.313 53.483zm167.745-12.606c-.037 6.363-5.244 11.571-11.606 11.609l-41.939.244 1.124-179.192 41.9-.244h.071c3.066 0 5.94 1.186 8.1 3.345 2.177 2.177 3.365 5.078 3.347 8.167z"/><path d="m167.455 93.635 42.733-.278c5.486-.036 9.92-4.486 9.935-9.974l.138-51.85c.022-8.46-3.26-16.402-9.24-22.363s-13.906-9.207-22.401-9.169l-156.135.996c-17.261.103-31.386 14.231-31.487 31.487l-.997 156.071c-.05 8.48 3.22 16.446 9.206 22.432 5.939 5.939 13.829 9.202 22.234 9.202h.196l51.777-.302c5.476-.032 9.907-4.462 9.941-9.938l.267-42.577 60.127 60.127c1.953 1.952 4.512 2.929 7.071 2.929 2.56 0 5.118-.977 7.071-2.929l59.643-59.643c3.905-3.905 3.905-10.237 0-14.143zm21.288-73.634c3.053-.055 5.983 1.165 8.158 3.333s3.367 5.061 3.359 8.146l-.111 41.94-105.915.691.313-53.483zm-157.225 180.188h-.071c-3.066 0-5.94-1.186-8.1-3.345-2.177-2.177-3.365-5.078-3.347-8.167l.997-156.071c.037-6.363 5.244-11.571 11.606-11.609l41.939-.244-1.124 179.192zm129.304 6.098-66.95-66.949.258-45.218 45.27-.254 66.921 66.921z"/></g></g></svg>