<svg id="Capa_1" enable-background="new 0 0 512.001 512.001" height="512" viewBox="0 0 512.001 512.001" width="512" xmlns="http://www.w3.org/2000/svg"><g><g><g><g><g><g><g><path clip-rule="evenodd" d="m292.264 145.859.303 52.06c.071 11.854 9.697 21.479 21.55 21.548l156.066.996c11.964.07 21.647-9.613 21.575-21.577l-.302-51.777z" fill="#ffee80" fill-rule="evenodd"/></g></g></g><g><g><g><g><path d="m292.264 145.859 73.482.432-.819-125.948-51.85-.138c-11.936-.032-21.575 9.639-21.506 21.575" fill="#fff2a0"/></g></g></g><g><g><g><path d="m365.413 86.945.334 59.333 59.28.339 76.973-76.974-59.642-59.643z" fill="#fff7bf"/></g></g></g></g></g></g><g><g><g><g><g><path clip-rule="evenodd" d="m219.736 366.142-.303-52.06c-.071-11.854-9.696-21.479-21.55-21.548l-156.066-.996c-11.964-.07-21.647 9.613-21.575 21.577l.302 51.777z" fill="#ffee80" fill-rule="evenodd"/></g></g></g><g><g><g><path d="m146.587 425.056-.333-59.333-59.28-.339-76.974 76.974 59.643 59.642z" fill="#fff7bf"/></g></g></g></g><g><g><g><path d="m219.736 366.142-73.482-.432.82 125.948 51.85.138c11.936.032 21.575-9.639 21.506-21.575z" fill="#fff2a0"/></g></g></g></g><g><g><g><g><g><g><path clip-rule="evenodd" d="m145.859 219.736 52.06-.303c11.854-.071 21.479-9.696 21.549-21.55l.996-156.066c.07-11.964-9.613-21.647-21.577-21.575l-51.777.302z" fill="#ffee80" fill-rule="evenodd"/></g></g></g><g><g><g><path d="m86.944 146.587 59.334-.333.338-59.28-76.973-76.974-59.643 59.643z" fill="#fff7bf"/></g></g></g></g><g><g><g><path d="m145.859 219.736.432-73.482-125.948.82-.138 51.85c-.032 11.936 9.639 21.575 21.575 21.506z" fill="#fff2a0"/></g></g></g></g><g><g><g><g><g><path clip-rule="evenodd" d="m366.142 292.265-52.06.303c-11.854.071-21.479 9.697-21.548 21.55l-.996 156.066c-.07 11.964 9.613 21.647 21.577 21.575l51.777-.302z" fill="#ffee80" fill-rule="evenodd"/></g></g></g><g><g><g><path d="m425.056 365.414-59.334.333-.338 59.28 76.974 76.973 59.642-59.642z" fill="#fff7bf"/></g></g></g></g><g><g><g><g><g><path d="m366.142 292.265-.432 73.482 125.948-.82.138-51.85c.032-11.936-9.639-21.575-21.575-21.506z" fill="#fff2a0"/></g></g></g></g></g></g></g></g><g><g><g><g><path d="m292.26 96.98c-4.229 0-8.082-2.774-9.453-6.763-1.323-3.846-.115-8.227 2.984-10.86 3.355-2.85 8.356-3.148 12.019-.698 3.394 2.27 5.118 6.515 4.214 10.503-1.021 4.507-5.137 7.818-9.764 7.818z"/></g></g></g><path d="m291.571 51.78h.06c5.522-.032 9.974-4.535 9.941-10.058-.019-3.086 1.166-5.983 3.334-8.158 2.16-2.167 5.04-3.359 8.113-3.359h.032l41.94.111.689 105.915-53.417-.314v-3.55c0-5.523-4.478-10-10-10s-10 4.477-10 10l.304 65.611c.103 17.261 14.231 31.386 31.487 31.488l156.071.997c.064 0 .127.001.191.001 8.407 0 16.3-3.265 22.239-9.205 5.985-5.986 9.254-13.953 9.203-22.431l-.302-51.777c-.032-5.476-4.462-9.907-9.938-9.942l-42.577-.267 60.128-60.128c3.905-3.905 3.905-10.237 0-14.143l-59.64-59.642c-3.906-3.905-10.236-3.905-14.143 0l-60.081 60.081-.278-42.733c-.036-5.487-4.486-9.92-9.974-9.935l-51.85-.138h-.086c-8.428 0-16.336 3.279-22.277 9.239-5.962 5.981-9.218 13.934-9.169 22.394.033 5.504 4.503 9.943 10 9.943zm150.787-27.637 45.5 45.5-66.949 66.95-45.218-.258-.254-45.271zm39.158 132.905.244 41.898c.018 3.093-1.17 5.995-3.346 8.172-2.177 2.176-5.068 3.387-8.166 3.346l-156.071-.997c-6.363-.037-11.571-5.245-11.609-11.607l-.245-41.938z"/><path d="m229.433 314.021c-.104-17.261-14.231-31.386-31.487-31.488l-156.071-.997c-.064 0-.127 0-.191 0-8.407 0-16.3 3.265-22.239 9.205-5.985 5.986-9.254 13.953-9.203 22.431l.302 51.777c.032 5.476 4.462 9.907 9.937 9.942l42.577.267-60.129 60.128c-3.905 3.905-3.905 10.237 0 14.143l59.643 59.643c1.953 1.953 4.512 2.929 7.071 2.929 2.56 0 5.118-.976 7.071-2.929l60.081-60.081.278 42.733c.036 5.487 4.486 9.92 9.974 9.935l51.85.138h.086c8.428 0 16.336-3.279 22.277-9.239 5.962-5.98 9.218-13.934 9.169-22.402zm-159.79 173.837-45.5-45.5 66.949-66.95 45.218.258.254 45.271zm-39.158-132.905-.244-41.898c-.018-3.093 1.17-5.995 3.346-8.172 2.16-2.16 5.034-3.347 8.096-3.347h.07l156.071.997c6.363.037 11.571 5.245 11.609 11.607l.245 41.938zm176.61 123.484c-2.16 2.167-5.04 3.359-8.113 3.359h-.032l-41.94-.111-.689-105.915 53.483.314.626 94.196c.018 3.085-1.167 5.982-3.335 8.157z"/><path d="m199.024 10.24c-.064 0-.13 0-.195 0l-51.777.302c-5.476.032-9.907 4.462-9.941 9.937l-.267 42.578-60.13-60.128c-3.906-3.905-10.236-3.905-14.143 0l-59.642 59.643c-3.905 3.905-3.905 10.237 0 14.143l60.081 60.081-42.734.278c-5.486.036-9.92 4.486-9.935 9.974l-.137 51.849c-.023 8.46 3.258 16.401 9.238 22.363 5.937 5.917 13.815 9.17 22.213 9.17.063 0 .127-.001.189-.001l156.133-.996c17.261-.103 31.387-14.23 31.489-31.486l.996-156.072c.05-8.48-3.22-16.446-9.205-22.432-5.938-5.939-13.828-9.203-22.233-9.203zm-63.107 199.562-94.195.627c-3.086.029-5.984-1.166-8.158-3.333s-3.367-5.06-3.358-8.146l.11-41.941 105.915-.689zm.418-73.492-45.272.254-66.92-66.921 45.5-45.5 66.95 66.95zm73.133 61.514c-.037 6.363-5.245 11.572-11.607 11.609l-41.938.245 1.125-179.193 41.899-.244h.071c3.066 0 5.94 1.187 8.1 3.346 2.177 2.176 3.365 5.078 3.347 8.166z"/><path d="m448.99 375.205 42.734-.278c5.486-.036 9.92-4.486 9.935-9.974l.137-51.849c.023-8.46-3.258-16.401-9.238-22.363-5.937-5.918-13.815-9.17-22.213-9.17-.064 0-.127.001-.19.001l-156.133.996c-17.261.103-31.387 14.23-31.489 31.486l-.996 156.072c-.05 8.48 3.22 16.446 9.205 22.432 5.94 5.939 13.83 9.203 22.235 9.203h.195l51.777-.302c5.476-.032 9.907-4.462 9.941-9.937l.267-42.578 60.128 60.128c1.953 1.953 4.512 2.929 7.071 2.929 2.56 0 5.118-.976 7.071-2.929l59.643-59.643c3.905-3.905 3.905-10.237 0-14.143zm-94.037 106.311-41.899.244c-.024 0-.048 0-.071 0-3.066 0-5.94-1.187-8.1-3.346-2.177-2.176-3.365-5.078-3.347-8.166l.996-156.072c.037-6.363 5.245-11.572 11.607-11.609l41.939-.245zm21.13-179.317 94.195-.627c.023-.001.046-.001.069-.001 3.061 0 5.931 1.183 8.089 3.334 2.174 2.168 3.367 5.06 3.358 8.146l-.11 41.941-105.915.689zm66.275 185.659-66.95-66.95.258-45.217 45.271-.254 66.921 66.921z"/></g></g></svg>