<svg id="Capa_1" enable-background="new 0 0 512 512" height="512" viewBox="0 0 512 512" width="512" xmlns="http://www.w3.org/2000/svg"><g><g><g><g><g><g><path clip-rule="evenodd" d="m52.846 302.913-36.597 37.027c-8.332 8.432-8.331 22.044.001 30.476l123.793 125.202c8.41 8.51 22.104 8.509 30.514-.001l36.399-36.825z" fill="#ffee80" fill-rule="evenodd"/></g></g></g><g><g><g><g><path d="m52.846 302.913 51.655 52.265 102.621-103.78-36.566-36.761c-8.418-8.462-22.072-8.441-30.462.049" fill="#fff2a0"/></g></g></g><g><g><g><path d="m146.229 312.979-41.72 42.191 41.679 42.156h158.857v-84.347z" fill="#fff7bf"/></g></g></g></g></g><g><g><g><g><path clip-rule="evenodd" d="m459.154 209.087 36.598-37.027c8.332-8.432 8.331-22.044-.001-30.476l-123.794-125.202c-8.41-8.51-22.104-8.509-30.514.001l-36.399 36.825z" fill="#ffee80" fill-rule="evenodd"/></g></g></g><g><g><g><path d="m459.154 209.087-51.655-52.265-102.621 103.78 36.566 36.761c8.418 8.462 22.072 8.44 30.462-.049z" fill="#fff2a0"/></g></g></g><g><g><g><g><path d="m407.491 156.83-41.679-42.156h-158.69v84.347h158.649z" fill="#fff7bf"/></g></g></g></g></g></g><g><path d="m305.044 302.979h-134.863l44.052-44.55c3.86-3.904 3.851-10.191-.021-14.084l-36.566-36.76c-5.954-5.986-13.87-9.28-22.295-9.28h-.052c-8.444.014-16.37 3.335-22.317 9.352-3.882 3.928-3.845 10.26.083 14.142 3.928 3.883 10.259 3.846 14.142-.083 2.169-2.194 5.055-3.406 8.124-3.411h.019c3.063 0 5.945 1.202 8.117 3.385l29.572 29.729-88.528 89.528-37.562-37.993 16.651-16.651c3.905-3.905 3.905-10.237 0-14.143-3.905-3.905-10.237-3.905-14.143 0l-60.322 60.751c-12.133 12.278-12.132 32.256.004 44.535l123.791 125.202c5.961 6.031 13.906 9.353 22.371 9.352 8.464 0 16.408-3.323 22.367-9.353l36.399-36.826c3.851-3.896 3.85-10.165-.001-14.06l-43.93-44.434h134.908c5.523 0 10-4.477 10-10v-84.347c0-5.524-4.477-10.001-10-10.001zm-141.601 185.609c-2.174 2.2-5.066 3.412-8.143 3.412-3.078.001-5.97-1.211-8.146-3.413l-123.792-125.201c-4.473-4.526-4.473-11.891-.002-16.417l29.485-29.831 140.048 141.653zm131.601-101.262h-144.68l-31.791-32.156 31.832-32.191h144.64v64.347z"/><path d="m99.39 250.96c1.579 3.791 5.434 6.317 9.556 6.174 4.118-.143 7.817-2.884 9.144-6.783 1.344-3.948.024-8.464-3.255-11.046-3.284-2.586-7.933-2.87-11.492-.661-4.099 2.545-5.811 7.857-3.953 12.316z"/><path d="m502.861 134.554-123.791-125.202c-5.962-6.031-13.906-9.352-22.371-9.352-8.464 0-16.409 3.323-22.368 9.354l-36.399 36.826c-3.851 3.896-3.85 10.165.001 14.06l43.93 44.434h-134.741c-5.523 0-10 4.477-10 10v84.347c0 5.523 4.477 10 10 10h134.697l-44.052 44.55c-3.86 3.904-3.851 10.191.021 14.084l36.566 36.76c5.954 5.986 13.87 9.28 22.295 9.28h.052c8.444-.014 16.37-3.335 22.315-9.35l123.848-125.256c12.134-12.278 12.133-32.256-.003-44.535zm-285.739 54.467v-64.347h144.514l31.791 32.156-31.832 32.191zm147.672 101.263c-2.169 2.194-5.055 3.406-8.125 3.411h-.019c-3.063 0-5.945-1.202-8.117-3.385l-29.572-29.729 88.528-89.527 37.6 38.032zm123.845-125.254-29.485 29.831-140.048-141.653 29.451-29.796c2.174-2.2 5.066-3.412 8.144-3.412s5.97 1.211 8.146 3.413l123.792 125.201c4.472 4.526 4.472 11.891 0 16.416z"/></g></g></svg>