<svg id="Capa_1" enable-background="new 0 0 511.964 511.964" height="512" viewBox="0 0 511.964 511.964" width="512" xmlns="http://www.w3.org/2000/svg"><g><g><g><g><g><path clip-rule="evenodd" d="m203.726 52.813 37.029-36.6c8.433-8.332 22.046-8.332 30.478.001l125.211 123.801c8.51 8.411 8.51 22.105-.001 30.516l-36.828 36.401z" fill="#ffee80" fill-rule="evenodd"/></g></g></g><g><g><g><g><g><path d="m203.726 52.813 52.269 51.658-103.787 102.628-36.763-36.568c-8.463-8.418-8.441-22.073.049-30.464z" fill="#fff2a0"/></g></g></g></g></g><g><g><g><g><g><path clip-rule="evenodd" d="m308.238 223.15-37.029-36.6c-8.433-8.332-22.046-8.332-30.478.001l-125.211 123.801c-8.511 8.411-8.51 22.106.001 30.516l36.828 36.401z" fill="#ffee80" fill-rule="evenodd"/></g></g></g><g><g><g><g><path d="m308.238 223.15-52.269 51.658 103.787 102.628 36.763-36.568c8.463-8.418 8.441-22.073-.049-30.464" fill="#fff2a0"/></g></g></g><g><g><g><path d="m255.978 274.816-42.16 41.681v185.467h84.354v-185.425z" fill="#fff7bf"/></g></g></g></g></g></g></g><g><path d="m403.501 303.291c-3.929-3.882-10.259-3.844-14.142.083-3.882 3.928-3.845 10.26.083 14.142 2.195 2.169 3.407 5.055 3.412 8.125.005 3.071-1.197 5.96-3.385 8.137l-29.732 29.574-89.535-88.534 37.996-37.565 16.653 16.653c1.953 1.953 4.512 2.929 7.071 2.929s5.119-.976 7.071-2.929c3.905-3.905 3.905-10.237 0-14.143l-60.755-60.326c-12.279-12.133-32.257-12.132-44.537.004l-125.21 123.799c-6.032 5.961-9.354 13.906-9.353 22.371 0 8.465 3.322 16.41 9.354 22.37l36.828 36.401c1.948 1.925 4.489 2.888 7.03 2.888s5.083-.963 7.031-2.889l44.438-43.934v161.518c0 5.523 4.477 10 10 10h84.353c5.523 0 10-4.477 10-10v-161.475l44.554 44.056c1.949 1.927 4.49 2.889 7.031 2.889 2.551 0 5.102-.971 7.052-2.91l36.763-36.568c5.999-5.967 9.294-13.903 9.281-22.348-.014-8.445-3.335-16.371-9.352-22.318zm-251.153 59.917-29.798-29.453c-2.201-2.174-3.413-5.067-3.413-8.145-.001-3.078 1.211-5.97 3.413-8.147l125.21-123.8c2.264-2.237 5.237-3.355 8.21-3.355s5.946 1.118 8.208 3.354l29.833 29.488zm135.824 128.756h-64.353v-171.291l32.159-31.794 32.194 31.835z"/><g><g><g><g><path d="m364.022 288.934c-4.178 0-8.007-2.71-9.415-6.635-1.392-3.882-.192-8.319 2.946-10.987 3.277-2.785 8.087-3.137 11.741-.873 3.496 2.165 5.338 6.416 4.527 10.446-.927 4.61-5.084 8.049-9.799 8.049z"/></g></g></g></g><path d="m403.475 132.905-125.213-123.804c-12.278-12.135-32.257-12.135-44.537 0l-125.262 123.853c-6.017 5.947-9.338 13.874-9.352 22.319-.013 8.445 3.283 16.381 9.281 22.348l36.763 36.568c1.95 1.94 4.501 2.91 7.052 2.91 2.542 0 5.083-.963 7.031-2.889l96.748-95.667 96.597 95.501c1.948 1.926 4.489 2.889 7.031 2.889 2.541 0 5.082-.963 7.03-2.888l36.827-36.4c6.032-5.961 9.355-13.906 9.355-22.371.001-8.465-3.321-16.41-9.351-22.369zm-251.246 60.11-29.732-29.574c-2.188-2.176-3.39-5.066-3.385-8.136.005-3.071 1.216-5.956 3.413-8.128l81.203-80.301 38.036 37.605zm237.184-29.596-29.797 29.452-141.664-140.058 29.832-29.486c4.527-4.474 11.893-4.474 16.418-.001l125.212 123.803c2.2 2.174 3.412 5.067 3.412 8.144 0 3.078-1.212 5.97-3.413 8.146z"/></g></g></svg>