<svg id="Capa_1" enable-background="new 0 0 511.963 511.963" height="512" viewBox="0 0 511.963 511.963" width="512" xmlns="http://www.w3.org/2000/svg"><g><g><g><g><g><path clip-rule="evenodd" d="m308.237 459.151-37.029 36.6c-8.433 8.332-22.046 8.332-30.478-.001l-125.21-123.801c-8.51-8.411-8.51-22.105.001-30.516l36.828-36.401z" fill="#ffee80" fill-rule="evenodd"/></g></g></g><g><g><g><g><g><path d="m308.237 459.151-52.269-51.658 103.787-102.628 36.763 36.568c8.463 8.418 8.441 22.073-.049 30.464z" fill="#fff2a0"/></g></g></g></g></g><g><g><g><g><g><path clip-rule="evenodd" d="m203.726 288.815 37.029 36.6c8.433 8.332 22.046 8.332 30.478-.001l125.211-123.801c8.51-8.411 8.51-22.106-.001-30.516l-36.828-36.401z" fill="#ffee80" fill-rule="evenodd"/></g></g></g><g><g><g><g><path d="m203.726 288.815 52.269-51.658-103.788-102.628-36.763 36.568c-8.463 8.418-8.441 22.073.049 30.464" fill="#fff2a0"/></g></g></g><g><g><g><path d="m255.986 237.148 42.159-41.681v-185.467h-84.353v185.425z" fill="#fff7bf"/></g></g></g></g></g></g></g><g><path d="m403.472 163.984-36.828-36.401c-3.896-3.851-10.165-3.851-14.061.001l-44.438 43.934v-161.518c0-5.523-4.477-10-10-10h-84.353c-5.523 0-10 4.477-10 10v161.474l-44.554-44.056c-3.905-3.861-10.19-3.852-14.083.021l-36.763 36.568c-5.999 5.967-9.294 13.903-9.281 22.348.014 8.445 3.335 16.371 9.352 22.318 3.928 3.882 10.26 3.845 14.142-.082 3.882-3.928 3.845-10.26-.083-14.142-2.195-2.169-3.407-5.055-3.412-8.126s1.197-5.96 3.385-8.137l29.732-29.574 89.535 88.534-37.996 37.565-16.653-16.653c-3.905-3.905-10.237-3.905-14.143 0-3.905 3.905-3.905 10.237 0 14.142l60.755 60.326c6.14 6.066 14.201 9.099 22.266 9.099 8.064 0 16.131-3.035 22.271-9.103l125.21-123.799c6.032-5.961 9.353-13.906 9.353-22.371.001-8.463-3.321-16.408-9.353-22.368zm-179.68-143.984h64.353v171.291l-32.159 31.794-32.194-31.835zm165.621 174.501-125.21 123.8c-4.527 4.473-11.894 4.474-16.419.001l-29.833-29.487 141.664-140.058 29.798 29.453c2.201 2.174 3.413 5.067 3.413 8.145s-1.211 5.97-3.413 8.146z"/><g><g><g><g><path d="m147.942 243.03c-4.177 0-7.995-2.697-9.405-6.626-1.401-3.904-.19-8.416 3.016-11.063 3.098-2.557 7.557-3.018 11.101-1.122 3.687 1.972 5.789 6.146 5.181 10.284-.712 4.838-5.01 8.527-9.893 8.527z"/></g></g></g></g><path d="m412.852 356.691c.013-8.445-3.283-16.381-9.281-22.348l-36.763-36.568c-3.893-3.872-10.179-3.88-14.083-.021l-96.748 95.667-96.597-95.501c-3.896-3.851-10.165-3.851-14.06-.001l-36.827 36.4c-6.032 5.961-9.355 13.906-9.355 22.371s3.321 16.41 9.352 22.369l125.212 123.803c6.14 6.068 14.203 9.101 22.268 9.101 8.063 0 16.129-3.034 22.269-9.1l125.261-123.853c6.017-5.947 9.339-13.873 9.352-22.319zm-148.672 131.947c-4.527 4.474-11.893 4.474-16.418.001l-125.213-123.803c-2.2-2.174-3.412-5.067-3.412-8.145s1.212-5.971 3.414-8.146l29.797-29.452 141.664 140.058zm125.259-123.85-81.203 80.301-38.036-37.605 89.535-88.535 29.732 29.574c2.188 2.176 3.39 5.066 3.385 8.136-.005 3.071-1.216 5.957-3.413 8.129z"/></g></g></svg>