<svg id="Capa_1" enable-background="new 0 0 511.964 511.964" height="512" viewBox="0 0 511.964 511.964" width="512" xmlns="http://www.w3.org/2000/svg"><g><g><g><g><g><path clip-rule="evenodd" d="m52.812 308.237-36.6-37.029c-8.332-8.433-8.332-22.046.001-30.478l123.802-125.21c8.411-8.51 22.105-8.51 30.516.001l36.401 36.828z" fill="#ffee80" fill-rule="evenodd"/></g></g></g><g><g><g><g><g><path d="m52.812 308.237 51.658-52.269 102.628 103.787-36.568 36.763c-8.418 8.463-22.073 8.441-30.464-.049z" fill="#fff2a0"/></g></g></g></g></g><g><g><g><g><g><path clip-rule="evenodd" d="m223.149 203.726-36.6 37.029c-8.332 8.433-8.332 22.046.001 30.478l123.801 125.211c8.411 8.51 22.106 8.51 30.516-.001l36.401-36.828z" fill="#ffee80" fill-rule="evenodd"/></g></g></g><g><g><g><g><path d="m223.149 203.726 51.658 52.269 102.628-103.787-36.568-36.763c-8.418-8.463-22.073-8.441-30.464.049" fill="#fff2a0"/></g></g></g><g><g><g><path d="m274.816 255.986 41.681 42.159h185.467v-84.353h-185.426z" fill="#fff7bf"/></g></g></g></g></g></g></g><g><path d="m501.964 203.792h-161.474l44.056-44.554c3.86-3.904 3.851-10.191-.021-14.083l-36.568-36.763c-5.955-5.986-13.871-9.281-22.296-9.281h-.052c-8.445.014-16.371 3.335-22.318 9.352-3.882 3.928-3.845 10.26.082 14.142 3.928 3.882 10.26 3.845 14.142-.083 2.169-2.195 5.055-3.407 8.125-3.412h.019c3.063 0 5.946 1.202 8.118 3.385l29.574 29.732-88.534 89.535-37.565-37.997 16.653-16.653c3.905-3.905 3.905-10.237 0-14.142s-10.237-3.905-14.142.001l-60.325 60.755c-12.133 12.279-12.132 32.257.004 44.537l123.799 125.21c5.961 6.032 13.906 9.353 22.371 9.353s16.41-3.322 22.37-9.354l36.401-36.828c3.851-3.896 3.85-10.165-.001-14.06l-43.934-44.439h161.518c5.523 0 10-4.477 10-10v-84.353c-.002-5.523-4.48-10-10.002-10zm-168.21 185.621c-2.174 2.201-5.067 3.413-8.145 3.413-3.078.001-5.97-1.211-8.146-3.413l-123.8-125.21c-4.473-4.527-4.474-11.893-.001-16.418l29.487-29.833 140.058 141.664zm158.21-101.268h-171.291l-31.794-32.159 31.835-32.194h171.25z"/><g><g><g><g><path d="m278.933 157.942c-4.121 0-7.908-2.618-9.36-6.476-1.443-3.834-.345-8.348 2.763-11.04 3.207-2.778 7.907-3.255 11.592-1.137 3.56 2.046 5.549 6.234 4.865 10.288-.804 4.765-5.017 8.365-9.86 8.365z"/></g></g></g></g><path d="m214.209 352.725-95.667-96.748 95.501-96.597c3.851-3.896 3.852-10.165.001-14.061l-36.4-36.827c-5.961-6.032-13.906-9.355-22.371-9.355h-.001c-8.464 0-16.409 3.321-22.368 9.352l-123.803 125.212c-12.134 12.278-12.135 32.256 0 44.537l123.852 125.262c5.947 6.017 13.874 9.338 22.319 9.352h.051c8.425 0 16.342-3.295 22.296-9.281l36.568-36.763c3.873-3.892 3.883-10.179.022-14.083zm-190.885-104.963 123.803-125.212c2.174-2.2 5.066-3.412 8.144-3.412h.001c3.078 0 5.971 1.212 8.146 3.414l29.452 29.797-140.058 141.663-29.486-29.832c-4.474-4.527-4.473-11.893-.002-16.418zm140.116 141.705c-2.172 2.184-5.054 3.385-8.118 3.385h-.019c-3.071-.005-5.956-1.216-8.128-3.413l-80.301-81.203 37.606-38.036 88.535 89.535z"/></g></g></svg>