<svg id="Capa_1" enable-background="new 0 0 512 512" height="512" viewBox="0 0 512 512" width="512" xmlns="http://www.w3.org/2000/svg"><g><g><g><g><g><g><g><path clip-rule="evenodd" d="m208.932 148.56 33.362 32.869c7.598 7.483 19.862 7.483 27.459-.001l112.81-111.182c7.668-7.553 7.667-19.852-.001-27.405l-33.182-32.691z" fill="#66e0f7" fill-rule="evenodd"/></g></g></g><g><g><g><path d="m208.932 148.56 47.092-46.393-93.509-92.167-33.122 32.841c-7.253 7.192-7.589 18.639-1.02 26.225.336.389 4.584 4.66 4.957 5.028" fill="#ccf5fc"/></g></g></g></g></g><g><g><g><g><g><path clip-rule="evenodd" d="m303.068 363.44-33.362-32.869c-7.598-7.483-19.862-7.483-27.459.001l-112.81 111.182c-7.668 7.553-7.667 19.852.001 27.405l33.18 32.691z" fill="#66e0f7" fill-rule="evenodd"/></g></g></g><g><g><g><path d="m303.068 363.44-47.092 46.393 93.508 92.167 33.122-32.841c7.253-7.192 7.589-18.639 1.02-26.225-.336-.389-4.584-4.66-4.957-5.028l-75.609-74.459" fill="#ccf5fc"/></g></g></g></g></g><g><g><g><g><g><path clip-rule="evenodd" d="m363.44 208.931-32.869 33.362c-7.483 7.597-7.482 19.862.001 27.459l111.182 112.81c7.553 7.668 19.852 7.667 27.405-.001l32.691-33.18z" fill="#66e0f7" fill-rule="evenodd"/></g></g></g><g><g><g><path d="m363.44 208.931 46.393 47.092 92.167-93.508-32.841-33.122c-7.192-7.253-18.639-7.589-26.225-1.02-.389.337-4.66 4.584-5.028 4.957l-74.459 75.609" fill="#ccf5fc"/></g></g></g></g></g><g><g><g><g><g><path clip-rule="evenodd" d="m148.56 303.068 32.869-33.362c7.483-7.598 7.482-19.862-.001-27.459l-111.182-112.809c-7.553-7.668-19.852-7.667-27.405.001l-32.691 33.18z" fill="#66e0f7" fill-rule="evenodd"/></g></g></g><g><g><g><g><g><path d="m148.56 303.068-46.393-47.092-92.167 93.508 32.841 33.122c7.192 7.253 18.639 7.589 26.225 1.02.389-.336 4.66-4.584 5.028-4.957l74.459-75.608" fill="#ccf5fc"/></g></g></g></g></g></g></g></g><g><g><g><g><path d="m165.75 115.54c-4.18 0-8.006-2.71-9.415-6.636-1.387-3.866-.202-8.341 2.944-10.991 3.291-2.771 8.083-3.138 11.747-.869 3.495 2.164 5.335 6.418 4.524 10.446-.928 4.611-5.085 8.05-9.8 8.05z"/></g></g></g><path d="m126.311 81.216c3.932 3.875 10.255 3.827 14.133-.102s3.834-10.261-.092-14.141c-.479-.474-3.783-3.803-4.514-4.566-3.056-3.645-2.806-9.092.596-12.465l26.102-25.881 79.233 78.097-32.81 32.334-4.118-4.096c-3.915-3.893-10.247-3.877-14.142.037-3.895 3.916-3.878 10.248.038 14.143l44.54 43.98c5.72 5.633 13.232 8.449 20.745 8.449 7.515 0 15.029-2.817 20.751-8.454l112.807-111.181c5.631-5.548 8.732-12.945 8.732-20.828-.001-7.882-3.103-15.278-8.733-20.824l-33.18-32.692c-3.894-3.836-10.145-3.836-14.038 0l-86.345 85.092-86.48-85.241c-3.902-3.846-10.17-3.835-14.061.021l-33.123 32.841c-10.881 10.79-11.557 28.304-1.54 39.871.741.856 5.455 5.563 5.499 5.606zm223.07-57.028 26.163 25.776c1.785 1.759 2.768 4.095 2.769 6.578 0 2.484-.983 4.82-2.77 6.581l-112.808 111.18c-3.7 3.646-9.723 3.646-13.422.003l-26.131-25.746z"/><path d="m385.686 430.781-108.962-107.336c-11.44-11.266-30.054-11.267-41.496.005l-112.808 111.18c-5.631 5.548-8.732 12.945-8.732 20.828 0 7.882 3.103 15.278 8.733 20.824l33.181 32.691c1.947 1.918 4.482 2.877 7.018 2.877s5.073-.959 7.019-2.877l86.345-85.092 86.48 85.241c1.947 1.919 4.483 2.878 7.02 2.878 2.546 0 5.092-.967 7.041-2.898l33.122-32.841c10.881-10.79 11.557-28.304 1.54-39.871-.74-.856-5.454-5.563-5.501-5.609zm-223.067 57.03-26.163-25.776c-1.785-1.759-2.768-4.095-2.769-6.578 0-2.484.983-4.82 2.77-6.581l112.808-111.18c1.851-1.823 4.282-2.735 6.713-2.735 2.43 0 4.86.911 6.71 2.732l26.132 25.747zm212.947-25.754-26.102 25.881-79.233-78.097 32.833-32.357 68.584 67.542c.479.474 3.783 3.803 4.514 4.566 3.056 3.645 2.806 9.092-.596 12.465z"/><path d="m423.881 256.016 85.241-86.481c3.845-3.901 3.836-10.17-.021-14.061l-32.84-33.122c-10.789-10.881-28.304-11.558-39.876-1.536-.856.742-5.561 5.456-5.603 5.498l-107.336 108.961c-11.268 11.44-11.268 30.055.003 41.496l111.181 112.808c5.548 5.632 12.944 8.733 20.828 8.733 7.883-.001 15.279-3.103 20.825-8.733l32.69-33.18c3.836-3.893 3.836-10.144-.001-14.038zm21.15-115.668c.469-.476 3.791-3.773 4.562-4.512 3.645-3.055 9.092-2.804 12.465.598l25.88 26.102-78.097 79.233-32.356-32.833zm17.004 235.196c-1.758 1.785-4.094 2.769-6.578 2.769s-4.82-.983-6.581-2.771l-111.18-112.808c-3.646-3.701-3.646-9.723-.001-13.423l25.745-26.131 124.371 126.202z"/><path d="m188.554 276.724c11.268-11.44 11.268-30.055-.003-41.496l-111.182-112.807c-5.548-5.632-12.944-8.733-20.828-8.733-7.883.001-15.279 3.103-20.825 8.733l-32.69 33.179c-3.836 3.893-3.836 10.145.001 14.038l85.092 86.345-85.241 86.482c-3.845 3.901-3.836 10.17.021 14.061l32.84 33.122c5.68 5.729 13.223 8.629 20.783 8.629 6.799-.001 13.614-2.348 19.094-7.093.856-.742 5.562-5.456 5.603-5.498zm-138.589-140.268c1.758-1.785 4.094-2.769 6.578-2.769 2.483 0 4.82.983 6.58 2.77l111.181 112.808c3.646 3.701 3.646 9.723.002 13.423l-25.746 26.132-124.371-126.202zm17.004 235.195c-.469.476-3.791 3.773-4.562 4.512-3.643 3.056-9.091 2.805-12.465-.598l-25.88-26.102 78.097-79.233 32.356 32.832z"/></g></g></svg>