<svg id="Capa_1" enable-background="new 0 0 511.963 511.963" height="512" viewBox="0 0 511.963 511.963" width="512" xmlns="http://www.w3.org/2000/svg"><g><g><g><g><g><path clip-rule="evenodd" d="m48.445 303.05-32.869-33.362c-7.483-7.597-7.483-19.862.001-27.459l111.182-112.81c7.553-7.668 19.852-7.667 27.405.001l32.691 33.18z" fill="#66e0f7" fill-rule="evenodd"/></g></g></g><g><g><g><g><g><path d="m48.445 303.05 46.393-47.092 92.167 93.508-32.841 33.122c-7.56 7.625-19.823 7.605-27.359-.044z" fill="#ccf5fc"/></g></g></g></g></g><g><g><g><g><path clip-rule="evenodd" d="m363.403 303.05-32.869-33.362c-7.483-7.597-7.482-19.862.001-27.459l111.182-112.81c7.553-7.668 19.852-7.667 27.405.001l32.691 33.18z" fill="#66e0f7" fill-rule="evenodd"/></g></g></g><g><g><g><g><g><path d="m363.403 303.05 46.393-47.092 92.167 93.508-32.841 33.122c-7.56 7.625-19.823 7.605-27.359-.044z" fill="#ccf5fc"/></g></g></g></g></g></g><g><g><g><g><g><path clip-rule="evenodd" d="m205.924 208.89-32.869 33.362c-7.483 7.597-7.482 19.862.001 27.459l111.182 112.81c7.554 7.668 19.853 7.667 27.405-.001l32.691-33.18z" fill="#66e0f7" fill-rule="evenodd"/></g></g></g><g><g><g><path d="m205.924 208.89 46.393 47.092 92.167-93.508-32.841-33.122c-7.192-7.253-18.639-7.589-26.225-1.02-.389.337-4.66 4.584-5.028 4.957" fill="#ccf5fc"/></g></g></g></g></g></g><g><path d="m266.365 255.975 85.241-86.481c3.846-3.902 3.836-10.171-.021-14.061l-32.841-33.122c-10.79-10.881-28.304-11.557-39.871-1.541-.855.741-5.563 5.455-5.605 5.499-3.875 3.932-3.827 10.255.102 14.133 3.929 3.877 10.262 3.834 14.141-.092.474-.479 3.803-3.783 4.566-4.514 3.646-3.056 9.092-2.806 12.465.597l25.881 26.102-78.097 79.233-32.334-32.81 4.097-4.118c3.895-3.915 3.878-10.247-.038-14.142-3.915-3.895-10.247-3.878-14.142.038l-43.978 44.539c-11.269 11.441-11.268 30.055.004 41.496l111.18 112.808c5.548 5.631 12.944 8.732 20.827 8.732 7.883-.001 15.279-3.102 20.826-8.733l32.69-33.181c3.836-3.893 3.836-10.145-.001-14.037zm38.155 119.527c-1.759 1.786-4.096 2.769-6.58 2.769-2.483 0-4.819-.983-6.58-2.77l-111.18-112.808c-3.646-3.701-3.646-9.723-.002-13.423l25.746-26.131 124.371 126.201z"/><g><g><g><g><path d="m248.943 175.71c-4.065 0-7.794-2.56-9.29-6.331-1.555-3.92-.408-8.58 2.824-11.301 3.295-2.773 8.084-3.122 11.749-.864 3.602 2.219 5.419 6.65 4.458 10.765-1.045 4.468-5.151 7.731-9.741 7.731z"/></g></g></g></g><path d="m509.085 342.446-85.24-86.48 85.092-86.345c3.836-3.893 3.836-10.144 0-14.038l-32.69-33.179c-5.547-5.632-12.943-8.734-20.825-8.734-.001 0-.001 0-.002 0-7.882 0-15.278 3.102-20.824 8.731l-111.183 112.81c-11.271 11.439-11.272 30.053-.002 41.496l111.228 112.855c5.535 5.618 12.914 8.719 20.778 8.732h.048c7.846 0 15.217-3.076 20.759-8.665l32.841-33.122c3.856-3.89 3.866-10.159.02-14.061zm-171.427-93.197 111.184-112.811c1.759-1.785 4.095-2.769 6.579-2.769 2.483.001 4.819.983 6.579 2.77l25.775 26.161-124.372 126.201-25.745-26.13c-3.645-3.701-3.645-9.723 0-13.422zm124.364 126.298c-1.757 1.772-4.085 2.747-6.558 2.747h-.015c-2.477-.004-4.809-.987-6.564-2.77l-71.44-72.475 32.36-32.837 78.097 79.233z"/><path d="m194.126 342.446-85.241-86.481 85.092-86.345c3.836-3.893 3.836-10.144.001-14.037l-32.69-33.18c-5.547-5.632-12.943-8.734-20.826-8.734-.001 0-.001 0-.001 0-7.882 0-15.279 3.102-20.824 8.731l-111.184 112.811c-11.27 11.439-11.271 30.054-.001 41.495l111.229 112.856c5.535 5.618 12.914 8.719 20.778 8.732h.048c7.846 0 15.217-3.077 20.758-8.665l32.841-33.122c3.856-3.89 3.866-10.159.02-14.061zm-171.427-93.197 111.183-112.811c1.759-1.785 4.095-2.769 6.579-2.769 2.484.001 4.82.983 6.579 2.77l25.775 26.161-124.371 126.201-25.744-26.13c-3.646-3.701-3.645-9.723-.001-13.422zm124.363 126.298c-1.757 1.772-4.085 2.747-6.557 2.747h-.015c-2.478-.004-4.809-.987-6.565-2.77l-71.441-72.475 32.361-32.837 78.097 79.233z"/></g></g></svg>