<svg id="Capa_1" enable-background="new 0 0 512 512" height="512" viewBox="0 0 512 512" width="512" xmlns="http://www.w3.org/2000/svg"><g><g><g><g><g><path clip-rule="evenodd" d="m88.746 501.056-54.717-.41c-12.459-.095-22.591-10.298-22.684-22.842l-1.344-186.318c-.094-12.661 10.067-22.891 22.642-22.795l54.419.407z" fill="#66e0f7" fill-rule="evenodd"/></g></g></g><g><g><g><g><g><path d="m88.746 501.056-.578-77.761 153.396 1.115.232 54.868c.053 12.631-10.094 22.815-22.639 22.721z" fill="#ccf5fc"/></g></g></g></g></g><g><g><g><g><path clip-rule="evenodd" d="m348.949 242.364-54.717-.41c-12.459-.095-22.591-10.298-22.684-22.842l-1.344-186.318c-.094-12.661 10.067-22.891 22.642-22.795l54.419.407z" fill="#66e0f7" fill-rule="evenodd"/></g></g></g><g><g><g><g><g><path d="m348.949 242.364-.578-77.761 153.396 1.115.233 54.869c.053 12.631-10.094 22.815-22.639 22.721z" fill="#ccf5fc"/></g></g></g></g></g></g><g><g><g><g><g><path clip-rule="evenodd" d="m141.057 293.387.407 55.091c.094 12.544 10.227 22.746 22.686 22.84l185.051 1.354c12.575.095 22.735-10.136 22.64-22.797l-.404-54.792z" fill="#66e0f7" fill-rule="evenodd"/></g></g></g><g><g><g><path d="m141.057 293.387 77.232.582-1.108-154.446-54.495-.234c-11.934-.051-21.668 9.192-22.508 20.966-.043.603-.063 15.69-.058 16.305" fill="#ccf5fc"/></g></g></g></g></g></g><g><path d="m381.841 349.801-.404-54.792c-.04-5.465-4.46-9.886-9.926-9.926l-143.292-1.055-1.037-144.577c-.039-5.478-4.479-9.905-9.956-9.928l-54.496-.234h-.14c-16.962 0-31.174 13.263-32.386 30.255-.089 1.25-.085 16.952-.083 17.096.044 5.495 4.511 9.913 9.998 9.913h.068c5.518-.037 9.963-4.544 9.933-10.062-.007-1.217.017-13.802.047-15.707.556-6.47 5.972-11.493 12.423-11.493h.053l44.61.191.964 134.401-57.183-.421-.034-16.575c-.011-5.516-4.486-9.98-9.999-9.98h-.021c-5.523.011-9.991 4.498-9.98 10.021l.464 81.627c.135 17.931 14.764 32.628 32.613 32.763l185.049 1.354c.085.001.168.001.253.001 8.656 0 16.784-3.364 22.909-9.488 6.227-6.228 9.62-14.533 9.553-23.384zm-23.695 9.24c-2.344 2.344-5.456 3.631-8.774 3.631h-.097l-185.049-1.353c-6.984-.053-12.709-5.847-12.763-12.914l-.332-44.942 210.378 1.547.332 44.939c.027 3.455-1.286 6.683-3.695 9.092z"/><g><g><g><g><path d="m140.92 231.68c-4.228 0-8.083-2.776-9.453-6.762-1.301-3.785-.156-8.117 2.862-10.754 3.203-2.798 7.902-3.256 11.592-1.147 3.668 2.097 5.64 6.476 4.81 10.613-.927 4.615-5.096 8.05-9.811 8.05z"/></g></g></g></g><path d="m511.768 165.676c-.023-5.478-4.45-9.917-9.927-9.957l-143.527-1.043-1.048-144.341c-.039-5.465-4.459-9.886-9.925-9.927l-54.418-.407c-.086-.001-.171-.001-.256-.001-8.657 0-16.784 3.363-22.909 9.487-6.227 6.226-9.62 14.53-9.554 23.38l1.344 186.32c.133 17.932 14.761 32.631 32.609 32.767l185.127 1.354c.084.001.167.001.251.001 8.637 0 16.752-3.351 22.873-9.451 6.222-6.202 9.628-14.481 9.591-23.313zm-230.22 53.365-1.344-186.32c-.025-3.454 1.287-6.682 3.696-9.091 2.344-2.343 5.456-3.63 8.774-3.63h.098l44.566.333 1.537 211.955-44.565-.333c-6.985-.053-12.709-5.847-12.762-12.914zm206.742 10.651c-2.342 2.334-5.449 3.617-8.761 3.617h-.097l-120.555-.873-.419-57.759 133.351.969.19 44.982c.016 3.446-1.302 6.665-3.709 9.064z"/><path d="m251.564 424.368c-.024-5.478-4.45-9.917-9.927-9.957l-143.527-1.044-1.048-144.341c-.039-5.465-4.459-9.886-9.925-9.927l-54.417-.407c-.085-.001-.171-.001-.256-.001-8.656 0-16.783 3.363-22.908 9.487-6.228 6.226-9.621 14.53-9.555 23.381l1.345 186.319c.133 17.932 14.761 32.631 32.609 32.767l185.128 1.353c.084.001.166.001.25.001 8.638 0 16.753-3.351 22.874-9.452 6.222-6.202 9.628-14.481 9.591-23.313zm-230.219 53.364-1.345-186.319c-.025-3.454 1.287-6.683 3.696-9.091 2.344-2.344 5.456-3.63 8.773-3.63h.099l44.566.334 1.537 211.955-44.566-.333c-6.983-.055-12.708-5.849-12.76-12.916zm206.742 10.651c-2.366 2.358-5.513 3.625-8.857 3.617l-120.555-.873-.419-57.759 133.351.969.19 44.982c.014 3.447-1.303 6.665-3.71 9.064z"/></g></g></svg>