<svg id="Capa_1" enable-background="new 0 0 511.919 511.919" height="512" viewBox="0 0 511.919 511.919" width="512" xmlns="http://www.w3.org/2000/svg"><g><g><g><g><g><g><g><path clip-rule="evenodd" d="m310.773 55.262-39.243-38.668c-8.937-8.803-23.315-8.852-32.192-.108l-131.808 129.893c-8.959 8.825-8.909 23.243.111 32.129l39.03 38.458z" fill="#66e0f7" fill-rule="evenodd"/></g></g></g><g><g><g><path d="m310.773 55.262-55.023 54.2 109.993 108.426 38.699-38.369c8.475-8.402 8.822-21.821 1.091-30.741-.396-.457-11.05-11.139-11.488-11.571" fill="#ccf5fc"/></g></g></g><g><g><g><path clip-rule="evenodd" d="m259.808 113.463h-8.1l-46.006 45.334v56.991h100.516v-56.577z" fill="#99ebfa" fill-rule="evenodd"/></g></g></g></g></g><g><g><g><g><g><path clip-rule="evenodd" d="m201.147 456.658 39.243 38.668c8.937 8.803 23.315 8.852 32.192.108l131.808-129.894c8.959-8.825 8.909-23.243-.111-32.129l-39.03-38.458z" fill="#66e0f7" fill-rule="evenodd"/></g></g></g><g><g><g><path d="m201.147 456.658 55.023-54.2-109.993-108.427-38.699 38.369c-8.475 8.402-8.822 21.821-1.091 30.741.396.457 100.233 98.973 100.233 98.973" fill="#ccf5fc"/></g></g></g><g><g><g><g><path clip-rule="evenodd" d="m252.111 398.457h8.1l46.007-45.335v-56.991h-100.516v56.577z" fill="#99ebfa" fill-rule="evenodd"/></g></g></g></g></g></g></g><g><path d="m413.087 142.226c-.819-.945-11.925-12.043-12.026-12.144-3.933-3.872-10.252-3.819-14.128.108-3.876 3.928-3.832 10.258.091 14.139.865.856 9.749 9.773 11.074 11.142 4.192 4.981 3.901 12.39-.696 16.948l-31.679 31.408-95.717-94.354 40.732-40.137 11.743 11.696c1.951 1.943 4.504 2.915 7.057 2.915 2.566 0 5.132-.981 7.085-2.943 3.897-3.913 3.885-10.245-.028-14.142l-58.048-57.392c-12.774-12.584-33.512-12.633-46.228-.107l-131.807 129.892c-6.235 6.142-9.669 14.341-9.669 23.087 0 8.806 3.473 17.077 9.779 23.289l39.029 38.457c1.946 1.918 4.482 2.877 7.018 2.877s5.072-.959 7.019-2.877l42.012-41.398v33.098c0 5.523 4.477 10 10 10h100.516c5.523 0 10-4.477 10-10v-32.678l42.505 41.9c1.947 1.919 4.483 2.878 7.021 2.878 2.546 0 5.092-.967 7.041-2.899l38.698-38.369c12.091-11.985 12.797-31.484 1.606-44.394zm-266.417 60.7-32.012-31.542c-2.46-2.424-3.815-5.635-3.815-9.042-.001-3.347 1.315-6.486 3.706-8.841l131.806-129.891c2.468-2.432 5.716-3.645 8.978-3.645 3.313 0 6.641 1.252 9.178 3.751l32.013 31.544zm149.548-39.531v42.393h-80.516v-42.806l40.056-39.471z"/><g><g><g><g><path d="m361.569 115.869c-4.12 0-7.888-2.617-9.347-6.464-1.457-3.843-.344-8.34 2.754-11.052 3.185-2.789 7.926-3.251 11.591-1.137 3.668 2.116 5.645 6.455 4.812 10.613-.924 4.619-5.101 8.04-9.81 8.04z"/></g></g></g></g><path d="m411.298 326.288-39.03-38.457c-3.893-3.836-10.145-3.836-14.037 0l-42.013 41.399v-33.099c0-5.523-4.477-10-10-10h-100.516c-5.523 0-10 4.477-10 10v32.677l-42.504-41.899c-3.9-3.846-10.17-3.836-14.061.02l-38.7 38.369c-12.089 11.985-12.795 31.484-1.604 44.395.334.385 134.54 132.756 134.54 132.756 6.408 6.312 14.817 9.47 23.214 9.47 8.344 0 16.677-3.12 23.015-9.363l131.806-129.892c6.235-6.142 9.669-14.341 9.669-23.087 0-8.806-3.474-17.077-9.779-23.289zm-195.596 22.236v-42.393h80.516v42.806l-40.056 39.47zm-101.184-9.022 31.679-31.409 95.717 94.354-40.79 40.194c-34.206-33.757-83.441-82.354-87.368-86.271-4.123-4.981-3.811-12.335.762-16.868zm282.852 18.916-131.806 129.892c-4.977 4.901-13.12 4.852-18.156-.107l-32.012-31.543 149.853-147.666 32.013 31.542c2.46 2.423 3.814 5.634 3.814 9.041 0 3.347-1.315 6.486-3.706 8.841z"/></g></g></svg>