<svg id="Capa_1" enable-background="new 0 0 512.002 512.002" height="512" viewBox="0 0 512.002 512.002" width="512" xmlns="http://www.w3.org/2000/svg"><g><g><g><g><g><path clip-rule="evenodd" d="m423.255 10.946 54.717.41c12.459.095 22.591 10.297 22.684 22.842l1.344 186.317c.094 12.661-10.067 22.891-22.642 22.795l-54.419-.407z" fill="#66e0f7" fill-rule="evenodd"/></g></g></g><g><g><g><g><g><path d="m423.255 10.946.578 77.761-153.396-1.115-.232-54.868c-.053-12.631 10.094-22.815 22.639-22.721z" fill="#ccf5fc"/></g></g></g></g></g><g><g><g><g><path clip-rule="evenodd" d="m163.052 269.637 54.717.41c12.459.095 22.591 10.297 22.684 22.842l1.344 186.318c.094 12.661-10.067 22.891-22.642 22.795l-54.419-.407z" fill="#66e0f7" fill-rule="evenodd"/></g></g></g><g><g><g><g><g><path d="m163.052 269.637.578 77.761-153.396-1.115-.232-54.868c-.054-12.631 10.093-22.815 22.638-22.721z" fill="#ccf5fc"/></g></g></g></g></g></g><g><g><g><g><g><path clip-rule="evenodd" d="m370.944 218.615-.407-55.091c-.095-12.544-10.228-22.745-22.686-22.84l-185.051-1.354c-12.575-.095-22.735 10.136-22.64 22.797l.404 54.792z" fill="#66e0f7" fill-rule="evenodd"/></g></g></g><g><g><g><path d="m370.944 218.615-77.232-.581 1.108 154.446 54.495.234c11.934.051 21.668-9.192 22.508-20.966.043-.603.063-15.69.058-16.305" fill="#ccf5fc"/></g></g></g></g></g></g><g><path d="m381.88 335.362c-.043-5.495-4.511-9.913-9.998-9.913-.022 0-.046 0-.068 0-5.518.037-9.963 4.545-9.933 10.062.007 1.217-.017 13.802-.047 15.708-.556 6.47-5.972 11.493-12.423 11.493h-.053l-44.61-.191-.964-134.401 57.183.421.034 16.574c.011 5.516 4.486 9.98 9.999 9.98h.021c5.522-.011 9.991-4.498 9.979-10.021l-.464-81.627c-.135-17.931-14.764-32.628-32.613-32.763l-185.049-1.354c-.085-.001-.168-.001-.253-.001-8.656 0-16.784 3.364-22.909 9.488-6.227 6.227-9.62 14.531-9.553 23.383l.404 54.792c.04 5.465 4.46 9.886 9.926 9.926l143.292 1.055 1.037 144.578c.039 5.478 4.478 9.905 9.956 9.928l54.496.234h.14c16.962 0 31.174-13.263 32.386-30.255.091-1.25.086-16.952.084-17.096zm-231.721-173.31c-.026-3.454 1.287-6.683 3.696-9.091 2.366-2.367 5.487-3.667 8.871-3.631l185.049 1.354c6.984.053 12.709 5.847 12.763 12.914l.332 44.942-210.378-1.547z"/><g><g><g><g><path d="m371.081 300.321c-4.174 0-7.995-2.682-9.407-6.61-1.371-3.814-.259-8.238 2.809-10.906 3.296-2.865 8.152-3.255 11.87-.97 3.523 2.166 5.363 6.476 4.514 10.519-.96 4.58-5.099 7.967-9.786 7.967z"/></g></g></g></g><path d="m251.796 479.134-1.344-186.32c-.133-17.931-14.761-32.63-32.609-32.767l-185.127-1.354c-.085-.001-.167-.001-.251-.001-8.637 0-16.751 3.351-22.872 9.451-6.222 6.202-9.628 14.481-9.591 23.313l.232 54.868c.024 5.478 4.45 9.917 9.927 9.957l143.527 1.043 1.048 144.341c.039 5.465 4.459 9.886 9.925 9.927l54.418.407c.085.001.17.001.254.001 8.657 0 16.784-3.363 22.909-9.487 6.227-6.225 9.62-14.529 9.554-23.379zm-231.605-142.779-.19-44.982c-.015-3.445 1.303-6.664 3.71-9.063 2.365-2.357 5.529-3.618 8.857-3.617l120.555.873.419 57.759zm207.911 152.016c-2.367 2.366-5.472 3.654-8.872 3.63l-44.566-.333-1.537-211.955 44.565.333c6.984.054 12.709 5.848 12.762 12.914l1.344 186.32c.025 3.454-1.288 6.683-3.696 9.091z"/><path d="m512 220.443-1.345-186.32c-.133-17.931-14.761-32.63-32.609-32.767l-185.127-1.353c-8.737-.112-16.943 3.291-23.123 9.451-6.222 6.202-9.628 14.481-9.591 23.313l.232 54.868c.023 5.478 4.45 9.917 9.927 9.957l143.527 1.043 1.048 144.341c.039 5.465 4.459 9.886 9.925 9.927l54.417.407c.085.001.171.001.256.001 8.656 0 16.783-3.363 22.908-9.487 6.228-6.227 9.621-14.531 9.555-23.381zm-231.605-142.779-.19-44.982c-.015-3.445 1.303-6.664 3.71-9.063 2.365-2.358 5.525-3.646 8.857-3.617l120.555.873.419 57.759zm207.91 152.016c-2.344 2.344-5.456 3.63-8.773 3.63h-.099l-44.566-.333-1.537-211.955 44.566.334c6.983.054 12.708 5.848 12.761 12.914l1.345 186.32c.024 3.453-1.288 6.682-3.697 9.09z"/></g></g></svg>