<svg id="Capa_1" enable-background="new 0 0 511.963 511.963" height="512" viewBox="0 0 511.963 511.963" width="512" xmlns="http://www.w3.org/2000/svg"><g><g><g><g><g><path clip-rule="evenodd" d="m463.519 208.913 32.869 33.362c7.483 7.597 7.483 19.862-.001 27.459l-111.182 112.81c-7.553 7.668-19.852 7.667-27.405-.001l-32.691-33.18z" fill="#66e0f7" fill-rule="evenodd"/></g></g></g><g><g><g><path d="m463.519 208.913-46.393 47.092-92.167-93.508 32.841-33.122c7.56-7.625 19.823-7.605 27.359.044z" fill="#ccf5fc"/></g></g></g><g><g><g><g><path clip-rule="evenodd" d="m148.56 208.913 32.869 33.362c7.483 7.597 7.482 19.862-.001 27.459l-111.182 112.809c-7.554 7.668-19.852 7.667-27.405-.001l-32.691-33.18z" fill="#66e0f7" fill-rule="evenodd"/></g></g></g><g><g><g><path d="m148.56 208.913-46.393 47.092-92.167-93.508 32.841-33.122c7.56-7.625 19.823-7.605 27.359.044z" fill="#ccf5fc"/></g></g></g></g><g><g><g><g><g><path clip-rule="evenodd" d="m306.04 303.073 32.869-33.362c7.483-7.597 7.483-19.862-.001-27.459l-111.182-112.81c-7.554-7.668-19.853-7.667-27.405.001l-32.691 33.18z" fill="#66e0f7" fill-rule="evenodd"/></g></g></g><g><g><g><path d="m306.04 303.073-46.393-47.092-92.167 93.508 32.841 33.122c7.192 7.253 18.639 7.589 26.225 1.02.389-.337 4.66-4.584 5.028-4.957" fill="#ccf5fc"/></g></g></g></g></g></g><g><g><path d="m503.511 235.256-111.228-112.856c-5.535-5.618-12.915-8.719-20.779-8.731h-.048c-7.847 0-15.217 3.076-20.758 8.665l-32.841 33.122c-3.856 3.891-3.866 10.159-.021 14.061l85.241 86.48-85.092 86.346c-3.836 3.894-3.836 10.144 0 14.038l32.688 33.178c5.547 5.633 12.943 8.734 20.827 8.735h.001c7.883 0 15.279-3.102 20.824-8.73l111.184-112.813c11.27-11.44 11.271-30.054.002-41.495zm-164.49-72.739 25.881-26.103c1.756-1.771 4.084-2.746 6.556-2.746h.015c2.478.004 4.81.987 6.565 2.77l71.44 72.474-32.36 32.837zm150.244 100.197-111.185 112.812c-1.758 1.785-4.094 2.768-6.577 2.768-.001 0-.001 0-.001 0-2.483 0-4.82-.983-6.58-2.77l-25.774-26.16 124.371-126.202 25.745 26.13c3.644 3.701 3.644 9.723.001 13.422z"/><path d="m188.553 235.256-111.229-112.856c-5.535-5.617-12.914-8.719-20.778-8.731h-.049c-7.846 0-15.216 3.076-20.758 8.665l-32.84 33.122c-3.856 3.891-3.866 10.159-.02 14.061l85.24 86.48-85.092 86.346c-3.836 3.894-3.836 10.144 0 14.038l32.689 33.178c5.547 5.633 12.942 8.734 20.825 8.735h.003c7.882 0 15.278-3.102 20.824-8.73l111.183-112.811c11.269-11.441 11.271-30.054.002-41.497zm-164.491-72.739 25.88-26.102c1.757-1.771 4.085-2.747 6.558-2.747h.015c2.478.004 4.809.987 6.564 2.77l71.44 72.474-32.36 32.837zm150.244 100.197-111.183 112.811c-1.759 1.785-4.096 2.769-6.579 2.769h-.001c-2.483 0-4.819-.983-6.579-2.77l-25.775-26.16 124.371-126.202 25.745 26.129c3.645 3.702 3.645 9.724.001 13.423z"/><path d="m346.034 276.728c11.268-11.441 11.267-30.055-.005-41.495l-111.18-112.809c-5.548-5.631-12.944-8.731-20.827-8.731-7.883.001-15.279 3.103-20.825 8.733l-32.69 33.18c-3.836 3.894-3.836 10.145 0 14.038l85.092 86.346-85.241 86.48c-3.846 3.901-3.836 10.17.021 14.061l32.841 33.121c5.68 5.729 13.223 8.63 20.782 8.63 6.8-.001 13.614-2.348 19.094-7.093.853-.739 5.553-5.445 5.596-5.489 3.878-3.93 3.835-10.255-.093-14.135-3.926-3.881-10.26-3.841-14.141.085-.477.482-3.811 3.79-4.571 4.519-3.646 3.058-9.091 2.806-12.464-.598l-25.881-26.102 78.096-79.233 32.333 32.81-4.096 4.118c-3.895 3.916-3.878 10.247.037 14.143 1.951 1.94 4.502 2.91 7.053 2.91 2.567 0 5.136-.983 7.09-2.947zm-138.59-140.266c1.759-1.786 4.096-2.77 6.579-2.77 2.484 0 4.82.983 6.581 2.77l111.181 112.809c3.645 3.7 3.645 9.722.002 13.422l-25.747 26.131-124.372-126.201z"/></g><g><g><g><g><path d="m263.02 356.263c-4.124 0-7.904-2.631-9.359-6.482-1.47-3.89-.305-8.468 2.884-11.15 3.205-2.696 7.832-3.11 11.466-1.031 3.614 2.067 5.579 6.323 4.845 10.418-.845 4.699-5.05 8.245-9.836 8.245z"/></g></g></g></g></g></g></svg>