<svg id="Capa_1" enable-background="new 0 0 511.964 511.964" height="512" viewBox="0 0 511.964 511.964" width="512" xmlns="http://www.w3.org/2000/svg"><g><g><g><g><g><path clip-rule="evenodd" d="m459.151 203.726 36.6 37.029c8.332 8.433 8.332 22.046-.001 30.478l-123.801 125.211c-8.411 8.511-22.105 8.51-30.516-.001l-36.401-36.828z" fill="#ffee80" fill-rule="evenodd"/></g></g></g><g><g><g><g><g><path d="m459.151 203.726-51.658 52.269-102.628-103.787 36.568-36.763c8.418-8.463 22.073-8.441 30.464.049z" fill="#fff2a0"/></g></g></g></g></g><g><g><g><g><g><path clip-rule="evenodd" d="m288.815 308.238 36.6-37.029c8.332-8.433 8.332-22.046-.001-30.478l-123.802-125.211c-8.411-8.51-22.106-8.51-30.516.001l-36.401 36.828z" fill="#ffee80" fill-rule="evenodd"/></g></g></g><g><g><g><g><path d="m288.815 308.238-51.658-52.269-102.628 103.787 36.568 36.763c8.418 8.463 22.073 8.441 30.464-.049" fill="#fff2a0"/></g></g></g><g><g><g><path d="m237.148 255.978-41.681-42.16h-185.467v84.354h185.425z" fill="#fff7bf"/></g></g></g></g></g></g></g><g><path d="m332.524 233.7-123.8-125.209c-5.961-6.032-13.906-9.354-22.372-9.353-8.465 0-16.409 3.323-22.368 9.354l-36.401 36.828c-3.851 3.896-3.851 10.165.001 14.061l43.934 44.438h-161.518c-5.523 0-10 4.477-10 10v84.353c0 5.523 4.477 10 10 10h161.474l-44.056 44.554c-3.861 3.904-3.852 10.191.021 14.083l36.568 36.763c5.954 5.986 13.87 9.281 22.296 9.281h.052c8.445-.014 16.371-3.335 22.319-9.352 3.882-3.928 3.846-10.259-.082-14.142-3.929-3.882-10.261-3.847-14.143.082-2.17 2.195-5.056 3.407-8.127 3.412h-.019c-3.063 0-5.945-1.202-8.117-3.385l-29.574-29.732 88.534-89.535 37.565 37.997-16.651 16.652c-3.905 3.905-3.905 10.237 0 14.143 1.953 1.953 4.512 2.929 7.071 2.929 2.56 0 5.118-.976 7.071-2.929l60.325-60.755c12.134-12.279 12.133-32.258-.003-44.538zm-312.524 54.471v-64.353h171.291l31.794 32.159-31.834 32.194zm298.302-23.992-29.487 29.833-140.058-141.664 29.453-29.798c2.174-2.2 5.066-3.412 8.145-3.412 3.078 0 5.971 1.211 8.146 3.413l123.8 125.21c4.473 4.526 4.473 11.892.001 16.418z"/><g><g><g><g><path d="m233.04 374.022c-4.117 0-7.901-2.624-9.357-6.468-1.438-3.797-.375-8.212 2.633-10.943 3.19-2.895 7.984-3.385 11.714-1.253 3.573 2.043 5.535 6.239 4.869 10.291-.782 4.758-5.035 8.373-9.859 8.373z"/></g></g></g></g><path d="m502.863 233.726-123.852-125.263c-5.948-6.017-13.875-9.338-22.319-9.352h-.052c-8.425 0-16.342 3.295-22.296 9.281l-36.568 36.763c-3.872 3.893-3.882 10.179-.02 14.084l95.667 96.748-95.501 96.597c-3.852 3.896-3.852 10.165-.001 14.061l36.399 36.827c5.961 6.033 13.906 9.355 22.372 9.355 8.465 0 16.409-3.322 22.368-9.352l123.803-125.212c12.134-12.279 12.135-32.258 0-44.537zm-183.914-81.497 29.574-29.732c2.172-2.183 5.054-3.385 8.117-3.385h.019c3.071.005 5.957 1.217 8.129 3.413l80.3 81.203-37.605 38.036zm169.69 111.973-123.804 125.213c-2.174 2.2-5.065 3.411-8.144 3.411s-5.971-1.212-8.147-3.414l-29.451-29.797 140.058-141.664 29.486 29.832c4.474 4.528 4.474 11.894.002 16.419z"/></g></g></svg>