<svg id="Capa_1" enable-background="new 0 0 511.927 511.927" height="512" viewBox="0 0 511.927 511.927" width="512" xmlns="http://www.w3.org/2000/svg"><g><g><g><g><g><path clip-rule="evenodd" d="m459.117 308.202 36.598-37.027c8.332-8.432 8.331-22.044-.001-30.476l-123.794-125.201c-8.41-8.51-22.104-8.509-30.514.001l-36.399 36.825z" fill="#ff7d97" fill-rule="evenodd"/></g></g></g><g><g><g><path d="m459.117 308.202-51.655-52.265-102.621 103.78 36.566 36.761c8.418 8.462 22.072 8.44 30.462-.049z" fill="#ff9eb1"/></g></g></g><g><g><g><g><g><path clip-rule="evenodd" d="m52.809 203.724-36.597 37.027c-8.332 8.432-8.331 22.044.001 30.476l123.793 125.202c8.41 8.51 22.104 8.509 30.514-.001l36.399-36.825z" fill="#ff7d97" fill-rule="evenodd"/></g></g></g><g><g><g><g><path d="m52.809 203.724 51.655 52.265 102.621-103.78-36.566-36.761c-8.418-8.462-22.072-8.441-30.463.049" fill="#ff9eb1"/></g></g></g><g><g><g><path d="m407.454 255.946-41.678-42.156h-219.584l-41.719 42.19 41.678 42.157h219.583z" fill="#ffbecb"/></g></g></g></g></g></g></g><g><path d="m502.825 233.669-123.792-125.2c-5.96-6.032-13.905-9.353-22.37-9.353-8.465.001-16.409 3.323-22.368 9.354l-36.398 36.825c-3.851 3.896-3.851 10.165.001 14.061l43.93 44.434h-171.684l44.052-44.549c3.861-3.904 3.852-10.191-.021-14.083l-36.565-36.761c-5.954-5.986-13.87-9.28-22.296-9.28h-.052c-8.444.014-16.37 3.335-22.317 9.352-3.882 3.928-3.846 10.26.083 14.142 3.928 3.881 10.258 3.845 14.142-.082 2.169-2.195 5.055-3.406 8.125-3.411h.019c3.063 0 5.945 1.202 8.117 3.385l29.571 29.729-88.528 89.528-37.562-37.993 16.651-16.651c3.905-3.905 3.905-10.237 0-14.142-3.906-3.905-10.236-3.905-14.142 0l-60.323 60.749c-12.132 12.279-12.131 32.256.004 44.535l123.792 125.201c5.96 6.032 13.905 9.353 22.37 9.353 8.465-.001 16.409-3.323 22.368-9.354l36.399-36.825c3.851-3.896 3.851-10.165-.001-14.061l-43.93-44.434h171.683l-44.052 44.549c-3.861 3.904-3.852 10.191.021 14.083l36.565 36.761c5.954 5.986 13.87 9.28 22.296 9.28h.052c8.444-.014 16.37-3.335 22.315-9.35l123.849-125.257c12.131-12.279 12.13-32.256-.004-44.535zm-339.418 155.73c-2.174 2.2-5.066 3.412-8.144 3.412s-5.97-1.212-8.145-3.413l-123.792-125.201c-4.473-4.526-4.474-11.891-.002-16.417l29.485-29.831 140.048 141.653zm-44.871-133.418 31.832-32.191h211.232l31.791 32.156-31.832 32.191h-211.232zm246.221 133.419c-2.169 2.195-5.055 3.406-8.125 3.411h-.019c-3.063 0-5.945-1.202-8.117-3.385l-29.571-29.729 88.528-89.528 37.602 38.033zm123.846-125.254-29.485 29.831-140.048-141.653 29.45-29.796c2.174-2.2 5.066-3.412 8.144-3.412s5.97 1.212 8.146 3.413l123.792 125.201c4.472 4.525 4.473 11.89.001 16.416z"/><g><g><g><g><path d="m108.583 157.943c-4.181 0-7.995-2.691-9.405-6.626-1.386-3.867-.206-8.337 2.936-10.996 3.282-2.777 8.094-3.122 11.746-.864 3.504 2.167 5.336 6.406 4.533 10.446-.919 4.621-5.105 8.04-9.81 8.04z"/></g></g></g></g></g></g></svg>