<svg id="Capa_1" enable-background="new 0 0 511.963 511.963" height="512" viewBox="0 0 511.963 511.963" width="512" xmlns="http://www.w3.org/2000/svg"><g><g><g><g><g><g><path d="m203.867 272.187v94.409l52.132 56.872 52.097-56.831v-94.408" fill="#ffbecb"/></g></g></g></g><g><g><g><path d="m203.867 163.07v114.387l52.132 41.675 52.097-41.633v-114.387" fill="#ff7d97"/></g></g></g><g><g><g><path d="m255.999 51.675-52.132-41.675v158.34l52.132 41.675 52.097-41.634v-158.339z" fill="#ffdfe5"/></g></g></g><g><g><g><g><path clip-rule="evenodd" d="m203.802 459.2 36.984 36.558c8.423 8.323 22.019 8.322 30.441-.001l125.059-123.661c8.5-8.401 8.5-22.081-.001-30.481l-36.783-36.36z" fill="#ff7d97" fill-rule="evenodd"/></g></g></g><g><g><g><path d="m203.802 459.2 52.205-51.599-103.661-102.512-36.719 36.527c-8.453 8.409-8.431 22.048.049 30.43" fill="#ff9eb1"/></g></g></g></g></g><g><path d="m403.316 334.503-36.783-36.359c-3.896-3.85-10.165-3.851-14.061.001l-34.375 33.988v-322.092c0-3.843-2.202-7.347-5.666-9.012s-7.574-1.198-10.577 1.2l-45.854 36.644-45.889-36.683c-3.003-2.4-7.113-2.867-10.578-1.202-3.464 1.666-5.667 5.169-5.667 9.013v322.086l-34.49-34.107c-3.904-3.859-10.191-3.852-14.084.021l-36.719 36.527c-5.993 5.962-9.286 13.892-9.272 22.33.014 8.439 3.332 16.358 9.344 22.302 3.928 3.881 10.259 3.845 14.142-.082 3.883-3.928 3.846-10.26-.082-14.143-2.19-2.164-3.399-5.044-3.404-8.108-.005-3.065 1.195-5.948 3.378-8.12l29.688-29.532 89.41 88.418-37.934 37.507-16.624-16.625c-3.905-3.905-10.236-3.905-14.142-.001-3.905 3.905-3.906 10.236-.001 14.142l60.681 60.258c6.135 6.061 14.19 9.092 22.248 9.092s16.117-3.032 22.252-9.096l125.058-123.659c6.027-5.957 9.346-13.896 9.346-22.355-.001-8.46-3.32-16.398-9.345-22.353zm-189.449-145.367 35.887 28.689c1.826 1.46 4.035 2.189 6.244 2.189 2.208 0 4.418-.729 6.243-2.188l35.855-28.653v83.515l-42.096 33.642-42.132-33.682v-83.512zm0-158.339 35.887 28.689c3.651 2.92 8.837 2.921 12.487.001l35.855-28.652v132.737l-42.096 33.641-42.132-33.682v-132.734zm0 321.067v-53.61l35.887 28.689c1.826 1.46 4.035 2.189 6.244 2.189 2.208 0 4.418-.73 6.243-2.188l35.855-28.653v53.616l-42.096 41.622zm175.388 13.122-125.058 123.659c-4.517 4.463-11.866 4.464-16.381.001l-29.788-29.445 141.475-139.883 29.753 29.411c2.196 2.169 3.405 5.056 3.405 8.126 0 3.072-1.209 5.959-3.406 8.131z"/><g><g><g><g><path d="m148.091 413.48c-4.171 0-8.015-2.695-9.415-6.631-1.38-3.88-.202-8.325 2.947-10.99 3.282-2.778 8.091-3.123 11.745-.865 3.495 2.161 5.337 6.418 4.523 10.445-.933 4.619-5.083 8.041-9.8 8.041z"/></g></g></g></g></g></g></svg>