<svg id="Capa_1" enable-background="new 0 0 511.963 511.963" height="512" viewBox="0 0 511.963 511.963" width="512" xmlns="http://www.w3.org/2000/svg"><g><g><g><g><g><g><path d="m308.095 239.775v-94.408l-52.131-56.872-52.097 56.831v94.408" fill="#ffbecb"/></g></g></g></g><g><g><g><path d="m308.095 348.893v-114.387l-52.131-41.675-52.097 41.633v114.387" fill="#ff7d97"/></g></g></g><g><g><g><path d="m255.964 460.288 52.131 41.675v-158.34l-52.131-41.675-52.097 41.633v158.34z" fill="#ffdfe5"/></g></g></g><g><g><g><g><path clip-rule="evenodd" d="m308.161 52.763-36.984-36.558c-8.423-8.323-22.019-8.322-30.441.001l-125.06 123.661c-8.5 8.401-8.5 22.081.001 30.481l36.783 36.36z" fill="#ff7d97" fill-rule="evenodd"/></g></g></g><g><g><g><path d="m308.161 52.763-52.205 51.599 103.662 102.512 36.719-36.527c8.453-8.409 8.431-22.048-.049-30.43" fill="#ff9eb1"/></g></g></g></g></g><g><path d="m403.317 132.805c-3.927-3.883-10.259-3.846-14.142.082s-3.846 10.259.082 14.142c2.19 2.165 3.399 5.045 3.404 8.109s-1.195 5.947-3.378 8.119l-29.687 29.532-89.41-88.418 37.934-37.506 16.624 16.625c1.953 1.953 4.512 2.929 7.071 2.929s5.118-.977 7.071-2.929c3.905-3.905 3.906-10.237.001-14.142l-60.682-60.257c-12.269-12.122-32.231-12.122-44.501.004l-125.057 123.659c-6.027 5.956-9.346 13.895-9.346 22.354 0 8.458 3.32 16.396 9.346 22.351l36.783 36.36c1.948 1.926 4.489 2.888 7.03 2.888s5.083-.963 7.031-2.889l34.375-33.988v322.091c0 3.843 2.203 7.346 5.666 9.012 3.463 1.665 7.576 1.199 10.577-1.2l45.854-36.644 45.888 36.685c1.808 1.445 4.017 2.189 6.246 2.189 1.473 0 2.954-.325 4.332-.988 3.464-1.666 5.667-5.169 5.667-9.012v-322.086l34.49 34.107c1.949 1.927 4.49 2.89 7.032 2.89 2.551 0 5.103-.971 7.053-2.911l36.719-36.527c5.993-5.961 9.286-13.892 9.272-22.33-.015-8.438-3.333-16.358-9.345-22.301zm-250.857 59.84-29.753-29.411c-2.195-2.17-3.405-5.056-3.405-8.128s1.209-5.958 3.406-8.13l125.057-123.658c2.259-2.233 5.225-3.348 8.192-3.348 2.965 0 5.932 1.116 8.189 3.346l29.789 29.446zm145.636 130.181-35.887-28.689c-3.65-2.917-8.836-2.918-12.487-.001l-35.854 28.653v-83.515l42.096-33.641 42.132 33.682zm0 158.34-35.887-28.689c-1.826-1.46-4.035-2.189-6.244-2.189-2.208 0-4.418.729-6.243 2.188l-35.854 28.653v-132.738l42.096-33.642 42.132 33.682zm0-267.457-35.887-28.689c-3.65-2.918-8.835-2.918-12.487-.001l-35.854 28.653v-53.616l42.096-41.622 42.132 41.665z"/><g><g><g><g><path d="m363.871 118.483c-4.182 0-7.997-2.71-9.405-6.636-1.389-3.874-.2-8.321 2.936-10.987 3.272-2.781 8.098-3.143 11.746-.873 3.496 2.175 5.339 6.405 4.533 10.446-.921 4.613-5.101 8.05-9.81 8.05z"/></g></g></g></g></g></g></svg>