<svg id="Capa_1" enable-background="new 0 0 511.926 511.926" height="512" viewBox="0 0 511.926 511.926" width="512" xmlns="http://www.w3.org/2000/svg"><g><g><g><g><g><path clip-rule="evenodd" d="m308.202 52.809-37.027-36.598c-8.432-8.332-22.044-8.331-30.476.001l-125.201 123.794c-8.51 8.41-8.509 22.104.001 30.514l36.825 36.399z" fill="#ff7d97" fill-rule="evenodd"/></g></g></g><g><g><g><path d="m308.202 52.809-52.265 51.655 103.78 102.621 36.761-36.566c8.462-8.418 8.44-22.072-.049-30.462z" fill="#ff9eb1"/></g></g></g><g><g><g><g><g><path clip-rule="evenodd" d="m203.724 459.117 37.027 36.598c8.432 8.332 22.044 8.331 30.476-.001l125.202-123.794c8.51-8.41 8.509-22.104-.001-30.514l-36.825-36.399z" fill="#ff7d97" fill-rule="evenodd"/></g></g></g><g><g><g><g><path d="m203.724 459.117 52.265-51.655-103.78-102.621-36.761 36.566c-8.462 8.418-8.441 22.072.049 30.462" fill="#ff9eb1"/></g></g></g><g><g><g><path d="m255.946 104.473-42.157 41.678v219.583l42.191 41.72 42.157-41.679v-219.583z" fill="#ffbecb"/></g></g></g></g></g></g></g><g><path d="m366.632 297.895c-3.896-3.851-10.165-3.851-14.061.001l-44.434 43.93v-171.682l44.549 44.052c1.948 1.927 4.49 2.889 7.031 2.889 2.551 0 5.103-.971 7.052-2.91l36.761-36.566c5.998-5.966 9.293-13.902 9.28-22.347-.014-8.445-3.335-16.371-9.35-22.316l-125.256-123.848c-12.278-12.131-32.256-12.132-44.535.004l-125.201 123.791c-6.032 5.961-9.354 13.906-9.353 22.371 0 8.465 3.323 16.409 9.354 22.368l36.825 36.399c1.948 1.925 4.489 2.888 7.03 2.888s5.083-.963 7.031-2.889l44.434-43.93v171.682l-44.549-44.052c-3.904-3.861-10.191-3.851-14.083.021l-36.761 36.566c-5.998 5.966-9.293 13.902-9.28 22.347.014 8.445 3.334 16.371 9.352 22.318 3.929 3.882 10.259 3.844 14.142-.083 3.882-3.928 3.845-10.26-.083-14.142-2.195-2.169-3.406-5.055-3.411-8.125s1.197-5.959 3.385-8.135l29.729-29.572 89.527 88.528-37.993 37.562-16.651-16.651c-3.905-3.905-10.237-3.905-14.143 0-3.905 3.905-3.905 10.237 0 14.143l60.751 60.321c6.139 6.066 14.201 9.098 22.265 9.098s16.13-3.034 22.27-9.102l125.201-123.791c6.032-5.961 9.354-13.906 9.353-22.371s-3.323-16.409-9.354-22.368zm26.179-142.601c.005 3.07-1.197 5.959-3.385 8.135l-29.729 29.572-89.527-88.528 38.032-37.601 81.198 80.297c2.194 2.169 3.406 5.055 3.411 8.125zm-240.488 37.563-29.796-29.451c-2.2-2.174-3.412-5.066-3.412-8.144s1.211-5.97 3.413-8.146l125.201-123.79c2.264-2.237 5.236-3.355 8.21-3.355 2.972 0 5.944 1.118 8.207 3.354l29.831 29.485zm71.466 168.702v-211.232l32.156-31.792 32.191 31.832v211.232l-32.156 31.792zm165.609 3.25-125.201 123.791c-4.526 4.473-11.891 4.474-16.417.002l-29.831-29.485 141.653-140.048 29.796 29.451c2.2 2.174 3.412 5.066 3.412 8.144.001 3.077-1.211 5.969-3.412 8.145z"/><g><g><g><g><path d="m147.943 413.343c-4.18 0-7.997-2.712-9.405-6.636-1.388-3.87-.204-8.328 2.939-10.987 3.28-2.774 8.089-3.147 11.743-.873 3.496 2.176 5.34 6.403 4.534 10.445-.922 4.615-5.102 8.051-9.811 8.051z"/></g></g></g></g></g></g></svg>