<svg id="Capa_1" enable-background="new 0 0 512 512" height="512" viewBox="0 0 512 512" width="512" xmlns="http://www.w3.org/2000/svg"><g><g><g><g><g><g><path clip-rule="evenodd" d="m302.913 459.154 37.027 36.598c8.432 8.332 22.044 8.331 30.476-.001l125.202-123.793c8.51-8.41 8.509-22.104-.001-30.514l-36.825-36.399z" fill="#ffee80" fill-rule="evenodd"/></g></g></g><g><g><g><g><path d="m302.913 459.154 52.265-51.655-103.78-102.621-36.761 36.566c-8.462 8.418-8.44 22.072.049 30.463" fill="#fff2a0"/></g></g></g><g><g><g><path d="m355.17 407.491 42.156-41.679v-135.424h-84.347v135.383z" fill="#fff7bf"/></g></g></g></g></g><g><g><g><g><path clip-rule="evenodd" d="m209.087 52.846-37.027-36.598c-8.432-8.332-22.044-8.331-30.476.001l-125.202 123.794c-8.51 8.41-8.509 22.104.001 30.514l36.825 36.399z" fill="#ffee80" fill-rule="evenodd"/></g></g></g><g><g><g><path d="m209.087 52.846-52.265 51.655 103.78 102.621 36.761-36.566c8.462-8.418 8.441-22.072-.049-30.462z" fill="#fff2a0"/></g></g></g><g><g><g><g><path d="m156.83 104.509-42.156 41.679v135.423h84.347v-135.382z" fill="#fff7bf"/></g></g></g></g></g></g><g><path d="m502.647 334.331-36.825-36.399c-3.896-3.851-10.166-3.851-14.061.001l-44.435 43.93v-111.474c0-5.523-4.478-10-10-10h-84.348c-5.522 0-10 4.477-10 10v111.43l-44.549-44.052c-3.903-3.86-10.19-3.851-14.084.021l-36.76 36.566c-5.998 5.966-9.294 13.902-9.281 22.346.014 8.445 3.335 16.371 9.352 22.318 3.927 3.881 10.258 3.845 14.142-.083 3.883-3.928 3.846-10.26-.083-14.142-2.194-2.169-3.406-5.055-3.411-8.125s1.197-5.959 3.385-8.135l29.729-29.572 89.528 88.528-37.993 37.562-16.651-16.651c-3.906-3.905-10.236-3.905-14.143 0-3.905 3.905-3.905 10.237 0 14.143l60.751 60.321c6.14 6.066 14.201 9.099 22.266 9.099 8.063 0 16.13-3.035 22.271-9.103l125.2-123.792c6.031-5.961 9.353-13.906 9.353-22.371-.001-8.463-3.323-16.407-9.353-22.366zm-179.669-93.942h64.348v121.248l-32.156 31.791-32.192-31.832zm165.609 124.457-125.2 123.791c-4.526 4.473-11.891 4.474-16.417.002l-29.831-29.485 141.653-140.048 29.796 29.451c2.2 2.174 3.412 5.066 3.412 8.144s-1.211 5.969-3.413 8.145z"/><g><g><g><g><path d="m247.14 413.38c-4.179 0-8.008-2.71-9.415-6.636-1.409-3.931-.164-8.446 3.07-11.093 3.283-2.686 8.009-3.003 11.617-.767 3.496 2.167 5.344 6.414 4.527 10.446-.933 4.61-5.078 8.05-9.799 8.05z"/></g></g></g></g><path d="m304.345 132.983-125.256-123.847c-12.278-12.132-32.254-12.133-44.536.003l-125.201 123.792c-6.031 5.961-9.353 13.905-9.352 22.37.001 8.464 3.323 16.409 9.354 22.368l36.825 36.399c1.948 1.925 4.489 2.888 7.03 2.888s5.083-.963 7.03-2.889l44.434-43.93v111.475c0 5.523 4.478 10 10 10h84.348c5.522 0 10-4.477 10-10v-111.43l44.549 44.051c1.948 1.927 4.489 2.889 7.031 2.889 2.551 0 5.103-.971 7.053-2.91l36.76-36.566c5.998-5.966 9.294-13.902 9.281-22.346-.013-8.445-3.335-16.371-9.35-22.317zm-251.137 59.911-29.796-29.451c-2.2-2.174-3.412-5.066-3.412-8.144s1.211-5.97 3.413-8.146l125.2-123.791c2.264-2.237 5.236-3.355 8.21-3.355 2.972 0 5.944 1.118 8.207 3.353l29.831 29.485zm135.813 78.717h-64.348v-121.248l32.156-31.791 32.192 31.832zm101.289-108.145-29.729 29.572-89.528-88.528 38.033-37.601 81.198 80.297c2.194 2.169 3.406 5.055 3.411 8.125s-1.197 5.959-3.385 8.135z"/></g></g></svg>