<svg id="Capa_1" enable-background="new 0 0 512 512" height="512" viewBox="0 0 512 512" width="512" xmlns="http://www.w3.org/2000/svg"><g><g><g><g><g><g><g><g><path clip-rule="evenodd" d="m440.279 330.36 52.72-52.701c12.002-12.002 12.001-31.376-.002-43.377l-178.329-178.205c-12.115-12.113-31.842-12.112-43.956.002l-52.434 52.415z" fill="#ff7d97" fill-rule="evenodd"/></g></g></g><g><g><g><path d="m440.279 330.36-74.411-74.391-147.83 147.714 52.675 52.323c12.126 12.045 31.795 12.014 43.882-.069" fill="#ff9eb1"/></g></g></g><g><g><g><path d="m305.816 195.979h-295.816v120.054h295.756l60.099-60.052z" fill="#ffbecb"/></g></g></g></g></g></g></g><g><path d="m512 255.969c-.001-10.853-4.238-21.066-11.935-28.761l-178.327-178.203c-16.019-16.017-42.082-16.013-58.097.001l-52.434 52.414c-1.877 1.876-2.931 4.42-2.931 7.073s1.055 5.197 2.931 7.073l70.455 70.412h-271.662c-5.523 0-10 4.477-10 10v120.055c0 5.523 4.477 10 10 10h271.601l-70.632 70.576c-1.881 1.879-2.936 4.43-2.932 7.088.004 2.659 1.066 5.206 2.953 7.08l52.675 52.323c7.991 7.938 18.473 11.905 28.953 11.905 10.507 0 21.013-3.987 29.007-11.958 0 0 0 0 .001-.001l.01-.01c.009-.009.019-.018.029-.028l.001-.001 31.409-31.055c3.927-3.883 3.963-10.214.08-14.142-3.884-3.928-10.216-3.962-14.143-.08l-31.449 31.095c-.004.004-.009.009-.013.013-.009.008-.017.017-.026.025-8.19 8.19-21.544 8.212-29.766.047l-45.553-45.249 133.648-133.543 60.244 60.207-23.567 23.299c-3.928 3.883-3.964 10.214-.081 14.142 1.956 1.979 4.533 2.97 7.111 2.97 2.54 0 5.082-.962 7.03-2.889l83.479-83.118c7.695-7.693 11.931-17.907 11.931-28.76zm-492-49.99h281.675l50.033 50.002-50.092 50.052h-281.616zm465.93 64.607-45.651 45.634-207.856-207.728 45.359-45.342c8.22-8.22 21.594-8.22 29.817 0l178.327 178.203c3.916 3.915 6.073 9.106 6.073 14.617.001 5.511-2.155 10.702-6.069 14.616z"/><g><g><g><g><path d="m378.229 403.066c-4.172 0-8.017-2.701-9.414-6.632-1.374-3.865-.213-8.339 2.939-10.99 3.298-2.775 8.081-3.122 11.749-.864 3.471 2.137 5.321 6.36 4.546 10.362-.899 4.644-5.075 8.124-9.82 8.124z"/></g></g></g></g></g></g></svg>