<svg id="Capa_1" enable-background="new 0 0 511.956 511.956" height="512" viewBox="0 0 511.956 511.956" width="512" xmlns="http://www.w3.org/2000/svg"><g><g><g><g><g><g><path d="m301.944 198.937h80.143v114.084h-80.143z" fill="#ff7d97" transform="matrix(-1 0 0 -1 684.032 511.957)"/></g></g></g></g><g><g><g><g><path d="m421.813 198.937h80.143v114.084h-80.143z" fill="#ffdfe5" transform="matrix(-1 0 0 -1 923.769 511.957)"/></g></g></g></g><g><g><g><g><g><g><g><path clip-rule="evenodd" d="m67.907 326.634-49.5-50.08c-11.269-11.405-11.268-29.816.002-41.219l167.436-169.342c11.375-11.51 29.897-11.509 41.271.002l49.231 49.808z" fill="#ff7d97" fill-rule="evenodd"/></g></g></g><g><g><g><path d="m67.907 326.634 69.865-70.691 138.8 140.368-49.457 49.72c-11.385 11.446-29.853 11.416-41.202-.066" fill="#ff9eb1"/></g></g></g><g><g><g><path d="m194.156 198.937h68.063v114.083h-68.007l-56.428-57.065z" fill="#ffbecb"/></g></g></g></g></g></g></g></g><g><path d="m283.683 389.279-65.519-66.259h44.055c5.523 0 10-4.478 10-10v-114.084c0-5.522-4.477-10-10-10h-44.114l65.354-66.103c3.852-3.896 3.852-10.164.001-14.06l-49.229-49.808c-7.395-7.483-17.248-11.604-27.748-11.605h-.001c-10.499 0-20.354 4.121-27.747 11.602l-167.438 169.344c-15.062 15.238-15.063 40.035-.002 55.277l76.371 76.952c1.953 1.952 4.512 2.929 7.071 2.929 2.56 0 5.118-.977 7.071-2.929 3.905-3.905 3.905-10.237 0-14.142l-19.8-19.799 55.776-56.416 124.704 126.112-42.463 42.688c-3.604 3.624-8.389 5.617-13.477 5.617h-.03c-5.101-.008-9.893-2.019-13.492-5.661-.023-.023-.047-.046-.07-.069l-27.878-27.878c-3.906-3.904-10.236-3.904-14.143 0-3.905 3.905-3.905 10.237 0 14.143l27.907 27.907c.013.013.027.026.041.04 7.37 7.412 17.168 11.502 27.603 11.519h.063c10.45 0 20.271-4.087 27.656-11.512l49.457-49.721c3.872-3.893 3.882-10.179.021-14.084zm-215.776-76.871-42.387-42.883c-7.399-7.489-7.399-19.674 0-27.159l167.437-169.344c3.608-3.651 8.412-5.662 13.524-5.662 5.111 0 9.914 2.012 13.522 5.663l42.281 42.778zm83.94-56.454 46.485-47.018h53.887v94.084h-53.832z"/><g><g><g><g><path d="m126.166 396.219c-4.12 0-7.896-2.62-9.351-6.473-1.491-3.951-.269-8.579 3.006-11.255 3.235-2.643 7.898-2.987 11.481-.842 3.586 2.147 5.493 6.425 4.673 10.53-.923 4.617-5.103 8.04-9.809 8.04z"/></g></g></g></g><g><g><g><path d="m501.956 323.02h-80.144c-5.522 0-10-4.478-10-10v-114.084c0-5.522 4.478-10 10-10h80.144c5.522 0 10 4.478 10 10v114.084c0 5.523-4.478 10-10 10zm-70.144-20h60.144v-94.084h-60.144z"/></g></g></g><g><g><g><path d="m382.088 323.02h-80.143c-5.523 0-10-4.478-10-10v-114.084c0-5.522 4.477-10 10-10h80.143c5.522 0 10 4.478 10 10v114.084c0 5.523-4.478 10-10 10zm-70.144-20h60.143v-94.084h-60.143z"/></g></g></g></g></g></svg>