<svg id="Capa_1" enable-background="new 0 0 511.956 511.956" height="512" viewBox="0 0 511.956 511.956" width="512" xmlns="http://www.w3.org/2000/svg"><g><g><g><g><g><g><path d="m129.868 198.937h80.143v114.084h-80.143z" fill="#ff7d97"/></g></g></g></g><g><g><g><g><path d="m10 198.937h80.143v114.084h-80.143z" fill="#ffdfe5"/></g></g></g></g><g><g><g><g><g><g><g><path clip-rule="evenodd" d="m444.049 326.634 49.5-50.08c11.269-11.405 11.268-29.816-.002-41.219l-167.436-169.342c-11.375-11.51-29.897-11.509-41.271.002l-49.231 49.808z" fill="#ff7d97" fill-rule="evenodd"/></g></g></g><g><g><g><path d="m444.049 326.634-69.865-70.691-138.8 140.368 49.457 49.72c11.385 11.446 29.853 11.416 41.202-.066" fill="#ff9eb1"/></g></g></g><g><g><g><path d="m317.8 198.937h-68.063v114.083h68.007l56.428-57.065z" fill="#ffbecb"/></g></g></g></g></g></g></g></g><g><path d="m500.658 228.304-167.434-169.34c-7.396-7.483-17.25-11.604-27.749-11.604-10.5.001-20.354 4.122-27.747 11.604l-49.231 49.809c-3.851 3.896-3.85 10.164.001 14.06l65.354 66.103h-44.115c-5.523 0-10 4.478-10 10v114.084c0 5.522 4.477 10 10 10h44.055l-65.519 66.259c-3.86 3.904-3.851 10.19.021 14.084l49.457 49.721c7.386 7.425 17.205 11.512 27.656 11.512h.064c10.435-.017 20.233-4.107 27.603-11.519.014-.013.027-.026.041-.039l27.907-27.907c3.905-3.905 3.905-10.237 0-14.143-3.906-3.904-10.236-3.904-14.143 0l-27.875 27.875c-.025.024-.049.048-.074.073-3.6 3.642-8.392 5.653-13.492 5.661h-.03c-5.089 0-9.874-1.994-13.478-5.616l-42.463-42.689 124.703-126.112 55.776 56.416-19.799 19.799c-3.905 3.905-3.905 10.237 0 14.142 1.953 1.952 4.512 2.929 7.071 2.929s5.118-.977 7.071-2.929l76.372-76.953c15.061-15.243 15.06-40.04-.003-55.28zm-240.922 74.716v-94.084h53.888l46.485 47.018-46.54 47.066zm226.7-33.496-42.388 42.884-194.378-196.606 42.283-42.779c3.607-3.65 8.41-5.662 13.522-5.662s9.916 2.011 13.525 5.664l167.435 169.34c7.4 7.486 7.4 19.671.001 27.159z"/><g><g><g><g><path d="m385.79 396.228c-4.121 0-7.906-2.635-9.36-6.483-1.498-3.965-.255-8.568 3.015-11.255 3.274-2.691 8.024-2.984 11.621-.759s5.423 6.649 4.454 10.765c-1.051 4.466-5.135 7.732-9.73 7.732z"/></g></g></g></g><g><g><g><path d="m90.143 323.02h-80.143c-5.523 0-10-4.478-10-10v-114.084c0-5.522 4.477-10 10-10h80.143c5.523 0 10 4.478 10 10v114.084c0 5.523-4.477 10-10 10zm-70.143-20h60.143v-94.084h-60.143z"/></g></g></g><g><g><g><path d="m210.012 323.02h-80.143c-5.523 0-10-4.478-10-10v-114.084c0-5.522 4.477-10 10-10h80.143c5.523 0 10 4.478 10 10v114.084c0 5.523-4.477 10-10 10zm-70.144-20h60.143v-94.084h-60.143z"/></g></g></g></g></g></svg>