<svg id="Capa_1" enable-background="new 0 0 512 512" height="512" viewBox="0 0 512 512" width="512" xmlns="http://www.w3.org/2000/svg"><g><g><g><g><g><path d="m473.882 348.052 28.118 27.84-42.755 42.476c-9.842 9.778-25.808 9.753-35.618-.056l-102.015-101.945 60.398-60.391" fill="#66e0f7"/></g></g></g><g><g><g><g><g><g><g><g><path clip-rule="evenodd" d="m321.612 316.367-42.792-42.783c-9.742-9.743-9.741-25.471.002-35.214l144.745-144.668c9.834-9.833 25.845-9.832 35.678.002l42.559 42.551z" fill="#ccf5fc" fill-rule="evenodd"/></g></g></g></g></g></g></g></g><g><g><g><g><path clip-rule="evenodd" d="m190.389 316.367 42.792-42.783c9.742-9.743 9.741-25.471-.002-35.214l-144.746-144.668c-9.834-9.833-25.845-9.832-35.678.002l-42.559 42.551z" fill="#66e0f7" fill-rule="evenodd"/></g></g></g><g><g><g><g><g><path d="m10 375.892 42.755 42.476c9.842 9.778 25.808 9.753 35.618-.056l102.015-101.944-60.398-60.391z" fill="#ccf5fc"/></g></g></g></g></g></g></g><g><g><g><g><path d="m441.68 326.056c-4.224 0-8.12-2.782-9.47-6.786-1.342-3.981-.008-8.515 3.32-11.094 3.145-2.437 7.521-2.771 11.001-.852 3.624 1.999 5.682 6.208 5.023 10.299-.772 4.783-5.014 8.433-9.874 8.433z"/></g></g></g><path d="m240.248 231.297-144.745-144.667c-6.645-6.644-15.491-10.303-24.91-10.303-9.42.001-18.266 3.66-24.909 10.304l-42.559 42.551c-1.876 1.876-2.93 4.42-2.93 7.072 0 2.653 1.055 5.197 2.931 7.072l112.709 112.659-112.903 112.834c-1.881 1.879-2.936 4.43-2.932 7.088.004 2.659 1.066 5.206 2.952 7.08l42.755 42.476c6.854 6.809 15.841 10.21 24.829 10.21 9.023 0 18.048-3.431 24.905-10.288l144.811-144.73c13.606-13.609 13.605-35.749-.004-49.358zm-158.945 179.943c-5.919 5.918-15.563 5.931-21.5.034l-35.635-35.403 105.813-105.746 46.262 46.242zm144.807-144.728-35.722 35.714-166.048-165.973 35.485-35.479c2.867-2.867 6.691-4.447 10.769-4.447 4.076 0 7.9 1.579 10.77 4.447l144.745 144.667c5.809 5.81 5.809 15.262.001 21.071z"/><path d="m509.036 368.786-28.117-27.84c-3.925-3.885-10.255-3.855-14.143.07-3.886 3.925-3.854 10.256.07 14.142l20.953 20.746-35.603 35.37c-5.936 5.898-15.582 5.883-21.502-.036l-94.938-94.871 45.858-45.837 21.107 20.923c1.95 1.933 4.495 2.898 7.04 2.898 2.573 0 5.146-.988 7.102-2.96 3.889-3.922 3.86-10.253-.061-14.142l-21.041-20.859 113.113-113.063c1.876-1.875 2.931-4.419 2.931-7.072 0-2.652-1.054-5.197-2.93-7.072l-42.558-42.55c-6.645-6.645-15.49-10.305-24.91-10.305-.001 0 0 0-.002 0-9.417 0-18.265 3.659-24.907 10.301l-144.747 144.67c-13.608 13.607-13.609 35.747-.002 49.357l144.808 144.727c6.859 6.859 15.882 10.29 24.908 10.289 8.986 0 17.976-3.403 24.828-10.21l42.755-42.476c1.892-1.879 2.954-4.436 2.952-7.103-.002-2.666-1.069-5.221-2.964-7.097zm-223.145-123.343 144.747-144.67c2.867-2.867 6.691-4.445 10.768-4.445h.001c4.077 0 7.901 1.58 10.77 4.448l35.484 35.478-166.05 165.972-35.721-35.713c-5.808-5.81-5.808-15.262.001-21.07z"/></g></g></svg>