<svg id="Capa_1" enable-background="new 0 0 511.97 511.97" height="512" viewBox="0 0 511.97 511.97" width="512" xmlns="http://www.w3.org/2000/svg"><g><g><g><g><g><path d="m299.631 348.031-28.118 27.84 42.755 42.476c9.842 9.778 25.808 9.753 35.618-.056l102.015-101.944-60.398-60.391" fill="#66e0f7"/></g></g></g><g><g><g><path clip-rule="evenodd" d="m451.902 316.346 42.792-42.783c9.742-9.743 9.741-25.471-.002-35.214l-144.746-144.669c-9.834-9.833-25.845-9.832-35.678.002l-42.559 42.551z" fill="#ccf5fc" fill-rule="evenodd"/></g></g></g><g><g><g><g><path clip-rule="evenodd" d="m60.098 195.624-42.792 42.783c-9.742 9.743-9.741 25.471.002 35.214l144.746 144.668c9.834 9.833 25.846 9.832 35.678-.002l42.559-42.551z" fill="#ccf5fc" fill-rule="evenodd"/></g></g></g><g><g><g><g><g><path d="m240.486 136.099-42.755-42.476c-9.842-9.778-25.808-9.753-35.618.056l-102.015 101.945 60.398 60.391z" fill="#66e0f7"/></g></g></g></g></g></g></g><g><g><g><g><path d="m331.84 326.035c-4.177 0-8.007-2.709-9.415-6.636-1.388-3.873-.196-8.328 2.946-10.986 3.288-2.781 8.084-3.119 11.745-.864 3.496 2.154 5.334 6.414 4.524 10.436-.929 4.613-5.083 8.05-9.8 8.05z"/></g></g></g><path d="m501.762 231.276-144.745-144.667c-6.645-6.644-15.491-10.303-24.91-10.303-9.42.001-18.266 3.66-24.909 10.304l-42.56 42.551c-1.876 1.876-2.93 4.419-2.93 7.072s1.055 5.197 2.931 7.072l113.114 113.063-21.041 20.858c-3.922 3.889-3.95 10.22-.062 14.142 1.955 1.973 4.528 2.96 7.102 2.96 2.545 0 5.09-.965 7.04-2.898l21.106-20.923 45.858 45.837-94.94 94.874c-5.919 5.919-15.564 5.933-21.5.034l-35.603-35.37 20.953-20.746c3.925-3.886 3.956-10.217.07-14.142-3.888-3.925-10.219-3.955-14.143-.07l-28.117 27.84c-1.894 1.876-2.962 4.431-2.964 7.098s1.061 5.223 2.952 7.103l42.755 42.476c6.853 6.809 15.841 10.211 24.829 10.21 9.023 0 18.048-3.431 24.905-10.288l144.81-144.731c13.609-13.608 13.608-35.749-.001-49.356zm-14.138 35.215-35.722 35.714-166.05-165.973 35.486-35.479c2.867-2.867 6.691-4.447 10.768-4.447 4.076-.001 7.9 1.579 10.77 4.447l144.746 144.667c5.81 5.809 5.81 15.262.002 21.071z"/><path d="m250.486 136.084c-.004-2.659-1.066-5.206-2.952-7.08l-42.755-42.476c-13.735-13.645-36.047-13.609-49.735.077l-144.809 144.731c-6.601 6.601-10.236 15.366-10.235 24.679 0 9.313 3.636 18.077 10.238 24.679l144.745 144.667c6.645 6.645 15.492 10.303 24.911 10.303 9.419-.001 18.265-3.66 24.908-10.304l42.56-42.551c1.876-1.875 2.93-4.419 2.93-7.072s-1.054-5.197-2.931-7.072l-112.709-112.66 112.904-112.833c1.879-1.879 2.934-4.429 2.93-7.088zm-59.826 275.133c-2.867 2.867-6.69 4.446-10.768 4.446-4.077 0-7.901-1.579-10.77-4.447l-144.744-144.666c-5.81-5.809-5.81-15.262-.002-21.071l35.721-35.714 166.049 165.973zm-70.154-169.351-46.262-46.241 94.939-94.873c5.919-5.917 15.564-5.933 21.501-.034l35.635 35.403z"/></g></g></svg>