<svg id="Capa_1" enable-background="new 0 0 512.001 512.001" height="512" viewBox="0 0 512.001 512.001" width="512" xmlns="http://www.w3.org/2000/svg"><g><g><g><g><g><path d="m387.598 282.766-.033 67.816 80.834.04c18.608.009 33.669-15.004 33.6-33.494l-.664-192.214-114.559-.424" fill="#66e0f7"/></g></g></g><g><g><g><path clip-rule="evenodd" d="m501.336 124.915-.298-80.647c-.071-18.363-15.045-33.241-33.525-33.31l-274.488-.957c-18.652-.069-33.78 14.964-33.709 33.498l.297 80.209z" fill="#ccf5fc" fill-rule="evenodd"/></g></g></g><g><g><g><g><path clip-rule="evenodd" d="m10.664 387.086.299 80.647c.071 18.363 15.045 33.241 33.525 33.31l274.488.957c18.652.069 33.78-14.964 33.709-33.498l-.297-80.209z" fill="#66e0f7" fill-rule="evenodd"/></g></g></g><g><g><g><g><g><path d="m124.435 161.419-80.834-.04c-18.608-.009-33.669 15.004-33.6 33.494l.664 192.214 114.559.424z" fill="#ccf5fc"/></g></g></g></g></g></g></g><g><g><g><g><path d="m387.6 247.34c-4.232 0-8.107-2.77-9.47-6.779-1.287-3.784-.13-8.103 2.877-10.737 3.28-2.873 8.165-3.253 11.869-.97 3.451 2.127 5.294 6.3 4.554 10.283-.872 4.692-5.048 8.203-9.83 8.203z"/></g></g></g><path d="m511.038 44.229c-.093-23.771-19.602-43.183-43.49-43.271l-274.486-.958c-11.779-.042-22.777 4.494-31.061 12.778-8.225 8.226-12.73 19.149-12.686 30.757l.297 80.209c.02 5.495 4.47 9.943 9.965 9.963l218.021.77v57.714c0 5.523 4.478 10 10 10s10-4.477 10-10v-57.643l93.772.331.63 182.287c.023 6.224-2.393 12.087-6.803 16.512-4.465 4.479-10.424 6.945-16.78 6.945h-.013l-70.834-.036.027-57.815c.003-5.523-4.473-10.002-9.995-10.005h-.005c-5.521 0-9.997 4.474-10 9.995l-.032 67.815c-.003 5.523 4.473 10.002 9.995 10.005l80.834.041h.023c11.71-.001 22.699-4.555 30.943-12.825 8.193-8.219 12.682-19.124 12.639-30.703zm-341.722-.769c-.024-6.238 2.401-12.112 6.828-16.541 4.464-4.464 10.41-6.919 16.755-6.919h.091l274.486.958c12.942.048 23.513 10.522 23.563 23.347l.261 70.573-321.724-1.134z"/><path d="m352.423 378.293-217.235-.767-.753-216.142c-.02-5.507-4.487-9.962-9.995-9.965l-80.834-.041h-.023c-11.71 0-22.699 4.555-30.943 12.825-8.194 8.219-12.683 19.124-12.64 30.704l.962 272.865c.093 23.772 19.602 43.183 43.49 43.271l274.487.957h.168c11.684 0 22.649-4.534 30.893-12.778 8.225-8.226 12.73-19.149 12.686-30.757l-.297-80.209c-.022-5.495-4.471-9.944-9.966-9.963zm-325.62-199.97c4.465-4.479 10.424-6.945 16.78-6.945h.013l70.874.036.718 206.041-94.558-.334-.63-182.286c-.023-6.224 2.393-12.087 6.803-16.512zm309.054 306.758c-4.485 4.485-10.494 6.935-16.846 6.919l-274.486-.957c-12.942-.048-23.513-10.522-23.563-23.347l-.261-70.573 321.724 1.134.26 70.283c.024 6.239-2.401 12.113-6.828 16.541z"/></g></g></svg>