<svg id="Capa_1" enable-background="new 0 0 512 512" height="512" viewBox="0 0 512 512" width="512" xmlns="http://www.w3.org/2000/svg"><g><g><g><g><g><g><g><g><path d="m188.335 444.711v40.934c0 11.119-12.698 17.381-21.428 10.568l-151.762-118.443c-6.86-5.354-6.86-15.782 0-21.136l29.291-22.86" fill="#ccf5fc"/></g></g></g><g><g><g><path d="m188.335 248.759v62.974h128.836v110.938h-128.836v22.041l-143.899-110.938 122.471-95.583c8.73-6.814 21.428-.551 21.428 10.568z" fill="#66e0f7"/></g></g></g></g></g></g><g><g><g><g><g><g><g><g><path d="m323.665 67.288v-40.933c0-11.119 12.698-17.381 21.428-10.568l151.762 118.443c6.86 5.354 6.86 15.782 0 21.136l-29.291 22.86" fill="#66e0f7"/></g></g></g><g><g><g><path d="m467.565 178.226-122.471 95.583c-8.73 6.814-21.428.551-21.428-10.568v-62.974h-111.777v-110.938h111.777v-22.041" fill="#ccf5fc"/></g></g></g></g></g></g></g></g></g><g><g><path d="m317.171 301.733h-118.836v-52.975c0-9.021-5.021-17.075-13.105-21.021-8.039-3.924-17.418-2.94-24.477 2.569l-151.762 118.445c-5.715 4.461-8.991 11.186-8.991 18.452s3.277 13.99 8.992 18.449l151.762 118.444c4.191 3.27 9.2 4.946 14.262 4.946 3.462 0 6.949-.784 10.215-2.378 8.083-3.945 13.105-12 13.105-21.021v-52.974h118.836c5.522 0 10-4.478 10-10v-110.936c-.001-5.522-4.479-10-10.001-10zm-138.836 183.911c0 1.853-1.176 2.705-1.877 3.047-.822.403-2.081.666-3.399-.361l-151.762-118.443c-1.128-.881-1.297-2.06-1.297-2.685s.169-1.804 1.297-2.684l23.176-18.088 133.862 103.2zm128.836-72.973h-118.836c-5.523 0-10 4.478-10 10v1.705l-117.584-90.651 112.308-87.65c1.316-1.029 2.576-.766 3.399-.362.701.342 1.877 1.193 1.877 3.047v62.975c0 5.522 4.477 10 10 10h118.836z"/><path d="m503.008 126.348-151.762-118.445c-7.06-5.508-16.436-6.492-24.477-2.568-8.083 3.945-13.104 12-13.104 21.021v52.974h-101.776c-5.523 0-10 4.478-10 10v110.938c0 5.522 4.477 10 10 10h101.776v52.975c0 9.02 5.021 17.075 13.104 21.02 3.266 1.594 6.752 2.378 10.215 2.378 5.061 0 10.07-1.676 14.262-4.947l151.763-118.443c5.715-4.461 8.991-11.186 8.991-18.452 0-7.268-3.277-13.992-8.992-18.451zm-12.305 21.134-20.937 16.34-35.26-26.243c-4.433-3.296-10.696-2.378-13.993 2.052-3.297 4.431-2.379 10.695 2.052 13.993l30.85 22.96-114.473 89.34c-1.318 1.028-2.576.765-3.399.362-.701-.342-1.877-1.193-1.877-3.047v-62.975c0-5.523-4.478-10-10-10h-101.777v-90.935h101.776c5.522 0 10-4.478 10-10v-1.869l16.37 12.183c1.794 1.334 3.887 1.979 5.963 1.979 3.053 0 6.067-1.394 8.03-4.03 3.297-4.431 2.379-10.695-2.052-13.993l-28.312-21.071v-36.173c0-1.854 1.176-2.705 1.877-3.047.824-.402 2.082-.665 3.399.361l151.762 118.443c1.128.881 1.297 2.061 1.297 2.685.001.626-.168 1.805-1.296 2.685z"/></g><g><g><g><g><path d="m392.12 128.5c-4.175 0-8.007-2.695-9.405-6.631-1.359-3.823-.251-8.204 2.811-10.885 3.185-2.789 7.927-3.251 11.591-1.137 3.666 2.115 5.65 6.456 4.812 10.613-.929 4.617-5.098 8.04-9.809 8.04z"/></g></g></g></g></g></g></svg>