<svg xmlns="http://www.w3.org/2000/svg" id="Layer_1" data-name="Layer 1" viewBox="0 0 329 658"><defs><style>.cls-1{fill:#afafaf;}.cls-2{fill:#333;}</style></defs><path class="cls-1" d="M327,56.37a116.64,116.64,0,0,0-1.46-17.06A48.3,48.3,0,0,0,321,25.58a44.32,44.32,0,0,0-8.37-11.31,45.59,45.59,0,0,0-11.54-8.19,50.73,50.73,0,0,0-14-4.5A125.88,125.88,0,0,0,269.63.15C266.72.06,263.77,0,260.94,0H68c-2.83,0-5.78.06-8.69.15A125.88,125.88,0,0,0,41.83,1.58a50.66,50.66,0,0,0-14,4.5,45.47,45.47,0,0,0-11.55,8.19A44.28,44.28,0,0,0,7.91,25.58a48,48,0,0,0-4.6,13.73A116.64,116.64,0,0,0,1.85,56.37c-.09,2.86-.14,5.74-.15,8.51V593.12c0,2.77.06,5.65.15,8.51a116.64,116.64,0,0,0,1.46,17.06,48,48,0,0,0,4.6,13.73,44.28,44.28,0,0,0,8.36,11.31,45.47,45.47,0,0,0,11.55,8.19,50.66,50.66,0,0,0,14,4.5,125.88,125.88,0,0,0,17.43,1.43c2.91.09,5.86.14,8.69.15h193c2.83,0,5.78-.06,8.69-.15a125.88,125.88,0,0,0,17.43-1.43,50.73,50.73,0,0,0,14-4.5,45.59,45.59,0,0,0,11.54-8.19A44.32,44.32,0,0,0,321,632.42a48.3,48.3,0,0,0,4.59-13.73A116.64,116.64,0,0,0,327,601.63c.09-2.86.15-5.74.16-8.51V64.88C327.19,62.11,327.13,59.23,327,56.37ZM309,603.12c0,1.65,0,3.41-.11,5.13a43.71,43.71,0,0,1-1.4,8.58A28.81,28.81,0,0,1,300,630.14a28.49,28.49,0,0,1-13.37,7.29A44,44,0,0,1,278,639c-1,.06-2.14.09-3.53.09-1.08,0-2.26,0-3.57,0-1.67,0-3.56,0-5.79,0H63.06c-2.24,0-4.12,0-5.79,0-1.32,0-2.49,0-3.57,0-1.39,0-2.51,0-3.53-.09a43.87,43.87,0,0,1-8.61-1.57,27.77,27.77,0,0,1-20.9-20.6,42.88,42.88,0,0,1-1.43-8.5c-.2-3.16-.23-6.55-.23-12.93V61.22c0-6.24.2-9.9.38-12.84a44.18,44.18,0,0,1,1.28-8.59A28.81,28.81,0,0,1,41.57,18.86a45,45,0,0,1,8.62-1.41l.68,0c3.07-.19,6.55-.41,12.2-.41H78.91a8.16,8.16,0,0,1,6.3,2.58,7,7,0,0,1,1.59,5.16,12.05,12.05,0,0,0,.42,3.73l0,.19A14,14,0,0,0,98,39.38a32.09,32.09,0,0,0,6.18.54l2.16.08H222l2.16-.08a32.17,32.17,0,0,0,6.18-.54A14,14,0,0,0,241.1,28.66l0-.19a12,12,0,0,0,.43-3.73,7,7,0,0,1,1.59-5.16,8.16,8.16,0,0,1,6.3-2.58h15.67c5.65,0,9.13.22,12.21.41l.68,0a45,45,0,0,1,8.61,1.41,28.76,28.76,0,0,1,20.9,20.9,44.65,44.65,0,0,1,1.26,8.57c.21,3.3.21,6.89.21,12.83V594.23c0,1.91,0,3.57,0,5S309.05,602,309,603.12Z"/><path d="M322.15,59.14a113.26,113.26,0,0,0-1.42-16.54,46.72,46.72,0,0,0-4.46-13.31,43,43,0,0,0-8.11-11A43.84,43.84,0,0,0,297,10.4,48.63,48.63,0,0,0,283.36,6a119.62,119.62,0,0,0-16.91-1.39c-2.83-.09-5.68-.14-8.43-.15H70.78c-2.75,0-5.61.06-8.43.15A119.62,119.62,0,0,0,45.44,6a48.81,48.81,0,0,0-13.6,4.36,44,44,0,0,0-11.2,7.93,42.81,42.81,0,0,0-8.11,11A46.42,46.42,0,0,0,8.07,42.6,113.26,113.26,0,0,0,6.65,59.14c-.09,2.76-.14,5.56-.15,8.25v523c0,2.69.06,5.49.15,8.25a113.26,113.26,0,0,0,1.42,16.54,46.42,46.42,0,0,0,4.46,13.31,42.81,42.81,0,0,0,8.11,11,43.71,43.71,0,0,0,11.2,7.93,48.81,48.81,0,0,0,13.6,4.36,119.62,119.62,0,0,0,16.91,1.39c2.82.09,5.68.14,8.43.15H258c2.75,0,5.6-.06,8.43-.15a119.62,119.62,0,0,0,16.91-1.39A48.63,48.63,0,0,0,297,647.35a43.59,43.59,0,0,0,11.21-7.93,43,43,0,0,0,8.11-11,46.72,46.72,0,0,0,4.46-13.31,113.26,113.26,0,0,0,1.42-16.54c.09-2.76.14-5.56.15-8.25v-523C322.29,64.7,322.24,61.9,322.15,59.14ZM307,604c0,1.89,0,3.48-.1,5a42.09,42.09,0,0,1-1.35,8.22,25.72,25.72,0,0,1-19.47,19.19,41,41,0,0,1-8.22,1.51c-3.24.2-6.79.09-12.85.09H63.2c-6.1,0-9.66.11-12.91-.09a41,41,0,0,1-8.23-1.51,26.58,26.58,0,0,1-12.46-6.77,26.87,26.87,0,0,1-7-12.42,41.22,41.22,0,0,1-1.36-8.13c-.2-3.22-.23-6.84-.23-12.84v-535c0-6,.17-9.52.37-12.74a43.37,43.37,0,0,1,1.22-8.21A26.84,26.84,0,0,1,42.07,20.8a42.44,42.44,0,0,1,8.24-1.35c3.23-.2,6.76-.45,12.77-.45H78.85a6.23,6.23,0,0,1,4.87,1.92c1,1.16,1.07,2.38,1.08,3.84a14.34,14.34,0,0,0,.51,4.35A16.06,16.06,0,0,0,97.59,41.37a51.61,51.61,0,0,0,8.73.66H222.05a51.7,51.7,0,0,0,8.73-.66,16,16,0,0,0,12.27-12.26,14,14,0,0,0,.52-4.35c0-1.46,0-2.68,1.07-3.84A6.27,6.27,0,0,1,249.52,19h15.61c6,0,9.54.25,12.77.45a42.22,42.22,0,0,1,8.22,1.35,27.24,27.24,0,0,1,12.47,7.08,26.91,26.91,0,0,1,7,12.42,42.39,42.39,0,0,1,1.21,8.2c.2,3.21.2,6.74.2,12.72V595.08C307,598.85,307.05,601.64,307,604Z"/><rect class="cls-1" y="100.67" width="2.72" height="24.89"/><path class="cls-1" d="M2.26,150.28h.45a0,0,0,0,1,0,0v48a0,0,0,0,1,0,0H2.26A2.26,2.26,0,0,1,0,196V152.54A2.26,2.26,0,0,1,2.26,150.28Z"/><path class="cls-1" d="M2.72,258.43H2.27A2.27,2.27,0,0,1,0,256.16V212.72a2.26,2.26,0,0,1,2.27-2.26h.45Z"/><path class="cls-1" d="M326.28,242.09h.45a2.26,2.26,0,0,0,2.27-2.26v-72a2.27,2.27,0,0,0-2.27-2.27h-.45Z"/><path class="cls-2" d="M192.07,28.1a5.54,5.54,0,1,1,5.53,5.52,5.53,5.53,0,0,1-5.53-5.52"/><path class="cls-2" d="M180.34,30.4H149a3.17,3.17,0,0,1-2-.47,2.28,2.28,0,0,1-.91-1.83,2.25,2.25,0,0,1,.91-1.82,3.12,3.12,0,0,1,2-.48h31.37a3.12,3.12,0,0,1,2,.48,2.26,2.26,0,0,1,.92,1.82,2.29,2.29,0,0,1-.92,1.83A3.17,3.17,0,0,1,180.34,30.4Z"/></svg>
