<svg height="512pt" viewBox="0 0 512 512" width="512pt" xmlns="http://www.w3.org/2000/svg"><path d="m502 50v412c0 22.089844-17.910156 40-40 40h-412c-22.089844 0-40-17.910156-40-40v-412c0-22.089844 17.910156-40 40-40h412c22.089844 0 40 17.910156 40 40zm0 0" fill="#f0f0fa"/><path d="m302.671875 146 113.328125 190h-89.648438l-117.023437-190zm0 0" fill="#fcda4c"/><path d="m416 336-49 70h-222l-1.308594-1.871094 41.957032-68.128906zm0 0" fill="#7d97f4"/><path d="m209.328125 146 46.671875 75.78125-112.308594 182.347656-47.691406-68.128906zm0 0" fill="#7dd787"/><path d="m386 53c0 5.523438-4.476562 10-10 10s-10-4.476562-10-10 4.476562-10 10-10 10 4.476562 10 10zm0 0"/><path d="m424.589844 330.878906-113.332032-190c-1.804687-3.027344-5.066406-4.878906-8.585937-4.878906h-93.34375c-3.820313 0-6.636719 1.882812-8.660156 5-.003907.007812-.007813.011719-.011719.019531l-113.246094 189.859375c-2.015625 3.378906-1.859375 7.628906.398438 10.855469l47.691406 68.132813c.027344.039062.050781.074218.078125.109374.628906.617188 2.984375 6.023438 9.421875 6.023438h222c3.261719 0 6.320312-1.59375 8.191406-4.265625l49-70c.011719-.015625.019532-.035156.03125-.050781 2.21875-3.199219 2.367188-7.457032.367188-10.804688zm-26.199219-4.878906h-66.457031l-104.699219-170h69.757813zm-89.945313 0h-104.890624l52.445312-85.152344zm-98.976562-160.707031 34.789062 56.484375-101.101562 164.152344-35.253906-50.363282zm152.324219 230.707031h-201.351563l30.796875-50h205.554688zm0 0"/><path d="m462 0h-412c-27.570312 0-50 22.429688-50 50v412c0 27.570312 22.429688 50 50 50h412c27.570312 0 50-22.429688 50-50v-412c0-27.570312-22.429688-50-50-50zm30 462c0 16.542969-13.457031 30-30 30h-412c-16.542969 0-30-13.457031-30-30v-412c0-16.542969 13.457031-30 30-30h412c16.542969 0 30 13.457031 30 30zm0 0"/><path d="m136 63h200c5.523438 0 10-4.476562 10-10s-4.476562-10-10-10h-200c-5.523438 0-10 4.476562-10 10s4.476562 10 10 10zm0 0"/></svg>