<svg height="512pt" viewBox="0 0 512 512" width="512pt" xmlns="http://www.w3.org/2000/svg"><path d="m502 50v412c0 22.089844-17.910156 40-40 40h-412c-22.089844 0-40-17.910156-40-40v-412c0-22.089844 17.910156-40 40-40h412c22.089844 0 40 17.910156 40 40zm0 0" fill="#7d97f4"/><g fill="#f0f0fa"><path d="m416 306v130h-140c0-26.351562 0-104.382812 0-130 0-38.660156 31.339844-70 70-70 38.65625 0 70 31.339844 70 70zm0 0"/><path d="m396 166c0 27.613281-22.386719 50-50 50s-50-22.386719-50-50 22.386719-50 50-50 50 22.386719 50 50zm0 0"/><path d="m276 376h-100c0-3.183594 0-106.949219 0-110 0-27.609375 22.390625-50 50-50 27.597656 0 50 22.398438 50 50zm0 0"/><path d="m256 166c0 16.570312-13.429688 30-30 30s-30-13.429688-30-30 13.429688-30 30-30 30 13.429688 30 30zm0 0"/><path d="m176 336h-80v-80c0-22.089844 17.910156-40 40-40 22.078125 0 40 17.917969 40 40zm0 0"/><path d="m156 176c0 11.046875-8.953125 20-20 20s-20-8.953125-20-20 8.953125-20 20-20 20 8.953125 20 20zm0 0"/></g><path d="m386 53c0 5.523438-4.476562 10-10 10s-10-4.476562-10-10 4.476562-10 10-10 10 4.476562 10 10zm0 0"/><path d="m346 226c-24.484375 0-46.425781 11.066406-61.109375 28.449219-5.316406-27.378907-29.476563-48.449219-58.890625-48.449219-19.367188 0-36.613281 9.234375-47.589844 23.519531-9.070312-14.460937-24.816406-23.519531-42.410156-23.519531-27.570312 0-50 22.429688-50 50v80c0 5.523438 4.476562 10 10 10h70v30c0 5.523438 4.476562 10 10 10h90v50c0 5.523438 4.476562 10 10 10h140c5.523438 0 10-4.476562 10-10v-130c0-44.035156-35.621094-80-80-80zm-240 30c0-16.542969 13.457031-30 30-30 16.570312 0 30 13.429688 30 30v70h-60zm80 10c0-22.054688 17.945312-40 40-40 22.09375 0 40 17.90625 40 40v100h-80c0-12.015625 0-88.109375 0-100zm220 160h-120c0-25.570312 0-92.601562 0-120 0-33.085938 26.914062-60 60-60 33.023438 0 60 26.714844 60 60zm0 0"/><path d="m406 166c0-33.085938-26.914062-60-60-60s-60 26.914062-60 60 26.914062 60 60 60 60-26.914062 60-60zm-60 40c-22.054688 0-40-17.945312-40-40s17.945312-40 40-40 40 17.945312 40 40-17.945312 40-40 40zm0 0"/><path d="m266 166c0-22.054688-17.945312-40-40-40s-40 17.945312-40 40 17.945312 40 40 40 40-17.945312 40-40zm-40 20c-11.027344 0-20-8.972656-20-20s8.972656-20 20-20 20 8.972656 20 20-8.972656 20-20 20zm0 0"/><path d="m462 0h-412c-27.570312 0-50 22.429688-50 50v412c0 27.570312 22.429688 50 50 50h412c27.570312 0 50-22.429688 50-50v-412c0-27.570312-22.429688-50-50-50zm30 462c0 16.542969-13.457031 30-30 30h-412c-16.542969 0-30-13.457031-30-30v-412c0-16.542969 13.457031-30 30-30h412c16.542969 0 30 13.457031 30 30zm0 0"/><path d="m136 63h200c5.523438 0 10-4.476562 10-10s-4.476562-10-10-10h-200c-5.523438 0-10 4.476562-10 10s4.476562 10 10 10zm0 0"/><path d="m166 176c0-16.542969-13.457031-30-30-30s-30 13.457031-30 30 13.457031 30 30 30 30-13.457031 30-30zm-30 10c-5.515625 0-10-4.484375-10-10s4.484375-10 10-10 10 4.484375 10 10-4.484375 10-10 10zm0 0"/></svg>