<svg height="512pt" viewBox="0 0 512 512" width="512pt" xmlns="http://www.w3.org/2000/svg"><path d="m502 50v412c0 22.089844-17.910156 40-40 40h-412c-22.089844 0-40-17.910156-40-40v-412c0-22.089844 17.910156-40 40-40h412c22.089844 0 40 17.910156 40 40zm0 0" fill="#ffa143"/><path d="m416 276c0-16.570312-13.429688-30-30-30-10.558594 0-19.828125 5.460938-25.191406 13.691406-25.648438-20.660156-63.097656-33.691406-104.808594-33.691406s-79.160156 13.03125-104.808594 33.691406c-5.363281-8.230468-14.632812-13.691406-25.191406-13.691406-16.570312 0-30 13.429688-30 30 0 14.171875 9.828125 26.039062 23.03125 29.191406-1.980469 6.707032-3.03125 13.667969-3.03125 20.808594 0 55.230469 62.679688 100 140 100s140-44.769531 140-100c0-7.140625-1.050781-14.101562-3.03125-20.808594 13.203125-3.152344 23.03125-15.019531 23.03125-29.191406zm0 0" fill="#f0f0fa"/><path d="m366 126c16.570312 0 30 13.429688 30 30s-13.429688 30-30 30-30-13.429688-30-30c0-16.542969 13.402344-30 30-30zm0 0" fill="#f0f0fa"/><path d="m336 306c0 11.046875-8.953125 20-20 20s-20-8.953125-20-20 8.953125-20 20-20 20 8.953125 20 20zm0 0" fill="#ffa143"/><path d="m216 306c0 11.046875-8.953125 20-20 20s-20-8.953125-20-20 8.953125-20 20-20 20 8.953125 20 20zm0 0" fill="#ffa143"/><path d="m386 53c0 5.523438-4.476562 10-10 10s-10-4.476562-10-10 4.476562-10 10-10 10 4.476562 10 10zm0 0"/><path d="m311.71875 364.332031c-16.105469 7.632813-35.375 11.667969-55.71875 11.667969s-39.609375-4.035156-55.71875-11.667969c-4.988281-2.363281-10.953125-.234375-13.316406 4.753907-2.367188 4.992187-.238282 10.953124 4.753906 13.320312 18.765625 8.894531 40.992188 13.59375 64.28125 13.59375s45.515625-4.699219 64.28125-13.59375c4.992188-2.363281 7.121094-8.328125 4.753906-13.316406-2.363281-4.992188-8.324218-7.121094-13.316406-4.757813zm0 0"/><path d="m386 236c-9.972656 0-19.375 3.683594-26.617188 10.152344-25.832031-17.9375-59.796874-28.628906-95.519531-30l19.105469-74.082032 43.058594 15.0625c.605468 21.53125 18.296875 38.867188 39.972656 38.867188 22.054688 0 40-17.945312 40-40s-17.945312-40-40-40c-15.1875 0-28.730469 8.597656-35.472656 21.515625l-51.226563-17.914063c-2.644531-.925781-5.546875-.699218-8.015625.621094-2.46875 1.316406-4.269531 3.613282-4.96875 6.320313l-23.175781 89.871093c-33.882813 2.132813-65.898437 12.640626-90.523437 29.738282-7.242188-6.46875-16.644532-10.152344-26.617188-10.152344-22.054688 0-40 17.945312-40 40 0 15.167969 8.402344 28.609375 21.308594 35.390625-.867188 4.835937-1.308594 9.722656-1.308594 14.609375 0 30.03125 16.050781 58.03125 45.191406 78.847656 28.125 20.089844 65.347656 31.152344 104.808594 31.152344s76.683594-11.0625 104.808594-31.152344c29.140625-20.816406 45.191406-48.816406 45.191406-78.847656 0-4.886719-.441406-9.769531-1.308594-14.609375 12.90625-6.78125 21.308594-20.222656 21.308594-35.390625 0-22.054688-17.945312-40-40-40zm-20-100c11.027344 0 20 8.972656 20 20s-8.972656 20-20 20-20-8.972656-20-20c0-11.164062 9.074219-20 20-20zm-240 120c3.871094 0 7.570312 1.113281 10.730469 3.128906-10.179688 9.773438-18.066407 20.753906-23.289063 32.453125-4.59375-3.699219-7.441406-9.34375-7.441406-15.582031 0-11.027344 8.972656-20 20-20zm130 160c-71.683594 0-130-40.375-130-90 0-52.460938 63.238281-90 130-90 34.589844 0 72.085938 9.851562 99.164062 32 17.902344 14.644531 30.835938 34.671875 30.835938 58 0 49.625-58.316406 90-130 90zm142.5625-124.417969c-5.222656-11.695312-13.109375-22.675781-23.296875-32.453125 3.164063-2.015625 6.863281-3.128906 10.734375-3.128906 11.027344 0 20 8.972656 20 20 0 6.238281-2.84375 11.882812-7.4375 15.582031zm0 0"/><path d="m462 0h-412c-27.570312 0-50 22.429688-50 50v412c0 27.570312 22.429688 50 50 50h412c27.570312 0 50-22.429688 50-50v-412c0-27.570312-22.429688-50-50-50zm30 462c0 16.542969-13.457031 30-30 30h-412c-16.542969 0-30-13.457031-30-30v-412c0-16.542969 13.457031-30 30-30h412c16.542969 0 30 13.457031 30 30zm0 0"/><path d="m136 63h200c5.523438 0 10-4.476562 10-10s-4.476562-10-10-10h-200c-5.523438 0-10 4.476562-10 10s4.476562 10 10 10zm0 0"/><path d="m226 306c0-16.542969-13.457031-30-30-30s-30 13.457031-30 30 13.457031 30 30 30 30-13.457031 30-30zm-40 0c0-5.515625 4.484375-10 10-10s10 4.484375 10 10-4.484375 10-10 10-10-4.484375-10-10zm0 0"/><path d="m316 276c-16.542969 0-30 13.457031-30 30s13.457031 30 30 30 30-13.457031 30-30-13.457031-30-30-30zm0 40c-5.515625 0-10-4.484375-10-10s4.484375-10 10-10 10 4.484375 10 10-4.484375 10-10 10zm0 0"/></svg>