<svg height="512pt" viewBox="0 0 512 512" width="512pt" xmlns="http://www.w3.org/2000/svg"><path d="m502 50v412c0 22.089844-17.910156 40-40 40h-412c-22.089844 0-40-17.910156-40-40v-412c0-22.089844 17.910156-40 40-40h412c22.089844 0 40 17.910156 40 40zm0 0" fill="#ffa143"/><path d="m416 156v240h-220c-55.230469 0-100-44.769531-100-100v-140h60v150c0 16.570312 13.429688 30 30 30h40v-180h60v180h70v-180zm0 0" fill="#f0f0fa"/><path d="m386 53c0 5.523438-4.476562 10-10 10s-10-4.476562-10-10 4.476562-10 10-10 10 4.476562 10 10zm0 0"/><path d="m416 146h-60c-5.523438 0-10 4.476562-10 10v170h-50v-170c0-5.523438-4.476562-10-10-10h-60c-5.523438 0-10 4.476562-10 10v170h-30c-11.027344 0-20-8.972656-20-20v-150c0-5.523438-4.476562-10-10-10h-60c-5.523438 0-10 4.476562-10 10v140c0 60.652344 49.347656 110 110 110h220c5.523438 0 10-4.476562 10-10v-240c0-5.523438-4.476562-10-10-10zm-10 240h-210c-49.625 0-90-40.375-90-90v-130h40v140c0 22.054688 17.945312 40 40 40h40c5.523438 0 10-4.476562 10-10v-170h40v170c0 5.523438 4.476562 10 10 10h70c5.523438 0 10-4.476562 10-10v-170h40zm0 0"/><path d="m462 0h-412c-27.570312 0-50 22.429688-50 50v412c0 27.570312 22.429688 50 50 50h412c27.570312 0 50-22.429688 50-50v-412c0-27.570312-22.429688-50-50-50zm30 462c0 16.542969-13.457031 30-30 30h-412c-16.542969 0-30-13.457031-30-30v-412c0-16.542969 13.457031-30 30-30h412c16.542969 0 30 13.457031 30 30zm0 0"/><path d="m136 63h200c5.523438 0 10-4.476562 10-10s-4.476562-10-10-10h-200c-5.523438 0-10 4.476562-10 10s4.476562 10 10 10zm0 0"/></svg>