<svg height="512pt" viewBox="0 0 512 512" width="512pt" xmlns="http://www.w3.org/2000/svg"><path d="m502 50v412c0 22.089844-17.910156 40-40 40h-412c-22.089844 0-40-17.910156-40-40v-412c0-22.089844 17.910156-40 40-40h412c22.089844 0 40 17.910156 40 40zm0 0" fill="#f0f0fa"/><path d="m256 116c-88.199219 0-160 71.433594-160 160 0 88.621094 71.882812 160 160 160 88.007812 0 160-71.226562 160-160 0-88.140625-71.402344-160-160-160zm0 0" fill="#ff9cd7"/><path d="m386 53c0 5.523438-4.476562 10-10 10s-10-4.476562-10-10 4.476562-10 10-10 10 4.476562 10 10zm0 0"/><path d="m377.199219 156.789062c-32.21875-32.753906-75.261719-50.789062-121.199219-50.789062-93.816406 0-170 76.058594-170 170 0 95.417969 77.546875 170 170 170 93.714844 0 170-75.933594 170-170 0-45.339844-17.773438-87.8125-48.800781-119.210938zm28.769531 116.511719c-35.289062-8.847656-74.433594-9.878906-111.875-1.863281-3.457031-9.015625-7.199219-17.949219-11.195312-26.710938 41.566406-15.339843 72.507812-37.46875 89.238281-63.667968 21.355469 26.050781 33.230469 58.257812 33.832031 92.242187zm-48.089844-107.398437c-13.542968 24.445312-43.394531 46.113281-83.726562 60.722656-17.515625-34.3125-38.972656-65.675781-63.933594-93.511719 14.71875-4.71875 30.058594-7.113281 45.78125-7.113281 38.175781 0 74.078125 14.121094 101.878906 39.902344zm-167.460937-24.820313c25.199219 27.09375 46.8125 57.890625 64.417969 91.753907-43.375 12.328124-94.679688 16.472656-145.234376 10.402343 9.914063-44.160156 39.960938-82.226562 80.816407-102.15625zm-84.417969 134.917969c0-4.332031.207031-8.671875.574219-12.984375 54.324219 6.617187 109.980469 2.046875 157.21875-11.957031 3.855469 8.335937 7.472656 16.839844 10.816406 25.4375-55.027344 16.785156-104.164063 54.75-121.914063 108.265625-29.839843-28.257813-46.695312-67.109375-46.695312-108.761719zm63.496094 122.5625c12.023437-46.632812 54.863281-86.089844 111.964844-103.242188 13.28125 39.160157 21.234374 80.269532 23.703124 122.4375-15.753906 5.472657-32.261718 8.242188-49.164062 8.242188-31.367188 0-61.136719-9.464844-86.503906-27.4375zm155.152344 10.808594c-2.984376-40.875-10.941407-80.761719-23.730469-118.902344 33.484375-6.742188 69.851562-6.007812 104.023437 3.230469-5.855468 49.328125-36.285156 92.945312-80.292968 115.671875zm0 0"/><path d="m462 0h-412c-27.570312 0-50 22.429688-50 50v412c0 27.570312 22.429688 50 50 50h412c27.570312 0 50-22.429688 50-50v-412c0-27.570312-22.429688-50-50-50zm30 462c0 16.542969-13.457031 30-30 30h-412c-16.542969 0-30-13.457031-30-30v-412c0-16.542969 13.457031-30 30-30h412c16.542969 0 30 13.457031 30 30zm0 0"/><path d="m136 63h200c5.523438 0 10-4.476562 10-10s-4.476562-10-10-10h-200c-5.523438 0-10 4.476562-10 10s4.476562 10 10 10zm0 0"/></svg>