<svg height="512pt" viewBox="0 0 512 512" width="512pt" xmlns="http://www.w3.org/2000/svg"><path d="m502 50v412c0 22.089844-17.910156 40-40 40h-412c-22.089844 0-40-17.910156-40-40v-412c0-22.089844 17.910156-40 40-40h412c22.089844 0 40 17.910156 40 40zm0 0" fill="#f0f0fa"/><path d="m416 196v160c0 22.089844-17.910156 40-40 40h-240c-22.089844 0-40-17.910156-40-40v-160c0-22.089844 17.910156-40 40-40h240c22.089844 0 40 17.910156 40 40zm0 0" fill="#f95d5d"/><path d="m306 276-90 51.671875v-101.671875zm0 0" fill="#f0f0fa"/><path d="m386 53c0 5.523438-4.476562 10-10 10s-10-4.476562-10-10 4.476562-10 10-10 10 4.476562 10 10zm0 0"/><path d="m376 146h-240c-27.570312 0-50 22.429688-50 50v160c0 27.570312 22.429688 50 50 50h240c27.570312 0 50-22.429688 50-50v-160c0-27.570312-22.429688-50-50-50zm30 210c0 16.542969-13.457031 30-30 30h-240c-16.542969 0-30-13.457031-30-30v-160c0-16.542969 13.457031-30 30-30h240c16.542969 0 30 13.457031 30 30zm0 0"/><path d="m462 0h-412c-27.570312 0-50 22.429688-50 50v412c0 27.570312 22.429688 50 50 50h412c27.570312 0 50-22.429688 50-50v-412c0-27.570312-22.429688-50-50-50zm30 462c0 16.542969-13.457031 30-30 30h-412c-16.542969 0-30-13.457031-30-30v-412c0-16.542969 13.457031-30 30-30h412c16.542969 0 30 13.457031 30 30zm0 0"/><path d="m136 63h200c5.523438 0 10-4.476562 10-10s-4.476562-10-10-10h-200c-5.523438 0-10 4.476562-10 10s4.476562 10 10 10zm0 0"/><path d="m310.855469 267.257812-90-50c-3.09375-1.71875-6.875-1.671874-9.925781.125-3.054688 1.796876-4.929688 5.074219-4.929688 8.617188v101.671875c0 3.566406 1.902344 6.863281 4.988281 8.652344 3.085938 1.785156 6.894531 1.796875 9.992188.019531l90-51.671875c3.125-1.792969 5.042969-5.136719 5.019531-8.742187-.023438-3.605469-1.992188-6.917969-5.144531-8.671876zm-84.855469 43.140626v-67.402344l59.664062 33.148437zm0 0"/></svg>