<svg height="512pt" viewBox="0 0 512 512" width="512pt" xmlns="http://www.w3.org/2000/svg"><path d="m502 50v412c0 22.089844-17.910156 40-40 40h-412c-22.089844 0-40-17.910156-40-40v-412c0-22.089844 17.910156-40 40-40h412c22.089844 0 40 17.910156 40 40zm0 0" fill="#7dd787"/><path d="m276 296h-40v140h-136.589844l156.589844-310.121094 157.761719 310.121094h-137.761719c0-39.460938 0-92.191406 0-140zm0 0" fill="#f0f0fa"/><path d="m386 53c0 5.523438-4.476562 10-10 10s-10-4.476562-10-10 4.476562-10 10-10 10 4.476562 10 10zm0 0"/><path d="m264.914062 121.347656c-1.707031-3.355468-5.152343-5.46875-8.914062-5.46875-.003906 0-.011719 0-.015625 0-3.765625.007813-7.210937 2.128906-8.910156 5.492188l-156.589844 310.121094c-1.566406 3.101562-1.410156 6.789062.410156 9.75 1.820313 2.957031 5.042969 4.757812 8.515625 4.757812h136.589844c5.523438 0 10-4.476562 10-10 0-14.699219 0-114.054688 0-130h20v130c0 5.523438 4.476562 10 10 10h137.761719c7.449219 0 12.292969-7.882812 8.910156-14.535156zm21.085938 304.652344v-25.855469l57.070312-57.074219c3.90625-3.902343 3.90625-10.234374 0-14.140624s-10.234374-3.90625-14.140624 0l-42.929688 42.925781v-31.714844l37.070312-37.070313c3.90625-3.90625 3.90625-10.234374 0-14.140624s-10.234374-3.90625-14.140624 0l-22.929688 22.925781v-15.855469c0-5.523438-4.476562-10-10-10h-40c-5.523438 0-10 4.476562-10 10v55.855469l-22.929688-22.925781c-3.90625-3.90625-10.234374-3.90625-14.140624 0-3.90625 3.902343-3.90625 10.234374 0 14.140624l37.070312 37.074219v45.855469h-110.339844l140.371094-278 141.421875 278zm0 0"/><path d="m462 0h-412c-27.570312 0-50 22.429688-50 50v412c0 27.570312 22.429688 50 50 50h412c27.570312 0 50-22.429688 50-50v-412c0-27.570312-22.429688-50-50-50zm30 462c0 16.542969-13.457031 30-30 30h-412c-16.542969 0-30-13.457031-30-30v-412c0-16.542969 13.457031-30 30-30h412c16.542969 0 30 13.457031 30 30zm0 0"/><path d="m136 63h200c5.523438 0 10-4.476562 10-10s-4.476562-10-10-10h-200c-5.523438 0-10 4.476562-10 10s4.476562 10 10 10zm0 0"/></svg>