<svg height="512pt" viewBox="0 0 512 512" width="512pt" xmlns="http://www.w3.org/2000/svg"><path d="m502 50v412c0 22.089844-17.910156 40-40 40h-412c-22.089844 0-40-17.910156-40-40v-412c0-22.089844 17.910156-40 40-40h412c22.089844 0 40 17.910156 40 40zm0 0" fill="#f95d5d"/><path d="m382.039062 198.25c28.601563 111.03125-99.960937 185.980469-147.75 123.941406-8.140624 30.566406-22.828124 92.230469-50.578124 110.269532-21.671876-41.980469 26.917968-159.769532 21.878906-173.910157-5.75-16.140625-6.78125-32.28125-.378906-48.449219 14.347656-36.25 60.097656-30.0625 58.230468 1.898438-1.089844 18.71875-10.921875 46.269531-16.210937 63.988281-10.082031 33.75 36.519531 53.171875 65.898437 18.839844 12.300782-14.359375 18.421875-31.316406 21.78125-49.269531 21.769532-116.238282-159.199218-117.410156-171.839844-33.929688-3.628906 16.859375-2.878906 34.390625 2.28125 52.359375-1.402343 6.703125-4.601562 18.640625-7.070312 27.851563l-.832031 3.082031c-54.789063-35.871094-42.429688-159.3125 71.472656-178.042969 68.6875-11.289062 135.886719 14.5 153.117187 81.371094zm0 0" fill="#f0f0fa"/><path d="m386 53c0 5.523438-4.476562 10-10 10s-10-4.476562-10-10 4.476562-10 10-10 10 4.476562 10 10zm0 0"/><path d="m227.296875 107.011719c-60.28125 9.914062-98.617187 48.964843-108.792969 97.085937-8.582031 40.601563 4.867188 80.464844 33.46875 99.1875 5.691406 3.726563 13.367188.792969 15.132813-5.765625 2.15625-8.039062 6.363281-23.5 8.03125-31.484375.335937-1.59375.273437-3.242187-.175781-4.804687-4.679688-16.300781-5.390626-32.28125-2.117188-47.496094.042969-.203125.082031-.40625.113281-.605469 10.660157-70.402344 171.378907-72.238281 152.121094 30.589844-3.558594 19.019531-9.769531 33.195312-19.546875 44.609375-13.5 15.773437-30.472656 17.054687-40.523438 11.574219-3.746093-2.042969-12.039062-8.179688-8.195312-21.050782 5.382812-18.03125 15.4375-46.128906 16.609375-66.265624 1.046875-17.917969-9.757813-32.5-26.886719-36.289063-17.136718-3.792969-40.289062 4.015625-50.625 30.125-6.84375 17.289063-6.824218 35.257813.058594 54.914063.226562 4.867187-4.707031 23.300781-8.691406 38.167968-12.03125 44.925782-28.507813 106.449219-12.457032 137.542969 2.710938 5.25 9.375 7.023437 14.335938 3.796875 26.898438-17.484375 42.253906-68.539062 50.480469-99.496094 22.308593 16.480469 53.902343 17.859375 85.15625 2.601563 44.964843-21.957031 85.089843-77.695313 66.929687-148.195313-18.710937-72.621094-91.308594-100.757812-164.425781-88.742187zm88.722656 218.964843c-23.253906 11.351563-54.851562 14.71875-73.808593-9.890624-5.046876-6.554688-15.453126-4.46875-17.582032 3.527343-7.0625 26.507813-17.480468 70.019531-35.921875 94.1875-3.535156-29.117187 9.546875-77.957031 17.894531-109.121093 7.949219-29.683594 11.070313-42.027344 8.410157-49.488282-5.386719-15.113281-5.550781-28.660156-.503907-41.410156 5.65625-14.285156 17.714844-20.167969 27.710938-17.960938 3.605469.800782 11.921875 3.914063 11.238281 15.597657-1.003906 17.277343-10.644531 44.40625-15.808593 61.710937-5.402344 18.09375 1.578124 35.5 17.789062 44.332032 16.90625 9.21875 44.554688 8.101562 65.289062-16.125 12.152344-14.1875 19.78125-31.324219 24.015626-53.9375 24.28125-129.65625-176.492188-133.769532-191.511719-37.578126-3.738281 17.597657-3.125 35.898438 1.824219 54.445313-.796876 3.488281-1.925782 7.949219-3.121094 12.523437-13.921875-16.363281-19.453125-42.089843-13.859375-68.554687 9.089843-43 43.660156-73.460937 92.46875-81.488281 58.617187-9.636719 125.199219 9.507812 141.8125 73.996094 15.363281 59.644531-18.433594 106.726562-56.335938 125.234374zm0 0"/><path d="m462 0h-412c-27.570312 0-50 22.429688-50 50v412c0 27.570312 22.429688 50 50 50h412c27.570312 0 50-22.429688 50-50v-412c0-27.570312-22.429688-50-50-50zm30 462c0 16.542969-13.457031 30-30 30h-412c-16.542969 0-30-13.457031-30-30v-412c0-16.542969 13.457031-30 30-30h412c16.542969 0 30 13.457031 30 30zm0 0"/><path d="m136 63h200c5.523438 0 10-4.476562 10-10s-4.476562-10-10-10h-200c-5.523438 0-10 4.476562-10 10s4.476562 10 10 10zm0 0"/></svg>