<svg height="512pt" viewBox="0 0 512 512" width="512pt" xmlns="http://www.w3.org/2000/svg"><path d="m502 50v412c0 22.089844-17.910156 40-40 40h-412c-22.089844 0-40-17.910156-40-40v-412c0-22.089844 17.910156-40 40-40h412c22.089844 0 40 17.910156 40 40zm0 0" fill="#7d97f4"/><path d="m416 156v240c0 22.089844-17.910156 40-40 40h-80v-100h50l10-60h-60v-30c0-5.519531 4.480469-10 10-10h50v-60h-60c-33.140625 0-60 26.859375-60 60v40h-40v60h40v100h-100c-22.089844 0-40-17.910156-40-40v-240c0-22.089844 17.910156-40 40-40h240c22.089844 0 40 17.910156 40 40zm0 0" fill="#f0f0fa"/><path d="m386 53c0 5.523438-4.476562 10-10 10s-10-4.476562-10-10 4.476562-10 10-10 10 4.476562 10 10zm0 0"/><path d="m376 106h-240c-27.570312 0-50 22.429688-50 50v240c0 27.570312 22.429688 50 50 50h100c5.523438 0 10-4.476562 10-10v-100c0-5.523438-4.476562-10-10-10h-30v-40h30c5.523438 0 10-4.476562 10-10v-40c0-27.570312 22.429688-50 50-50h50v40h-40c-11.027344 0-20 8.972656-20 20v30c0 5.523438 4.476562 10 10 10h48.195312l-6.667968 40h-41.527344c-5.523438 0-10 4.476562-10 10v100c0 5.523438 4.476562 10 10 10h80c27.570312 0 50-22.429688 50-50v-240c0-27.570312-22.429688-50-50-50zm30 290c0 16.542969-13.457031 30-30 30h-70v-80h40c4.890625 0 9.0625-3.535156 9.863281-8.355469l10-60c1.015625-6.074219-3.667969-11.644531-9.863281-11.644531h-50v-20h50c5.523438 0 10-4.476562 10-10v-60c0-5.523438-4.476562-10-10-10h-60c-38.597656 0-70 31.402344-70 70v30h-30c-5.523438 0-10 4.476562-10 10v60c0 5.523438 4.476562 10 10 10h30v80h-90c-16.542969 0-30-13.457031-30-30v-240c0-16.542969 13.457031-30 30-30h240c16.542969 0 30 13.457031 30 30zm0 0"/><path d="m462 0h-412c-27.570312 0-50 22.429688-50 50v412c0 27.570312 22.429688 50 50 50h412c27.570312 0 50-22.429688 50-50v-412c0-27.570312-22.429688-50-50-50zm30 462c0 16.542969-13.457031 30-30 30h-412c-16.542969 0-30-13.457031-30-30v-412c0-16.542969 13.457031-30 30-30h412c16.542969 0 30 13.457031 30 30zm0 0"/><path d="m136 63h200c5.523438 0 10-4.476562 10-10s-4.476562-10-10-10h-200c-5.523438 0-10 4.476562-10 10s4.476562 10 10 10zm0 0"/></svg>