<svg height="512pt" viewBox="0 0 512 512" width="512pt" xmlns="http://www.w3.org/2000/svg"><path d="m502 50v412c0 22.089844-17.910156 40-40 40h-412c-22.089844 0-40-17.910156-40-40v-412c0-22.089844 17.910156-40 40-40h412c22.089844 0 40 17.910156 40 40zm0 0" fill="#78d2fa"/><path d="m256 116c88.371094 0 160 71.628906 160 160s-71.628906 160-160 160-160-71.628906-160-160 71.628906-160 160-160zm0 0" fill="#f0f0fa"/><path d="m365.921875 276-69.921875 53.53125v-33.53125h-80v33.75l-70.421875-53.75 70.421875-53.75v33.75h80v-33.75zm0 0" fill="#78d2fa"/><path d="m386 53c0 5.523438-4.476562 10-10 10s-10-4.476562-10-10 4.476562-10 10-10 10 4.476562 10 10zm0 0"/><path d="m256 106c-93.738281 0-170 76.261719-170 170s76.261719 170 170 170 170-76.261719 170-170-76.261719-170-170-170zm0 320c-82.710938 0-150-67.289062-150-150s67.289062-150 150-150 150 67.289062 150 150-67.289062 150-150 150zm0 0"/><path d="m462 0h-412c-27.570312 0-50 22.429688-50 50v412c0 27.570312 22.429688 50 50 50h412c27.570312 0 50-22.429688 50-50v-412c0-27.570312-22.429688-50-50-50zm30 462c0 16.542969-13.457031 30-30 30h-412c-16.542969 0-30-13.457031-30-30v-412c0-16.542969 13.457031-30 30-30h412c16.542969 0 30 13.457031 30 30zm0 0"/><path d="m136 63h200c5.523438 0 10-4.476562 10-10s-4.476562-10-10-10h-200c-5.523438 0-10 4.476562-10 10s4.476562 10 10 10zm0 0"/><path d="m291.582031 213.277344c-3.417969 1.683594-5.582031 5.164062-5.582031 8.972656v23.75h-60v-23.75c0-3.804688-2.15625-7.277344-5.566406-8.964844-3.410156-1.683594-7.480469-1.292968-10.5 1.015625l-70.421875 53.75c-2.476563 1.890625-3.933594 4.832031-3.933594 7.949219s1.457031 6.058594 3.933594 7.949219l70.421875 53.75c2.976562 2.273437 7.042968 2.726562 10.5 1.015625 3.410156-1.6875 5.566406-5.160156 5.566406-8.964844v-23.75h60v23.53125c0 3.804688 2.160156 7.28125 5.570312 8.964844 3.414063 1.683594 7.488282 1.285156 10.507813-1.027344l69.921875-53.527344c2.46875-1.890625 3.917969-4.824218 3.921875-7.933594 0-3.109374-1.441406-6.042968-3.90625-7.9375l-69.921875-53.75c-3.019531-2.320312-7.09375-2.722656-10.511719-1.042968zm14.417969 42.722656v-13.449219l43.492188 33.433594-43.492188 33.296875v-13.28125c0-5.523438-4.476562-10-10-10h-80c-5.523438 0-10 4.476562-10 10v13.535156l-43.9375-33.535156 43.9375-33.535156v13.535156c0 5.523438 4.476562 10 10 10h80c5.523438 0 10-4.476562 10-10zm0 0"/></svg>