<svg height="512pt" viewBox="0 0 512 512" width="512pt" xmlns="http://www.w3.org/2000/svg"><path d="m502 50v412c0 22.089844-17.910156 40-40 40h-412c-22.089844 0-40-17.910156-40-40v-412c0-22.089844 17.910156-40 40-40h412c22.089844 0 40 17.910156 40 40zm0 0" fill="#ffa143"/><path d="m416 236v100c0 55.230469-44.769531 100-100 100h-120c-55.230469 0-100-44.769531-100-100 0-24.539062 0-92.96875 0-120 0-55.230469 44.769531-100 100-100h60c55.230469 0 100 44.769531 100 100 0 11.039062 8.960938 20 20 20zm0 0" fill="#f0f0fa"/><path d="m326 316c16.570312 0 30 13.429688 30 30 0 16.558594-13.441406 30-30 30h-140c-16.570312 0-30-13.429688-30-30 0-16.558594 13.441406-30 30-30zm0 0" fill="#ffa143"/><path d="m266 176c16.570312 0 30 13.429688 30 30 0 16.558594-13.441406 30-30 30h-80c-16.570312 0-30-13.429688-30-30 0-16.558594 13.441406-30 30-30zm0 0" fill="#ffa143"/><path d="m386 53c0 5.523438-4.476562 10-10 10s-10-4.476562-10-10 4.476562-10 10-10 10 4.476562 10 10zm0 0"/><path d="m416 226h-40c-5.519531 0-10-4.476562-10-10 0-60.652344-49.347656-110-110-110h-60c-60.652344 0-110 49.347656-110 110v120c0 60.652344 49.347656 110 110 110h120c60.652344 0 110-49.347656 110-110v-100c0-5.523438-4.476562-10-10-10zm-10 110c0 49.625-40.375 90-90 90h-120c-49.625 0-90-40.375-90-90v-120c0-49.625 40.375-90 90-90h60c49.625 0 90 40.375 90 90 0 16.574219 13.425781 30 30 30h30zm0 0"/><path d="m186 246h80c22.097656 0 40-17.898438 40-40 0-22.054688-17.945312-40-40-40h-80c-22.097656 0-40 17.898438-40 40 0 22.054688 17.945312 40 40 40zm0-60h80c11.027344 0 20 8.972656 20 20 0 11.046875-8.953125 20-20 20h-80c-11.027344 0-20-8.972656-20-20 0-11.046875 8.953125-20 20-20zm0 0"/><path d="m462 0h-412c-27.570312 0-50 22.429688-50 50v412c0 27.570312 22.429688 50 50 50h412c27.570312 0 50-22.429688 50-50v-412c0-27.570312-22.429688-50-50-50zm30 462c0 16.542969-13.457031 30-30 30h-412c-16.542969 0-30-13.457031-30-30v-412c0-16.542969 13.457031-30 30-30h412c16.542969 0 30 13.457031 30 30zm0 0"/><path d="m136 63h200c5.523438 0 10-4.476562 10-10s-4.476562-10-10-10h-200c-5.523438 0-10 4.476562-10 10s4.476562 10 10 10zm0 0"/><path d="m326 306h-140c-22.097656 0-40 17.898438-40 40 0 22.054688 17.945312 40 40 40h140c22.097656 0 40-17.898438 40-40 0-22.054688-17.945312-40-40-40zm0 60h-140c-11.027344 0-20-8.972656-20-20 0-11.046875 8.953125-20 20-20h140c11.027344 0 20 8.972656 20 20 0 11.046875-8.953125 20-20 20zm0 0"/></svg>