<svg height="512pt" viewBox="0 0 512 512" width="512pt" xmlns="http://www.w3.org/2000/svg"><path d="m502 50v412c0 22.089844-17.910156 40-40 40h-412c-22.089844 0-40-17.910156-40-40v-412c0-22.089844 17.910156-40 40-40h412c22.089844 0 40 17.910156 40 40zm0 0" fill="#ffa143"/><path d="m416 275.78125c.191406 88.277344-72.449219 160.730469-160.628906 160.21875-88.082032-.511719-159.671875-72.539062-159.371094-160.351562.300781-88 72.179688-159.699219 160.058594-159.648438 87.941406.050781 159.75 71.78125 159.941406 159.78125zm0 0" fill="#f0f0fa"/><path d="m381.398438 257.449219c1.8125 12.789062.570312 26.570312-2.097657 39.3125-2.769531 13.289062-14.359375 18.789062-26.332031 12.117187-11.558594-6.429687-23-14.988281-31.117188-25.269531-20.460937-25.910156-40.050781-52.347656-66.101562-73.167969-16.699219-13.339844-35.019531-22.890625-54.300781-27.03125-1.230469 23.910156-.9375 46.949219-4.019531 69.53125-2.730469 19.949219-14.871094 35.417969-32.550782 45.660156-20.410156 11.808594-34.96875 3.339844-35.269531-20.171874-.878906-70.289063 49.242187-124.417969 120.429687-130.089844 62.429688-4.96875 122.121094 44.050781 131.359376 109.109375zm0 0" fill="#ffa143"/><path d="m386 53c0 5.523438-4.476562 10-10 10s-10-4.476562-10-10 4.476562-10 10-10 10 4.476562 10 10zm0 0"/><path d="m462 0h-412c-27.570312 0-50 22.429688-50 50v412c0 27.570312 22.429688 50 50 50h412c27.570312 0 50-22.429688 50-50v-412c0-27.570312-22.429688-50-50-50zm30 462c0 16.542969-13.457031 30-30 30h-412c-16.542969 0-30-13.457031-30-30v-412c0-16.542969 13.457031-30 30-30h412c16.542969 0 30 13.457031 30 30zm0 0"/><path d="m256.066406 106c-.035156 0-.0625 0-.097656 0-93.410156 0-169.648438 76.070312-169.96875 169.617188-.320312 93.40625 75.632812 169.839843 169.3125 170.382812.332031.003906.660156.003906.992188.003906 93.21875 0 169.894531-76.507812 169.695312-170.246094-.203125-93.550781-76.433594-169.703124-169.933594-169.757812zm.238282 320.003906c-.289063 0-.585938 0-.875-.003906-82.675782-.480469-149.710938-67.910156-149.429688-150.316406.28125-82.558594 67.542969-149.683594 149.96875-149.683594h.085938c82.5.046875 149.765624 67.246094 149.945312 149.800781.175781 82.515625-67.386719 150.203125-149.695312 150.203125zm0 0"/><path d="m249.246094 138.371094c-76.636719 6.105468-130.578125 64.917968-129.636719 140.1875.195313 15.125 5.601563 26.46875 15.21875 31.933594 5.554687 3.15625 17.492187 6.929687 35.0625-3.238282 21.460937-12.425781 34.40625-30.738281 37.449219-52.960937 2.207031-16.183594 2.746094-32.789063 3.265625-48.847657.09375-2.976562.191406-5.996093.300781-9.035156 13.101562 4.492188 26.042969 11.8125 38.601562 21.84375 22.386719 17.890625 39.683594 39.945313 58 63.292969 8.269532 10.539063 16.824219 22.847656 40.597657 36.070313 18.261719 10.175781 36.933593.625 40.984375-18.804688 3.273437-15.621094 4.019531-30.007812 2.210937-42.765625-9.859375-69.414063-73.429687-123.148437-142.054687-117.675781zm-57.78125 44.523437c-.382813 7.410157-.621094 14.777344-.851563 21.902344-.527343 16.265625-1.023437 31.628906-3.089843 46.789063-2.746094 20.058593-16.554688 31.929687-27.652344 38.359374-6.429688 3.71875-12.097656 4.902344-15.160156 3.15625-3.101563-1.757812-5.007813-7.292968-5.101563-14.796874-.566406-45.273438 21.191406-82.859376 56.652344-103.445313-2.859375 1.738281-4.628907 4.761719-4.796875 8.035156zm178.046875 111.824219c-1.386719 6.652344-5.59375 8.8125-11.679688 5.421875-19.84375-11.035156-26.453125-20.566406-34.589843-30.9375-18.214844-23.222656-37.050782-47.230469-61.25-66.574219-18.683594-14.925781-38.347657-24.679687-58.441407-28.996094-2.347656-.503906-4.808593-.148437-6.921875 1.015626 15.660156-9.015626 33.976563-14.726563 54.207032-16.339844 57.007812-4.53125 112.277343 41.503906 120.664062 100.542968 1.457031 10.300782.769531 22.699219-1.988281 35.867188zm0 0"/><path d="m136 63h200c5.523438 0 10-4.476562 10-10s-4.476562-10-10-10h-200c-5.523438 0-10 4.476562-10 10s4.476562 10 10 10zm0 0"/></svg>