<svg height="512pt" viewBox="0 0 512 512" width="512pt" xmlns="http://www.w3.org/2000/svg"><path d="m502 50v412c0 22.089844-17.910156 40-40 40h-412c-22.089844 0-40-17.910156-40-40v-412c0-22.089844 17.910156-40 40-40h412c22.089844 0 40 17.910156 40 40zm0 0" fill="#7dd787"/><path d="m256 116c88.371094 0 160 71.628906 160 160s-71.628906 160-160 160c-31.691406 0-61.21875-9.210938-86.070312-25.101562l-72.167969 23.339843 23.339843-72.167969c-15.890624-24.851562-25.101562-54.378906-25.101562-86.070312 0-88.371094 71.628906-160 160-160zm0 0" fill="#f0f0fa"/><path d="m352.71875 324.019531c4.390625 4.390625 4.390625 11.5 0 15.878907l-7.9375 7.941406c-17.542969 17.550781-83.203125 12.101562-127.0625-31.761719-43.859375-43.859375-49.308594-109.519531-31.757812-127.058594l7.9375-7.941406c4.390624-4.386719 11.5-4.386719 15.882812 0l31.769531 31.761719c4.378907 4.390625 4.378907 11.5 0 15.890625l-7.941406 7.941406c-8.78125 8.769531-8.78125 22.988281 0 31.757813l31.761719 31.769531c8.769531 8.769531 22.988281 8.769531 31.757812 0l7.949219-7.9375c4.382813-4.390625 11.492187-4.390625 15.882813 0zm0 0" fill="#7dd787"/><path d="m386 53c0 5.523438-4.476562 10-10 10s-10-4.476562-10-10 4.476562-10 10-10 10 4.476562 10 10zm0 0"/><path d="m256 106c-93.738281 0-170 76.261719-170 170 0 30.941406 8.339844 61.054688 24.160156 87.398438l-21.914062 67.765624c-1.15625 3.570313-.214844 7.492188 2.441406 10.148438s6.578125 3.597656 10.148438 2.441406l67.765624-21.914062c26.34375 15.820312 56.460938 24.160156 87.398438 24.160156 93.738281 0 170-76.261719 170-170s-76.261719-170-170-170zm0 320c-28.714844 0-56.613281-8.136719-80.683594-23.523438-2.519531-1.613281-5.628906-2.007812-8.464844-1.089843l-53.558593 17.320312 17.320312-53.5625c.917969-2.839843.519531-5.945312-1.089843-8.460937-15.386719-24.070313-23.523438-51.96875-23.523438-80.683594 0-82.710938 67.289062-150 150-150s150 67.289062 150 150-67.289062 150-150 150zm0 0"/><path d="m462 0h-412c-27.570312 0-50 22.429688-50 50v412c0 27.570312 22.429688 50 50 50h412c27.570312 0 50-22.429688 50-50v-412c0-27.570312-22.429688-50-50-50zm30 462c0 16.542969-13.457031 30-30 30h-412c-16.542969 0-30-13.457031-30-30v-412c0-16.542969 13.457031-30 30-30h412c16.542969 0 30 13.457031 30 30zm0 0"/><path d="m136 63h200c5.523438 0 10-4.476562 10-10s-4.476562-10-10-10h-200c-5.523438 0-10 4.476562-10 10s4.476562 10 10 10zm0 0"/><path d="m328.03125 285.1875c-4.011719-4.011719-9.34375-6.21875-15.015625-6.21875-.003906 0-.007813 0-.011719 0-5.671875 0-11 2.214844-14.992187 6.214844l-7.953125 7.945312c-4.867188 4.867188-12.75 4.867188-17.617188 0l-31.765625-31.773437c-4.835937-4.832031-4.90625-12.707031.003907-17.613281l7.949218-7.949219c8.253906-8.273438 8.253906-21.742188-.011718-30.023438l-31.757813-31.75c-8.285156-8.304687-21.730469-8.3125-30.03125-.007812l-7.9375 7.9375h-.003906c-11.367188 11.363281-15.160157 35.363281-9.894531 62.625 5.695312 29.503906 20.488281 57.410156 41.65625 78.578125 21.164062 21.164062 49.070312 35.957031 78.574218 41.65625 19.835938 3.828125 48.476563 4.265625 62.628906-9.898438l7.929688-7.929687c8.308594-8.285157 8.316406-21.722657.007812-30.03125zm9.675781 55.582031c-5.425781 5.425781-22.515625 8.679688-44.691406 4.402344-14.839844-2.867187-43.4375-11.375-68.226563-36.164063-24.785156-24.785156-33.292968-53.382812-36.160156-68.222656-4.28125-22.175781-1.027344-39.269531 4.398438-44.691406 0 0 .003906 0 .003906-.003906l7.941406-7.9375c.480469-.480469 1.246094-.492188 1.738282 0l31.757812 31.75c.484375.484375.484375 1.277344.007812 1.753906l-7.933593 7.9375c-12.691407 12.675781-12.707031 33.21875-.007813 45.90625l31.761719 31.769531c12.675781 12.675781 33.214844 12.691407 45.898437.003907l7.960938-7.953126c.476562-.476562 1.246094-.472656 1.730469.007813 33.460937 33.640625 32.125 31.667969 32.125 32.636719 0 .894531-.117188.453125-8.304688 8.804687zm0 0"/></svg>