<svg height="512pt" viewBox="0 0 512 512" width="512pt" xmlns="http://www.w3.org/2000/svg"><path d="m502 50v412c0 22.089844-17.910156 40-40 40h-412c-22.089844 0-40-17.910156-40-40v-412c0-22.089844 17.910156-40 40-40h412c22.089844 0 40 17.910156 40 40zm0 0" fill="#78d2fa"/><path d="m395.429688 288.730469c12.851562 15.558593 20.570312 35.507812 20.570312 57.269531 0 49.710938-40.289062 90-90 90-21.761719 0-41.710938-7.71875-57.269531-20.570312-4.191407.378906-8.441407.570312-12.730469.570312-77.320312 0-140-62.679688-140-140 0-4.289062.191406-8.539062.570312-12.730469-12.851562-15.558593-20.570312-35.507812-20.570312-57.269531 0-49.710938 40.289062-90 90-90 21.761719 0 41.710938 7.71875 57.269531 20.570312 4.191407-.378906 8.441407-.570312 12.730469-.570312 77.320312 0 140 62.679688 140 140 0 4.289062-.191406 8.539062-.570312 12.730469zm0 0" fill="#f0f0fa"/><path d="m309.53125 271.089844c35.253906 23.488281 35.3125 66.289062-.011719 89.832031-30.105469 20.097656-76.898437 20.121094-107.050781-.011719-5.980469-3.980468-11.046875-8.621094-15.109375-13.71875-9.988281-12.582031-.890625-31.191406 15.171875-31.191406 6.007812 0 12.289062 1.890625 16.089844 6.550781 10.078125 12.398438 46.910156 19.640625 68.699218 5.097657 11.441407-7.632813 11.484376-15.636719.007813-23.289063-7.957031-5.308594-19.378906-8.359375-31.328125-8.359375-19.949219 0-38.960938-5.359375-53.53125-15.089844-35.253906-23.488281-35.3125-66.289062.011719-89.832031 29.109375-19.4375 77.917969-19.449219 107.050781.011719 5.980469 3.980468 11.046875 8.621094 15.109375 13.71875 9.988281 12.582031.890625 31.191406-15.171875 31.191406-2.601562-.570312-8.878906 2.316406-16.089844-6.550781-10.078125-12.398438-46.910156-19.640625-68.699218-5.097657-11.441407 7.632813-11.484376 15.636719-.007813 23.289063 7.957031 5.308594 19.378906 8.359375 31.328125 8.359375 19.949219 0 38.960938 5.359375 53.53125 15.089844zm0 0" fill="#78d2fa"/><path d="m386 53c0 5.523438-4.476562 10-10 10s-10-4.476562-10-10 4.476562-10 10-10 10 4.476562 10 10zm0 0"/><path d="m406 276c0-82.710938-67.289062-150-150-150-3.207031 0-6.421875.101562-9.59375.300781-17.308594-13.117187-38.597656-20.300781-60.40625-20.300781-55.140625 0-100 44.859375-100 100 0 21.808594 7.183594 43.097656 20.300781 60.40625-.199219 3.171875-.300781 6.386719-.300781 9.59375 0 82.710938 67.289062 150 150 150 3.207031 0 6.421875-.101562 9.59375-.300781 17.308594 13.117187 38.597656 20.300781 60.40625 20.300781 55.140625 0 100-44.859375 100-100 0-21.808594-7.183594-43.097656-20.300781-60.40625.199219-3.171875.300781-6.386719.300781-9.59375zm0 70c0 44.113281-35.886719 80-80 80-18.550781 0-36.628906-6.492188-50.902344-18.28125-1.796875-1.484375-4.050781-2.289062-6.367187-2.289062-.300781 0-.601563.015624-.902344.042968-3.871094.347656-7.851563.527344-11.828125.527344-71.683594 0-130-58.316406-130-130 0-3.976562.179688-7.957031.527344-11.828125.238281-2.625-.566406-5.238281-2.246094-7.269531-11.789062-14.273438-18.28125-32.351563-18.28125-50.902344 0-44.113281 35.886719-80 80-80 18.550781 0 36.628906 6.492188 50.902344 18.28125 2.03125 1.679688 4.644531 2.484375 7.269531 2.246094 3.871094-.347656 7.851563-.527344 11.828125-.527344 71.683594 0 130 58.316406 130 130 0 3.976562-.179688 7.957031-.527344 11.828125-.238281 2.625.566406 5.238281 2.246094 7.269531 11.789062 14.273438 18.28125 32.351563 18.28125 50.902344zm0 0"/><path d="m462 0h-412c-27.570312 0-50 22.429688-50 50v412c0 27.570312 22.429688 50 50 50h412c27.570312 0 50-22.429688 50-50v-412c0-27.570312-22.429688-50-50-50zm30 462c0 16.542969-13.457031 30-30 30h-412c-16.542969 0-30-13.457031-30-30v-412c0-16.542969 13.457031-30 30-30h412c16.542969 0 30 13.457031 30 30zm0 0"/><path d="m136 63h200c5.523438 0 10-4.476562 10-10s-4.476562-10-10-10h-200c-5.523438 0-10 4.476562-10 10s4.476562 10 10 10zm0 0"/><path d="m315.082031 262.773438c-16.195312-10.816407-37.179687-16.773438-59.082031-16.773438-9.875 0-19.511719-2.496094-25.78125-6.679688-1.996094-1.332031-3.179688-2.535156-3.796875-3.320312.617187-.785156 1.804687-1.996094 3.808594-3.332031 17.707031-11.816407 48.796875-5.019531 55.390625 3.089843 6.882812 8.464844 14.347656 10.242188 19.398437 10.242188 1.238281-.304688 21.453125 2.84375 30.839844-16.59375 4.917969-10.183594 3.617187-21.992188-3.394531-30.824219-30.179688-37.910156-97.667969-41.109375-135.53125-15.824219-41.261719 27.5-41.222656 79.011719-.019532 106.46875 16.199219 10.816407 37.183594 16.773438 59.085938 16.773438 9.875 0 19.511719 2.496094 25.78125 6.679688 1.996094 1.332031 3.179688 2.535156 3.796875 3.320312-.617187.785156-1.804687 1.996094-3.808594 3.332031-17.707031 11.816407-48.796875 5.019531-55.398437-3.101562-11.703125-14.347657-40-14.828125-50.230469 6.363281-4.917969 10.183594-3.617187 21.992188 3.394531 30.824219 17.535156 22.023437 47.660156 32.582031 76.464844 32.582031 21.902344 0 42.878906-5.953125 59.066406-16.757812 41.261719-27.5 41.222656-79.011719.015625-106.46875zm-11.113281 89.828124c-12.941406 8.640626-29.976562 13.398438-47.96875 13.398438-22.433594 0-47.113281-7.824219-60.808594-25.027344-3.207031-4.042968-1.796875-8.117187-1.042968-9.683594 3.652343-7.558593 14.023437-5.726562 16.710937-2.433593 6.75 8.304687 20.417969 14.390625 36.558594 16.277343 10.074219 1.179688 29.382812 1.554688 45.453125-9.164062 17.515625-11.691406 17.464844-28.292969.007812-39.929688-9.566406-6.378906-23.007812-10.039062-36.878906-10.039062-17.992188 0-35.03125-4.761719-47.984375-13.410156-29.335937-19.546875-29.335937-53.628906.019531-73.195313 28.839844-19.257812 85.226563-17.945312 108.773438 11.632813 3.207031 4.042968 1.796875 8.117187 1.042968 9.683594-3.492187 7.226562-11.464843 4.835937-12.832031 5.289062-.972656 0-2.425781-1.066406-3.878906-2.855469-6.75-8.304687-20.417969-14.390625-36.558594-16.277343-10.078125-1.179688-29.386719-1.554688-45.453125 9.164062-17.515625 11.691406-17.464844 28.292969-.007812 39.929688 9.566406 6.378906 23.007812 10.039062 36.878906 10.039062 17.992188 0 35.03125 4.761719 47.984375 13.410156 29.335937 19.546875 29.335937 53.628906-.015625 73.191406zm0 0"/></svg>