<svg height="512pt" viewBox="0 0 512 512" width="512pt" xmlns="http://www.w3.org/2000/svg"><path d="m502 50v412c0 22.089844-17.910156 40-40 40h-412c-22.089844 0-40-17.910156-40-40v-412c0-22.089844 17.910156-40 40-40h412c22.089844 0 40 17.910156 40 40zm0 0" fill="#f0f0fa"/><path d="m416 276c0 29.140625-7.789062 56.46875-21.410156 80h-58.589844c0-9.429688 0-208.820312 0-218.589844 47.828125 27.660156 80 79.371094 80 138.589844zm0 0" fill="#fcda4c"/><path d="m394.589844 356c-27.660156 47.828125-79.371094 80-138.589844 80-29.140625 0-56.46875-7.789062-80-21.410156v-58.589844zm0 0" fill="#7dd787"/><path d="m336 137.410156v114.25c-1.949219-1.871094-120.339844-115.605468-132.160156-126.960937 16.351562-5.640625 33.898437-8.699219 52.160156-8.699219 29.140625 0 56.46875 7.789062 80 21.410156zm0 0" fill="#f95d5d"/><path d="m100.128906 312.261719c-2.699218-11.652344-4.128906-23.792969-4.128906-36.261719 0-70.101562 45.078125-129.671875 107.839844-151.300781l41.789062 40.140625c-6.21875 6.300781-137.425781 139.242187-145.5 147.421875zm0 0" fill="#ff9cd7"/><path d="m176 414.589844c-37.75-21.828125-65.75-58.648438-75.871094-102.328125l75.871094-76.871094zm0 0" fill="#7d97f4"/><path d="m386 53c0 5.523438-4.476562 10-10 10s-10-4.476562-10-10 4.476562-10 10-10 10 4.476562 10 10zm0 0"/><path d="m426 276c0-93.144531-75.3125-170-170-170-94.011719 0-170 76.339844-170 170 0 94.109375 76.394531 170 170 170 95.054688 0 170-77.15625 170-170zm-20 0c0 24.46875-5.976562 48.542969-17.316406 70h-42.683594v-189.976562c37.382812 28.128906 60 72.628906 60 119.976562zm-220 70v-106.507812l59.8125-60.601563 80.1875 77.03125v90.078125zm140-202.683594v84.871094c-9.832031-9.445312-92.410156-88.773438-102.65625-98.617188 10.664062-2.367187 21.589844-3.570312 32.65625-3.570312 24.46875 0 48.542969 5.976562 70 17.316406zm-124.582031-7.074218 29.972656 28.789062c-7.675781 7.777344-116.945313 118.464844-124.605469 126.25-.511718-5.070312-.785156-10.171875-.785156-15.28125 0-61.976562 38.097656-117.386719 95.417969-139.757812zm-90.210938 179.027343 54.792969-55.511719v136.230469c-26.625-20.019531-46.066406-48.511719-54.792969-80.71875zm144.792969 110.730469c-24.46875 0-48.542969-5.976562-70-17.316406v-42.695313h189.976562c-28.128906 37.386719-72.628906 60.011719-119.976562 60.011719zm0 0"/><path d="m462 0h-412c-27.570312 0-50 22.429688-50 50v412c0 27.570312 22.429688 50 50 50h412c27.570312 0 50-22.429688 50-50v-412c0-27.570312-22.429688-50-50-50zm30 462c0 16.542969-13.457031 30-30 30h-412c-16.542969 0-30-13.457031-30-30v-412c0-16.542969 13.457031-30 30-30h412c16.542969 0 30 13.457031 30 30zm0 0"/><path d="m136 63h200c5.523438 0 10-4.476562 10-10s-4.476562-10-10-10h-200c-5.523438 0-10 4.476562-10 10s4.476562 10 10 10zm0 0"/></svg>