<svg height="512pt" viewBox="0 0 512 512" width="512pt" xmlns="http://www.w3.org/2000/svg"><path d="m502 50v412c0 22.089844-17.910156 40-40 40h-412c-22.089844 0-40-17.910156-40-40v-412c0-22.089844 17.910156-40 40-40h412c22.089844 0 40 17.910156 40 40zm0 0" fill="#78d2fa"/><path d="m409.121094 194.550781c-3.269532 4.480469 1.847656-2.480469-20.660156 27.578125-5.832032 7.78125-8.429688 17.53125-7.941407 27.242188 6.941407 135.707031-98.589843 180.328125-208.039062 163.160156-26.839844-4.210938-54.941407-19.382812-58.691407-21.429688 33.390626-10.980468 49.339844-16.371093 83.121094-32.363281-28.210937-1.796875-50.238281-19.316406-58.871094-45.507812 9.601563 1.46875 18.761719 1.371093 28.160157-1.25-37.359375-9.152344-51.839844-43.28125-50.347657-64.339844 12 4.640625 12.699219 5.960937 27.6875 7.4375-28.828124-22.488281-34.589843-57.976563-18.828124-86.898437 34.578124 41.539062 78.238281 64.339843 131.71875 68.199218-.148438-1.410156-.160157-2.367187-.460938-3.417968-18.6875-66.070313 63.082031-99.210938 106.472656-59.261719 1.949219 1.8125 4.667969 2.691406 7.25 2.050781 11.597656-2.878906 17.957032-6.101562 32.378906-11.070312l-10.96875 29.871093c7.6875 0 12.417969.25 18.019532 0zm0 0" fill="#f0f0fa"/><path d="m386 53c0 5.523438-4.476562 10-10 10s-10-4.476562-10-10 4.476562-10 10-10 10 4.476562 10 10zm0 0"/><path d="m408.675781 184.558594c-1.117187.050781-2.195312.078125-3.285156.09375l6.066406-16.523438c2.898438-7.890625-4.6875-15.648437-12.644531-12.902344-14.011719 4.828126-20.167969 7.875-30.277344 10.5-26.433594-23.757812-65.453125-24.789062-93.324218-7.65625-22.875 14.0625-35.324219 38.359376-31.148438 66.972657-44.785156-6.140625-81.414062-26.921875-111.667969-63.261719-2.121093-2.546875-5.363281-3.878906-8.660156-3.554688-3.296875.324219-6.21875 2.257813-7.804687 5.167969-12.574219 23.074219-13.355469 50.75-.410157 74.25-5.078125.167969-9.28125 4.140625-9.644531 9.289063-1.21875 17.238281 6.589844 41.675781 25.960938 58.453125-3.269532 2.585937-4.617188 6.960937-3.292969 10.972656 6.703125 20.34375 20.621093 36.074219 38.6875 44.824219-18.050781 7.65625-32.617188 12.542968-56.566407 20.417968-3.785156 1.242188-6.46875 4.617188-6.832031 8.585938s1.664063 7.777344 5.160157 9.6875c7.71875 4.21875 34.984374 18.308594 61.9375 22.535156 59.636718 9.355469 126.425781 1.832032 171.472656-38.738281 38.234375-34.429687 50.71875-83.617187 48.105468-134.804687-.390624-7.730469 1.722657-15.097657 5.957032-20.746094 1.859375-2.480469-7.214844 9.617187 20.730468-27.675782 4.933594-6.753906-.136718-16.234374-8.519531-15.886718zm-28.21875 31.574218c-7.023437 9.375-10.550781 21.355469-9.925781 33.75 2.648438 51.722657-11.320312 91.738282-41.511719 118.929688-34.949219 31.472656-91.445312 43.804688-154.992187 33.835938-11.585938-1.816407-23.5625-5.882813-33.476563-9.945313 20.070313-6.90625 35.582031-13.066406 60.636719-24.925781 9.300781-4.402344 6.628906-18.363282-3.640625-19.015625-18.496094-1.183594-33.894531-10.144531-43.359375-24.695313 5.023438-.292968 9.871094-1.109375 14.695312-2.453125 9.871094-2.753906 9.667969-16.90625-.304687-19.347656-23.960937-5.867187-36.898437-23.667969-41.199219-39.664063 3.75 1.015626 8.101563 1.730469 15.175782 2.429688 9.957031.976562 14.996093-11.703125 7.132812-17.835938-19.617188-15.304687-27.480469-38.289062-21.71875-60.382812 34.566406 35.902344 77.460938 55.914062 127.738281 59.542969 6.96875.480469 12.863281-5.6875 9.882813-16.117188-9.304688-32.890625 10.949218-49.511719 20.089844-55.128906 18.929687-11.636719 49.046874-13.328125 69.957031 5.917969 4.527343 4.207031 10.6875 5.859375 16.460937 4.429687 4.996094-1.242187 9.125-2.554687 13.148438-3.976562l-3.535156 9.621093c-2.132813 5.808594 1.472656 12.144532 7.550781 13.28125-2.328125 3.105469-5.214844 6.957032-8.804688 11.75zm0 0"/><path d="m462 0h-412c-27.570312 0-50 22.429688-50 50v412c0 27.570312 22.429688 50 50 50h412c27.570312 0 50-22.429688 50-50v-412c0-27.570312-22.429688-50-50-50zm30 462c0 16.542969-13.457031 30-30 30h-412c-16.542969 0-30-13.457031-30-30v-412c0-16.542969 13.457031-30 30-30h412c16.542969 0 30 13.457031 30 30zm0 0"/><path d="m136 63h200c5.523438 0 10-4.476562 10-10s-4.476562-10-10-10h-200c-5.523438 0-10 4.476562-10 10s4.476562 10 10 10zm0 0"/></svg>