<svg height="512pt" viewBox="0 0 512 512" width="512pt" xmlns="http://www.w3.org/2000/svg"><path d="m502 50v412c0 22.089844-17.910156 40-40 40h-412c-22.089844 0-40-17.910156-40-40v-412c0-22.089844 17.910156-40 40-40h412c22.089844 0 40 17.910156 40 40zm0 0" fill="#7dd787"/><path d="m346.921875 118.609375c49.96875 18.859375 89.289063 235.269531-25.953125 300.480469-41.320312 22.53125-91.007812 22.347656-131.75.691406-66.71875-36.0625-103.007812-125.453125-42.140625-213.101562 3.921875-5.648438 10.183594-4.410157 10.8125 3.300781.515625 6.316406-13.851563 68.097656 9.121094 98.03125 1.6875 2.207031 3.359375 5.257812 6.578125 4.558593 3.738281-.808593 2.699218-4.511718 2.910156-7.160156 11.660156-149.351562 130.949219-201.691406 170.421875-186.800781zm0 0" fill="#f0f0fa"/><path d="m386 53c0 5.523438-4.476562 10-10 10s-10-4.476562-10-10 4.476562-10 10-10 10 4.476562 10 10zm0 0"/><path d="m387.183594 154.875c-7.039063-17.144531-19.128906-38.976562-36.734375-45.621094-21.191407-7.996094-55.246094-.226562-86.75 19.796875-54.40625 34.570313-86.8125 93.832031-95.535157 159.960938-2.582031-7.601563-3.449218-15.765625-3.898437-23.726563-1.09375-19.296875 1.085937-34.3125 2.527344-44.253906.8125-5.589844 1.300781-8.960938 1.0625-11.867188-.636719-7.820312-5.058594-13.757812-11.53125-15.5-6.4375-1.726562-13.128907 1.074219-17.457031 7.3125-37.070313 53.382813-36.191407 100.90625-28.921876 131.375 9.734376 40.820313 36.898438 75.890626 74.582032 96.257813 43.691406 23.226563 97.007812 23.375 141.230468-.742187.046876-.023438.09375-.050782.136719-.074219 64.871094-36.707031 84.933594-118.019531 79.175781-192.625-2.253906-29.183594-8.605468-57.699219-17.886718-80.292969zm-71.070313 255.472656c-38.496093 20.960938-84.671875 20.550782-122.140625.636719-32.621094-17.632813-56.160156-47.984375-64.574218-83.273437-5.632813-23.609376-6.753907-59.140626 16.308593-100.074219-1.214843 9.925781-2.296875 23.160156-1.410156 38.777343.855469 15.175782 3.285156 32.707032 14.769531 47.671876.171875.222656.339844.457031.511719.691406 1.722656 2.367187 6.960937 9.558594 16.128906 7.566406 4.105469-.890625 10.957031-4.066406 10.769531-15.359375-.003906-.28125-.019531-.554687-.007812-.796875 7.738281-99.117188 64.085938-145.089844 87.957031-160.257812 29.835938-18.960938 56.664063-22.605469 68.964844-17.964844 16.515625 6.234375 37.171875 49.582031 41.738281 108.742187 2.332032 30.242188 4.25 132.121094-69.015625 173.640625zm0 0"/><path d="m462 0h-412c-27.570312 0-50 22.429688-50 50v412c0 27.570312 22.429688 50 50 50h412c27.570312 0 50-22.429688 50-50v-412c0-27.570312-22.429688-50-50-50zm30 462c0 16.542969-13.457031 30-30 30h-412c-16.542969 0-30-13.457031-30-30v-412c0-16.542969 13.457031-30 30-30h412c16.542969 0 30 13.457031 30 30zm0 0"/><path d="m136 63h200c5.523438 0 10-4.476562 10-10s-4.476562-10-10-10h-200c-5.523438 0-10 4.476562-10 10s4.476562 10 10 10zm0 0"/></svg>