<svg height="512pt" viewBox="0 0 512 512" width="512pt" xmlns="http://www.w3.org/2000/svg"><path d="m502 50v412c0 22.089844-17.910156 40-40 40h-412c-22.089844 0-40-17.910156-40-40v-412c0-22.089844 17.910156-40 40-40h412c22.089844 0 40 17.910156 40 40zm0 0" fill="#fcda4c"/><path d="m408.898438 346.5c7.023437 1.511719 10.472656 8.101562 7.710937 14.71875-5.238281 12.609375-28.089844 15.953125-41.339844 18.722656-4.878906 1.019532 1 25.679688-20.871093 19.96875-31.738282-8.300781-52.4375 12.109375-64.96875 19.308594-19.601563 8.78125-45.070313 9.011719-64.929688.832031-31.289062-16.730469-23.398438-26.402343-69.960938-19.210937-16.898437 2.609375-13.667968-20.160156-17.597656-20.898438-11.953125-2.230468-33.0625-5.742187-40.0625-16.453125-4.6875-7.160156-1.277344-15.699219 6.890625-17.089843l14.5-5.660157c23.558594-9.207031 40.941407-29.609375 46.28125-54.328125l.078125-.410156h-28.628906c-11.050781 0-20-8.949219-20-20s8.949219-20 20-20h30.921875l-1.871094-20.410156c-4.859375-53.480469 37.25-99.589844 90.949219-99.589844s95.808594 46.109375 90.949219 99.589844l-1.859375 20.410156h30.910156c11.050781 0 20 8.949219 20 20s-8.949219 20-20 20h-28.429688c5.257813 24.949219 22.769532 45.558594 46.550782 54.769531zm0 0" fill="#f0f0fa"/><path d="m386 53c0 5.523438-4.476562 10-10 10s-10-4.476562-10-10 4.476562-10 10-10 10 4.476562 10 10zm0 0"/><path d="m411.882812 336.929688-14.152343-5.484376c-16.714844-6.476562-29.777344-19.304687-36.597657-35.445312h14.867188c16.542969 0 30-13.457031 30-30s-13.457031-30-30-30h-19.957031l.867187-9.503906c5.398438-59.425782-41.511718-110.496094-100.910156-110.496094-59.53125 0-106.296875 51.210938-100.90625 110.503906l.867188 9.496094h-19.960938c-16.542969 0-30 13.457031-30 30s13.457031 29.988281 30 29.988281h15.078125c-6.796875 16.097657-19.816406 28.9375-36.445313 35.4375l-13.6875 5.34375c-6.535156 1.46875-11.898437 5.792969-14.496093 11.742188-2.835938 6.503906-2.0625 14.152343 2.0625 20.449219 8.285156 12.679687 27.152343 17.121093 41.296875 19.820312.851562 3.925781 2.09375 8.992188 5.144531 13.421875 4.730469 6.867187 12.230469 9.890625 21.113281 8.519531 42.019532-6.488281 31.257813.789063 63.71875 18.144532.296875.160156.601563.300781.90625.429687 22.335938 9.199219 50.921875 8.863281 72.828125-.949219 1.925781-.863281 7.101563-4.417968 8.851563-5.609375 12.339844-8.398437 27.695312-18.855469 49.503906-13.152343 7.945312 2.074218 14.675781 1.40625 19.996094-1.988282 7.628906-4.867187 9.488281-13.386718 10.503906-18.886718 15.84375-3.167969 36.84375-7.699219 43.46875-23.640626 5.011719-12.03125-1.328125-24.894531-13.960938-28.140624zm-4.507812 20.453124c-2.691406 6.484376-21.164062 10.167969-30.039062 11.9375-7.34375 1.464844-12.113282 1.949219-14.496094 15.035157-.316406 1.742187-.964844 5.292969-1.746094 6.351562-.367188.070313-1.601562.195313-4.164062-.472656-30.609376-8-52.648438 7.007813-65.816407 15.976563-2.390625 1.625-4.476562 3.046874-6.242187 4.09375-16.886719 7.386718-38.785156 7.660156-56.105469.683593-29.378906-15.839843-25.378906-27.804687-75.75-20.03125-.84375.132813-1.296875.09375-1.480469.0625-1.027344-1.089843-1.960937-5.445312-2.367187-7.332031-.972657-4.527344-2.597657-12.109375-10.394531-13.578125-8.351563-1.546875-28.914063-5.035156-33.527344-12.097656-.546875-.835938-.515625-1.378907-.460938-1.503907.101563-.242187 1.125-.207031 2.621094-.792968l14.503906-5.660156c26.757813-10.460938 46.351563-33.460938 52.414063-61.53125.015625-.066407.027343-.132813.039062-.195313l.082031-.410156c1.207032-6.171875-3.527343-11.917969-9.8125-11.917969h-28.632812c-5.515625 0-10-4.484375-10-10 0-5.511719 4.484375-10 10-10h30.921875c5.878906 0 10.492187-5.058594 9.957031-10.910156l-1.871094-20.402344c-4.324218-47.59375 33.222657-88.6875 80.992188-88.6875 47.785156 0 85.3125 41.109375 80.992188 88.683594l-1.859376 20.410156c-.535156 5.84375 4.066407 10.90625 9.957032 10.90625h30.910156c5.515625 0 10 4.484375 10 10s-4.484375 10-10 10h-28.429688c-6.355468 0-11.09375 5.855469-9.785156 12.0625 5.980469 28.375 25.691406 51.5625 52.722656 62.03125 22.152344 8.527344 15.546876 5.792969 17.046876 6.46875.015624.058594.019531.339844-.179688.820312zm0 0"/><path d="m462 0h-412c-27.570312 0-50 22.429688-50 50v412c0 27.570312 22.429688 50 50 50h412c27.570312 0 50-22.429688 50-50v-412c0-27.570312-22.429688-50-50-50zm30 462c0 16.542969-13.457031 30-30 30h-412c-16.542969 0-30-13.457031-30-30v-412c0-16.542969 13.457031-30 30-30h412c16.542969 0 30 13.457031 30 30zm0 0"/><path d="m136 63h200c5.523438 0 10-4.476562 10-10s-4.476562-10-10-10h-200c-5.523438 0-10 4.476562-10 10s4.476562 10 10 10zm0 0"/></svg>