<svg height="512pt" viewBox="0 0 512 512" width="512pt" xmlns="http://www.w3.org/2000/svg"><path d="m502 50v412c0 22.089844-17.910156 40-40 40h-412c-22.089844 0-40-17.910156-40-40v-412c0-22.089844 17.910156-40 40-40h412c22.089844 0 40 17.910156 40 40zm0 0" fill="#f95d5d"/><path d="m366 409.550781c0 1.078125-.011719 23.898438-.011719 25.480469-5.519531.390625-11.886719.96875-18.078125.96875-47.121094 0-55.71875-35.359375-59.941406-35.359375-2.257812 0-11.117188 3.710937-32.289062 3.710937-40 0-139.679688-23.851562-139.679688-143.851562s100-144.5 140.121094-144.5c39.878906 0 139.878906 24.371094 139.878906 144.371094s-65.929688 120.667968-65.929688 123.207031c0 1.09375 7.871094 17.222656 33.128907 25.25 0 0 1.660156.363281 2.800781.722656zm0 0" fill="#f0f0fa"/><path d="m329.039062 262.949219c0 50.472656-9.589843 61.972656-20.097656 78.519531-18.621094-19.019531-40.382812-28.757812-66.179687-28.757812-1.273438 0-2.550781.027343-3.839844.070312v28.21875c5.789063 1.019531 22.707031 4.800781 34.566406 25.691406-5.25 1.730469-10.457031 2.539063-15.738281 2.539063-2.511719 0-72.738281 4.019531-72.738281-111.808594 0-89.550781 49.898437-105.203125 71.738281-105.203125 23.148438 0 72.289062 14.859375 72.289062 110.730469zm0 0" fill="#f95d5d"/><path d="m386 53c0 5.523438-4.476562 10-10 10s-10-4.476562-10-10 4.476562-10 10-10 10 4.476562 10 10zm0 0"/><path d="m346.769531 135.007812c-30.402343-21.386718-66.761719-29.007812-90.648437-29.007812-23.957032 0-60.40625 7.636719-90.859375 29.070312-27.035157 19.027344-59.261719 56.234376-59.261719 125.429688 0 69.183594 32.140625 106.226562 59.101562 125.113281 30.238282 21.1875 66.617188 28.738281 90.578126 28.738281 13.933593 0 23.015624-1.527343 28.453124-2.695312 7.054688 10.949219 23.136719 34.34375 63.777344 34.34375 6.59375 0 13.222656-.601562 18.785156-.996094 5.234376-.367187 9.292969-4.726562 9.292969-9.972656l.011719-25.480469c0-4.363281-2.828125-8.222656-6.988281-9.535156-1.132813-.359375-2.449219-.675781-3.183594-.84375-9.160156-2.972656-15.394531-7.042969-19.484375-10.640625 47.3125-19.46875 59.65625-76.953125 59.65625-128.160156 0-69.179688-32.210938-106.355469-59.230469-125.363282zm-16.429687 237.804688c-2.808594.773438-10.269532 2.824219-10.269532 10.769531 0 6.640625 8.320313 15.375 9.988282 17.058594 4.863281 4.910156 13.1875 11.5 25.949218 16.277344l-.003906 8.800781c-2.707031.167969-5.433594.285156-8.09375.285156-30.804687 0-41.660156-16.914062-47.496094-26-6.410156-9.984375-10.132812-10.308594-17.6875-8.53125-4.28125 1.007813-12.25 2.878906-27.046874 2.878906-20.910157 0-52.671876-6.597656-79.101563-25.113281-33.5625-23.515625-50.578125-60.101562-50.578125-108.738281 0-48.664062 17.082031-85.363281 50.769531-109.070312 26.636719-18.75 58.457031-25.429688 79.351563-25.429688 20.828125 0 52.554687 6.664062 79.140625 25.363281 33.667969 23.683594 50.738281 60.359375 50.738281 109.007813 0 64.453125-18.726562 102.285156-55.660156 112.441406zm0 0"/><path d="m256.75 142.21875c-6.8125 0-30.632812 1.582031-51.109375 21.925781-20.324219 20.195313-30.628906 51.574219-30.628906 93.273438 0 46.199219 10.777343 80.175781 32.039062 100.984375 19.875 19.449218 47.558594 25.039062 69.570313 17.785156 6.003906-1.980469 8.671875-8.960938 5.566406-14.4375-8.054688-14.1875-19.449219-23.914062-33.269531-28.515625v-10.3125c20.113281 1.402344 37.460937 9.796875 52.875 25.542969 4.507812 4.601562 12.136719 3.800781 15.589843-1.636719 11.382813-17.910156 21.65625-31.273437 21.65625-83.878906 0-44.429688-10.1875-77.492188-30.273437-98.269531-19.601563-20.269532-42.90625-22.460938-52.015625-22.460938zm50.132812 183.765625c-19.910156-16.511719-42.484374-23.996094-68.269531-23.199219-5.398437.164063-9.613281 4.59375-9.613281 9.996094v28.21875c0 4.855469 3.40625 9.007812 8.183594 9.847656 6.554687 1.15625 12.472656 3.988282 17.570312 8.351563-6.6875-.316407-20.933594-2.585938-33.714844-15.089844-17.269531-16.90625-26.027343-46.070313-26.027343-86.6875 0-36.179687 8.316406-62.785156 24.726562-79.089844 15.046875-14.949219 32.132813-16.113281 37.011719-16.113281 14.613281 0 62.289062 7.265625 62.289062 100.730469 0 37.054687-5.09375 51.0625-12.15625 63.035156zm0 0"/><path d="m462 0h-412c-27.570312 0-50 22.429688-50 50v412c0 27.570312 22.429688 50 50 50h412c27.570312 0 50-22.429688 50-50v-412c0-27.570312-22.429688-50-50-50zm30 462c0 16.542969-13.457031 30-30 30h-412c-16.542969 0-30-13.457031-30-30v-412c0-16.542969 13.457031-30 30-30h412c16.542969 0 30 13.457031 30 30zm0 0"/><path d="m136 63h200c5.523438 0 10-4.476562 10-10s-4.476562-10-10-10h-200c-5.523438 0-10 4.476562-10 10s4.476562 10 10 10zm0 0"/></svg>