<svg height="512pt" viewBox="0 0 512 512" width="512pt" xmlns="http://www.w3.org/2000/svg"><path d="m502 50v412c0 22.089844-17.910156 40-40 40h-412c-22.089844 0-40-17.910156-40-40v-412c0-22.089844 17.910156-40 40-40h412c22.089844 0 40 17.910156 40 40zm0 0" fill="#f95d5d"/><g fill="#f0f0fa"><path d="m375.960938 258.460938c3.429687 8.777343 2.929687 17.519531-6.109376 19.890624-2.089843.546876-68.222656 17.367188-70.242187 17.777344-11.4375 2.351563-19.648437-7.757812-18.160156-16.898437.710937-4.421875 44.941406-63.101563 46.679687-65.101563 5.070313-5.839844 13.359375-3.4375 19.152344 1.921875 10.949219 10.140625 23.617188 29.480469 28.679688 42.410157zm0 0"/><path d="m366.601562 345.28125c9.9375 3.308594 17.886719 6.847656 10.367188 22.308594-6.027344 12.398437-19.5 29.691406-30.609375 38.949218-15.6875 13.089844-20.578125 2.019532-30.71875-14.257812-9.800781-15.75-19.539063-31.53125-29.171875-47.382812-3.039062-4.988282-2.578125-10.167969.589844-14.957032 3.710937-5.613281 9.472656-7.953125 16.0625-5.761718 21.160156 7.019531 42.328125 14.050781 63.480468 21.101562zm0 0"/><path d="m258 351c.050781 61.238281.058594 54.148438 0 73.078125-.050781 15.960937-16.921875 12.710937-32.21875 8.152344-10.179688-3.039063-20.0625-6.839844-29.359375-12.03125-9.230469-5.160157-16.402344-11.929688-10.121094-20.480469 5.328125-7.25 10.1875-12.71875 47.570313-57 3.820312-4.519531 8.679687-5.617188 14.1875-4.1875 7.132812 1.839844 9.941406 7.1875 9.941406 12.46875zm0 0"/><path d="m232.019531 305.089844c.480469 7.699218-3.71875 12.660156-8.609375 14.21875-2.039062.652344-66.691406 21.300781-71.699218 22.421875-6.011719 1.359375-11.621094-2.410157-13.28125-8.992188-3.75-14.929687-2.941407-40.378906.789062-55.128906 2.972656-11.71875 9.78125-14.640625 15.921875-12.46875 13.050781 4.621094 27.28125 10.597656 68.558594 27.6875 5.429687 2.242187 7.972656 6.582031 8.320312 12.261719zm0 0"/><path d="m252.300781 131.851562c2.871094 39.117188 8.929688 118.136719 6.128907 127.738282-3.101563 10.589844-14.640626 12.832031-22.050782 5.101562-8.1875-8.550781-66.679687-103.589844-73.277344-113.421875-3.820312-5.699219 1.167969-13.050781 7.789063-16.789062 15.78125-8.921875 57.007813-20.558594 70.859375-18.058594 10.039062 1.796875 10.078125 9.109375 10.550781 15.429687zm0 0"/></g><path d="m386 53c0 5.523438-4.476562 10-10 10s-10-4.476562-10-10 4.476562-10 10-10 10 4.476562 10 10zm0 0"/><path d="m243.527344 106.578125c-17.046875-3.078125-60.816406 9.730469-77.554688 19.195313-11.875 6.707031-18.460937 20.203124-11.175781 31.070312 7.261719 10.8125 65.015625 105.007812 74.363281 114.765625 5.921875 6.179687 14.292969 9.058594 22.519532 7.046875 7.8125-1.910156 13.925781-7.984375 16.347656-16.257812 0-.003907 0-.007813.003906-.007813 2.371094-8.128906 1.109375-38.15625-5.191406-123.574219-1.027344-14.371094-.839844-28.925781-19.3125-32.238281zm5.269531 150.328125c-.253906.808594-.8125 2.066406-1.867187 2.324219-.980469.238281-2.226563-.308594-3.324219-1.453125-7.125-7.566406-63.707031-99.09375-71.585938-111.148438.535157-.890625 1.824219-2.332031 3.792969-3.441406 15.972656-9.035156 58.640625-20.136719 65.773438-16.457031.4375.96875.542968 3.019531 1.308593 13.558593 2.355469 31.953126 7.867188 106.660157 5.902344 116.617188zm0 0"/><path d="m462 0h-412c-27.570312 0-50 22.429688-50 50v412c0 27.570312 22.429688 50 50 50h412c27.570312 0 50-22.429688 50-50v-412c0-27.570312-22.429688-50-50-50zm30 462c0 16.542969-13.457031 30-30 30h-412c-16.542969 0-30-13.457031-30-30v-412c0-16.542969 13.457031-30 30-30h412c16.542969 0 30 13.457031 30 30zm0 0"/><path d="m136 63h200c5.523438 0 10-4.476562 10-10s-4.476562-10-10-10h-200c-5.523438 0-10 4.476562-10 10s4.476562 10 10 10zm0 0"/><path d="m226.449219 328.835938c10.011719-3.191407 16.261719-12.984376 15.550781-24.359376-.605469-9.867187-5.753906-17.285156-14.476562-20.886718-36.90625-15.289063-55.171876-22.964844-69.050782-27.878906-11.453125-4.046876-24.441406 1.664062-28.945312 19.441406 0 .003906 0 .003906-.003906.007812-3.828126 15.140625-5.21875 42.390625-.789063 60.023438 3.015625 11.957031 13.914063 18.855468 25.15625 16.304687 5.566406-1.242187 67.277344-20.972656 72.558594-22.652343zm-6.539063-18.90625c-39.050781 12.460937-67.34375 21.324218-70.40625 22.046874-.886718.207032-1.328125-1.488281-1.375-1.671874-3.164062-12.597657-2.796875-36.074219.785156-50.242188.933594-3.675781 2.148438-5.210938 2.617188-5.570312.0625.011718.152344.03125.273438.074218 14.230468 5.039063 34.253906 13.496094 68.082031 27.507813 1.0625.4375 1.976562.816406 2.152343 3.640625.25 4.042968-1.980468 4.109375-2.128906 4.214844zm0 0"/><path d="m301.601562 305.929688c2.65625-.539063 70.210938-17.753907 70.785157-17.90625 12.378906-3.242188 19.808593-15.484376 12.886719-33.207032-5.925782-15.136718-19.628907-35.386718-31.199219-46.101562 0-.003906 0-.003906 0-.003906-10.183594-9.425782-24.652344-11.320313-33.488281-1.144532-1.402344 1.613282-14.175782 18.582032-24.242188 32.285156-23.929688 32.585938-24.296875 34.882813-24.761719 37.769532-1.28125 7.84375 1.605469 16.25 7.53125 21.9375 6.011719 5.765625 14.226563 8.070312 22.488281 6.371094zm34.042969-85.191407c.710938.035157 2.65625.625 4.839844 2.648438 9.359375 8.667969 21.339844 26.398437 26.160156 38.710937 1.390625 3.5625 1.34375 5.695313 1.207031 6.398438-.773437.332031-68.621093 17.46875-70.253906 17.839844-1.84375.378906-3.40625-.027344-4.636718-1.210938-.949219-.910156-1.5625-2.167969-1.667969-3.355469 5.546875-9.558593 40.414062-56.128906 44.351562-61.03125zm0 0"/><path d="m369.761719 335.792969c-21.152344-7.050781-42.328125-14.082031-63.488281-21.105469-10.679688-3.546875-21.238282.183594-27.550782 9.734375-5.578125 8.425781-5.855468 17.367187-.796875 25.671875 15.9375 26.226562 27.214844 44.171875 31.367188 50.945312 6.480469 10.558594 12.84375 21.277344 25.21875 21.277344 7.582031 0 13.949219-4.503906 18.25-8.097656 12.128906-10.105469 26.402343-28.273438 33.203125-42.257812 4.289062-8.820313 5.101562-16.128907 2.488281-22.34375-3.722656-8.839844-13.09375-11.960938-18.691406-13.824219zm-1.785157 27.421875c-5.539062 11.398437-18.109374 27.386718-28.023437 35.648437-3.042969 2.539063-4.707031 3.214844-5.292969 3.394531-1.945312-1.289062-5.609375-7.261718-8.316406-11.675781-4.324219-7.039062-15.574219-24.949219-31.332031-50.882812-.65625-1.078125-1.042969-2.074219.390625-4.242188 1.515625-2.292969 2.773437-2.382812 4.570312-1.785156 21.15625 7.019531 42.320313 14.046875 63.46875 21.097656 3.421875 1.140625 5.597656 2.046875 6.496094 2.707031-.050781.6875-.355469 2.441407-1.960938 5.738282zm0 0"/><path d="m267.898438 351c0-10.722656-6.746094-19.417969-17.324219-22.148438-9.558594-2.480468-18.203125.152344-24.34375 7.417969-37.667969 44.621094-42.445313 49.984375-47.992188 57.53125-7.667969 10.441407-6.3125 24.164063 13.308594 35.132813 9.109375 5.082031 19.371094 9.296875 31.375 12.882812 7.621094 2.269532 15.324219 4.144532 22.292969 4.144532 14.410156 0 22.640625-8.664063 22.683594-21.847657.066406-17.816406.046874-20.449219 0-73.113281zm-20.054688 74.703125c-1.292969.457031-5.65625.980469-19.203125-3.054687-10.582031-3.160157-19.53125-6.820313-27.339844-11.175782-4.945312-2.765625-6.660156-4.671875-7.207031-5.441406 2.246094-3.660156 18.09375-22.125 47.414062-56.855469.863282-1.023437 1.523438-1.617187 4.054688-.960937 1.84375.476562 2.4375 1.152344 2.4375 2.792968.074219 77.097657.0625 73.785157-.15625 74.695313zm0 0"/></svg>