<svg height="512pt" viewBox="0 0 512 512" width="512pt" xmlns="http://www.w3.org/2000/svg"><path d="m462 10h-412c-22.089844 0-40 17.910156-40 40v412c0 22.089844 17.910156 40 40 40h412c22.089844 0 40-17.910156 40-40v-412c0-22.089844-17.910156-40-40-40zm0 0" fill="#709193"/><path d="m256 116c88.371094 0 160 71.628906 160 160 0 72.660156-48.429688 134.011719-114.78125 153.519531-3.277344-3.558593-5.1875-8.300781-5.21875-13.519531v-39.820312c.03125-18.308594-7.21875-23.140626-12.511719-31.21875 83.613281-12.480469 86.242188-89.359376 57.042969-123.941407-.453125-.519531-.859375-1.507812-.671875-2.070312 4.480469-13.539063 3.902344-43.359375-6.347656-42.890625-14.042969.652344-25.242188 8.5625-38.273438 16.3125-.988281.578125-1.777343.808594-2.929687.5-11.980469-3.25-24.089844-5.011719-36.308594-5.160156-12.21875.148437-24.328125 1.910156-36.308594 5.160156-1.152344.308594-1.941406.078125-2.929687-.5-13.03125-7.75-24.230469-15.660156-38.273438-16.3125-10.25-.46875-10.828125 29.351562-6.347656 42.890625.1875.5625-.21875 1.550781-.671875 2.070312-29.199219 34.582031-26.570312 111.460938 57.042969 123.941407-5.292969 8.078124-12.542969 12.910156-12.511719 31.21875v39.820312c-.03125 5.21875-1.941406 9.960938-5.21875 13.519531-66.351562-19.507812-114.78125-80.859375-114.78125-153.519531 0-88.371094 71.628906-160 160-160zm0 0" fill="#f0f0fa"/><path d="m386 53c0 5.523438-4.476562 10-10 10s-10-4.476562-10-10 4.476562-10 10-10 10 4.476562 10 10zm0 0"/><path d="m256 106c-93.738281 0-170 76.261719-170 170 0 94.644531 76.878906 170 170 170 93.324219 0 170-75.488281 170-170 0-93.738281-76.261719-170-170-170zm-30.792969 316.820312c.507813-2.207031.78125-4.492187.792969-6.820312v-39.835938c-.023438-14.582031 5.058594-16.84375 10.875-25.726562 1.867188-2.851562 2.152344-6.457031.761719-9.570312-1.394531-3.109376-4.277344-5.296876-7.648438-5.796876-39.667969-5.921874-55.238281-26.371093-61.316406-42.480468-8.09375-21.460938-3.808594-48.222656 10.417969-65.09375 2.164062-2.542969 4.101562-7.113282 2.546875-11.6875-3.035157-9.167969-2.5625-23.8125-.671875-29.476563 8.617187 1.261719 16.667968 6.144531 25.839844 11.710938 5.308593 3.226562 9.082031 6.203125 15.503906 4.476562 11.222656-3.042969 22.558594-4.660156 33.691406-4.808593 11.136719.144531 22.472656 1.765624 33.710938 4.8125 6.382812 1.722656 10.28125-1.320313 15.484374-4.480469 9.175782-5.566407 17.226563-10.453125 25.84375-11.710938 1.890626 5.660157 2.363282 20.300781-.644531 29.394531-1.582031 4.652344.351563 9.226563 2.515625 11.769532 14.230469 16.867187 18.515625 43.632812 10.417969 65.09375-6.074219 16.109375-21.644531 36.558594-61.3125 42.476562-3.371094.503906-6.253906 2.691406-7.648437 5.800782-1.394532 3.113281-1.109376 6.71875.757812 9.570312 5.804688 8.863281 10.902344 11.125 10.878906 25.742188v39.875c.011719 2.304687.28125 4.574218.785156 6.765624-10.074218 2.101563-20.382812 3.179688-30.789062 3.179688s-20.71875-1.078125-30.792969-3.179688zm80.902344-5.402343c-.0625-.464844-.105469-.933594-.109375-1.417969v-39.804688c.019531-11.476562-2.503906-18.941406-5.628906-24.539062 30.347656-8.203125 51.976562-26.308594 61.667968-52.007812 10.238282-27.144532 5.59375-59.59375-11.449218-82.058594 3.105468-13.667969 3.015625-35.253906-4.425782-45.070313-3.328124-4.394531-7.976562-6.671875-13.117187-6.449219-15.636719.722657-27.6875 8.527344-40.8125 16.441407-12.011719-3.039063-24.144531-4.652344-36.113281-4.800781-.082032-.003907-.160156-.003907-.242188 0-11.972656.144531-24.113281 1.761718-36.113281 4.800781-13.023437-7.851563-25.109375-15.714844-40.816406-16.441407-5.117188-.234374-9.78125 2.054688-13.113281 6.449219-7.429688 9.800781-7.53125 31.335938-4.421876 45.0625-17.042968 22.464844-21.691406 54.921875-11.453124 82.066407 9.691406 25.699218 31.320312 43.804687 61.667968 52.003906-2.46875 4.421875-4.554687 10.015625-5.316406 17.816406-12.367188 4.324219-22.378906 1.472656-29.175781-9.980469-7.949219-13.371093-21.417969-24.15625-36.855469-22.824219-5.503906.476563-9.578125 5.324219-9.101562 10.824219.472656 5.503907 5.335937 9.585938 10.824218 9.105469 7.148438-.621094 14.199219 6.824219 17.9375 13.109375 10.6875 18.011719 28 24.441406 46.058594 20.578125v25.660156c-.003906.503906-.046875.992188-.113281 1.472656-59.199219-21.003906-99.886719-78.019531-99.886719-141.414062 0-82.710938 67.289062-150 150-150s150 67.289062 150 150c0 63.394531-40.6875 120.410156-99.890625 141.417969zm0 0"/><path d="m462 0h-412c-27.570312 0-50 22.429688-50 50v412c0 27.570312 22.429688 50 50 50h412c27.570312 0 50-22.429688 50-50v-412c0-27.570312-22.429688-50-50-50zm30 462c0 16.542969-13.457031 30-30 30h-412c-16.542969 0-30-13.457031-30-30v-412c0-16.542969 13.457031-30 30-30h412c16.542969 0 30 13.457031 30 30zm0 0"/><path d="m136 63h200c5.523438 0 10-4.476562 10-10s-4.476562-10-10-10h-200c-5.523438 0-10 4.476562-10 10s4.476562 10 10 10zm0 0"/></svg>