<svg height="512pt" viewBox="0 0 512 512" width="512pt" xmlns="http://www.w3.org/2000/svg"><path d="m502 50v412c0 22.089844-17.910156 40-40 40h-412c-22.089844 0-40-17.910156-40-40v-412c0-22.089844 17.910156-40 40-40h412c22.089844 0 40 17.910156 40 40zm0 0" fill="#f95d5d"/><path d="m416 276c0 88.367188-71.632812 160-160 160s-160-71.632812-160-160 71.632812-160 160-160 160 71.632812 160 160zm0 0" fill="#f0f0fa"/><path d="m415.855469 276.246094c0 88.367187-71.632813 160-160 160-88.363281 0-160-71.632813-160-160 0-88.367188 71.636719-160 160-160 88.367187 0 160 71.632812 160 160zm0 0" fill="#f0f0fa"/><path d="m386 53c0 5.523438-4.476562 10-10 10s-10-4.476562-10-10 4.476562-10 10-10 10 4.476562 10 10zm0 0"/><path d="m256 106c-93.96875 0-170 76.046875-170 170 0 93.738281 76.261719 170 170 170 93.96875 0 170-76.046875 170-170 0-93.96875-76.046875-170-170-170zm0 320c-82.710938 0-150-67.289062-150-150 0-82.910156 67.101562-150 150-150 82.910156 0 150 67.101562 150 150 0 82.910156-67.101562 150-150 150zm0 0"/><path d="m462 0h-412c-27.570312 0-50 22.429688-50 50v412c0 27.570312 22.429688 50 50 50h412c27.570312 0 50-22.429688 50-50v-412c0-27.570312-22.429688-50-50-50zm30 462c0 16.542969-13.457031 30-30 30h-412c-16.542969 0-30-13.457031-30-30v-412c0-16.542969 13.457031-30 30-30h412c16.542969 0 30 13.457031 30 30zm0 0"/><path d="m136 63h200c5.523438 0 10-4.476562 10-10s-4.476562-10-10-10h-200c-5.523438 0-10 4.476562-10 10s4.476562 10 10 10zm0 0"/><path d="m326 226c11.027344 0 20 8.972656 20 20 0 5.523438 4.476562 10 10 10s10-4.476562 10-10c0-22.054688-17.945312-40-40-40s-40 17.945312-40 40c0 21.121094 16.707031 39.695312 40 40 11.027344 0 20 8.972656 20 20s-8.972656 20-20 20c-19.984375 0-27.449219-18.300781-37.96875-48.160156-11.273438-32.007813-25.308594-71.839844-72.03125-71.839844-38.597656 0-70 31.402344-70 70s31.402344 70 70 70c18.691406 0 36.269531-7.277344 49.496094-20.496094 3.90625-3.902344 3.910156-10.234375.007812-14.144531-3.902344-3.90625-10.234375-3.90625-14.144531-.003906-9.449219 9.445312-22.007813 14.644531-35.359375 14.644531-27.570312 0-50-22.429688-50-50s22.429688-50 50-50c30.371094 0 40.347656 22.09375 53.167969 58.484375 10.160156 28.832031 21.671875 61.515625 56.832031 61.515625 22.054688 0 40-17.945312 40-40 0-20.085938-14.769531-37.101562-34.136719-39.5625-1.777343-.226562-3.550781-.367188-5.863281-.4375-11.027344 0-20-8.972656-20-20s8.972656-20 20-20zm0 0"/></svg>