<svg height="512pt" viewBox="0 0 512 512" width="512pt" xmlns="http://www.w3.org/2000/svg"><path d="m502 50v412c0 22.089844-17.910156 40-40 40h-412c-22.089844 0-40-17.910156-40-40v-412c0-22.089844 17.910156-40 40-40h412c22.089844 0 40 17.910156 40 40zm0 0" fill="#c36eff"/><path d="m416 116v220l-60 60h-100l-40 40h-40v-40h-80v-240l40-40zm0 0" fill="#f0f0fa"/><path d="m376 156v140l-40 40h-80l-40 40v-40h-60v-180zm0 0" fill="#c36eff"/><path d="m386 53c0 5.523438-4.476562 10-10 10s-10-4.476562-10-10 4.476562-10 10-10 10 4.476562 10 10zm0 0"/><path d="m416 106h-280c-2.652344 0-5.195312 1.054688-7.070312 2.929688l-40 40c-1.875 1.875-2.929688 4.417968-2.929688 7.070312v240c0 5.523438 4.476562 10 10 10h70v30c0 5.523438 4.476562 10 10 10h40c2.652344 0 5.195312-1.054688 7.070312-2.929688l37.070313-37.070312h95.859375c2.652344 0 5.195312-1.054688 7.070312-2.929688l60-60c1.875-1.875 2.929688-4.417968 2.929688-7.070312v-220c0-5.523438-4.476562-10-10-10zm-10 225.855469-54.140625 54.144531h-95.859375c-2.652344 0-5.195312 1.054688-7.070312 2.929688l-37.070313 37.070312h-25.859375v-30c0-5.523438-4.476562-10-10-10h-70v-225.855469l34.140625-34.144531h265.859375zm0 0"/><path d="m462 0h-412c-27.570312 0-50 22.429688-50 50v412c0 27.570312 22.429688 50 50 50h412c27.570312 0 50-22.429688 50-50v-412c0-27.570312-22.429688-50-50-50zm30 462c0 16.542969-13.457031 30-30 30h-412c-16.542969 0-30-13.457031-30-30v-412c0-16.542969 13.457031-30 30-30h412c16.542969 0 30 13.457031 30 30zm0 0"/><path d="m136 63h200c5.523438 0 10-4.476562 10-10s-4.476562-10-10-10h-200c-5.523438 0-10 4.476562-10 10s4.476562 10 10 10zm0 0"/><path d="m156 346h50v30c0 8.957031 10.824219 13.316406 17.070312 7.070312l37.070313-37.070312h75.859375c2.652344 0 5.195312-1.054688 7.070312-2.929688l40-40c1.875-1.875 2.929688-4.417968 2.929688-7.070312v-140c0-5.523438-4.476562-10-10-10h-220c-5.523438 0-10 4.476562-10 10v180c0 5.523438 4.476562 10 10 10zm10-180h200v125.855469l-34.140625 34.144531h-75.859375c-2.652344 0-5.195312 1.054688-7.070312 2.929688l-22.929688 22.925781v-15.855469c0-5.523438-4.476562-10-10-10h-50zm0 0"/><path d="m256 286c5.523438 0 10-4.476562 10-10v-60c0-5.523438-4.476562-10-10-10s-10 4.476562-10 10v60c0 5.523438 4.476562 10 10 10zm0 0"/><path d="m316 286c5.523438 0 10-4.476562 10-10v-60c0-5.523438-4.476562-10-10-10s-10 4.476562-10 10v60c0 5.523438 4.476562 10 10 10zm0 0"/></svg>