<svg height="512pt" viewBox="0 0 512 512" width="512pt" xmlns="http://www.w3.org/2000/svg"><path d="m502 50v412c0 22.089844-17.910156 40-40 40h-412c-22.089844 0-40-17.910156-40-40v-412c0-22.089844 17.910156-40 40-40h412c22.089844 0 40 17.910156 40 40zm0 0" fill="#7dd787"/><path d="m416 276.328125c0 88.367187-71.632812 160-160 160s-160-71.632813-160-160c0-88.363281 71.632812-160 160-160s160 71.636719 160 160zm0 0" fill="#f0f0fa"/><path d="m386 53.328125c0 5.523437-4.476562 10-10 10s-10-4.476563-10-10c0-5.519531 4.476562-10 10-10s10 4.480469 10 10zm0 0"/><path d="m256 106.328125c-93.738281 0-170 76.265625-170 170 0 93.738281 76.261719 170 170 170s170-76.261719 170-170c0-93.734375-76.261719-170-170-170zm0 320c-82.710938 0-150-67.289063-150-150 0-82.707031 67.289062-150 150-150s150 67.292969 150 150c0 82.710937-67.289062 150-150 150zm0 0"/><path d="m462 0h-412c-27.570312 0-50 22.429688-50 50v412c0 27.570312 22.429688 50 50 50h412c27.570312 0 50-22.429688 50-50v-412c0-27.570312-22.429688-50-50-50zm30 462c0 16.542969-13.457031 30-30 30h-412c-16.542969 0-30-13.457031-30-30v-412c0-16.542969 13.457031-30 30-30h412c16.542969 0 30 13.457031 30 30zm0 0"/><path d="m136 63.328125h200c5.523438 0 10-4.476563 10-10 0-5.519531-4.476562-10-10-10h-200c-5.523438 0-10 4.480469-10 10 0 5.523437 4.476562 10 10 10zm0 0"/><path d="m151.378906 204.769531c-5.4375.957031-9.074218 6.140625-8.117187 11.582031.953125 5.4375 6.140625 9.070313 11.578125 8.117188 21.117187-3.707031 42.71875-5.589844 64.210937-5.589844 50.304688 0 101.273438 10.496094 147.394531 30.355469 5.113282 2.203125 10.976563-.199219 13.140626-5.230469 2.183593-5.070312-.15625-10.953125-5.230469-13.140625-48.597657-20.921875-102.300781-31.984375-155.304688-31.984375-22.648437 0-45.414062 1.984375-67.671875 5.890625zm0 0"/><path d="m357.761719 289.144531c-63.023438-28.992187-135.1875-37.488281-203.15625-23.929687l-.511719.101562c-5.417969 1.058594-8.957031 6.308594-7.898438 11.730469 1.058594 5.417969 6.304688 8.964844 11.730469 7.898437l.550781-.109374c63.902344-12.75 131.710938-4.765626 190.925782 22.480468 5.003906 2.300782 10.949218.125 13.261718-4.90625 2.308594-5.015625.113282-10.957031-4.902343-13.265625zm0 0"/><path d="m327.152344 341.175781c-49.007813-21.269531-102.726563-27.546875-155.351563-18.148437-5.4375.96875-9.054687 6.164062-8.085937 11.601562.972656 5.4375 6.167968 9.046875 11.601562 8.085938 48.734375-8.703125 98.484375-2.890625 143.871094 16.808594 5.042969 2.191406 10.949219-.101563 13.15625-5.191407 2.199219-5.066406-.125-10.957031-5.191406-13.15625zm0 0"/></svg>