<svg height="512pt" viewBox="0 0 512 512" width="512pt" xmlns="http://www.w3.org/2000/svg"><path d="m502 50v412c0 22.089844-17.910156 40-40 40h-412c-22.089844 0-40-17.910156-40-40v-412c0-22.089844 17.910156-40 40-40h412c22.089844 0 40 17.910156 40 40zm-116 3c0-5.519531-4.480469-10-10-10s-10 4.480469-10 10 4.480469 10 10 10 10-4.480469 10-10zm0 0" fill="#ff9cd7"/><path d="m376 136-50 200h-90l-80 109.378906v-309.378906zm0 0" fill="#f0f0fa"/><path d="m386 53c0 5.523438-4.476562 10-10 10s-10-4.476562-10-10 4.476562-10 10-10 10 4.476562 10 10zm0 0"/><path d="m376 126h-220c-5.523438 0-10 4.476562-10 10v309.378906c0 4.328125 2.78125 8.164063 6.894531 9.507813 4.128907 1.347656 8.632813-.121094 11.175781-3.605469l77.003907-105.28125h84.925781c4.589844 0 8.589844-3.121094 9.699219-7.574219l50-200c.75-2.988281.078125-6.152343-1.816407-8.578125-1.894531-2.429687-4.804687-3.847656-7.882812-3.847656zm-32.808594 100h-117.191406c-5.523438 0-10 4.476562-10 10s4.476562 10 10 10h112.191406l-20 80h-82.191406c-3.1875 0-6.1875 1.519531-8.070312 4.097656l-61.929688 84.671875v-268.769531h197.191406zm0 0"/><path d="m462 0h-412c-27.570312 0-50 22.429688-50 50v412c0 27.570312 22.429688 50 50 50h412c27.570312 0 50-22.429688 50-50v-412c0-27.570312-22.429688-50-50-50zm30 462c0 16.542969-13.457031 30-30 30h-412c-16.542969 0-30-13.457031-30-30v-412c0-16.542969 13.457031-30 30-30h412c16.542969 0 30 13.457031 30 30zm0 0"/><path d="m346 53c0-5.523438-4.476562-10-10-10h-200c-5.523438 0-10 4.476562-10 10s4.476562 10 10 10h200c5.523438 0 10-4.476562 10-10zm0 0"/></svg>