<svg height="512pt" viewBox="0 0 512 512" width="512pt" xmlns="http://www.w3.org/2000/svg"><path d="m502 50v412c0 22.089844-17.910156 40-40 40h-412c-22.089844 0-40-17.910156-40-40v-412c0-22.089844 17.910156-40 40-40h412c22.089844 0 40 17.910156 40 40zm-116 3c0-5.519531-4.480469-10-10-10s-10 4.480469-10 10 4.480469 10 10 10 10-4.480469 10-10zm0 0" fill="#7dd787"/><path d="m396 256c0 77.320312-62.679688 180-140 180v-40c-77.320312 0-140-62.679688-140-140s62.679688-140 140-140c77.328125 0 140 62.675781 140 140zm0 0" fill="#f0f0fa"/><path d="m236 216v60c0 22.089844-17.910156 40-40 40v-40h-20v-60zm0 0" fill="#7dd787"/><path d="m336 216v60c0 22.089844-17.910156 40-40 40v-40h-20v-60zm0 0" fill="#7dd787"/><path d="m386 53c0 5.523438-4.476562 10-10 10s-10-4.476562-10-10 4.476562-10 10-10 10 4.476562 10 10zm0 0"/><path d="m256 106c-82.710938 0-150 67.289062-150 150 0 79.347656 61.9375 144.503906 140 149.671875v30.328125c0 5.523438 4.476562 10 10 10 83.8125 0 150-107.761719 150-190 0-82.921875-67.097656-150-150-150zm10 319.335938v-29.335938c0-5.523438-4.476562-10-10-10-71.683594 0-130-58.316406-130-130s58.316406-130 130-130c71.867188 0 130 58.148438 130 130 0 71.28125-55.386719 160.777344-120 169.335938zm0 0"/><path d="m462 0h-412c-27.570312 0-50 22.429688-50 50v412c0 27.570312 22.429688 50 50 50h412c27.570312 0 50-22.429688 50-50v-412c0-27.570312-22.429688-50-50-50zm30 462c0 16.542969-13.457031 30-30 30h-412c-16.542969 0-30-13.457031-30-30v-412c0-16.542969 13.457031-30 30-30h412c16.542969 0 30 13.457031 30 30zm0 0"/><path d="m136 63h200c5.523438 0 10-4.476562 10-10s-4.476562-10-10-10h-200c-5.523438 0-10 4.476562-10 10s4.476562 10 10 10zm0 0"/><path d="m336 206h-60c-5.523438 0-10 4.476562-10 10v60c0 5.523438 4.476562 10 10 10h10v30c0 5.523438 4.476562 10 10 10 27.570312 0 50-22.429688 50-50v-60c0-5.523438-4.476562-10-10-10zm-10 70c0 13.035156-8.359375 24.160156-20 28.285156v-28.285156c0-5.523438-4.476562-10-10-10h-10v-40h40zm0 0"/><path d="m236 206h-60c-5.523438 0-10 4.476562-10 10v60c0 5.523438 4.476562 10 10 10h10v30c0 5.523438 4.476562 10 10 10 27.570312 0 50-22.429688 50-50v-60c0-5.523438-4.476562-10-10-10zm-10 70c0 13.035156-8.359375 24.160156-20 28.285156v-28.285156c0-5.523438-4.476562-10-10-10h-10v-40h40zm0 0"/></svg>