<svg height="512pt" viewBox="0 0 512 512" width="512pt" xmlns="http://www.w3.org/2000/svg"><path d="m502 50v412c0 22.089844-17.910156 40-40 40h-412c-22.089844 0-40-17.910156-40-40v-412c0-22.089844 17.910156-40 40-40h412c22.089844 0 40 17.910156 40 40zm0 0" fill="#78d2fa"/><g fill="#f0f0fa"><path d="m416 186-60 40-100-60 60-40zm0 0"/><path d="m256 166-100 60-60-40 100-60zm0 0"/><path d="m356 226-100 60-100-60-60 60 60 36v44l100 60 100-60s0-19.160156 0-44l60-36zm0 0"/></g><path d="m386 53c0 5.523438-4.476562 10-10 10s-10-4.476562-10-10 4.476562-10 10-10 10 4.476562 10 10zm0 0"/><path d="m462 0h-412c-27.570312 0-50 22.429688-50 50v412c0 27.570312 22.429688 50 50 50h412c27.570312 0 50-22.429688 50-50v-412c0-27.570312-22.429688-50-50-50zm30 462c0 16.542969-13.457031 30-30 30h-412c-16.542969 0-30-13.457031-30-30v-412c0-16.542969 13.457031-30 30-30h412c16.542969 0 30 13.457031 30 30zm0 0"/><path d="m136 63h200c5.523438 0 10-4.476562 10-10s-4.476562-10-10-10h-200c-5.523438 0-10 4.476562-10 10s4.476562 10 10 10zm0 0"/><path d="m371.695312 227.554688 49.851563-33.234376c2.851563-1.902343 4.53125-5.132812 4.449219-8.558593-.082032-3.425781-1.914063-6.574219-4.851563-8.335938l-100-60c-3.316406-1.988281-7.476562-1.890625-10.691406.253907l-54.453125 36.300781-54.453125-36.300781c-3.214844-2.144532-7.378906-2.242188-10.691406-.253907l-100 60c-2.941407 1.761719-4.769531 4.910157-4.851563 8.335938-.082031 3.429687 1.597656 6.65625 4.449219 8.558593l49.851563 33.234376-51.375 51.375c-2.175782 2.179687-3.230469 5.238281-2.855469 8.292968.375 3.058594 2.140625 5.769532 4.78125 7.355469l55.144531 33.082031v38.339844c0 3.511719 1.84375 6.769531 4.855469 8.574219 21.207031 12.722656 99.378906 59.632812 100.125 60.0625 3.195312 1.863281 7.117187 1.769531 10.164062-.0625l100-60c3.011719-1.808594 4.855469-5.0625 4.855469-8.574219v-38.339844l55.144531-33.085937c2.640625-1.585938 4.402344-4.296875 4.78125-7.351563.375-3.058594-.679687-6.117187-2.855469-8.292968zm-55.414062-89.722657 81.023438 48.613281-41.585938 27.722657-81.023438-48.613281zm-60.28125 136.507813-80.5625-48.339844 80.5625-48.339844 80.5625 48.339844zm-60.28125-136.507813 41.585938 27.722657-81.023438 48.613281-41.585938-27.722657zm-38.167969 100.761719 82.320313 49.390625-45.421875 45.425781-82.320313-49.394531zm8.449219 101.066406 24.855469 14.914063c3.964843 2.378906 9 1.714843 12.214843-1.503907l42.929688-42.929687v98.199219l-80-48.003906zm180 20.679688-80 48v-98.195313l42.929688 42.925781c3.230468 3.230469 8.265624 3.875 12.214843 1.503907l24.855469-14.914063zm-28.449219-26.933594-45.421875-45.421875 82.320313-49.390625 45.421875 45.421875zm0 0"/></svg>