<svg height="512pt" viewBox="0 0 512 512" width="512pt" xmlns="http://www.w3.org/2000/svg"><path d="m502 50v412c0 22.089844-17.910156 40-40 40h-412c-22.089844 0-40-17.910156-40-40v-412c0-22.089844 17.910156-40 40-40h412c22.089844 0 40 17.910156 40 40zm0 0" fill="#7dd787"/><path d="m395 273.730469v38.667969c-16.671875 4-17 4-37.671875 4.671874-12 28-77.328125 124.660157-108.65625 118.660157h.65625c-12.65625-2-23.328125-11.332031-38-26-34.839844-32.730469-70.519531-108.949219-86.839844-185.601563-4.289062-20.140625-7.238281-38.707031-8.488281-58.128906h53.328125c14 98 36 163.070312 83.34375 217.070312 23.328125-22 42.65625-52.671874 56-77.339843-26-12-40.671875-34.660157-48.671875-55.332031-24.671875-64-3.328125-132 66.671875-134 51.328125 0 68.65625 38.671874 69.328125 75.332031-.5 16.347656-2.460938 29.019531-6.179688 42.109375-17.660156 4.582031-38.5 5.378906-49.761718-8.820313 6.992187-22.96875 6.871094-61.320312-17.386719-61.949219-17.34375 1.328126-22 22.660157-22 37.328126 4.65625 60 43 86.671874 94.328125 73.332031zm0 0" fill="#f0f0fa"/><path d="m386 53c0 5.523438-4.476562 10-10 10s-10-4.476562-10-10 4.476562-10 10-10 10 4.476562 10 10zm0 0"/><path d="m326.671875 106.398438c-.097656 0-.191406.003906-.289063.003906-76.253906 2.183594-103.367187 75.855468-75.707031 147.605468 6.882813 17.789063 20.015625 40.960938 44.320313 55.753907-13.441406 23.613281-27.65625 43.550781-41.71875 58.53125-39.109375-48.101563-60.164063-106.511719-74.046875-203.707031-.707031-4.929688-4.925781-8.585938-9.902344-8.585938h-53.328125c-2.765625 0-5.402344 1.144531-7.292969 3.160156s-2.863281 4.722656-2.6875 7.480469c5.4375 84.429687 48.285157 203.101563 98.347657 250.265625 35.914062 35.902344 57.53125 47.992188 113.660156-21.472656 19.574218-24.222656 37.414062-52.039063 45.742187-68.574219 15.734375-.5625 18.199219-1.050781 33.566407-4.738281 4.492187-1.074219 7.664062-5.097656 7.664062-9.722656v-38.667969c0-6.535157-6.179688-11.324219-12.515625-9.679688-21.90625 5.691407-40.949219 3.378907-55.074219-6.695312-15.355468-10.949219-24.59375-30.761719-26.734375-57.3125.042969-3.242188.777344-25.453125 12.269531-26.953125 14.171876.964844 12.324219 33.332031 7.550782 49.019531-.957032 3.140625-.308594 6.550781 1.730468 9.121094 11.824219 14.910156 33.167969 19.273437 60.105469 12.289062 3.433594-.890625 6.136719-3.535156 7.109375-6.945312 4.023438-14.164063 6.046875-27.898438 6.554688-44.539063.003906-.164062.007812-.324218.003906-.488281-.921875-50.234375-28.921875-85.148437-79.328125-85.148437zm55.027344 119.035156c-9.644531 1.875-22.375 2.660156-30.484375-3.40625 7.0625-29.972656 2.0625-68.164063-28.285156-68.953125-.34375-.007813-.683594 0-1.023438.027343-18.976562 1.453126-31.234375 20.019532-31.234375 47.300782 0 .257812.007813.515625.027344.773437 2.554687 32.851563 14.6875 57.910157 35.097656 72.464844 16.183594 11.542969 36.464844 15.730469 59.203125 12.339844v18.503906c-8.726562 1.96875-11.855469 2.070313-27.804688 2.585937l-.1875.003907c-3.882812.128906-7.339843 2.488281-8.867187 6.058593-5.800781 13.535157-24.914063 44.046876-45.667969 69.734376-27.566406 34.113281-44.371094 43.085937-50.839844 43.132812-.242187-.058594-.492187-.105469-.742187-.144531-9.332031-1.476563-18.261719-8.96875-32.488281-23.195313-.074219-.070312-.148438-.144531-.222656-.214844-33.488282-31.460937-67.992188-105.640624-83.90625-180.394531 0-.003906 0-.003906 0-.003906-3.675782-17.253906-6.046876-31.882813-7.429688-46.046875h33.847656c12.082032 80.136719 31.273438 152.992188 84.460938 213.664062 3.726562 4.246094 10.25 4.578126 14.378906.683594 19.976562-18.835937 39.46875-45.707031 57.9375-79.859375 2.746094-5.078125.628906-11.417969-4.605469-13.835937-24.390625-11.257813-37.136719-33.328125-43.53125-49.847656-21.855469-56.699219-5.707031-118.507813 57.480469-120.402344 52.128906.082031 58.777344 45.460937 59.183594 65.269531-.402344 12.746094-1.714844 23.179687-4.296875 33.761719zm0 0"/><path d="m462 0h-412c-27.570312 0-50 22.429688-50 50v412c0 27.570312 22.429688 50 50 50h412c27.570312 0 50-22.429688 50-50v-412c0-27.570312-22.429688-50-50-50zm30 462c0 16.542969-13.457031 30-30 30h-412c-16.542969 0-30-13.457031-30-30v-412c0-16.542969 13.457031-30 30-30h412c16.542969 0 30 13.457031 30 30zm0 0"/><path d="m136 63h200c5.523438 0 10-4.476562 10-10s-4.476562-10-10-10h-200c-5.523438 0-10 4.476562-10 10s4.476562 10 10 10zm0 0"/></svg>