<svg height="512pt" viewBox="0 0 512 512" width="512pt" xmlns="http://www.w3.org/2000/svg"><path d="m502 50v412c0 22.089844-17.910156 40-40 40h-412c-22.089844 0-40-17.910156-40-40v-412c0-22.089844 17.910156-40 40-40h412c22.089844 0 40 17.910156 40 40zm0 0" fill="#f95d5d"/><path d="m255.648438 116c83.292968 0 168.839843 54.898438 158.160156 136.710938-7.378906 56.480468-60.160156 94.847656-112 95.988281-18.558594.402343-34.589844-3.929688-45.808594-6.027344v12.289063c-.921875 59.898437-24.980469 80.988281-59.710938 81.039062h-.039062c-10.53125 0-21.21875-2.359375-31.769531-7.03125-10.222657-4.527344-9.390625-16.492188-6.929688-43.289062 7.960938 3.589843 15.378907 7.21875 23.320313 7.242187 10.398437-.011719 34.699218-6.3125 35.128906-48.933594v-127.917969l40-.070312v69.828125c.519531 17.832031 21.210938 26.613281 44.070312 24.832031 29.851563-2.332031 63.988282-22.671875 63.929688-64.410156-.058594-43.101562-42.960938-87.871094-109.5-87.871094-66.839844.089844-107.730469 45.359375-109.75 81.851563-.820312 14.730469 4.011719 29.96875 14.449219 46.578125l-39.070313 30.902344c-18.46875-22.492188-26-47.519532-23.738281-78.78125 6.320313-86.929688 74.890625-122.929688 159.257813-122.929688zm0 0" fill="#f0f0fa"/><path d="m386 53c0 5.523438-4.476562 10-10 10s-10-4.476562-10-10 4.476562-10 10-10 10 4.476562 10 10zm0 0"/><path d="m255.648438 105.988281c-91.578126 0-162.617188 41.210938-169.234376 132.210938-2.453124 33.988281 5.800782 61.269531 25.988282 85.847656 3.457031 4.214844 9.65625 4.878906 13.929687 1.496094l39.070313-30.898438c4.003906-3.167969 4.980468-8.84375 2.261718-13.167969-9.394531-14.945312-13.621093-28.257812-12.929687-40.703124 1.675781-30.300782 37.285156-72.320313 99.765625-72.402344 61.390625 0 99.449219 40.429687 99.5 77.886718.058594 39.585938-34.363281 52.835938-54.707031 54.425782-12.300781.957031-23.527344-1.671875-29.304688-6.863282-2.59375-2.332031-3.863281-4.925781-3.988281-8.164062v-69.667969c0-2.652343-1.054688-5.199219-2.9375-7.074219-1.875-1.875-4.414062-2.925781-7.0625-2.925781-.007812 0-.011719 0-.019531 0l-40 .070313c-5.515625.011718-9.980469 4.484375-9.980469 10v127.867187c-.382812 36.148438-19.335938 38.976563-25.105469 38.984375-5.761719-.015625-12.332031-3.230468-19.234375-6.355468-6.246094-2.816407-13.441406 1.355468-14.066406 8.199218-.804688 8.699219-1.636719 16.972656-1.59375 24.785156.042969 7.214844.132812 22.230469 14.433594 28.5625 11.820312 5.234376 23.871094 7.886719 35.871094 7.886719 50.777343-.074219 68.910156-39.652343 69.695312-90.886719 0-.050781 0-.101562 0-.152343v-.054688c9.894531 1.984375 22.347656 4.078125 36.027344 3.792969 58.632812-1.292969 113.894531-44.960938 121.699218-104.691406 11.539063-88.390625-78.917968-148.007813-168.078124-148.007813zm148.246093 145.414063c-6.976562 53.382812-57.492187 86.304687-102.300781 87.289062-17.246094.386719-32.515625-3.761718-43.753906-5.859375-6.125-1.15625-11.839844 3.554688-11.839844 9.828125v12.207032c-.996094 63.6875-28.855469 71.09375-49.75 71.121093-9.140625 0-18.464844-2.074219-27.71875-6.171875-1.105469-.488281-2.476562-1.097656-2.53125-10.394531-.015625-2.917969.113281-5.9375.335938-9.207031 4.574218 1.582031 9.367187 2.683594 14.542968 2.695312 20.542969-.019531 44.683594-15.4375 45.121094-58.832031 0-.03125 0-.066406 0-.097656v-117.988281l20-.035157v59.863281c0 .097657 0 .195313.003906.289063.257813 8.765625 3.925782 16.574219 10.617188 22.585937 10.003906 8.988282 26.125 13.335938 44.226562 11.925782 35.28125-2.753906 73.21875-27.210938 73.152344-74.394532-.066406-47.0625-45.769531-97.855468-119.515625-97.855468-70.503906.09375-117.328125 48.113281-119.71875 91.292968-.800781 14.363282 2.941406 29.054688 11.414063 44.683594l-24.203126 19.144532c-12.4375-18.371094-17.417968-38.910157-15.613281-63.847657 7.1875-98.886719 96.617188-113.652343 149.285157-113.652343 76.898437-.003907 158.105468 49.878906 148.246093 125.410156zm0 0"/><path d="m462 0h-412c-27.570312 0-50 22.429688-50 50v412c0 27.570312 22.429688 50 50 50h412c27.570312 0 50-22.429688 50-50v-412c0-27.570312-22.429688-50-50-50zm30 462c0 16.542969-13.457031 30-30 30h-412c-16.542969 0-30-13.457031-30-30v-412c0-16.542969 13.457031-30 30-30h412c16.542969 0 30 13.457031 30 30zm0 0"/><path d="m136 63h200c5.523438 0 10-4.476562 10-10s-4.476562-10-10-10h-200c-5.523438 0-10 4.476562-10 10s4.476562 10 10 10zm0 0"/></svg>