<svg height="512pt" viewBox="0 0 512 512" width="512pt" xmlns="http://www.w3.org/2000/svg"><path d="m502 50v412c0 22.089844-17.910156 40-40 40h-412c-22.089844 0-40-17.910156-40-40v-412c0-22.089844 17.910156-40 40-40h412c22.089844 0 40 17.910156 40 40zm0 0" fill="#78d2fa"/><path d="m415.808594 187.488281c3.640625 62.691407-71.457032 156.800781-125.949219 203.613281-21.894531 18.792969-53.015625 33.363282-71.960937 10.859376-16.167969-19.28125-25.828126-56.179688-35.167969-91.882813-8.730469-33.367187-17.761719-67.859375-32.769531-90.136719-5.359376-7.953125-11.882813-11.992187-19.390626-11.992187-8.410156 0-15.921874 4.972656-25.421874 11.269531-.257813.179688-.539063.351562-.808594.542969l-4.390625-5.511719c25.367187-21.035156 46.496093-38.621094 65.972656-54.03125 22.117187-17.523438 44.78125-10.429688 50.539063 7.140625 20.996093 64.175781 21.980468 163.359375 57.628906 163.359375 4.488281 0 8.871094-1.660156 13.019531-4.9375 19.128906-15.121094 49.621094-58.839844 52-90.28125 1.796875-24.128906-13.820313-41.050781-41.828125-36.550781 3.449219-8.097657 7.949219-15.75 13.589844-23.160157 14.140625-18.527343 38.089844-30.507812 61.007812-30.507812 12.472656 0 41.730469 4.117188 43.929688 42.207031zm0 0" fill="#f0f0fa"/><path d="m386 53c0 5.523438-4.476562 10-10 10s-10-4.476562-10-10 4.476562-10 10-10 10 4.476562 10 10zm0 0"/><path d="m371.878906 135.28125c-33.179687 0-66.960937 20.210938-83.800781 59.75-3.070313 7.21875 3.011719 15.039062 10.789063 13.792969 2.777343-.445313 5.265624-.664063 7.601562-.664063 13.898438 0 23.992188 8.839844 22.671875 26.585938-2.554687 33.714844-43.074219 85.972656-55.050781 85.972656-2.257813 0-8.25 0-15.3125-17.808594-11.695313-29.503906-20.480469-100.964844-32.8125-138.664062-4.816406-14.6875-18.28125-24.175782-34.316406-24.175782-10.726563 0-21.773438 4.257813-31.933594 12.308594-19.503906 15.429688-39.335938 31.945313-66.140625 54.167969-4.199219 3.476563-4.84375 9.671875-1.445313 13.933594l4.390625 5.511719c3.105469 3.898437 8.660157 5.300781 14.21875 1.519531 8.0625-5.34375 14.433594-9.5625 19.832031-9.5625 1.480469 0 5.988282 0 11.097657 7.578125 14.070312 20.886718 22.871093 54.539062 31.386719 87.085937 9.617187 36.753907 19.5625 74.761719 37.195312 95.785157 8.394531 9.976562 19.035156 15.03125 31.628906 15.03125 16.554688 0 35.910156-8.785157 54.5-24.746094 30.53125-26.226563 62.882813-62.804688 86.542969-97.835938 20.789063-30.785156 45.101563-75.542968 42.871094-113.933594-1.929688-33.394531-23.667969-51.632812-53.914063-51.632812zm-5.53125 154.371094c-22.71875 33.640625-53.746094 68.730468-83 93.859375-14.527344 12.472656-30.03125 19.917969-41.46875 19.917969-6.6875 0-11.722656-2.441407-16.316406-7.898438-14.734375-17.566406-24.101562-53.367188-33.15625-87.984375-8.9375-34.160156-18.179688-69.488281-34.152344-93.199219-7.507812-11.132812-16.242187-15.039062-23.324218-16.082031 12.28125-10.148437 24.757812-20.363281 37.203124-30.207031 6.59375-5.226563 13.34375-7.988282 19.519532-7.988282 7.339844 0 13.203125 3.984376 15.304687 10.398438 11.390625 34.816406 21.195313 109.453125 33.230469 139.8125 2.984375 7.527344 12.070312 30.4375 33.902344 30.4375 6.796875 0 13.265625-2.386719 19.222656-7.09375 20.992188-16.589844 53.152344-62.769531 55.773438-97.382812 2.03125-27.347657-14.421876-44.378907-35.082032-47.523438 14.449219-22.4375 36.769532-33.441406 57.878906-33.441406 14.621094 0 32.378907 5.691406 33.945313 32.792968 1.507813 25.976563-12.144531 61.101563-39.480469 101.582032zm0 0"/><path d="m462 0h-412c-27.570312 0-50 22.429688-50 50v412c0 27.570312 22.429688 50 50 50h412c27.570312 0 50-22.429688 50-50v-412c0-27.570312-22.429688-50-50-50zm30 462c0 16.542969-13.457031 30-30 30h-412c-16.542969 0-30-13.457031-30-30v-412c0-16.542969 13.457031-30 30-30h412c16.542969 0 30 13.457031 30 30zm0 0"/><path d="m136 63h200c5.523438 0 10-4.476562 10-10s-4.476562-10-10-10h-200c-5.523438 0-10 4.476562-10 10s4.476562 10 10 10zm0 0"/></svg>