<svg height="512pt" viewBox="0 0 512 512" width="512pt" xmlns="http://www.w3.org/2000/svg"><path d="m502 50v412c0 22.089844-17.910156 40-40 40h-412c-22.089844 0-40-17.910156-40-40v-412c0-22.089844 17.910156-40 40-40h412c22.089844 0 40 17.910156 40 40zm0 0" fill="#ffa143"/><path d="m416 236v80h-120v120h-80v-120h-120v-80h120v-120h80v120zm0 0" fill="#f0f0fa"/><path d="m386 53c0 5.523438-4.476562 10-10 10s-10-4.476562-10-10 4.476562-10 10-10 10 4.476562 10 10zm0 0"/><path d="m416 226h-110v-110c0-5.523438-4.476562-10-10-10h-80c-5.523438 0-10 4.476562-10 10v110h-110c-5.523438 0-10 4.476562-10 10v80c0 5.523438 4.476562 10 10 10h110v110c0 5.523438 4.476562 10 10 10h80c5.523438 0 10-4.476562 10-10v-110h110c5.523438 0 10-4.476562 10-10v-80c0-5.523438-4.476562-10-10-10zm-10 80h-110c-5.523438 0-10 4.476562-10 10v110h-60v-110c0-5.523438-4.476562-10-10-10h-110v-60h110c5.523438 0 10-4.476562 10-10v-110h60v110c0 5.523438 4.476562 10 10 10h110zm0 0"/><path d="m462 0h-412c-27.570312 0-50 22.429688-50 50v412c0 27.570312 22.429688 50 50 50h412c27.570312 0 50-22.429688 50-50v-412c0-27.570312-22.429688-50-50-50zm30 462c0 16.542969-13.457031 30-30 30h-412c-16.542969 0-30-13.457031-30-30v-412c0-16.542969 13.457031-30 30-30h412c16.542969 0 30 13.457031 30 30zm0 0"/><path d="m136 63h200c5.523438 0 10-4.476562 10-10s-4.476562-10-10-10h-200c-5.523438 0-10 4.476562-10 10s4.476562 10 10 10zm0 0"/></svg>