<svg height="512pt" viewBox="0 0 512 512" width="512pt" xmlns="http://www.w3.org/2000/svg"><path d="m502 50v412c0 22.089844-17.910156 40-40 40h-412c-22.089844 0-40-17.910156-40-40v-412c0-22.089844 17.910156-40 40-40h412c22.089844 0 40 17.910156 40 40zm0 0" fill="#f0f0fa"/><path d="m166 176 50 80-50 80h-60l50-80-50-80zm0 0" fill="#709193"/><path d="m406 116-120 200 72 120h-60l-72-120 120-200zm0 0" fill="#7dd787"/><path d="m386 53c0 5.523438-4.476562 10-10 10s-10-4.476562-10-10 4.476562-10 10-10 10 4.476562 10 10zm0 0"/><path d="m224.480469 250.699219-50-80c-1.828125-2.921875-5.03125-4.699219-8.480469-4.699219h-60c-3.636719 0-6.984375 1.972656-8.746094 5.152344-1.765625 3.179687-1.660156 7.066406.265625 10.148437l46.6875 74.699219-46.6875 74.699219c-1.925781 3.082031-2.027343 6.96875-.265625 10.148437 1.761719 3.179688 5.109375 5.152344 8.746094 5.152344h60c3.449219 0 6.652344-1.777344 8.480469-4.699219l50-80c2.027343-3.242187 2.027343-7.359375 0-10.601562zm-64.023438 75.300781h-36.414062l40.4375-64.699219c2.027343-3.242187 2.027343-7.359375 0-10.601562l-40.4375-64.699219h36.414062l43.75 70zm0 0"/><path d="m406 106h-60c-3.511719 0-6.769531 1.84375-8.574219 4.855469l-120 200c-1.902343 3.164062-1.902343 7.121093 0 10.289062l72 120c1.804688 3.011719 5.0625 4.855469 8.574219 4.855469h60c3.601562 0 6.925781-1.9375 8.703125-5.074219 1.773437-3.136719 1.726563-6.980469-.128906-10.070312l-68.914063-114.855469 116.914063-194.855469c1.855469-3.089843 1.902343-6.9375.128906-10.070312-1.777344-3.136719-5.101563-5.074219-8.703125-5.074219zm-128.574219 204.855469c-1.902343 3.164062-1.902343 7.121093 0 10.289062l62.914063 104.855469h-36.679688l-66-110 114-190h36.679688zm0 0"/><path d="m462 0h-412c-27.570312 0-50 22.429688-50 50v412c0 27.570312 22.429688 50 50 50h412c27.570312 0 50-22.429688 50-50v-412c0-27.570312-22.429688-50-50-50zm30 462c0 16.542969-13.457031 30-30 30h-412c-16.542969 0-30-13.457031-30-30v-412c0-16.542969 13.457031-30 30-30h412c16.542969 0 30 13.457031 30 30zm0 0"/><path d="m136 63h200c5.523438 0 10-4.476562 10-10s-4.476562-10-10-10h-200c-5.523438 0-10 4.476562-10 10s4.476562 10 10 10zm0 0"/></svg>