<svg height="512pt" viewBox="0 0 512 512" width="512pt" xmlns="http://www.w3.org/2000/svg"><path d="m502 50v412c0 22.089844-17.910156 40-40 40h-412c-22.089844 0-40-17.910156-40-40v-412c0-22.089844 17.910156-40 40-40h412c22.089844 0 40 17.910156 40 40zm0 0" fill="#ffa143"/><path d="m416 291v35c0 38.589844-31.410156 70-70 70s-70-31.410156-70-70v-42.640625l18.46875 9.230469 31.53125-10.511719v43.921875c0 11.03125 8.96875 20 20 20s20-8.96875 20-20v-35zm0 0" fill="#f0f0fa"/><path d="m326 216v23.921875l-28.46875 9.488281-21.53125-10.769531v-22.640625c0-11.03125-8.96875-20-20-20s-20 8.96875-20 20v110c0 38.589844-31.410156 70-70 70s-70-31.410156-70-70v-35h50v35c0 11.03125 8.96875 20 20 20s20-8.96875 20-20v-110c0-38.589844 31.410156-70 70-70s70 31.410156 70 70zm0 0" fill="#f0f0fa"/><path d="m386 53c0 5.523438-4.476562 10-10 10s-10-4.476562-10-10 4.476562-10 10-10 10 4.476562 10 10zm0 0"/><path d="m416 281h-50c-5.523438 0-10 4.476562-10 10v35c0 5.515625-4.484375 10-10 10s-10-4.484375-10-10v-43.921875c0-3.214844-1.546875-6.230469-4.152344-8.109375-2.609375-1.878906-5.960937-2.390625-9.007812-1.375l-27.605469 9.199219-14.765625-7.378907c-3.097656-1.546874-6.78125-1.382812-9.726562.441407-2.949219 1.820312-4.742188 5.039062-4.742188 8.503906v42.640625c0 44.113281 35.886719 80 80 80 44.109375 0 80-35.886719 80-80v-35c0-5.523438-4.476562-10-10-10zm-10 45c0 33.085938-26.914062 60-60 60s-60-26.914062-60-60v-26.464844l4 2c2.371094 1.1875 5.117188 1.378906 7.632812.542969l18.367188-6.125v30.046875c0 16.542969 13.457031 30 30 30s30-13.457031 30-30v-25h30zm0 0"/><path d="m266 238.640625c0 3.785156 2.140625 7.25 5.527344 8.941406l21.527344 10.773438c2.375 1.1875 5.121093 1.382812 7.636718.542969l28.46875-9.492188c4.085938-1.359375 6.839844-5.179688 6.839844-9.484375v-23.921875c0-44.113281-35.886719-80-80-80s-80 35.886719-80 80v110c0 5.515625-4.484375 10-10 10s-10-4.484375-10-10v-35c0-5.523438-4.476562-10-10-10h-50c-5.523438 0-10 4.476562-10 10v35c0 44.113281 35.886719 80 80 80s80-35.886719 80-80v-110c0-5.515625 4.484375-10 10-10s10 4.484375 10 10zm-10-52.640625c-16.542969 0-30 13.457031-30 30v110c0 33.085938-26.914062 60-60 60s-60-26.914062-60-60v-25h30v25c0 16.542969 13.457031 30 30 30s30-13.457031 30-30v-110c0-33.085938 26.914062-60 60-60s60 26.914062 60 60v16.710938l-17.699219 5.902343-12.300781-6.152343v-16.460938c0-16.542969-13.457031-30-30-30zm0 0"/><path d="m462 0h-412c-27.570312 0-50 22.429688-50 50v412c0 27.570312 22.429688 50 50 50h412c27.570312 0 50-22.429688 50-50v-412c0-27.570312-22.429688-50-50-50zm30 462c0 16.542969-13.457031 30-30 30h-412c-16.542969 0-30-13.457031-30-30v-412c0-16.542969 13.457031-30 30-30h412c16.542969 0 30 13.457031 30 30zm0 0"/><path d="m136 63h200c5.523438 0 10-4.476562 10-10s-4.476562-10-10-10h-200c-5.523438 0-10 4.476562-10 10s4.476562 10 10 10zm0 0"/></svg>