<svg height="512pt" viewBox="0 0 512 512" width="512pt" xmlns="http://www.w3.org/2000/svg"><path d="m502 50v412c0 22.089844-17.910156 40-40 40h-412c-22.089844 0-40-17.910156-40-40v-412c0-22.089844 17.910156-40 40-40h412c22.089844 0 40 17.910156 40 40zm0 0" fill="#7dd787"/><path d="m356 306v60h-102.308594l-37.691406 70h-60v-60l70-130h-70v-60h102.308594l37.691406-70h60v60l-70 130zm0 0" fill="#f0f0fa"/><path d="m386 53c0 5.523438-4.476562 10-10 10s-10-4.476562-10-10 4.476562-10 10-10 10 4.476562 10 10zm0 0"/><path d="m356 106h-60c-3.679688 0-7.0625 2.019531-8.804688 5.257812l-34.859374 64.742188h-96.335938c-5.523438 0-10 4.476562-10 10v60c0 5.523438 4.476562 10 10 10h53.257812l-62.0625 115.257812c-.785156 1.457032-1.195312 3.085938-1.195312 4.742188v60c0 5.523438 4.476562 10 10 10h60c3.679688 0 7.0625-2.019531 8.804688-5.257812l34.859374-64.742188h96.335938c5.523438 0 10-4.476562 10-10v-60c0-5.523438-4.476562-10-10-10h-53.257812l62.0625-115.257812c.785156-1.457032 1.195312-3.085938 1.195312-4.742188v-60c0-5.523438-4.476562-10-10-10zm-10 67.480469-68.804688 127.777343c-1.667968 3.101563-1.585937 6.847657.21875 9.871094 1.804688 3.019532 5.066407 4.871094 8.585938 4.871094h60v40h-92.308594c-3.679687 0-7.0625 2.019531-8.804687 5.257812l-34.859375 64.742188h-44.027344v-47.480469l68.804688-127.777343c1.667968-3.101563 1.585937-6.847657-.21875-9.871094-1.804688-3.019532-5.066407-4.871094-8.585938-4.871094h-60v-40h92.308594c3.679687 0 7.0625-2.019531 8.804687-5.257812l34.859375-64.742188h44.027344zm0 0"/><path d="m462 0h-412c-27.570312 0-50 22.429688-50 50v412c0 27.570312 22.429688 50 50 50h412c27.570312 0 50-22.429688 50-50v-412c0-27.570312-22.429688-50-50-50zm30 462c0 16.542969-13.457031 30-30 30h-412c-16.542969 0-30-13.457031-30-30v-412c0-16.542969 13.457031-30 30-30h412c16.542969 0 30 13.457031 30 30zm0 0"/><path d="m346 53c0-5.523438-4.476562-10-10-10h-200c-5.523438 0-10 4.476562-10 10s4.476562 10 10 10h200c5.523438 0 10-4.476562 10-10zm0 0"/></svg>