<svg height="512pt" viewBox="0 0 512 512" width="512pt" xmlns="http://www.w3.org/2000/svg"><path d="m502 50v412c0 22.089844-17.910156 40-40 40h-412c-22.089844 0-40-17.910156-40-40v-412c0-22.089844 17.910156-40 40-40h412c22.089844 0 40 17.910156 40 40zm0 0" fill="#78d2fa"/><path d="m401 151-233.429688 138.921875-61.570312-23.921875zm0 0" fill="#f0f0fa"/><path d="m226 310.621094-20 75.378906 50.859375-50.859375 89.140625 70.859375 55-255zm0 0" fill="#f0f0fa"/><path d="m386 53c0 5.523438-4.476562 10-10 10s-10-4.476562-10-10 4.476562-10 10-10 10 4.476562 10 10zm0 0"/><path d="m397.367188 141.683594-295 115c-3.839844 1.496094-6.371094 5.199218-6.367188 9.324218.003906 4.121094 2.535156 7.820313 6.378906 9.3125l57.519532 22.347657c6.585937 16.460937 36.425781 91.089843 36.898437 92.214843 2.773437 6.5625 11.300781 8.175782 16.273437 3.1875l44.550782-44.550781 82.15625 65.308594c5.75 4.570313 14.421875 1.578125 16-5.71875l55-255c1.636718-7.640625-5.867188-14.359375-13.410156-11.425781zm-105.335938 62.527344-125.386719 74.621093-33.070312-12.847656zm29.554688 5.6875-102.324219 93.332031c-1.328125 1.214843-2.421875 2.9375-2.917969 4.796875-.003906.007812-.007812.019531-.007812.027344l-12.261719 46.207031-24.046875-60.121094zm-89.839844 118.058593 10.117187 8.039063-16.671875 16.671875zm107.871094 60.195313c-19.089844-15.175782-80.507813-63.988282-98.207032-78.054688l143.21875-130.632812zm0 0"/><path d="m462 0h-412c-27.570312 0-50 22.429688-50 50v412c0 27.570312 22.429688 50 50 50h412c27.570312 0 50-22.429688 50-50v-412c0-27.570312-22.429688-50-50-50zm30 462c0 16.542969-13.457031 30-30 30h-412c-16.542969 0-30-13.457031-30-30v-412c0-16.542969 13.457031-30 30-30h412c16.542969 0 30 13.457031 30 30zm0 0"/><path d="m136 63h200c5.523438 0 10-4.476562 10-10s-4.476562-10-10-10h-200c-5.523438 0-10 4.476562-10 10s4.476562 10 10 10zm0 0"/></svg>