<svg height="512pt" viewBox="0 0 512 512" width="512pt" xmlns="http://www.w3.org/2000/svg"><path d="m502 50v412c0 22.089844-17.910156 40-40 40h-412c-22.089844 0-40-17.910156-40-40v-412c0-22.089844 17.910156-40 40-40h412c22.089844 0 40 17.910156 40 40zm0 0" fill="#7d97f4"/><path d="m416 376h-50c-5.039062.078125-14.429688-1.359375-18.921875-3.640625-16.769531-8.550781-23.609375-26.519531-38.847656-37.871094-10.421875-7.769531-19.070313-3.679687-24.859375 7.28125-4.589844 8.707031-7.371094 15.335938-7.371094 34.230469-96.589844 0-137.550781-73.359375-178.738281-180h59.789062c7.390625 19.039062 31.488281 90.898438 52.050781 90.898438 18.539063 0 18.027344-46.726563 15.546876-64.320313-1.796876-12.699219-4.679688-20.96875-16.726563-25.019531 8.238281-7.277344 55.457031-4.507813 68.078125-1.558594 0 0 .839844.199219 1.679688.390625.640624 3.128906 1.28125 6.257813 1.28125 6.257813 3.75 18.460937-8.621094 71.179687 8 82.210937l4.507812 1.378906c19.75.710938 51.75-68.296875 56.769531-85.238281 19.292969-.101562 58.992188.070312 67.3125 0 3.46875 17.261719-38.589843 63.738281-50.101562 83.949219-4.429688 7.785156-5.421875 15.246093.832031 23.539062 9.191406 11.679688 48.691406 42.644531 49.71875 67.511719zm0 0" fill="#f0f0fa"/><path d="m386 53c0 5.523438-4.476562 10-10 10s-10-4.476562-10-10 4.476562-10 10-10 10 4.476562 10 10zm0 0"/><path d="m374.203125 302.390625c-3.5-4.699219-2.742187-7.78125-.0625-12.492187 3.34375-5.871094 10-14.835938 17.046875-24.324219 22.601562-30.4375 37.1875-51.511719 34.167969-66.542969-.941407-4.675781-5.046875-8.03125-9.804688-8.03125-.027343 0-.058593 0-.085937 0-6.96875.0625-49.125.011719-67.277344.101562-4.40625.019532-8.28125 2.832032-9.535156 7.058594-2.183594 7.367188-10.710938 27.289063-21.046875 45.527344-13.402344 23.648438-22.183594 31.058594-25.277344 32.359375l-.488281-.152344c-1.011719-1.25-2.769532-4.625-3.492188-13.363281-.753906-9.140625-.085937-20.195312.5625-30.886719.757813-12.5 1.414063-23.296875-.152344-30.996093-1.078124-2.816407-.257812-12.070313-8.875-14.011719-11.867187-2.675781-27.972656-3.570313-39.457031-3.691407-27.199219-.269531-35.203125 3.65625-39.125 7.121094-2.675781 2.363282-3.890625 5.976563-3.179687 9.476563.707031 3.5 3.226562 6.359375 6.613281 7.496093 6.097656 2.050782 8.273437 4.652344 10.015625 16.9375 1.105469 7.839844 1.683594 21.003907.484375 32.75-1.6875 16.570313-5.707031 19.886719-6.101563 20.15625-.855468-.28125-7.535156-3.179687-19.597656-27.65625-10.378906-21.054687-19.089844-46.351562-23.160156-56.84375-1.492188-3.847656-5.195312-6.382812-9.324219-6.382812h-59.789062c-3.296875 0-6.382813 1.625-8.25 4.34375-1.863281 2.71875-2.269531 6.183594-1.078125 9.261719 18.730468 48.5 40.222656 98.175781 70.367187 132.9375 31.191407 35.972656 69.691407 53.457031 117.699219 53.457031 5.523438 0 10-4.476562 10-10 0-17.25 2.425781-22.371094 6.210938-29.558594 2.097656-3.96875 4.148437-5.671875 5.265624-5.921875 1.011719-.234375 2.796876.511719 4.78125 1.992188 5.6875 4.234375 10.203126 9.808593 14.980469 15.707031 6.886719 8.5 14.007813 17.292969 25.316407 23.058594 6.164062 3.128906 17.1875 4.714844 23.515624 4.621094h49.929688c5.683594 0 10.226562-4.632813 9.992188-10.3125-1.222657-29.558594-42.648438-61.707032-51.789063-73.195313zm-8.203125 63.609375c-.054688 0-.105469 0-.160156 0-4.171875.101562-11.75-1.292969-14.21875-2.550781-7.507813-3.828125-12.761719-10.3125-18.84375-17.816407-5.34375-6.601562-10.871094-13.425781-18.570313-19.160156-14.183593-10.574218-30.242187-7.238281-39.683593 10.636719-5.289063 10.03125-7.339844 16.640625-8.191407 28.625-37.785156-2.125-67.507812-16.984375-92.921875-46.296875-25.40625-29.300781-44.683594-71.125-61.496094-113.4375h38.21875c14.945313 40.253906 34.332032 90.902344 58.96875 90.902344 6.054688 0 11.484376-2.566406 15.707032-7.425782 16.214844-18.660156 9.8125-67.800781 9.742187-68.300781-.855469-6.050781-2.082031-12.410156-5.054687-18.078125 12.699218-.5 29.726562.324219 39.714844 1.808594.964843 5.207031.339843 15.535156-.265626 25.527344-1.472656 24.328125-2.996093 49.441406 10.054688 60.898437.390625.34375 7.636719 4.742188 12.109375 4.902344 8.132813.324219 21.429687-3.640625 42.9375-41.007813 8.769531-15.238281 16.917969-32.785156 21.304687-44.25 14.449219-.027343 34.695313-.074218 47.988282-.0625-5.863282 12.945313-18.828125 30.105469-28.210938 42.738282-7.738281 10.421875-14.421875 19.421875-18.367187 26.351562-7.339844 12.890625-6.105469 24.371094 1.535156 34.503906.039063.058594.082031.113282.125.167969 9.488281 12.054688 34.117187 30.746094 44.378906 51.324219zm0 0"/><path d="m462 0h-412c-27.570312 0-50 22.429688-50 50v412c0 27.570312 22.429688 50 50 50h412c27.570312 0 50-22.429688 50-50v-412c0-27.570312-22.429688-50-50-50zm30 462c0 16.542969-13.457031 30-30 30h-412c-16.542969 0-30-13.457031-30-30v-412c0-16.542969 13.457031-30 30-30h412c16.542969 0 30 13.457031 30 30zm0 0"/><path d="m136 63h200c5.523438 0 10-4.476562 10-10s-4.476562-10-10-10h-200c-5.523438 0-10 4.476562-10 10s4.476562 10 10 10zm0 0"/></svg>