<svg height="512pt" viewBox="0 0 512 512" width="512pt" xmlns="http://www.w3.org/2000/svg"><path d="m502 50v412c0 22.089844-17.910156 40-40 40h-412c-22.089844 0-40-17.910156-40-40v-412c0-22.089844 17.910156-40 40-40h412c22.089844 0 40 17.910156 40 40zm0 0" fill="#ffa143"/><path d="m296.230469 136.699219c17.800781-15.167969 39.648437-9.679688 36.789062 19.0625-2.628906 25.988281-24.988281 44.769531-48.441406 56.058593-10.066406-26.730468-10.136719-56.582031 11.652344-75.121093zm0 0" fill="#f0f0fa"/><path d="m254.378906 224.351562c.050782.089844.089844.179688.140625.277344-42.148437 17.890625-94.058593 27.140625-131.390625 1.660156-40.9375-27.898437-36.480468-76.429687 24.929688-76.429687 38.03125 0 81.0625 23.261719 106.320312 74.492187zm0 0" fill="#f0f0fa"/><g fill="#fcda4c"><path d="m382.5 256.691406c32.871094 26.480469 41.101562 69.519532 26.648438 102.917969-4.578126 10.609375-19.808594 14.332031-30.117188 6.25-16.621094-13.089844-29.03125-30.300781-37.921875-52.621094-20.757813-52.136719-6.648437-95.1875 41.390625-56.546875zm0 0"/><path d="m366.308594 404.238281c-11.949219 6.660157-24.929688 10.78125-38.609375 10.78125-69.308594 0-129.148438-136.71875-32.109375-170.699219-15.128906 48.070313 21.980468 137.160157 70.71875 159.917969zm0 0"/><path d="m210.179688 328.121094c3.960937 31.378906 16.050781 58.730468 36.621093 82.949218-21.191406-4.449218-41.941406-10.609374-61.761719-18.332031-2.140624-.839843-4.019531-2.808593-2.867187-5.847656 7.789063-20.582031 17.1875-40.289063 28.007813-58.769531zm0 0"/></g><path d="m386 53c0 5.523438-4.476562 10-10 10s-10-4.476562-10-10 4.476562-10 10-10 10 4.476562 10 10zm0 0"/><path d="m388.769531 248.898438c-27.628906-22.222657-44.398437-18.785157-53.601562-11.988282-16.53125 12.207032-17.84375 43.621094-3.347657 80.03125 9.554688 23.984375 22.972657 42.558594 41.023438 56.773438.003906.003906.011719.011718.015625.015625 15.601563 12.226562 38.34375 6.355469 45.46875-10.148438 17.164063-39.675781 5.011719-86.832031-29.558594-114.683593zm11.199219 106.746093c-1.859375 4.316407-9.378906 6.558594-14.761719 2.351563-15.207031-11.980469-26.589843-27.832032-34.808593-48.457032-12.386719-31.109374-9.320313-52.132812-3.347657-56.542968 3.582031-2.648438 13.375-1.226563 29.175781 11.480468 27.585938 22.226563 37.351563 59.710938 23.742188 91.167969zm0 0"/><path d="m258.425781 233.835938c2.542969-1.078126 4.53125-3.148438 5.484375-5.738282.960938-2.613281.84375-5.46875-.621094-8.289062-22.523437-45.597656-64.871093-79.949219-115.230468-79.949219-69.988282 0-80.75 60.488281-30.566406 94.691406 40.574218 27.691407 95.527343 18.554688 140.933593-.714843zm-129.664062-15.808594c-32.964844-22.46875-31.902344-58.167969 19.296875-58.167969 28.691406 0 67.050781 15.878906 92.382812 59.621094-36.121094 13.503906-79.847656 20.273437-111.675781-1.449219 0-.003906-.003906-.003906-.003906-.003906zm0 0"/><path d="m370.539062 395.179688c-42.871093-20.019532-79.550781-102.929688-65.410156-147.855469 1.136719-3.609375.136719-7.554688-2.582031-10.1875-2.71875-2.632813-6.691406-3.503907-10.261719-2.253907-42.71875 14.957032-63.625 50.9375-55.921875 96.242188 3.9375 23.164062 15.4375 46.535156 31.542969 64.121094 17.589844 19.199218 38.824219 29.773437 59.792969 29.773437 14.511719 0 29.140625-4.054687 43.480469-12.042969 7.113281-3.964843 6.742187-14.351562-.640626-17.796874zm-42.839843 9.839843c-31.15625 0-64.625-36.09375-71.621094-77.246093-2.464844-14.503907-3.941406-47.003907 26.355469-66.183594-1.472656 22.46875 3.859375 49.53125 15.386718 76.15625 12.03125 27.78125 28.582032 50.4375 46.957032 64.796875-5.738282 1.644531-11.445313 2.476562-17.078125 2.476562zm0 0"/><path d="m328.207031 121.464844c-11.277343-5.898438-26.015625-2.980469-38.457031 7.621094-22.632812 19.253906-27.925781 50.695312-14.527344 86.261718 2.078125 5.519532 8.4375 8.015625 13.695313 5.480469 32.246093-15.523437 51.441406-38.273437 54.054687-64.078125 2.351563-23.640625-9.542968-32.550781-14.765625-35.285156zm-5.136719 33.289062c-2.015624 19.917969-18.425781 33.972656-32.5625 42.511719-3.800781-15.390625-5.285156-38.070313 12.203126-52.949219.003906 0 .003906-.003906.007812-.003906 4.257812-3.628906 11.621094-7.53125 16.214844-5.125 3.382812 1.769531 4.929687 7.59375 4.136718 15.566406zm0 0"/><path d="m462 0h-412c-27.570312 0-50 22.429688-50 50v412c0 27.570312 22.429688 50 50 50h412c27.570312 0 50-22.429688 50-50v-412c0-27.570312-22.429688-50-50-50zm30 462c0 16.542969-13.457031 30-30 30h-412c-16.542969 0-30-13.457031-30-30v-412c0-16.542969 13.457031-30 30-30h412c16.542969 0 30 13.457031 30 30zm0 0"/><path d="m136 63h200c5.523438 0 10-4.476562 10-10s-4.476562-10-10-10h-200c-5.523438 0-10 4.476562-10 10s4.476562 10 10 10zm0 0"/><path d="m220.101562 326.867188c-.535156-4.25-3.71875-7.683594-7.914062-8.542969-4.199219-.855469-8.472656 1.046875-10.636719 4.742187-11.101562 18.960938-20.769531 39.242188-28.734375 60.285156-2.925781 7.738282.679688 15.601563 8.59375 18.707032 20.324219 7.914062 41.632813 14.238281 63.335938 18.796875 9.347656 1.96875 15.796875-9.050781 9.675781-16.257813-19.371094-22.8125-30.597656-48.238281-34.320313-77.730468zm-26.585937 58.402343c3.796875-9.613281 7.96875-19.050781 12.480469-28.242187 3.945312 13.332031 9.507812 25.898437 16.742187 37.820312-9.914062-2.8125-19.679687-6.011718-29.222656-9.578125zm0 0"/></svg>