<svg height="512pt" viewBox="0 0 512 512" width="512pt" xmlns="http://www.w3.org/2000/svg"><path d="m502 50v412c0 22.089844-17.910156 40-40 40h-412c-22.089844 0-40-17.910156-40-40v-412c0-22.089844 17.910156-40 40-40h412c22.089844 0 40 17.910156 40 40zm0 0" fill="#f95d5d"/><path d="m286 196c71.371094 0 128.371094 62.609375 118.980469 135.789062-7.761719 60.480469-62.171875 104.210938-123.152344 104.210938-8.429687 0-15.828125 0-15.828125 0-66.171875 0-120-53.828125-120-120v-170c0-16.570312 13.429688-30 30-30s30 13.429688 30 30v170c0 33.140625 26.859375 60 60 60h17.488281c30.265625 0 57.734375-21.386719 61.910157-51.449219 5.050781-36.332031-22.679688-67.628906-57.839844-68.53125-14.570313-.371093-28.167969-9.648437-30.96875-23.960937-3.761719-19.230469 10.859375-36.058594 29.410156-36.058594zm0 0" fill="#f0f0fa"/><path d="m386 53c0 5.523438-4.476562 10-10 10s-10-4.476562-10-10 4.476562-10 10-10 10 4.476562 10 10zm0 0"/><path d="m286 186c-24.960938 0-44.167969 22.691406-39.222656 47.980469 3.589844 18.347656 20.253906 31.523437 40.527344 32.035156 28.917968.738281 52.457031 26.453125 48.1875 57.15625-3.355469 24.191406-25.789063 42.828125-52.003907 42.828125h-17.488281c-27.570312 0-50-22.429688-50-50v-170c0-22.054688-17.945312-40-40-40s-40 17.945312-40 40v170c0 71.683594 58.316406 130 130 130h15.828125c66.839844 0 124.765625-48.230469 133.070313-112.9375 10.105468-78.75-51.175782-147.0625-128.898438-147.0625zm109.0625 144.519531c-6.984375 54.429688-55.664062 95.480469-113.234375 95.480469h-15.828125c-60.652344 0-110-49.347656-110-110v-170c0-11.027344 8.972656-20 20-20s20 8.972656 20 20v170c0 38.597656 31.402344 70 70 70h17.488281c36.019531 0 67.058594-25.808594 71.816407-60.074219 5.84375-42.039062-26.21875-78.847656-67.492188-79.902343-9.140625-.230469-19.429688-5.761719-21.410156-15.882813-2.566406-13.136719 7.402344-24.140625 19.597656-24.140625 64.160156 0 117.84375 56.085938 109.0625 124.519531zm0 0"/><path d="m462 0h-412c-27.570312 0-50 22.429688-50 50v412c0 27.570312 22.429688 50 50 50h412c27.570312 0 50-22.429688 50-50v-412c0-27.570312-22.429688-50-50-50zm30 462c0 16.542969-13.457031 30-30 30h-412c-16.542969 0-30-13.457031-30-30v-412c0-16.542969 13.457031-30 30-30h412c16.542969 0 30 13.457031 30 30zm0 0"/><path d="m336 63c5.523438 0 10-4.476562 10-10s-4.476562-10-10-10h-200c-5.523438 0-10 4.476562-10 10s4.476562 10 10 10zm0 0"/></svg>