<svg height="512pt" viewBox="0 0 512 512" width="512pt" xmlns="http://www.w3.org/2000/svg"><path d="m502 50v412c0 22.089844-17.910156 40-40 40h-412c-22.089844 0-40-17.910156-40-40v-412c0-22.089844 17.910156-40 40-40h412c22.089844 0 40 17.910156 40 40zm0 0" fill="#7dd787"/><path d="m136.828125 353.539062c0 .03125-.007813.0625-.007813-.027343 0-7.550781-50.820312-32.902344-50.820312-96.972657 0-62.617187 66.441406-130.539062 170.308594-130.539062 78.191406 0 169.691406 48.351562 169.691406 131.121094 0 88.6875-98.839844 131.859375-169.890625 131.859375-27.699219 0-46.589844-5.402344-49.140625-5.402344-6.808594 0-9.449219 5.171875-77.820312 42.421875 6.792968-65.328125 7.621093-71.96875 7.679687-72.460938zm0 0" fill="#f0f0fa"/><path d="m256.140625 178.800781c73.570313.519531 102.140625 49.589844 102.140625 78.871094 0 44.199219-46.652344 78.96875-102.152344 78.96875-49.128906 0-102.199218-30.171875-102.199218-78.628906 0-68.089844 84.398437-79.210938 102.210937-79.210938zm0 0" fill="#7dd787"/><path d="m386 53c0 5.523438-4.476562 10-10 10s-10-4.476562-10-10 4.476562-10 10-10 10 4.476562 10 10zm0 0"/><path d="m256.3125 116c-110.507812 0-180.3125 73.214844-180.3125 140.539062 0 52.023438 31.542969 81.648438 46.699219 95.882813 1.289062 1.210937 2.542969 2.386719 3.601562 3.417969-2.59375 26.023437-8.515625 82.738281-9.0625 88.039062 0 0 85.984375-49.179687 89.480469-50.257812 7.164062 1.269531 24.375 5.359375 49.390625 5.359375 40.324219 0 84.082031-12.820313 117.046875-34.292969 41.113281-26.777344 62.84375-63.972656 62.84375-107.566406 0-86.960938-93.441406-141.121094-179.6875-141.121094zm-.203125 262.980469c-27.914063 0-44.195313-5.402344-49.140625-5.402344-9.863281 0-10.800781 3.886719-65.902344 34.460937 7.410156-71.613281 5.9375-58.351562 5.972656-58.71875-3.261718-3.742187-1.105468-2.519531-10.648437-11.476562-14.117187-13.257812-40.390625-37.933594-40.390625-81.304688 0-55.03125 59.664062-120.539062 160.3125-120.539062 74.460938 0 159.6875 45.652344 159.6875 121.121094 0 83.128906-95.40625 121.859375-159.890625 121.859375zm0 0"/><path d="m256.210938 168.800781h-.070313c-10.726563 0-37.515625 3.148438-62.140625 15.070313-32.757812 15.855468-50.070312 41.492187-50.070312 74.140625 0 54.742187 58.242187 88.628906 112.199218 88.628906 56.152344 0 112.152344-35.269531 112.152344-88.96875 0-36.574219-34.769531-88.324219-112.070312-88.871094zm-.082032 157.839844c-43.050781 0-92.199218-25.804687-92.199218-68.628906 0-24.792969 13.050781-43.683594 38.785156-56.140625 22.117187-10.707032 46.003906-13.0625 53.390625-13.070313 69.640625.507813 92.175781 46.613281 92.175781 68.871094 0 38.027344-41.339844 68.96875-92.152344 68.96875zm0 0"/><path d="m462 0h-412c-27.570312 0-50 22.429688-50 50v412c0 27.570312 22.429688 50 50 50h412c27.570312 0 50-22.429688 50-50v-412c0-27.570312-22.429688-50-50-50zm30 462c0 16.542969-13.457031 30-30 30h-412c-16.542969 0-30-13.457031-30-30v-412c0-16.542969 13.457031-30 30-30h412c16.542969 0 30 13.457031 30 30zm0 0"/><path d="m136 63h200c5.523438 0 10-4.476562 10-10s-4.476562-10-10-10h-200c-5.523438 0-10 4.476562-10 10s4.476562 10 10 10zm0 0"/></svg>