<svg height="512pt" viewBox="0 0 512 512" width="512pt" xmlns="http://www.w3.org/2000/svg"><path d="m501.75 50v412c0 22.089844-17.910156 40-40 40h-412c-22.089844 0-40-17.910156-40-40v-412c0-22.089844 17.910156-40 40-40h412c22.089844 0 40 17.910156 40 40zm0 0" fill="#78d2fa"/><path d="m256 116c66.269531 0 120 53.730469 120 120s-100 200-120 200-120-133.730469-120-200 53.730469-120 120-120zm0 0" fill="#f0f0fa"/><path d="m256 156c44.179688 0 80 35.820312 80 80s-35.820312 80-80 80-80-35.820312-80-80c0-14.070312 3.640625-27.300781 10.019531-38.78125.640625 16 13.820313 28.78125 29.980469 28.78125 16.570312 0 30-13.429688 30-30 0-16.160156-12.78125-29.339844-28.78125-29.980469 11.480469-6.378906 24.710938-10.019531 38.78125-10.019531zm0 0" fill="#f95d5d"/><path d="m386 53c0 5.523438-4.476562 10-10 10s-10-4.476562-10-10 4.476562-10 10-10 10 4.476562 10 10zm0 0"/><path d="m256.25 106c-71.683594 0-130 58.316406-130 130 0 43.511719 37.867188 105.65625 54.148438 130.355469 11.832031 17.949219 54.535156 79.644531 75.851562 79.644531s64.019531-61.695312 75.851562-79.644531c16.28125-24.699219 54.148438-86.84375 54.148438-130.355469 0-71.683594-58.316406-130-130-130zm61.539062 245.695312c-28.292968 43.664063-53.648437 69.890626-61.539062 73.980469-7.890625-4.09375-33.246094-30.316406-61.539062-73.980469-30.34375-46.835937-48.460938-90.085937-48.460938-115.695312 0-60.652344 49.347656-110 110-110s110 49.347656 110 110c0 25.609375-18.117188 68.859375-48.460938 115.695312zm0 0"/><path d="m256.25 146c-49.496094 0-90 40.105469-90 90 0 49.625 40.375 90 90 90s90-40.375 90-90-40.375-90-90-90zm-36.558594 30.308594c9.46875 1.625 16.558594 9.808594 16.558594 19.691406 0 11.027344-8.972656 20-20 20-9.882812 0-18.066406-7.089844-19.691406-16.558594 5.785156-9.433594 13.699218-17.347656 23.132812-23.132812zm36.558594 129.691406c-38.597656 0-70-31.402344-70-70 0-4.132812.375-8.242188 1.09375-12.285156 7.28125 7.589844 17.535156 12.285156 28.90625 12.285156 22.054688 0 40-17.945312 40-40 0-11.371094-4.695312-21.625-12.285156-28.90625 4.042968-.71875 8.152344-1.09375 12.285156-1.09375 38.597656 0 70 31.402344 70 70s-31.402344 70-70 70zm0 0"/><path d="m462 0h-412c-27.570312 0-50 22.429688-50 50v412c0 27.570312 22.429688 50 50 50h412c27.570312 0 50-22.429688 50-50v-412c0-27.570312-22.429688-50-50-50zm30 462c0 16.542969-13.457031 30-30 30h-412c-16.542969 0-30-13.457031-30-30v-412c0-16.542969 13.457031-30 30-30h412c16.542969 0 30 13.457031 30 30zm0 0"/><path d="m136 63h200c5.523438 0 10-4.476562 10-10s-4.476562-10-10-10h-200c-5.523438 0-10 4.476562-10 10s4.476562 10 10 10zm0 0"/></svg>