<svg id="Layer_1" enable-background="new 0 0 464 464" height="512" viewBox="0 0 464 464" width="512" xmlns="http://www.w3.org/2000/svg"><path d="m399.52 355.48c-.232.232-23.421 23.459-23.7 23.63 6.47 11.05 10.18 23.91 10.18 37.63v39.26c0 4.42-3.58 8-8 8h-292c-4.42 0-8-3.58-8-8v-39.26c0-13.72 3.71-26.58 10.18-37.63-.269-.164 1.628 1.698-23.7-23.63-9.4-9.4-10.27-24.34-2.04-34.77 10.038-12.843 7.122-27.663-1.91-36.18-9.91-9.35-11.01-24.73-2.53-35.39l11.52-14.48c5.31-6.68 7.04-15.54 4.62-23.73l-7.44-25.23c-3.81-12.89 2.76-26.58 15.2-31.67l9.83-4.03c9.84-4.03 16.27-13.61 16.27-24.25v-25.75c0-55.23 44.77-100 100-100h48c55.227 0 100 44.758 100 100v25.75c0 10.64 6.43 20.22 16.27 24.25l9.83 4.03c12.44 5.09 19.01 18.78 15.2 31.67l-7.44 25.23c-2.42 8.19-.69 17.05 4.62 23.73l11.52 14.48c8.487 10.686 7.376 26.03-2.53 35.39-9.89 9.32-11.01 24.65-2.59 35.31 9.566 12.239 7.533 26.747-1.36 35.64z" fill="#ffdfba"/><path d="m64.48 355.48c.232.232 23.421 23.459 23.7 23.63-6.47 11.05-10.18 23.91-10.18 37.63v39.26c0 4.42 3.58 8 8 8h292c4.42 0 8-3.58 8-8v-39.26c0-13.72-3.71-26.58-10.18-37.63.269-.164-1.628 1.698 23.7-23.63 9.4-9.4 10.27-24.34 2.04-34.77-10.038-12.843-7.122-27.663 1.91-36.18 9.91-9.35 11.01-24.73 2.53-35.39l-11.52-14.48c-5.31-6.68-7.04-15.54-4.62-23.73l7.44-25.23c3.81-12.89-2.76-26.58-15.2-31.67l-9.83-4.03c-9.84-4.03-16.27-13.61-16.27-24.25v-25.75c0-55.23-44.77-100-100-100h-48c-55.227 0-100 44.758-100 100v25.75c0 10.64-6.43 20.22-16.27 24.25l-9.83 4.03c-12.44 5.09-19.01 18.78-15.2 31.67l7.44 25.23c2.42 8.19.69 17.05-4.62 23.73l-11.52 14.48c-8.487 10.686-7.376 26.03 2.53 35.39 9.89 9.32 11.01 24.65 2.59 35.31-9.566 12.239-7.533 26.747 1.36 35.64z" fill="#ffdfba"/><path d="m140.093 178.836c-4.044.462-7.093 3.876-7.093 7.946v15.349c0 41.26 25.25 76.64 61.15 91.5l-.15.369v6.83c0 22.742-18.332 41.074-40.95 41.34-28.072 0-51.915 14.815-64.87 36.94-.279-.171-23.468-23.398-23.7-23.63-9.4-9.4-10.27-24.34-2.04-34.77 10.038-12.843 7.122-27.663-1.91-36.18-9.91-9.35-11.01-24.73-2.53-35.39l11.52-14.48c5.31-6.68 7.04-15.54 4.62-23.73l-7.44-25.23c-3.81-12.89 2.76-26.58 15.2-31.67l9.83-4.03c9.84-4.03 16.27-13.61 16.27-24.25v-25.75c0-55.228 44.772-100 100-100h48c55.227 0 100 44.759 100 100v25.75c0 10.64 6.43 20.22 16.27 24.25l9.83 4.03c12.44 5.09 19.01 18.78 15.2 31.67l-7.44 25.23c-2.42 8.19-.69 17.05 4.62 23.73l11.52 14.48c8.486 10.685 7.378 26.029-2.53 35.39-9.236 8.703-11.782 23.55-1.91 36.18 8.23 10.43 7.36 25.37-2.04 34.77-.232.232-23.421 23.459-23.7 23.63-12.848-21.942-36.593-36.94-64.87-36.94-22.609-.266-40.95-18.587-40.95-41.34v-6.83l-.15-.38c35.9-14.86 61.15-50.22 61.15-91.49v-49.313c0-3.362-2.094-6.369-5.256-7.513-17.4-6.292-32.091-18.416-41.536-34.614-2.759-4.731-9.384-5.284-12.962-1.137-33.479 38.805-79.948 63.436-131.153 69.283z" fill="#fe4f60"/><path d="m325.744 145.305c3.162 1.143 5.256 4.15 5.256 7.513v49.313c0 41.27-25.25 76.63-61.15 91.49-64.937 26.954-136.85-20.931-136.85-91.491v-15.349c0-4.07 3.049-7.484 7.093-7.946 51.118-5.837 97.617-30.411 131.153-69.281 3.578-4.147 10.203-3.595 12.962 1.137 9.436 16.184 24.117 28.315 41.536 34.614z" fill="#ffebd2"/><path d="m386 416.74v39.26c0 4.42-3.58 8-8 8h-292c-4.42 0-8-3.58-8-8v-39.26c0-41.151 33.358-74.57 74.57-74.57 5.779 0 11.624-1.183 17.18-3.71l.25.54 57.1 44.21c2.89 2.23 6.91 2.23 9.8 0l57.1-44.21.25-.54c5.1 2.32 10.75 3.64 16.7 3.71 42.818 0 75.05 34.345 75.05 74.57z" fill="#42434d"/><path d="m291.13 6.352c12.78 4.792 9.117 23.73-4.532 23.65-.497-.003-48.101-.002-48.598-.002-55.228 0-100 44.772-100 100v25.75c0 10.64-6.43 20.22-16.27 24.25l-9.83 4.03c-12.44 5.09-19.01 18.78-15.2 31.67l7.44 25.23c2.42 8.19.69 17.05-4.62 23.73l-11.52 14.48c-8.48 10.66-7.38 26.04 2.53 35.39 9.873 9.311 11.019 24.628 2.59 35.31-7.06 9.033-7.829 18.884-4.241 27.329.407.959-.817 1.842-1.585 1.087-4.284-4.214-22.608-22.57-22.814-22.775-8.717-8.717-11.085-23.198-1.36-35.64 8.438-10.692 7.274-26.009-2.59-35.31-9.91-9.35-11.01-24.73-2.53-35.39l11.52-14.48c5.31-6.68 7.04-15.54 4.62-23.73l-7.44-25.231c-3.81-12.89 2.76-26.58 15.2-31.67l9.83-4.03c9.84-4.03 16.27-13.61 16.27-24.25v-25.75c0-55.228 44.772-100 100-100h48c12.259 0 24.118 2.223 35.13 6.352z" fill="#ff6d7a"/><path d="m209.47 266.121c16.194 10.253 3.539 35.069-14.254 27.943-36.544-14.636-62.216-50.34-62.216-91.934v-15.35c0-4.07 3.05-7.48 7.09-7.94 3.715-.428 7.72-.989 11.967-1.73 5.63-.982 10.919 3.066 11.383 8.762 3.015 37.04 21.238 64.552 46.03 80.249z" fill="#fff3e4"/><path d="m182.795 348.91c5.105 3.953 2.403 12.234-4.054 12.26-42.536.17-74.741 34.318-74.741 74.57v28.26h-18c-4.418 0-8-3.582-8-8v-39.26c0-40.46 32.461-74.57 75.05-74.57 5.95-.07 11.6-1.39 16.7-3.71l.25.54z" fill="#4d4e59"/><path d="m281.205 348.91c-5.105 3.953-2.403 12.234 4.054 12.26 42.536.17 74.741 34.318 74.741 74.57v28.26h18c4.418 0 8-3.582 8-8v-39.26c0-40.46-32.461-74.57-75.05-74.57-5.95-.07-11.6-1.39-16.7-3.71l-.25.54z" fill="#2c2c33"/><path d="m227.103 383.208c2.883 2.232 6.911 2.232 9.795 0l57.102-44.208.25-.54c5.1 2.32 10.75 3.64 16.7 3.71l-34.95 121.83h-88l-34.95-121.83c5.95-.07 11.6-1.39 16.7-3.71l.25.54z" fill="#d6f4fc"/><path d="m240 380.81v67.19c0 4.42-3.58 8-8 8s-8-3.58-8-8v-67.19l3.1 2.4c2.89 2.23 6.91 2.23 9.8 0z" fill="#bdeffc"/><path d="m169.615 361.71c-2.985.333-6.361.913-10.385 1.99l-6.18-21.53c5.95-.07 11.6-1.39 16.7-3.71l.25.54 4.909 3.802c7.521 5.825 4.16 17.853-5.294 18.908z" fill="#e8f8fc"/><path d="m294.385 361.71c2.985.333 6.361.913 10.385 1.99l6.18-21.53c-5.95-.07-11.6-1.39-16.7-3.71l-.25.54-4.909 3.802c-7.521 5.825-4.16 17.853 5.294 18.908z" fill="#bdeffc"/><path d="m271.13 310.42c-24.637 10.313-51.712 11.113-78.26 0 1.356-5.626 1.13-9.27 1.13-16.42l.15-.37c24.082 9.996 51.571 10.016 75.7 0l.15.37c0 7.153-.226 10.796 1.13 16.42z" fill="#ffd6a6"/></svg>