<svg id="Capa_1" enable-background="new 0 0 512 512" height="512" viewBox="0 0 512 512" width="512" xmlns="http://www.w3.org/2000/svg"><g><g><path d="m446.662 426.814c40.621-45.31 65.338-105.172 65.338-170.814 0-141.385-114.615-256-256-256s-256 114.615-256 256c0 65.642 24.717 125.504 65.338 170.814z" fill="#ff4155"/></g><g><circle cx="256" cy="256" fill="#e80054" r="170"/></g><g><path d="m112.78 468.181h286.44c17.467-11.816 33.41-25.715 47.442-41.367-9.708-28.375-20.614-54.825-29.662-62.814-22-19.425-117.305-35.119-117.305-35.119h-87.39s-95.305 15.694-117.305 35.119c-9.048 7.989-19.954 34.439-29.662 62.814 14.032 15.652 29.975 29.551 47.442 41.367z" fill="#2a428c"/></g><g><path d="m205.957 319.085h100.085v119.818h-100.085z" fill="#ffdd40"/></g><g><path d="m212.305 216.812v112.07c0 17.036 19.563 30.846 43.695 30.846s43.695-13.81 43.695-30.846v-112.07z" fill="#fcad6d"/></g><g><path d="m256 239.596c-73.864 0-128.232 31.457-151.079 47.431-5.8 4.055-5.692 12.675.227 16.554 21.491 14.085 65.026 46.655 75.917 85.461h31.239v-116.196h87.39v116.196h31.24c10.892-38.806 54.427-71.376 75.917-85.461 5.919-3.879 6.027-12.499.227-16.554-22.846-15.974-77.214-47.431-151.078-47.431z" fill="#4b6bb2"/></g><g><path d="m350.157 257.13c-25.595-9.77-57.468-17.534-94.157-17.534s-68.562 7.764-94.157 17.534c17.436 23.291 41.883 66.292 50.462 131.912v-116.196h87.39v116.196c8.579-65.62 33.026-108.621 50.462-131.912z" fill="#3c58a0"/></g><g><path d="m212.305 216.812v112.07c46.932 0 73.247-36.019 73.247-36.019l14.143-76.05h-87.39z" fill="#fd995b"/></g><g><path d="m325.075 183.668s8.897-21.662 24.756-16.633-.383 51.97-31.332 54.928z" fill="#fd995b"/></g><g><path d="m186.925 183.668s-8.897-21.662-24.756-16.633.383 51.97 31.332 54.928z" fill="#fd995b"/></g><g><path d="m337.249 173.222c0 59.83-36.377 129.999-81.249 129.999s-81.249-70.169-81.249-129.999 36.376-102.85 81.249-102.85 81.249 43.019 81.249 102.85z" fill="#f9ba8f"/></g><g><path d="m202.691 173.222c0-53.479 29.064-93.521 67.279-101.421-4.539-.938-9.206-1.428-13.97-1.428-44.873 0-81.249 43.019-81.249 102.849s36.377 129.999 81.249 129.999c4.764 0 9.431-.798 13.97-2.284-38.215-12.506-67.279-74.237-67.279-127.715z" fill="#fcad6d"/></g><g><path d="m311.378 147.381c-28.048-3.776-39.555 5.933-55.378 5.933-15.822 0-27.329-9.709-55.378-5.933-28.048 3.776-33.982 20.137-28.228 44.23s33.622 34.341 50.163 28.947 27.149-7.577 33.442-7.577 16.901 2.183 33.442 7.577 44.41-4.855 50.163-28.947c5.755-24.093-.178-40.454-28.226-44.23z" fill="#1c2e7a"/></g><g><path d="m203.032 191.611c-5.523-23.13-.263-39.127 24.983-43.71-7.333-1.362-15.998-2.054-27.393-.52-28.048 3.776-33.982 20.137-28.228 44.23s33.622 34.341 50.163 28.947c1.867-.609 3.648-1.171 5.366-1.699-11.334-4.45-21.641-13.639-24.891-27.248z" fill="#112360"/></g><g><path d="m282.641 13.333c-15.148 0-19.172 27.726-26.641 27.726s-11.493-27.726-26.641-27.726-67.145 81.459-66.285 147.667h92.926 92.926c.86-66.208-51.137-147.667-66.285-147.667z" fill="#3c58a0"/></g><g><path d="m344.441 122.852c-94.849 6.518-155.655-57.33-139.41-85.617-19.781 29.093-42.528 79.788-41.957 123.765h92.926 92.926c.161-12.393-1.53-25.321-4.485-38.148z" fill="#2a428c"/></g><g><path d="m389.203 150.173c0 5.555-3.658 10.439-8.984 12.018-19.835 5.879-69.938 18.915-124.219 18.915s-104.384-13.036-124.219-18.915c-5.326-1.578-8.984-6.463-8.984-12.018 0-6.92 5.61-12.53 12.53-12.53h241.346c6.92 0 12.53 5.61 12.53 12.53z" fill="#4b6bb2"/></g><g><path d="m234.269 159.374c0-12.002 9.729-21.731 21.731-21.731h-120.673c-6.92 0-12.53 5.61-12.53 12.53 0 5.555 3.658 10.439 8.984 12.018 19.835 5.879 69.938 18.915 124.219 18.915-12.002-.001-21.731-9.73-21.731-21.732z" fill="#3c58a0"/></g><g><path d="m390.587 397.579c-25.458-6.658-76.842-17.852-134.588-17.852s-109.129 11.193-134.586 17.852c-9.708 2.539-16.028 11.873-14.783 21.83l6.096 48.772c40.886 27.662 90.193 43.819 143.274 43.819s102.388-16.157 143.274-43.819l6.096-48.772c1.245-9.957-5.075-19.291-14.783-21.83z" fill="#fff"/></g><g><path d="m212.305 381.752c-39.177 3.53-72.101 10.913-90.893 15.828-9.708 2.539-16.028 11.873-14.783 21.83l6.096 48.772c40.887 27.661 90.194 43.818 143.275 43.818s102.388-16.157 143.274-43.819c-195.661 51.536-186.969-86.429-186.969-86.429z" fill="#d3dcfb"/></g><g><circle cx="256" cy="463.202" fill="#bec8f7" r="24.299"/></g></g></svg>