<svg id="Capa_1" enable-background="new 0 0 512 512" height="512" viewBox="0 0 512 512" width="512" xmlns="http://www.w3.org/2000/svg"><g><g><path d="m446.662 426.814c40.621-45.31 65.338-105.172 65.338-170.814 0-141.385-114.615-256-256-256s-256 114.615-256 256c0 65.642 24.717 125.504 65.338 170.814z" fill="#49d88b"/></g><g><circle cx="256" cy="256" fill="#38c674" r="170"/></g><g><path d="m112.78 468.181h286.44c17.467-11.816 33.41-25.715 47.442-41.367-9.708-28.375-20.614-54.825-29.662-62.814-7.59-6.702-23.907-12.959-42.024-18.281l1.426-10.67c.626-4.683-2.465-9.057-7.089-10.03-5.63-1.185-8.702-7.25-6.38-12.514 15.71-35.61 24.973-76.699 24.973-115.16 0-97.133-59.056-166.973-131.906-166.973s-131.906 69.84-131.906 166.973c0 38.462 9.264 79.551 24.973 115.16 2.322 5.264-.75 11.328-6.38 12.514-4.623.973-7.714 5.347-7.089 10.03l1.426 10.67c-18.117 5.322-34.434 11.579-42.024 18.281-9.048 7.989-19.954 34.439-29.662 62.814 14.032 15.652 29.975 29.551 47.442 41.367z" fill="#4b6bb2"/></g><g><path d="m112.78 468.181h143.22v-311.707s-42.919-16.623-42.919-63.051 42.919-63.051 42.919-63.051c-72.85 0-131.906 69.84-131.906 166.973 0 38.462 9.264 79.551 24.973 115.16 2.322 5.264-.75 11.328-6.38 12.514-4.623.973-7.714 5.347-7.089 10.03l1.426 10.67c-18.117 5.322-34.434 11.579-42.024 18.281-9.048 7.989-19.954 34.439-29.662 62.814 14.032 15.652 29.975 29.551 47.442 41.367z" fill="#3c58a0"/></g><g><path d="m182.62 334.529c-.713-234.585 147.156-240.385 146.76 0z" fill="#112360"/></g><g><path d="m256 389.728c39.013 0 70.031-23.825 73.38-55.198-17.087-3.573-29.685-5.648-29.685-5.648h-87.39s-12.598 2.075-29.685 5.648c3.349 31.373 34.367 55.198 73.38 55.198z" fill="#2a428c"/></g><g><path d="m212.305 216.812v112.07c0 17.036 19.563 30.846 43.695 30.846s43.695-13.81 43.695-30.846v-112.07z" fill="#fcad6d"/></g><g><path d="m212.305 216.812v112.07c46.932 0 73.247-36.019 73.247-36.019l14.143-76.05h-87.39z" fill="#fd995b"/></g><g><path d="m190.981 246.047c14.822 32.529 38.427 57.173 65.019 57.173 26.678 0 50.348-24.806 65.161-57.491-25.686-120.215-104.296-118.048-130.18.318z" fill="#f9ba8f"/></g><g><path d="m205.273 201.833c-5.662 12.272-10.532 27.02-14.292 44.214 14.822 32.529 38.427 57.173 65.019 57.173 4.764 0 9.431-.798 13.97-2.284-31.508-10.31-56.792-54.082-64.697-99.103z" fill="#fcad6d"/></g><g><path d="m390.587 397.579c-25.458-6.658-76.842-17.852-134.588-17.852s-109.129 11.193-134.586 17.852c-9.708 2.539-16.028 11.873-14.783 21.83l6.096 48.772c40.886 27.662 90.193 43.819 143.274 43.819s102.388-16.157 143.274-43.819l6.096-48.772c1.245-9.957-5.075-19.291-14.783-21.83z" fill="#fff"/></g><g><path d="m217.986 381.271c-41.666 3.297-76.879 11.158-96.573 16.308-9.708 2.539-16.028 11.873-14.783 21.83l6.096 48.772c40.886 27.662 90.193 43.819 143.274 43.819s102.388-16.157 143.274-43.819c-195.661 51.536-181.304-86.759-181.288-86.91z" fill="#d3dcfb"/></g><g><circle cx="256" cy="463.202" fill="#bec8f7" r="24.299"/></g></g></svg>