<svg id="Capa_1" enable-background="new 0 0 512 512" height="512" viewBox="0 0 512 512" width="512" xmlns="http://www.w3.org/2000/svg"><g><g><path d="m446.662 426.814c40.621-45.31 65.338-105.172 65.338-170.814 0-141.385-114.615-256-256-256s-256 114.615-256 256c0 65.642 24.717 125.504 65.338 170.814z" fill="#4fabf7"/></g><g><circle cx="256" cy="256" fill="#1e9ef4" r="170"/></g><g><path d="m417 364c-22-19.425-117.305-35.119-117.305-35.119h-87.39s-95.305 15.694-117.305 35.119c-9.048 7.989-19.954 34.439-29.662 62.814 34.544 38.532 80.599 66.517 132.752 78.583h115.821c52.153-12.066 98.208-40.052 132.752-78.583-9.709-28.375-20.615-54.825-29.663-62.814z" fill="#2a428c"/></g><g><path d="m198.089 505.397h115.88c26.362-6.107 51.166-16.28 73.711-29.83-8.893.937-17.918 1.432-27.06 1.432-96.1 0-179.817-52.962-223.596-131.281-18.117 5.323-34.434 11.58-42.024 18.282-9.048 7.989-19.954 34.439-29.662 62.814 34.544 38.532 80.599 66.517 132.751 78.583z" fill="#1c2e7a"/></g><g><path d="m367.641 408.162c-11.663-58.382-49.855-124.804-111.641-124.804s-99.978 66.422-111.641 124.804c-2.07 10.362 4.282 20.545 14.496 23.252l1.805.478c6.183 1.639 11.209 6.136 13.522 12.1l23.811 61.384v.022c8.608 1.994 17.388 3.533 26.304 4.635h63.407c8.916-1.102 17.696-2.641 26.304-4.635v-.022l23.811-61.384c2.313-5.964 7.339-10.461 13.523-12.1l1.805-.478c10.213-2.707 16.564-12.891 14.494-23.252z" fill="#4b6bb2"/></g><g><path d="m174.182 443.991 23.811 61.384v.022c8.601 1.993 17.373 3.538 26.283 4.635h8.058v-13.032c-48-72-47.333-149.333-34.341-165.539h58.007v-48.104c-61.786 0-99.978 66.422-111.641 124.804-2.07 10.362 4.282 20.545 14.496 23.252l1.805.478c6.182 1.64 11.208 6.137 13.522 12.1z" fill="#3c58a0"/></g><g><path d="m299.695 328.881h-87.39s-5.569.918-14.312 2.58l24.92 100.364c.979 3.942 1.474 7.988 1.474 12.049v65.617l31.613-16.108 31.614 16.65v-66.158c0-4.062.495-8.107 1.474-12.049l24.92-100.364c-8.744-1.663-14.313-2.581-14.313-2.581z" fill="#d3dcfb"/></g><g><path d="m287.614 510.033v-.541l-16.761-101.21-14.853-22.554-14.852 22.554-16.761 101.21v.541c10.36 1.282 20.905 1.967 31.613 1.967s21.253-.685 31.614-1.967z" fill="#ff4155"/></g><g><path d="m271.632 411.728h-31.265c-2.278 0-4.267-1.539-4.84-3.744l-12.527-48.256h66l-12.528 48.256c-.572 2.205-2.562 3.744-4.84 3.744z" fill="#ff7186"/></g><g><path d="m255.528 407.984-12.528-48.256h-20l12.528 48.257c.572 2.204 2.562 3.743 4.84 3.743h20c-2.278 0-4.268-1.54-4.84-3.744z" fill="#ff4155"/></g><g><path d="m325.075 183.668s8.897-21.662 24.756-16.633-.383 51.97-31.332 54.928z" fill="#fd995b"/></g><g><path d="m186.925 183.668s-8.897-21.662-24.756-16.633.383 51.97 31.332 54.928z" fill="#fd995b"/></g><g><path d="m212.305 216.812v112.07c0 17.036 19.563 30.846 43.695 30.846s43.695-13.81 43.695-30.846v-112.07z" fill="#fcad6d"/></g><g><path d="m212.305 216.812v112.07c46.932 0 73.247-36.019 73.247-36.019l14.143-76.05h-87.39z" fill="#fd995b"/></g><g><path d="m337.249 173.222c0 59.83-36.377 129.999-81.249 129.999s-81.249-70.169-81.249-129.999 36.376-102.85 81.249-102.85 81.249 43.019 81.249 102.85z" fill="#f9ba8f"/></g><g><path d="m202.691 173.222c0-53.479 29.064-93.521 67.279-101.421-4.539-.938-9.206-1.428-13.97-1.428-44.873 0-81.249 43.019-81.249 102.849s36.377 129.999 81.249 129.999c4.764 0 9.431-.798 13.97-2.284-38.215-12.506-67.279-74.237-67.279-127.715z" fill="#fcad6d"/></g><g><g><g><path d="m236.617 206.285c-1.658 0-3.279-.823-4.23-2.327-1.476-2.334-.781-5.422 1.552-6.899 6.646-4.205 14.275-6.427 22.063-6.427 7.786 0 15.412 2.22 22.054 6.421 2.333 1.476 3.029 4.564 1.553 6.898-1.477 2.333-4.564 3.028-6.898 1.554-5.04-3.188-10.818-4.873-16.708-4.873-5.892 0-11.672 1.687-16.716 4.878-.831.525-1.757.775-2.67.775z" fill="#112360"/></g></g><g><g><circle cx="216.462" cy="196.134" fill="#1c2e7a" r="25"/></g></g><g><g><circle cx="295.538" cy="196.134" fill="#1c2e7a" r="25"/></g></g></g><g><path d="m282.641 13.333c-15.148 0-19.172 27.726-26.641 27.726s-11.493-27.726-26.641-27.726-67.145 81.459-66.285 147.667h92.926 92.926c.86-66.208-51.137-147.667-66.285-147.667z" fill="#3c58a0"/></g><g><path d="m344.441 122.852c-94.849 6.518-155.655-57.33-139.41-85.617-19.781 29.093-42.528 79.788-41.957 123.765h92.926 92.926c.161-12.393-1.53-25.321-4.485-38.148z" fill="#2a428c"/></g><g><path d="m389.203 150.173c0 5.555-3.658 10.439-8.984 12.018-19.835 5.879-69.938 18.915-124.219 18.915s-104.384-13.036-124.219-18.915c-5.326-1.578-8.984-6.463-8.984-12.018 0-6.92 5.61-12.53 12.53-12.53h241.346c6.92 0 12.53 5.61 12.53 12.53z" fill="#4b6bb2"/></g><g><path d="m212.305 315 43.695 44.728s-17 30.744-28 30.744-30.007-59.011-30.007-59.011z" fill="#fff"/></g><g><path d="m299.695 315-43.695 44.728s17 30.744 28 30.744 30.007-59.011 30.007-59.011z" fill="#fff"/></g><g><path d="m399.18 436.247-11.516 39.331c7.351-4.417 14.467-9.186 21.314-14.296v-23.629c0-5.78-8.174-6.953-9.798-1.406z" fill="#112360"/></g><g><path d="m103.022 437.651v23.629c6.847 5.111 13.963 9.879 21.314 14.296l-11.516-39.331c-1.624-5.545-9.798-4.372-9.798 1.406z" fill="#112360"/></g><g><path d="m234.269 159.374c0-12.002 9.729-21.731 21.731-21.731h-120.673c-6.92 0-12.53 5.61-12.53 12.53 0 5.555 3.658 10.439 8.984 12.018 19.835 5.879 69.938 18.915 124.219 18.915-12.002-.001-21.731-9.73-21.731-21.732z" fill="#3c58a0"/></g></g></svg>