<svg height="512" viewBox="0 0 64 64" width="512" xmlns="http://www.w3.org/2000/svg"><path d="m32 8a23.982 23.982 0 0 0 -20.781 12h10.39c2.076-7.172 5.95-12 10.391-12z" fill="#57a4ff"/><path d="m42.391 20h10.39a23.982 23.982 0 0 0 -20.781-12c4.441 0 8.315 4.828 10.391 12z" fill="#d1e7f8"/><path d="m21.609 20h-10.39a23.874 23.874 0 0 0 -3.219 12h12a43.609 43.609 0 0 1 1.609-12z" fill="#2488ff"/><path d="m42.391 20a43.609 43.609 0 0 1 1.609 12h12a23.874 23.874 0 0 0 -3.219-12z" fill="#bddbff"/><path d="m21.609 44h-10.39a23.982 23.982 0 0 0 20.781 12c-4.441 0-8.315-4.828-10.391-12z" fill="#005ece"/><path d="m20 32h-12a23.874 23.874 0 0 0 3.219 12h10.39a43.609 43.609 0 0 1 -1.609-12z" fill="#006df0"/><path d="m52.781 44a23.874 23.874 0 0 0 3.219-12h-12a43.609 43.609 0 0 1 -1.609 12z" fill="#9bc9ff"/><path d="m42.391 44c-2.076 7.172-5.95 12-10.391 12a23.982 23.982 0 0 0 20.781-12z" fill="#57a4ff"/><path d="m42.391 20c-2.076-7.172-5.95-12-10.391-12v12z" fill="#c2dff6"/><path d="m32 8c-4.441 0-8.315 4.828-10.391 12h10.391z" fill="#9bc9ff"/><path d="m32 20h-10.391a43.609 43.609 0 0 0 -1.609 12h12z" fill="#57a4ff"/><path d="m32 32h12a43.609 43.609 0 0 0 -1.609-12h-10.391z" fill="#9bc9ff"/><path d="m21.609 44c2.076 7.172 5.95 12 10.391 12v-12z" fill="#006df0"/><path d="m32 56c4.441 0 8.315-4.828 10.391-12h-10.391z" fill="#2488ff"/><path d="m32 32v12h10.391a43.609 43.609 0 0 0 1.609-12z" fill="#57a4ff"/><path d="m32 32h-12a43.609 43.609 0 0 0 1.609 12h10.391z" fill="#2488ff"/><g fill="#006df0"><path d="m59.37 26.066c.136.63.252 1.277.345 1.923a1 1 0 0 0 .989.858 1.019 1.019 0 0 0 .144-.011 1 1 0 0 0 .852-1.136c-.1-.692-.224-1.385-.37-2.059a1 1 0 0 0 -1.955.421z"/><path d="m12.543 11.5a1 1 0 0 0 .671-.259c.478-.433.98-.857 1.492-1.259a1 1 0 0 0 -1.236-1.582c-.549.431-1.087.886-1.6 1.35a1 1 0 0 0 .672 1.741z"/><path d="m3.41 27.012a1.036 1.036 0 0 0 .206.021 1 1 0 0 0 .978-.8c.132-.631.288-1.269.466-1.9a1 1 0 0 0 -1.925-.533c-.19.672-.358 1.356-.5 2.032a1 1 0 0 0 .775 1.18z"/><path d="m17.433 7.919a1 1 0 0 0 .5-.136c.56-.326 1.139-.637 1.718-.922a1 1 0 1 0 -.882-1.795c-.622.306-1.242.639-1.843.989a1 1 0 0 0 .5 1.864z"/><path d="m8.5 16.008a1 1 0 0 0 .811-.413c.381-.527.785-1.046 1.2-1.543a1 1 0 1 0 -1.538-1.282c-.445.532-.877 1.088-1.286 1.652a1 1 0 0 0 .224 1.4.989.989 0 0 0 .589.186z"/><path d="m5.068 21.177a.988.988 0 0 0 .405.087 1 1 0 0 0 .914-.6c.262-.59.55-1.182.855-1.758a1 1 0 0 0 -1.768-.936c-.327.617-.634 1.251-.915 1.884a1 1 0 0 0 .509 1.323z"/><path d="m55.694 17.076a1 1 0 0 0 1.694-1.066c-.369-.585-.766-1.167-1.178-1.73a1 1 0 1 0 -1.61 1.183c.382.525.752 1.067 1.094 1.613z"/><path d="m52.075 12.481a1 1 0 1 0 1.434-1.394c-.482-.5-.989-.983-1.51-1.449a1 1 0 0 0 -1.334 1.49c.486.435.96.891 1.41 1.353z"/><path d="m4.617 37.876c-.135-.629-.249-1.276-.341-1.922a1 1 0 1 0 -1.98.281c.1.692.221 1.385.365 2.059a1 1 0 0 0 .977.791.937.937 0 0 0 .21-.022 1 1 0 0 0 .769-1.187z"/><path d="m45.921 7.7c.562.322 1.12.67 1.659 1.031a1 1 0 1 0 1.12-1.66c-.578-.387-1.175-.759-1.778-1.1a1 1 0 0 0 -1 1.735z"/><path d="m57.543 20.513c.265.587.513 1.195.739 1.806a1 1 0 1 0 1.875-.694c-.241-.654-.508-1.3-.79-1.933a1 1 0 1 0 -1.824.821z"/><path d="m34.842 4.142c.641.065 1.292.153 1.934.263a1 1 0 1 0 .338-1.971c-.687-.118-1.385-.213-2.073-.282a1 1 0 1 0 -.2 1.99z"/><path d="m28.88 4.166a.977.977 0 0 0 .108-.006c.649-.07 1.3-.117 1.947-.139a1 1 0 0 0 .965-1.036 1.012 1.012 0 0 0 -1.035-.964c-.69.025-1.392.076-2.088.15a1 1 0 0 0 .105 2z"/><path d="m40.567 5.334c.62.2 1.24.422 1.84.663a1 1 0 1 0 .744-1.856c-.644-.259-1.308-.5-1.972-.711a1 1 0 0 0 -.612 1.9z"/><path d="m22.958 5.438a1.027 1.027 0 0 0 .312-.05c.612-.2 1.243-.384 1.876-.543a1 1 0 0 0 -.489-1.94c-.678.171-1.354.367-2.011.582a1 1 0 0 0 .312 1.951z"/><path d="m4 32q0-.956.063-1.894a1 1 0 0 0 -.931-1.064.985.985 0 0 0 -1.064.93c-.045.67-.068 1.352-.068 2v.085a.974.974 0 0 0 1 .969 1.026 1.026 0 0 0 1-1.026z"/><path d="m40.675 58.63c-.62.2-1.252.383-1.876.538a1 1 0 1 0 .482 1.941c.67-.166 1.348-.36 2.013-.577a1 1 0 1 0 -.619-1.9z"/><path d="m50.743 52.8c-.482.435-.986.858-1.5 1.258a1 1 0 1 0 1.232 1.574c.547-.428 1.086-.881 1.6-1.345a1 1 0 0 0 -1.332-1.487z"/><path d="m46.016 56.246c-.562.325-1.141.634-1.722.919a1 1 0 0 0 .44 1.9.986.986 0 0 0 .439-.1c.623-.3 1.243-.635 1.845-.983a1 1 0 0 0 -1-1.731z"/><path d="m54.659 48.453c-.379.521-.784 1.039-1.2 1.541a1 1 0 1 0 1.533 1.284c.449-.537.883-1.091 1.288-1.649a1 1 0 1 0 -1.617-1.176z"/><path d="m61 30.879a1 1 0 0 0 -1 1v.121c0 .649-.022 1.307-.067 1.952a1 1 0 0 0 .929 1.067h.07a1 1 0 0 0 1-.931c.044-.688.068-1.388.068-2.088v-.121a1 1 0 0 0 -1-1z"/><path d="m60.579 37.048a1 1 0 0 0 -1.184.772c-.133.63-.291 1.267-.471 1.9a1 1 0 0 0 .686 1.236.986.986 0 0 0 .277.039 1 1 0 0 0 .961-.725c.192-.673.361-1.357.5-2.033a1 1 0 0 0 -.769-1.189z"/><path d="m58.91 42.879a1 1 0 0 0 -1.32.507c-.263.588-.552 1.179-.859 1.757a1 1 0 0 0 .414 1.352.987.987 0 0 0 .468.117 1 1 0 0 0 .884-.53c.329-.618.639-1.251.919-1.883a1 1 0 0 0 -.506-1.32z"/><path d="m8.273 46.874a1 1 0 0 0 -1.693 1.064c.369.588.764 1.171 1.173 1.731a1 1 0 1 0 1.616-1.178c-.382-.524-.751-1.068-1.096-1.617z"/><path d="m18.028 56.271c-.56-.324-1.118-.672-1.658-1.036a1 1 0 1 0 -1.118 1.659c.579.39 1.177.763 1.776 1.109a1 1 0 1 0 1-1.732z"/><path d="m11.884 51.477a1 1 0 0 0 -1.437 1.391c.485.5.991.988 1.507 1.452a1 1 0 0 0 1.337-1.487c-.481-.433-.955-.89-1.407-1.356z"/><path d="m6.433 43.434c-.266-.592-.513-1.2-.735-1.807a1 1 0 0 0 -1.878.688c.239.65.5 1.3.787 1.936a1 1 0 0 0 .914.592 1 1 0 0 0 .912-1.409z"/><path d="m34.954 59.846c-.646.068-1.3.113-1.947.135a1 1 0 0 0 .033 2h.035c.693-.023 1.395-.072 2.088-.145a1 1 0 0 0 -.209-1.989z"/><path d="m29.1 59.852c-.64-.066-1.291-.156-1.935-.267a1 1 0 0 0 -.341 1.971c.689.119 1.386.215 2.072.285a.9.9 0 0 0 .1.006 1 1 0 0 0 .1-2z"/><path d="m23.377 58.647c-.618-.2-1.236-.423-1.838-.666a1 1 0 1 0 -.747 1.855c.645.26 1.308.5 1.97.715a1.032 1.032 0 0 0 .308.049 1 1 0 0 0 .307-1.953z"/></g></svg>